*
*
G04 PADS 9.5 Build Number: 522968 generated Gerber (RS-274-X) file*
G04 PC Version=2.1*
*
%IN "ESP32_CORE_BOARD_V2_201"*%
*
%MOIN*%
*
%FSLAX35Y35*%
*
*
*
*
G04 PC Standard Apertures*
*
*
G04 Thermal Relief Aperture macro.*
%AMTER*
1,1,$1,0,0*
1,0,$1-$2,0,0*
21,0,$3,$4,0,0,45*
21,0,$3,$4,0,0,135*
%
*
*
G04 Annular Aperture macro.*
%AMANN*
1,1,$1,0,0*
1,0,$2,0,0*
%
*
*
G04 Odd Aperture macro.*
%AMODD*
1,1,$1,0,0*
1,0,$1-0.005,0,0*
%
*
*
G04 PC Custom Aperture Macros*
*
*
*
*
*
*
G04 PC Aperture Table*
*
%ADD010C,0.001*%
%ADD024C,0.005*%
%ADD031C,0.00394*%
%ADD115C,0.06299*%
%ADD136C,0.00001*%
%ADD160O,0.06299X0.0748*%
*
*
*
*
G04 PC Circuitry*
G04 Layer Name ESP32_CORE_BOARD_V2_201 - circuitry*
%LPD*%
*
*
G04 PC Custom Flashes*
G04 Layer Name ESP32_CORE_BOARD_V2_201 - flashes*
%LPD*%
*
*
G04 PC Circuitry*
G04 Layer Name ESP32_CORE_BOARD_V2_201 - circuitry*
%LPD*%
*
G54D10*
G01X1968544Y1764853D02*
X1968547D01*
X2078294Y1764783D02*
X2078297D01*
X2078304Y1574803D02*
X2078307D01*
X2078284Y1764743D02*
X2078287D01*
G54D24*
X1968544Y1775163D02*
X2012692D01*
X1968544D02*
X1973544Y1776163D01*
Y1774163*
X1968544Y1775163*
X2078294D02*
X2034146D01*
X2078294D02*
X2073294Y1774163D01*
Y1776163*
X2078294Y1775163*
X1968544Y1766853D02*
Y1777163D01*
X2078294Y1766783D02*
Y1777163D01*
X2015805Y1775788D02*
Y1775944D01*
X2015919Y1776257*
X2016033Y1776413*
X2016260Y1776569*
X2016714*
X2016942Y1776413*
X2017055Y1776257*
X2017169Y1775944*
Y1775632*
X2017055Y1775319*
X2016828Y1774851*
X2016828D02*
X2015692Y1773288D01*
X2017283*
X2019896Y1776569D02*
X2018760Y1773288D01*
X2018305Y1776569D02*
X2019896D01*
X2021033Y1773601D02*
X2020919Y1773444D01*
X2021033Y1773288*
X2021146Y1773444*
X2021033Y1773601*
X2023646Y1775476D02*
X2023533Y1775007D01*
X2023305Y1774694*
X2022964Y1774538*
X2022851*
X2022510Y1774694*
X2022283Y1775007*
X2022169Y1775476*
X2022169D02*
Y1775632D01*
X2022283Y1776101*
X2022283D02*
X2022510Y1776413D01*
X2022851Y1776569*
X2022964*
X2023305Y1776413*
X2023533Y1776101*
X2023533D02*
X2023646Y1775476D01*
X2023646D02*
Y1774694D01*
X2023533Y1773913*
X2023305Y1773444*
X2022964Y1773288*
X2022737*
X2022396Y1773444*
X2022283Y1773757*
X2024669Y1775476D02*
Y1773288D01*
Y1774851D02*
X2025010Y1775319D01*
X2025237Y1775476*
X2025237D02*
X2025578D01*
X2025578D02*
X2025805Y1775319D01*
X2025919Y1774851*
X2025919D02*
Y1773288D01*
Y1774851D02*
X2026260Y1775319D01*
X2026487Y1775476*
X2026487D02*
X2026828D01*
X2026828D02*
X2027055Y1775319D01*
X2027169Y1774851*
X2027169D02*
Y1773288D01*
X2028192Y1775476D02*
Y1773288D01*
Y1774851D02*
X2028533Y1775319D01*
X2028760Y1775476*
X2028760D02*
X2029101D01*
X2029101D02*
X2029328Y1775319D01*
X2029442Y1774851*
X2029442D02*
Y1773288D01*
Y1774851D02*
X2029783Y1775319D01*
X2030010Y1775476*
X2030010D02*
X2030351D01*
X2030351D02*
X2030578Y1775319D01*
X2030692Y1774851*
X2030692D02*
Y1773288D01*
X2091094Y1574803D02*
Y1664898D01*
Y1574803D02*
X2090094Y1579803D01*
X2092094*
X2091094Y1574803*
Y1764743D02*
Y1674648D01*
Y1764743D02*
X2092094Y1759743D01*
X2090094*
X2091094Y1764743*
X2080304Y1574803D02*
X2093094D01*
X2080284Y1764743D02*
X2093094D01*
X2084389Y1671179D02*
X2083253Y1668992D01*
X2084958*
X2084389Y1671179D02*
Y1667898D01*
X2086549Y1671179D02*
X2086208Y1671023D01*
X2086094Y1670711*
X2086094D02*
Y1670398D01*
X2086208Y1670086*
X2086208D02*
X2086435Y1669929D01*
X2086889Y1669773*
X2087230Y1669617*
X2087458Y1669304*
X2087571Y1668992*
Y1668523*
X2087458Y1668211*
X2087458D02*
X2087344Y1668054D01*
X2087003Y1667898*
X2086549*
X2086208Y1668054*
X2086094Y1668211*
X2086094D02*
X2085980Y1668523D01*
Y1668992*
X2086094Y1669304*
X2086321Y1669617*
X2086662Y1669773*
X2087117Y1669929*
X2087344Y1670086*
X2087344D02*
X2087458Y1670398D01*
Y1670711*
X2087458D02*
X2087344Y1671023D01*
X2087003Y1671179*
X2086549*
X2088708Y1668211D02*
X2088594Y1668054D01*
X2088708Y1667898*
X2088821Y1668054*
X2088708Y1668211*
X2089958Y1670398D02*
Y1670554D01*
X2090071Y1670867*
X2090185Y1671023*
X2090412Y1671179*
X2090867*
X2091094Y1671023*
X2091208Y1670867*
X2091321Y1670554*
Y1670242*
X2091208Y1669929*
X2090980Y1669461*
X2090980D02*
X2089844Y1667898D01*
X2091435*
X2092458Y1670086D02*
Y1667898D01*
Y1669461D02*
X2092799Y1669929D01*
X2093026Y1670086*
X2093026D02*
X2093367D01*
X2093367D02*
X2093594Y1669929D01*
X2093708Y1669461*
X2093708D02*
Y1667898D01*
Y1669461D02*
X2094049Y1669929D01*
X2094276Y1670086*
X2094276D02*
X2094617D01*
X2094617D02*
X2094844Y1669929D01*
X2094958Y1669461*
X2094958D02*
Y1667898D01*
X2095980Y1670086D02*
Y1667898D01*
Y1669461D02*
X2096321Y1669929D01*
X2096549Y1670086*
X2096549D02*
X2096889D01*
X2096889D02*
X2097117Y1669929D01*
X2097230Y1669461*
X2097230D02*
Y1667898D01*
Y1669461D02*
X2097571Y1669929D01*
X2097799Y1670086*
X2097799D02*
X2098139D01*
X2098139D02*
X2098367Y1669929D01*
X2098480Y1669461*
X2098480D02*
Y1667898D01*
G54D31*
X1968504Y1764783D02*
X2078304D01*
Y1574803*
X1968504*
Y1764783*
G54D115*
X1973404Y1759883D03*
Y1749883D03*
Y1739883D03*
Y1729883D03*
Y1719883D03*
Y1709883D03*
Y1699883D03*
Y1689883D03*
Y1679883D03*
Y1669883D03*
Y1659883D03*
Y1649883D03*
Y1639883D03*
Y1629883D03*
Y1619883D03*
Y1609883D03*
Y1599883D03*
Y1589883D03*
Y1579883D03*
X2073404Y1759883D03*
Y1749883D03*
Y1739883D03*
Y1729883D03*
Y1719883D03*
Y1709883D03*
Y1699883D03*
Y1689883D03*
Y1679883D03*
Y1669883D03*
Y1659883D03*
Y1649883D03*
Y1639883D03*
Y1629883D03*
Y1619883D03*
Y1609883D03*
Y1599883D03*
Y1589883D03*
Y1579883D03*
G54D136*
X2005904Y1600453D02*
Y1575223D01*
X2041234*
Y1600813*
X2033004*
Y1592833*
X2013054*
Y1600453*
X2005904*
X2027094Y1575223D02*
X2041234Y1589362D01*
X2033004Y1595275D02*
X2038542Y1600813D01*
X2012952Y1575223D02*
X2030562Y1592833D01*
X2005904Y1582317D02*
X2016420Y1592833D01*
X2005904Y1596459D02*
X2009898Y1600453D01*
X2036880Y1600813D02*
X2041234Y1596459D01*
X2030718Y1592833D02*
X2041234Y1582317D01*
X2016576Y1592833D02*
X2034186Y1575223D01*
X2005904Y1589362D02*
X2020044Y1575223D01*
X2008956Y1600453D02*
X2013054Y1596355D01*
G54D160*
X2009624Y1582063D03*
X2037184D03*
X2009624Y1596630D03*
X2037184D03*
X0Y0D02*
M02*
