*
*
G04 PADS 9.5 Build Number: 522968 generated Gerber (RS-274-X) file*
G04 PC Version=2.1*
*
%IN "ESP32_CORE_BOARD_V2_201"*%
*
%MOIN*%
*
%FSLAX35Y35*%
*
*
*
*
G04 PC Standard Apertures*
*
*
G04 Thermal Relief Aperture macro.*
%AMTER*
1,1,$1,0,0*
1,0,$1-$2,0,0*
21,0,$3,$4,0,0,45*
21,0,$3,$4,0,0,135*
%
*
*
G04 Annular Aperture macro.*
%AMANN*
1,1,$1,0,0*
1,0,$2,0,0*
%
*
*
G04 Odd Aperture macro.*
%AMODD*
1,1,$1,0,0*
1,0,$1-0.005,0,0*
%
*
*
G04 PC Custom Aperture Macros*
*
*
*
*
*
*
G04 PC Aperture Table*
*
%ADD010C,0.001*%
%ADD024C,0.005*%
%ADD031C,0.00394*%
*
*
*
*
G04 PC Circuitry*
G04 Layer Name ESP32_CORE_BOARD_V2_201 - circuitry*
%LPD*%
*
*
G04 PC Custom Flashes*
G04 Layer Name ESP32_CORE_BOARD_V2_201 - flashes*
%LPD*%
*
*
G04 PC Circuitry*
G04 Layer Name ESP32_CORE_BOARD_V2_201 - circuitry*
%LPD*%
*
G54D10*
G01X1968544Y1764853D02*
X1968547D01*
X2078294Y1764783D02*
X2078297D01*
X2078304Y1574803D02*
X2078307D01*
X2078284Y1764743D02*
X2078287D01*
G54D24*
X2052014Y1741541D02*
Y1737603D01*
Y1741541D02*
X2050241D01*
X2052014Y1739666D02*
X2050923D01*
X2052014Y1737603D02*
X2050241D01*
X2047105Y1740978D02*
X2047378Y1741353D01*
X2047787Y1741541*
X2048332*
X2048741Y1741353*
X2049014Y1740978*
Y1740603*
X2048878Y1740228*
X2048741Y1740041*
X2048468Y1739853*
X2047650Y1739478*
X2047378Y1739291*
X2047241Y1739103*
X2047105Y1738728*
Y1738166*
X2047378Y1737791*
X2047787Y1737603*
X2048332*
X2048741Y1737791*
X2049014Y1738166*
X2045878Y1741541D02*
Y1737603D01*
Y1741541D02*
X2044650D01*
X2044241Y1741353*
X2044105Y1741166*
X2043968Y1740791*
Y1740228*
X2044105Y1739853*
X2044241Y1739666*
X2044650Y1739478*
X2045878*
X2042468Y1741541D02*
X2040968D01*
X2041787Y1740041*
X2041378*
X2041105Y1739853*
X2040968Y1739666*
X2040832Y1739103*
Y1738728*
X2040968Y1738166*
X2041241Y1737791*
X2041650Y1737603*
X2042059*
X2042468Y1737791*
X2042605Y1737978*
X2042741Y1738353*
X2039468Y1740603D02*
Y1740791D01*
X2039332Y1741166*
X2039196Y1741353*
X2038923Y1741541*
X2038378*
X2038105Y1741353*
X2037968Y1741166*
X2037832Y1740791*
Y1740416*
X2037968Y1740041*
X2038241Y1739478*
X2039605Y1737603*
X2037696*
X2036468Y1736853D02*
X2033605D01*
X2030741Y1740603D02*
X2030878Y1740978D01*
X2031150Y1741353*
X2031423Y1741541*
X2031968*
X2032241Y1741353*
X2032514Y1740978*
X2032650Y1740603*
X2032787Y1740041*
Y1739103*
X2032650Y1738541*
X2032514Y1738166*
X2032241Y1737791*
X2031968Y1737603*
X2031423*
X2031150Y1737791*
X2030878Y1738166*
X2030741Y1738541*
X2028832Y1740228D02*
X2029105Y1740041D01*
X2029378Y1739666*
X2029514Y1739103*
Y1738728*
X2029378Y1738166*
X2029105Y1737791*
X2028832Y1737603*
X2028423*
X2028150Y1737791*
X2027878Y1738166*
X2027741Y1738728*
Y1739103*
X2027878Y1739666*
X2028150Y1740041*
X2028423Y1740228*
X2028832*
X2026514D02*
Y1737603D01*
Y1739103D02*
X2026378Y1739666D01*
X2026105Y1740041*
X2025832Y1740228*
X2025423*
X2024196Y1739103D02*
X2022559D01*
Y1739478*
X2022696Y1739853*
X2022832Y1740041*
X2023105Y1740228*
X2023514*
X2023787Y1740041*
X2024059Y1739666*
X2024196Y1739103*
Y1738728*
X2024059Y1738166*
X2023787Y1737791*
X2023514Y1737603*
X2023105*
X2022832Y1737791*
X2022559Y1738166*
X2021332Y1736853D02*
X2018468D01*
X2017650Y1741541D02*
Y1737603D01*
Y1739666D02*
X2017378Y1740041D01*
X2017105Y1740228*
X2016696*
X2016423Y1740041*
X2016150Y1739666*
X2016014Y1739103*
Y1738728*
X2016150Y1738166*
X2016423Y1737791*
X2016696Y1737603*
X2017105*
X2017378Y1737791*
X2017650Y1738166*
X2014105Y1740228D02*
X2014378Y1740041D01*
X2014650Y1739666*
X2014787Y1739103*
Y1738728*
X2014650Y1738166*
X2014378Y1737791*
X2014105Y1737603*
X2013696*
X2013423Y1737791*
X2013150Y1738166*
X2013014Y1738728*
Y1739103*
X2013150Y1739666*
X2013423Y1740041*
X2013696Y1740228*
X2014105*
X2010150D02*
Y1737603D01*
Y1739666D02*
X2010423Y1740041D01*
X2010696Y1740228*
X2011105*
X2011378Y1740041*
X2011650Y1739666*
X2011787Y1739103*
Y1738728*
X2011650Y1738166*
X2011378Y1737791*
X2011105Y1737603*
X2010696*
X2010423Y1737791*
X2010150Y1738166*
X2008923Y1740228D02*
Y1737603D01*
Y1739103D02*
X2008787Y1739666D01*
X2008514Y1740041*
X2008241Y1740228*
X2007832*
X2004968Y1741541D02*
Y1737603D01*
Y1739666D02*
X2005241Y1740041D01*
X2005514Y1740228*
X2005923*
X2006196Y1740041*
X2006468Y1739666*
X2006605Y1739103*
Y1738728*
X2006468Y1738166*
X2006196Y1737791*
X2005923Y1737603*
X2005514*
X2005241Y1737791*
X2004968Y1738166*
X2003741Y1736853D02*
X2000878D01*
X2000059Y1741541D02*
X1998968Y1737603D01*
X1997878Y1741541D02*
X1998968Y1737603D01*
X1996514Y1740603D02*
Y1740791D01*
X1996378Y1741166*
X1996241Y1741353*
X1995968Y1741541*
X1995423*
X1995150Y1741353*
X1995014Y1741166*
X1994878Y1740791*
Y1740416*
X1995014Y1740041*
X1995287Y1739478*
X1996650Y1737603*
X1994741*
X1968544Y1775163D02*
X2012692D01*
X1968544D02*
X1973544Y1776163D01*
Y1774163*
X1968544Y1775163*
X2078294D02*
X2034146D01*
X2078294D02*
X2073294Y1774163D01*
Y1776163*
X2078294Y1775163*
X1968544Y1766853D02*
Y1777163D01*
X2078294Y1766783D02*
Y1777163D01*
X2015805Y1775788D02*
Y1775944D01*
X2015919Y1776257*
X2016033Y1776413*
X2016260Y1776569*
X2016714*
X2016942Y1776413*
X2017055Y1776257*
X2017169Y1775944*
Y1775632*
X2017055Y1775319*
X2016828Y1774851*
X2015692Y1773288*
X2017283*
X2019896Y1776569D02*
X2018760Y1773288D01*
X2018305Y1776569D02*
X2019896D01*
X2021033Y1773601D02*
X2020919Y1773444D01*
X2021033Y1773288*
X2021146Y1773444*
X2021033Y1773601*
X2023646Y1775476D02*
X2023533Y1775007D01*
X2023305Y1774694*
X2022964Y1774538*
X2022851*
X2022510Y1774694*
X2022283Y1775007*
X2022169Y1775476*
Y1775632*
X2022283Y1776101*
X2022510Y1776413*
X2022851Y1776569*
X2022964*
X2023305Y1776413*
X2023533Y1776101*
X2023646Y1775476*
Y1774694*
X2023533Y1773913*
X2023305Y1773444*
X2022964Y1773288*
X2022737*
X2022396Y1773444*
X2022283Y1773757*
X2024669Y1775476D02*
Y1773288D01*
Y1774851D02*
X2025010Y1775319D01*
X2025237Y1775476*
X2025578*
X2025805Y1775319*
X2025919Y1774851*
Y1773288*
Y1774851D02*
X2026260Y1775319D01*
X2026487Y1775476*
X2026828*
X2027055Y1775319*
X2027169Y1774851*
Y1773288*
X2028192Y1775476D02*
Y1773288D01*
Y1774851D02*
X2028533Y1775319D01*
X2028760Y1775476*
X2029101*
X2029328Y1775319*
X2029442Y1774851*
Y1773288*
Y1774851D02*
X2029783Y1775319D01*
X2030010Y1775476*
X2030351*
X2030578Y1775319*
X2030692Y1774851*
Y1773288*
X2091094Y1574803D02*
Y1664898D01*
Y1574803D02*
X2090094Y1579803D01*
X2092094*
X2091094Y1574803*
Y1764743D02*
Y1674648D01*
Y1764743D02*
X2092094Y1759743D01*
X2090094*
X2091094Y1764743*
X2080304Y1574803D02*
X2093094D01*
X2080284Y1764743D02*
X2093094D01*
X2084389Y1671179D02*
X2083253Y1668992D01*
X2084958*
X2084389Y1671179D02*
Y1667898D01*
X2086548Y1671179D02*
X2086208Y1671023D01*
X2086094Y1670711*
Y1670398*
X2086208Y1670086*
X2086435Y1669929*
X2086889Y1669773*
X2087230Y1669617*
X2087458Y1669304*
X2087571Y1668992*
Y1668523*
X2087458Y1668211*
X2087344Y1668054*
X2087003Y1667898*
X2086548*
X2086208Y1668054*
X2086094Y1668211*
X2085980Y1668523*
Y1668992*
X2086094Y1669304*
X2086321Y1669617*
X2086662Y1669773*
X2087117Y1669929*
X2087344Y1670086*
X2087458Y1670398*
Y1670711*
X2087344Y1671023*
X2087003Y1671179*
X2086548*
X2088708Y1668211D02*
X2088594Y1668054D01*
X2088708Y1667898*
X2088821Y1668054*
X2088708Y1668211*
X2089958Y1670398D02*
Y1670554D01*
X2090071Y1670867*
X2090185Y1671023*
X2090412Y1671179*
X2090867*
X2091094Y1671023*
X2091208Y1670867*
X2091321Y1670554*
Y1670242*
X2091208Y1669929*
X2090980Y1669461*
X2089844Y1667898*
X2091435*
X2092458Y1670086D02*
Y1667898D01*
Y1669461D02*
X2092798Y1669929D01*
X2093026Y1670086*
X2093367*
X2093594Y1669929*
X2093708Y1669461*
Y1667898*
Y1669461D02*
X2094048Y1669929D01*
X2094276Y1670086*
X2094617*
X2094844Y1669929*
X2094958Y1669461*
Y1667898*
X2095980Y1670086D02*
Y1667898D01*
Y1669461D02*
X2096321Y1669929D01*
X2096548Y1670086*
X2096889*
X2097117Y1669929*
X2097230Y1669461*
Y1667898*
Y1669461D02*
X2097571Y1669929D01*
X2097798Y1670086*
X2098139*
X2098367Y1669929*
X2098480Y1669461*
Y1667898*
G54D31*
X1968504Y1764783D02*
X2078304D01*
Y1574803*
X1968504*
Y1764783*
X0Y0D02*
M02*
