%
T1C.00984F0S0
X19856Y157769
X198118Y157838
X198242Y158397
X199661Y158893
X198056Y159177
X199188Y159225
X198014Y160205
X199703Y160941
X198001Y162103
X199749Y163071
X197736Y163483
X199398Y16396
X197814Y164643
X198239Y16497
X198655Y165753
X197959Y166162
X198725Y166748
X198952Y166932
X19875Y167047
X198781Y167304
X19807Y168198
X198063Y169213
X197994Y17022
X197925Y171042
X19798Y173195
X197987Y174051
X199612Y175477
X199366Y17548
X199588Y175964
X198042Y17597
X200844Y176108
X20005Y176094
X201693Y17608
X200451Y175639
X201341Y175604
X202225Y17559
X200899Y175183
X201873Y175024
X20059Y174536
X201396Y174431
X202011Y17374
X201169Y173734
X200144Y173484
X201595Y173329
X200144Y172984
X201134Y172974
X202087Y172967
X200144Y172484
X201949Y172208
X201141Y172194
X200144Y171984
X201024Y171504
X201831Y17149
X200144Y171484
X200144Y170984
X202038Y170786
X201072Y17071
X200144Y170484
X201507Y170186
X20068Y169991
X2Y169984
X20211Y169599
X20161Y169598
X201114Y169595
X200772Y169593
X2002Y166976
X201445Y163825
X201128Y163821
X201643Y163489
X200512Y162795
X201797Y161268
X201403Y161178
X2021Y160985
X201155Y160937
X201714Y160893
X200196Y158921
X200175Y158583
X200329Y158203
X199938Y158022
X200182Y157706
X204558Y157713
X204468Y157995
X204565Y158335
X204308Y158681
X204527Y158938
X202912Y159989
X204435Y160017
X20389Y160236
X203404Y160893
X202575Y16091
X202815Y160926
X20472Y161063
X203902Y161268
X204301Y161284
X203395Y161728
X203053Y16187
X204249Y162008
X20333Y162128
X203352Y162555
X202485Y162626
X204199Y162795
X203077Y163525
X202832Y163613
X204177Y164332
X204449Y164627
X203851Y164739
X204703Y165174
X20461Y169586
X20261Y169604
X203116Y169604
X204311Y169785
X20335Y170121
X20471Y170137
X202474Y170174
X204261Y1702
X204703Y170648
X203039Y170697
X204275Y1712
X202901Y171483
X204647Y171739
X202915Y172118
X204309Y172229
X204589Y172566
X20297Y172891
X204774Y17304
X202424Y173316
X20434Y173363
X20297Y173734
X203667Y173885
X204079Y173984
X203288Y174396
X202411Y174417
X204255Y174869
X202818Y174962
X203743Y174997
X204568Y175296
X203122Y175576
X204185Y175583
X204672Y175656
X20442Y176073
X202584Y176073
X203446Y176087
X206701Y175994
X20509Y175982
X206647Y175138
X205083Y174984
X206616Y174729
X205104Y174484
X205083Y173984
X205103Y173484
X205103Y172484
X205103Y171984
X205103Y171484
X205103Y170984
X205103Y170484
X205Y169984
X205Y169484
X205Y166732
X205334Y165089
X205883Y163811
X20659Y163287
X206173Y163156
X205062Y161855
X206663Y160136
X205345Y15917
X206621Y159142
X205655Y158694
X206477Y158328
X204921Y158019
X206318Y15781
T2C.02362F0S0
X201553Y159057
X203128Y159057
X200962Y158049G85X200962Y158364
X203718Y158049G85X203718Y158364
X200962Y159506G85X200962Y15982
X203718Y159506G85X203718Y15982
T3C.03543F0S0
X19734Y157988
X19734Y158988
X19734Y159988
X19734Y160988
X19734Y161988
X19734Y162988
X19734Y163988
X19734Y164988
X19734Y165988
X19734Y166988
X19734Y167988
X19734Y168988
X19734Y169988
X19734Y170988
X19734Y171988
X19734Y172988
X19734Y173988
X19734Y174988
X19734Y175988
X20734Y175988
X20734Y174988
X20734Y173988
X20734Y172988
X20734Y171988
X20734Y170988
X20734Y169988
X20734Y168988
X20734Y167988
X20734Y166988
X20734Y165988
X20734Y164988
X20734Y163988
X20734Y162988
X20734Y161988
X20734Y160988
X20734Y159988
X20734Y158988
X20734Y157988
M30
