*
*
G04 PADS 9.5 Build Number: 522968 generated Gerber (RS-274-X) file*
G04 PC Version=2.1*
*
%IN "ESP32_CORE_BOARD_V2_201"*%
*
%MOIN*%
*
%FSLAX35Y35*%
*
*
*
*
G04 PC Standard Apertures*
*
*
G04 Thermal Relief Aperture macro.*
%AMTER*
1,1,$1,0,0*
1,0,$1-$2,0,0*
21,0,$3,$4,0,0,45*
21,0,$3,$4,0,0,135*
%
*
*
G04 Annular Aperture macro.*
%AMANN*
1,1,$1,0,0*
1,0,$2,0,0*
%
*
*
G04 Odd Aperture macro.*
%AMODD*
1,1,$1,0,0*
1,0,$1-0.005,0,0*
%
*
*
G04 PC Custom Aperture Macros*
*
*
*
*
*
*
G04 PC Aperture Table*
*
%ADD010C,0.001*%
%ADD012C,0.01*%
%ADD024C,0.005*%
%ADD025C,0.006*%
%ADD029C,0.00787*%
%ADD031C,0.00394*%
%ADD054C,0.008*%
%ADD124C,0.00787*%
%ADD125C,0.00394*%
%ADD127C,0.00984*%
%ADD128C,0.00004*%
*
*
*
*
G04 PC Circuitry*
G04 Layer Name ESP32_CORE_BOARD_V2_201 - circuitry*
%LPD*%
*
*
G04 PC Custom Flashes*
G04 Layer Name ESP32_CORE_BOARD_V2_201 - flashes*
%LPD*%
*
*
G04 PC Circuitry*
G04 Layer Name ESP32_CORE_BOARD_V2_201 - circuitry*
%LPD*%
*
G54D10*
G01X2007443Y1571501D02*
Y1571108D01*
X2007640Y1580163D02*
Y1583706D01*
X2008428Y1571229D02*
Y1571108D01*
X2008590Y1571229D02*
Y1571108D01*
X2008624Y1593155D02*
Y1573852D01*
X2009609Y1573197D02*
Y1573470D01*
X2009700D02*
Y1573197D01*
X2010002Y1593155D02*
Y1573470D01*
X2010070Y1573197D02*
Y1573470D01*
X2010396D02*
Y1571108D01*
X2036707Y1573197D02*
X2037609Y1572042D01*
X2037168Y1573197D02*
X2038349Y1571229D01*
X2038348Y1573143D02*
X2039333Y1571501D01*
X2037076Y1573197D02*
X2037609Y1572042D01*
X2036380Y1573470D02*
Y1571108D01*
X2036707Y1573197D02*
Y1573470D01*
X2036774D02*
Y1593155D01*
X2037076Y1573197D02*
Y1573470D01*
X2037168Y1573197D02*
Y1573470D01*
X2038152Y1573852D02*
Y1593155D01*
X2038187Y1571229D02*
Y1571108D01*
X2038349Y1571229D02*
Y1571108D01*
X2039136Y1583706D02*
Y1580163D01*
X2039333Y1571501D02*
Y1571108D01*
X2009700Y1573197D02*
X2009167Y1572042D01*
X2008428Y1573143D02*
X2007443Y1571501D01*
X2009609Y1573197D02*
X2008428Y1571229D01*
X2010070Y1573197D02*
X2009167Y1572042D01*
X2036380Y1571108D02*
X2010396D01*
X2007443D02*
X2008590D01*
X2038187D02*
X2039333D01*
X2038349Y1571229D02*
X2038187D01*
X2008590D02*
X2008428D01*
X2010396Y1571501D02*
X2036380D01*
Y1573143D02*
X2010396D01*
X2037168Y1573197D02*
X2036707D01*
X2010070D02*
X2009609D01*
X2010396Y1573470D02*
X2008570D01*
X2036380D02*
X2038206D01*
X2038152Y1573852D02*
X2008624D01*
X2039136Y1580163D02*
X2038152D01*
X2008624D02*
X2007640D01*
Y1583706D02*
X2008624D01*
X2038152D02*
X2039136D01*
X2008624Y1593155D02*
X2038152D01*
Y1573852D02*
G75*
G03X2038349Y1573142I1378J-0D01*
G01X2008428D02*
G03X2008624Y1573852I-1182J710D01*
G01X1999081Y1625043D02*
Y1610083D01*
X1984907*
Y1625043*
X1999081*
X2048197Y1609754D02*
Y1624714D01*
X2062371*
Y1609754*
X2048197*
X1968544Y1764853D02*
X1968547D01*
X2078294Y1764783D02*
X2078297D01*
X2078304Y1574803D02*
X2078307D01*
X2078284Y1764743D02*
X2078287D01*
G54D12*
X2002314Y1610119D02*
Y1618387D01*
X2008614*
Y1610119*
X2002314*
Y1615703D02*
X2008614D01*
X2049213Y1582133D02*
Y1597881D01*
X2061024*
Y1582133*
X2049213*
X1986220D02*
Y1597881D01*
X1998031*
Y1582133*
X1986220*
G54D24*
X2001029Y1590913D02*
X2000471Y1591471D01*
Y1597535*
X2001029Y1598093*
X2002909*
X2003467Y1597535*
Y1591471*
X2002909Y1590913*
X2001029*
X2044336D02*
X2043778Y1591471D01*
Y1597535*
X2044336Y1598093*
X2046216*
X2046774Y1597535*
Y1591471*
X2046216Y1590913*
X2044336*
X2013164Y1621583D02*
X2013722Y1621025D01*
Y1614961*
X2013164Y1614403*
X2011284*
X2010726Y1614961*
Y1621025*
X2011284Y1621583*
X2013164*
X2023954Y1637423D02*
X2023396Y1636865D01*
X2017332*
X2016774Y1637423*
Y1639303*
X2017332Y1639861*
X2023396*
X2023954Y1639303*
Y1637423*
X1990583Y1642209D02*
X1989589Y1643203D01*
Y1660375*
X1990583Y1661369*
X1997205*
X1998199Y1660375*
Y1643203*
X1997213Y1642209*
X1990583*
X1987484Y1666093D02*
X1988042Y1665535D01*
Y1659471*
X1987484Y1658913*
X1985604*
X1985046Y1659471*
Y1665535*
X1985604Y1666093*
X1987484*
X1987474Y1647373D02*
X1988032Y1646815D01*
Y1640751*
X1987474Y1640193*
X1985594*
X1985036Y1640751*
Y1646815*
X1985594Y1647373*
X1987474*
X2015143Y1607512D02*
Y1603512D01*
X2024143*
Y1607512*
X2015143*
X2024210Y1607480D02*
X2025155Y1606535D01*
Y1604449*
X2024210Y1603504*
X2036044Y1603512D02*
Y1607512D01*
X2027044*
Y1603512*
X2036044*
X2026977Y1603543D02*
X2026032Y1604488D01*
Y1606575*
X2026977Y1607520*
X1985036Y1655293D02*
X1988032D01*
Y1648113*
X1985036*
Y1655293*
X2060332Y1629973D02*
X2057336D01*
Y1637153*
X2060332*
Y1629973*
X2054844D02*
X2051848D01*
Y1637153*
X2054844*
Y1629973*
X2049529Y1640683D02*
X2046533D01*
Y1647863*
X2049529*
Y1640683*
X2041022Y1609253D02*
X2044018D01*
Y1602073*
X2041022*
Y1609253*
X2054844Y1640683D02*
X2051848D01*
Y1647863*
X2054844*
Y1640683*
X1999084Y1628691D02*
Y1625695D01*
X1991904*
Y1628691*
X1999084*
X2045623Y1606156D02*
Y1609152D01*
X2052803*
Y1606156*
X2045623*
X2049529Y1629973D02*
X2046533D01*
Y1637153*
X2049529*
Y1629973*
X2003676Y1670125D02*
X2006672D01*
Y1662945*
X2003676*
Y1670125*
X1993602Y1669473D02*
X1990606D01*
Y1676653*
X1993602*
Y1669473*
X2055534Y1606156D02*
Y1609152D01*
X2062714*
Y1606156*
X2055534*
X1993754Y1608911D02*
Y1605915D01*
X1986574*
Y1608911*
X1993754*
X2057336Y1647863D02*
X2060332D01*
Y1640683*
X2057336*
Y1647863*
X2044998Y1667037D02*
X2036057D01*
Y1671932*
X2010550*
Y1645554*
X2035599*
Y1650449*
X2044998*
Y1667037*
X2005164Y1636061D02*
Y1633065D01*
X1997984*
Y1636061*
X2005164*
X2010213Y1642960D02*
X2010100Y1643273D01*
X2009873Y1643585*
X2009645Y1643741*
X2009191*
X2008963Y1643585*
X2008736Y1643273*
X2008623Y1642960*
X2008509Y1642491*
Y1641710*
X2008623Y1641241*
X2008736Y1640929*
X2008963Y1640616*
X2009191Y1640460*
X2009645*
X2009873Y1640616*
X2010100Y1640929*
X2010213Y1641241*
X2011236Y1643116D02*
X2011463Y1643273D01*
X2011804Y1643741*
Y1640460*
X2002288Y1601503D02*
X2002175Y1601816D01*
X2001948Y1602128*
X2001720Y1602284*
X2001266*
X2001038Y1602128*
X2000811Y1601816*
X2000698Y1601503*
X2000584Y1601034*
Y1600253*
X2000698Y1599784*
X2000811Y1599472*
X2001038Y1599159*
X2001266Y1599003*
X2001720*
X2001948Y1599159*
X2002175Y1599472*
X2002288Y1599784*
X2003311Y1601659D02*
X2003538Y1601816D01*
X2003879Y1602284*
Y1599003*
X2006038Y1602284D02*
X2004902Y1600097D01*
X2006607*
X2006038Y1602284D02*
Y1599003D01*
X2046164Y1588419D02*
X2046476Y1588532D01*
X2046789Y1588760*
X2046945Y1588987*
Y1589441*
X2046789Y1589669*
X2046476Y1589896*
X2046164Y1590010*
X2045695Y1590123*
X2044914*
X2044445Y1590010*
X2044133Y1589896*
X2043820Y1589669*
X2043664Y1589441*
Y1588987*
X2043820Y1588760*
X2044133Y1588532*
X2044445Y1588419*
X2046320Y1587396D02*
X2046476Y1587169D01*
X2046945Y1586828*
X2043664*
X2046945Y1584328D02*
Y1585464D01*
X2045539Y1585578*
X2045695Y1585464*
X2045851Y1585123*
Y1584782*
X2045695Y1584441*
X2045383Y1584214*
X2044914Y1584100*
X2044601Y1584214*
X2044133Y1584328*
X2043820Y1584555*
X2043664Y1584896*
Y1585237*
X2043820Y1585578*
X2043976Y1585691*
X2044289Y1585805*
X2012894Y1611709D02*
X2013206Y1611822D01*
X2013519Y1612050*
X2013675Y1612277*
Y1612731*
X2013519Y1612959*
X2013206Y1613186*
X2012894Y1613300*
X2012425Y1613413*
X2011644*
X2011175Y1613300*
X2010863Y1613186*
X2010550Y1612959*
X2010394Y1612731*
Y1612277*
X2010550Y1612050*
X2010863Y1611822*
X2011175Y1611709*
X2013050Y1610686D02*
X2013206Y1610459D01*
X2013675Y1610118*
X2010394*
X2013206Y1607731D02*
X2013519Y1607845D01*
X2013675Y1608186*
Y1608413*
X2013519Y1608754*
X2013050Y1608981*
X2012269Y1609095*
X2011488*
X2010863Y1608981*
X2010550Y1608754*
X2010394Y1608413*
Y1608300*
X2010550Y1607959*
X2010863Y1607731*
X2011331Y1607618*
X2011488*
X2011956Y1607731*
X2012269Y1607959*
X2012425Y1608300*
Y1608413*
X2012269Y1608754*
X2011956Y1608981*
X2011488Y1609095*
X2006851Y1630180D02*
X2007163Y1630294D01*
X2007476Y1630521*
X2007632Y1630749*
Y1631203*
X2007476Y1631430*
X2007163Y1631658*
X2006851Y1631771*
X2006382Y1631885*
X2005601*
X2005132Y1631771*
X2004820Y1631658*
X2004507Y1631430*
X2004351Y1631203*
Y1630749*
X2004507Y1630521*
X2004820Y1630294*
X2005132Y1630180*
X2007007Y1629158D02*
X2007163Y1628930D01*
X2007632Y1628590*
X2004351*
X2007632Y1626999D02*
X2007476Y1627340D01*
X2007163Y1627453*
X2006851*
X2006538Y1627340*
X2006382Y1627112*
X2006226Y1626658*
X2006070Y1626317*
X2005757Y1626090*
X2005445Y1625976*
X2004976*
X2004663Y1626090*
X2004507Y1626203*
X2004351Y1626544*
Y1626999*
X2004507Y1627340*
X2004663Y1627453*
X2004976Y1627567*
X2005445*
X2005757Y1627453*
X2006070Y1627226*
X2006226Y1626885*
X2006382Y1626430*
X2006538Y1626203*
X2006851Y1626090*
X2007163*
X2007476Y1626203*
X2007632Y1626544*
Y1626999*
X2010168Y1638973D02*
X2010055Y1639286D01*
X2009828Y1639598*
X2009600Y1639754*
X2009146*
X2008918Y1639598*
X2008691Y1639286*
X2008578Y1638973*
X2008464Y1638504*
Y1637723*
X2008578Y1637254*
X2008691Y1636942*
X2008918Y1636629*
X2009146Y1636473*
X2009600*
X2009828Y1636629*
X2010055Y1636942*
X2010168Y1637254*
X2011191Y1639129D02*
X2011418Y1639286D01*
X2011759Y1639754*
Y1636473*
X2014259Y1638661D02*
X2014146Y1638192D01*
X2013918Y1637879*
X2013578Y1637723*
X2013464*
X2013123Y1637879*
X2012896Y1638192*
X2012782Y1638661*
Y1638817*
X2012896Y1639286*
X2013123Y1639598*
X2013464Y1639754*
X2013578*
X2013918Y1639598*
X2014146Y1639286*
X2014259Y1638661*
Y1637879*
X2014146Y1637098*
X2013918Y1636629*
X2013578Y1636473*
X2013350*
X2013009Y1636629*
X2012896Y1636942*
X2018505Y1643530D02*
X2018392Y1643843D01*
X2018164Y1644155*
X2017937Y1644311*
X2017483*
X2017255Y1644155*
X2017028Y1643843*
X2016914Y1643530*
X2016801Y1643061*
Y1642280*
X2016914Y1641811*
X2017028Y1641499*
X2017255Y1641186*
X2017483Y1641030*
X2017937*
X2018164Y1641186*
X2018392Y1641499*
X2018505Y1641811*
X2019642Y1643530D02*
Y1643686D01*
X2019755Y1643999*
X2019869Y1644155*
X2020096Y1644311*
X2020551*
X2020778Y1644155*
X2020892Y1643999*
X2021005Y1643686*
Y1643374*
X2020892Y1643061*
X2020664Y1642593*
X2019528Y1641030*
X2021119*
X2022823Y1644311D02*
X2022483Y1644155D01*
X2022255Y1643686*
X2022142Y1642905*
Y1642436*
X2022255Y1641655*
X2022483Y1641186*
X2022823Y1641030*
X2023051*
X2023392Y1641186*
X2023619Y1641655*
X2023733Y1642436*
Y1642905*
X2023619Y1643686*
X2023392Y1644155*
X2023051Y1644311*
X2022823*
X2001804Y1659769D02*
X2002116Y1659882D01*
X2002429Y1660110*
X2002585Y1660337*
Y1660791*
X2002429Y1661019*
X2002116Y1661246*
X2001804Y1661360*
X2001335Y1661473*
X2000554*
X2000085Y1661360*
X1999773Y1661246*
X1999460Y1661019*
X1999304Y1660791*
Y1660337*
X1999460Y1660110*
X1999773Y1659882*
X2000085Y1659769*
X2001804Y1658632D02*
X2001960D01*
X2002273Y1658519*
X2002429Y1658405*
X2002585Y1658178*
Y1657723*
X2002429Y1657496*
X2002273Y1657382*
X2001960Y1657269*
X2001648*
X2001335Y1657382*
X2000866Y1657610*
X1999304Y1658746*
Y1657155*
X2001960Y1656132D02*
X2002116Y1655905D01*
X2002585Y1655564*
X1999304*
X1987374Y1685589D02*
X1987686Y1685702D01*
X1987999Y1685930*
X1988155Y1686157*
Y1686611*
X1987999Y1686839*
X1987686Y1687066*
X1987374Y1687180*
X1986905Y1687293*
X1986124*
X1985655Y1687180*
X1985343Y1687066*
X1985030Y1686839*
X1984874Y1686611*
Y1686157*
X1985030Y1685930*
X1985343Y1685702*
X1985655Y1685589*
X1987374Y1684452D02*
X1987530D01*
X1987843Y1684339*
X1987999Y1684225*
X1988155Y1683998*
Y1683543*
X1987999Y1683316*
X1987843Y1683202*
X1987530Y1683089*
X1987218*
X1986905Y1683202*
X1986436Y1683430*
X1984874Y1684566*
Y1682975*
X1987374Y1681839D02*
X1987530D01*
X1987843Y1681725*
X1987999Y1681611*
X1988155Y1681384*
Y1680930*
X1987999Y1680702*
X1987843Y1680589*
X1987530Y1680475*
X1987218*
X1986905Y1680589*
X1986436Y1680816*
X1984874Y1681952*
Y1680361*
X1999875Y1681380D02*
X1999762Y1681693D01*
X1999534Y1682005*
X1999307Y1682161*
X1998853*
X1998625Y1682005*
X1998398Y1681693*
X1998284Y1681380*
X1998171Y1680911*
Y1680130*
X1998284Y1679661*
X1998398Y1679349*
X1998625Y1679036*
X1998853Y1678880*
X1999307*
X1999534Y1679036*
X1999762Y1679349*
X1999875Y1679661*
X2001012Y1681380D02*
Y1681536D01*
X2001125Y1681849*
X2001239Y1682005*
X2001466Y1682161*
X2001921*
X2002148Y1682005*
X2002262Y1681849*
X2002375Y1681536*
Y1681224*
X2002262Y1680911*
X2002034Y1680443*
X2000898Y1678880*
X2002489*
X2003739Y1682161D02*
X2004989D01*
X2004307Y1680911*
X2004648*
X2004875Y1680755*
X2004989Y1680599*
X2005103Y1680130*
Y1679818*
X2004989Y1679349*
X2004762Y1679036*
X2004421Y1678880*
X2004080*
X2003739Y1679036*
X2003625Y1679193*
X2003512Y1679505*
X2005382Y1660830D02*
X2005268Y1661143D01*
X2005041Y1661455*
X2004814Y1661611*
X2004359*
X2004132Y1661455*
X2003905Y1661143*
X2003791Y1660830*
X2003678Y1660361*
Y1659580*
X2003791Y1659111*
X2003905Y1658799*
X2004132Y1658486*
X2004359Y1658330*
X2004814*
X2005041Y1658486*
X2005268Y1658799*
X2005382Y1659111*
X2006632Y1661611D02*
X2007882D01*
X2007200Y1660361*
X2007541*
X2007768Y1660205*
X2007882Y1660049*
X2007996Y1659580*
Y1659268*
X2007882Y1658799*
X2007655Y1658486*
X2007314Y1658330*
X2006973*
X2006632Y1658486*
X2006518Y1658643*
X2006405Y1658955*
X1987274Y1670019D02*
X1987586Y1670132D01*
X1987899Y1670360*
X1988055Y1670587*
Y1671041*
X1987899Y1671269*
X1987586Y1671496*
X1987274Y1671610*
X1986805Y1671723*
X1986024*
X1985555Y1671610*
X1985243Y1671496*
X1984930Y1671269*
X1984774Y1671041*
Y1670587*
X1984930Y1670360*
X1985243Y1670132*
X1985555Y1670019*
X1986961Y1667519D02*
X1986493Y1667632D01*
X1986180Y1667860*
X1986024Y1668200*
Y1668314*
X1986180Y1668655*
X1986493Y1668882*
X1986961Y1668996*
X1987118*
X1987586Y1668882*
X1987899Y1668655*
X1988055Y1668314*
Y1668200*
X1987899Y1667860*
X1987586Y1667632*
X1986961Y1667519*
X1986180*
X1985399Y1667632*
X1984930Y1667860*
X1984774Y1668200*
Y1668428*
X1984930Y1668769*
X1985243Y1668882*
X2055324Y1683974D02*
Y1680693D01*
Y1683974D02*
X2056119D01*
X2056460Y1683818*
X2056688Y1683506*
X2056801Y1683193*
X2056915Y1682724*
Y1681943*
X2056801Y1681474*
X2056688Y1681162*
X2056460Y1680849*
X2056119Y1680693*
X2055324*
X2058051Y1683193D02*
Y1683349D01*
X2058165Y1683662*
X2058278Y1683818*
X2058506Y1683974*
X2058960*
X2059188Y1683818*
X2059301Y1683662*
X2059415Y1683349*
Y1683037*
X2059301Y1682724*
X2059074Y1682256*
X2057938Y1680693*
X2059528*
X2009554Y1605354D02*
Y1602073D01*
Y1605354D02*
X2010349D01*
X2010690Y1605198*
X2010918Y1604886*
X2011031Y1604573*
X2011145Y1604104*
Y1603323*
X2011031Y1602854*
X2010918Y1602542*
X2010690Y1602229*
X2010349Y1602073*
X2009554*
X2012395Y1605354D02*
X2013645D01*
X2012963Y1604104*
X2013304*
X2013531Y1603948*
X2013645Y1603792*
X2013758Y1603323*
Y1603011*
X2013645Y1602542*
X2013418Y1602229*
X2013077Y1602073*
X2012736*
X2012395Y1602229*
X2012281Y1602386*
X2012168Y1602698*
X2015974Y1602954D02*
Y1599673D01*
Y1602954D02*
X2016769D01*
X2017110Y1602798*
X2017338Y1602486*
X2017451Y1602173*
X2017565Y1601704*
Y1600923*
X2017451Y1600454*
X2017338Y1600142*
X2017110Y1599829*
X2016769Y1599673*
X2015974*
X2019724Y1602954D02*
X2018588Y1600767D01*
X2020292*
X2019724Y1602954D02*
Y1599673D01*
X2030534Y1602984D02*
Y1599703D01*
Y1602984D02*
X2031329D01*
X2031670Y1602828*
X2031898Y1602516*
X2032011Y1602203*
X2032125Y1601734*
Y1600953*
X2032011Y1600484*
X2031898Y1600172*
X2031670Y1599859*
X2031329Y1599703*
X2030534*
X2034625Y1602984D02*
X2033488D01*
X2033375Y1601578*
X2033488Y1601734*
X2033829Y1601891*
X2034170*
X2034511Y1601734*
X2034738Y1601422*
X2034852Y1600953*
X2034738Y1600641*
X2034625Y1600172*
X2034398Y1599859*
X2034057Y1599703*
X2033716*
X2033375Y1599859*
X2033261Y1600016*
X2033148Y1600328*
X2001330Y1587694D02*
Y1585194D01*
X2001217Y1584726*
X2001103Y1584569*
X2000876Y1584413*
X2000648*
X2000421Y1584569*
X2000308Y1584726*
X2000194Y1585194*
Y1585507*
X2002353Y1587069D02*
X2002580Y1587226D01*
X2002921Y1587694*
Y1584413*
X1996736Y1607814D02*
X1996508Y1607658D01*
X1996281Y1607346*
X1996168Y1607033*
X1996054Y1606564*
Y1605783*
X1996168Y1605314*
X1996281Y1605002*
X1996508Y1604689*
X1996736Y1604533*
X1997190*
X1997418Y1604689*
X1997645Y1605002*
X1997758Y1605314*
X1997872Y1605783*
Y1606564*
X1997758Y1607033*
X1997645Y1607346*
X1997418Y1607658*
X1997190Y1607814*
X1996736*
X1997077Y1605158D02*
X1997758Y1604221D01*
X1998895Y1607189D02*
X1999122Y1607346D01*
X1999463Y1607814*
Y1604533*
X2048766Y1628664D02*
X2048538Y1628508D01*
X2048311Y1628196*
X2048198Y1627883*
X2048084Y1627414*
Y1626633*
X2048198Y1626164*
X2048311Y1625852*
X2048538Y1625539*
X2048766Y1625383*
X2049220*
X2049448Y1625539*
X2049675Y1625852*
X2049788Y1626164*
X2049902Y1626633*
Y1627414*
X2049788Y1627883*
X2049675Y1628196*
X2049448Y1628508*
X2049220Y1628664*
X2048766*
X2049107Y1626008D02*
X2049788Y1625071D01*
X2051038Y1627883D02*
Y1628039D01*
X2051152Y1628352*
X2051266Y1628508*
X2051493Y1628664*
X2051948*
X2052175Y1628508*
X2052288Y1628352*
X2052402Y1628039*
Y1627727*
X2052288Y1627414*
X2052061Y1626946*
X2050925Y1625383*
X2052516*
X1988205Y1678883D02*
X1984924D01*
X1988205D02*
Y1677860D01*
X1988049Y1677520*
X1987893Y1677406*
X1987580Y1677292*
X1987268*
X1986955Y1677406*
X1986799Y1677520*
X1986643Y1677860*
Y1678883*
Y1678088D02*
X1984924Y1677292D01*
X1987580Y1676270D02*
X1987736Y1676042D01*
X1988205Y1675701*
X1984924*
X1987580Y1674679D02*
X1987736Y1674451D01*
X1988205Y1674110*
X1984924*
X2060435Y1655883D02*
X2057154D01*
X2060435D02*
Y1654860D01*
X2060279Y1654520*
X2060123Y1654406*
X2059810Y1654292*
X2059498*
X2059185Y1654406*
X2059029Y1654520*
X2058873Y1654860*
Y1655883*
Y1655088D02*
X2057154Y1654292D01*
X2059810Y1653270D02*
X2059966Y1653042D01*
X2060435Y1652701*
X2057154*
X2060435Y1650201D02*
Y1651338D01*
X2059029Y1651451*
X2059185Y1651338*
X2059341Y1650997*
Y1650656*
X2059185Y1650315*
X2058873Y1650088*
X2058404Y1649974*
X2058091Y1650088*
X2057623Y1650201*
X2057310Y1650429*
X2057154Y1650770*
Y1651110*
X2057310Y1651451*
X2057466Y1651565*
X2057779Y1651679*
X2054805Y1655803D02*
X2051524D01*
X2054805D02*
Y1654780D01*
X2054649Y1654440*
X2054493Y1654326*
X2054180Y1654212*
X2053868*
X2053555Y1654326*
X2053399Y1654440*
X2053243Y1654780*
Y1655803*
Y1655008D02*
X2051524Y1654212D01*
X2054180Y1653190D02*
X2054336Y1652962D01*
X2054805Y1652621*
X2051524*
X2054805Y1650008D02*
X2051524Y1651144D01*
X2054805Y1651599D02*
Y1650008D01*
X2044765Y1647583D02*
X2041484D01*
X2044765D02*
Y1646560D01*
X2044609Y1646220*
X2044453Y1646106*
X2044140Y1645992*
X2043828*
X2043515Y1646106*
X2043359Y1646220*
X2043203Y1646560*
Y1647583*
Y1646788D02*
X2041484Y1645992D01*
X2044140Y1644970D02*
X2044296Y1644742D01*
X2044765Y1644401*
X2041484*
X2044765Y1642810D02*
X2044609Y1643151D01*
X2044296Y1643265*
X2043984*
X2043671Y1643151*
X2043515Y1642924*
X2043359Y1642470*
X2043203Y1642129*
X2042890Y1641901*
X2042578Y1641788*
X2042109*
X2041796Y1641901*
X2041640Y1642015*
X2041484Y1642356*
Y1642810*
X2041640Y1643151*
X2041796Y1643265*
X2042109Y1643379*
X2042578*
X2042890Y1643265*
X2043203Y1643038*
X2043359Y1642697*
X2043515Y1642242*
X2043671Y1642015*
X2043984Y1641901*
X2044296*
X2044609Y1642015*
X2044765Y1642356*
Y1642810*
X2040165Y1608463D02*
X2036884D01*
X2040165D02*
Y1607440D01*
X2040009Y1607100*
X2039853Y1606986*
X2039540Y1606872*
X2039228*
X2038915Y1606986*
X2038759Y1607100*
X2038603Y1607440*
Y1608463*
Y1607668D02*
X2036884Y1606872D01*
X2039540Y1605850D02*
X2039696Y1605622D01*
X2040165Y1605281*
X2036884*
X2039071Y1602781D02*
X2038603Y1602895D01*
X2038290Y1603122*
X2038134Y1603463*
Y1603577*
X2038290Y1603918*
X2038603Y1604145*
X2039071Y1604259*
X2039228*
X2039696Y1604145*
X2040009Y1603918*
X2040165Y1603577*
Y1603463*
X2040009Y1603122*
X2039696Y1602895*
X2039071Y1602781*
X2038290*
X2037509Y1602895*
X2037040Y1603122*
X2036884Y1603463*
Y1603690*
X2037040Y1604031*
X2037353Y1604145*
X2055025Y1664853D02*
X2051744D01*
X2055025D02*
Y1663830D01*
X2054869Y1663490*
X2054713Y1663376*
X2054400Y1663262*
X2054088*
X2053775Y1663376*
X2053619Y1663490*
X2053463Y1663830*
Y1664853*
Y1664058D02*
X2051744Y1663262D01*
X2054244Y1662126D02*
X2054400D01*
X2054713Y1662012*
X2054869Y1661899*
X2055025Y1661671*
Y1661217*
X2054869Y1660990*
X2054713Y1660876*
X2054400Y1660762*
X2054088*
X2053775Y1660876*
X2053306Y1661103*
X2051744Y1662240*
Y1660649*
X2055025Y1658944D02*
X2054869Y1659285D01*
X2054400Y1659512*
X2053619Y1659626*
X2053150*
X2052369Y1659512*
X2051900Y1659285*
X2051744Y1658944*
Y1658717*
X2051900Y1658376*
X2052369Y1658149*
X2053150Y1658035*
X2053619*
X2054400Y1658149*
X2054869Y1658376*
X2055025Y1658717*
Y1658944*
X2003295Y1632073D02*
X2000014D01*
X2003295D02*
Y1631050D01*
X2003139Y1630710*
X2002983Y1630596*
X2002670Y1630482*
X2002358*
X2002045Y1630596*
X2001889Y1630710*
X2001733Y1631050*
Y1632073*
Y1631278D02*
X2000014Y1630482D01*
X2002514Y1629346D02*
X2002670D01*
X2002983Y1629232*
X2003139Y1629119*
X2003295Y1628891*
Y1628437*
X2003139Y1628210*
X2002983Y1628096*
X2002670Y1627982*
X2002358*
X2002045Y1628096*
X2001576Y1628323*
X2000014Y1629460*
Y1627869*
X2002670Y1626846D02*
X2002826Y1626619D01*
X2003295Y1626278*
X2000014*
X2044834Y1605554D02*
Y1602273D01*
Y1605554D02*
X2045857D01*
X2046198Y1605398*
X2046311Y1605242*
X2046425Y1604929*
Y1604617*
X2046311Y1604304*
X2046198Y1604148*
X2045857Y1603992*
X2044834*
X2045629D02*
X2046425Y1602273D01*
X2047561Y1604773D02*
Y1604929D01*
X2047675Y1605242*
X2047788Y1605398*
X2048016Y1605554*
X2048470*
X2048698Y1605398*
X2048811Y1605242*
X2048925Y1604929*
Y1604617*
X2048811Y1604304*
X2048584Y1603836*
X2047448Y1602273*
X2049038*
X2050175Y1604773D02*
Y1604929D01*
X2050288Y1605242*
X2050402Y1605398*
X2050629Y1605554*
X2051084*
X2051311Y1605398*
X2051425Y1605242*
X2051538Y1604929*
Y1604617*
X2051425Y1604304*
X2051198Y1603836*
X2050061Y1602273*
X2051652*
X2044455Y1637513D02*
X2041174D01*
X2044455D02*
Y1636490D01*
X2044299Y1636150*
X2044143Y1636036*
X2043830Y1635922*
X2043518*
X2043205Y1636036*
X2043049Y1636150*
X2042893Y1636490*
Y1637513*
Y1636718D02*
X2041174Y1635922D01*
X2043674Y1634786D02*
X2043830D01*
X2044143Y1634672*
X2044299Y1634559*
X2044455Y1634331*
Y1633877*
X2044299Y1633650*
X2044143Y1633536*
X2043830Y1633422*
X2043518*
X2043205Y1633536*
X2042736Y1633763*
X2041174Y1634900*
Y1633309*
X2044455Y1632059D02*
Y1630809D01*
X2043205Y1631490*
Y1631150*
X2043049Y1630922*
X2042893Y1630809*
X2042424Y1630695*
X2042111*
X2041643Y1630809*
X2041330Y1631036*
X2041174Y1631377*
Y1631718*
X2041330Y1632059*
X2041486Y1632172*
X2041799Y1632286*
X2010834Y1676864D02*
Y1673583D01*
Y1676864D02*
X2011857D01*
X2012198Y1676708*
X2012311Y1676552*
X2012425Y1676239*
Y1675927*
X2012311Y1675614*
X2012198Y1675458*
X2011857Y1675302*
X2010834*
X2011629D02*
X2012425Y1673583D01*
X2013561Y1676083D02*
Y1676239D01*
X2013675Y1676552*
X2013788Y1676708*
X2014016Y1676864*
X2014470*
X2014698Y1676708*
X2014811Y1676552*
X2014925Y1676239*
Y1675927*
X2014811Y1675614*
X2014584Y1675146*
X2013448Y1673583*
X2015038*
X2017198Y1676864D02*
X2016061Y1674677D01*
X2017766*
X2017198Y1676864D02*
Y1673583D01*
X1994025Y1684643D02*
X1990744D01*
X1994025D02*
Y1683620D01*
X1993869Y1683280*
X1993713Y1683166*
X1993400Y1683052*
X1993088*
X1992775Y1683166*
X1992619Y1683280*
X1992463Y1683620*
Y1684643*
Y1683848D02*
X1990744Y1683052D01*
X1993244Y1681916D02*
X1993400D01*
X1993713Y1681802*
X1993869Y1681689*
X1994025Y1681461*
Y1681007*
X1993869Y1680780*
X1993713Y1680666*
X1993400Y1680552*
X1993088*
X1992775Y1680666*
X1992306Y1680893*
X1990744Y1682030*
Y1680439*
X1994025Y1677939D02*
Y1679075D01*
X1992619Y1679189*
X1992775Y1679075*
X1992931Y1678734*
Y1678393*
X1992775Y1678052*
X1992463Y1677825*
X1991994Y1677711*
X1991681Y1677825*
X1991213Y1677939*
X1990900Y1678166*
X1990744Y1678507*
Y1678848*
X1990900Y1679189*
X1991056Y1679302*
X1991369Y1679416*
X2059344Y1605364D02*
Y1602083D01*
Y1605364D02*
X2060367D01*
X2060708Y1605208*
X2060821Y1605052*
X2060935Y1604739*
Y1604427*
X2060821Y1604114*
X2060708Y1603958*
X2060367Y1603802*
X2059344*
X2060139D02*
X2060935Y1602083D01*
X2062185Y1605364D02*
X2063435D01*
X2062753Y1604114*
X2063094*
X2063321Y1603958*
X2063435Y1603802*
X2063548Y1603333*
Y1603021*
X2063435Y1602552*
X2063208Y1602239*
X2062867Y1602083*
X2062526*
X2062185Y1602239*
X2062071Y1602396*
X2061958Y1602708*
X1983844Y1605054D02*
Y1601773D01*
Y1605054D02*
X1984867D01*
X1985208Y1604898*
X1985321Y1604742*
X1985435Y1604429*
Y1604117*
X1985321Y1603804*
X1985208Y1603648*
X1984867Y1603492*
X1983844*
X1984639D02*
X1985435Y1601773D01*
X1987594Y1605054D02*
X1986458Y1602867D01*
X1988162*
X1987594Y1605054D02*
Y1601773D01*
X2060835Y1664943D02*
X2057554D01*
X2060835D02*
Y1663920D01*
X2060679Y1663580*
X2060523Y1663466*
X2060210Y1663352*
X2059898*
X2059585Y1663466*
X2059429Y1663580*
X2059273Y1663920*
Y1664943*
Y1664148D02*
X2057554Y1663352D01*
X2060835Y1660739D02*
X2057554Y1661875D01*
X2060835Y1662330D02*
Y1660739D01*
X2056416Y1591152D02*
X2056729Y1591380D01*
X2056885Y1591720*
Y1592175*
X2056729Y1592516*
X2056416Y1592743*
X2056104*
X2055791Y1592630*
X2055635Y1592516*
X2055479Y1592289*
X2055166Y1591607*
X2055010Y1591380*
X2054854Y1591266*
X2054541Y1591152*
X2054073*
X2053760Y1591380*
X2053604Y1591720*
Y1592175*
X2053760Y1592516*
X2054073Y1592743*
X2056885Y1590130D02*
X2053604Y1589561D01*
X2056885Y1588993D02*
X2053604Y1589561D01*
X2056885Y1588993D02*
X2053604Y1588425D01*
X2056885Y1587857D02*
X2053604Y1588425D01*
X2056260Y1586834D02*
X2056416Y1586607D01*
X2056885Y1586266*
X2053604*
X1993346Y1591702D02*
X1993659Y1591930D01*
X1993815Y1592270*
Y1592725*
X1993659Y1593066*
X1993346Y1593293*
X1993034*
X1992721Y1593180*
X1992565Y1593066*
X1992409Y1592839*
X1992096Y1592157*
X1991940Y1591930*
X1991784Y1591816*
X1991471Y1591702*
X1991003*
X1990690Y1591930*
X1990534Y1592270*
Y1592725*
X1990690Y1593066*
X1991003Y1593293*
X1993815Y1590680D02*
X1990534Y1590111D01*
X1993815Y1589543D02*
X1990534Y1590111D01*
X1993815Y1589543D02*
X1990534Y1588975D01*
X1993815Y1588407D02*
X1990534Y1588975D01*
X1993034Y1587270D02*
X1993190D01*
X1993503Y1587157*
X1993659Y1587043*
X1993815Y1586816*
Y1586361*
X1993659Y1586134*
X1993503Y1586020*
X1993190Y1585907*
X1992878*
X1992565Y1586020*
X1992096Y1586248*
X1990534Y1587384*
Y1585793*
X2016034Y1635934D02*
Y1633591D01*
X2016148Y1633122*
X2016375Y1632809*
X2016716Y1632653*
X2016943*
X2017284Y1632809*
X2017511Y1633122*
X2017625Y1633591*
Y1635934*
X2018648Y1635309D02*
X2018875Y1635466D01*
X2019216Y1635934*
Y1632653*
X2038014Y1672124D02*
Y1669781D01*
X2038128Y1669312*
X2038355Y1668999*
X2038696Y1668843*
X2038923*
X2039264Y1668999*
X2039491Y1669312*
X2039605Y1669781*
Y1672124*
X2040741Y1671343D02*
Y1671499D01*
X2040855Y1671812*
X2040968Y1671968*
X2041196Y1672124*
X2041650*
X2041878Y1671968*
X2041991Y1671812*
X2042105Y1671499*
Y1671187*
X2041991Y1670874*
X2041764Y1670406*
X2040628Y1668843*
X2042218*
X1984764Y1630514D02*
Y1627233D01*
Y1630514D02*
X1985559D01*
X1985900Y1630358*
X1986128Y1630046*
X1986241Y1629733*
X1986355Y1629264*
Y1628483*
X1986241Y1628014*
X1986128Y1627702*
X1985900Y1627389*
X1985559Y1627233*
X1984764*
X1987378Y1629889D02*
X1987605Y1630046D01*
X1987946Y1630514*
Y1627233*
X1998704Y1640844D02*
Y1637563D01*
Y1640844D02*
X1999727D01*
X2000068Y1640688*
X2000181Y1640532*
X2000295Y1640219*
Y1639907*
X2000181Y1639594*
X2000068Y1639438*
X1999727Y1639282*
X1998704*
X1999499D02*
X2000295Y1637563D01*
X2001431Y1640063D02*
Y1640219D01*
X2001545Y1640532*
X2001658Y1640688*
X2001886Y1640844*
X2002340*
X2002568Y1640688*
X2002681Y1640532*
X2002795Y1640219*
Y1639907*
X2002681Y1639594*
X2002454Y1639126*
X2001318Y1637563*
X2002908*
X1983970Y1579944D02*
Y1577444D01*
X1983857Y1576976*
X1983743Y1576819*
X1983516Y1576663*
X1983288*
X1983061Y1576819*
X1982948Y1576976*
X1982834Y1577444*
Y1577757*
X1985107Y1579163D02*
Y1579319D01*
X1985220Y1579632*
X1985334Y1579788*
X1985561Y1579944*
X1986016*
X1986243Y1579788*
X1986357Y1579632*
X1986470Y1579319*
Y1579007*
X1986357Y1578694*
X1986129Y1578226*
X1984993Y1576663*
X1986584*
X2061410Y1579824D02*
Y1577324D01*
X2061297Y1576856*
X2061183Y1576699*
X2060956Y1576543*
X2060728*
X2060501Y1576699*
X2060388Y1576856*
X2060274Y1577324*
Y1577637*
X2062660Y1579824D02*
X2063910D01*
X2063228Y1578574*
X2063569*
X2063797Y1578418*
X2063910Y1578262*
X2064024Y1577793*
Y1577481*
X2063910Y1577012*
X2063683Y1576699*
X2063342Y1576543*
X2063001*
X2062660Y1576699*
X2062547Y1576856*
X2062433Y1577168*
X1981795Y1762996D02*
Y1761746D01*
X1980545Y1762428*
Y1762087*
X1980389Y1761860*
X1980233Y1761746*
X1979764Y1761632*
X1979451*
X1978983Y1761746*
X1978670Y1761973*
X1978514Y1762314*
Y1762655*
X1978670Y1762996*
X1978826Y1763110*
X1979139Y1763223*
X1981795Y1760610D02*
X1978514Y1759700D01*
X1981795Y1758791D02*
X1978514Y1759700D01*
X1981795Y1757541D02*
Y1756291D01*
X1980545Y1756973*
Y1756632*
X1980389Y1756405*
X1980233Y1756291*
X1979764Y1756178*
X1979451*
X1978983Y1756291*
X1978670Y1756519*
X1978514Y1756860*
Y1757200*
X1978670Y1757541*
X1978826Y1757655*
X1979139Y1757769*
X1981795Y1752453D02*
X1978514D01*
X1981795D02*
Y1750976D01*
X1980233Y1752453D02*
Y1751544D01*
X1978514Y1752453D02*
Y1750976D01*
X1981795Y1749953D02*
X1978514D01*
X1981795D02*
X1978514Y1748362D01*
X1981795D02*
X1978514D01*
X1981326Y1742502D02*
X1981639Y1742730D01*
X1981795Y1743070*
Y1743525*
X1981639Y1743866*
X1981326Y1744093*
X1981014*
X1980701Y1743980*
X1980545Y1743866*
X1980389Y1743639*
X1980076Y1742957*
X1979920Y1742730*
X1979764Y1742616*
X1979451Y1742502*
X1978983*
X1978670Y1742730*
X1978514Y1743070*
Y1743525*
X1978670Y1743866*
X1978983Y1744093*
X1981795Y1741480D02*
X1978514Y1740570D01*
X1981795Y1739661D02*
X1978514Y1740570D01*
X1981795Y1738639D02*
X1978514D01*
X1981795D02*
Y1737616D01*
X1981639Y1737275*
X1981483Y1737161*
X1981170Y1737048*
X1980701*
X1980389Y1737161*
X1980233Y1737275*
X1980076Y1737616*
Y1738639*
X1981326Y1733342D02*
X1981639Y1733570D01*
X1981795Y1733910*
Y1734365*
X1981639Y1734706*
X1981326Y1734933*
X1981014*
X1980701Y1734820*
X1980545Y1734706*
X1980389Y1734479*
X1980076Y1733797*
X1979920Y1733570*
X1979764Y1733456*
X1979451Y1733342*
X1978983*
X1978670Y1733570*
X1978514Y1733910*
Y1734365*
X1978670Y1734706*
X1978983Y1734933*
X1981795Y1732320D02*
X1978514Y1731410D01*
X1981795Y1730501D02*
X1978514Y1731410D01*
X1981795Y1729479D02*
X1978514D01*
X1981795D02*
X1978514Y1727888D01*
X1981795D02*
X1978514D01*
X1981795Y1724293D02*
X1978514D01*
X1981795Y1722589D02*
X1981639Y1722816D01*
X1981326Y1723043*
X1981014Y1723157*
X1980545Y1723270*
X1979764*
X1979295Y1723157*
X1978983Y1723043*
X1978670Y1722816*
X1978514Y1722589*
Y1722134*
X1978670Y1721907*
X1978983Y1721680*
X1979295Y1721566*
X1979764Y1721452*
X1980545*
X1981014Y1721566*
X1981326Y1721680*
X1981639Y1721907*
X1981795Y1722134*
Y1722589*
Y1720202D02*
Y1718952D01*
X1980545Y1719634*
Y1719293*
X1980389Y1719066*
X1980233Y1718952*
X1979764Y1718839*
X1979451*
X1978983Y1718952*
X1978670Y1719180*
X1978514Y1719520*
Y1719861*
X1978670Y1720202*
X1978826Y1720316*
X1979139Y1720430*
X1981795Y1716680D02*
X1979608Y1717816D01*
Y1716111*
X1981795Y1716680D02*
X1978514D01*
X1981795Y1714443D02*
X1978514D01*
X1981795Y1712739D02*
X1981639Y1712966D01*
X1981326Y1713193*
X1981014Y1713307*
X1980545Y1713420*
X1979764*
X1979295Y1713307*
X1978983Y1713193*
X1978670Y1712966*
X1978514Y1712739*
Y1712284*
X1978670Y1712057*
X1978983Y1711830*
X1979295Y1711716*
X1979764Y1711602*
X1980545*
X1981014Y1711716*
X1981326Y1711830*
X1981639Y1712057*
X1981795Y1712284*
Y1712739*
Y1710352D02*
Y1709102D01*
X1980545Y1709784*
Y1709443*
X1980389Y1709216*
X1980233Y1709102*
X1979764Y1708989*
X1979451*
X1978983Y1709102*
X1978670Y1709330*
X1978514Y1709670*
Y1710011*
X1978670Y1710352*
X1978826Y1710466*
X1979139Y1710580*
X1981795Y1706489D02*
Y1707625D01*
X1980389Y1707739*
X1980545Y1707625*
X1980701Y1707284*
Y1706943*
X1980545Y1706602*
X1980233Y1706375*
X1979764Y1706261*
X1979451Y1706375*
X1978983Y1706489*
X1978670Y1706716*
X1978514Y1707057*
Y1707398*
X1978670Y1707739*
X1978826Y1707852*
X1979139Y1707966*
X1981795Y1704333D02*
X1978514D01*
X1981795Y1702629D02*
X1981639Y1702856D01*
X1981326Y1703083*
X1981014Y1703197*
X1980545Y1703310*
X1979764*
X1979295Y1703197*
X1978983Y1703083*
X1978670Y1702856*
X1978514Y1702629*
Y1702174*
X1978670Y1701947*
X1978983Y1701720*
X1979295Y1701606*
X1979764Y1701492*
X1980545*
X1981014Y1701606*
X1981326Y1701720*
X1981639Y1701947*
X1981795Y1702174*
Y1702629*
Y1700242D02*
Y1698992D01*
X1980545Y1699674*
Y1699333*
X1980389Y1699106*
X1980233Y1698992*
X1979764Y1698879*
X1979451*
X1978983Y1698992*
X1978670Y1699220*
X1978514Y1699560*
Y1699901*
X1978670Y1700242*
X1978826Y1700356*
X1979139Y1700470*
X1981014Y1697742D02*
X1981170D01*
X1981483Y1697629*
X1981639Y1697515*
X1981795Y1697288*
Y1696833*
X1981639Y1696606*
X1981483Y1696492*
X1981170Y1696379*
X1980858*
X1980545Y1696492*
X1980076Y1696720*
X1978514Y1697856*
Y1696265*
X1981795Y1694793D02*
X1978514D01*
X1981795Y1693089D02*
X1981639Y1693316D01*
X1981326Y1693543*
X1981014Y1693657*
X1980545Y1693770*
X1979764*
X1979295Y1693657*
X1978983Y1693543*
X1978670Y1693316*
X1978514Y1693089*
Y1692634*
X1978670Y1692407*
X1978983Y1692180*
X1979295Y1692066*
X1979764Y1691952*
X1980545*
X1981014Y1692066*
X1981326Y1692180*
X1981639Y1692407*
X1981795Y1692634*
Y1693089*
Y1690702D02*
Y1689452D01*
X1980545Y1690134*
Y1689793*
X1980389Y1689566*
X1980233Y1689452*
X1979764Y1689339*
X1979451*
X1978983Y1689452*
X1978670Y1689680*
X1978514Y1690020*
Y1690361*
X1978670Y1690702*
X1978826Y1690816*
X1979139Y1690930*
X1981795Y1688089D02*
Y1686839D01*
X1980545Y1687520*
Y1687180*
X1980389Y1686952*
X1980233Y1686839*
X1979764Y1686725*
X1979451*
X1978983Y1686839*
X1978670Y1687066*
X1978514Y1687407*
Y1687748*
X1978670Y1688089*
X1978826Y1688202*
X1979139Y1688316*
X1981795Y1684643D02*
X1978514D01*
X1981795Y1682939D02*
X1981639Y1683166D01*
X1981326Y1683393*
X1981014Y1683507*
X1980545Y1683620*
X1979764*
X1979295Y1683507*
X1978983Y1683393*
X1978670Y1683166*
X1978514Y1682939*
Y1682484*
X1978670Y1682257*
X1978983Y1682030*
X1979295Y1681916*
X1979764Y1681802*
X1980545*
X1981014Y1681916*
X1981326Y1682030*
X1981639Y1682257*
X1981795Y1682484*
Y1682939*
X1981014Y1680666D02*
X1981170D01*
X1981483Y1680552*
X1981639Y1680439*
X1981795Y1680211*
Y1679757*
X1981639Y1679530*
X1981483Y1679416*
X1981170Y1679302*
X1980858*
X1980545Y1679416*
X1980076Y1679643*
X1978514Y1680780*
Y1679189*
X1981795Y1676689D02*
Y1677825D01*
X1980389Y1677939*
X1980545Y1677825*
X1980701Y1677484*
Y1677143*
X1980545Y1676802*
X1980233Y1676575*
X1979764Y1676461*
X1979451Y1676575*
X1978983Y1676689*
X1978670Y1676916*
X1978514Y1677257*
Y1677598*
X1978670Y1677939*
X1978826Y1678052*
X1979139Y1678166*
X1981795Y1674533D02*
X1978514D01*
X1981795Y1672829D02*
X1981639Y1673056D01*
X1981326Y1673283*
X1981014Y1673397*
X1980545Y1673510*
X1979764*
X1979295Y1673397*
X1978983Y1673283*
X1978670Y1673056*
X1978514Y1672829*
Y1672374*
X1978670Y1672147*
X1978983Y1671920*
X1979295Y1671806*
X1979764Y1671692*
X1980545*
X1981014Y1671806*
X1981326Y1671920*
X1981639Y1672147*
X1981795Y1672374*
Y1672829*
X1981014Y1670556D02*
X1981170D01*
X1981483Y1670442*
X1981639Y1670329*
X1981795Y1670101*
Y1669647*
X1981639Y1669420*
X1981483Y1669306*
X1981170Y1669192*
X1980858*
X1980545Y1669306*
X1980076Y1669533*
X1978514Y1670670*
Y1669079*
X1981326Y1666692D02*
X1981639Y1666806D01*
X1981795Y1667147*
Y1667374*
X1981639Y1667715*
X1981170Y1667942*
X1980389Y1668056*
X1979608*
X1978983Y1667942*
X1978670Y1667715*
X1978514Y1667374*
Y1667260*
X1978670Y1666920*
X1978983Y1666692*
X1979451Y1666579*
X1979608*
X1980076Y1666692*
X1980389Y1666920*
X1980545Y1667260*
Y1667374*
X1980389Y1667715*
X1980076Y1667942*
X1979608Y1668056*
X1981795Y1664553D02*
X1978514D01*
X1981795Y1662849D02*
X1981639Y1663076D01*
X1981326Y1663303*
X1981014Y1663417*
X1980545Y1663530*
X1979764*
X1979295Y1663417*
X1978983Y1663303*
X1978670Y1663076*
X1978514Y1662849*
Y1662394*
X1978670Y1662167*
X1978983Y1661940*
X1979295Y1661826*
X1979764Y1661712*
X1980545*
X1981014Y1661826*
X1981326Y1661940*
X1981639Y1662167*
X1981795Y1662394*
Y1662849*
X1981014Y1660576D02*
X1981170D01*
X1981483Y1660462*
X1981639Y1660349*
X1981795Y1660121*
Y1659667*
X1981639Y1659440*
X1981483Y1659326*
X1981170Y1659212*
X1980858*
X1980545Y1659326*
X1980076Y1659553*
X1978514Y1660690*
Y1659099*
X1981795Y1656485D02*
X1978514Y1657621D01*
X1981795Y1658076D02*
Y1656485D01*
Y1654133D02*
X1978514D01*
X1981795Y1652429D02*
X1981639Y1652656D01*
X1981326Y1652883*
X1981014Y1652997*
X1980545Y1653110*
X1979764*
X1979295Y1652997*
X1978983Y1652883*
X1978670Y1652656*
X1978514Y1652429*
Y1651974*
X1978670Y1651747*
X1978983Y1651520*
X1979295Y1651406*
X1979764Y1651292*
X1980545*
X1981014Y1651406*
X1981326Y1651520*
X1981639Y1651747*
X1981795Y1651974*
Y1652429*
X1981170Y1650270D02*
X1981326Y1650042D01*
X1981795Y1649701*
X1978514*
X1981795Y1647542D02*
X1979608Y1648679D01*
Y1646974*
X1981795Y1647542D02*
X1978514D01*
X1981795Y1643883D02*
X1978514D01*
X1981795Y1642179D02*
X1981639Y1642406D01*
X1981326Y1642633*
X1981014Y1642747*
X1980545Y1642860*
X1979764*
X1979295Y1642747*
X1978983Y1642633*
X1978670Y1642406*
X1978514Y1642179*
Y1641724*
X1978670Y1641497*
X1978983Y1641270*
X1979295Y1641156*
X1979764Y1641042*
X1980545*
X1981014Y1641156*
X1981326Y1641270*
X1981639Y1641497*
X1981795Y1641724*
Y1642179*
X1981170Y1640020D02*
X1981326Y1639792D01*
X1981795Y1639451*
X1978514*
X1981014Y1638315D02*
X1981170D01*
X1981483Y1638201*
X1981639Y1638088*
X1981795Y1637860*
Y1637406*
X1981639Y1637179*
X1981483Y1637065*
X1981170Y1636951*
X1980858*
X1980545Y1637065*
X1980076Y1637292*
X1978514Y1638429*
Y1636838*
X1981014Y1591159D02*
X1981326Y1591272D01*
X1981639Y1591500*
X1981795Y1591727*
Y1592181*
X1981639Y1592409*
X1981326Y1592636*
X1981014Y1592750*
X1980545Y1592863*
X1979764*
X1979295Y1592750*
X1978983Y1592636*
X1978670Y1592409*
X1978514Y1592181*
Y1591727*
X1978670Y1591500*
X1978983Y1591272*
X1979295Y1591159*
X1981795Y1590136D02*
X1978514D01*
X1981795D02*
X1978514Y1589227D01*
X1981795Y1588318D02*
X1978514Y1589227D01*
X1981795Y1588318D02*
X1978514D01*
X1981795Y1587295D02*
X1978514D01*
X1981795D02*
Y1586500D01*
X1981639Y1586159*
X1981326Y1585931*
X1981014Y1585818*
X1980545Y1585704*
X1979764*
X1979295Y1585818*
X1978983Y1585931*
X1978670Y1586159*
X1978514Y1586500*
Y1587295*
X1981795Y1624323D02*
X1978514D01*
X1981795Y1622619D02*
X1981639Y1622846D01*
X1981326Y1623073*
X1981014Y1623187*
X1980545Y1623300*
X1979764*
X1979295Y1623187*
X1978983Y1623073*
X1978670Y1622846*
X1978514Y1622619*
Y1622164*
X1978670Y1621937*
X1978983Y1621710*
X1979295Y1621596*
X1979764Y1621482*
X1980545*
X1981014Y1621596*
X1981326Y1621710*
X1981639Y1621937*
X1981795Y1622164*
Y1622619*
X1981170Y1620460D02*
X1981326Y1620232D01*
X1981795Y1619891*
X1978514*
X1981795Y1618641D02*
Y1617391D01*
X1980545Y1618073*
Y1617732*
X1980389Y1617505*
X1980233Y1617391*
X1979764Y1617278*
X1979451*
X1978983Y1617391*
X1978670Y1617619*
X1978514Y1617960*
Y1618300*
X1978670Y1618641*
X1978826Y1618755*
X1979139Y1618869*
X1981326Y1612052D02*
X1981639Y1612280D01*
X1981795Y1612620*
Y1613075*
X1981639Y1613416*
X1981326Y1613643*
X1981014*
X1980701Y1613530*
X1980545Y1613416*
X1980389Y1613189*
X1980076Y1612507*
X1979920Y1612280*
X1979764Y1612166*
X1979451Y1612052*
X1978983*
X1978670Y1612280*
X1978514Y1612620*
Y1613075*
X1978670Y1613416*
X1978983Y1613643*
X1981795Y1611030D02*
X1978514D01*
X1981795D02*
Y1610234D01*
X1981639Y1609893*
X1981326Y1609666*
X1981014Y1609552*
X1980545Y1609439*
X1979764*
X1979295Y1609552*
X1978983Y1609666*
X1978670Y1609893*
X1978514Y1610234*
Y1611030*
X1981014Y1608302D02*
X1981170D01*
X1981483Y1608189*
X1981639Y1608075*
X1981795Y1607848*
Y1607393*
X1981639Y1607166*
X1981483Y1607052*
X1981170Y1606939*
X1980858*
X1980545Y1607052*
X1980076Y1607280*
X1978514Y1608416*
Y1606825*
X1981326Y1601252D02*
X1981639Y1601480D01*
X1981795Y1601820*
Y1602275*
X1981639Y1602616*
X1981326Y1602843*
X1981014*
X1980701Y1602730*
X1980545Y1602616*
X1980389Y1602389*
X1980076Y1601707*
X1979920Y1601480*
X1979764Y1601366*
X1979451Y1601252*
X1978983*
X1978670Y1601480*
X1978514Y1601820*
Y1602275*
X1978670Y1602616*
X1978983Y1602843*
X1981795Y1600230D02*
X1978514D01*
X1981795D02*
Y1599434D01*
X1981639Y1599093*
X1981326Y1598866*
X1981014Y1598752*
X1980545Y1598639*
X1979764*
X1979295Y1598752*
X1978983Y1598866*
X1978670Y1599093*
X1978514Y1599434*
Y1600230*
X1981795Y1597389D02*
Y1596139D01*
X1980545Y1596820*
Y1596480*
X1980389Y1596252*
X1980233Y1596139*
X1979764Y1596025*
X1979451*
X1978983Y1596139*
X1978670Y1596366*
X1978514Y1596707*
Y1597048*
X1978670Y1597389*
X1978826Y1597502*
X1979139Y1597616*
X1981795Y1579816D02*
Y1580952D01*
X1980389Y1581066*
X1980545Y1580952*
X1980701Y1580611*
Y1580270*
X1980545Y1579930*
X1980233Y1579702*
X1979764Y1579589*
X1979451Y1579702*
X1978983Y1579816*
X1978670Y1580043*
X1978514Y1580384*
Y1580725*
X1978670Y1581066*
X1978826Y1581180*
X1979139Y1581293*
X1981795Y1578566D02*
X1978514Y1577657D01*
X1981795Y1576748D02*
X1978514Y1577657D01*
X2065874Y1758188D02*
X2065561Y1758074D01*
X2065249Y1757847*
X2065093Y1757620*
Y1757165*
X2065249Y1756938*
X2065561Y1756710*
X2065874Y1756597*
X2066343Y1756483*
X2067124*
X2067593Y1756597*
X2067905Y1756710*
X2068218Y1756938*
X2068374Y1757165*
Y1757620*
X2068218Y1757847*
X2067905Y1758074*
X2067593Y1758188*
X2067124*
Y1757620D02*
Y1758188D01*
X2065093Y1759210D02*
X2068374D01*
X2065093D02*
X2068374Y1760801D01*
X2065093D02*
X2068374D01*
X2065093Y1761824D02*
X2068374D01*
X2065093D02*
Y1762620D01*
X2065249Y1762960*
X2065561Y1763188*
X2065874Y1763301*
X2066343Y1763415*
X2067124*
X2067593Y1763301*
X2067905Y1763188*
X2068218Y1762960*
X2068374Y1762620*
Y1761824*
X2065093Y1737963D02*
X2068374D01*
X2065093Y1739668D02*
X2065249Y1739440D01*
X2065561Y1739213*
X2065874Y1739100*
X2066343Y1738986*
X2067124*
X2067593Y1739100*
X2067905Y1739213*
X2068218Y1739440*
X2068374Y1739668*
Y1740122*
X2068218Y1740350*
X2067905Y1740577*
X2067593Y1740690*
X2067124Y1740804*
X2066343*
X2065874Y1740690*
X2065561Y1740577*
X2065249Y1740350*
X2065093Y1740122*
Y1739668*
X2065874Y1741940D02*
X2065718D01*
X2065405Y1742054*
X2065249Y1742168*
X2065093Y1742395*
Y1742850*
X2065249Y1743077*
X2065405Y1743190*
X2065718Y1743304*
X2066030*
X2066343Y1743190*
X2066811Y1742963*
X2068374Y1741827*
Y1743418*
X2065874Y1744554D02*
X2065718D01*
X2065405Y1744668*
X2065249Y1744781*
X2065093Y1745009*
Y1745463*
X2065249Y1745690*
X2065405Y1745804*
X2065718Y1745918*
X2066030*
X2066343Y1745804*
X2066811Y1745577*
X2068374Y1744440*
Y1746031*
X2065093Y1727879D02*
X2068374D01*
X2065093Y1727083D02*
Y1728674D01*
Y1729697D02*
X2068374Y1731288D01*
X2065093D02*
X2068374Y1729697D01*
X2065093Y1732310D02*
X2068374D01*
X2065093D02*
Y1733106D01*
X2065249Y1733447*
X2065561Y1733674*
X2065874Y1733788*
X2066343Y1733901*
X2067124*
X2067593Y1733788*
X2067905Y1733674*
X2068218Y1733447*
X2068374Y1733106*
Y1732310*
X2065093Y1735606D02*
X2065249Y1735265D01*
X2065718Y1735038*
X2066499Y1734924*
X2066968*
X2067749Y1735038*
X2068218Y1735265*
X2068374Y1735606*
Y1735833*
X2068218Y1736174*
X2067749Y1736401*
X2066968Y1736515*
X2066499*
X2065718Y1736401*
X2065249Y1736174*
X2065093Y1735833*
Y1735606*
Y1717043D02*
X2068374D01*
X2065093D02*
Y1718066D01*
X2065249Y1718407*
X2065405Y1718520*
X2065718Y1718634*
X2066030*
X2066343Y1718520*
X2066499Y1718407*
X2066655Y1718066*
Y1717043*
Y1717839D02*
X2068374Y1718634D01*
X2065093Y1719657D02*
X2068374Y1721248D01*
X2065093D02*
X2068374Y1719657D01*
X2065093Y1722270D02*
X2068374D01*
X2065093D02*
Y1723066D01*
X2065249Y1723407*
X2065561Y1723634*
X2065874Y1723748*
X2066343Y1723861*
X2067124*
X2067593Y1723748*
X2067905Y1723634*
X2068218Y1723407*
X2068374Y1723066*
Y1722270*
X2065093Y1725566D02*
X2065249Y1725225D01*
X2065718Y1724998*
X2066499Y1724884*
X2066968*
X2067749Y1724998*
X2068218Y1725225*
X2068374Y1725566*
Y1725793*
X2068218Y1726134*
X2067749Y1726361*
X2066968Y1726475*
X2066499*
X2065718Y1726361*
X2065249Y1726134*
X2065093Y1725793*
Y1725566*
Y1707783D02*
X2068374D01*
X2065093Y1709488D02*
X2065249Y1709260D01*
X2065561Y1709033*
X2065874Y1708920*
X2066343Y1708806*
X2067124*
X2067593Y1708920*
X2067905Y1709033*
X2068218Y1709260*
X2068374Y1709488*
Y1709942*
X2068218Y1710170*
X2067905Y1710397*
X2067593Y1710510*
X2067124Y1710624*
X2066343*
X2065874Y1710510*
X2065561Y1710397*
X2065249Y1710170*
X2065093Y1709942*
Y1709488*
X2065874Y1711760D02*
X2065718D01*
X2065405Y1711874*
X2065249Y1711988*
X2065093Y1712215*
Y1712670*
X2065249Y1712897*
X2065405Y1713010*
X2065718Y1713124*
X2066030*
X2066343Y1713010*
X2066811Y1712783*
X2068374Y1711647*
Y1713238*
X2065718Y1714260D02*
X2065561Y1714488D01*
X2065093Y1714829*
X2068374*
X2065874Y1698948D02*
X2065561Y1698834D01*
X2065249Y1698607*
X2065093Y1698380*
Y1697925*
X2065249Y1697698*
X2065561Y1697470*
X2065874Y1697357*
X2066343Y1697243*
X2067124*
X2067593Y1697357*
X2067905Y1697470*
X2068218Y1697698*
X2068374Y1697925*
Y1698380*
X2068218Y1698607*
X2067905Y1698834*
X2067593Y1698948*
X2067124*
Y1698380D02*
Y1698948D01*
X2065093Y1699970D02*
X2068374D01*
X2065093D02*
X2068374Y1701561D01*
X2065093D02*
X2068374D01*
X2065093Y1702584D02*
X2068374D01*
X2065093D02*
Y1703380D01*
X2065249Y1703720*
X2065561Y1703948*
X2065874Y1704061*
X2066343Y1704175*
X2067124*
X2067593Y1704061*
X2067905Y1703948*
X2068218Y1703720*
X2068374Y1703380*
Y1702584*
X2065093Y1686633D02*
X2068374D01*
X2065093Y1688338D02*
X2065249Y1688110D01*
X2065561Y1687883*
X2065874Y1687770*
X2066343Y1687656*
X2067124*
X2067593Y1687770*
X2067905Y1687883*
X2068218Y1688110*
X2068374Y1688338*
Y1688792*
X2068218Y1689020*
X2067905Y1689247*
X2067593Y1689360*
X2067124Y1689474*
X2066343*
X2065874Y1689360*
X2065561Y1689247*
X2065249Y1689020*
X2065093Y1688792*
Y1688338*
X2065718Y1690497D02*
X2065561Y1690724D01*
X2065093Y1691065*
X2068374*
X2066186Y1693565D02*
X2066655Y1693451D01*
X2066968Y1693224*
X2067124Y1692883*
Y1692770*
X2066968Y1692429*
X2066655Y1692201*
X2066186Y1692088*
X2066030*
X2065561Y1692201*
X2065249Y1692429*
X2065093Y1692770*
Y1692883*
X2065249Y1693224*
X2065561Y1693451*
X2066186Y1693565*
X2066968*
X2067749Y1693451*
X2068218Y1693224*
X2068374Y1692883*
Y1692656*
X2068218Y1692315*
X2067905Y1692201*
X2065093Y1676883D02*
X2068374D01*
X2065093Y1678588D02*
X2065249Y1678360D01*
X2065561Y1678133*
X2065874Y1678020*
X2066343Y1677906*
X2067124*
X2067593Y1678020*
X2067905Y1678133*
X2068218Y1678360*
X2068374Y1678588*
Y1679042*
X2068218Y1679270*
X2067905Y1679497*
X2067593Y1679610*
X2067124Y1679724*
X2066343*
X2065874Y1679610*
X2065561Y1679497*
X2065249Y1679270*
X2065093Y1679042*
Y1678588*
X2065718Y1680747D02*
X2065561Y1680974D01*
X2065093Y1681315*
X2068374*
X2065093Y1682906D02*
X2065249Y1682565D01*
X2065561Y1682451*
X2065874*
X2066186Y1682565*
X2066343Y1682792*
X2066499Y1683247*
X2066655Y1683588*
X2066968Y1683815*
X2067280Y1683929*
X2067749*
X2068061Y1683815*
X2068218Y1683701*
X2068374Y1683360*
Y1682906*
X2068218Y1682565*
X2068061Y1682451*
X2067749Y1682338*
X2067280*
X2066968Y1682451*
X2066655Y1682679*
X2066499Y1683020*
X2066343Y1683474*
X2066186Y1683701*
X2065874Y1683815*
X2065561*
X2065249Y1683701*
X2065093Y1683360*
Y1682906*
X2065103Y1648483D02*
X2068384D01*
X2065103Y1650188D02*
X2065259Y1649960D01*
X2065571Y1649733*
X2065884Y1649620*
X2066353Y1649506*
X2067134*
X2067603Y1649620*
X2067915Y1649733*
X2068228Y1649960*
X2068384Y1650188*
Y1650642*
X2068228Y1650870*
X2067915Y1651097*
X2067603Y1651210*
X2067134Y1651324*
X2066353*
X2065884Y1651210*
X2065571Y1651097*
X2065259Y1650870*
X2065103Y1650642*
Y1650188*
X2065728Y1652347D02*
X2065571Y1652574D01*
X2065103Y1652915*
X2068384*
X2065571Y1655301D02*
X2065259Y1655188D01*
X2065103Y1654847*
Y1654620*
X2065259Y1654279*
X2065728Y1654051*
X2066509Y1653938*
X2067290*
X2067915Y1654051*
X2068228Y1654279*
X2068384Y1654620*
Y1654733*
X2068228Y1655074*
X2067915Y1655301*
X2067446Y1655415*
X2067290*
X2066821Y1655301*
X2066509Y1655074*
X2066353Y1654733*
Y1654620*
X2066509Y1654279*
X2066821Y1654051*
X2067290Y1653938*
X2065043Y1667713D02*
X2068324D01*
X2065043Y1669418D02*
X2065199Y1669190D01*
X2065511Y1668963*
X2065824Y1668850*
X2066293Y1668736*
X2067074*
X2067543Y1668850*
X2067855Y1668963*
X2068168Y1669190*
X2068324Y1669418*
Y1669872*
X2068168Y1670100*
X2067855Y1670327*
X2067543Y1670440*
X2067074Y1670554*
X2066293*
X2065824Y1670440*
X2065511Y1670327*
X2065199Y1670100*
X2065043Y1669872*
Y1669418*
Y1673054D02*
Y1671918D01*
X2066449Y1671804*
X2066293Y1671918*
X2066136Y1672259*
Y1672600*
X2066293Y1672940*
X2066605Y1673168*
X2067074Y1673281*
X2067386Y1673168*
X2067855Y1673054*
X2068168Y1672827*
X2068324Y1672486*
Y1672145*
X2068168Y1671804*
X2068011Y1671690*
X2067699Y1671577*
X2065043Y1658033D02*
X2068324D01*
X2065043Y1659738D02*
X2065199Y1659510D01*
X2065511Y1659283*
X2065824Y1659170*
X2066293Y1659056*
X2067074*
X2067543Y1659170*
X2067855Y1659283*
X2068168Y1659510*
X2068324Y1659738*
Y1660192*
X2068168Y1660420*
X2067855Y1660647*
X2067543Y1660760*
X2067074Y1660874*
X2066293*
X2065824Y1660760*
X2065511Y1660647*
X2065199Y1660420*
X2065043Y1660192*
Y1659738*
X2065668Y1661897D02*
X2065511Y1662124D01*
X2065043Y1662465*
X2068324*
X2065043Y1665079D02*
X2068324Y1663942D01*
X2065043Y1663488D02*
Y1665079D01*
X2065093Y1637723D02*
X2068374D01*
X2065093Y1639428D02*
X2065249Y1639200D01*
X2065561Y1638973*
X2065874Y1638860*
X2066343Y1638746*
X2067124*
X2067593Y1638860*
X2067905Y1638973*
X2068218Y1639200*
X2068374Y1639428*
Y1639882*
X2068218Y1640110*
X2067905Y1640337*
X2067593Y1640450*
X2067124Y1640564*
X2066343*
X2065874Y1640450*
X2065561Y1640337*
X2065249Y1640110*
X2065093Y1639882*
Y1639428*
Y1642723D02*
X2067280Y1641587D01*
Y1643291*
X2065093Y1642723D02*
X2068374D01*
X2065093Y1627583D02*
X2068374D01*
X2065093Y1629288D02*
X2065249Y1629060D01*
X2065561Y1628833*
X2065874Y1628720*
X2066343Y1628606*
X2067124*
X2067593Y1628720*
X2067905Y1628833*
X2068218Y1629060*
X2068374Y1629288*
Y1629742*
X2068218Y1629970*
X2067905Y1630197*
X2067593Y1630310*
X2067124Y1630424*
X2066343*
X2065874Y1630310*
X2065561Y1630197*
X2065249Y1629970*
X2065093Y1629742*
Y1629288*
Y1632129D02*
X2065249Y1631788D01*
X2065718Y1631560*
X2066499Y1631447*
X2066968*
X2067749Y1631560*
X2068218Y1631788*
X2068374Y1632129*
Y1632356*
X2068218Y1632697*
X2067749Y1632924*
X2066968Y1633038*
X2066499*
X2065718Y1632924*
X2065249Y1632697*
X2065093Y1632356*
Y1632129*
Y1617533D02*
X2068374D01*
X2065093Y1619238D02*
X2065249Y1619010D01*
X2065561Y1618783*
X2065874Y1618670*
X2066343Y1618556*
X2067124*
X2067593Y1618670*
X2067905Y1618783*
X2068218Y1619010*
X2068374Y1619238*
Y1619692*
X2068218Y1619920*
X2067905Y1620147*
X2067593Y1620260*
X2067124Y1620374*
X2066343*
X2065874Y1620260*
X2065561Y1620147*
X2065249Y1619920*
X2065093Y1619692*
Y1619238*
X2065874Y1621510D02*
X2065718D01*
X2065405Y1621624*
X2065249Y1621738*
X2065093Y1621965*
Y1622420*
X2065249Y1622647*
X2065405Y1622760*
X2065718Y1622874*
X2066030*
X2066343Y1622760*
X2066811Y1622533*
X2068374Y1621397*
Y1622988*
X2065093Y1607093D02*
X2068374D01*
X2065093Y1608798D02*
X2065249Y1608570D01*
X2065561Y1608343*
X2065874Y1608230*
X2066343Y1608116*
X2067124*
X2067593Y1608230*
X2067905Y1608343*
X2068218Y1608570*
X2068374Y1608798*
Y1609252*
X2068218Y1609480*
X2067905Y1609707*
X2067593Y1609820*
X2067124Y1609934*
X2066343*
X2065874Y1609820*
X2065561Y1609707*
X2065249Y1609480*
X2065093Y1609252*
Y1608798*
X2065718Y1610957D02*
X2065561Y1611184D01*
X2065093Y1611525*
X2068374*
X2065093Y1614025D02*
Y1612889D01*
X2066499Y1612775*
X2066343Y1612889*
X2066186Y1613230*
Y1613570*
X2066343Y1613911*
X2066655Y1614139*
X2067124Y1614252*
X2067436Y1614139*
X2067905Y1614025*
X2068218Y1613798*
X2068374Y1613457*
Y1613116*
X2068218Y1612775*
X2068061Y1612661*
X2067749Y1612548*
X2065093Y1746873D02*
X2068374D01*
X2065093Y1748578D02*
X2065249Y1748350D01*
X2065561Y1748123*
X2065874Y1748010*
X2066343Y1747896*
X2067124*
X2067593Y1748010*
X2067905Y1748123*
X2068218Y1748350*
X2068374Y1748578*
Y1749032*
X2068218Y1749260*
X2067905Y1749487*
X2067593Y1749600*
X2067124Y1749714*
X2066343*
X2065874Y1749600*
X2065561Y1749487*
X2065249Y1749260*
X2065093Y1749032*
Y1748578*
X2065874Y1750850D02*
X2065718D01*
X2065405Y1750964*
X2065249Y1751078*
X2065093Y1751305*
Y1751760*
X2065249Y1751987*
X2065405Y1752100*
X2065718Y1752214*
X2066030*
X2066343Y1752100*
X2066811Y1751873*
X2068374Y1750737*
Y1752328*
X2065093Y1753578D02*
Y1754828D01*
X2066343Y1754146*
Y1754487*
X2066499Y1754714*
X2066655Y1754828*
X2067124Y1754941*
X2067436*
X2067905Y1754828*
X2068218Y1754600*
X2068374Y1754260*
Y1753919*
X2068218Y1753578*
X2068061Y1753464*
X2067749Y1753350*
X2065874Y1579138D02*
X2065561Y1579024D01*
X2065249Y1578797*
X2065093Y1578570*
Y1578115*
X2065249Y1577888*
X2065561Y1577660*
X2065874Y1577547*
X2066343Y1577433*
X2067124*
X2067593Y1577547*
X2067905Y1577660*
X2068218Y1577888*
X2068374Y1578115*
Y1578570*
X2068218Y1578797*
X2067905Y1579024*
X2067593Y1579138*
X2065093Y1580160D02*
X2068374D01*
Y1581524*
X2065093Y1582547D02*
X2068374D01*
X2065093Y1584138D02*
X2067280Y1582547D01*
X2066499Y1583115D02*
X2068374Y1584138D01*
X2065561Y1588634D02*
X2065249Y1588407D01*
X2065093Y1588066*
Y1587611*
X2065249Y1587270*
X2065561Y1587043*
X2065874*
X2066186Y1587157*
X2066343Y1587270*
X2066499Y1587498*
X2066811Y1588180*
X2066968Y1588407*
X2067124Y1588520*
X2067436Y1588634*
X2067905*
X2068218Y1588407*
X2068374Y1588066*
Y1587611*
X2068218Y1587270*
X2067905Y1587043*
X2065093Y1589657D02*
X2068374D01*
X2065093D02*
Y1590452D01*
X2065249Y1590793*
X2065561Y1591020*
X2065874Y1591134*
X2066343Y1591248*
X2067124*
X2067593Y1591134*
X2067905Y1591020*
X2068218Y1590793*
X2068374Y1590452*
Y1589657*
X2065093Y1592952D02*
X2065249Y1592611D01*
X2065718Y1592384*
X2066499Y1592270*
X2066968*
X2067749Y1592384*
X2068218Y1592611*
X2068374Y1592952*
Y1593180*
X2068218Y1593520*
X2067749Y1593748*
X2066968Y1593861*
X2066499*
X2065718Y1593748*
X2065249Y1593520*
X2065093Y1593180*
Y1592952*
X2065561Y1598564D02*
X2065249Y1598337D01*
X2065093Y1597996*
Y1597541*
X2065249Y1597200*
X2065561Y1596973*
X2065874*
X2066186Y1597087*
X2066343Y1597200*
X2066499Y1597428*
X2066811Y1598110*
X2066968Y1598337*
X2067124Y1598450*
X2067436Y1598564*
X2067905*
X2068218Y1598337*
X2068374Y1597996*
Y1597541*
X2068218Y1597200*
X2067905Y1596973*
X2065093Y1599587D02*
X2068374D01*
X2065093D02*
Y1600382D01*
X2065249Y1600723*
X2065561Y1600950*
X2065874Y1601064*
X2066343Y1601178*
X2067124*
X2067593Y1601064*
X2067905Y1600950*
X2068218Y1600723*
X2068374Y1600382*
Y1599587*
X2065718Y1602200D02*
X2065561Y1602428D01*
X2065093Y1602769*
X2068374*
X1981014Y1632639D02*
X1981326Y1632752D01*
X1981639Y1632980*
X1981795Y1633207*
Y1633661*
X1981639Y1633889*
X1981326Y1634116*
X1981014Y1634230*
X1980545Y1634343*
X1979764*
X1979295Y1634230*
X1978983Y1634116*
X1978670Y1633889*
X1978514Y1633661*
Y1633207*
X1978670Y1632980*
X1978983Y1632752*
X1979295Y1632639*
X1979764*
Y1633207D02*
Y1632639D01*
X1981795Y1631616D02*
X1978514D01*
X1981795D02*
X1978514Y1630025D01*
X1981795D02*
X1978514D01*
X1981795Y1629002D02*
X1978514D01*
X1981795D02*
Y1628207D01*
X1981639Y1627866*
X1981326Y1627639*
X1981014Y1627525*
X1980545Y1627411*
X1979764*
X1979295Y1627525*
X1978983Y1627639*
X1978670Y1627866*
X1978514Y1628207*
Y1629002*
X2042424Y1580404D02*
Y1577123D01*
Y1580404D02*
X2043447D01*
X2043788Y1580248*
X2043901Y1580092*
X2044015Y1579779*
Y1579467*
X2043901Y1579154*
X2043788Y1578998*
X2043447Y1578842*
X2042424D02*
X2043447D01*
X2043788Y1578686*
X2043901Y1578529*
X2044015Y1578217*
Y1577748*
X2043901Y1577436*
X2043788Y1577279*
X2043447Y1577123*
X2042424*
X2045606Y1579311D02*
X2045378Y1579154D01*
X2045151Y1578842*
X2045038Y1578373*
Y1578061*
X2045151Y1577592*
X2045378Y1577279*
X2045606Y1577123*
X2045947*
X2046174Y1577279*
X2046401Y1577592*
X2046515Y1578061*
Y1578373*
X2046401Y1578842*
X2046174Y1579154*
X2045947Y1579311*
X2045606*
X2048106D02*
X2047878Y1579154D01*
X2047651Y1578842*
X2047538Y1578373*
Y1578061*
X2047651Y1577592*
X2047878Y1577279*
X2048106Y1577123*
X2048447*
X2048674Y1577279*
X2048901Y1577592*
X2049015Y1578061*
Y1578373*
X2048901Y1578842*
X2048674Y1579154*
X2048447Y1579311*
X2048106*
X2050378Y1580404D02*
Y1577748D01*
X2050492Y1577279*
X2050719Y1577123*
X2050947*
X2050038Y1579311D02*
X2050833D01*
X1998224Y1580084D02*
Y1576803D01*
Y1580084D02*
X1999701D01*
X1998224Y1578522D02*
X1999133D01*
X1998224Y1576803D02*
X1999701D01*
X2000724Y1580084D02*
Y1576803D01*
Y1580084D02*
X2002315Y1576803D01*
Y1580084D02*
Y1576803D01*
X2034834Y1636529D02*
X2035061Y1636686D01*
X2035402Y1637154*
Y1633873*
X1968544Y1775163D02*
X2012692D01*
X1968544D02*
X1973544Y1776163D01*
Y1774163*
X1968544Y1775163*
X2078294D02*
X2034146D01*
X2078294D02*
X2073294Y1774163D01*
Y1776163*
X2078294Y1775163*
X1968544Y1766853D02*
Y1777163D01*
X2078294Y1766783D02*
Y1777163D01*
X2015805Y1775788D02*
Y1775944D01*
X2015919Y1776257*
X2016033Y1776413*
X2016260Y1776569*
X2016714*
X2016942Y1776413*
X2017055Y1776257*
X2017169Y1775944*
Y1775632*
X2017055Y1775319*
X2016828Y1774851*
X2015692Y1773288*
X2017283*
X2019896Y1776569D02*
X2018760Y1773288D01*
X2018305Y1776569D02*
X2019896D01*
X2021033Y1773601D02*
X2020919Y1773444D01*
X2021033Y1773288*
X2021146Y1773444*
X2021033Y1773601*
X2023646Y1775476D02*
X2023533Y1775007D01*
X2023305Y1774694*
X2022964Y1774538*
X2022851*
X2022510Y1774694*
X2022283Y1775007*
X2022169Y1775476*
Y1775632*
X2022283Y1776101*
X2022510Y1776413*
X2022851Y1776569*
X2022964*
X2023305Y1776413*
X2023533Y1776101*
X2023646Y1775476*
Y1774694*
X2023533Y1773913*
X2023305Y1773444*
X2022964Y1773288*
X2022737*
X2022396Y1773444*
X2022283Y1773757*
X2024669Y1775476D02*
Y1773288D01*
Y1774851D02*
X2025010Y1775319D01*
X2025237Y1775476*
X2025578*
X2025805Y1775319*
X2025919Y1774851*
Y1773288*
Y1774851D02*
X2026260Y1775319D01*
X2026487Y1775476*
X2026828*
X2027055Y1775319*
X2027169Y1774851*
Y1773288*
X2028192Y1775476D02*
Y1773288D01*
Y1774851D02*
X2028533Y1775319D01*
X2028760Y1775476*
X2029101*
X2029328Y1775319*
X2029442Y1774851*
Y1773288*
Y1774851D02*
X2029783Y1775319D01*
X2030010Y1775476*
X2030351*
X2030578Y1775319*
X2030692Y1774851*
Y1773288*
X2091094Y1574803D02*
Y1664898D01*
Y1574803D02*
X2090094Y1579803D01*
X2092094*
X2091094Y1574803*
Y1764743D02*
Y1674648D01*
Y1764743D02*
X2092094Y1759743D01*
X2090094*
X2091094Y1764743*
X2080304Y1574803D02*
X2093094D01*
X2080284Y1764743D02*
X2093094D01*
X2084389Y1671179D02*
X2083253Y1668992D01*
X2084958*
X2084389Y1671179D02*
Y1667898D01*
X2086548Y1671179D02*
X2086208Y1671023D01*
X2086094Y1670711*
Y1670398*
X2086208Y1670086*
X2086435Y1669929*
X2086889Y1669773*
X2087230Y1669617*
X2087458Y1669304*
X2087571Y1668992*
Y1668523*
X2087458Y1668211*
X2087344Y1668054*
X2087003Y1667898*
X2086548*
X2086208Y1668054*
X2086094Y1668211*
X2085980Y1668523*
Y1668992*
X2086094Y1669304*
X2086321Y1669617*
X2086662Y1669773*
X2087117Y1669929*
X2087344Y1670086*
X2087458Y1670398*
Y1670711*
X2087344Y1671023*
X2087003Y1671179*
X2086548*
X2088708Y1668211D02*
X2088594Y1668054D01*
X2088708Y1667898*
X2088821Y1668054*
X2088708Y1668211*
X2089958Y1670398D02*
Y1670554D01*
X2090071Y1670867*
X2090185Y1671023*
X2090412Y1671179*
X2090867*
X2091094Y1671023*
X2091208Y1670867*
X2091321Y1670554*
Y1670242*
X2091208Y1669929*
X2090980Y1669461*
X2089844Y1667898*
X2091435*
X2092458Y1670086D02*
Y1667898D01*
Y1669461D02*
X2092798Y1669929D01*
X2093026Y1670086*
X2093367*
X2093594Y1669929*
X2093708Y1669461*
Y1667898*
Y1669461D02*
X2094048Y1669929D01*
X2094276Y1670086*
X2094617*
X2094844Y1669929*
X2094958Y1669461*
Y1667898*
X2095980Y1670086D02*
Y1667898D01*
Y1669461D02*
X2096321Y1669929D01*
X2096548Y1670086*
X2096889*
X2097117Y1669929*
X2097230Y1669461*
Y1667898*
Y1669461D02*
X2097571Y1669929D01*
X2097798Y1670086*
X2098139*
X2098367Y1669929*
X2098480Y1669461*
Y1667898*
G54D25*
X2007741Y1653514D02*
Y1643532D01*
X2006482Y1642273*
X2002526*
X2001267Y1643532*
Y1653514*
X2002526Y1654773*
X2006482*
X2007741Y1653514*
X2014791Y1634104D02*
Y1624122D01*
X2013532Y1622863*
X2009576*
X2008317Y1624122*
Y1634104*
X2009576Y1635363*
X2013532*
X2014791Y1634104*
X2037175Y1637756D02*
X2027193D01*
X2025934Y1639015*
Y1642971*
X2027193Y1644230*
X2037175*
X2038434Y1642971*
Y1639015*
X2037175Y1637756*
X1996978Y1677840D02*
X2006960D01*
X2008219Y1676581*
Y1672625*
X2006960Y1671366*
X1996978*
X1995719Y1672625*
Y1676581*
X1996978Y1677840*
X2000475Y1662116D02*
X1990493D01*
X1989234Y1663375*
Y1667331*
X1990493Y1668590*
X2000475*
X2001734Y1667331*
Y1663375*
X2000475Y1662116*
G54D29*
X1986285Y1618843D02*
Y1616284D01*
X1997703*
Y1618843*
X1986285*
X2060993Y1615954D02*
Y1618514D01*
X2049575*
Y1615954*
X2060993*
G54D31*
X1968504Y1764783D02*
X2078304D01*
Y1574803*
X1968504*
Y1764783*
G54D54*
X2001469Y1594503D02*
X2002469D01*
X2044776D02*
X2045776D01*
X2012724Y1617993D02*
X2011724D01*
X2020364Y1637863D02*
Y1638863D01*
X1987044Y1662503D02*
X1986044D01*
X1987034Y1643783D02*
X1986034D01*
X1987034Y1651703D02*
X1986034D01*
X2058334Y1633563D02*
X2059334D01*
X2052846D02*
X2053846D01*
X2047531Y1644273D02*
X2048531D01*
X2043020Y1605663D02*
X2042020D01*
X2052846Y1644273D02*
X2053846D01*
X1995494Y1626693D02*
Y1627693D01*
X2049213Y1608154D02*
Y1607154D01*
X2047531Y1633563D02*
X2048531D01*
X2005674Y1666535D02*
X2004674D01*
X1991604Y1673063D02*
X1992604D01*
X2059124Y1608154D02*
Y1607154D01*
X1990164Y1606913D02*
Y1607913D01*
X2059334Y1644273D02*
X2058334D01*
X2001574Y1634063D02*
Y1635063D01*
G54D124*
X1996954Y1632233D02*
Y1637333D01*
X1992954*
X1989654Y1637433D02*
X1984854D01*
X1984454*
Y1631533*
X1984554Y1631433D02*
X1989254D01*
X1992654Y1631333D02*
X1996954D01*
Y1632633*
X1991754Y1632733D02*
Y1636333D01*
X1991654Y1636433D02*
X1989654Y1634433D01*
X1991454Y1632633*
G54D125*
X1997604Y1619721D02*
X1997210Y1620114D01*
X1997604Y1619327D02*
X1996817Y1620114D01*
X1997604Y1618933D02*
X1996423Y1620114D01*
X1997604Y1618540D02*
X1996029Y1620114D01*
X1997604Y1618146D02*
X1995636Y1620114D01*
X1997604Y1617752D02*
X1995242Y1620114D01*
X1997604Y1617358D02*
X1994848Y1620114D01*
X1997604Y1616965D02*
X1994455Y1620114D01*
X1997604Y1616571D02*
X1994061Y1620114D01*
X1997604Y1616177D02*
X1993667Y1620114D01*
X1986384D02*
Y1615012D01*
X1997604*
Y1620114*
X1986384*
X2049674Y1615077D02*
X2050067Y1614683D01*
X2049674Y1615470D02*
X2050461Y1614683D01*
X2049674Y1615864D02*
X2050855Y1614683D01*
X2049674Y1616258D02*
X2051249Y1614683D01*
X2049674Y1616651D02*
X2051642Y1614683D01*
X2049674Y1617045D02*
X2052036Y1614683D01*
X2049674Y1617439D02*
X2052430Y1614683D01*
X2049674Y1617832D02*
X2052823Y1614683D01*
X2049674Y1618226D02*
X2053217Y1614683D01*
X2049674Y1618620D02*
X2053611Y1614683D01*
X2060894D02*
Y1619785D01*
X2049674*
Y1614683*
X2060894*
G54D127*
X1998573Y1622075D02*
G03X1998573I-492J0D01*
G01X2049689Y1612722D02*
G03X2049689I-492J0D01*
G54D128*
G01X1985990Y1620319D02*
Y1614807D01*
X1997998*
Y1620319*
X1985990*
X2061288Y1614478D02*
Y1619990D01*
X2049280*
Y1614478*
X2061288*
G74*
X0Y0D02*
M02*
