*
*
G04 PADS 9.5 Build Number: 522968 generated Gerber (RS-274-X) file*
G04 PC Version=2.1*
*
%IN "ESP32_CORE_BOARD_V2_201"*%
*
%MOIN*%
*
%FSLAX35Y35*%
*
*
*
*
G04 PC Standard Apertures*
*
*
G04 Thermal Relief Aperture macro.*
%AMTER*
1,1,$1,0,0*
1,0,$1-$2,0,0*
21,0,$3,$4,0,0,45*
21,0,$3,$4,0,0,135*
%
*
*
G04 Annular Aperture macro.*
%AMANN*
1,1,$1,0,0*
1,0,$2,0,0*
%
*
*
G04 Odd Aperture macro.*
%AMODD*
1,1,$1,0,0*
1,0,$1-0.005,0,0*
%
*
*
G04 PC Custom Aperture Macros*
*
*
*
*
*
*
G04 PC Aperture Table*
*
%ADD010C,0.001*%
%ADD031C,0.00394*%
%ADD039R,0.02315X0.02315*%
%ADD045R,0.03515X0.03915*%
%ADD065R,0.03915X0.03515*%
%ADD092R,0.03465X0.03465*%
%ADD094C,0.0622*%
%ADD103R,0.02874X0.04252*%
%ADD132R,0.08189X0.03858*%
%ADD150R,0.03858X0.08189*%
%ADD151R,0.0689X0.06417*%
%ADD152R,0.02815X0.02815*%
%ADD154R,0.0622X0.08189*%
%ADD157R,0.02677X0.0563*%
%ADD158R,0.01299X0.0563*%
%ADD159O,0.0622X0.07402*%
%ADD169R,0.07315X0.04315*%
%ADD170R,0.01299X0.03858*%
%ADD171R,0.03858X0.01299*%
%ADD172R,0.1311X0.1311*%
%ADD173R,0.08189X0.0622*%
%ADD174R,0.08189X0.15276*%
*
*
*
*
G04 PC Circuitry*
G04 Layer Name ESP32_CORE_BOARD_V2_201 - circuitry*
%LPD*%
*
*
G04 PC Custom Flashes*
G04 Layer Name ESP32_CORE_BOARD_V2_201 - flashes*
%LPD*%
*
*
G04 PC Circuitry*
G04 Layer Name ESP32_CORE_BOARD_V2_201 - circuitry*
%LPD*%
*
G54D10*
G01X2019892Y1605411D02*
X2020992Y1604311D01*
X2021012Y1604295*
X2021035Y1604284*
X2021060Y1604280*
X2021085Y1604281*
X2021109Y1604287*
X2021131Y1604300*
X2021150Y1604317*
X2021164Y1604338*
X2021172Y1604362*
X2021175Y1604387*
Y1606512*
X2021174Y1606531*
X2021168Y1606550*
X2021160Y1606567*
X2021148Y1606583*
X2021140Y1606607*
X2021127Y1606629*
X2021108Y1606647*
X2021086Y1606660*
X2021061Y1606668*
X2021036Y1606669*
X2021011Y1606664*
X2020987Y1606654*
X2020967Y1606638*
X2019892Y1605563*
X2019877Y1605544*
X2019867Y1605522*
X2019861Y1605499*
Y1605475*
X2019867Y1605451*
X2019877Y1605429*
X2019892Y1605411*
X2019893Y1605410D02*
Y1605564D01*
X2019943Y1605360D02*
Y1605614D01*
X2019993Y1605310D02*
Y1605664D01*
X2020043Y1605260D02*
Y1605714D01*
X2020093Y1605210D02*
Y1605764D01*
X2020143Y1605160D02*
Y1605814D01*
X2020193Y1605110D02*
Y1605864D01*
X2020243Y1605060D02*
Y1605914D01*
X2020293Y1605010D02*
Y1605964D01*
X2020343Y1604960D02*
Y1606014D01*
X2020393Y1604910D02*
Y1606064D01*
X2020443Y1604860D02*
Y1606114D01*
X2020493Y1604810D02*
Y1606164D01*
X2020543Y1604760D02*
Y1606214D01*
X2020593Y1604710D02*
Y1606264D01*
X2020643Y1604660D02*
Y1606314D01*
X2020693Y1604610D02*
Y1606364D01*
X2020743Y1604560D02*
Y1606414D01*
X2020793Y1604510D02*
Y1606464D01*
X2020843Y1604460D02*
Y1606514D01*
X2020893Y1604410D02*
Y1606564D01*
X2020943Y1604360D02*
Y1606614D01*
X2020993Y1604310D02*
Y1606656D01*
X2021043Y1604283D02*
Y1606669D01*
X2021093Y1604283D02*
Y1606656D01*
X2021143Y1604311D02*
Y1606599D01*
X2020085Y1605512D02*
X2020088Y1605491D01*
X2020094Y1605471*
X2020104Y1605452*
X2020117Y1605436*
X2020792Y1604761*
X2020812Y1604745*
X2020835Y1604734*
X2020860Y1604730*
X2020885Y1604731*
X2020909Y1604737*
X2020931Y1604750*
X2020950Y1604767*
X2020964Y1604788*
X2020972Y1604812*
X2020975Y1604837*
Y1606112*
X2020974Y1606131*
X2020968Y1606150*
X2020960Y1606167*
X2020948Y1606183*
X2020940Y1606207*
X2020927Y1606229*
X2020908Y1606247*
X2020886Y1606260*
X2020861Y1606268*
X2020836Y1606269*
X2020811Y1606264*
X2020787Y1606254*
X2020767Y1606238*
X2020117Y1605588*
X2020104Y1605571*
X2020094Y1605553*
X2020088Y1605533*
X2020085Y1605512*
X2020093Y1605473D02*
Y1605550D01*
X2020143Y1605410D02*
Y1605614D01*
X2020193Y1605360D02*
Y1605664D01*
X2020243Y1605310D02*
Y1605714D01*
X2020293Y1605260D02*
Y1605764D01*
X2020343Y1605210D02*
Y1605814D01*
X2020393Y1605160D02*
Y1605864D01*
X2020443Y1605110D02*
Y1605914D01*
X2020493Y1605060D02*
Y1605964D01*
X2020543Y1605010D02*
Y1606014D01*
X2020593Y1604960D02*
Y1606064D01*
X2020643Y1604910D02*
Y1606114D01*
X2020693Y1604860D02*
Y1606164D01*
X2020743Y1604810D02*
Y1606214D01*
X2020793Y1604760D02*
Y1606256D01*
X2020843Y1604733D02*
Y1606269D01*
X2020893Y1604733D02*
Y1606256D01*
X2020943Y1604761D02*
Y1606199D01*
X2018060Y1604462D02*
X2018062Y1604442D01*
X2018068Y1604423*
X2018076Y1604406*
X2018088Y1604390*
X2018096Y1604366*
X2018109Y1604344*
X2018128Y1604326*
X2018150Y1604313*
X2018175Y1604306*
X2018200Y1604304*
X2018225Y1604309*
X2018249Y1604320*
X2018269Y1604336*
X2019344Y1605411*
X2019359Y1605429*
X2019369Y1605451*
X2019375Y1605475*
Y1605499*
X2019369Y1605522*
X2019359Y1605544*
X2019344Y1605563*
X2018244Y1606663*
X2018224Y1606678*
X2018201Y1606689*
X2018176Y1606694*
X2018151Y1606693*
X2018127Y1606686*
X2018105Y1606674*
X2018086Y1606656*
X2018072Y1606635*
X2018063Y1606612*
X2018060Y1606587*
Y1604462*
X2018093Y1604374D02*
Y1606663D01*
X2018143Y1604317D02*
Y1606691D01*
X2018193Y1604305D02*
Y1606691D01*
X2018243Y1604317D02*
Y1606663D01*
X2018293Y1604360D02*
Y1606614D01*
X2018343Y1604410D02*
Y1606564D01*
X2018393Y1604460D02*
Y1606514D01*
X2018443Y1604510D02*
Y1606464D01*
X2018493Y1604560D02*
Y1606414D01*
X2018543Y1604610D02*
Y1606364D01*
X2018593Y1604660D02*
Y1606314D01*
X2018643Y1604710D02*
Y1606264D01*
X2018693Y1604760D02*
Y1606214D01*
X2018743Y1604810D02*
Y1606164D01*
X2018793Y1604860D02*
Y1606114D01*
X2018843Y1604910D02*
Y1606064D01*
X2018893Y1604960D02*
Y1606014D01*
X2018943Y1605010D02*
Y1605964D01*
X2018993Y1605060D02*
Y1605914D01*
X2019043Y1605110D02*
Y1605864D01*
X2019093Y1605160D02*
Y1605814D01*
X2019143Y1605210D02*
Y1605764D01*
X2019193Y1605260D02*
Y1605714D01*
X2019243Y1605310D02*
Y1605664D01*
X2019293Y1605360D02*
Y1605614D01*
X2019343Y1605410D02*
Y1605564D01*
X2018260Y1604862D02*
X2018262Y1604842D01*
X2018268Y1604823*
X2018276Y1604806*
X2018288Y1604790*
X2018296Y1604766*
X2018309Y1604744*
X2018328Y1604726*
X2018350Y1604713*
X2018375Y1604706*
X2018400Y1604704*
X2018425Y1604709*
X2018449Y1604720*
X2018469Y1604736*
X2019119Y1605386*
X2019134Y1605404*
X2019144Y1605426*
X2019150Y1605450*
Y1605474*
X2019144Y1605497*
X2019134Y1605519*
X2019119Y1605538*
X2018444Y1606213*
X2018424Y1606228*
X2018401Y1606239*
X2018376Y1606244*
X2018351Y1606243*
X2018327Y1606236*
X2018305Y1606224*
X2018286Y1606206*
X2018272Y1606185*
X2018263Y1606162*
X2018260Y1606137*
Y1604862*
X2018293Y1604774D02*
Y1606213D01*
X2018343Y1604717D02*
Y1606241D01*
X2018393Y1604705D02*
Y1606241D01*
X2018443Y1604717D02*
Y1606213D01*
X2018493Y1604760D02*
Y1606164D01*
X2018543Y1604810D02*
Y1606114D01*
X2018593Y1604860D02*
Y1606064D01*
X2018643Y1604910D02*
Y1606014D01*
X2018693Y1604960D02*
Y1605964D01*
X2018743Y1605010D02*
Y1605914D01*
X2018793Y1605060D02*
Y1605864D01*
X2018843Y1605110D02*
Y1605814D01*
X2018893Y1605160D02*
Y1605764D01*
X2018943Y1605210D02*
Y1605714D01*
X2018993Y1605260D02*
Y1605664D01*
X2019043Y1605310D02*
Y1605614D01*
X2019093Y1605360D02*
Y1605564D01*
X2019143Y1605423D02*
Y1605500D01*
X2031295Y1605613D02*
X2030195Y1606713D01*
X2030175Y1606728*
X2030152Y1606739*
X2030127Y1606744*
X2030102Y1606743*
X2030078Y1606736*
X2030056Y1606724*
X2030037Y1606706*
X2030023Y1606685*
X2030014Y1606662*
X2030012Y1606637*
Y1604512*
X2030013Y1604492*
X2030019Y1604473*
X2030027Y1604456*
X2030039Y1604440*
X2030047Y1604416*
X2030060Y1604394*
X2030079Y1604376*
X2030101Y1604363*
X2030126Y1604356*
X2030151Y1604354*
X2030176Y1604359*
X2030200Y1604370*
X2030220Y1604386*
X2031295Y1605461*
X2031310Y1605479*
X2031320Y1605501*
X2031326Y1605525*
Y1605549*
X2031320Y1605572*
X2031310Y1605594*
X2031295Y1605613*
X2030044Y1604424D02*
Y1606713D01*
X2030094Y1604367D02*
Y1606741D01*
X2030144Y1604355D02*
Y1606741D01*
X2030194Y1604367D02*
Y1606713D01*
X2030244Y1604410D02*
Y1606664D01*
X2030294Y1604460D02*
Y1606614D01*
X2030344Y1604510D02*
Y1606564D01*
X2030394Y1604560D02*
Y1606514D01*
X2030444Y1604610D02*
Y1606464D01*
X2030494Y1604660D02*
Y1606414D01*
X2030544Y1604710D02*
Y1606364D01*
X2030594Y1604760D02*
Y1606314D01*
X2030644Y1604810D02*
Y1606264D01*
X2030694Y1604860D02*
Y1606214D01*
X2030744Y1604910D02*
Y1606164D01*
X2030794Y1604960D02*
Y1606114D01*
X2030844Y1605010D02*
Y1606064D01*
X2030894Y1605060D02*
Y1606014D01*
X2030944Y1605110D02*
Y1605964D01*
X2030994Y1605160D02*
Y1605914D01*
X2031044Y1605210D02*
Y1605864D01*
X2031094Y1605260D02*
Y1605814D01*
X2031144Y1605310D02*
Y1605764D01*
X2031194Y1605360D02*
Y1605714D01*
X2031244Y1605410D02*
Y1605664D01*
X2031294Y1605460D02*
Y1605614D01*
X2031101Y1605512D02*
X2031099Y1605533D01*
X2031093Y1605553*
X2031083Y1605571*
X2031070Y1605588*
X2030395Y1606263*
X2030375Y1606278*
X2030352Y1606289*
X2030327Y1606294*
X2030302Y1606293*
X2030278Y1606286*
X2030256Y1606274*
X2030237Y1606256*
X2030223Y1606235*
X2030214Y1606212*
X2030212Y1606187*
Y1604912*
X2030213Y1604892*
X2030219Y1604873*
X2030227Y1604856*
X2030239Y1604840*
X2030247Y1604816*
X2030260Y1604794*
X2030279Y1604776*
X2030301Y1604763*
X2030326Y1604756*
X2030351Y1604754*
X2030376Y1604759*
X2030400Y1604770*
X2030420Y1604786*
X2031070Y1605436*
X2031083Y1605452*
X2031093Y1605471*
X2031099Y1605491*
X2031101Y1605512*
X2030244Y1604824D02*
Y1606263D01*
X2030294Y1604767D02*
Y1606291D01*
X2030344Y1604755D02*
Y1606291D01*
X2030394Y1604767D02*
Y1606263D01*
X2030444Y1604810D02*
Y1606214D01*
X2030494Y1604860D02*
Y1606164D01*
X2030544Y1604910D02*
Y1606114D01*
X2030594Y1604960D02*
Y1606064D01*
X2030644Y1605010D02*
Y1606014D01*
X2030694Y1605060D02*
Y1605964D01*
X2030744Y1605110D02*
Y1605914D01*
X2030794Y1605160D02*
Y1605864D01*
X2030844Y1605210D02*
Y1605814D01*
X2030894Y1605260D02*
Y1605764D01*
X2030944Y1605310D02*
Y1605714D01*
X2030994Y1605360D02*
Y1605664D01*
X2031044Y1605410D02*
Y1605614D01*
X2031094Y1605473D02*
Y1605550D01*
X2033126Y1606562D02*
X2033125Y1606581D01*
X2033119Y1606600*
X2033111Y1606617*
X2033099Y1606633*
X2033091Y1606657*
X2033078Y1606679*
X2033059Y1606697*
X2033037Y1606710*
X2033012Y1606718*
X2032987Y1606719*
X2032962Y1606714*
X2032938Y1606704*
X2032918Y1606688*
X2031843Y1605613*
X2031828Y1605594*
X2031818Y1605572*
X2031812Y1605549*
Y1605525*
X2031818Y1605501*
X2031828Y1605479*
X2031843Y1605461*
X2032943Y1604361*
X2032963Y1604345*
X2032986Y1604334*
X2033011Y1604330*
X2033036Y1604331*
X2033060Y1604337*
X2033082Y1604350*
X2033101Y1604367*
X2033115Y1604388*
X2033124Y1604412*
X2033126Y1604437*
Y1606562*
X2031844Y1605460D02*
Y1605614D01*
X2031894Y1605410D02*
Y1605664D01*
X2031944Y1605360D02*
Y1605714D01*
X2031994Y1605310D02*
Y1605764D01*
X2032044Y1605260D02*
Y1605814D01*
X2032094Y1605210D02*
Y1605864D01*
X2032144Y1605160D02*
Y1605914D01*
X2032194Y1605110D02*
Y1605964D01*
X2032244Y1605060D02*
Y1606014D01*
X2032294Y1605010D02*
Y1606064D01*
X2032344Y1604960D02*
Y1606114D01*
X2032394Y1604910D02*
Y1606164D01*
X2032444Y1604860D02*
Y1606214D01*
X2032494Y1604810D02*
Y1606264D01*
X2032544Y1604760D02*
Y1606314D01*
X2032594Y1604710D02*
Y1606364D01*
X2032644Y1604660D02*
Y1606414D01*
X2032694Y1604610D02*
Y1606464D01*
X2032744Y1604560D02*
Y1606514D01*
X2032794Y1604510D02*
Y1606564D01*
X2032844Y1604460D02*
Y1606614D01*
X2032894Y1604410D02*
Y1606664D01*
X2032944Y1604360D02*
Y1606706D01*
X2032994Y1604333D02*
Y1606719D01*
X2033044Y1604333D02*
Y1606706D01*
X2033094Y1604361D02*
Y1606649D01*
X2032926Y1606162D02*
X2032925Y1606181D01*
X2032919Y1606200*
X2032911Y1606217*
X2032899Y1606233*
X2032891Y1606257*
X2032878Y1606279*
X2032859Y1606297*
X2032837Y1606310*
X2032812Y1606318*
X2032787Y1606319*
X2032762Y1606314*
X2032738Y1606304*
X2032718Y1606288*
X2032068Y1605638*
X2032053Y1605619*
X2032043Y1605597*
X2032037Y1605574*
Y1605550*
X2032043Y1605526*
X2032053Y1605504*
X2032068Y1605486*
X2032743Y1604811*
X2032763Y1604795*
X2032786Y1604784*
X2032811Y1604780*
X2032836Y1604781*
X2032860Y1604787*
X2032882Y1604800*
X2032901Y1604817*
X2032915Y1604838*
X2032924Y1604862*
X2032926Y1604887*
Y1606162*
X2032044Y1605523D02*
Y1605600D01*
X2032094Y1605460D02*
Y1605664D01*
X2032144Y1605410D02*
Y1605714D01*
X2032194Y1605360D02*
Y1605764D01*
X2032244Y1605310D02*
Y1605814D01*
X2032294Y1605260D02*
Y1605864D01*
X2032344Y1605210D02*
Y1605914D01*
X2032394Y1605160D02*
Y1605964D01*
X2032444Y1605110D02*
Y1606014D01*
X2032494Y1605060D02*
Y1606064D01*
X2032544Y1605010D02*
Y1606114D01*
X2032594Y1604960D02*
Y1606164D01*
X2032644Y1604910D02*
Y1606214D01*
X2032694Y1604860D02*
Y1606264D01*
X2032744Y1604810D02*
Y1606306D01*
X2032794Y1604783D02*
Y1606319D01*
X2032844Y1604783D02*
Y1606306D01*
X2032894Y1604811D02*
Y1606249D01*
G54D31*
X1968504Y1764783D02*
X2078304D01*
Y1574803*
X1968504*
Y1764783*
G54D39*
X2001969Y1592503D03*
Y1596503D03*
X2045276Y1592503D03*
Y1596503D03*
X2012224Y1619993D03*
Y1615993D03*
X2022364Y1638363D03*
X2018364D03*
X1986544Y1664503D03*
Y1660503D03*
X1986534Y1645783D03*
Y1641783D03*
Y1653703D03*
Y1649703D03*
X2058834Y1631563D03*
Y1635563D03*
X2053347Y1631563D03*
Y1635563D03*
X2048032Y1642273D03*
Y1646273D03*
X2042520Y1607663D03*
Y1603663D03*
X2053347Y1642273D03*
Y1646273D03*
X1997494Y1627193D03*
X1993494D03*
X2047213Y1607654D03*
X2051213D03*
X2048032Y1631563D03*
Y1635563D03*
X2005174Y1668535D03*
Y1664535D03*
X1992104Y1671063D03*
Y1675063D03*
X2057124Y1607654D03*
X2061124D03*
X1992164Y1607413D03*
X1988164D03*
X2058834Y1646273D03*
Y1642273D03*
X2003574Y1634563D03*
X1999574D03*
G54D45*
X2035434Y1640993D03*
X2028934D03*
X1998719Y1674603D03*
X2005219D03*
X1998734Y1665353D03*
X1992234D03*
G54D65*
X2004504Y1651773D03*
Y1645273D03*
X2011554Y1632363D03*
Y1625863D03*
G54D92*
X1993954Y1634533D03*
X1987655D03*
G54D94*
X1973404Y1759883D03*
Y1749883D03*
Y1739883D03*
Y1729883D03*
Y1719883D03*
Y1709883D03*
Y1699883D03*
Y1689883D03*
Y1679883D03*
Y1669883D03*
Y1659883D03*
Y1649883D03*
Y1639883D03*
Y1629883D03*
Y1619883D03*
Y1609883D03*
Y1599883D03*
Y1589883D03*
Y1579883D03*
X2073404Y1759883D03*
Y1749883D03*
Y1739883D03*
Y1729883D03*
Y1719883D03*
Y1709883D03*
Y1699883D03*
Y1689883D03*
Y1679883D03*
Y1669883D03*
Y1659883D03*
Y1649883D03*
Y1639883D03*
Y1629883D03*
Y1619883D03*
Y1609883D03*
Y1599883D03*
Y1589883D03*
Y1579883D03*
G54D103*
X1995813Y1622091D03*
X1988175D03*
X1991994Y1613035D03*
X2051465Y1612706D03*
X2059103D03*
X2055284Y1621762D03*
G54D132*
X1988133Y1759842D03*
Y1754842D03*
Y1749842D03*
Y1744842D03*
Y1739842D03*
Y1734842D03*
Y1729842D03*
Y1724842D03*
Y1719842D03*
Y1714842D03*
Y1709842D03*
Y1704842D03*
Y1699842D03*
Y1694842D03*
X2058999D03*
Y1699842D03*
Y1704842D03*
Y1709842D03*
Y1714842D03*
Y1719842D03*
Y1724842D03*
Y1729842D03*
Y1734842D03*
Y1739842D03*
Y1744842D03*
Y1749842D03*
Y1754842D03*
Y1759842D03*
G54D150*
X2001105Y1688936D03*
X2006105D03*
X2011105D03*
X2016105D03*
X2021105D03*
X2026105D03*
X2031105D03*
X2036105D03*
X2041105D03*
X2046105D03*
G54D151*
X2005464Y1621989D03*
Y1606517D03*
G54D152*
X2022143Y1605512D03*
X2017143D03*
X2029044D03*
X2034044D03*
G54D154*
X2055118Y1580164D03*
Y1599850D03*
X1992126Y1580164D03*
Y1599850D03*
G54D157*
X2017640Y1595843D03*
X2029122D03*
G54D158*
X2020845D03*
X2023404D03*
X2025963D03*
G54D159*
X2009624Y1582063D03*
X2037184D03*
X2009624Y1596630D03*
X2037184D03*
G54D169*
X1993894Y1645083D03*
Y1658469D03*
G54D170*
X2035433Y1631496D03*
X2033465D03*
X2031496D03*
X2029528D03*
X2027559D03*
X2025591D03*
X2023622D03*
Y1612598D03*
X2025591D03*
X2027559D03*
X2029528D03*
X2031496D03*
X2033465D03*
X2035433D03*
G54D171*
X2020079Y1627953D03*
Y1625984D03*
Y1624016D03*
Y1622047D03*
Y1620079D03*
Y1618110D03*
Y1616142D03*
X2038976D03*
Y1618110D03*
Y1620079D03*
Y1622047D03*
Y1624016D03*
Y1625984D03*
Y1627953D03*
G54D172*
X2029528Y1622047D03*
G54D173*
X2015274Y1667798D03*
Y1658743D03*
Y1649688D03*
G54D174*
X2040077Y1658743D03*
X0Y0D02*
M02*
