*
*
G04 PADS 9.5 Build Number: 522968 generated Gerber (RS-274-X) file*
G04 PC Version=2.1*
*
%IN "ESP32_CORE_BOARD_V2_201"*%
*
%MOIN*%
*
%FSLAX35Y35*%
*
*
*
*
G04 PC Standard Apertures*
*
*
G04 Thermal Relief Aperture macro.*
%AMTER*
1,1,$1,0,0*
1,0,$1-$2,0,0*
21,0,$3,$4,0,0,45*
21,0,$3,$4,0,0,135*
%
*
*
G04 Annular Aperture macro.*
%AMANN*
1,1,$1,0,0*
1,0,$2,0,0*
%
*
*
G04 Odd Aperture macro.*
%AMODD*
1,1,$1,0,0*
1,0,$1-0.005,0,0*
%
*
*
G04 PC Custom Aperture Macros*
*
*
*
*
*
*
G04 PC Aperture Table*
*
%ADD010C,0.001*%
%ADD024C,0.005*%
%ADD030C,0.01575*%
%ADD031C,0.00394*%
%ADD070C,0.05906*%
%ADD146O,0.05906X0.07087*%
*
*
*
*
G04 PC Circuitry*
G04 Layer Name ESP32_CORE_BOARD_V2_201 - circuitry*
%LPD*%
*
*
G04 PC Custom Flashes*
G04 Layer Name ESP32_CORE_BOARD_V2_201 - flashes*
%LPD*%
*
*
G04 PC Circuitry*
G04 Layer Name ESP32_CORE_BOARD_V2_201 - circuitry*
%LPD*%
*
G54D10*
G01X1968544Y1764853D02*
X1968547D01*
X2078294Y1764783D02*
X2078297D01*
X2078304Y1574803D02*
X2078307D01*
X2078284Y1764743D02*
X2078287D01*
G54D24*
X1968544Y1775163D02*
X2012692D01*
X1968544D02*
X1973544Y1776163D01*
Y1774163*
X1968544Y1775163*
X2078294D02*
X2034146D01*
X2078294D02*
X2073294Y1774163D01*
Y1776163*
X2078294Y1775163*
X1968544Y1766853D02*
Y1777163D01*
X2078294Y1766783D02*
Y1777163D01*
X2015805Y1775788D02*
Y1775944D01*
X2015919Y1776257*
X2016033Y1776413*
X2016260Y1776569*
X2016714*
X2016942Y1776413*
X2017055Y1776257*
X2017169Y1775944*
Y1775632*
X2017055Y1775319*
X2016828Y1774851*
X2016828D02*
X2015692Y1773288D01*
X2017283*
X2019896Y1776569D02*
X2018760Y1773288D01*
X2018305Y1776569D02*
X2019896D01*
X2021033Y1773601D02*
X2020919Y1773444D01*
X2021033Y1773288*
X2021146Y1773444*
X2021033Y1773601*
X2023646Y1775476D02*
X2023533Y1775007D01*
X2023305Y1774694*
X2022964Y1774538*
X2022851*
X2022510Y1774694*
X2022283Y1775007*
X2022169Y1775476*
X2022169D02*
Y1775632D01*
X2022283Y1776101*
X2022283D02*
X2022510Y1776413D01*
X2022851Y1776569*
X2022964*
X2023305Y1776413*
X2023533Y1776101*
X2023533D02*
X2023646Y1775476D01*
X2023646D02*
Y1774694D01*
X2023533Y1773913*
X2023305Y1773444*
X2022964Y1773288*
X2022737*
X2022396Y1773444*
X2022283Y1773757*
X2024669Y1775476D02*
Y1773288D01*
Y1774851D02*
X2025010Y1775319D01*
X2025237Y1775476*
X2025237D02*
X2025578D01*
X2025578D02*
X2025805Y1775319D01*
X2025919Y1774851*
X2025919D02*
Y1773288D01*
Y1774851D02*
X2026260Y1775319D01*
X2026487Y1775476*
X2026487D02*
X2026828D01*
X2026828D02*
X2027055Y1775319D01*
X2027169Y1774851*
X2027169D02*
Y1773288D01*
X2028192Y1775476D02*
Y1773288D01*
Y1774851D02*
X2028533Y1775319D01*
X2028760Y1775476*
X2028760D02*
X2029101D01*
X2029101D02*
X2029328Y1775319D01*
X2029442Y1774851*
X2029442D02*
Y1773288D01*
Y1774851D02*
X2029783Y1775319D01*
X2030010Y1775476*
X2030010D02*
X2030351D01*
X2030351D02*
X2030578Y1775319D01*
X2030692Y1774851*
X2030692D02*
Y1773288D01*
X2091094Y1574803D02*
Y1664898D01*
Y1574803D02*
X2090094Y1579803D01*
X2092094*
X2091094Y1574803*
Y1764743D02*
Y1674648D01*
Y1764743D02*
X2092094Y1759743D01*
X2090094*
X2091094Y1764743*
X2080304Y1574803D02*
X2093094D01*
X2080284Y1764743D02*
X2093094D01*
X2084389Y1671179D02*
X2083253Y1668992D01*
X2084958*
X2084389Y1671179D02*
Y1667898D01*
X2086549Y1671179D02*
X2086208Y1671023D01*
X2086094Y1670711*
X2086094D02*
Y1670398D01*
X2086208Y1670086*
X2086208D02*
X2086435Y1669929D01*
X2086889Y1669773*
X2087230Y1669617*
X2087458Y1669304*
X2087571Y1668992*
Y1668523*
X2087458Y1668211*
X2087458D02*
X2087344Y1668054D01*
X2087003Y1667898*
X2086549*
X2086208Y1668054*
X2086094Y1668211*
X2086094D02*
X2085980Y1668523D01*
Y1668992*
X2086094Y1669304*
X2086321Y1669617*
X2086662Y1669773*
X2087117Y1669929*
X2087344Y1670086*
X2087344D02*
X2087458Y1670398D01*
Y1670711*
X2087458D02*
X2087344Y1671023D01*
X2087003Y1671179*
X2086549*
X2088708Y1668211D02*
X2088594Y1668054D01*
X2088708Y1667898*
X2088821Y1668054*
X2088708Y1668211*
X2089958Y1670398D02*
Y1670554D01*
X2090071Y1670867*
X2090185Y1671023*
X2090412Y1671179*
X2090867*
X2091094Y1671023*
X2091208Y1670867*
X2091321Y1670554*
Y1670242*
X2091208Y1669929*
X2090980Y1669461*
X2090980D02*
X2089844Y1667898D01*
X2091435*
X2092458Y1670086D02*
Y1667898D01*
Y1669461D02*
X2092799Y1669929D01*
X2093026Y1670086*
X2093026D02*
X2093367D01*
X2093367D02*
X2093594Y1669929D01*
X2093708Y1669461*
X2093708D02*
Y1667898D01*
Y1669461D02*
X2094049Y1669929D01*
X2094276Y1670086*
X2094276D02*
X2094617D01*
X2094617D02*
X2094844Y1669929D01*
X2094958Y1669461*
X2094958D02*
Y1667898D01*
X2095980Y1670086D02*
Y1667898D01*
Y1669461D02*
X2096321Y1669929D01*
X2096549Y1670086*
X2096549D02*
X2096889D01*
X2096889D02*
X2097117Y1669929D01*
X2097230Y1669461*
X2097230D02*
Y1667898D01*
Y1669461D02*
X2097571Y1669929D01*
X2097799Y1670086*
X2097799D02*
X2098139D01*
X2098139D02*
X2098367Y1669929D01*
X2098480Y1669461*
X2098480D02*
Y1667898D01*
G54D30*
X1981184Y1578383D03*
X1982424Y1583973D03*
X1985604Y1577693D03*
X2001824Y1577063D03*
X1999384Y1580223D03*
X2003294Y1582033D03*
X2044684Y1579953D03*
X2045654Y1583353D03*
X2045584Y1577133D03*
X2049214Y1580193D03*
X2063184Y1578103D03*
X2064774Y1583283D03*
X1980564Y1591773D03*
X1991884Y1592253D03*
X2001754Y1585833D03*
X1996614Y1588933D03*
X2001964Y1589213D03*
X2043084Y1586813D03*
X2053454Y1591703D03*
X2045274Y1589383D03*
X2056554Y1586943D03*
X2066214Y1591423D03*
X1980144Y1602053D03*
X2029124Y1599893D03*
X2038904Y1602363D03*
X2044354Y1600173D03*
X2066634Y1601363D03*
X1997034Y1609413D03*
X2014034Y1611783D03*
X2011554Y1609373D03*
X2017974Y1612683D03*
X2021004Y1609853D03*
X2017144Y1608933D03*
X2034044D03*
X2025754Y1609103D03*
X2028154Y1609263D03*
X2043014Y1612843D03*
X2039024Y1612683D03*
X2047204Y1610633D03*
X1980014Y1621033D03*
X2033304Y1621283D03*
X2033954Y1617283D03*
X2030534Y1618703D03*
X2042494Y1620083D03*
X2050624Y1618553D03*
X1997494Y1630713D03*
X2005124Y1627953D03*
X2033524Y1625553D03*
X2024854Y1626263D03*
X2041994Y1627953D03*
X2061734Y1631563D03*
X2065904Y1632873D03*
X1977364Y1634833D03*
X1993984Y1639603D03*
X2011284Y1638213D03*
X2014454Y1638253D03*
X2016434Y1634893D03*
X2030774Y1635253D03*
X2028324Y1636133D03*
X2041774Y1643323D03*
X2058834Y1638113D03*
X1978144Y1646433D03*
X1982394Y1649703D03*
X2038514Y1647393D03*
X2053344Y1650893D03*
X2047034Y1651743D03*
X2044494Y1646273D03*
X1979594Y1661623D03*
X1986554Y1657533D03*
X1989524Y1669323D03*
X1987504Y1670473D03*
X1987814Y1673043D03*
X1987254Y1667483D03*
X2002004Y1669763D03*
X2050004Y1667323D03*
X1980704Y1681983D03*
X1980634Y1692133D03*
X1979944Y1702203D03*
X2000004Y1699843D03*
X2007724Y1695933D03*
X2011144Y1695953D03*
X2006804Y1699913D03*
X2021104Y1695993D03*
X2015074Y1701863D03*
X2016104Y1695983D03*
X2024744Y1701743D03*
X2033504Y1701213D03*
X2026104Y1696043D03*
X2031164D03*
X2042614Y1702003D03*
X2043114Y1697853D03*
X2047104Y1701373D03*
X2046104Y1695863D03*
X2050004Y1694843D03*
Y1699843D03*
X1979254Y1710423D03*
X2001444Y1709843D03*
Y1704843D03*
X2010724Y1707103D03*
X2020384Y1707863D03*
X2030394Y1706973D03*
X2042754Y1712003D03*
X2047034Y1706483D03*
X2051034Y1709843D03*
Y1704843D03*
X2001444Y1719843D03*
Y1714843D03*
X2010244Y1715043D03*
X2011414Y1721943D03*
X2018314Y1714903D03*
X2019494Y1722083D03*
X2029014Y1714833D03*
X2029154Y1721183D03*
X2043094Y1722293D03*
X2046474Y1717393D03*
X2051034Y1719843D03*
Y1714843D03*
X1979804Y1731953D03*
X2001444Y1729843D03*
Y1724843D03*
X2011344Y1729743D03*
X2015954Y1733293D03*
X2024244Y1733163D03*
X2020874Y1729673D03*
X2029704Y1728913D03*
X2043404Y1733633D03*
X2047744Y1730403D03*
X2045894Y1725663D03*
X2051034Y1724843D03*
X1979874Y1740513D03*
X2001444Y1734843D03*
X2011694Y1737343D03*
X2013964Y1744313D03*
X2020114Y1737403D03*
X2024114Y1744173D03*
X2029704Y1737343D03*
X2032884Y1743963D03*
X2036674Y1738853D03*
X2040794Y1739843D03*
X2050834D03*
X2051034Y1734843D03*
X2008994Y1751833D03*
X2005904Y1745363D03*
X2018734Y1750243D03*
X2028184Y1749623D03*
X2042554Y1748693D03*
X2037434Y1749973D03*
X2050834Y1749843D03*
X2051044Y1744843D03*
X2045684Y1752963D03*
X2066164Y1747293D03*
X2066474Y1751383D03*
X1980424Y1759703D03*
X1993664Y1754803D03*
X2000504Y1760943D03*
X1995884Y1759643D03*
X1996124Y1754773D03*
X2013414Y1756043D03*
X2004514Y1756393D03*
X2008444Y1761083D03*
X2022254Y1755903D03*
X2016934Y1760803D03*
X2031224Y1755763D03*
X2025844Y1760733D03*
X2041854Y1755833D03*
X2044204Y1760733D03*
X2034464Y1760873D03*
X2046724Y1756563D03*
X2050904Y1759823D03*
X2067014Y1759943D03*
G54D31*
X1970031Y1763356D02*
X1976697D01*
Y1756476*
X1997397*
Y1663700*
X1984211*
Y1753950*
X1970031*
Y1763356*
Y1756179D02*
X1997397D01*
X1970031Y1755825D02*
X1997397D01*
X1970031Y1755470D02*
X1997397D01*
X1970031Y1755116D02*
X1997397D01*
X1970031Y1754762D02*
X1997397D01*
X1970031Y1754407D02*
X1997397D01*
X1970031Y1754053D02*
X1997397D01*
X1984211Y1753699D02*
X1997397D01*
X1984211Y1753344D02*
X1997397D01*
X1984211Y1752990D02*
X1997397D01*
X1984211Y1752636D02*
X1997397D01*
X1984211Y1752281D02*
X1997397D01*
X1984211Y1751927D02*
X1997397D01*
X1984211Y1751573D02*
X1997397D01*
X1984211Y1751218D02*
X1997397D01*
X1984211Y1750864D02*
X1997397D01*
X1984211Y1750510D02*
X1997397D01*
X1984211Y1750155D02*
X1997397D01*
X1984211Y1749801D02*
X1997397D01*
X1984211Y1749447D02*
X1997397D01*
X1984211Y1749092D02*
X1997397D01*
X1984211Y1748738D02*
X1997397D01*
X1984211Y1748384D02*
X1997397D01*
X1984211Y1748029D02*
X1997397D01*
X1984211Y1747675D02*
X1997397D01*
X1984211Y1747321D02*
X1997397D01*
X1984211Y1746966D02*
X1997397D01*
X1984211Y1746612D02*
X1997397D01*
X1984211Y1746258D02*
X1997397D01*
X1984211Y1745903D02*
X1997397D01*
X1984211Y1745549D02*
X1997397D01*
X1984211Y1745195D02*
X1997397D01*
X1984211Y1744840D02*
X1997397D01*
X1984211Y1744486D02*
X1997397D01*
X1984211Y1744132D02*
X1997397D01*
X1984211Y1743777D02*
X1997397D01*
X1984211Y1743423D02*
X1997397D01*
X1984211Y1743069D02*
X1997397D01*
X1984211Y1742714D02*
X1997397D01*
X1984211Y1742360D02*
X1997397D01*
X1984211Y1742006D02*
X1997397D01*
X1984211Y1741651D02*
X1997397D01*
X1984211Y1741297D02*
X1997397D01*
X1984211Y1740943D02*
X1997397D01*
X1984211Y1740588D02*
X1997397D01*
X1984211Y1740234D02*
X1997397D01*
X1984211Y1739880D02*
X1997397D01*
X1984211Y1739525D02*
X1997397D01*
X1984211Y1739171D02*
X1997397D01*
X1984211Y1738817D02*
X1997397D01*
X1984211Y1738462D02*
X1997397D01*
X1984211Y1738108D02*
X1997397D01*
X1984211Y1737754D02*
X1997397D01*
X1984211Y1737399D02*
X1997397D01*
X1984211Y1737045D02*
X1997397D01*
X1984211Y1736691D02*
X1997397D01*
X1984211Y1736336D02*
X1997397D01*
X1984211Y1735982D02*
X1997397D01*
X1984211Y1735628D02*
X1997397D01*
X1984211Y1735273D02*
X1997397D01*
X1984211Y1734919D02*
X1997397D01*
X1984211Y1734565D02*
X1997397D01*
X1984211Y1734210D02*
X1997397D01*
X1984211Y1733856D02*
X1997397D01*
X1984211Y1733502D02*
X1997397D01*
X1984211Y1733147D02*
X1997397D01*
X1984211Y1732793D02*
X1997397D01*
X1984211Y1732439D02*
X1997397D01*
X1984211Y1732084D02*
X1997397D01*
X1984211Y1731730D02*
X1997397D01*
X1984211Y1731376D02*
X1997397D01*
X1984211Y1731021D02*
X1997397D01*
X1984211Y1730667D02*
X1997397D01*
X1984211Y1730313D02*
X1997397D01*
X1984211Y1729958D02*
X1997397D01*
X1984211Y1729604D02*
X1997397D01*
X1984211Y1729250D02*
X1997397D01*
X1984211Y1728895D02*
X1997397D01*
X1984211Y1728541D02*
X1997397D01*
X1984211Y1728187D02*
X1997397D01*
X1984211Y1727832D02*
X1997397D01*
X1984211Y1727478D02*
X1997397D01*
X1984211Y1727124D02*
X1997397D01*
X1984211Y1726769D02*
X1997397D01*
X1984211Y1726415D02*
X1997397D01*
X1984211Y1726061D02*
X1997397D01*
X1984211Y1725706D02*
X1997397D01*
X1984211Y1725352D02*
X1997397D01*
X1984211Y1724998D02*
X1997397D01*
X1984211Y1724643D02*
X1997397D01*
X1984211Y1724289D02*
X1997397D01*
X1984211Y1723935D02*
X1997397D01*
X1984211Y1723580D02*
X1997397D01*
X1984211Y1723226D02*
X1997397D01*
X1984211Y1722872D02*
X1997397D01*
X1984211Y1722517D02*
X1997397D01*
X1984211Y1722163D02*
X1997397D01*
X1984211Y1721809D02*
X1997397D01*
X1984211Y1721454D02*
X1997397D01*
X1984211Y1721100D02*
X1997397D01*
X1984211Y1720746D02*
X1997397D01*
X1984211Y1720391D02*
X1997397D01*
X1984211Y1720037D02*
X1997397D01*
X1984211Y1719683D02*
X1997397D01*
X1984211Y1719328D02*
X1997397D01*
X1984211Y1718974D02*
X1997397D01*
X1984211Y1718620D02*
X1997397D01*
X1984211Y1718265D02*
X1997397D01*
X1984211Y1717911D02*
X1997397D01*
X1984211Y1717557D02*
X1997397D01*
X1984211Y1717202D02*
X1997397D01*
X1984211Y1716848D02*
X1997397D01*
X1984211Y1716494D02*
X1997397D01*
X1984211Y1716139D02*
X1997397D01*
X1984211Y1715785D02*
X1997397D01*
X1984211Y1715431D02*
X1997397D01*
X1984211Y1715076D02*
X1997397D01*
X1984211Y1714722D02*
X1997397D01*
X1984211Y1714368D02*
X1997397D01*
X1984211Y1714013D02*
X1997397D01*
X1984211Y1713659D02*
X1997397D01*
X1984211Y1713305D02*
X1997397D01*
X1984211Y1712951D02*
X1997397D01*
X1984211Y1712596D02*
X1997397D01*
X1984211Y1712242D02*
X1997397D01*
X1984211Y1711888D02*
X1997397D01*
X1984211Y1711533D02*
X1997397D01*
X1984211Y1711179D02*
X1997397D01*
X1984211Y1710825D02*
X1997397D01*
X1984211Y1710470D02*
X1997397D01*
X1984211Y1710116D02*
X1997397D01*
X1984211Y1709762D02*
X1997397D01*
X1984211Y1709407D02*
X1997397D01*
X1984211Y1709053D02*
X1997397D01*
X1984211Y1708699D02*
X1997397D01*
X1984211Y1708344D02*
X1997397D01*
X1984211Y1707990D02*
X1997397D01*
X1984211Y1707636D02*
X1997397D01*
X1984211Y1707281D02*
X1997397D01*
X1984211Y1706927D02*
X1997397D01*
X1984211Y1706573D02*
X1997397D01*
X1984211Y1706218D02*
X1997397D01*
X1984211Y1705864D02*
X1997397D01*
X1984211Y1705510D02*
X1997397D01*
X1984211Y1705155D02*
X1997397D01*
X1984211Y1704801D02*
X1997397D01*
X1984211Y1704447D02*
X1997397D01*
X1984211Y1704092D02*
X1997397D01*
X1984211Y1703738D02*
X1997397D01*
X1984211Y1703384D02*
X1997397D01*
X1984211Y1703029D02*
X1997397D01*
X1984211Y1702675D02*
X1997397D01*
X1984211Y1702321D02*
X1997397D01*
X1984211Y1701966D02*
X1997397D01*
X1984211Y1701612D02*
X1997397D01*
X1984211Y1701258D02*
X1997397D01*
X1984211Y1700903D02*
X1997397D01*
X1984211Y1700549D02*
X1997397D01*
X1984211Y1700195D02*
X1997397D01*
X1984211Y1699840D02*
X1997397D01*
X1984211Y1699486D02*
X1997397D01*
X1984211Y1699132D02*
X1997397D01*
X1984211Y1698777D02*
X1997397D01*
X1984211Y1698423D02*
X1997397D01*
X1984211Y1698069D02*
X1997397D01*
X1984211Y1697714D02*
X1997397D01*
X1984211Y1697360D02*
X1997397D01*
X1984211Y1697006D02*
X1997397D01*
X1984211Y1696651D02*
X1997397D01*
X1984211Y1696297D02*
X1997397D01*
X1984211Y1695943D02*
X1997397D01*
X1984211Y1695588D02*
X1997397D01*
X1984211Y1695234D02*
X1997397D01*
X1984211Y1694880D02*
X1997397D01*
X1984211Y1694525D02*
X1997397D01*
X1984211Y1694171D02*
X1997397D01*
X1984211Y1693817D02*
X1997397D01*
X1984211Y1693462D02*
X1997397D01*
X1984211Y1693108D02*
X1997397D01*
X1984211Y1692754D02*
X1997397D01*
X1984211Y1692399D02*
X1997397D01*
X1984211Y1692045D02*
X1997397D01*
X1984211Y1691691D02*
X1997397D01*
X1984211Y1691336D02*
X1997397D01*
X1984211Y1690982D02*
X1997397D01*
X1984211Y1690628D02*
X1997397D01*
X1984211Y1690273D02*
X1997397D01*
X1984211Y1689919D02*
X1997397D01*
X1984211Y1689565D02*
X1997397D01*
X1984211Y1689210D02*
X1997397D01*
X1984211Y1688856D02*
X1997397D01*
X1984211Y1688502D02*
X1997397D01*
X1984211Y1688147D02*
X1997397D01*
X1984211Y1687793D02*
X1997397D01*
X1984211Y1687439D02*
X1997397D01*
X1984211Y1687084D02*
X1997397D01*
X1984211Y1686730D02*
X1997397D01*
X1984211Y1686376D02*
X1997397D01*
X1984211Y1686021D02*
X1997397D01*
X1984211Y1685667D02*
X1997397D01*
X1984211Y1685313D02*
X1997397D01*
X1984211Y1684958D02*
X1997397D01*
X1984211Y1684604D02*
X1997397D01*
X1984211Y1684250D02*
X1997397D01*
X1984211Y1683895D02*
X1997397D01*
X1984211Y1683541D02*
X1997397D01*
X1984211Y1683187D02*
X1997397D01*
X1984211Y1682832D02*
X1997397D01*
X1984211Y1682478D02*
X1997397D01*
X1984211Y1682124D02*
X1997397D01*
X1984211Y1681769D02*
X1997397D01*
X1984211Y1681415D02*
X1997397D01*
X1984211Y1681061D02*
X1997397D01*
X1984211Y1680706D02*
X1997397D01*
X1984211Y1680352D02*
X1997397D01*
X1984211Y1679998D02*
X1997397D01*
X1984211Y1679643D02*
X1997397D01*
X1984211Y1679289D02*
X1997397D01*
X1984211Y1678935D02*
X1997397D01*
X1984211Y1678580D02*
X1997397D01*
X1984211Y1678226D02*
X1997397D01*
X1984211Y1677872D02*
X1997397D01*
X1984211Y1677517D02*
X1997397D01*
X1984211Y1677163D02*
X1997397D01*
X1984211Y1676809D02*
X1997397D01*
X1984211Y1676454D02*
X1997397D01*
X1984211Y1676100D02*
X1997397D01*
X1984211Y1675746D02*
X1997397D01*
X1984211Y1675391D02*
X1997397D01*
X1984211Y1675037D02*
X1997397D01*
X1984211Y1674683D02*
X1997397D01*
X1984211Y1674328D02*
X1997397D01*
X1984211Y1673974D02*
X1997397D01*
X1984211Y1673620D02*
X1997397D01*
X1984211Y1673265D02*
X1997397D01*
X1984211Y1672911D02*
X1997397D01*
X1984211Y1672557D02*
X1997397D01*
X1984211Y1672202D02*
X1997397D01*
X1984211Y1671848D02*
X1997397D01*
X1984211Y1671494D02*
X1997397D01*
X1984211Y1671139D02*
X1997397D01*
X1984211Y1670785D02*
X1997397D01*
X1984211Y1670431D02*
X1997397D01*
X1984211Y1670076D02*
X1997397D01*
X1984211Y1669722D02*
X1997397D01*
X1984211Y1669368D02*
X1997397D01*
X1984211Y1669013D02*
X1997397D01*
X1984211Y1668659D02*
X1997397D01*
X1984211Y1668305D02*
X1997397D01*
X1984211Y1667951D02*
X1997397D01*
X1984211Y1667596D02*
X1997397D01*
X1984211Y1667242D02*
X1997397D01*
X1984211Y1666888D02*
X1997397D01*
X1984211Y1666533D02*
X1997397D01*
X1984211Y1666179D02*
X1997397D01*
X1984211Y1665825D02*
X1997397D01*
X1984211Y1665470D02*
X1997397D01*
X1984211Y1665116D02*
X1997397D01*
X1984211Y1664762D02*
X1997397D01*
X1984211Y1664407D02*
X1997397D01*
X1984211Y1664053D02*
X1997397D01*
X1970031Y1763265D02*
X1976697D01*
X1970031Y1762911D02*
X1976697D01*
X1970031Y1762557D02*
X1976697D01*
X1970031Y1762202D02*
X1976697D01*
X1970031Y1761848D02*
X1976697D01*
X1970031Y1761494D02*
X1976697D01*
X1970031Y1761139D02*
X1976697D01*
X1970031Y1760785D02*
X1976697D01*
X1970031Y1760431D02*
X1976697D01*
X1970031Y1760076D02*
X1976697D01*
X1970031Y1759722D02*
X1976697D01*
X1970031Y1759368D02*
X1976697D01*
X1970031Y1759013D02*
X1976697D01*
X1970031Y1758659D02*
X1976697D01*
X1970031Y1758305D02*
X1976697D01*
X1970031Y1757951D02*
X1976697D01*
X1970031Y1757596D02*
X1976697D01*
X1970031Y1757242D02*
X1976697D01*
X1970031Y1756888D02*
X1976697D01*
X1970031Y1756533D02*
X1976697D01*
X2077154Y1579883D02*
G75*
G03X2077154I-3750J0D01*
G01Y1589883D02*
G03X2077154I-3750J0D01*
G01Y1599883D02*
G03X2077154I-3750J0D01*
G01Y1609883D02*
G03X2077154I-3750J0D01*
G01Y1619883D02*
G03X2077154I-3750J0D01*
G01Y1629883D02*
G03X2077154I-3750J0D01*
G01Y1639883D02*
G03X2077154I-3750J0D01*
G01Y1649883D02*
G03X2077154I-3750J0D01*
G01Y1659883D02*
G03X2077154I-3750J0D01*
G01Y1669883D02*
G03X2077154I-3750J0D01*
G01Y1679883D02*
G03X2077154I-3750J0D01*
G01Y1689883D02*
G03X2077154I-3750J0D01*
G01Y1709883D02*
G03X2077154I-3750J0D01*
G01Y1719883D02*
G03X2077154I-3750J0D01*
G01Y1729883D02*
G03X2077154I-3750J0D01*
G01Y1739883D02*
G03X2077154I-3750J0D01*
G01Y1749883D02*
G03X2077154I-3750J0D01*
G01X2063318Y1631563D02*
G03X2063318I-1584J0D01*
G01X2052208Y1618553D02*
G03X2052208I-1584J0D01*
G01X2054928Y1650893D02*
G03X2054928I-1584J0D01*
G01X2048788Y1610633D02*
G03X2048788I-1584J0D01*
G01X2044078Y1620083D02*
G03X2044078I-1584J0D01*
G01X2043578Y1627953D02*
G03X2043578I-1584J0D01*
G01X2046078Y1646273D02*
G03X2046078I-1584J0D01*
G01X2048618Y1651743D02*
G03X2048618I-1584J0D01*
G01X2051588Y1667323D02*
G03X2051588I-1584J0D01*
G01Y1694843D02*
G03X2051588I-1584J0D01*
G01Y1699843D02*
G03X2051588I-1584J0D01*
G01X2052618Y1704843D02*
G03X2052618I-1584J0D01*
G01Y1709843D02*
G03X2052618I-1584J0D01*
G01Y1714843D02*
G03X2052618I-1584J0D01*
G01Y1719843D02*
G03X2052618I-1584J0D01*
G01Y1724843D02*
G03X2052618I-1584J0D01*
G01Y1734843D02*
G03X2052618I-1584J0D01*
G01X2052418Y1739843D02*
G03X2052418I-1584J0D01*
G01X2052628Y1744843D02*
G03X2052628I-1584J0D01*
G01X2052418Y1749843D02*
G03X2052418I-1584J0D01*
G01X2047688Y1695863D02*
G03X2047688I-1584J0D01*
G01X2044698Y1697853D02*
G03X2044698I-1584J0D01*
G01X2042378Y1739843D02*
G03X2042378I-1584J0D01*
G01X2032748Y1696043D02*
G03X2032748I-1584J0D01*
G01X2035088Y1701213D02*
G03X2035088I-1584J0D01*
G01X2027688Y1696043D02*
G03X2027688I-1584J0D01*
G01X2022688Y1695993D02*
G03X2022688I-1584J0D01*
G01X2017688Y1695983D02*
G03X2017688I-1584J0D01*
G01X2012728Y1695953D02*
G03X2012728I-1584J0D01*
G01X2006708Y1627953D02*
G03X2006708I-1584J0D01*
G01X2009308Y1695933D02*
G03X2009308I-1584J0D01*
G01X2008388Y1699913D02*
G03X2008388I-1584J0D01*
G01X2007488Y1745363D02*
G03X2007488I-1584J0D01*
G01X1998198Y1588933D02*
G03X1998198I-1584J0D01*
G01X1998618Y1609413D02*
G03X1998618I-1584J0D01*
G01X1999078Y1630713D02*
G03X1999078I-1584J0D01*
G01X1983978Y1649703D02*
G03X1983978I-1584J0D01*
G01X1977154Y1579883D02*
G03X1977154I-3750J0D01*
G01Y1589883D02*
G03X1977154I-3750J0D01*
G01Y1599883D02*
G03X1977154I-3750J0D01*
G01Y1609883D02*
G03X1977154I-3750J0D01*
G01Y1619883D02*
G03X1977154I-3750J0D01*
G01Y1639883D02*
G03X1977154I-3750J0D01*
G01Y1649883D02*
G03X1977154I-3750J0D01*
G01Y1659883D02*
G03X1977154I-3750J0D01*
G01Y1669883D02*
G03X1977154I-3750J0D01*
G01Y1679883D02*
G03X1977154I-3750J0D01*
G01Y1689883D02*
G03X1977154I-3750J0D01*
G01Y1699883D02*
G03X1977154I-3750J0D01*
G01Y1709883D02*
G03X1977154I-3750J0D01*
G01Y1719883D02*
G03X1977154I-3750J0D01*
G01Y1729883D02*
G03X1977154I-3750J0D01*
G01Y1739883D02*
G03X1977154I-3750J0D01*
G01X2003028Y1704843D02*
G03X2003028I-1584J0D01*
G01Y1709843D02*
G03X2003028I-1584J0D01*
G01Y1714843D02*
G03X2003028I-1584J0D01*
G01Y1719843D02*
G03X2003028I-1584J0D01*
G01Y1724843D02*
G03X2003028I-1584J0D01*
G01Y1729843D02*
G03X2003028I-1584J0D01*
G01Y1734843D02*
G03X2003028I-1584J0D01*
G01X2077507Y1575718D02*
Y1763868D01*
G03X2077389Y1763986I-118J0*
G01X1978331*
G03X1978218Y1763833I-0J-118*
G01X1978291Y1763356D02*
G03X1978218Y1763833I-1594J0D01*
G01X1978291Y1763356D02*
Y1758188D01*
G03X1978409Y1758070I118J-0*
G01X1997397*
X1998991Y1756476D02*
G03X1997397Y1758070I-1594J0D01*
G01X1998991Y1756476D02*
Y1701291D01*
G03X1999171Y1701191I118J0*
G01Y1698495D02*
G03Y1701191I833J1348D01*
G01Y1698495D02*
G03X1998991Y1698395I-62J-100D01*
G01Y1663700*
X1997397Y1662106D02*
G03X1998991Y1663700I0J1594D01*
G01X1997397Y1662106D02*
X1984211D01*
X1982617Y1663700D02*
G03X1984211Y1662106I1594J-0D01*
G01X1982617Y1663700D02*
Y1752238D01*
G03X1982499Y1752356I-118J0*
G01X1976472*
G03X1976378Y1752166I0J-118*
G01X1970430D02*
G03X1976378I2974J-2283D01*
G01X1970430D02*
G03X1970336Y1752356I-94J72D01*
G01X1970031*
X1969461Y1752461D02*
G03X1970031Y1752356I570J1489D01*
G01X1969461Y1752461D02*
G03X1969301Y1752351I-42J-110D01*
G01Y1575718*
G03X1969419Y1575600I118J-0*
G01X2005589*
G03X2005707Y1575718I0J118*
G01Y1600453*
X2005904Y1600650D02*
G03X2005707Y1600453I0J-197D01*
G01X2005904Y1600650D02*
X2013054D01*
X2013251Y1600453D02*
G03X2013054Y1600650I-197J0D01*
G01X2013251Y1600453D02*
Y1593148D01*
G03X2013369Y1593030I118J-0*
G01X2032689*
G03X2032807Y1593148I0J118*
G01Y1600813*
X2033004Y1601010D02*
G03X2032807Y1600813I0J-197D01*
G01X2033004Y1601010D02*
X2037732D01*
G03X2037814Y1601214I0J118*
G01X2039994D02*
G03X2037814I-1090J1149D01*
G01X2039994D02*
G03X2040076Y1601010I82J-86D01*
G01X2041234*
X2041431Y1600813D02*
G03X2041234Y1601010I-197J0D01*
G01X2041431Y1600813D02*
Y1575718D01*
G03X2041549Y1575600I118J-0*
G01X2077389*
G03X2077507Y1575718I0J118*
G01X2077154Y1579883D02*
G03X2077154I-3750J0D01*
G01Y1589883D02*
G03X2077154I-3750J0D01*
G01Y1599883D02*
G03X2077154I-3750J0D01*
G01Y1609883D02*
G03X2077154I-3750J0D01*
G01Y1619883D02*
G03X2077154I-3750J0D01*
G01Y1629883D02*
G03X2077154I-3750J0D01*
G01Y1639883D02*
G03X2077154I-3750J0D01*
G01Y1649883D02*
G03X2077154I-3750J0D01*
G01Y1659883D02*
G03X2077154I-3750J0D01*
G01Y1669883D02*
G03X2077154I-3750J0D01*
G01Y1679883D02*
G03X2077154I-3750J0D01*
G01Y1689883D02*
G03X2077154I-3750J0D01*
G01Y1709883D02*
G03X2077154I-3750J0D01*
G01Y1719883D02*
G03X2077154I-3750J0D01*
G01Y1729883D02*
G03X2077154I-3750J0D01*
G01Y1739883D02*
G03X2077154I-3750J0D01*
G01Y1749883D02*
G03X2077154I-3750J0D01*
G01X2063318Y1631563D02*
G03X2063318I-1584J0D01*
G01X2052208Y1618553D02*
G03X2052208I-1584J0D01*
G01X2054928Y1650893D02*
G03X2054928I-1584J0D01*
G01X2048788Y1610633D02*
G03X2048788I-1584J0D01*
G01X2044078Y1620083D02*
G03X2044078I-1584J0D01*
G01X2043578Y1627953D02*
G03X2043578I-1584J0D01*
G01X2046078Y1646273D02*
G03X2046078I-1584J0D01*
G01X2048618Y1651743D02*
G03X2048618I-1584J0D01*
G01X2051588Y1667323D02*
G03X2051588I-1584J0D01*
G01Y1694843D02*
G03X2051588I-1584J0D01*
G01Y1699843D02*
G03X2051588I-1584J0D01*
G01X2052618Y1704843D02*
G03X2052618I-1584J0D01*
G01Y1709843D02*
G03X2052618I-1584J0D01*
G01Y1714843D02*
G03X2052618I-1584J0D01*
G01Y1719843D02*
G03X2052618I-1584J0D01*
G01Y1724843D02*
G03X2052618I-1584J0D01*
G01Y1734843D02*
G03X2052618I-1584J0D01*
G01X2052418Y1739843D02*
G03X2052418I-1584J0D01*
G01X2052628Y1744843D02*
G03X2052628I-1584J0D01*
G01X2052418Y1749843D02*
G03X2052418I-1584J0D01*
G01X2047688Y1695863D02*
G03X2047688I-1584J0D01*
G01X2044698Y1697853D02*
G03X2044698I-1584J0D01*
G01X2042378Y1739843D02*
G03X2042378I-1584J0D01*
G01X2027112Y1608070D02*
G03X2026963Y1610307I1042J1193D01*
G01X2027112Y1608070D02*
G03X2026945Y1608059I-78J-89D01*
G01X2026796Y1610296D02*
G03X2026945Y1608059I-1042J-1193D01*
G01X2026796Y1610296D02*
G03X2026963Y1610307I78J89D01*
G01X2029289Y1634701D02*
G03X2029979Y1636623I1485J552D01*
G01X2029289Y1634701D02*
G03X2029119Y1634763I-111J-41D01*
G01X2029809Y1636685D02*
G03X2029119Y1634763I-1485J-552D01*
G01X2029809Y1636685D02*
G03X2029979Y1636623I111J41D01*
G01X2032748Y1696043D02*
G03X2032748I-1584J0D01*
G01X2035088Y1701213D02*
G03X2035088I-1584J0D01*
G01X2027688Y1696043D02*
G03X2027688I-1584J0D01*
G01X2022688Y1695993D02*
G03X2022688I-1584J0D01*
G01X2017688Y1695983D02*
G03X2017688I-1584J0D01*
G01X2012728Y1695953D02*
G03X2012728I-1584J0D01*
G01X2006708Y1627953D02*
G03X2006708I-1584J0D01*
G01X2009308Y1695933D02*
G03X2009308I-1584J0D01*
G01X2008388Y1699913D02*
G03X2008388I-1584J0D01*
G01X2007488Y1745363D02*
G03X2007488I-1584J0D01*
G01X1998198Y1588933D02*
G03X1998198I-1584J0D01*
G01X1998618Y1609413D02*
G03X1998618I-1584J0D01*
G01X1999078Y1630713D02*
G03X1999078I-1584J0D01*
G01X1983978Y1649703D02*
G03X1983978I-1584J0D01*
G01X1977154Y1579883D02*
G03X1977154I-3750J0D01*
G01Y1589883D02*
G03X1977154I-3750J0D01*
G01Y1599883D02*
G03X1977154I-3750J0D01*
G01Y1609883D02*
G03X1977154I-3750J0D01*
G01Y1619883D02*
G03X1977154I-3750J0D01*
G01Y1639883D02*
G03X1977154I-3750J0D01*
G01Y1649883D02*
G03X1977154I-3750J0D01*
G01Y1659883D02*
G03X1977154I-3750J0D01*
G01Y1669883D02*
G03X1977154I-3750J0D01*
G01Y1679883D02*
G03X1977154I-3750J0D01*
G01Y1689883D02*
G03X1977154I-3750J0D01*
G01Y1699883D02*
G03X1977154I-3750J0D01*
G01Y1709883D02*
G03X1977154I-3750J0D01*
G01Y1719883D02*
G03X1977154I-3750J0D01*
G01Y1729883D02*
G03X1977154I-3750J0D01*
G01Y1739883D02*
G03X1977154I-3750J0D01*
G01X2003028Y1704843D02*
G03X2003028I-1584J0D01*
G01Y1709843D02*
G03X2003028I-1584J0D01*
G01Y1714843D02*
G03X2003028I-1584J0D01*
G01Y1719843D02*
G03X2003028I-1584J0D01*
G01Y1724843D02*
G03X2003028I-1584J0D01*
G01Y1729843D02*
G03X2003028I-1584J0D01*
G01Y1734843D02*
G03X2003028I-1584J0D01*
G01X1978259Y1763672D02*
X2077507D01*
X1978291Y1763318D02*
X2077507D01*
X1978291Y1762964D02*
X2077507D01*
X1978291Y1762609D02*
X2077507D01*
X1978291Y1762255D02*
X2077507D01*
X1978291Y1761901D02*
X2077507D01*
X1978291Y1761546D02*
X2077507D01*
X1978291Y1761192D02*
X2077507D01*
X1978291Y1760838D02*
X2077507D01*
X1978291Y1760483D02*
X2077507D01*
X1978291Y1760129D02*
X2077507D01*
X1978291Y1759775D02*
X2077507D01*
X1978291Y1759421D02*
X2077507D01*
X1978291Y1759066D02*
X2077507D01*
X1978291Y1758712D02*
X2077507D01*
X1978291Y1758358D02*
X2077507D01*
X1997853Y1758003D02*
X2077507D01*
X1998476Y1757649D02*
X2077507D01*
X1998765Y1757295D02*
X2077507D01*
X1998922Y1756940D02*
X2077507D01*
X1998987Y1756586D02*
X2077507D01*
X1998991Y1756232D02*
X2077507D01*
X1998991Y1755877D02*
X2077507D01*
X1998991Y1755523D02*
X2077507D01*
X1998991Y1755169D02*
X2077507D01*
X1998991Y1754814D02*
X2077507D01*
X1998991Y1754460D02*
X2077507D01*
X1998991Y1754106D02*
X2077507D01*
X1998991Y1753751D02*
X2077507D01*
X2074713Y1753397D02*
X2077507D01*
X2075423Y1753043D02*
X2077507D01*
X2075892Y1752688D02*
X2077507D01*
X2076242Y1752334D02*
X2077507D01*
X2076513Y1751980D02*
X2077507D01*
X2076724Y1751625D02*
X2077507D01*
X2076887Y1751271D02*
X2077507D01*
X2077008Y1750917D02*
X2077507D01*
X2077092Y1750562D02*
X2077507D01*
X2077140Y1750208D02*
X2077507D01*
X2077154Y1749854D02*
X2077507D01*
X2077134Y1749499D02*
X2077507D01*
X2077080Y1749145D02*
X2077507D01*
X2076991Y1748791D02*
X2077507D01*
X2076863Y1748436D02*
X2077507D01*
X2076693Y1748082D02*
X2077507D01*
X2076472Y1747728D02*
X2077507D01*
X2076190Y1747373D02*
X2077507D01*
X2075824Y1747019D02*
X2077507D01*
X2075328Y1746665D02*
X2077507D01*
X2074542Y1746310D02*
X2077507D01*
X2052172Y1745956D02*
X2077507D01*
X2052435Y1745602D02*
X2077507D01*
X2052576Y1745247D02*
X2077507D01*
X2052627Y1744893D02*
X2077507D01*
X2052599Y1744539D02*
X2077507D01*
X2052485Y1744184D02*
X2077507D01*
X2052262Y1743830D02*
X2077507D01*
X2074478Y1743476D02*
X2077507D01*
X2075294Y1743121D02*
X2077507D01*
X2075800Y1742767D02*
X2077507D01*
X2076172Y1742413D02*
X2077507D01*
X2076458Y1742058D02*
X2077507D01*
X2076682Y1741704D02*
X2077507D01*
X2076855Y1741350D02*
X2077507D01*
X2076985Y1740995D02*
X2077507D01*
X2077076Y1740641D02*
X2077507D01*
X2077132Y1740287D02*
X2077507D01*
X2077153Y1739932D02*
X2077507D01*
X2077141Y1739578D02*
X2077507D01*
X2077095Y1739224D02*
X2077507D01*
X2077014Y1738869D02*
X2077507D01*
X2076895Y1738515D02*
X2077507D01*
X2076735Y1738161D02*
X2077507D01*
X2076526Y1737806D02*
X2077507D01*
X2076259Y1737452D02*
X2077507D01*
X2075914Y1737098D02*
X2077507D01*
X2075454Y1736743D02*
X2077507D01*
X2074765Y1736389D02*
X2077507D01*
X2052078Y1736035D02*
X2077507D01*
X2052379Y1735680D02*
X2077507D01*
X2052543Y1735326D02*
X2077507D01*
X2052613Y1734972D02*
X2077507D01*
X2052602Y1734617D02*
X2077507D01*
X2052508Y1734263D02*
X2077507D01*
X2052313Y1733909D02*
X2077507D01*
X2074166Y1733554D02*
X2077507D01*
X2075152Y1733200D02*
X2077507D01*
X2075702Y1732846D02*
X2077507D01*
X2076098Y1732491D02*
X2077507D01*
X2076400Y1732137D02*
X2077507D01*
X2076637Y1731783D02*
X2077507D01*
X2076820Y1731428D02*
X2077507D01*
X2076959Y1731074D02*
X2077507D01*
X2077059Y1730720D02*
X2077507D01*
X2077122Y1730365D02*
X2077507D01*
X2077151Y1730011D02*
X2077507D01*
X2077147Y1729657D02*
X2077507D01*
X2077108Y1729302D02*
X2077507D01*
X2077035Y1728948D02*
X2077507D01*
X2076925Y1728594D02*
X2077507D01*
X2076774Y1728239D02*
X2077507D01*
X2076577Y1727885D02*
X2077507D01*
X2076324Y1727531D02*
X2077507D01*
X2075999Y1727176D02*
X2077507D01*
X2075570Y1726822D02*
X2077507D01*
X2074952Y1726468D02*
X2077507D01*
X2051981Y1726113D02*
X2077507D01*
X2052327Y1725759D02*
X2077507D01*
X2052515Y1725405D02*
X2077507D01*
X2052605Y1725050D02*
X2077507D01*
X2052611Y1724696D02*
X2077507D01*
X2052537Y1724342D02*
X2077507D01*
X2052367Y1723987D02*
X2077507D01*
X2052057Y1723633D02*
X2077507D01*
X2074994Y1723279D02*
X2077507D01*
X2075597Y1722924D02*
X2077507D01*
X2076019Y1722570D02*
X2077507D01*
X2076340Y1722216D02*
X2077507D01*
X2076589Y1721861D02*
X2077507D01*
X2076784Y1721507D02*
X2077507D01*
X2076932Y1721153D02*
X2077507D01*
X2077040Y1720798D02*
X2077507D01*
X2077111Y1720444D02*
X2077507D01*
X2077148Y1720090D02*
X2077507D01*
X2077151Y1719735D02*
X2077507D01*
X2077120Y1719381D02*
X2077507D01*
X2077055Y1719027D02*
X2077507D01*
X2076953Y1718672D02*
X2077507D01*
X2076811Y1718318D02*
X2077507D01*
X2076625Y1717964D02*
X2077507D01*
X2076386Y1717609D02*
X2077507D01*
X2076079Y1717255D02*
X2077507D01*
X2075677Y1716901D02*
X2077507D01*
X2075115Y1716546D02*
X2077507D01*
X2074065Y1716192D02*
X2077507D01*
X2052267Y1715838D02*
X2077507D01*
X2052483Y1715483D02*
X2077507D01*
X2052592Y1715129D02*
X2077507D01*
X2052617Y1714775D02*
X2077507D01*
X2052561Y1714421D02*
X2077507D01*
X2052415Y1714066D02*
X2077507D01*
X2052143Y1713712D02*
X2077507D01*
X2074814Y1713358D02*
X2077507D01*
X2075483Y1713003D02*
X2077507D01*
X2075936Y1712649D02*
X2077507D01*
X2076275Y1712295D02*
X2077507D01*
X2076539Y1711940D02*
X2077507D01*
X2076745Y1711586D02*
X2077507D01*
X2076903Y1711232D02*
X2077507D01*
X2077019Y1710877D02*
X2077507D01*
X2077099Y1710523D02*
X2077507D01*
X2077143Y1710169D02*
X2077507D01*
X2077153Y1709814D02*
X2077507D01*
X2077130Y1709460D02*
X2077507D01*
X2077072Y1709106D02*
X2077507D01*
X2076979Y1708751D02*
X2077507D01*
X2076847Y1708397D02*
X2077507D01*
X2076671Y1708043D02*
X2077507D01*
X2076444Y1707688D02*
X2077507D01*
X2076154Y1707334D02*
X2077507D01*
X2075777Y1706980D02*
X2077507D01*
X2075261Y1706625D02*
X2077507D01*
X2074410Y1706271D02*
X2077507D01*
X2052199Y1705917D02*
X2077507D01*
X2052446Y1705562D02*
X2077507D01*
X2052576Y1705208D02*
X2077507D01*
X2052618Y1704854D02*
X2077507D01*
X2052581Y1704499D02*
X2077507D01*
X2052456Y1704145D02*
X2077507D01*
X2052218Y1703791D02*
X2077507D01*
X2051763Y1703436D02*
X2077507D01*
X1998991Y1703082D02*
X2077507D01*
X2033969Y1702728D02*
X2077507D01*
X2034583Y1702373D02*
X2077507D01*
X2034868Y1702019D02*
X2077507D01*
X2035023Y1701665D02*
X2077507D01*
X2050602Y1701310D02*
X2077507D01*
X2051132Y1700956D02*
X2077507D01*
X2051395Y1700602D02*
X2077507D01*
X2051536Y1700247D02*
X2077507D01*
X2051587Y1699893D02*
X2077507D01*
X2051559Y1699539D02*
X2077507D01*
X2051445Y1699184D02*
X2077507D01*
X2051222Y1698830D02*
X2077507D01*
X2050804Y1698476D02*
X2077507D01*
X2044675Y1698121D02*
X2077507D01*
X2044696Y1697767D02*
X2077507D01*
X2046433Y1697413D02*
X2077507D01*
X2047144Y1697058D02*
X2077507D01*
X2047447Y1696704D02*
X2077507D01*
X2050494Y1696350D02*
X2077507D01*
X2051091Y1695995D02*
X2077507D01*
X2051373Y1695641D02*
X2077507D01*
X2051525Y1695287D02*
X2077507D01*
X2051586Y1694932D02*
X2077507D01*
X2051566Y1694578D02*
X2077507D01*
X2051462Y1694224D02*
X2077507D01*
X2051254Y1693869D02*
X2077507D01*
X2074336Y1693515D02*
X2077507D01*
X2075225Y1693161D02*
X2077507D01*
X2075752Y1692806D02*
X2077507D01*
X2076135Y1692452D02*
X2077507D01*
X2076430Y1692098D02*
X2077507D01*
X2076660Y1691743D02*
X2077507D01*
X2076838Y1691389D02*
X2077507D01*
X2076972Y1691035D02*
X2077507D01*
X2077068Y1690680D02*
X2077507D01*
X2077127Y1690326D02*
X2077507D01*
X2077153Y1689972D02*
X2077507D01*
X2077144Y1689617D02*
X2077507D01*
X2077102Y1689263D02*
X2077507D01*
X2077025Y1688909D02*
X2077507D01*
X2076910Y1688554D02*
X2077507D01*
X2076755Y1688200D02*
X2077507D01*
X2076552Y1687846D02*
X2077507D01*
X2076292Y1687491D02*
X2077507D01*
X2075957Y1687137D02*
X2077507D01*
X2075513Y1686783D02*
X2077507D01*
X2074862Y1686428D02*
X2077507D01*
X1998991Y1686074D02*
X2077507D01*
X1998991Y1685720D02*
X2077507D01*
X1998991Y1685365D02*
X2077507D01*
X1998991Y1685011D02*
X2077507D01*
X1998991Y1684657D02*
X2077507D01*
X1998991Y1684302D02*
X2077507D01*
X1998991Y1683948D02*
X2077507D01*
X2073943Y1683594D02*
X2077507D01*
X2075076Y1683239D02*
X2077507D01*
X2075651Y1682885D02*
X2077507D01*
X2076059Y1682531D02*
X2077507D01*
X2076370Y1682176D02*
X2077507D01*
X2076613Y1681822D02*
X2077507D01*
X2076802Y1681468D02*
X2077507D01*
X2076946Y1681113D02*
X2077507D01*
X2077050Y1680759D02*
X2077507D01*
X2077117Y1680405D02*
X2077507D01*
X2077150Y1680050D02*
X2077507D01*
X2077149Y1679696D02*
X2077507D01*
X2077114Y1679342D02*
X2077507D01*
X2077045Y1678987D02*
X2077507D01*
X2076939Y1678633D02*
X2077507D01*
X2076793Y1678279D02*
X2077507D01*
X2076601Y1677924D02*
X2077507D01*
X2076355Y1677570D02*
X2077507D01*
X2076039Y1677216D02*
X2077507D01*
X2075624Y1676861D02*
X2077507D01*
X2075036Y1676507D02*
X2077507D01*
X2073785Y1676153D02*
X2077507D01*
X1998991Y1675798D02*
X2077507D01*
X1998991Y1675444D02*
X2077507D01*
X1998991Y1675090D02*
X2077507D01*
X1998991Y1674735D02*
X2077507D01*
X1998991Y1674381D02*
X2077507D01*
X1998991Y1674027D02*
X2077507D01*
X1998991Y1673672D02*
X2077507D01*
X2074907Y1673318D02*
X2077507D01*
X2075541Y1672964D02*
X2077507D01*
X2075978Y1672609D02*
X2077507D01*
X2076308Y1672255D02*
X2077507D01*
X2076564Y1671901D02*
X2077507D01*
X2076764Y1671546D02*
X2077507D01*
X2076918Y1671192D02*
X2077507D01*
X2077030Y1670838D02*
X2077507D01*
X2077105Y1670483D02*
X2077507D01*
X2077146Y1670129D02*
X2077507D01*
X2077152Y1669775D02*
X2077507D01*
X2077125Y1669421D02*
X2077507D01*
X2077064Y1669066D02*
X2077507D01*
X2076966Y1668712D02*
X2077507D01*
X2076829Y1668358D02*
X2077507D01*
X2076648Y1668003D02*
X2077507D01*
X2076415Y1667649D02*
X2077507D01*
X2076117Y1667295D02*
X2077507D01*
X2075728Y1666940D02*
X2077507D01*
X2075190Y1666586D02*
X2077507D01*
X2074256Y1666232D02*
X2077507D01*
X2050652Y1665877D02*
X2077507D01*
X1998991Y1665523D02*
X2077507D01*
X1998991Y1665169D02*
X2077507D01*
X1998991Y1664814D02*
X2077507D01*
X1998991Y1664460D02*
X2077507D01*
X1998991Y1664106D02*
X2077507D01*
X1998991Y1663751D02*
X2077507D01*
X2074713Y1663397D02*
X2077507D01*
X2075423Y1663043D02*
X2077507D01*
X2075892Y1662688D02*
X2077507D01*
X2076242Y1662334D02*
X2077507D01*
X2076513Y1661980D02*
X2077507D01*
X2076724Y1661625D02*
X2077507D01*
X2076887Y1661271D02*
X2077507D01*
X2077008Y1660917D02*
X2077507D01*
X2077092Y1660562D02*
X2077507D01*
X2077140Y1660208D02*
X2077507D01*
X2077154Y1659854D02*
X2077507D01*
X2077134Y1659499D02*
X2077507D01*
X2077080Y1659145D02*
X2077507D01*
X2076991Y1658791D02*
X2077507D01*
X2076863Y1658436D02*
X2077507D01*
X2076693Y1658082D02*
X2077507D01*
X2076472Y1657728D02*
X2077507D01*
X2076190Y1657373D02*
X2077507D01*
X2075824Y1657019D02*
X2077507D01*
X2075328Y1656665D02*
X2077507D01*
X2074542Y1656310D02*
X2077507D01*
X1969301Y1655956D02*
X2077507D01*
X1969301Y1655602D02*
X2077507D01*
X1969301Y1655247D02*
X2077507D01*
X1969301Y1654893D02*
X2077507D01*
X1969301Y1654539D02*
X2077507D01*
X1969301Y1654184D02*
X2077507D01*
X1969301Y1653830D02*
X2077507D01*
X2074478Y1653476D02*
X2077507D01*
X2075294Y1653121D02*
X2077507D01*
X2075800Y1652767D02*
X2077507D01*
X2076172Y1652413D02*
X2077507D01*
X2076458Y1652058D02*
X2077507D01*
X2076682Y1651704D02*
X2077507D01*
X2076855Y1651350D02*
X2077507D01*
X2076985Y1650995D02*
X2077507D01*
X2077076Y1650641D02*
X2077507D01*
X2077132Y1650287D02*
X2077507D01*
X2077153Y1649932D02*
X2077507D01*
X2077141Y1649578D02*
X2077507D01*
X2077095Y1649224D02*
X2077507D01*
X2077014Y1648869D02*
X2077507D01*
X2076895Y1648515D02*
X2077507D01*
X2076735Y1648161D02*
X2077507D01*
X2076526Y1647806D02*
X2077507D01*
X2076259Y1647452D02*
X2077507D01*
X2075914Y1647098D02*
X2077507D01*
X2075454Y1646743D02*
X2077507D01*
X2074765Y1646389D02*
X2077507D01*
X2046060Y1646035D02*
X2077507D01*
X2045963Y1645680D02*
X2077507D01*
X2045764Y1645326D02*
X2077507D01*
X2045398Y1644972D02*
X2077507D01*
X1969301Y1644617D02*
X2077507D01*
X1969301Y1644263D02*
X2077507D01*
X1969301Y1643909D02*
X2077507D01*
X2074166Y1643554D02*
X2077507D01*
X2075152Y1643200D02*
X2077507D01*
X2075702Y1642846D02*
X2077507D01*
X2076098Y1642491D02*
X2077507D01*
X2076400Y1642137D02*
X2077507D01*
X2076637Y1641783D02*
X2077507D01*
X2076820Y1641428D02*
X2077507D01*
X2076959Y1641074D02*
X2077507D01*
X2077059Y1640720D02*
X2077507D01*
X2077122Y1640365D02*
X2077507D01*
X2077151Y1640011D02*
X2077507D01*
X2077147Y1639657D02*
X2077507D01*
X2077108Y1639302D02*
X2077507D01*
X2077035Y1638948D02*
X2077507D01*
X2076925Y1638594D02*
X2077507D01*
X2076774Y1638239D02*
X2077507D01*
X2076577Y1637885D02*
X2077507D01*
X2076324Y1637531D02*
X2077507D01*
X2075999Y1637176D02*
X2077507D01*
X2075570Y1636822D02*
X2077507D01*
X2074952Y1636468D02*
X2077507D01*
X2032104Y1636113D02*
X2077507D01*
X2032275Y1635759D02*
X2077507D01*
X2032351Y1635405D02*
X2077507D01*
X2032345Y1635050D02*
X2077507D01*
X2032257Y1634696D02*
X2077507D01*
X2032070Y1634342D02*
X2077507D01*
X2031727Y1633987D02*
X2077507D01*
X1969301Y1633633D02*
X2077507D01*
X2074994Y1633279D02*
X2077507D01*
X2075597Y1632924D02*
X2077507D01*
X2076019Y1632570D02*
X2077507D01*
X2076340Y1632216D02*
X2077507D01*
X2076589Y1631861D02*
X2077507D01*
X2076784Y1631507D02*
X2077507D01*
X2076932Y1631153D02*
X2077507D01*
X2077040Y1630798D02*
X2077507D01*
X2077111Y1630444D02*
X2077507D01*
X2077148Y1630090D02*
X2077507D01*
X2077151Y1629735D02*
X2077507D01*
X2077120Y1629381D02*
X2077507D01*
X2077055Y1629027D02*
X2077507D01*
X2076953Y1628672D02*
X2077507D01*
X2076811Y1628318D02*
X2077507D01*
X2076625Y1627964D02*
X2077507D01*
X2076386Y1627609D02*
X2077507D01*
X2076079Y1627255D02*
X2077507D01*
X2075677Y1626901D02*
X2077507D01*
X2075115Y1626546D02*
X2077507D01*
X2074065Y1626192D02*
X2077507D01*
X1969301Y1625838D02*
X2077507D01*
X1969301Y1625483D02*
X2077507D01*
X1969301Y1625129D02*
X2077507D01*
X1969301Y1624775D02*
X2077507D01*
X1969301Y1624421D02*
X2077507D01*
X1969301Y1624066D02*
X2077507D01*
X1969301Y1623712D02*
X2077507D01*
X2074814Y1623358D02*
X2077507D01*
X2075483Y1623003D02*
X2077507D01*
X2075936Y1622649D02*
X2077507D01*
X2076275Y1622295D02*
X2077507D01*
X2076539Y1621940D02*
X2077507D01*
X2076745Y1621586D02*
X2077507D01*
X2076903Y1621232D02*
X2077507D01*
X2077019Y1620877D02*
X2077507D01*
X2077099Y1620523D02*
X2077507D01*
X2077143Y1620169D02*
X2077507D01*
X2077153Y1619814D02*
X2077507D01*
X2077130Y1619460D02*
X2077507D01*
X2077072Y1619106D02*
X2077507D01*
X2076979Y1618751D02*
X2077507D01*
X2076847Y1618397D02*
X2077507D01*
X2076671Y1618043D02*
X2077507D01*
X2076444Y1617688D02*
X2077507D01*
X2076154Y1617334D02*
X2077507D01*
X2075777Y1616980D02*
X2077507D01*
X2075261Y1616625D02*
X2077507D01*
X2074410Y1616271D02*
X2077507D01*
X1969301Y1615917D02*
X2077507D01*
X1969301Y1615562D02*
X2077507D01*
X1969301Y1615208D02*
X2077507D01*
X1969301Y1614854D02*
X2077507D01*
X1969301Y1614499D02*
X2077507D01*
X1969301Y1614145D02*
X2077507D01*
X1969301Y1613791D02*
X2077507D01*
X2074602Y1613436D02*
X2077507D01*
X2075360Y1613082D02*
X2077507D01*
X2075847Y1612728D02*
X2077507D01*
X2076207Y1612373D02*
X2077507D01*
X2076486Y1612019D02*
X2077507D01*
X2076703Y1611665D02*
X2077507D01*
X2076871Y1611310D02*
X2077507D01*
X2076997Y1610956D02*
X2077507D01*
X2077084Y1610602D02*
X2077507D01*
X2077136Y1610247D02*
X2077507D01*
X2077154Y1609893D02*
X2077507D01*
X2077138Y1609539D02*
X2077507D01*
X2077088Y1609184D02*
X2077507D01*
X2077003Y1608830D02*
X2077507D01*
X2076879Y1608476D02*
X2077507D01*
X2076714Y1608121D02*
X2077507D01*
X2076499Y1607767D02*
X2077507D01*
X2076225Y1607413D02*
X2077507D01*
X2075870Y1607058D02*
X2077507D01*
X2075392Y1606704D02*
X2077507D01*
X2074659Y1606350D02*
X2077507D01*
X1969301Y1605995D02*
X2077507D01*
X1969301Y1605641D02*
X2077507D01*
X1969301Y1605287D02*
X2077507D01*
X1969301Y1604932D02*
X2077507D01*
X1969301Y1604578D02*
X2077507D01*
X1969301Y1604224D02*
X2077507D01*
X2039395Y1603869D02*
X2077507D01*
X2074336Y1603515D02*
X2077507D01*
X2075225Y1603161D02*
X2077507D01*
X2075752Y1602806D02*
X2077507D01*
X2076135Y1602452D02*
X2077507D01*
X2076430Y1602098D02*
X2077507D01*
X2076660Y1601743D02*
X2077507D01*
X2076838Y1601389D02*
X2077507D01*
X2076972Y1601035D02*
X2077507D01*
X2077068Y1600680D02*
X2077507D01*
X2077127Y1600326D02*
X2077507D01*
X2077153Y1599972D02*
X2077507D01*
X2077144Y1599617D02*
X2077507D01*
X2077102Y1599263D02*
X2077507D01*
X2077025Y1598909D02*
X2077507D01*
X2076910Y1598554D02*
X2077507D01*
X2076755Y1598200D02*
X2077507D01*
X2076552Y1597846D02*
X2077507D01*
X2076292Y1597491D02*
X2077507D01*
X2075957Y1597137D02*
X2077507D01*
X2075513Y1596783D02*
X2077507D01*
X2074862Y1596428D02*
X2077507D01*
X2041431Y1596074D02*
X2077507D01*
X2041431Y1595720D02*
X2077507D01*
X2041431Y1595365D02*
X2077507D01*
X2041431Y1595011D02*
X2077507D01*
X2041431Y1594657D02*
X2077507D01*
X2041431Y1594302D02*
X2077507D01*
X2041431Y1593948D02*
X2077507D01*
X2073943Y1593594D02*
X2077507D01*
X2075076Y1593239D02*
X2077507D01*
X2075651Y1592885D02*
X2077507D01*
X2076059Y1592531D02*
X2077507D01*
X2076370Y1592176D02*
X2077507D01*
X2076613Y1591822D02*
X2077507D01*
X2076802Y1591468D02*
X2077507D01*
X2076946Y1591113D02*
X2077507D01*
X2077050Y1590759D02*
X2077507D01*
X2077117Y1590405D02*
X2077507D01*
X2077150Y1590050D02*
X2077507D01*
X2077149Y1589696D02*
X2077507D01*
X2077114Y1589342D02*
X2077507D01*
X2077045Y1588987D02*
X2077507D01*
X2076939Y1588633D02*
X2077507D01*
X2076793Y1588279D02*
X2077507D01*
X2076601Y1587924D02*
X2077507D01*
X2076355Y1587570D02*
X2077507D01*
X2076039Y1587216D02*
X2077507D01*
X2075624Y1586861D02*
X2077507D01*
X2075036Y1586507D02*
X2077507D01*
X2073785Y1586153D02*
X2077507D01*
X2041431Y1585798D02*
X2077507D01*
X2041431Y1585444D02*
X2077507D01*
X2041431Y1585090D02*
X2077507D01*
X2041431Y1584735D02*
X2077507D01*
X2041431Y1584381D02*
X2077507D01*
X2041431Y1584027D02*
X2077507D01*
X2041431Y1583672D02*
X2077507D01*
X2074907Y1583318D02*
X2077507D01*
X2075541Y1582964D02*
X2077507D01*
X2075978Y1582609D02*
X2077507D01*
X2076308Y1582255D02*
X2077507D01*
X2076564Y1581901D02*
X2077507D01*
X2076764Y1581546D02*
X2077507D01*
X2076918Y1581192D02*
X2077507D01*
X2077030Y1580838D02*
X2077507D01*
X2077105Y1580483D02*
X2077507D01*
X2077146Y1580129D02*
X2077507D01*
X2077152Y1579775D02*
X2077507D01*
X2077125Y1579421D02*
X2077507D01*
X2077064Y1579066D02*
X2077507D01*
X2076966Y1578712D02*
X2077507D01*
X2076829Y1578358D02*
X2077507D01*
X2076648Y1578003D02*
X2077507D01*
X2076415Y1577649D02*
X2077507D01*
X2076117Y1577295D02*
X2077507D01*
X2075728Y1576940D02*
X2077507D01*
X2075190Y1576586D02*
X2077507D01*
X2074256Y1576232D02*
X2077507D01*
X2041431Y1575877D02*
X2077507D01*
X1998991Y1676153D02*
X2073023D01*
X2041431Y1586153D02*
X2073023D01*
X1998991Y1683594D02*
X2072865D01*
X2041431Y1593594D02*
X2072865D01*
X2051864Y1716192D02*
X2072743D01*
X1969301Y1626192D02*
X2072743D01*
X2051956Y1733554D02*
X2072642D01*
X1974166Y1643554D02*
X2072642D01*
X2051152Y1666232D02*
X2072552D01*
X2041431Y1576232D02*
X2072552D01*
X2050868Y1693515D02*
X2072472D01*
X2039992Y1603515D02*
X2072472D01*
X2051720Y1706271D02*
X2072398D01*
X1974410Y1616271D02*
X2072398D01*
X2051844Y1743476D02*
X2072330D01*
X1974478Y1653476D02*
X2072330D01*
X2051642Y1746310D02*
X2072266D01*
X1974542Y1656310D02*
X2072266D01*
X1974602Y1613436D02*
X2072206D01*
X1974659Y1606350D02*
X2072149D01*
X1998991Y1753397D02*
X2072095D01*
X1998962Y1663397D02*
X2072095D01*
X2051380Y1736389D02*
X2072043D01*
X2046074Y1646389D02*
X2072043D01*
X2051585Y1713358D02*
X2071994D01*
X1974814Y1623358D02*
X2071994D01*
X1998991Y1686428D02*
X2071946D01*
X2041431Y1596428D02*
X2071946D01*
X1998991Y1673318D02*
X2071901D01*
X2041431Y1583318D02*
X2071901D01*
X1998991Y1726468D02*
X2071856D01*
X2031791Y1636468D02*
X2071856D01*
X2051285Y1723279D02*
X2071814D01*
X1969301Y1633279D02*
X2071814D01*
X1998991Y1676507D02*
X2071772D01*
X2041431Y1586507D02*
X2071772D01*
X1998991Y1683239D02*
X2071732D01*
X2041431Y1593239D02*
X2071732D01*
X1998991Y1716546D02*
X2071693D01*
X2042723Y1626546D02*
X2071693D01*
X1998991Y1733200D02*
X2071656D01*
X1975152Y1643200D02*
X2071656D01*
X2051406Y1666586D02*
X2071618D01*
X2041431Y1576586D02*
X2071618D01*
X1998991Y1693161D02*
X2071583D01*
X2040273Y1603161D02*
X2071583D01*
X1998991Y1706625D02*
X2071547D01*
X1975261Y1616625D02*
X2071547D01*
X1998991Y1743121D02*
X2071514D01*
X2047815Y1653121D02*
X2071514D01*
X2006807Y1746665D02*
X2071480D01*
X1975328Y1656665D02*
X2071480D01*
X1975360Y1613082D02*
X2071448D01*
X1975392Y1606704D02*
X2071416D01*
X1998991Y1753043D02*
X2071385D01*
X1998849Y1663043D02*
X2071385D01*
X1998991Y1736743D02*
X2071354D01*
X2046007Y1646743D02*
X2071354D01*
X1998991Y1713003D02*
X2071325D01*
X1975483Y1623003D02*
X2071325D01*
X1998991Y1686783D02*
X2071295D01*
X2041431Y1596783D02*
X2071295D01*
X1998991Y1672964D02*
X2071267D01*
X2041431Y1582964D02*
X2071267D01*
X1998991Y1726822D02*
X2071238D01*
X2030993Y1636822D02*
X2071238D01*
X1998991Y1722924D02*
X2071211D01*
X2062544Y1632924D02*
X2071211D01*
X1998991Y1676861D02*
X2071184D01*
X2041431Y1586861D02*
X2071184D01*
X1998991Y1682885D02*
X2071157D01*
X2041431Y1592885D02*
X2071157D01*
X1998991Y1716901D02*
X2071131D01*
X2043178Y1626901D02*
X2071131D01*
X1998991Y1732846D02*
X2071106D01*
X1975702Y1642846D02*
X2071106D01*
X2051541Y1666940D02*
X2071080D01*
X2041431Y1576940D02*
X2071080D01*
X1998991Y1692806D02*
X2071056D01*
X2040425Y1602806D02*
X2071056D01*
X1998991Y1706980D02*
X2071031D01*
X2050809Y1616980D02*
X2071031D01*
X1998991Y1742767D02*
X2071008D01*
X2048243Y1652767D02*
X2071008D01*
X1998991Y1747019D02*
X2070984D01*
X1975824Y1657019D02*
X2070984D01*
X1975847Y1612728D02*
X2070961D01*
X1975870Y1607058D02*
X2070938D01*
X1998991Y1752688D02*
X2070916D01*
X1998629Y1662688D02*
X2070916D01*
X1998991Y1737098D02*
X2070894D01*
X2045847Y1647098D02*
X2070894D01*
X1998991Y1712649D02*
X2070872D01*
X1975936Y1622649D02*
X2070872D01*
X1998991Y1687137D02*
X2070851D01*
X2041431Y1597137D02*
X2070851D01*
X1998991Y1672609D02*
X2070830D01*
X2041431Y1582609D02*
X2070830D01*
X1998991Y1727176D02*
X2070809D01*
X2029516Y1637176D02*
X2070809D01*
X1998991Y1722570D02*
X2070789D01*
X2062957Y1632570D02*
X2070789D01*
X1998991Y1677216D02*
X2070769D01*
X2041431Y1587216D02*
X2070769D01*
X1998991Y1682531D02*
X2070749D01*
X2041431Y1592531D02*
X2070749D01*
X1998991Y1717255D02*
X2070729D01*
X2043416Y1627255D02*
X2070729D01*
X1998991Y1732491D02*
X2070710D01*
X1976098Y1642491D02*
X2070710D01*
X2051588Y1667295D02*
X2070691D01*
X2041431Y1577295D02*
X2070691D01*
X1998991Y1692452D02*
X2070673D01*
X2040486Y1602452D02*
X2070673D01*
X1998991Y1707334D02*
X2070654D01*
X2051636Y1617334D02*
X2070654D01*
X1998991Y1742413D02*
X2070636D01*
X2053792Y1652413D02*
X2070636D01*
X1998991Y1747373D02*
X2070618D01*
X1976190Y1657373D02*
X2070618D01*
X1976207Y1612373D02*
X2070601D01*
X1976225Y1607413D02*
X2070583D01*
X1998991Y1752334D02*
X2070566D01*
X1998218Y1662334D02*
X2070566D01*
X1998991Y1737452D02*
X2070549D01*
X2045552Y1647452D02*
X2070549D01*
X1998991Y1712295D02*
X2070533D01*
X1976275Y1622295D02*
X2070533D01*
X1998991Y1687491D02*
X2070516D01*
X2041431Y1597491D02*
X2070516D01*
X1998991Y1672255D02*
X2070500D01*
X2041431Y1582255D02*
X2070500D01*
X1998991Y1727531D02*
X2070484D01*
X2029070Y1637531D02*
X2070484D01*
X1998991Y1722216D02*
X2070468D01*
X2063178Y1632216D02*
X2070468D01*
X1998991Y1677570D02*
X2070453D01*
X2041431Y1587570D02*
X2070453D01*
X1998991Y1682176D02*
X2070438D01*
X2041431Y1592176D02*
X2070438D01*
X1998991Y1717609D02*
X2070422D01*
X2043541Y1627609D02*
X2070422D01*
X1998991Y1732137D02*
X2070408D01*
X1976400Y1642137D02*
X2070408D01*
X2051554Y1667649D02*
X2070393D01*
X2041431Y1577649D02*
X2070393D01*
X1998991Y1692098D02*
X2070378D01*
X2040466Y1602098D02*
X2070378D01*
X1998991Y1707688D02*
X2070364D01*
X2051951Y1617688D02*
X2070364D01*
X1998991Y1742058D02*
X2070350D01*
X2054417Y1652058D02*
X2070350D01*
X1998991Y1747728D02*
X2070336D01*
X1976472Y1657728D02*
X2070336D01*
X2047972Y1612019D02*
X2070322D01*
X2028675Y1607767D02*
X2070309D01*
X1998991Y1751980D02*
X2070295D01*
X1976513Y1661980D02*
X2070295D01*
X1998991Y1737806D02*
X2070282D01*
X2044893Y1647806D02*
X2070282D01*
X1998991Y1711940D02*
X2070269D01*
X1976539Y1621940D02*
X2070269D01*
X1998991Y1687846D02*
X2070256D01*
X2041431Y1597846D02*
X2070256D01*
X1998991Y1671901D02*
X2070244D01*
X2041431Y1581901D02*
X2070244D01*
X1998991Y1727885D02*
X2070231D01*
X1976577Y1637885D02*
X2070231D01*
X1998991Y1721861D02*
X2070219D01*
X2063290Y1631861D02*
X2070219D01*
X1998991Y1677924D02*
X2070207D01*
X2041431Y1587924D02*
X2070207D01*
X1998991Y1681822D02*
X2070195D01*
X2041431Y1591822D02*
X2070195D01*
X1998991Y1717964D02*
X2070183D01*
X2043578Y1627964D02*
X2070183D01*
X1998991Y1731783D02*
X2070171D01*
X1976637Y1641783D02*
X2070171D01*
X2051435Y1668003D02*
X2070160D01*
X2041431Y1578003D02*
X2070160D01*
X1998991Y1691743D02*
X2070148D01*
X2040362Y1601743D02*
X2070148D01*
X1998991Y1708043D02*
X2070137D01*
X2052124Y1618043D02*
X2070137D01*
X1998991Y1741704D02*
X2070126D01*
X2054705Y1651704D02*
X2070126D01*
X1998991Y1748082D02*
X2070115D01*
X1976693Y1658082D02*
X2070115D01*
X2048406Y1611665D02*
X2070105D01*
X2029252Y1608121D02*
X2070094D01*
X1998991Y1751625D02*
X2070084D01*
X1976724Y1661625D02*
X2070084D01*
X1998991Y1738161D02*
X2070073D01*
X1982756Y1648161D02*
X2070073D01*
X1998991Y1711586D02*
X2070063D01*
X2042995Y1621586D02*
X2070063D01*
X1998991Y1688200D02*
X2070053D01*
X2041431Y1598200D02*
X2070053D01*
X1998991Y1671546D02*
X2070044D01*
X2041431Y1581546D02*
X2070044D01*
X1998991Y1728239D02*
X2070034D01*
X1976774Y1638239D02*
X2070034D01*
X1998991Y1721507D02*
X2070024D01*
X2063317Y1631507D02*
X2070024D01*
X1998991Y1678279D02*
X2070015D01*
X2041431Y1588279D02*
X2070015D01*
X1998991Y1681468D02*
X2070006D01*
X2041431Y1591468D02*
X2070006D01*
X2051464Y1718318D02*
X2069997D01*
X2043536Y1628318D02*
X2069997D01*
X1998991Y1731428D02*
X2069988D01*
X1976820Y1641428D02*
X2069988D01*
X2051204Y1668358D02*
X2069979D01*
X2041431Y1578358D02*
X2069979D01*
X1998991Y1691389D02*
X2069970D01*
X2040154Y1601389D02*
X2069970D01*
X2051681Y1708397D02*
X2069961D01*
X2052201Y1618397D02*
X2069961D01*
X2051324Y1741350D02*
X2069953D01*
X2054861Y1651350D02*
X2069953D01*
X2051563Y1748436D02*
X2069945D01*
X1976863Y1658436D02*
X2069945D01*
X2048636Y1611310D02*
X2069937D01*
X2029529Y1608476D02*
X2069929D01*
X2051520Y1751271D02*
X2069921D01*
X1976887Y1661271D02*
X2069921D01*
X2051698Y1738515D02*
X2069913D01*
X1983442Y1648515D02*
X2069913D01*
X2051797Y1711232D02*
X2069905D01*
X2043585Y1621232D02*
X2069905D01*
X1998991Y1688554D02*
X2069898D01*
X2041431Y1598554D02*
X2069898D01*
X1998991Y1671192D02*
X2069890D01*
X2041431Y1581192D02*
X2069890D01*
X2002418Y1728594D02*
X2069883D01*
X1976925Y1638594D02*
X2069883D01*
X2051925Y1721153D02*
X2069876D01*
X2063264Y1631153D02*
X2069876D01*
X1998991Y1678633D02*
X2069869D01*
X2041431Y1588633D02*
X2069869D01*
X1998991Y1681113D02*
X2069862D01*
X2041431Y1591113D02*
X2069862D01*
X2052102Y1718672D02*
X2069855D01*
X2043405Y1628672D02*
X2069855D01*
X2002441Y1731074D02*
X2069849D01*
X1976959Y1641074D02*
X2069849D01*
X2050766Y1668712D02*
X2069842D01*
X2041431Y1578712D02*
X2069842D01*
X1998991Y1691035D02*
X2069836D01*
X2040003Y1601035D02*
X2069836D01*
X2052182Y1708751D02*
X2069829D01*
X2052196Y1618751D02*
X2069829D01*
X2051921Y1740995D02*
X2069823D01*
X2054925Y1650995D02*
X2069823D01*
X2052018Y1748791D02*
X2069817D01*
X1976991Y1658791D02*
X2069817D01*
X2048755Y1610956D02*
X2069811D01*
X2029678Y1608830D02*
X2069805D01*
X2051999Y1750917D02*
X2069800D01*
X1977008Y1660917D02*
X2069800D01*
X2052084Y1738869D02*
X2069794D01*
X1983741Y1648869D02*
X2069794D01*
X2052234Y1710877D02*
X2069789D01*
X2043865Y1620877D02*
X2069789D01*
X1998991Y1688909D02*
X2069783D01*
X2041431Y1598909D02*
X2069783D01*
X1998991Y1670838D02*
X2069778D01*
X2041431Y1580838D02*
X2069778D01*
X2002751Y1728948D02*
X2069773D01*
X1977035Y1638948D02*
X2069773D01*
X2052298Y1720798D02*
X2069768D01*
X2063122Y1630798D02*
X2069768D01*
X1998991Y1678987D02*
X2069763D01*
X2041431Y1588987D02*
X2069763D01*
X1998991Y1680759D02*
X2069758D01*
X2041431Y1590759D02*
X2069758D01*
X2052392Y1719027D02*
X2069753D01*
X2043159Y1629027D02*
X2069753D01*
X2002764Y1730720D02*
X2069749D01*
X1977059Y1640720D02*
X2069749D01*
X1998991Y1669066D02*
X2069744D01*
X2041431Y1579066D02*
X2069744D01*
X1998991Y1690680D02*
X2069740D01*
X2041431Y1600680D02*
X2069740D01*
X2052436Y1709106D02*
X2069736D01*
X2052109Y1619106D02*
X2069736D01*
X2052203Y1740641D02*
X2069732D01*
X2054908Y1650641D02*
X2069732D01*
X2052256Y1749145D02*
X2069728D01*
X1977080Y1659145D02*
X2069728D01*
X2048788Y1610602D02*
X2069724D01*
X2047845Y1609184D02*
X2069720D01*
X2052246Y1750562D02*
X2069716D01*
X1977092Y1660562D02*
X2069716D01*
X2052292Y1739224D02*
X2069713D01*
X1983904Y1649224D02*
X2069713D01*
X2052465Y1710523D02*
X2069709D01*
X2044016Y1620523D02*
X2069709D01*
X1998991Y1689263D02*
X2069706D01*
X2041431Y1599263D02*
X2069706D01*
X1998991Y1670483D02*
X2069703D01*
X2041431Y1580483D02*
X2069703D01*
X2002933Y1729302D02*
X2069700D01*
X1977108Y1639302D02*
X2069700D01*
X2052500Y1720444D02*
X2069697D01*
X2062856Y1630444D02*
X2069697D01*
X1998991Y1679342D02*
X2069694D01*
X2041431Y1589342D02*
X2069694D01*
X1998991Y1680405D02*
X2069691D01*
X2041431Y1590405D02*
X2069691D01*
X2052549Y1719381D02*
X2069688D01*
X2042680Y1629381D02*
X2069688D01*
X2002940Y1730365D02*
X2069686D01*
X1977122Y1640365D02*
X2069686D01*
X1998991Y1669421D02*
X2069683D01*
X2041431Y1579421D02*
X2069683D01*
X1998991Y1690326D02*
X2069681D01*
X2041431Y1600326D02*
X2069681D01*
X2052571Y1709460D02*
X2069678D01*
X2051923Y1619460D02*
X2069678D01*
X2052355Y1740287D02*
X2069676D01*
X2054808Y1650287D02*
X2069676D01*
X2052381Y1749499D02*
X2069674D01*
X1977134Y1659499D02*
X2069674D01*
X2048741Y1610247D02*
X2069672D01*
X2048350Y1609539D02*
X2069670D01*
X2052376Y1750208D02*
X2069668D01*
X1977140Y1660208D02*
X2069668D01*
X2052396Y1739578D02*
X2069667D01*
X2054228Y1649578D02*
X2069667D01*
X2052584Y1710169D02*
X2069665D01*
X2044076Y1620169D02*
X2069665D01*
X1998991Y1689617D02*
X2069664D01*
X2041431Y1599617D02*
X2069664D01*
X1998991Y1670129D02*
X2069662D01*
X2041431Y1580129D02*
X2069662D01*
X2003017Y1729657D02*
X2069661D01*
X1977147Y1639657D02*
X2069661D01*
X2052599Y1720090D02*
X2069660D01*
X2062317Y1630090D02*
X2069660D01*
X1998991Y1679696D02*
X2069659D01*
X2041431Y1589696D02*
X2069659D01*
X1998991Y1680050D02*
X2069658D01*
X2041431Y1590050D02*
X2069658D01*
X2052615Y1719735D02*
X2069657D01*
X1998741Y1629735D02*
X2069657D01*
X2003019Y1730011D02*
X2069657D01*
X1977151Y1640011D02*
X2069657D01*
X1998991Y1669775D02*
X2069656D01*
X2041431Y1579775D02*
X2069656D01*
X1998991Y1689972D02*
X2069655D01*
X2041431Y1599972D02*
X2069655D01*
X2052618Y1709814D02*
X2069655D01*
X2051583Y1619814D02*
X2069655D01*
X2052416Y1739932D02*
X2069655D01*
X2054604Y1649932D02*
X2069655D01*
X2052418Y1749854D02*
X2069654D01*
X1977154Y1659854D02*
X2069654D01*
X2048605Y1609893D02*
X2069654D01*
X1998951Y1630090D02*
X2061151D01*
X1969301Y1632924D02*
X2060924D01*
X1999055Y1630444D02*
X2060612D01*
X1969301Y1632570D02*
X2060511D01*
X1999076Y1630798D02*
X2060346D01*
X1997996Y1632216D02*
X2060290D01*
X1999016Y1631153D02*
X2060204D01*
X1998585Y1631861D02*
X2060178D01*
X1998865Y1631507D02*
X2060151D01*
X2048470Y1652413D02*
X2052896D01*
X1983973Y1649578D02*
X2052460D01*
X2048587Y1652058D02*
X2052271D01*
X1983962Y1649932D02*
X2052084D01*
X2048618Y1651704D02*
X2051983D01*
X2047658Y1650287D02*
X2051880D01*
X2048569Y1651350D02*
X2051827D01*
X2048172Y1650641D02*
X2051780D01*
X2048431Y1650995D02*
X2051763D01*
X2001695Y1723279D02*
X2050783D01*
X2001790Y1736389D02*
X2050688D01*
X2001874Y1718318D02*
X2050604D01*
X2001995Y1713358D02*
X2050483D01*
X2007174Y1746310D02*
X2050446D01*
X1975777Y1616980D02*
X2050439D01*
X2002091Y1708397D02*
X2050387D01*
X2002130Y1706271D02*
X2050348D01*
X2041284Y1741350D02*
X2050344D01*
X2002173Y1703436D02*
X2050305D01*
X2002207Y1711232D02*
X2050271D01*
X1998991Y1743476D02*
X2050244D01*
X2002274Y1716192D02*
X2050204D01*
X1998991Y1751271D02*
X2050148D01*
X2002335Y1721153D02*
X2050143D01*
X2002366Y1733554D02*
X2050112D01*
X1998991Y1748436D02*
X2050105D01*
X2002391Y1726113D02*
X2050087D01*
X2002467Y1723633D02*
X2050011D01*
X2002488Y1736035D02*
X2049990D01*
X2041658Y1738515D02*
X2049970D01*
X2002512Y1718672D02*
X2049966D01*
X2002553Y1713712D02*
X2049925D01*
X2007373Y1745956D02*
X2049916D01*
X2002592Y1708751D02*
X2049886D01*
X2002609Y1705917D02*
X2049869D01*
X2002628Y1703791D02*
X2049850D01*
X2002644Y1710877D02*
X2049834D01*
X2006304Y1743830D02*
X2049826D01*
X2002677Y1715838D02*
X2049801D01*
X2002708Y1720798D02*
X2049770D01*
X2002723Y1733909D02*
X2049755D01*
X2041881Y1740995D02*
X2049747D01*
X2002737Y1725759D02*
X2049741D01*
X2002777Y1723987D02*
X2049701D01*
X2002789Y1735680D02*
X2049689D01*
X2002802Y1719027D02*
X2049676D01*
X1998991Y1750917D02*
X2049669D01*
X2044055Y1619814D02*
X2049665D01*
X2002825Y1714066D02*
X2049653D01*
X2007470Y1745602D02*
X2049653D01*
X1998991Y1748791D02*
X2049650D01*
X2002846Y1709106D02*
X2049632D01*
X2002856Y1705562D02*
X2049622D01*
X1976154Y1617334D02*
X2049612D01*
X2002866Y1704145D02*
X2049612D01*
X2006963Y1744184D02*
X2049603D01*
X2002875Y1710523D02*
X2049603D01*
X2002893Y1715483D02*
X2049585D01*
X2042044Y1738869D02*
X2049584D01*
X2002910Y1720444D02*
X2049568D01*
X2002918Y1734263D02*
X2049560D01*
X2002925Y1725405D02*
X2049553D01*
X2002947Y1724342D02*
X2049531D01*
X2002953Y1735326D02*
X2049525D01*
X2002959Y1719381D02*
X2049519D01*
X2047612Y1696350D02*
X2049514D01*
X2007484Y1745247D02*
X2049512D01*
X2002971Y1714421D02*
X2049507D01*
X2002981Y1709460D02*
X2049497D01*
X2002986Y1705208D02*
X2049492D01*
X2007257Y1744539D02*
X2049489D01*
X2002991Y1704499D02*
X2049487D01*
X2002994Y1710169D02*
X2049484D01*
X2003002Y1715129D02*
X2049476D01*
X2003009Y1720090D02*
X2049469D01*
X2003012Y1734617D02*
X2049466D01*
X2042163Y1740641D02*
X2049465D01*
X2003015Y1725050D02*
X2049463D01*
X2007417Y1744893D02*
X2049461D01*
X2003021Y1724696D02*
X2049457D01*
X2003023Y1734972D02*
X2049455D01*
X2003025Y1719735D02*
X2049453D01*
X2003027Y1714775D02*
X2049451D01*
X2003028Y1709814D02*
X2049450D01*
X2003028Y1704854D02*
X2049450D01*
X1998991Y1750562D02*
X2049422D01*
X1998991Y1749145D02*
X2049412D01*
X2035085Y1701310D02*
X2049406D01*
X2042252Y1739224D02*
X2049376D01*
X1998991Y1665877D02*
X2049356D01*
X2043951Y1619460D02*
X2049325D01*
X2042315Y1740287D02*
X2049313D01*
X1976444Y1617688D02*
X2049297D01*
X1998991Y1750208D02*
X2049292D01*
X1998991Y1749499D02*
X2049287D01*
X2042356Y1739578D02*
X2049272D01*
X2042376Y1739932D02*
X2049252D01*
X1998991Y1749854D02*
X2049250D01*
X1998991Y1668712D02*
X2049242D01*
X2044571Y1698476D02*
X2049204D01*
X1998991Y1693515D02*
X2049140D01*
X2043741Y1619106D02*
X2049139D01*
X1976671Y1618043D02*
X2049124D01*
X2043352Y1618751D02*
X2049052D01*
X1976847Y1618397D02*
X2049047D01*
X2047683Y1695995D02*
X2048917D01*
X2035067Y1700956D02*
X2048876D01*
X1998991Y1666232D02*
X2048856D01*
X1998991Y1668358D02*
X2048804D01*
X2044361Y1698830D02*
X2048786D01*
X1998991Y1693869D02*
X2048754D01*
X2047673Y1695641D02*
X2048635D01*
X2034966Y1700602D02*
X2048613D01*
X1998991Y1666586D02*
X2048602D01*
X1998991Y1668003D02*
X2048573D01*
X2043973Y1699184D02*
X2048563D01*
X1998991Y1694224D02*
X2048546D01*
X2047580Y1695287D02*
X2048483D01*
X2034760Y1700247D02*
X2048472D01*
X1998991Y1666940D02*
X2048467D01*
X1998991Y1667649D02*
X2048454D01*
X2008343Y1699539D02*
X2048449D01*
X2047031Y1694578D02*
X2048442D01*
X2047386Y1694932D02*
X2048422D01*
X2034380Y1699893D02*
X2048421D01*
X1998991Y1667295D02*
X2048420D01*
X2029736Y1609184D02*
X2046563D01*
X1976486Y1612019D02*
X2046436D01*
X1983867Y1650287D02*
X2046410D01*
X1975294Y1653121D02*
X2046253D01*
X2029714Y1609539D02*
X2046058D01*
X1976703Y1611665D02*
X2046002D01*
X1983671Y1650641D02*
X2045896D01*
X1975800Y1652767D02*
X2045825D01*
X2029608Y1609893D02*
X2045803D01*
X2044636Y1697413D02*
X2045775D01*
X1976871Y1611310D02*
X2045772D01*
X2029395Y1610247D02*
X2045667D01*
X1997394Y1610956D02*
X2045653D01*
X1983310Y1650995D02*
X2045637D01*
X2029001Y1610602D02*
X2045620D01*
X1976172Y1652413D02*
X2045598D01*
X1976855Y1651350D02*
X2045499D01*
X1976458Y1652058D02*
X2045481D01*
X1976682Y1651704D02*
X2045450D01*
X2031767Y1694578D02*
X2045177D01*
X2044485Y1697058D02*
X2045064D01*
X2032294Y1694932D02*
X2044822D01*
X2044205Y1696704D02*
X2044761D01*
X2032556Y1695287D02*
X2044628D01*
X2043614Y1696350D02*
X2044596D01*
X2032696Y1695641D02*
X2044535D01*
X2032748Y1695995D02*
X2044525D01*
X1976526Y1647806D02*
X2044095D01*
X1969301Y1644972D02*
X2043590D01*
X1976259Y1647452D02*
X2043436D01*
X1969301Y1645326D02*
X2043224D01*
X1975914Y1647098D02*
X2043141D01*
X1969301Y1645680D02*
X2043025D01*
X1975454Y1646743D02*
X2042981D01*
X1969301Y1646035D02*
X2042928D01*
X1974765Y1646389D02*
X2042914D01*
X2032718Y1696350D02*
X2042614D01*
X2008211Y1699184D02*
X2042255D01*
X2032604Y1696704D02*
X2042023D01*
X1976745Y1621586D02*
X2041993D01*
X2007960Y1698830D02*
X2041867D01*
X2032380Y1697058D02*
X2041743D01*
X2007470Y1698476D02*
X2041657D01*
X1976979Y1618751D02*
X2041636D01*
X2031960Y1697413D02*
X2041592D01*
X1998991Y1698121D02*
X2041553D01*
X1998991Y1697767D02*
X2041532D01*
X1976903Y1621232D02*
X2041403D01*
X2005810Y1629381D02*
X2041308D01*
X2005853Y1626546D02*
X2041265D01*
X1977072Y1619106D02*
X2041247D01*
X1977019Y1620877D02*
X2041123D01*
X1977130Y1619460D02*
X2041037D01*
X1977099Y1620523D02*
X2040972D01*
X1977153Y1619814D02*
X2040933D01*
X1977143Y1620169D02*
X2040912D01*
X2006289Y1629027D02*
X2040829D01*
X2006308Y1626901D02*
X2040810D01*
X2006535Y1628672D02*
X2040583D01*
X2006546Y1627255D02*
X2040572D01*
X2006666Y1628318D02*
X2040452D01*
X2006671Y1627609D02*
X2040447D01*
X2006708Y1627964D02*
X2040410D01*
X1998991Y1741350D02*
X2040304D01*
X1998991Y1738515D02*
X2039930D01*
X1998991Y1740995D02*
X2039707D01*
X1998991Y1738869D02*
X2039544D01*
X1998991Y1740641D02*
X2039425D01*
X1998991Y1739224D02*
X2039336D01*
X1998991Y1740287D02*
X2039273D01*
X1998991Y1739578D02*
X2039232D01*
X1998991Y1739932D02*
X2039212D01*
X1969301Y1603869D02*
X2038413D01*
X1974336Y1603515D02*
X2037816D01*
X1976972Y1601035D02*
X2037805D01*
X1976838Y1601389D02*
X2037654D01*
X1975225Y1603161D02*
X2037535D01*
X1976660Y1601743D02*
X2037446D01*
X1975752Y1602806D02*
X2037383D01*
X1976430Y1602098D02*
X2037342D01*
X1976135Y1602452D02*
X2037322D01*
X1998991Y1702728D02*
X2033039D01*
X1977068Y1600680D02*
X2032807D01*
X2013251Y1600326D02*
X2032807D01*
X2013251Y1599972D02*
X2032807D01*
X2013251Y1599617D02*
X2032807D01*
X2013251Y1599263D02*
X2032807D01*
X2013251Y1598909D02*
X2032807D01*
X2013251Y1598554D02*
X2032807D01*
X2013251Y1598200D02*
X2032807D01*
X2013251Y1597846D02*
X2032807D01*
X2013251Y1597491D02*
X2032807D01*
X2013251Y1597137D02*
X2032807D01*
X2013251Y1596783D02*
X2032807D01*
X2013251Y1596428D02*
X2032807D01*
X2013251Y1596074D02*
X2032807D01*
X2013251Y1595720D02*
X2032807D01*
X2013251Y1595365D02*
X2032807D01*
X2013251Y1595011D02*
X2032807D01*
X2013251Y1594657D02*
X2032807D01*
X2013251Y1594302D02*
X2032807D01*
X2013251Y1593948D02*
X2032807D01*
X2013251Y1593594D02*
X2032807D01*
X2013251Y1593239D02*
X2032807D01*
X2008388Y1699893D02*
X2032628D01*
X1998991Y1702373D02*
X2032425D01*
X2008353Y1700247D02*
X2032248D01*
X1998991Y1702019D02*
X2032140D01*
X2008231Y1700602D02*
X2032042D01*
X1998991Y1701665D02*
X2031985D01*
X2007997Y1700956D02*
X2031941D01*
X2007551Y1701310D02*
X2031923D01*
X2026707Y1694578D02*
X2030561D01*
X2029751Y1636822D02*
X2030555D01*
X2026900Y1697413D02*
X2030368D01*
X2027234Y1694932D02*
X2030034D01*
X2027320Y1697058D02*
X2029948D01*
X1969301Y1633987D02*
X2029821D01*
X2027496Y1695287D02*
X2029772D01*
X2027544Y1696704D02*
X2029724D01*
X2027636Y1695641D02*
X2029632D01*
X2027658Y1696350D02*
X2029610D01*
X2027688Y1695995D02*
X2029580D01*
X1969301Y1634342D02*
X2029478D01*
X2028991Y1634696D02*
X2029291D01*
X1969301D02*
X2027657D01*
X2026605Y1607767D02*
X2027633D01*
X1976324Y1637531D02*
X2027578D01*
X2026268Y1610602D02*
X2027307D01*
X1969301Y1635050D02*
X2027167D01*
X1975999Y1637176D02*
X2027132D01*
X1969301Y1635405D02*
X2026917D01*
X1975570Y1636822D02*
X2026897D01*
X1969301Y1635759D02*
X2026784D01*
X1974952Y1636468D02*
X2026775D01*
X1969301Y1636113D02*
X2026740D01*
X2021817Y1694578D02*
X2025501D01*
X2021807Y1697413D02*
X2025308D01*
X1998081Y1610602D02*
X2025240D01*
X2022281Y1694932D02*
X2024974D01*
X1976499Y1607767D02*
X2024903D01*
X2022277Y1697058D02*
X2024888D01*
X2022522Y1695287D02*
X2024712D01*
X2022520Y1696704D02*
X2024664D01*
X1998381Y1610247D02*
X2024658D01*
X2022649Y1695641D02*
X2024572D01*
X2022648Y1696350D02*
X2024550D01*
X2022688Y1695995D02*
X2024520D01*
X1997951Y1608121D02*
X2024511D01*
X1998544Y1609893D02*
X2024381D01*
X1998311Y1608476D02*
X2024299D01*
X1998613Y1609539D02*
X2024231D01*
X1998507Y1608830D02*
X2024193D01*
X1998602Y1609184D02*
X2024172D01*
X2016787Y1697413D02*
X2020401D01*
X2016836Y1694578D02*
X2020391D01*
X2017267Y1697058D02*
X2019931D01*
X2017290Y1694932D02*
X2019927D01*
X2017515Y1696704D02*
X2019688D01*
X2017527Y1695287D02*
X2019686D01*
X2017645Y1696350D02*
X2019560D01*
X2017651Y1695641D02*
X2019559D01*
X2017688Y1695995D02*
X2019520D01*
X2011760Y1697413D02*
X2015421D01*
X2011931Y1694578D02*
X2015372D01*
X2012279Y1697058D02*
X2014941D01*
X2012356Y1694932D02*
X2014918D01*
X2012539Y1696704D02*
X2014693D01*
X2012581Y1695287D02*
X2014681D01*
X2012678Y1696350D02*
X2014563D01*
X2012697Y1695641D02*
X2014557D01*
X2012728Y1695995D02*
X2014520D01*
X2008290Y1697413D02*
X2010528D01*
X2008545Y1694578D02*
X2010357D01*
X2008839Y1697058D02*
X2010009D01*
X2008952Y1694932D02*
X2009932D01*
X2009108Y1696704D02*
X2009749D01*
X2009170Y1695287D02*
X2009707D01*
X2009253Y1696350D02*
X2009610D01*
X2009281Y1695641D02*
X2009591D01*
X2009307Y1695995D02*
X2009560D01*
X1998991Y1697413D02*
X2007158D01*
X1998991Y1694578D02*
X2006903D01*
X1998991Y1697058D02*
X2006609D01*
X1998991Y1694932D02*
X2006496D01*
X1998991Y1696704D02*
X2006340D01*
X1998991Y1695287D02*
X2006278D01*
X1998991Y1696350D02*
X2006195D01*
X1998991Y1695641D02*
X2006167D01*
X1998991Y1695995D02*
X2006141D01*
X2000804Y1698476D02*
X2006138D01*
X2000602Y1701310D02*
X2006057D01*
X1977127Y1600326D02*
X2005707D01*
X1977153Y1599972D02*
X2005707D01*
X1977144Y1599617D02*
X2005707D01*
X1977102Y1599263D02*
X2005707D01*
X1977025Y1598909D02*
X2005707D01*
X1976910Y1598554D02*
X2005707D01*
X1976755Y1598200D02*
X2005707D01*
X1976552Y1597846D02*
X2005707D01*
X1976292Y1597491D02*
X2005707D01*
X1975957Y1597137D02*
X2005707D01*
X1975513Y1596783D02*
X2005707D01*
X1974862Y1596428D02*
X2005707D01*
X1969301Y1596074D02*
X2005707D01*
X1969301Y1595720D02*
X2005707D01*
X1969301Y1595365D02*
X2005707D01*
X1969301Y1595011D02*
X2005707D01*
X1969301Y1594657D02*
X2005707D01*
X1969301Y1594302D02*
X2005707D01*
X1969301Y1593948D02*
X2005707D01*
X1973943Y1593594D02*
X2005707D01*
X1975076Y1593239D02*
X2005707D01*
X1975651Y1592885D02*
X2005707D01*
X1976059Y1592531D02*
X2005707D01*
X1976370Y1592176D02*
X2005707D01*
X1976613Y1591822D02*
X2005707D01*
X1976802Y1591468D02*
X2005707D01*
X1976946Y1591113D02*
X2005707D01*
X1977050Y1590759D02*
X2005707D01*
X1997200Y1590405D02*
X2005707D01*
X1997737Y1590050D02*
X2005707D01*
X1998002Y1589696D02*
X2005707D01*
X1998145Y1589342D02*
X2005707D01*
X1998197Y1588987D02*
X2005707D01*
X1998170Y1588633D02*
X2005707D01*
X1998057Y1588279D02*
X2005707D01*
X1997836Y1587924D02*
X2005707D01*
X1997422Y1587570D02*
X2005707D01*
X1976039Y1587216D02*
X2005707D01*
X1975624Y1586861D02*
X2005707D01*
X1975036Y1586507D02*
X2005707D01*
X1973785Y1586153D02*
X2005707D01*
X1969301Y1585798D02*
X2005707D01*
X1969301Y1585444D02*
X2005707D01*
X1969301Y1585090D02*
X2005707D01*
X1969301Y1584735D02*
X2005707D01*
X1969301Y1584381D02*
X2005707D01*
X1969301Y1584027D02*
X2005707D01*
X1969301Y1583672D02*
X2005707D01*
X1974907Y1583318D02*
X2005707D01*
X1975541Y1582964D02*
X2005707D01*
X1975978Y1582609D02*
X2005707D01*
X1976308Y1582255D02*
X2005707D01*
X1976564Y1581901D02*
X2005707D01*
X1976764Y1581546D02*
X2005707D01*
X1976918Y1581192D02*
X2005707D01*
X1977030Y1580838D02*
X2005707D01*
X1977105Y1580483D02*
X2005707D01*
X1977146Y1580129D02*
X2005707D01*
X1977152Y1579775D02*
X2005707D01*
X1977125Y1579421D02*
X2005707D01*
X1977064Y1579066D02*
X2005707D01*
X1976966Y1578712D02*
X2005707D01*
X1976829Y1578358D02*
X2005707D01*
X1976648Y1578003D02*
X2005707D01*
X1976415Y1577649D02*
X2005707D01*
X1976117Y1577295D02*
X2005707D01*
X1975728Y1576940D02*
X2005707D01*
X1975190Y1576586D02*
X2005707D01*
X1974256Y1576232D02*
X2005707D01*
X1969301Y1575877D02*
X2005707D01*
X2001222Y1698830D02*
X2005648D01*
X2001132Y1700956D02*
X2005611D01*
X1998991Y1743830D02*
X2005504D01*
X2001445Y1699184D02*
X2005397D01*
X2001395Y1700602D02*
X2005377D01*
X2001559Y1699539D02*
X2005265D01*
X2001536Y1700247D02*
X2005255D01*
X2001587Y1699893D02*
X2005220D01*
X1998991Y1746665D02*
X2005001D01*
X1998991Y1744184D02*
X2004845D01*
X1998991Y1746310D02*
X2004634D01*
X1998991Y1744539D02*
X2004551D01*
X1998352Y1629381D02*
X2004438D01*
X1998991Y1745956D02*
X2004435D01*
X1969301Y1626546D02*
X2004395D01*
X1998991Y1744893D02*
X2004391D01*
X1998991Y1745602D02*
X2004338D01*
X1998991Y1745247D02*
X2004324D01*
X1969301Y1629027D02*
X2003959D01*
X1969301Y1626901D02*
X2003940D01*
X1969301Y1628672D02*
X2003713D01*
X1969301Y1627255D02*
X2003702D01*
X1969301Y1628318D02*
X2003582D01*
X1969301Y1627609D02*
X2003577D01*
X1969301Y1627964D02*
X2003540D01*
X1998991Y1723279D02*
X2001193D01*
X1998991Y1736389D02*
X2001098D01*
X1998991Y1718318D02*
X2001014D01*
X1998991Y1713358D02*
X2000893D01*
X1998991Y1708397D02*
X2000797D01*
X1998991Y1706271D02*
X2000758D01*
X1998991Y1703436D02*
X2000715D01*
X1998991Y1711232D02*
X2000681D01*
X1998991Y1716192D02*
X2000614D01*
X1998991Y1721153D02*
X2000553D01*
X1998991Y1733554D02*
X2000522D01*
X1998991Y1726113D02*
X2000497D01*
X1998991Y1728594D02*
X2000470D01*
X1998991Y1731074D02*
X2000447D01*
X1998991Y1723633D02*
X2000421D01*
X1998991Y1736035D02*
X2000400D01*
X1998991Y1718672D02*
X2000376D01*
X1998991Y1713712D02*
X2000335D01*
X1998991Y1708751D02*
X2000296D01*
X1998991Y1705917D02*
X2000279D01*
X1998991Y1703791D02*
X2000260D01*
X1998991Y1710877D02*
X2000244D01*
X1998991Y1715838D02*
X2000211D01*
X1998991Y1720798D02*
X2000180D01*
X1998991Y1733909D02*
X2000165D01*
X1998991Y1725759D02*
X2000151D01*
X1998991Y1728948D02*
X2000137D01*
X1998991Y1730720D02*
X2000124D01*
X1998991Y1723987D02*
X2000111D01*
X1998991Y1735680D02*
X2000099D01*
X1998991Y1719027D02*
X2000086D01*
X1998991Y1714066D02*
X2000063D01*
X1998991Y1709106D02*
X2000042D01*
X1998991Y1705562D02*
X2000032D01*
X1998991Y1704145D02*
X2000022D01*
X1998991Y1710523D02*
X2000013D01*
X1998991Y1715483D02*
X1999995D01*
X1998991Y1720444D02*
X1999978D01*
X1998991Y1734263D02*
X1999970D01*
X1998991Y1725405D02*
X1999963D01*
X1998991Y1729302D02*
X1999955D01*
X1998991Y1730365D02*
X1999948D01*
X1998991Y1724342D02*
X1999941D01*
X1998991Y1735326D02*
X1999935D01*
X1998991Y1719381D02*
X1999929D01*
X1998991Y1714421D02*
X1999917D01*
X1998991Y1709460D02*
X1999907D01*
X1998991Y1705208D02*
X1999902D01*
X1998991Y1704499D02*
X1999897D01*
X1998991Y1710169D02*
X1999894D01*
X1998991Y1715129D02*
X1999886D01*
X1998991Y1720090D02*
X1999879D01*
X1998991Y1734617D02*
X1999876D01*
X1998991Y1725050D02*
X1999873D01*
X1998991Y1729657D02*
X1999871D01*
X1998991Y1730011D02*
X1999869D01*
X1998991Y1724696D02*
X1999867D01*
X1998991Y1734972D02*
X1999865D01*
X1998991Y1719735D02*
X1999863D01*
X1998991Y1714775D02*
X1999861D01*
X1998991Y1709814D02*
X1999860D01*
X1998991Y1704854D02*
X1999860D01*
X1998991Y1701310D02*
X1999406D01*
X1999023Y1698476D02*
X1999204D01*
X1969301Y1632216D02*
X1996992D01*
X1976997Y1610956D02*
X1996674D01*
X1969301Y1629381D02*
X1996636D01*
X1969301Y1631861D02*
X1996403D01*
X1969301Y1629735D02*
X1996247D01*
X1969301Y1631507D02*
X1996123D01*
X1976714Y1608121D02*
X1996117D01*
X1969301Y1630090D02*
X1996037D01*
X1977117Y1590405D02*
X1996028D01*
X1977084Y1610602D02*
X1995987D01*
X1969301Y1631153D02*
X1995972D01*
X1969301Y1630444D02*
X1995933D01*
X1969301Y1630798D02*
X1995912D01*
X1976355Y1587570D02*
X1995806D01*
X1976879Y1608476D02*
X1995757D01*
X1977136Y1610247D02*
X1995687D01*
X1977003Y1608830D02*
X1995561D01*
X1977154Y1609893D02*
X1995524D01*
X1977150Y1590050D02*
X1995491D01*
X1977088Y1609184D02*
X1995466D01*
X1977138Y1609539D02*
X1995455D01*
X1976601Y1587924D02*
X1995392D01*
X1977149Y1589696D02*
X1995226D01*
X1976793Y1588279D02*
X1995171D01*
X1977114Y1589342D02*
X1995083D01*
X1976939Y1588633D02*
X1995058D01*
X1977045Y1588987D02*
X1995031D01*
X1976242Y1662334D02*
X1983390D01*
X1975892Y1662688D02*
X1982979D01*
X1975423Y1663043D02*
X1982759D01*
X1974713Y1663397D02*
X1982646D01*
X1976513Y1751980D02*
X1982617D01*
X1976724Y1751625D02*
X1982617D01*
X1976887Y1751271D02*
X1982617D01*
X1977008Y1750917D02*
X1982617D01*
X1977092Y1750562D02*
X1982617D01*
X1977140Y1750208D02*
X1982617D01*
X1977154Y1749854D02*
X1982617D01*
X1977134Y1749499D02*
X1982617D01*
X1977080Y1749145D02*
X1982617D01*
X1976991Y1748791D02*
X1982617D01*
X1976863Y1748436D02*
X1982617D01*
X1976693Y1748082D02*
X1982617D01*
X1976472Y1747728D02*
X1982617D01*
X1976190Y1747373D02*
X1982617D01*
X1975824Y1747019D02*
X1982617D01*
X1975328Y1746665D02*
X1982617D01*
X1974542Y1746310D02*
X1982617D01*
X1969301Y1745956D02*
X1982617D01*
X1969301Y1745602D02*
X1982617D01*
X1969301Y1745247D02*
X1982617D01*
X1969301Y1744893D02*
X1982617D01*
X1969301Y1744539D02*
X1982617D01*
X1969301Y1744184D02*
X1982617D01*
X1969301Y1743830D02*
X1982617D01*
X1974478Y1743476D02*
X1982617D01*
X1975294Y1743121D02*
X1982617D01*
X1975800Y1742767D02*
X1982617D01*
X1976172Y1742413D02*
X1982617D01*
X1976458Y1742058D02*
X1982617D01*
X1976682Y1741704D02*
X1982617D01*
X1976855Y1741350D02*
X1982617D01*
X1976985Y1740995D02*
X1982617D01*
X1977076Y1740641D02*
X1982617D01*
X1977132Y1740287D02*
X1982617D01*
X1977153Y1739932D02*
X1982617D01*
X1977141Y1739578D02*
X1982617D01*
X1977095Y1739224D02*
X1982617D01*
X1977014Y1738869D02*
X1982617D01*
X1976895Y1738515D02*
X1982617D01*
X1976735Y1738161D02*
X1982617D01*
X1976526Y1737806D02*
X1982617D01*
X1976259Y1737452D02*
X1982617D01*
X1975914Y1737098D02*
X1982617D01*
X1975454Y1736743D02*
X1982617D01*
X1974765Y1736389D02*
X1982617D01*
X1969301Y1736035D02*
X1982617D01*
X1969301Y1735680D02*
X1982617D01*
X1969301Y1735326D02*
X1982617D01*
X1969301Y1734972D02*
X1982617D01*
X1969301Y1734617D02*
X1982617D01*
X1969301Y1734263D02*
X1982617D01*
X1969301Y1733909D02*
X1982617D01*
X1974166Y1733554D02*
X1982617D01*
X1975152Y1733200D02*
X1982617D01*
X1975702Y1732846D02*
X1982617D01*
X1976098Y1732491D02*
X1982617D01*
X1976400Y1732137D02*
X1982617D01*
X1976637Y1731783D02*
X1982617D01*
X1976820Y1731428D02*
X1982617D01*
X1976959Y1731074D02*
X1982617D01*
X1977059Y1730720D02*
X1982617D01*
X1977122Y1730365D02*
X1982617D01*
X1977151Y1730011D02*
X1982617D01*
X1977147Y1729657D02*
X1982617D01*
X1977108Y1729302D02*
X1982617D01*
X1977035Y1728948D02*
X1982617D01*
X1976925Y1728594D02*
X1982617D01*
X1976774Y1728239D02*
X1982617D01*
X1976577Y1727885D02*
X1982617D01*
X1976324Y1727531D02*
X1982617D01*
X1975999Y1727176D02*
X1982617D01*
X1975570Y1726822D02*
X1982617D01*
X1974952Y1726468D02*
X1982617D01*
X1969301Y1726113D02*
X1982617D01*
X1969301Y1725759D02*
X1982617D01*
X1969301Y1725405D02*
X1982617D01*
X1969301Y1725050D02*
X1982617D01*
X1969301Y1724696D02*
X1982617D01*
X1969301Y1724342D02*
X1982617D01*
X1969301Y1723987D02*
X1982617D01*
X1969301Y1723633D02*
X1982617D01*
X1974994Y1723279D02*
X1982617D01*
X1975597Y1722924D02*
X1982617D01*
X1976019Y1722570D02*
X1982617D01*
X1976340Y1722216D02*
X1982617D01*
X1976589Y1721861D02*
X1982617D01*
X1976784Y1721507D02*
X1982617D01*
X1976932Y1721153D02*
X1982617D01*
X1977040Y1720798D02*
X1982617D01*
X1977111Y1720444D02*
X1982617D01*
X1977148Y1720090D02*
X1982617D01*
X1977151Y1719735D02*
X1982617D01*
X1977120Y1719381D02*
X1982617D01*
X1977055Y1719027D02*
X1982617D01*
X1976953Y1718672D02*
X1982617D01*
X1976811Y1718318D02*
X1982617D01*
X1976625Y1717964D02*
X1982617D01*
X1976386Y1717609D02*
X1982617D01*
X1976079Y1717255D02*
X1982617D01*
X1975677Y1716901D02*
X1982617D01*
X1975115Y1716546D02*
X1982617D01*
X1974065Y1716192D02*
X1982617D01*
X1969301Y1715838D02*
X1982617D01*
X1969301Y1715483D02*
X1982617D01*
X1969301Y1715129D02*
X1982617D01*
X1969301Y1714775D02*
X1982617D01*
X1969301Y1714421D02*
X1982617D01*
X1969301Y1714066D02*
X1982617D01*
X1969301Y1713712D02*
X1982617D01*
X1974814Y1713358D02*
X1982617D01*
X1975483Y1713003D02*
X1982617D01*
X1975936Y1712649D02*
X1982617D01*
X1976275Y1712295D02*
X1982617D01*
X1976539Y1711940D02*
X1982617D01*
X1976745Y1711586D02*
X1982617D01*
X1976903Y1711232D02*
X1982617D01*
X1977019Y1710877D02*
X1982617D01*
X1977099Y1710523D02*
X1982617D01*
X1977143Y1710169D02*
X1982617D01*
X1977153Y1709814D02*
X1982617D01*
X1977130Y1709460D02*
X1982617D01*
X1977072Y1709106D02*
X1982617D01*
X1976979Y1708751D02*
X1982617D01*
X1976847Y1708397D02*
X1982617D01*
X1976671Y1708043D02*
X1982617D01*
X1976444Y1707688D02*
X1982617D01*
X1976154Y1707334D02*
X1982617D01*
X1975777Y1706980D02*
X1982617D01*
X1975261Y1706625D02*
X1982617D01*
X1974410Y1706271D02*
X1982617D01*
X1969301Y1705917D02*
X1982617D01*
X1969301Y1705562D02*
X1982617D01*
X1969301Y1705208D02*
X1982617D01*
X1969301Y1704854D02*
X1982617D01*
X1969301Y1704499D02*
X1982617D01*
X1969301Y1704145D02*
X1982617D01*
X1969301Y1703791D02*
X1982617D01*
X1974602Y1703436D02*
X1982617D01*
X1975360Y1703082D02*
X1982617D01*
X1975847Y1702728D02*
X1982617D01*
X1976207Y1702373D02*
X1982617D01*
X1976486Y1702019D02*
X1982617D01*
X1976703Y1701665D02*
X1982617D01*
X1976871Y1701310D02*
X1982617D01*
X1976997Y1700956D02*
X1982617D01*
X1977084Y1700602D02*
X1982617D01*
X1977136Y1700247D02*
X1982617D01*
X1977154Y1699893D02*
X1982617D01*
X1977138Y1699539D02*
X1982617D01*
X1977088Y1699184D02*
X1982617D01*
X1977003Y1698830D02*
X1982617D01*
X1976879Y1698476D02*
X1982617D01*
X1976714Y1698121D02*
X1982617D01*
X1976499Y1697767D02*
X1982617D01*
X1976225Y1697413D02*
X1982617D01*
X1975870Y1697058D02*
X1982617D01*
X1975392Y1696704D02*
X1982617D01*
X1974659Y1696350D02*
X1982617D01*
X1969301Y1695995D02*
X1982617D01*
X1969301Y1695641D02*
X1982617D01*
X1969301Y1695287D02*
X1982617D01*
X1969301Y1694932D02*
X1982617D01*
X1969301Y1694578D02*
X1982617D01*
X1969301Y1694224D02*
X1982617D01*
X1969301Y1693869D02*
X1982617D01*
X1974336Y1693515D02*
X1982617D01*
X1975225Y1693161D02*
X1982617D01*
X1975752Y1692806D02*
X1982617D01*
X1976135Y1692452D02*
X1982617D01*
X1976430Y1692098D02*
X1982617D01*
X1976660Y1691743D02*
X1982617D01*
X1976838Y1691389D02*
X1982617D01*
X1976972Y1691035D02*
X1982617D01*
X1977068Y1690680D02*
X1982617D01*
X1977127Y1690326D02*
X1982617D01*
X1977153Y1689972D02*
X1982617D01*
X1977144Y1689617D02*
X1982617D01*
X1977102Y1689263D02*
X1982617D01*
X1977025Y1688909D02*
X1982617D01*
X1976910Y1688554D02*
X1982617D01*
X1976755Y1688200D02*
X1982617D01*
X1976552Y1687846D02*
X1982617D01*
X1976292Y1687491D02*
X1982617D01*
X1975957Y1687137D02*
X1982617D01*
X1975513Y1686783D02*
X1982617D01*
X1974862Y1686428D02*
X1982617D01*
X1969301Y1686074D02*
X1982617D01*
X1969301Y1685720D02*
X1982617D01*
X1969301Y1685365D02*
X1982617D01*
X1969301Y1685011D02*
X1982617D01*
X1969301Y1684657D02*
X1982617D01*
X1969301Y1684302D02*
X1982617D01*
X1969301Y1683948D02*
X1982617D01*
X1973943Y1683594D02*
X1982617D01*
X1975076Y1683239D02*
X1982617D01*
X1975651Y1682885D02*
X1982617D01*
X1976059Y1682531D02*
X1982617D01*
X1976370Y1682176D02*
X1982617D01*
X1976613Y1681822D02*
X1982617D01*
X1976802Y1681468D02*
X1982617D01*
X1976946Y1681113D02*
X1982617D01*
X1977050Y1680759D02*
X1982617D01*
X1977117Y1680405D02*
X1982617D01*
X1977150Y1680050D02*
X1982617D01*
X1977149Y1679696D02*
X1982617D01*
X1977114Y1679342D02*
X1982617D01*
X1977045Y1678987D02*
X1982617D01*
X1976939Y1678633D02*
X1982617D01*
X1976793Y1678279D02*
X1982617D01*
X1976601Y1677924D02*
X1982617D01*
X1976355Y1677570D02*
X1982617D01*
X1976039Y1677216D02*
X1982617D01*
X1975624Y1676861D02*
X1982617D01*
X1975036Y1676507D02*
X1982617D01*
X1973785Y1676153D02*
X1982617D01*
X1969301Y1675798D02*
X1982617D01*
X1969301Y1675444D02*
X1982617D01*
X1969301Y1675090D02*
X1982617D01*
X1969301Y1674735D02*
X1982617D01*
X1969301Y1674381D02*
X1982617D01*
X1969301Y1674027D02*
X1982617D01*
X1969301Y1673672D02*
X1982617D01*
X1974907Y1673318D02*
X1982617D01*
X1975541Y1672964D02*
X1982617D01*
X1975978Y1672609D02*
X1982617D01*
X1976308Y1672255D02*
X1982617D01*
X1976564Y1671901D02*
X1982617D01*
X1976764Y1671546D02*
X1982617D01*
X1976918Y1671192D02*
X1982617D01*
X1977030Y1670838D02*
X1982617D01*
X1977105Y1670483D02*
X1982617D01*
X1977146Y1670129D02*
X1982617D01*
X1977152Y1669775D02*
X1982617D01*
X1977125Y1669421D02*
X1982617D01*
X1977064Y1669066D02*
X1982617D01*
X1976966Y1668712D02*
X1982617D01*
X1976829Y1668358D02*
X1982617D01*
X1976648Y1668003D02*
X1982617D01*
X1976415Y1667649D02*
X1982617D01*
X1976117Y1667295D02*
X1982617D01*
X1975728Y1666940D02*
X1982617D01*
X1975190Y1666586D02*
X1982617D01*
X1974256Y1666232D02*
X1982617D01*
X1969301Y1665877D02*
X1982617D01*
X1969301Y1665523D02*
X1982617D01*
X1969301Y1665169D02*
X1982617D01*
X1969301Y1664814D02*
X1982617D01*
X1969301Y1664460D02*
X1982617D01*
X1969301Y1664106D02*
X1982617D01*
X1969301Y1663751D02*
X1982617D01*
X1976403Y1752334D02*
X1982568D01*
X1976735Y1648161D02*
X1982032D01*
X1976985Y1650995D02*
X1981478D01*
X1976895Y1648515D02*
X1981346D01*
X1977076Y1650641D02*
X1981117D01*
X1977014Y1648869D02*
X1981047D01*
X1977132Y1650287D02*
X1980921D01*
X1977095Y1649224D02*
X1980884D01*
X1977153Y1649932D02*
X1980826D01*
X1977141Y1649578D02*
X1980815D01*
X1969301Y1676153D02*
X1973023D01*
X1969301Y1586153D02*
X1973023D01*
X1969301Y1683594D02*
X1972865D01*
X1969301Y1593594D02*
X1972865D01*
X1969301Y1716192D02*
X1972743D01*
X1969301Y1733554D02*
X1972642D01*
X1969301Y1643554D02*
X1972642D01*
X1969301Y1666232D02*
X1972552D01*
X1969301Y1576232D02*
X1972552D01*
X1969301Y1693515D02*
X1972472D01*
X1969301Y1603515D02*
X1972472D01*
X1969301Y1706271D02*
X1972398D01*
X1969301Y1616271D02*
X1972398D01*
X1969301Y1743476D02*
X1972330D01*
X1969301Y1653476D02*
X1972330D01*
X1969301Y1746310D02*
X1972266D01*
X1969301Y1656310D02*
X1972266D01*
X1969301Y1703436D02*
X1972206D01*
X1969301Y1613436D02*
X1972206D01*
X1969301Y1696350D02*
X1972149D01*
X1969301Y1606350D02*
X1972149D01*
X1969301Y1663397D02*
X1972095D01*
X1969301Y1736389D02*
X1972043D01*
X1969301Y1646389D02*
X1972043D01*
X1969301Y1713358D02*
X1971994D01*
X1969301Y1623358D02*
X1971994D01*
X1969301Y1686428D02*
X1971946D01*
X1969301Y1596428D02*
X1971946D01*
X1969301Y1673318D02*
X1971901D01*
X1969301Y1583318D02*
X1971901D01*
X1969301Y1726468D02*
X1971856D01*
X1969301Y1636468D02*
X1971856D01*
X1969301Y1723279D02*
X1971814D01*
X1969301Y1676507D02*
X1971772D01*
X1969301Y1586507D02*
X1971772D01*
X1969301Y1683239D02*
X1971732D01*
X1969301Y1593239D02*
X1971732D01*
X1969301Y1716546D02*
X1971693D01*
X1969301Y1733200D02*
X1971656D01*
X1969301Y1643200D02*
X1971656D01*
X1969301Y1666586D02*
X1971618D01*
X1969301Y1576586D02*
X1971618D01*
X1969301Y1693161D02*
X1971583D01*
X1969301Y1603161D02*
X1971583D01*
X1969301Y1706625D02*
X1971547D01*
X1969301Y1616625D02*
X1971547D01*
X1969301Y1743121D02*
X1971514D01*
X1969301Y1653121D02*
X1971514D01*
X1969301Y1746665D02*
X1971480D01*
X1969301Y1656665D02*
X1971480D01*
X1969301Y1703082D02*
X1971448D01*
X1969301Y1613082D02*
X1971448D01*
X1969301Y1696704D02*
X1971416D01*
X1969301Y1606704D02*
X1971416D01*
X1969301Y1663043D02*
X1971385D01*
X1969301Y1736743D02*
X1971354D01*
X1969301Y1646743D02*
X1971354D01*
X1969301Y1713003D02*
X1971325D01*
X1969301Y1623003D02*
X1971325D01*
X1969301Y1686783D02*
X1971295D01*
X1969301Y1596783D02*
X1971295D01*
X1969301Y1672964D02*
X1971267D01*
X1969301Y1582964D02*
X1971267D01*
X1969301Y1726822D02*
X1971238D01*
X1969301Y1636822D02*
X1971238D01*
X1969301Y1722924D02*
X1971211D01*
X1969301Y1676861D02*
X1971184D01*
X1969301Y1586861D02*
X1971184D01*
X1969301Y1682885D02*
X1971157D01*
X1969301Y1592885D02*
X1971157D01*
X1969301Y1716901D02*
X1971131D01*
X1969301Y1732846D02*
X1971106D01*
X1969301Y1642846D02*
X1971106D01*
X1969301Y1666940D02*
X1971080D01*
X1969301Y1576940D02*
X1971080D01*
X1969301Y1692806D02*
X1971056D01*
X1969301Y1602806D02*
X1971056D01*
X1969301Y1706980D02*
X1971031D01*
X1969301Y1616980D02*
X1971031D01*
X1969301Y1742767D02*
X1971008D01*
X1969301Y1652767D02*
X1971008D01*
X1969301Y1747019D02*
X1970984D01*
X1969301Y1657019D02*
X1970984D01*
X1969301Y1702728D02*
X1970961D01*
X1969301Y1612728D02*
X1970961D01*
X1969301Y1697058D02*
X1970938D01*
X1969301Y1607058D02*
X1970938D01*
X1969301Y1662688D02*
X1970916D01*
X1969301Y1737098D02*
X1970894D01*
X1969301Y1647098D02*
X1970894D01*
X1969301Y1712649D02*
X1970872D01*
X1969301Y1622649D02*
X1970872D01*
X1969301Y1687137D02*
X1970851D01*
X1969301Y1597137D02*
X1970851D01*
X1969301Y1672609D02*
X1970830D01*
X1969301Y1582609D02*
X1970830D01*
X1969301Y1727176D02*
X1970809D01*
X1969301Y1637176D02*
X1970809D01*
X1969301Y1722570D02*
X1970789D01*
X1969301Y1677216D02*
X1970769D01*
X1969301Y1587216D02*
X1970769D01*
X1969301Y1682531D02*
X1970749D01*
X1969301Y1592531D02*
X1970749D01*
X1969301Y1717255D02*
X1970729D01*
X1969301Y1732491D02*
X1970710D01*
X1969301Y1642491D02*
X1970710D01*
X1969301Y1667295D02*
X1970691D01*
X1969301Y1577295D02*
X1970691D01*
X1969301Y1692452D02*
X1970673D01*
X1969301Y1602452D02*
X1970673D01*
X1969301Y1707334D02*
X1970654D01*
X1969301Y1617334D02*
X1970654D01*
X1969301Y1742413D02*
X1970636D01*
X1969301Y1652413D02*
X1970636D01*
X1969301Y1747373D02*
X1970618D01*
X1969301Y1657373D02*
X1970618D01*
X1969301Y1702373D02*
X1970601D01*
X1969301Y1612373D02*
X1970601D01*
X1969301Y1697413D02*
X1970583D01*
X1969301Y1607413D02*
X1970583D01*
X1969301Y1662334D02*
X1970566D01*
X1969301Y1737452D02*
X1970549D01*
X1969301Y1647452D02*
X1970549D01*
X1969301Y1712295D02*
X1970533D01*
X1969301Y1622295D02*
X1970533D01*
X1969301Y1687491D02*
X1970516D01*
X1969301Y1597491D02*
X1970516D01*
X1969301Y1672255D02*
X1970500D01*
X1969301Y1582255D02*
X1970500D01*
X1969301Y1727531D02*
X1970484D01*
X1969301Y1637531D02*
X1970484D01*
X1969301Y1722216D02*
X1970468D01*
X1969301Y1677570D02*
X1970453D01*
X1969301Y1587570D02*
X1970453D01*
X1969301Y1682176D02*
X1970438D01*
X1969301Y1592176D02*
X1970438D01*
X1969301Y1717609D02*
X1970422D01*
X1969301Y1732137D02*
X1970408D01*
X1969301Y1642137D02*
X1970408D01*
X1969301Y1752334D02*
X1970405D01*
X1969301Y1667649D02*
X1970393D01*
X1969301Y1577649D02*
X1970393D01*
X1969301Y1692098D02*
X1970378D01*
X1969301Y1602098D02*
X1970378D01*
X1969301Y1707688D02*
X1970364D01*
X1969301Y1617688D02*
X1970364D01*
X1969301Y1742058D02*
X1970350D01*
X1969301Y1652058D02*
X1970350D01*
X1969301Y1747728D02*
X1970336D01*
X1969301Y1657728D02*
X1970336D01*
X1969301Y1702019D02*
X1970322D01*
X1969301Y1612019D02*
X1970322D01*
X1969301Y1697767D02*
X1970309D01*
X1969301Y1607767D02*
X1970309D01*
X1969301Y1751980D02*
X1970295D01*
X1969301Y1661980D02*
X1970295D01*
X1969301Y1737806D02*
X1970282D01*
X1969301Y1647806D02*
X1970282D01*
X1969301Y1711940D02*
X1970269D01*
X1969301Y1621940D02*
X1970269D01*
X1969301Y1687846D02*
X1970256D01*
X1969301Y1597846D02*
X1970256D01*
X1969301Y1671901D02*
X1970244D01*
X1969301Y1581901D02*
X1970244D01*
X1969301Y1727885D02*
X1970231D01*
X1969301Y1637885D02*
X1970231D01*
X1969301Y1721861D02*
X1970219D01*
X1969301Y1677924D02*
X1970207D01*
X1969301Y1587924D02*
X1970207D01*
X1969301Y1681822D02*
X1970195D01*
X1969301Y1591822D02*
X1970195D01*
X1969301Y1717964D02*
X1970183D01*
X1969301Y1731783D02*
X1970171D01*
X1969301Y1641783D02*
X1970171D01*
X1969301Y1668003D02*
X1970160D01*
X1969301Y1578003D02*
X1970160D01*
X1969301Y1691743D02*
X1970148D01*
X1969301Y1601743D02*
X1970148D01*
X1969301Y1708043D02*
X1970137D01*
X1969301Y1618043D02*
X1970137D01*
X1969301Y1741704D02*
X1970126D01*
X1969301Y1651704D02*
X1970126D01*
X1969301Y1748082D02*
X1970115D01*
X1969301Y1658082D02*
X1970115D01*
X1969301Y1701665D02*
X1970105D01*
X1969301Y1611665D02*
X1970105D01*
X1969301Y1698121D02*
X1970094D01*
X1969301Y1608121D02*
X1970094D01*
X1969301Y1751625D02*
X1970084D01*
X1969301Y1661625D02*
X1970084D01*
X1969301Y1738161D02*
X1970073D01*
X1969301Y1648161D02*
X1970073D01*
X1969301Y1711586D02*
X1970063D01*
X1969301Y1621586D02*
X1970063D01*
X1969301Y1688200D02*
X1970053D01*
X1969301Y1598200D02*
X1970053D01*
X1969301Y1671546D02*
X1970044D01*
X1969301Y1581546D02*
X1970044D01*
X1969301Y1728239D02*
X1970034D01*
X1969301Y1638239D02*
X1970034D01*
X1969301Y1721507D02*
X1970024D01*
X1969301Y1678279D02*
X1970015D01*
X1969301Y1588279D02*
X1970015D01*
X1969301Y1681468D02*
X1970006D01*
X1969301Y1591468D02*
X1970006D01*
X1969301Y1718318D02*
X1969997D01*
X1969301Y1731428D02*
X1969988D01*
X1969301Y1641428D02*
X1969988D01*
X1969301Y1668358D02*
X1969979D01*
X1969301Y1578358D02*
X1969979D01*
X1969301Y1691389D02*
X1969970D01*
X1969301Y1601389D02*
X1969970D01*
X1969301Y1708397D02*
X1969961D01*
X1969301Y1618397D02*
X1969961D01*
X1969301Y1741350D02*
X1969953D01*
X1969301Y1651350D02*
X1969953D01*
X1969301Y1748436D02*
X1969945D01*
X1969301Y1658436D02*
X1969945D01*
X1969301Y1701310D02*
X1969937D01*
X1969301Y1611310D02*
X1969937D01*
X1969301Y1698476D02*
X1969929D01*
X1969301Y1608476D02*
X1969929D01*
X1969301Y1751271D02*
X1969921D01*
X1969301Y1661271D02*
X1969921D01*
X1969301Y1738515D02*
X1969913D01*
X1969301Y1648515D02*
X1969913D01*
X1969301Y1711232D02*
X1969905D01*
X1969301Y1621232D02*
X1969905D01*
X1969301Y1688554D02*
X1969898D01*
X1969301Y1598554D02*
X1969898D01*
X1969301Y1671192D02*
X1969890D01*
X1969301Y1581192D02*
X1969890D01*
X1969301Y1728594D02*
X1969883D01*
X1969301Y1638594D02*
X1969883D01*
X1969301Y1721153D02*
X1969876D01*
X1969301Y1678633D02*
X1969869D01*
X1969301Y1588633D02*
X1969869D01*
X1969301Y1681113D02*
X1969862D01*
X1969301Y1591113D02*
X1969862D01*
X1969301Y1718672D02*
X1969855D01*
X1969301Y1731074D02*
X1969849D01*
X1969301Y1641074D02*
X1969849D01*
X1969301Y1668712D02*
X1969842D01*
X1969301Y1578712D02*
X1969842D01*
X1969301Y1691035D02*
X1969836D01*
X1969301Y1601035D02*
X1969836D01*
X1969301Y1708751D02*
X1969829D01*
X1969301Y1618751D02*
X1969829D01*
X1969301Y1740995D02*
X1969823D01*
X1969301Y1650995D02*
X1969823D01*
X1969301Y1748791D02*
X1969817D01*
X1969301Y1658791D02*
X1969817D01*
X1969301Y1700956D02*
X1969811D01*
X1969301Y1610956D02*
X1969811D01*
X1969301Y1698830D02*
X1969805D01*
X1969301Y1608830D02*
X1969805D01*
X1969301Y1750917D02*
X1969800D01*
X1969301Y1660917D02*
X1969800D01*
X1969301Y1738869D02*
X1969794D01*
X1969301Y1648869D02*
X1969794D01*
X1969301Y1710877D02*
X1969789D01*
X1969301Y1620877D02*
X1969789D01*
X1969301Y1688909D02*
X1969783D01*
X1969301Y1598909D02*
X1969783D01*
X1969301Y1670838D02*
X1969778D01*
X1969301Y1580838D02*
X1969778D01*
X1969301Y1728948D02*
X1969773D01*
X1969301Y1638948D02*
X1969773D01*
X1969301Y1720798D02*
X1969768D01*
X1969301Y1678987D02*
X1969763D01*
X1969301Y1588987D02*
X1969763D01*
X1969301Y1680759D02*
X1969758D01*
X1969301Y1590759D02*
X1969758D01*
X1969301Y1719027D02*
X1969753D01*
X1969301Y1730720D02*
X1969749D01*
X1969301Y1640720D02*
X1969749D01*
X1969301Y1669066D02*
X1969744D01*
X1969301Y1579066D02*
X1969744D01*
X1969301Y1690680D02*
X1969740D01*
X1969301Y1600680D02*
X1969740D01*
X1969301Y1709106D02*
X1969736D01*
X1969301Y1619106D02*
X1969736D01*
X1969301Y1740641D02*
X1969732D01*
X1969301Y1650641D02*
X1969732D01*
X1969301Y1749145D02*
X1969728D01*
X1969301Y1659145D02*
X1969728D01*
X1969301Y1700602D02*
X1969724D01*
X1969301Y1610602D02*
X1969724D01*
X1969301Y1699184D02*
X1969720D01*
X1969301Y1609184D02*
X1969720D01*
X1969301Y1750562D02*
X1969716D01*
X1969301Y1660562D02*
X1969716D01*
X1969301Y1739224D02*
X1969713D01*
X1969301Y1649224D02*
X1969713D01*
X1969301Y1710523D02*
X1969709D01*
X1969301Y1620523D02*
X1969709D01*
X1969301Y1689263D02*
X1969706D01*
X1969301Y1599263D02*
X1969706D01*
X1969301Y1670483D02*
X1969703D01*
X1969301Y1580483D02*
X1969703D01*
X1969301Y1729302D02*
X1969700D01*
X1969301Y1639302D02*
X1969700D01*
X1969301Y1720444D02*
X1969697D01*
X1969301Y1679342D02*
X1969694D01*
X1969301Y1589342D02*
X1969694D01*
X1969301Y1680405D02*
X1969691D01*
X1969301Y1590405D02*
X1969691D01*
X1969301Y1719381D02*
X1969688D01*
X1969301Y1730365D02*
X1969686D01*
X1969301Y1640365D02*
X1969686D01*
X1969301Y1669421D02*
X1969683D01*
X1969301Y1579421D02*
X1969683D01*
X1969301Y1690326D02*
X1969681D01*
X1969301Y1600326D02*
X1969681D01*
X1969301Y1709460D02*
X1969678D01*
X1969301Y1619460D02*
X1969678D01*
X1969301Y1740287D02*
X1969676D01*
X1969301Y1650287D02*
X1969676D01*
X1969301Y1749499D02*
X1969674D01*
X1969301Y1659499D02*
X1969674D01*
X1969301Y1700247D02*
X1969672D01*
X1969301Y1610247D02*
X1969672D01*
X1969301Y1699539D02*
X1969670D01*
X1969301Y1609539D02*
X1969670D01*
X1969301Y1750208D02*
X1969668D01*
X1969301Y1660208D02*
X1969668D01*
X1969301Y1739578D02*
X1969667D01*
X1969301Y1649578D02*
X1969667D01*
X1969301Y1710169D02*
X1969665D01*
X1969301Y1620169D02*
X1969665D01*
X1969301Y1689617D02*
X1969664D01*
X1969301Y1599617D02*
X1969664D01*
X1969301Y1670129D02*
X1969662D01*
X1969301Y1580129D02*
X1969662D01*
X1969301Y1729657D02*
X1969661D01*
X1969301Y1639657D02*
X1969661D01*
X1969301Y1720090D02*
X1969660D01*
X1969301Y1679696D02*
X1969659D01*
X1969301Y1589696D02*
X1969659D01*
X1969301Y1680050D02*
X1969658D01*
X1969301Y1590050D02*
X1969658D01*
X1969301Y1719735D02*
X1969657D01*
X1969301Y1730011D02*
X1969657D01*
X1969301Y1640011D02*
X1969657D01*
X1969301Y1669775D02*
X1969656D01*
X1969301Y1579775D02*
X1969656D01*
X1969301Y1689972D02*
X1969655D01*
X1969301Y1599972D02*
X1969655D01*
X1969301Y1709814D02*
X1969655D01*
X1969301Y1619814D02*
X1969655D01*
X1969301Y1739932D02*
X1969655D01*
X1969301Y1649932D02*
X1969655D01*
X1969301Y1749854D02*
X1969654D01*
X1969301Y1659854D02*
X1969654D01*
X1969301Y1699893D02*
X1969654D01*
X1969301Y1609893D02*
X1969654D01*
X1968504Y1764783D02*
X2078304D01*
Y1574803*
X1968504*
Y1764783*
G54D70*
X1973404Y1759883D03*
Y1749883D03*
Y1739883D03*
Y1729883D03*
Y1719883D03*
Y1709883D03*
Y1699883D03*
Y1689883D03*
Y1679883D03*
Y1669883D03*
Y1659883D03*
Y1649883D03*
Y1639883D03*
Y1629883D03*
Y1619883D03*
Y1609883D03*
Y1599883D03*
Y1589883D03*
Y1579883D03*
X2073404Y1759883D03*
Y1749883D03*
Y1739883D03*
Y1729883D03*
Y1719883D03*
Y1709883D03*
Y1699883D03*
Y1689883D03*
Y1679883D03*
Y1669883D03*
Y1659883D03*
Y1649883D03*
Y1639883D03*
Y1629883D03*
Y1619883D03*
Y1609883D03*
Y1599883D03*
Y1589883D03*
Y1579883D03*
G54D146*
X2009624Y1582063D03*
X2037184D03*
X2009624Y1596630D03*
X2037184D03*
G74*
X0Y0D02*
M02*
