G04 #@! TF.FileFunction,Legend,Top*
%FSLAX46Y46*%
G04 Gerber Fmt 4.6, Leading zero omitted, Abs format (unit mm)*
G04 Created by KiCad (PCBNEW 4.0.6) date 06/27/17 09:44:02*
%MOMM*%
%LPD*%
G01*
G04 APERTURE LIST*
%ADD10C,0.100000*%
%ADD11C,0.120000*%
%ADD12C,0.200000*%
%ADD13C,0.300000*%
%ADD14C,0.150000*%
G04 APERTURE END LIST*
D10*
D11*
X89257619Y-128890119D02*
X89257619Y-128413928D01*
X90257619Y-128413928D01*
X89781429Y-129556786D02*
X89733810Y-129699643D01*
X89686190Y-129747262D01*
X89590952Y-129794881D01*
X89448095Y-129794881D01*
X89352857Y-129747262D01*
X89305238Y-129699643D01*
X89257619Y-129604405D01*
X89257619Y-129223452D01*
X90257619Y-129223452D01*
X90257619Y-129556786D01*
X90210000Y-129652024D01*
X90162381Y-129699643D01*
X90067143Y-129747262D01*
X89971905Y-129747262D01*
X89876667Y-129699643D01*
X89829048Y-129652024D01*
X89781429Y-129556786D01*
X89781429Y-129223452D01*
X89257619Y-130223452D02*
X90257619Y-130223452D01*
X89257619Y-130794881D01*
X90257619Y-130794881D01*
X89352857Y-131842500D02*
X89305238Y-131794881D01*
X89257619Y-131652024D01*
X89257619Y-131556786D01*
X89305238Y-131413928D01*
X89400476Y-131318690D01*
X89495714Y-131271071D01*
X89686190Y-131223452D01*
X89829048Y-131223452D01*
X90019524Y-131271071D01*
X90114762Y-131318690D01*
X90210000Y-131413928D01*
X90257619Y-131556786D01*
X90257619Y-131652024D01*
X90210000Y-131794881D01*
X90162381Y-131842500D01*
X89305238Y-132318690D02*
X89257619Y-132318690D01*
X89162381Y-132271071D01*
X89114762Y-132223452D01*
X89781429Y-133509166D02*
X89781429Y-133842500D01*
X89257619Y-133985357D02*
X89257619Y-133509166D01*
X90257619Y-133509166D01*
X90257619Y-133985357D01*
X89257619Y-134413928D02*
X90257619Y-134413928D01*
X90257619Y-134794881D01*
X90210000Y-134890119D01*
X90162381Y-134937738D01*
X90067143Y-134985357D01*
X89924286Y-134985357D01*
X89829048Y-134937738D01*
X89781429Y-134890119D01*
X89733810Y-134794881D01*
X89733810Y-134413928D01*
X89781429Y-135747262D02*
X89781429Y-135413928D01*
X89257619Y-135413928D02*
X90257619Y-135413928D01*
X90257619Y-135890119D01*
X89257619Y-136747262D02*
X89257619Y-136271071D01*
X90257619Y-136271071D01*
X87685238Y-123842499D02*
X87637619Y-123985356D01*
X87637619Y-124223452D01*
X87685238Y-124318690D01*
X87732857Y-124366309D01*
X87828095Y-124413928D01*
X87923333Y-124413928D01*
X88018571Y-124366309D01*
X88066190Y-124318690D01*
X88113810Y-124223452D01*
X88161429Y-124032975D01*
X88209048Y-123937737D01*
X88256667Y-123890118D01*
X88351905Y-123842499D01*
X88447143Y-123842499D01*
X88542381Y-123890118D01*
X88590000Y-123937737D01*
X88637619Y-124032975D01*
X88637619Y-124271071D01*
X88590000Y-124413928D01*
X87685238Y-125223452D02*
X87637619Y-125128214D01*
X87637619Y-124937737D01*
X87685238Y-124842499D01*
X87780476Y-124794880D01*
X88161429Y-124794880D01*
X88256667Y-124842499D01*
X88304286Y-124937737D01*
X88304286Y-125128214D01*
X88256667Y-125223452D01*
X88161429Y-125271071D01*
X88066190Y-125271071D01*
X87970952Y-124794880D01*
X88304286Y-125699642D02*
X87637619Y-125699642D01*
X88209048Y-125699642D02*
X88256667Y-125747261D01*
X88304286Y-125842499D01*
X88304286Y-125985357D01*
X88256667Y-126080595D01*
X88161429Y-126128214D01*
X87637619Y-126128214D01*
X88304286Y-126509166D02*
X87637619Y-126747261D01*
X88304286Y-126985357D02*
X87637619Y-126747261D01*
X87399524Y-126652023D01*
X87351905Y-126604404D01*
X87304286Y-126509166D01*
X87637619Y-127509166D02*
X87685238Y-127413928D01*
X87732857Y-127366309D01*
X87828095Y-127318690D01*
X88113810Y-127318690D01*
X88209048Y-127366309D01*
X88256667Y-127413928D01*
X88304286Y-127509166D01*
X88304286Y-127652024D01*
X88256667Y-127747262D01*
X88209048Y-127794881D01*
X88113810Y-127842500D01*
X87828095Y-127842500D01*
X87732857Y-127794881D01*
X87685238Y-127747262D01*
X87637619Y-127652024D01*
X87637619Y-127509166D01*
X87637619Y-129509167D02*
X87637619Y-129032976D01*
X88637619Y-129032976D01*
X87637619Y-130271072D02*
X88161429Y-130271072D01*
X88256667Y-130223453D01*
X88304286Y-130128215D01*
X88304286Y-129937738D01*
X88256667Y-129842500D01*
X87685238Y-130271072D02*
X87637619Y-130175834D01*
X87637619Y-129937738D01*
X87685238Y-129842500D01*
X87780476Y-129794881D01*
X87875714Y-129794881D01*
X87970952Y-129842500D01*
X88018571Y-129937738D01*
X88018571Y-130175834D01*
X88066190Y-130271072D01*
X87637619Y-130747262D02*
X88637619Y-130747262D01*
X88256667Y-130747262D02*
X88304286Y-130842500D01*
X88304286Y-131032977D01*
X88256667Y-131128215D01*
X88209048Y-131175834D01*
X88113810Y-131223453D01*
X87828095Y-131223453D01*
X87732857Y-131175834D01*
X87685238Y-131128215D01*
X87637619Y-131032977D01*
X87637619Y-130842500D01*
X87685238Y-130747262D01*
X87685238Y-131699643D02*
X87637619Y-131699643D01*
X87542381Y-131652024D01*
X87494762Y-131604405D01*
X87732857Y-133461548D02*
X87685238Y-133413929D01*
X87637619Y-133271072D01*
X87637619Y-133175834D01*
X87685238Y-133032976D01*
X87780476Y-132937738D01*
X87875714Y-132890119D01*
X88066190Y-132842500D01*
X88209048Y-132842500D01*
X88399524Y-132890119D01*
X88494762Y-132937738D01*
X88590000Y-133032976D01*
X88637619Y-133175834D01*
X88637619Y-133271072D01*
X88590000Y-133413929D01*
X88542381Y-133461548D01*
X88637619Y-133794881D02*
X87637619Y-134032976D01*
X88351905Y-134223453D01*
X87637619Y-134413929D01*
X88637619Y-134652024D01*
X87637619Y-135604405D02*
X88113810Y-135271071D01*
X87637619Y-135032976D02*
X88637619Y-135032976D01*
X88637619Y-135413929D01*
X88590000Y-135509167D01*
X88542381Y-135556786D01*
X88447143Y-135604405D01*
X88304286Y-135604405D01*
X88209048Y-135556786D01*
X88161429Y-135509167D01*
X88113810Y-135413929D01*
X88113810Y-135032976D01*
X88637619Y-136032976D02*
X87828095Y-136032976D01*
X87732857Y-136080595D01*
X87685238Y-136128214D01*
X87637619Y-136223452D01*
X87637619Y-136413929D01*
X87685238Y-136509167D01*
X87732857Y-136556786D01*
X87828095Y-136604405D01*
X88637619Y-136604405D01*
D12*
X148209096Y-93035500D02*
X148113858Y-92987881D01*
X147971001Y-92987881D01*
X147828143Y-93035500D01*
X147732905Y-93130738D01*
X147685286Y-93225976D01*
X147637667Y-93416452D01*
X147637667Y-93559310D01*
X147685286Y-93749786D01*
X147732905Y-93845024D01*
X147828143Y-93940262D01*
X147971001Y-93987881D01*
X148066239Y-93987881D01*
X148209096Y-93940262D01*
X148256715Y-93892643D01*
X148256715Y-93559310D01*
X148066239Y-93559310D01*
X148685286Y-93987881D02*
X148685286Y-92987881D01*
X149256715Y-93987881D01*
X149256715Y-92987881D01*
X149732905Y-93987881D02*
X149732905Y-92987881D01*
X149971000Y-92987881D01*
X150113858Y-93035500D01*
X150209096Y-93130738D01*
X150256715Y-93225976D01*
X150304334Y-93416452D01*
X150304334Y-93559310D01*
X150256715Y-93749786D01*
X150209096Y-93845024D01*
X150113858Y-93940262D01*
X149971000Y-93987881D01*
X149732905Y-93987881D01*
X147209095Y-95511929D02*
X147971000Y-95511929D01*
X147590048Y-95892881D02*
X147590048Y-95130976D01*
X148971000Y-95892881D02*
X148399571Y-95892881D01*
X148685285Y-95892881D02*
X148685285Y-94892881D01*
X148590047Y-95035738D01*
X148494809Y-95130976D01*
X148399571Y-95178595D01*
X149351952Y-94988119D02*
X149399571Y-94940500D01*
X149494809Y-94892881D01*
X149732905Y-94892881D01*
X149828143Y-94940500D01*
X149875762Y-94988119D01*
X149923381Y-95083357D01*
X149923381Y-95178595D01*
X149875762Y-95321452D01*
X149304333Y-95892881D01*
X149923381Y-95892881D01*
X150209095Y-94892881D02*
X150542428Y-95892881D01*
X150875762Y-94892881D01*
D11*
X104640762Y-112260071D02*
X104974096Y-112260071D01*
X105116953Y-112783881D02*
X104640762Y-112783881D01*
X104640762Y-111783881D01*
X105116953Y-111783881D01*
X105497905Y-112736262D02*
X105640762Y-112783881D01*
X105878858Y-112783881D01*
X105974096Y-112736262D01*
X106021715Y-112688643D01*
X106069334Y-112593405D01*
X106069334Y-112498167D01*
X106021715Y-112402929D01*
X105974096Y-112355310D01*
X105878858Y-112307690D01*
X105688381Y-112260071D01*
X105593143Y-112212452D01*
X105545524Y-112164833D01*
X105497905Y-112069595D01*
X105497905Y-111974357D01*
X105545524Y-111879119D01*
X105593143Y-111831500D01*
X105688381Y-111783881D01*
X105926477Y-111783881D01*
X106069334Y-111831500D01*
X106497905Y-112783881D02*
X106497905Y-111783881D01*
X106878858Y-111783881D01*
X106974096Y-111831500D01*
X107021715Y-111879119D01*
X107069334Y-111974357D01*
X107069334Y-112117214D01*
X107021715Y-112212452D01*
X106974096Y-112260071D01*
X106878858Y-112307690D01*
X106497905Y-112307690D01*
X107402667Y-111783881D02*
X108021715Y-111783881D01*
X107688381Y-112164833D01*
X107831239Y-112164833D01*
X107926477Y-112212452D01*
X107974096Y-112260071D01*
X108021715Y-112355310D01*
X108021715Y-112593405D01*
X107974096Y-112688643D01*
X107926477Y-112736262D01*
X107831239Y-112783881D01*
X107545524Y-112783881D01*
X107450286Y-112736262D01*
X107402667Y-112688643D01*
X108402667Y-111879119D02*
X108450286Y-111831500D01*
X108545524Y-111783881D01*
X108783620Y-111783881D01*
X108878858Y-111831500D01*
X108926477Y-111879119D01*
X108974096Y-111974357D01*
X108974096Y-112069595D01*
X108926477Y-112212452D01*
X108355048Y-112783881D01*
X108974096Y-112783881D01*
X109402667Y-112402929D02*
X110164572Y-112402929D01*
X110640762Y-112783881D02*
X110640762Y-111783881D01*
X110878857Y-111783881D01*
X111021715Y-111831500D01*
X111116953Y-111926738D01*
X111164572Y-112021976D01*
X111212191Y-112212452D01*
X111212191Y-112355310D01*
X111164572Y-112545786D01*
X111116953Y-112641024D01*
X111021715Y-112736262D01*
X110878857Y-112783881D01*
X110640762Y-112783881D01*
X112021715Y-112736262D02*
X111926477Y-112783881D01*
X111736000Y-112783881D01*
X111640762Y-112736262D01*
X111593143Y-112641024D01*
X111593143Y-112260071D01*
X111640762Y-112164833D01*
X111736000Y-112117214D01*
X111926477Y-112117214D01*
X112021715Y-112164833D01*
X112069334Y-112260071D01*
X112069334Y-112355310D01*
X111593143Y-112450548D01*
X112402667Y-112117214D02*
X112640762Y-112783881D01*
X112878858Y-112117214D01*
X113259810Y-112783881D02*
X113259810Y-111783881D01*
X113831239Y-112783881D02*
X113402667Y-112212452D01*
X113831239Y-111783881D02*
X113259810Y-112355310D01*
X114259810Y-112783881D02*
X114259810Y-112117214D01*
X114259810Y-111783881D02*
X114212191Y-111831500D01*
X114259810Y-111879119D01*
X114307429Y-111831500D01*
X114259810Y-111783881D01*
X114259810Y-111879119D01*
X114593143Y-112117214D02*
X114974095Y-112117214D01*
X114736000Y-111783881D02*
X114736000Y-112641024D01*
X114783619Y-112736262D01*
X114878857Y-112783881D01*
X114974095Y-112783881D01*
X115878858Y-112688643D02*
X115831239Y-112736262D01*
X115688382Y-112783881D01*
X115593144Y-112783881D01*
X115450286Y-112736262D01*
X115355048Y-112641024D01*
X115307429Y-112545786D01*
X115259810Y-112355310D01*
X115259810Y-112212452D01*
X115307429Y-112021976D01*
X115355048Y-111926738D01*
X115450286Y-111831500D01*
X115593144Y-111783881D01*
X115688382Y-111783881D01*
X115831239Y-111831500D01*
X115878858Y-111879119D01*
X90385119Y-95869095D02*
X91385119Y-95869095D01*
X90670833Y-96202429D01*
X91385119Y-96535762D01*
X90385119Y-96535762D01*
X90385119Y-97011952D02*
X91051786Y-97011952D01*
X91385119Y-97011952D02*
X91337500Y-96964333D01*
X91289881Y-97011952D01*
X91337500Y-97059571D01*
X91385119Y-97011952D01*
X91289881Y-97011952D01*
X90432738Y-97916714D02*
X90385119Y-97821476D01*
X90385119Y-97630999D01*
X90432738Y-97535761D01*
X90480357Y-97488142D01*
X90575595Y-97440523D01*
X90861310Y-97440523D01*
X90956548Y-97488142D01*
X91004167Y-97535761D01*
X91051786Y-97630999D01*
X91051786Y-97821476D01*
X91004167Y-97916714D01*
X90385119Y-98345285D02*
X91051786Y-98345285D01*
X90861310Y-98345285D02*
X90956548Y-98392904D01*
X91004167Y-98440523D01*
X91051786Y-98535761D01*
X91051786Y-98631000D01*
X90385119Y-99107190D02*
X90432738Y-99011952D01*
X90480357Y-98964333D01*
X90575595Y-98916714D01*
X90861310Y-98916714D01*
X90956548Y-98964333D01*
X91004167Y-99011952D01*
X91051786Y-99107190D01*
X91051786Y-99250048D01*
X91004167Y-99345286D01*
X90956548Y-99392905D01*
X90861310Y-99440524D01*
X90575595Y-99440524D01*
X90480357Y-99392905D01*
X90432738Y-99345286D01*
X90385119Y-99250048D01*
X90385119Y-99107190D01*
X91051786Y-99726238D02*
X91051786Y-100107190D01*
X90385119Y-99869095D02*
X91242262Y-99869095D01*
X91337500Y-99916714D01*
X91385119Y-100011952D01*
X91385119Y-100107190D01*
X90385119Y-100583381D02*
X90432738Y-100488143D01*
X90527976Y-100440524D01*
X91385119Y-100440524D01*
X91051786Y-101392906D02*
X90385119Y-101392906D01*
X91051786Y-100964334D02*
X90527976Y-100964334D01*
X90432738Y-101011953D01*
X90385119Y-101107191D01*
X90385119Y-101250049D01*
X90432738Y-101345287D01*
X90480357Y-101392906D01*
X90385119Y-101869096D02*
X91051786Y-101869096D01*
X91385119Y-101869096D02*
X91337500Y-101821477D01*
X91289881Y-101869096D01*
X91337500Y-101916715D01*
X91385119Y-101869096D01*
X91289881Y-101869096D01*
X90385119Y-102773858D02*
X91385119Y-102773858D01*
X90432738Y-102773858D02*
X90385119Y-102678620D01*
X90385119Y-102488143D01*
X90432738Y-102392905D01*
X90480357Y-102345286D01*
X90575595Y-102297667D01*
X90861310Y-102297667D01*
X90956548Y-102345286D01*
X91004167Y-102392905D01*
X91051786Y-102488143D01*
X91051786Y-102678620D01*
X91004167Y-102773858D01*
X90385119Y-103250048D02*
X91051786Y-103250048D01*
X91385119Y-103250048D02*
X91337500Y-103202429D01*
X91289881Y-103250048D01*
X91337500Y-103297667D01*
X91385119Y-103250048D01*
X91289881Y-103250048D01*
X90432738Y-104154810D02*
X90385119Y-104059572D01*
X90385119Y-103869095D01*
X90432738Y-103773857D01*
X90480357Y-103726238D01*
X90575595Y-103678619D01*
X90861310Y-103678619D01*
X90956548Y-103726238D01*
X91004167Y-103773857D01*
X91051786Y-103869095D01*
X91051786Y-104059572D01*
X91004167Y-104154810D01*
X90432738Y-104535762D02*
X90385119Y-104631000D01*
X90385119Y-104821476D01*
X90432738Y-104916715D01*
X90527976Y-104964334D01*
X90575595Y-104964334D01*
X90670833Y-104916715D01*
X90718452Y-104821476D01*
X90718452Y-104678619D01*
X90766071Y-104583381D01*
X90861310Y-104535762D01*
X90908929Y-104535762D01*
X91004167Y-104583381D01*
X91051786Y-104678619D01*
X91051786Y-104821476D01*
X91004167Y-104916715D01*
X90480357Y-106726239D02*
X90432738Y-106678620D01*
X90385119Y-106535763D01*
X90385119Y-106440525D01*
X90432738Y-106297667D01*
X90527976Y-106202429D01*
X90623214Y-106154810D01*
X90813690Y-106107191D01*
X90956548Y-106107191D01*
X91147024Y-106154810D01*
X91242262Y-106202429D01*
X91337500Y-106297667D01*
X91385119Y-106440525D01*
X91385119Y-106535763D01*
X91337500Y-106678620D01*
X91289881Y-106726239D01*
X90385119Y-107297667D02*
X90432738Y-107202429D01*
X90480357Y-107154810D01*
X90575595Y-107107191D01*
X90861310Y-107107191D01*
X90956548Y-107154810D01*
X91004167Y-107202429D01*
X91051786Y-107297667D01*
X91051786Y-107440525D01*
X91004167Y-107535763D01*
X90956548Y-107583382D01*
X90861310Y-107631001D01*
X90575595Y-107631001D01*
X90480357Y-107583382D01*
X90432738Y-107535763D01*
X90385119Y-107440525D01*
X90385119Y-107297667D01*
X91051786Y-108059572D02*
X90385119Y-108059572D01*
X90956548Y-108059572D02*
X91004167Y-108107191D01*
X91051786Y-108202429D01*
X91051786Y-108345287D01*
X91004167Y-108440525D01*
X90908929Y-108488144D01*
X90385119Y-108488144D01*
X91051786Y-108821477D02*
X91051786Y-109202429D01*
X91385119Y-108964334D02*
X90527976Y-108964334D01*
X90432738Y-109011953D01*
X90385119Y-109107191D01*
X90385119Y-109202429D01*
X90385119Y-109535763D02*
X91051786Y-109535763D01*
X90861310Y-109535763D02*
X90956548Y-109583382D01*
X91004167Y-109631001D01*
X91051786Y-109726239D01*
X91051786Y-109821478D01*
X90385119Y-110297668D02*
X90432738Y-110202430D01*
X90480357Y-110154811D01*
X90575595Y-110107192D01*
X90861310Y-110107192D01*
X90956548Y-110154811D01*
X91004167Y-110202430D01*
X91051786Y-110297668D01*
X91051786Y-110440526D01*
X91004167Y-110535764D01*
X90956548Y-110583383D01*
X90861310Y-110631002D01*
X90575595Y-110631002D01*
X90480357Y-110583383D01*
X90432738Y-110535764D01*
X90385119Y-110440526D01*
X90385119Y-110297668D01*
X90385119Y-111202430D02*
X90432738Y-111107192D01*
X90527976Y-111059573D01*
X91385119Y-111059573D01*
X90432738Y-112297669D02*
X90385119Y-112440526D01*
X90385119Y-112678622D01*
X90432738Y-112773860D01*
X90480357Y-112821479D01*
X90575595Y-112869098D01*
X90670833Y-112869098D01*
X90766071Y-112821479D01*
X90813690Y-112773860D01*
X90861310Y-112678622D01*
X90908929Y-112488145D01*
X90956548Y-112392907D01*
X91004167Y-112345288D01*
X91099405Y-112297669D01*
X91194643Y-112297669D01*
X91289881Y-112345288D01*
X91337500Y-112392907D01*
X91385119Y-112488145D01*
X91385119Y-112726241D01*
X91337500Y-112869098D01*
X91051786Y-113202431D02*
X90385119Y-113440526D01*
X91051786Y-113678622D02*
X90385119Y-113440526D01*
X90147024Y-113345288D01*
X90099405Y-113297669D01*
X90051786Y-113202431D01*
X90432738Y-114011955D02*
X90385119Y-114107193D01*
X90385119Y-114297669D01*
X90432738Y-114392908D01*
X90527976Y-114440527D01*
X90575595Y-114440527D01*
X90670833Y-114392908D01*
X90718452Y-114297669D01*
X90718452Y-114154812D01*
X90766071Y-114059574D01*
X90861310Y-114011955D01*
X90908929Y-114011955D01*
X91004167Y-114059574D01*
X91051786Y-114154812D01*
X91051786Y-114297669D01*
X91004167Y-114392908D01*
X91051786Y-114726241D02*
X91051786Y-115107193D01*
X91385119Y-114869098D02*
X90527976Y-114869098D01*
X90432738Y-114916717D01*
X90385119Y-115011955D01*
X90385119Y-115107193D01*
X90432738Y-115821480D02*
X90385119Y-115726242D01*
X90385119Y-115535765D01*
X90432738Y-115440527D01*
X90527976Y-115392908D01*
X90908929Y-115392908D01*
X91004167Y-115440527D01*
X91051786Y-115535765D01*
X91051786Y-115726242D01*
X91004167Y-115821480D01*
X90908929Y-115869099D01*
X90813690Y-115869099D01*
X90718452Y-115392908D01*
X90385119Y-116297670D02*
X91051786Y-116297670D01*
X90956548Y-116297670D02*
X91004167Y-116345289D01*
X91051786Y-116440527D01*
X91051786Y-116583385D01*
X91004167Y-116678623D01*
X90908929Y-116726242D01*
X90385119Y-116726242D01*
X90908929Y-116726242D02*
X91004167Y-116773861D01*
X91051786Y-116869099D01*
X91051786Y-117011956D01*
X91004167Y-117107194D01*
X90908929Y-117154813D01*
X90385119Y-117154813D01*
X91051786Y-118297670D02*
X90385119Y-118535765D01*
X91051786Y-118773861D01*
X90385119Y-119678623D02*
X90385119Y-119107194D01*
X90385119Y-119392908D02*
X91385119Y-119392908D01*
X91242262Y-119297670D01*
X91147024Y-119202432D01*
X91099405Y-119107194D01*
X90480357Y-120107194D02*
X90432738Y-120154813D01*
X90385119Y-120107194D01*
X90432738Y-120059575D01*
X90480357Y-120107194D01*
X90385119Y-120107194D01*
X91385119Y-120773860D02*
X91385119Y-120869099D01*
X91337500Y-120964337D01*
X91289881Y-121011956D01*
X91194643Y-121059575D01*
X91004167Y-121107194D01*
X90766071Y-121107194D01*
X90575595Y-121059575D01*
X90480357Y-121011956D01*
X90432738Y-120964337D01*
X90385119Y-120869099D01*
X90385119Y-120773860D01*
X90432738Y-120678622D01*
X90480357Y-120631003D01*
X90575595Y-120583384D01*
X90766071Y-120535765D01*
X91004167Y-120535765D01*
X91194643Y-120583384D01*
X91289881Y-120631003D01*
X91337500Y-120678622D01*
X91385119Y-120773860D01*
X88860357Y-96440524D02*
X88812738Y-96392905D01*
X88765119Y-96250048D01*
X88765119Y-96154810D01*
X88812738Y-96011952D01*
X88907976Y-95916714D01*
X89003214Y-95869095D01*
X89193690Y-95821476D01*
X89336548Y-95821476D01*
X89527024Y-95869095D01*
X89622262Y-95916714D01*
X89717500Y-96011952D01*
X89765119Y-96154810D01*
X89765119Y-96250048D01*
X89717500Y-96392905D01*
X89669881Y-96440524D01*
X88765119Y-96869095D02*
X89431786Y-96869095D01*
X89241310Y-96869095D02*
X89336548Y-96916714D01*
X89384167Y-96964333D01*
X89431786Y-97059571D01*
X89431786Y-97154810D01*
X88765119Y-97916715D02*
X89288929Y-97916715D01*
X89384167Y-97869096D01*
X89431786Y-97773858D01*
X89431786Y-97583381D01*
X89384167Y-97488143D01*
X88812738Y-97916715D02*
X88765119Y-97821477D01*
X88765119Y-97583381D01*
X88812738Y-97488143D01*
X88907976Y-97440524D01*
X89003214Y-97440524D01*
X89098452Y-97488143D01*
X89146071Y-97583381D01*
X89146071Y-97821477D01*
X89193690Y-97916715D01*
X88765119Y-98392905D02*
X89431786Y-98392905D01*
X89765119Y-98392905D02*
X89717500Y-98345286D01*
X89669881Y-98392905D01*
X89717500Y-98440524D01*
X89765119Y-98392905D01*
X89669881Y-98392905D01*
X89431786Y-99297667D02*
X88622262Y-99297667D01*
X88527024Y-99250048D01*
X88479405Y-99202429D01*
X88431786Y-99107190D01*
X88431786Y-98964333D01*
X88479405Y-98869095D01*
X88812738Y-99297667D02*
X88765119Y-99202429D01*
X88765119Y-99011952D01*
X88812738Y-98916714D01*
X88860357Y-98869095D01*
X88955595Y-98821476D01*
X89241310Y-98821476D01*
X89336548Y-98869095D01*
X89384167Y-98916714D01*
X89431786Y-99011952D01*
X89431786Y-99202429D01*
X89384167Y-99297667D01*
X89288929Y-100869096D02*
X89288929Y-100535762D01*
X88765119Y-100535762D02*
X89765119Y-100535762D01*
X89765119Y-101011953D01*
X88860357Y-101392905D02*
X88812738Y-101440524D01*
X88765119Y-101392905D01*
X88812738Y-101345286D01*
X88860357Y-101392905D01*
X88765119Y-101392905D01*
X89765119Y-102535762D02*
X88765119Y-102773857D01*
X89479405Y-102964334D01*
X88765119Y-103154810D01*
X89765119Y-103392905D01*
X88765119Y-104202429D02*
X89288929Y-104202429D01*
X89384167Y-104154810D01*
X89431786Y-104059572D01*
X89431786Y-103869095D01*
X89384167Y-103773857D01*
X88812738Y-104202429D02*
X88765119Y-104107191D01*
X88765119Y-103869095D01*
X88812738Y-103773857D01*
X88907976Y-103726238D01*
X89003214Y-103726238D01*
X89098452Y-103773857D01*
X89146071Y-103869095D01*
X89146071Y-104107191D01*
X89193690Y-104202429D01*
X89431786Y-104535762D02*
X89431786Y-104916714D01*
X89765119Y-104678619D02*
X88907976Y-104678619D01*
X88812738Y-104726238D01*
X88765119Y-104821476D01*
X88765119Y-104916714D01*
X88812738Y-105202429D02*
X88765119Y-105297667D01*
X88765119Y-105488143D01*
X88812738Y-105583382D01*
X88907976Y-105631001D01*
X88955595Y-105631001D01*
X89050833Y-105583382D01*
X89098452Y-105488143D01*
X89098452Y-105345286D01*
X89146071Y-105250048D01*
X89241310Y-105202429D01*
X89288929Y-105202429D01*
X89384167Y-105250048D01*
X89431786Y-105345286D01*
X89431786Y-105488143D01*
X89384167Y-105583382D01*
X88765119Y-106202429D02*
X88812738Y-106107191D01*
X88860357Y-106059572D01*
X88955595Y-106011953D01*
X89241310Y-106011953D01*
X89336548Y-106059572D01*
X89384167Y-106107191D01*
X89431786Y-106202429D01*
X89431786Y-106345287D01*
X89384167Y-106440525D01*
X89336548Y-106488144D01*
X89241310Y-106535763D01*
X88955595Y-106535763D01*
X88860357Y-106488144D01*
X88812738Y-106440525D01*
X88765119Y-106345287D01*
X88765119Y-106202429D01*
X89431786Y-106964334D02*
X88765119Y-106964334D01*
X89336548Y-106964334D02*
X89384167Y-107011953D01*
X89431786Y-107107191D01*
X89431786Y-107250049D01*
X89384167Y-107345287D01*
X89288929Y-107392906D01*
X88765119Y-107392906D01*
X88812738Y-107916715D02*
X88765119Y-107916715D01*
X88669881Y-107869096D01*
X88622262Y-107821477D01*
X89669881Y-109059572D02*
X89717500Y-109107191D01*
X89765119Y-109202429D01*
X89765119Y-109440525D01*
X89717500Y-109535763D01*
X89669881Y-109583382D01*
X89574643Y-109631001D01*
X89479405Y-109631001D01*
X89336548Y-109583382D01*
X88765119Y-109011953D01*
X88765119Y-109631001D01*
X89765119Y-110250048D02*
X89765119Y-110345287D01*
X89717500Y-110440525D01*
X89669881Y-110488144D01*
X89574643Y-110535763D01*
X89384167Y-110583382D01*
X89146071Y-110583382D01*
X88955595Y-110535763D01*
X88860357Y-110488144D01*
X88812738Y-110440525D01*
X88765119Y-110345287D01*
X88765119Y-110250048D01*
X88812738Y-110154810D01*
X88860357Y-110107191D01*
X88955595Y-110059572D01*
X89146071Y-110011953D01*
X89384167Y-110011953D01*
X89574643Y-110059572D01*
X89669881Y-110107191D01*
X89717500Y-110154810D01*
X89765119Y-110250048D01*
X88765119Y-111535763D02*
X88765119Y-110964334D01*
X88765119Y-111250048D02*
X89765119Y-111250048D01*
X89622262Y-111154810D01*
X89527024Y-111059572D01*
X89479405Y-110964334D01*
X89765119Y-111869096D02*
X89765119Y-112535763D01*
X88765119Y-112107191D01*
X87192738Y-96297667D02*
X87145119Y-96202429D01*
X87145119Y-96011952D01*
X87192738Y-95916714D01*
X87240357Y-95869095D01*
X87335595Y-95821476D01*
X87621310Y-95821476D01*
X87716548Y-95869095D01*
X87764167Y-95916714D01*
X87811786Y-96011952D01*
X87811786Y-96202429D01*
X87764167Y-96297667D01*
X87145119Y-96726238D02*
X87811786Y-96726238D01*
X87621310Y-96726238D02*
X87716548Y-96773857D01*
X87764167Y-96821476D01*
X87811786Y-96916714D01*
X87811786Y-97011953D01*
X87145119Y-97773858D02*
X87668929Y-97773858D01*
X87764167Y-97726239D01*
X87811786Y-97631001D01*
X87811786Y-97440524D01*
X87764167Y-97345286D01*
X87192738Y-97773858D02*
X87145119Y-97678620D01*
X87145119Y-97440524D01*
X87192738Y-97345286D01*
X87287976Y-97297667D01*
X87383214Y-97297667D01*
X87478452Y-97345286D01*
X87526071Y-97440524D01*
X87526071Y-97678620D01*
X87573690Y-97773858D01*
X87145119Y-98250048D02*
X87811786Y-98250048D01*
X88145119Y-98250048D02*
X88097500Y-98202429D01*
X88049881Y-98250048D01*
X88097500Y-98297667D01*
X88145119Y-98250048D01*
X88049881Y-98250048D01*
X87811786Y-99154810D02*
X87002262Y-99154810D01*
X86907024Y-99107191D01*
X86859405Y-99059572D01*
X86811786Y-98964333D01*
X86811786Y-98821476D01*
X86859405Y-98726238D01*
X87192738Y-99154810D02*
X87145119Y-99059572D01*
X87145119Y-98869095D01*
X87192738Y-98773857D01*
X87240357Y-98726238D01*
X87335595Y-98678619D01*
X87621310Y-98678619D01*
X87716548Y-98726238D01*
X87764167Y-98773857D01*
X87811786Y-98869095D01*
X87811786Y-99059572D01*
X87764167Y-99154810D01*
X87240357Y-99631000D02*
X87192738Y-99678619D01*
X87145119Y-99631000D01*
X87192738Y-99583381D01*
X87240357Y-99631000D01*
X87145119Y-99631000D01*
X87811786Y-100011952D02*
X87145119Y-100202428D01*
X87621310Y-100392905D01*
X87145119Y-100583381D01*
X87811786Y-100773857D01*
X87145119Y-101583381D02*
X87668929Y-101583381D01*
X87764167Y-101535762D01*
X87811786Y-101440524D01*
X87811786Y-101250047D01*
X87764167Y-101154809D01*
X87192738Y-101583381D02*
X87145119Y-101488143D01*
X87145119Y-101250047D01*
X87192738Y-101154809D01*
X87287976Y-101107190D01*
X87383214Y-101107190D01*
X87478452Y-101154809D01*
X87526071Y-101250047D01*
X87526071Y-101488143D01*
X87573690Y-101583381D01*
X87811786Y-101916714D02*
X87811786Y-102297666D01*
X88145119Y-102059571D02*
X87287976Y-102059571D01*
X87192738Y-102107190D01*
X87145119Y-102202428D01*
X87145119Y-102297666D01*
X87192738Y-102583381D02*
X87145119Y-102678619D01*
X87145119Y-102869095D01*
X87192738Y-102964334D01*
X87287976Y-103011953D01*
X87335595Y-103011953D01*
X87430833Y-102964334D01*
X87478452Y-102869095D01*
X87478452Y-102726238D01*
X87526071Y-102631000D01*
X87621310Y-102583381D01*
X87668929Y-102583381D01*
X87764167Y-102631000D01*
X87811786Y-102726238D01*
X87811786Y-102869095D01*
X87764167Y-102964334D01*
X87145119Y-103583381D02*
X87192738Y-103488143D01*
X87240357Y-103440524D01*
X87335595Y-103392905D01*
X87621310Y-103392905D01*
X87716548Y-103440524D01*
X87764167Y-103488143D01*
X87811786Y-103583381D01*
X87811786Y-103726239D01*
X87764167Y-103821477D01*
X87716548Y-103869096D01*
X87621310Y-103916715D01*
X87335595Y-103916715D01*
X87240357Y-103869096D01*
X87192738Y-103821477D01*
X87145119Y-103726239D01*
X87145119Y-103583381D01*
X87811786Y-104345286D02*
X87145119Y-104345286D01*
X87716548Y-104345286D02*
X87764167Y-104392905D01*
X87811786Y-104488143D01*
X87811786Y-104631001D01*
X87764167Y-104726239D01*
X87668929Y-104773858D01*
X87145119Y-104773858D01*
X87621310Y-105869096D02*
X87668929Y-105821477D01*
X87716548Y-105726239D01*
X87716548Y-105631001D01*
X87668929Y-105535763D01*
X87621310Y-105488143D01*
X87526071Y-105440524D01*
X87430833Y-105440524D01*
X87335595Y-105488143D01*
X87287976Y-105535763D01*
X87240357Y-105631001D01*
X87240357Y-105726239D01*
X87287976Y-105821477D01*
X87335595Y-105869096D01*
X87716548Y-105869096D02*
X87335595Y-105869096D01*
X87287976Y-105916715D01*
X87287976Y-105964334D01*
X87335595Y-106059572D01*
X87430833Y-106107191D01*
X87668929Y-106107191D01*
X87811786Y-106011953D01*
X87907024Y-105869096D01*
X87954643Y-105678620D01*
X87907024Y-105488143D01*
X87811786Y-105345286D01*
X87668929Y-105250048D01*
X87478452Y-105202429D01*
X87287976Y-105250048D01*
X87145119Y-105345286D01*
X87049881Y-105488143D01*
X87002262Y-105678620D01*
X87049881Y-105869096D01*
X87145119Y-106011953D01*
X87192738Y-106964334D02*
X87145119Y-106869096D01*
X87145119Y-106678619D01*
X87192738Y-106583381D01*
X87240357Y-106535762D01*
X87335595Y-106488143D01*
X87621310Y-106488143D01*
X87716548Y-106535762D01*
X87764167Y-106583381D01*
X87811786Y-106678619D01*
X87811786Y-106869096D01*
X87764167Y-106964334D01*
X87145119Y-107821477D02*
X87668929Y-107821477D01*
X87764167Y-107773858D01*
X87811786Y-107678620D01*
X87811786Y-107488143D01*
X87764167Y-107392905D01*
X87192738Y-107821477D02*
X87145119Y-107726239D01*
X87145119Y-107488143D01*
X87192738Y-107392905D01*
X87287976Y-107345286D01*
X87383214Y-107345286D01*
X87478452Y-107392905D01*
X87526071Y-107488143D01*
X87526071Y-107726239D01*
X87573690Y-107821477D01*
X87192738Y-108250048D02*
X87145119Y-108345286D01*
X87145119Y-108535762D01*
X87192738Y-108631001D01*
X87287976Y-108678620D01*
X87335595Y-108678620D01*
X87430833Y-108631001D01*
X87478452Y-108535762D01*
X87478452Y-108392905D01*
X87526071Y-108297667D01*
X87621310Y-108250048D01*
X87668929Y-108250048D01*
X87764167Y-108297667D01*
X87811786Y-108392905D01*
X87811786Y-108535762D01*
X87764167Y-108631001D01*
X87192738Y-109488144D02*
X87145119Y-109392906D01*
X87145119Y-109202429D01*
X87192738Y-109107191D01*
X87287976Y-109059572D01*
X87668929Y-109059572D01*
X87764167Y-109107191D01*
X87811786Y-109202429D01*
X87811786Y-109392906D01*
X87764167Y-109488144D01*
X87668929Y-109535763D01*
X87573690Y-109535763D01*
X87478452Y-109059572D01*
X87240357Y-109964334D02*
X87192738Y-110011953D01*
X87145119Y-109964334D01*
X87192738Y-109916715D01*
X87240357Y-109964334D01*
X87145119Y-109964334D01*
X87192738Y-110821477D02*
X87145119Y-110726239D01*
X87145119Y-110535762D01*
X87192738Y-110440524D01*
X87287976Y-110392905D01*
X87668929Y-110392905D01*
X87764167Y-110440524D01*
X87811786Y-110535762D01*
X87811786Y-110726239D01*
X87764167Y-110821477D01*
X87668929Y-110869096D01*
X87573690Y-110869096D01*
X87478452Y-110392905D01*
X87145119Y-111726239D02*
X88145119Y-111726239D01*
X87192738Y-111726239D02*
X87145119Y-111631001D01*
X87145119Y-111440524D01*
X87192738Y-111345286D01*
X87240357Y-111297667D01*
X87335595Y-111250048D01*
X87621310Y-111250048D01*
X87716548Y-111297667D01*
X87764167Y-111345286D01*
X87811786Y-111440524D01*
X87811786Y-111631001D01*
X87764167Y-111726239D01*
X87811786Y-112631001D02*
X87145119Y-112631001D01*
X87811786Y-112202429D02*
X87287976Y-112202429D01*
X87192738Y-112250048D01*
X87145119Y-112345286D01*
X87145119Y-112488144D01*
X87192738Y-112583382D01*
X87240357Y-112631001D01*
X137723619Y-143517881D02*
X137723619Y-142851214D01*
X137723619Y-142517881D02*
X137676000Y-142565500D01*
X137723619Y-142613119D01*
X137771238Y-142565500D01*
X137723619Y-142517881D01*
X137723619Y-142613119D01*
X138199809Y-142851214D02*
X138199809Y-143517881D01*
X138199809Y-142946452D02*
X138247428Y-142898833D01*
X138342666Y-142851214D01*
X138485524Y-142851214D01*
X138580762Y-142898833D01*
X138628381Y-142994071D01*
X138628381Y-143517881D01*
X139906476Y-143517881D02*
X139811238Y-143470262D01*
X139763619Y-143422643D01*
X139716000Y-143327405D01*
X139716000Y-143041690D01*
X139763619Y-142946452D01*
X139811238Y-142898833D01*
X139906476Y-142851214D01*
X140049334Y-142851214D01*
X140144572Y-142898833D01*
X140192191Y-142946452D01*
X140239810Y-143041690D01*
X140239810Y-143327405D01*
X140192191Y-143422643D01*
X140144572Y-143470262D01*
X140049334Y-143517881D01*
X139906476Y-143517881D01*
X141096953Y-142851214D02*
X141096953Y-143517881D01*
X140668381Y-142851214D02*
X140668381Y-143375024D01*
X140716000Y-143470262D01*
X140811238Y-143517881D01*
X140954096Y-143517881D01*
X141049334Y-143470262D01*
X141096953Y-143422643D01*
X141430286Y-142851214D02*
X141811238Y-142851214D01*
X141573143Y-142517881D02*
X141573143Y-143375024D01*
X141620762Y-143470262D01*
X141716000Y-143517881D01*
X141811238Y-143517881D01*
X143129096Y-142565500D02*
X143033858Y-142517881D01*
X142891001Y-142517881D01*
X142748143Y-142565500D01*
X142652905Y-142660738D01*
X142605286Y-142755976D01*
X142557667Y-142946452D01*
X142557667Y-143089310D01*
X142605286Y-143279786D01*
X142652905Y-143375024D01*
X142748143Y-143470262D01*
X142891001Y-143517881D01*
X142986239Y-143517881D01*
X143129096Y-143470262D01*
X143176715Y-143422643D01*
X143176715Y-143089310D01*
X142986239Y-143089310D01*
X143605286Y-143517881D02*
X143605286Y-142517881D01*
X144176715Y-143517881D01*
X144176715Y-142517881D01*
X144652905Y-143517881D02*
X144652905Y-142517881D01*
X144891000Y-142517881D01*
X145033858Y-142565500D01*
X145129096Y-142660738D01*
X145176715Y-142755976D01*
X145224334Y-142946452D01*
X145224334Y-143089310D01*
X145176715Y-143279786D01*
X145129096Y-143375024D01*
X145033858Y-143470262D01*
X144891000Y-143517881D01*
X144652905Y-143517881D01*
X143129096Y-133040500D02*
X143033858Y-132992881D01*
X142891001Y-132992881D01*
X142748143Y-133040500D01*
X142652905Y-133135738D01*
X142605286Y-133230976D01*
X142557667Y-133421452D01*
X142557667Y-133564310D01*
X142605286Y-133754786D01*
X142652905Y-133850024D01*
X142748143Y-133945262D01*
X142891001Y-133992881D01*
X142986239Y-133992881D01*
X143129096Y-133945262D01*
X143176715Y-133897643D01*
X143176715Y-133564310D01*
X142986239Y-133564310D01*
X143605286Y-133992881D02*
X143605286Y-132992881D01*
X144176715Y-133992881D01*
X144176715Y-132992881D01*
X144652905Y-133992881D02*
X144652905Y-132992881D01*
X144891000Y-132992881D01*
X145033858Y-133040500D01*
X145129096Y-133135738D01*
X145176715Y-133230976D01*
X145224334Y-133421452D01*
X145224334Y-133564310D01*
X145176715Y-133754786D01*
X145129096Y-133850024D01*
X145033858Y-133945262D01*
X144891000Y-133992881D01*
X144652905Y-133992881D01*
X139906476Y-133992881D02*
X139811238Y-133945262D01*
X139763619Y-133897643D01*
X139716000Y-133802405D01*
X139716000Y-133516690D01*
X139763619Y-133421452D01*
X139811238Y-133373833D01*
X139906476Y-133326214D01*
X140049334Y-133326214D01*
X140144572Y-133373833D01*
X140192191Y-133421452D01*
X140239810Y-133516690D01*
X140239810Y-133802405D01*
X140192191Y-133897643D01*
X140144572Y-133945262D01*
X140049334Y-133992881D01*
X139906476Y-133992881D01*
X141096953Y-133326214D02*
X141096953Y-133992881D01*
X140668381Y-133326214D02*
X140668381Y-133850024D01*
X140716000Y-133945262D01*
X140811238Y-133992881D01*
X140954096Y-133992881D01*
X141049334Y-133945262D01*
X141096953Y-133897643D01*
X141430286Y-133326214D02*
X141811238Y-133326214D01*
X141573143Y-132992881D02*
X141573143Y-133850024D01*
X141620762Y-133945262D01*
X141716000Y-133992881D01*
X141811238Y-133992881D01*
X137723619Y-133992881D02*
X137723619Y-133326214D01*
X137723619Y-132992881D02*
X137676000Y-133040500D01*
X137723619Y-133088119D01*
X137771238Y-133040500D01*
X137723619Y-132992881D01*
X137723619Y-133088119D01*
X138199809Y-133326214D02*
X138199809Y-133992881D01*
X138199809Y-133421452D02*
X138247428Y-133373833D01*
X138342666Y-133326214D01*
X138485524Y-133326214D01*
X138580762Y-133373833D01*
X138628381Y-133469071D01*
X138628381Y-133992881D01*
X133810524Y-142613119D02*
X133858143Y-142565500D01*
X133953381Y-142517881D01*
X134191477Y-142517881D01*
X134286715Y-142565500D01*
X134334334Y-142613119D01*
X134381953Y-142708357D01*
X134381953Y-142803595D01*
X134334334Y-142946452D01*
X133762905Y-143517881D01*
X134381953Y-143517881D01*
X135239096Y-142851214D02*
X135239096Y-143517881D01*
X135001000Y-142470262D02*
X134762905Y-143184548D01*
X135381953Y-143184548D01*
X135620048Y-142517881D02*
X135953381Y-143517881D01*
X136286715Y-142517881D01*
X133810524Y-133088119D02*
X133858143Y-133040500D01*
X133953381Y-132992881D01*
X134191477Y-132992881D01*
X134286715Y-133040500D01*
X134334334Y-133088119D01*
X134381953Y-133183357D01*
X134381953Y-133278595D01*
X134334334Y-133421452D01*
X133762905Y-133992881D01*
X134381953Y-133992881D01*
X135239096Y-133326214D02*
X135239096Y-133992881D01*
X135001000Y-132945262D02*
X134762905Y-133659548D01*
X135381953Y-133659548D01*
X135620048Y-132992881D02*
X135953381Y-133992881D01*
X136286715Y-132992881D01*
X135183619Y-92273596D02*
X135659810Y-91940262D01*
X135183619Y-91702167D02*
X136183619Y-91702167D01*
X136183619Y-92083120D01*
X136136000Y-92178358D01*
X136088381Y-92225977D01*
X135993143Y-92273596D01*
X135850286Y-92273596D01*
X135755048Y-92225977D01*
X135707429Y-92178358D01*
X135659810Y-92083120D01*
X135659810Y-91702167D01*
X135564571Y-92702167D02*
X135564571Y-93464072D01*
X136183619Y-93845024D02*
X136183619Y-94511691D01*
X135183619Y-94083119D01*
X135755048Y-95035500D02*
X135802667Y-94940262D01*
X135850286Y-94892643D01*
X135945524Y-94845024D01*
X135993143Y-94845024D01*
X136088381Y-94892643D01*
X136136000Y-94940262D01*
X136183619Y-95035500D01*
X136183619Y-95225977D01*
X136136000Y-95321215D01*
X136088381Y-95368834D01*
X135993143Y-95416453D01*
X135945524Y-95416453D01*
X135850286Y-95368834D01*
X135802667Y-95321215D01*
X135755048Y-95225977D01*
X135755048Y-95035500D01*
X135707429Y-94940262D01*
X135659810Y-94892643D01*
X135564571Y-94845024D01*
X135374095Y-94845024D01*
X135278857Y-94892643D01*
X135231238Y-94940262D01*
X135183619Y-95035500D01*
X135183619Y-95225977D01*
X135231238Y-95321215D01*
X135278857Y-95368834D01*
X135374095Y-95416453D01*
X135564571Y-95416453D01*
X135659810Y-95368834D01*
X135707429Y-95321215D01*
X135755048Y-95225977D01*
X130849619Y-89789024D02*
X130849619Y-89312833D01*
X130373429Y-89265214D01*
X130421048Y-89312833D01*
X130468667Y-89408071D01*
X130468667Y-89646167D01*
X130421048Y-89741405D01*
X130373429Y-89789024D01*
X130278190Y-89836643D01*
X130040095Y-89836643D01*
X129944857Y-89789024D01*
X129897238Y-89741405D01*
X129849619Y-89646167D01*
X129849619Y-89408071D01*
X129897238Y-89312833D01*
X129944857Y-89265214D01*
X130849619Y-90122357D02*
X129849619Y-90455690D01*
X130849619Y-90789024D01*
X130929000Y-93154596D02*
X130976619Y-93059358D01*
X130976619Y-92916501D01*
X130929000Y-92773643D01*
X130833762Y-92678405D01*
X130738524Y-92630786D01*
X130548048Y-92583167D01*
X130405190Y-92583167D01*
X130214714Y-92630786D01*
X130119476Y-92678405D01*
X130024238Y-92773643D01*
X129976619Y-92916501D01*
X129976619Y-93011739D01*
X130024238Y-93154596D01*
X130071857Y-93202215D01*
X130405190Y-93202215D01*
X130405190Y-93011739D01*
X129976619Y-93630786D02*
X130976619Y-93630786D01*
X129976619Y-94202215D01*
X130976619Y-94202215D01*
X129976619Y-94678405D02*
X130976619Y-94678405D01*
X130976619Y-94916500D01*
X130929000Y-95059358D01*
X130833762Y-95154596D01*
X130738524Y-95202215D01*
X130548048Y-95249834D01*
X130405190Y-95249834D01*
X130214714Y-95202215D01*
X130119476Y-95154596D01*
X130024238Y-95059358D01*
X129976619Y-94916500D01*
X129976619Y-94678405D01*
X129913119Y-97297953D02*
X129913119Y-96726524D01*
X129913119Y-97012238D02*
X130913119Y-97012238D01*
X130770262Y-96917000D01*
X130675024Y-96821762D01*
X130627405Y-96726524D01*
X130817881Y-97678905D02*
X130865500Y-97726524D01*
X130913119Y-97821762D01*
X130913119Y-98059858D01*
X130865500Y-98155096D01*
X130817881Y-98202715D01*
X130722643Y-98250334D01*
X130627405Y-98250334D01*
X130484548Y-98202715D01*
X129913119Y-97631286D01*
X129913119Y-98250334D01*
X130913119Y-98536048D02*
X129913119Y-98869381D01*
X130913119Y-99202715D01*
X135509096Y-108593000D02*
X135413858Y-108545381D01*
X135271001Y-108545381D01*
X135128143Y-108593000D01*
X135032905Y-108688238D01*
X134985286Y-108783476D01*
X134937667Y-108973952D01*
X134937667Y-109116810D01*
X134985286Y-109307286D01*
X135032905Y-109402524D01*
X135128143Y-109497762D01*
X135271001Y-109545381D01*
X135366239Y-109545381D01*
X135509096Y-109497762D01*
X135556715Y-109450143D01*
X135556715Y-109116810D01*
X135366239Y-109116810D01*
X135985286Y-109545381D02*
X135985286Y-108545381D01*
X136556715Y-109545381D01*
X136556715Y-108545381D01*
X137032905Y-109545381D02*
X137032905Y-108545381D01*
X137271000Y-108545381D01*
X137413858Y-108593000D01*
X137509096Y-108688238D01*
X137556715Y-108783476D01*
X137604334Y-108973952D01*
X137604334Y-109116810D01*
X137556715Y-109307286D01*
X137509096Y-109402524D01*
X137413858Y-109497762D01*
X137271000Y-109545381D01*
X137032905Y-109545381D01*
X139144453Y-109481881D02*
X138573024Y-109481881D01*
X138858738Y-109481881D02*
X138858738Y-108481881D01*
X138763500Y-108624738D01*
X138668262Y-108719976D01*
X138573024Y-108767595D01*
X139525405Y-108577119D02*
X139573024Y-108529500D01*
X139668262Y-108481881D01*
X139906358Y-108481881D01*
X140001596Y-108529500D01*
X140049215Y-108577119D01*
X140096834Y-108672357D01*
X140096834Y-108767595D01*
X140049215Y-108910452D01*
X139477786Y-109481881D01*
X140096834Y-109481881D01*
X140382548Y-108481881D02*
X140715881Y-109481881D01*
X141049215Y-108481881D01*
X131334024Y-108640619D02*
X131381643Y-108593000D01*
X131476881Y-108545381D01*
X131714977Y-108545381D01*
X131810215Y-108593000D01*
X131857834Y-108640619D01*
X131905453Y-108735857D01*
X131905453Y-108831095D01*
X131857834Y-108973952D01*
X131286405Y-109545381D01*
X131905453Y-109545381D01*
X132762596Y-108878714D02*
X132762596Y-109545381D01*
X132524500Y-108497762D02*
X132286405Y-109212048D01*
X132905453Y-109212048D01*
X133143548Y-108545381D02*
X133476881Y-109545381D01*
X133810215Y-108545381D01*
X139906476Y-124467881D02*
X139811238Y-124420262D01*
X139763619Y-124372643D01*
X139716000Y-124277405D01*
X139716000Y-123991690D01*
X139763619Y-123896452D01*
X139811238Y-123848833D01*
X139906476Y-123801214D01*
X140049334Y-123801214D01*
X140144572Y-123848833D01*
X140192191Y-123896452D01*
X140239810Y-123991690D01*
X140239810Y-124277405D01*
X140192191Y-124372643D01*
X140144572Y-124420262D01*
X140049334Y-124467881D01*
X139906476Y-124467881D01*
X141096953Y-123801214D02*
X141096953Y-124467881D01*
X140668381Y-123801214D02*
X140668381Y-124325024D01*
X140716000Y-124420262D01*
X140811238Y-124467881D01*
X140954096Y-124467881D01*
X141049334Y-124420262D01*
X141096953Y-124372643D01*
X141430286Y-123801214D02*
X141811238Y-123801214D01*
X141573143Y-123467881D02*
X141573143Y-124325024D01*
X141620762Y-124420262D01*
X141716000Y-124467881D01*
X141811238Y-124467881D01*
X137723619Y-124467881D02*
X137723619Y-123801214D01*
X137723619Y-123467881D02*
X137676000Y-123515500D01*
X137723619Y-123563119D01*
X137771238Y-123515500D01*
X137723619Y-123467881D01*
X137723619Y-123563119D01*
X138199809Y-123801214D02*
X138199809Y-124467881D01*
X138199809Y-123896452D02*
X138247428Y-123848833D01*
X138342666Y-123801214D01*
X138485524Y-123801214D01*
X138580762Y-123848833D01*
X138628381Y-123944071D01*
X138628381Y-124467881D01*
X143129096Y-123515500D02*
X143033858Y-123467881D01*
X142891001Y-123467881D01*
X142748143Y-123515500D01*
X142652905Y-123610738D01*
X142605286Y-123705976D01*
X142557667Y-123896452D01*
X142557667Y-124039310D01*
X142605286Y-124229786D01*
X142652905Y-124325024D01*
X142748143Y-124420262D01*
X142891001Y-124467881D01*
X142986239Y-124467881D01*
X143129096Y-124420262D01*
X143176715Y-124372643D01*
X143176715Y-124039310D01*
X142986239Y-124039310D01*
X143605286Y-124467881D02*
X143605286Y-123467881D01*
X144176715Y-124467881D01*
X144176715Y-123467881D01*
X144652905Y-124467881D02*
X144652905Y-123467881D01*
X144891000Y-123467881D01*
X145033858Y-123515500D01*
X145129096Y-123610738D01*
X145176715Y-123705976D01*
X145224334Y-123896452D01*
X145224334Y-124039310D01*
X145176715Y-124229786D01*
X145129096Y-124325024D01*
X145033858Y-124420262D01*
X144891000Y-124467881D01*
X144652905Y-124467881D01*
X133810524Y-123563119D02*
X133858143Y-123515500D01*
X133953381Y-123467881D01*
X134191477Y-123467881D01*
X134286715Y-123515500D01*
X134334334Y-123563119D01*
X134381953Y-123658357D01*
X134381953Y-123753595D01*
X134334334Y-123896452D01*
X133762905Y-124467881D01*
X134381953Y-124467881D01*
X135239096Y-123801214D02*
X135239096Y-124467881D01*
X135001000Y-123420262D02*
X134762905Y-124134548D01*
X135381953Y-124134548D01*
X135620048Y-123467881D02*
X135953381Y-124467881D01*
X136286715Y-123467881D01*
D13*
X131961001Y-119765071D02*
X132889572Y-119765071D01*
X132389572Y-120336500D01*
X132603858Y-120336500D01*
X132746715Y-120407929D01*
X132818144Y-120479357D01*
X132889572Y-120622214D01*
X132889572Y-120979357D01*
X132818144Y-121122214D01*
X132746715Y-121193643D01*
X132603858Y-121265071D01*
X132175286Y-121265071D01*
X132032429Y-121193643D01*
X131961001Y-121122214D01*
X132032429Y-130067929D02*
X132103858Y-129996500D01*
X132246715Y-129925071D01*
X132603858Y-129925071D01*
X132746715Y-129996500D01*
X132818144Y-130067929D01*
X132889572Y-130210786D01*
X132889572Y-130353643D01*
X132818144Y-130567929D01*
X131961001Y-131425071D01*
X132889572Y-131425071D01*
X132889572Y-141077071D02*
X132032429Y-141077071D01*
X132461001Y-141077071D02*
X132461001Y-139577071D01*
X132318144Y-139791357D01*
X132175286Y-139934214D01*
X132032429Y-140005643D01*
D12*
X130726571Y-142167213D02*
X129226571Y-142167213D01*
X129226571Y-141595785D01*
X129298000Y-141452927D01*
X129369429Y-141381499D01*
X129512286Y-141310070D01*
X129726571Y-141310070D01*
X129869429Y-141381499D01*
X129940857Y-141452927D01*
X130012286Y-141595785D01*
X130012286Y-142167213D01*
X130726571Y-140667213D02*
X129726571Y-140667213D01*
X130012286Y-140667213D02*
X129869429Y-140595785D01*
X129798000Y-140524356D01*
X129726571Y-140381499D01*
X129726571Y-140238642D01*
X130655143Y-139167214D02*
X130726571Y-139310071D01*
X130726571Y-139595785D01*
X130655143Y-139738642D01*
X130512286Y-139810071D01*
X129940857Y-139810071D01*
X129798000Y-139738642D01*
X129726571Y-139595785D01*
X129726571Y-139310071D01*
X129798000Y-139167214D01*
X129940857Y-139095785D01*
X130083714Y-139095785D01*
X130226571Y-139810071D01*
X130655143Y-138524357D02*
X130726571Y-138381500D01*
X130726571Y-138095785D01*
X130655143Y-137952928D01*
X130512286Y-137881500D01*
X130440857Y-137881500D01*
X130298000Y-137952928D01*
X130226571Y-138095785D01*
X130226571Y-138310071D01*
X130155143Y-138452928D01*
X130012286Y-138524357D01*
X129940857Y-138524357D01*
X129798000Y-138452928D01*
X129726571Y-138310071D01*
X129726571Y-138095785D01*
X129798000Y-137952928D01*
X130655143Y-137310071D02*
X130726571Y-137167214D01*
X130726571Y-136881499D01*
X130655143Y-136738642D01*
X130512286Y-136667214D01*
X130440857Y-136667214D01*
X130298000Y-136738642D01*
X130226571Y-136881499D01*
X130226571Y-137095785D01*
X130155143Y-137238642D01*
X130012286Y-137310071D01*
X129940857Y-137310071D01*
X129798000Y-137238642D01*
X129726571Y-137095785D01*
X129726571Y-136881499D01*
X129798000Y-136738642D01*
X129726571Y-135381499D02*
X130726571Y-135381499D01*
X129726571Y-136024356D02*
X130512286Y-136024356D01*
X130655143Y-135952928D01*
X130726571Y-135810070D01*
X130726571Y-135595785D01*
X130655143Y-135452928D01*
X130583714Y-135381499D01*
X130726571Y-134667213D02*
X129726571Y-134667213D01*
X130012286Y-134667213D02*
X129869429Y-134595785D01*
X129798000Y-134524356D01*
X129726571Y-134381499D01*
X129726571Y-134238642D01*
X130655143Y-133167214D02*
X130726571Y-133310071D01*
X130726571Y-133595785D01*
X130655143Y-133738642D01*
X130512286Y-133810071D01*
X129940857Y-133810071D01*
X129798000Y-133738642D01*
X129726571Y-133595785D01*
X129726571Y-133310071D01*
X129798000Y-133167214D01*
X129940857Y-133095785D01*
X130083714Y-133095785D01*
X130226571Y-133810071D01*
X130726571Y-131310071D02*
X129726571Y-131310071D01*
X130012286Y-131310071D02*
X129869429Y-131238643D01*
X129798000Y-131167214D01*
X129726571Y-131024357D01*
X129726571Y-130881500D01*
X130655143Y-129810072D02*
X130726571Y-129952929D01*
X130726571Y-130238643D01*
X130655143Y-130381500D01*
X130512286Y-130452929D01*
X129940857Y-130452929D01*
X129798000Y-130381500D01*
X129726571Y-130238643D01*
X129726571Y-129952929D01*
X129798000Y-129810072D01*
X129940857Y-129738643D01*
X130083714Y-129738643D01*
X130226571Y-130452929D01*
X129726571Y-128452929D02*
X130940857Y-128452929D01*
X131083714Y-128524358D01*
X131155143Y-128595786D01*
X131226571Y-128738643D01*
X131226571Y-128952929D01*
X131155143Y-129095786D01*
X130655143Y-128452929D02*
X130726571Y-128595786D01*
X130726571Y-128881500D01*
X130655143Y-129024358D01*
X130583714Y-129095786D01*
X130440857Y-129167215D01*
X130012286Y-129167215D01*
X129869429Y-129095786D01*
X129798000Y-129024358D01*
X129726571Y-128881500D01*
X129726571Y-128595786D01*
X129798000Y-128452929D01*
X129726571Y-127095786D02*
X130726571Y-127095786D01*
X129726571Y-127738643D02*
X130512286Y-127738643D01*
X130655143Y-127667215D01*
X130726571Y-127524357D01*
X130726571Y-127310072D01*
X130655143Y-127167215D01*
X130583714Y-127095786D01*
X130726571Y-126167214D02*
X130655143Y-126310072D01*
X130512286Y-126381500D01*
X129226571Y-126381500D01*
X130726571Y-124952929D02*
X129940857Y-124952929D01*
X129798000Y-125024358D01*
X129726571Y-125167215D01*
X129726571Y-125452929D01*
X129798000Y-125595786D01*
X130655143Y-124952929D02*
X130726571Y-125095786D01*
X130726571Y-125452929D01*
X130655143Y-125595786D01*
X130512286Y-125667215D01*
X130369429Y-125667215D01*
X130226571Y-125595786D01*
X130155143Y-125452929D01*
X130155143Y-125095786D01*
X130083714Y-124952929D01*
X129726571Y-124452929D02*
X129726571Y-123881500D01*
X129226571Y-124238643D02*
X130512286Y-124238643D01*
X130655143Y-124167215D01*
X130726571Y-124024357D01*
X130726571Y-123881500D01*
X130726571Y-123167214D02*
X130655143Y-123310072D01*
X130583714Y-123381500D01*
X130440857Y-123452929D01*
X130012286Y-123452929D01*
X129869429Y-123381500D01*
X129798000Y-123310072D01*
X129726571Y-123167214D01*
X129726571Y-122952929D01*
X129798000Y-122810072D01*
X129869429Y-122738643D01*
X130012286Y-122667214D01*
X130440857Y-122667214D01*
X130583714Y-122738643D01*
X130655143Y-122810072D01*
X130726571Y-122952929D01*
X130726571Y-123167214D01*
X130726571Y-122024357D02*
X129726571Y-122024357D01*
X130012286Y-122024357D02*
X129869429Y-121952929D01*
X129798000Y-121881500D01*
X129726571Y-121738643D01*
X129726571Y-121595786D01*
X130655143Y-121167215D02*
X130726571Y-121024358D01*
X130726571Y-120738643D01*
X130655143Y-120595786D01*
X130512286Y-120524358D01*
X130440857Y-120524358D01*
X130298000Y-120595786D01*
X130226571Y-120738643D01*
X130226571Y-120952929D01*
X130155143Y-121095786D01*
X130012286Y-121167215D01*
X129940857Y-121167215D01*
X129798000Y-121095786D01*
X129726571Y-120952929D01*
X129726571Y-120738643D01*
X129798000Y-120595786D01*
X151320572Y-143299643D02*
X152463429Y-143299643D01*
X151447572Y-133520643D02*
X152590429Y-133520643D01*
X148590072Y-143236143D02*
X149732929Y-143236143D01*
X149161500Y-143807571D02*
X149161500Y-142664714D01*
X148717072Y-133520643D02*
X149859929Y-133520643D01*
X149288500Y-134092071D02*
X149288500Y-132949214D01*
X155618571Y-132369214D02*
X154118571Y-132369214D01*
X154118571Y-131797786D01*
X154190000Y-131654928D01*
X154261429Y-131583500D01*
X154404286Y-131512071D01*
X154618571Y-131512071D01*
X154761429Y-131583500D01*
X154832857Y-131654928D01*
X154904286Y-131797786D01*
X154904286Y-132369214D01*
X154618571Y-130226357D02*
X155618571Y-130226357D01*
X154618571Y-130869214D02*
X155404286Y-130869214D01*
X155547143Y-130797786D01*
X155618571Y-130654928D01*
X155618571Y-130440643D01*
X155547143Y-130297786D01*
X155475714Y-130226357D01*
X155618571Y-129512071D02*
X154618571Y-129512071D01*
X154761429Y-129512071D02*
X154690000Y-129440643D01*
X154618571Y-129297785D01*
X154618571Y-129083500D01*
X154690000Y-128940643D01*
X154832857Y-128869214D01*
X155618571Y-128869214D01*
X154832857Y-128869214D02*
X154690000Y-128797785D01*
X154618571Y-128654928D01*
X154618571Y-128440643D01*
X154690000Y-128297785D01*
X154832857Y-128226357D01*
X155618571Y-128226357D01*
X154618571Y-127512071D02*
X156118571Y-127512071D01*
X154690000Y-127512071D02*
X154618571Y-127369214D01*
X154618571Y-127083500D01*
X154690000Y-126940643D01*
X154761429Y-126869214D01*
X154904286Y-126797785D01*
X155332857Y-126797785D01*
X155475714Y-126869214D01*
X155547143Y-126940643D01*
X155618571Y-127083500D01*
X155618571Y-127369214D01*
X155547143Y-127512071D01*
X154261429Y-125083500D02*
X154190000Y-125012071D01*
X154118571Y-124869214D01*
X154118571Y-124512071D01*
X154190000Y-124369214D01*
X154261429Y-124297785D01*
X154404286Y-124226357D01*
X154547143Y-124226357D01*
X154761429Y-124297785D01*
X155618571Y-125154928D01*
X155618571Y-124226357D01*
X155555071Y-142719714D02*
X154055071Y-142719714D01*
X154055071Y-142148286D01*
X154126500Y-142005428D01*
X154197929Y-141934000D01*
X154340786Y-141862571D01*
X154555071Y-141862571D01*
X154697929Y-141934000D01*
X154769357Y-142005428D01*
X154840786Y-142148286D01*
X154840786Y-142719714D01*
X154555071Y-140576857D02*
X155555071Y-140576857D01*
X154555071Y-141219714D02*
X155340786Y-141219714D01*
X155483643Y-141148286D01*
X155555071Y-141005428D01*
X155555071Y-140791143D01*
X155483643Y-140648286D01*
X155412214Y-140576857D01*
X155555071Y-139862571D02*
X154555071Y-139862571D01*
X154697929Y-139862571D02*
X154626500Y-139791143D01*
X154555071Y-139648285D01*
X154555071Y-139434000D01*
X154626500Y-139291143D01*
X154769357Y-139219714D01*
X155555071Y-139219714D01*
X154769357Y-139219714D02*
X154626500Y-139148285D01*
X154555071Y-139005428D01*
X154555071Y-138791143D01*
X154626500Y-138648285D01*
X154769357Y-138576857D01*
X155555071Y-138576857D01*
X154555071Y-137862571D02*
X156055071Y-137862571D01*
X154626500Y-137862571D02*
X154555071Y-137719714D01*
X154555071Y-137434000D01*
X154626500Y-137291143D01*
X154697929Y-137219714D01*
X154840786Y-137148285D01*
X155269357Y-137148285D01*
X155412214Y-137219714D01*
X155483643Y-137291143D01*
X155555071Y-137434000D01*
X155555071Y-137719714D01*
X155483643Y-137862571D01*
X155555071Y-134576857D02*
X155555071Y-135434000D01*
X155555071Y-135005428D02*
X154055071Y-135005428D01*
X154269357Y-135148285D01*
X154412214Y-135291143D01*
X154483643Y-135434000D01*
X174368001Y-98810071D02*
X174868001Y-100310071D01*
X175368001Y-98810071D01*
X176510858Y-100310071D02*
X176510858Y-99524357D01*
X176439429Y-99381500D01*
X176296572Y-99310071D01*
X176010858Y-99310071D01*
X175868001Y-99381500D01*
X176510858Y-100238643D02*
X176368001Y-100310071D01*
X176010858Y-100310071D01*
X175868001Y-100238643D01*
X175796572Y-100095786D01*
X175796572Y-99952929D01*
X175868001Y-99810071D01*
X176010858Y-99738643D01*
X176368001Y-99738643D01*
X176510858Y-99667214D01*
X177439430Y-100310071D02*
X177296572Y-100238643D01*
X177225144Y-100095786D01*
X177225144Y-98810071D01*
X177868001Y-99310071D02*
X178225144Y-100310071D01*
X178582286Y-99310071D01*
X179725143Y-100238643D02*
X179582286Y-100310071D01*
X179296572Y-100310071D01*
X179153715Y-100238643D01*
X179082286Y-100095786D01*
X179082286Y-99524357D01*
X179153715Y-99381500D01*
X179296572Y-99310071D01*
X179582286Y-99310071D01*
X179725143Y-99381500D01*
X179796572Y-99524357D01*
X179796572Y-99667214D01*
X179082286Y-99810071D01*
X180368000Y-100238643D02*
X180510857Y-100310071D01*
X180796572Y-100310071D01*
X180939429Y-100238643D01*
X181010857Y-100095786D01*
X181010857Y-100024357D01*
X180939429Y-99881500D01*
X180796572Y-99810071D01*
X180582286Y-99810071D01*
X180439429Y-99738643D01*
X180368000Y-99595786D01*
X180368000Y-99524357D01*
X180439429Y-99381500D01*
X180582286Y-99310071D01*
X180796572Y-99310071D01*
X180939429Y-99381500D01*
X182725143Y-98952929D02*
X182796572Y-98881500D01*
X182939429Y-98810071D01*
X183296572Y-98810071D01*
X183439429Y-98881500D01*
X183510858Y-98952929D01*
X183582286Y-99095786D01*
X183582286Y-99238643D01*
X183510858Y-99452929D01*
X182653715Y-100310071D01*
X183582286Y-100310071D01*
X184939429Y-98810071D02*
X184225143Y-98810071D01*
X184153714Y-99524357D01*
X184225143Y-99452929D01*
X184368000Y-99381500D01*
X184725143Y-99381500D01*
X184868000Y-99452929D01*
X184939429Y-99524357D01*
X185010857Y-99667214D01*
X185010857Y-100024357D01*
X184939429Y-100167214D01*
X184868000Y-100238643D01*
X184725143Y-100310071D01*
X184368000Y-100310071D01*
X184225143Y-100238643D01*
X184153714Y-100167214D01*
X185653714Y-99738643D02*
X186796571Y-99738643D01*
X187368000Y-98810071D02*
X188296571Y-98810071D01*
X187796571Y-99381500D01*
X188010857Y-99381500D01*
X188153714Y-99452929D01*
X188225143Y-99524357D01*
X188296571Y-99667214D01*
X188296571Y-100024357D01*
X188225143Y-100167214D01*
X188153714Y-100238643D01*
X188010857Y-100310071D01*
X187582285Y-100310071D01*
X187439428Y-100238643D01*
X187368000Y-100167214D01*
X188867999Y-98952929D02*
X188939428Y-98881500D01*
X189082285Y-98810071D01*
X189439428Y-98810071D01*
X189582285Y-98881500D01*
X189653714Y-98952929D01*
X189725142Y-99095786D01*
X189725142Y-99238643D01*
X189653714Y-99452929D01*
X188796571Y-100310071D01*
X189725142Y-100310071D01*
X174368001Y-113415071D02*
X174868001Y-114915071D01*
X175368001Y-113415071D01*
X176510858Y-114915071D02*
X176510858Y-114129357D01*
X176439429Y-113986500D01*
X176296572Y-113915071D01*
X176010858Y-113915071D01*
X175868001Y-113986500D01*
X176510858Y-114843643D02*
X176368001Y-114915071D01*
X176010858Y-114915071D01*
X175868001Y-114843643D01*
X175796572Y-114700786D01*
X175796572Y-114557929D01*
X175868001Y-114415071D01*
X176010858Y-114343643D01*
X176368001Y-114343643D01*
X176510858Y-114272214D01*
X177439430Y-114915071D02*
X177296572Y-114843643D01*
X177225144Y-114700786D01*
X177225144Y-113415071D01*
X177868001Y-113915071D02*
X178225144Y-114915071D01*
X178582286Y-113915071D01*
X179725143Y-114843643D02*
X179582286Y-114915071D01*
X179296572Y-114915071D01*
X179153715Y-114843643D01*
X179082286Y-114700786D01*
X179082286Y-114129357D01*
X179153715Y-113986500D01*
X179296572Y-113915071D01*
X179582286Y-113915071D01*
X179725143Y-113986500D01*
X179796572Y-114129357D01*
X179796572Y-114272214D01*
X179082286Y-114415071D01*
X180368000Y-114843643D02*
X180510857Y-114915071D01*
X180796572Y-114915071D01*
X180939429Y-114843643D01*
X181010857Y-114700786D01*
X181010857Y-114629357D01*
X180939429Y-114486500D01*
X180796572Y-114415071D01*
X180582286Y-114415071D01*
X180439429Y-114343643D01*
X180368000Y-114200786D01*
X180368000Y-114129357D01*
X180439429Y-113986500D01*
X180582286Y-113915071D01*
X180796572Y-113915071D01*
X180939429Y-113986500D01*
X183582286Y-114915071D02*
X182725143Y-114915071D01*
X183153715Y-114915071D02*
X183153715Y-113415071D01*
X183010858Y-113629357D01*
X182868000Y-113772214D01*
X182725143Y-113843643D01*
X184082286Y-113415071D02*
X185082286Y-113415071D01*
X184439429Y-114915071D01*
X185653714Y-114343643D02*
X186796571Y-114343643D01*
X187439428Y-113557929D02*
X187510857Y-113486500D01*
X187653714Y-113415071D01*
X188010857Y-113415071D01*
X188153714Y-113486500D01*
X188225143Y-113557929D01*
X188296571Y-113700786D01*
X188296571Y-113843643D01*
X188225143Y-114057929D01*
X187368000Y-114915071D01*
X188296571Y-114915071D01*
X189582285Y-113915071D02*
X189582285Y-114915071D01*
X189225142Y-113343643D02*
X188867999Y-114415071D01*
X189796571Y-114415071D01*
X174447287Y-128020071D02*
X174947287Y-129520071D01*
X175447287Y-128020071D01*
X176590144Y-129520071D02*
X176590144Y-128734357D01*
X176518715Y-128591500D01*
X176375858Y-128520071D01*
X176090144Y-128520071D01*
X175947287Y-128591500D01*
X176590144Y-129448643D02*
X176447287Y-129520071D01*
X176090144Y-129520071D01*
X175947287Y-129448643D01*
X175875858Y-129305786D01*
X175875858Y-129162929D01*
X175947287Y-129020071D01*
X176090144Y-128948643D01*
X176447287Y-128948643D01*
X176590144Y-128877214D01*
X177518716Y-129520071D02*
X177375858Y-129448643D01*
X177304430Y-129305786D01*
X177304430Y-128020071D01*
X177947287Y-128520071D02*
X178304430Y-129520071D01*
X178661572Y-128520071D01*
X179804429Y-129448643D02*
X179661572Y-129520071D01*
X179375858Y-129520071D01*
X179233001Y-129448643D01*
X179161572Y-129305786D01*
X179161572Y-128734357D01*
X179233001Y-128591500D01*
X179375858Y-128520071D01*
X179661572Y-128520071D01*
X179804429Y-128591500D01*
X179875858Y-128734357D01*
X179875858Y-128877214D01*
X179161572Y-129020071D01*
X180447286Y-129448643D02*
X180590143Y-129520071D01*
X180875858Y-129520071D01*
X181018715Y-129448643D01*
X181090143Y-129305786D01*
X181090143Y-129234357D01*
X181018715Y-129091500D01*
X180875858Y-129020071D01*
X180661572Y-129020071D01*
X180518715Y-128948643D01*
X180447286Y-128805786D01*
X180447286Y-128734357D01*
X180518715Y-128591500D01*
X180661572Y-128520071D01*
X180875858Y-128520071D01*
X181018715Y-128591500D01*
X182947286Y-129520071D02*
X183233001Y-129520071D01*
X183375858Y-129448643D01*
X183447286Y-129377214D01*
X183590144Y-129162929D01*
X183661572Y-128877214D01*
X183661572Y-128305786D01*
X183590144Y-128162929D01*
X183518715Y-128091500D01*
X183375858Y-128020071D01*
X183090144Y-128020071D01*
X182947286Y-128091500D01*
X182875858Y-128162929D01*
X182804429Y-128305786D01*
X182804429Y-128662929D01*
X182875858Y-128805786D01*
X182947286Y-128877214D01*
X183090144Y-128948643D01*
X183375858Y-128948643D01*
X183518715Y-128877214D01*
X183590144Y-128805786D01*
X183661572Y-128662929D01*
X184304429Y-128948643D02*
X185447286Y-128948643D01*
X186947286Y-129520071D02*
X186090143Y-129520071D01*
X186518715Y-129520071D02*
X186518715Y-128020071D01*
X186375858Y-128234357D01*
X186233000Y-128377214D01*
X186090143Y-128448643D01*
X188233000Y-128020071D02*
X187947286Y-128020071D01*
X187804429Y-128091500D01*
X187733000Y-128162929D01*
X187590143Y-128377214D01*
X187518714Y-128662929D01*
X187518714Y-129234357D01*
X187590143Y-129377214D01*
X187661571Y-129448643D01*
X187804429Y-129520071D01*
X188090143Y-129520071D01*
X188233000Y-129448643D01*
X188304429Y-129377214D01*
X188375857Y-129234357D01*
X188375857Y-128877214D01*
X188304429Y-128734357D01*
X188233000Y-128662929D01*
X188090143Y-128591500D01*
X187804429Y-128591500D01*
X187661571Y-128662929D01*
X187590143Y-128734357D01*
X187518714Y-128877214D01*
X175161572Y-143260071D02*
X175661572Y-144760071D01*
X176161572Y-143260071D01*
X177304429Y-144760071D02*
X177304429Y-143974357D01*
X177233000Y-143831500D01*
X177090143Y-143760071D01*
X176804429Y-143760071D01*
X176661572Y-143831500D01*
X177304429Y-144688643D02*
X177161572Y-144760071D01*
X176804429Y-144760071D01*
X176661572Y-144688643D01*
X176590143Y-144545786D01*
X176590143Y-144402929D01*
X176661572Y-144260071D01*
X176804429Y-144188643D01*
X177161572Y-144188643D01*
X177304429Y-144117214D01*
X178233001Y-144760071D02*
X178090143Y-144688643D01*
X178018715Y-144545786D01*
X178018715Y-143260071D01*
X178661572Y-143760071D02*
X179018715Y-144760071D01*
X179375857Y-143760071D01*
X180518714Y-144688643D02*
X180375857Y-144760071D01*
X180090143Y-144760071D01*
X179947286Y-144688643D01*
X179875857Y-144545786D01*
X179875857Y-143974357D01*
X179947286Y-143831500D01*
X180090143Y-143760071D01*
X180375857Y-143760071D01*
X180518714Y-143831500D01*
X180590143Y-143974357D01*
X180590143Y-144117214D01*
X179875857Y-144260071D01*
X181161571Y-144688643D02*
X181304428Y-144760071D01*
X181590143Y-144760071D01*
X181733000Y-144688643D01*
X181804428Y-144545786D01*
X181804428Y-144474357D01*
X181733000Y-144331500D01*
X181590143Y-144260071D01*
X181375857Y-144260071D01*
X181233000Y-144188643D01*
X181161571Y-144045786D01*
X181161571Y-143974357D01*
X181233000Y-143831500D01*
X181375857Y-143760071D01*
X181590143Y-143760071D01*
X181733000Y-143831500D01*
X184375857Y-144760071D02*
X183518714Y-144760071D01*
X183947286Y-144760071D02*
X183947286Y-143260071D01*
X183804429Y-143474357D01*
X183661571Y-143617214D01*
X183518714Y-143688643D01*
X185018714Y-144188643D02*
X186161571Y-144188643D01*
X187090143Y-143902929D02*
X186947285Y-143831500D01*
X186875857Y-143760071D01*
X186804428Y-143617214D01*
X186804428Y-143545786D01*
X186875857Y-143402929D01*
X186947285Y-143331500D01*
X187090143Y-143260071D01*
X187375857Y-143260071D01*
X187518714Y-143331500D01*
X187590143Y-143402929D01*
X187661571Y-143545786D01*
X187661571Y-143617214D01*
X187590143Y-143760071D01*
X187518714Y-143831500D01*
X187375857Y-143902929D01*
X187090143Y-143902929D01*
X186947285Y-143974357D01*
X186875857Y-144045786D01*
X186804428Y-144188643D01*
X186804428Y-144474357D01*
X186875857Y-144617214D01*
X186947285Y-144688643D01*
X187090143Y-144760071D01*
X187375857Y-144760071D01*
X187518714Y-144688643D01*
X187590143Y-144617214D01*
X187661571Y-144474357D01*
X187661571Y-144188643D01*
X187590143Y-144045786D01*
X187518714Y-143974357D01*
X187375857Y-143902929D01*
D14*
X140176000Y-99335500D02*
X131676000Y-99335500D01*
X131676000Y-99335500D02*
X131676000Y-87735500D01*
X131676000Y-87735500D02*
X140176000Y-87735500D01*
X140176000Y-87735500D02*
X140176000Y-99335500D01*
D11*
X140271500Y-108008500D02*
X140271500Y-101668500D01*
X132651500Y-108008500D02*
X132651500Y-101668500D01*
X132651500Y-106108500D02*
X140271500Y-106108500D01*
X140271500Y-108008500D02*
X132651500Y-108008500D01*
X132651500Y-101668500D02*
X140271500Y-101668500D01*
D14*
X154971000Y-98630500D02*
X142971000Y-98630500D01*
X142971000Y-85630500D02*
X154971000Y-85630500D01*
X154971000Y-85630500D02*
X154971000Y-98630500D01*
X142971000Y-98630500D02*
X142971000Y-85630500D01*
D11*
X198374000Y-90106500D02*
G75*
G03X198374000Y-90106500I-2286000J0D01*
G01*
X92329000Y-90106500D02*
G75*
G03X92329000Y-90106500I-2286000J0D01*
G01*
X92329000Y-142811500D02*
G75*
G03X92329000Y-142811500I-2286000J0D01*
G01*
X198374000Y-142811500D02*
G75*
G03X198374000Y-142811500I-2286000J0D01*
G01*
X140284200Y-112509300D02*
G75*
G03X140284200Y-112509300I-2286000J0D01*
G01*
D14*
X141973000Y-108204000D02*
X141980500Y-108204000D01*
X156223000Y-108204000D02*
X156215500Y-108204000D01*
X156223000Y-114554000D02*
X156215500Y-114554000D01*
X141898000Y-115629000D02*
X141898000Y-108204000D01*
X156223000Y-114554000D02*
X156223000Y-108204000D01*
D11*
X137033000Y-121980000D02*
X144713000Y-121980000D01*
X144713000Y-121980000D02*
X144713000Y-119320000D01*
X144713000Y-119320000D02*
X137033000Y-119320000D01*
X137033000Y-119320000D02*
X137033000Y-121980000D01*
X135763000Y-121980000D02*
X134433000Y-121980000D01*
X134433000Y-121980000D02*
X134433000Y-120650000D01*
X136969500Y-131060500D02*
X144649500Y-131060500D01*
X144649500Y-131060500D02*
X144649500Y-128400500D01*
X144649500Y-128400500D02*
X136969500Y-128400500D01*
X136969500Y-128400500D02*
X136969500Y-131060500D01*
X135699500Y-131060500D02*
X134369500Y-131060500D01*
X134369500Y-131060500D02*
X134369500Y-129730500D01*
X136969500Y-139950500D02*
X144649500Y-139950500D01*
X144649500Y-139950500D02*
X144649500Y-137290500D01*
X144649500Y-137290500D02*
X136969500Y-137290500D01*
X136969500Y-137290500D02*
X136969500Y-139950500D01*
X135699500Y-139950500D02*
X134369500Y-139950500D01*
X134369500Y-139950500D02*
X134369500Y-138620500D01*
D14*
X159675600Y-88093500D02*
X159675600Y-88343500D01*
X167425600Y-88093500D02*
X167425600Y-88438500D01*
X167425600Y-99993500D02*
X167425600Y-99648500D01*
X159675600Y-99993500D02*
X159675600Y-99648500D01*
X159675600Y-88093500D02*
X167425600Y-88093500D01*
X159675600Y-99993500D02*
X167425600Y-99993500D01*
X159675600Y-88343500D02*
X157850600Y-88343500D01*
X159650200Y-102673100D02*
X159650200Y-102923100D01*
X167400200Y-102673100D02*
X167400200Y-103018100D01*
X167400200Y-114573100D02*
X167400200Y-114228100D01*
X159650200Y-114573100D02*
X159650200Y-114228100D01*
X159650200Y-102673100D02*
X167400200Y-102673100D01*
X159650200Y-114573100D02*
X167400200Y-114573100D01*
X159650200Y-102923100D02*
X157825200Y-102923100D01*
X159675600Y-116922500D02*
X159675600Y-117172500D01*
X167425600Y-116922500D02*
X167425600Y-117267500D01*
X167425600Y-128822500D02*
X167425600Y-128477500D01*
X159675600Y-128822500D02*
X159675600Y-128477500D01*
X159675600Y-116922500D02*
X167425600Y-116922500D01*
X159675600Y-128822500D02*
X167425600Y-128822500D01*
X159675600Y-117172500D02*
X157850600Y-117172500D01*
X159802600Y-132137100D02*
X159802600Y-132387100D01*
X167552600Y-132137100D02*
X167552600Y-132482100D01*
X167552600Y-144037100D02*
X167552600Y-143692100D01*
X159802600Y-144037100D02*
X159802600Y-143692100D01*
X159802600Y-132137100D02*
X167552600Y-132137100D01*
X159802600Y-144037100D02*
X167552600Y-144037100D01*
X159802600Y-132387100D02*
X157977600Y-132387100D01*
D11*
X133331500Y-113927000D02*
X133331500Y-114927000D01*
X131971500Y-114927000D02*
X131971500Y-113927000D01*
X130791500Y-113927000D02*
X130791500Y-114927000D01*
X129431500Y-114927000D02*
X129431500Y-113927000D01*
D14*
X96363000Y-135061500D02*
X100363000Y-135061500D01*
X100363000Y-135061500D02*
X100363000Y-141561500D01*
X100363000Y-141561500D02*
X120363000Y-141561500D01*
X120363000Y-141561500D02*
X120363000Y-135061500D01*
X120363000Y-135061500D02*
X124363000Y-135061500D01*
X96363000Y-135061500D02*
X96363000Y-87061500D01*
X96363000Y-87061500D02*
X124363000Y-87061500D01*
X124363000Y-87061500D02*
X124363000Y-135061500D01*
D11*
X192528000Y-142531500D02*
X171708000Y-142531500D01*
X171708000Y-142531500D02*
X171708000Y-132931500D01*
X171708000Y-132931500D02*
X192528000Y-132931500D01*
X192528000Y-132931500D02*
X192528000Y-142531500D01*
X192528000Y-127291500D02*
X171708000Y-127291500D01*
X171708000Y-127291500D02*
X171708000Y-117691500D01*
X171708000Y-117691500D02*
X192528000Y-117691500D01*
X192528000Y-117691500D02*
X192528000Y-127291500D01*
X192528000Y-112686500D02*
X171708000Y-112686500D01*
X171708000Y-112686500D02*
X171708000Y-103086500D01*
X171708000Y-103086500D02*
X192528000Y-103086500D01*
X192528000Y-103086500D02*
X192528000Y-112686500D01*
X192528000Y-98081500D02*
X171708000Y-98081500D01*
X171708000Y-98081500D02*
X171708000Y-88481500D01*
X171708000Y-88481500D02*
X192528000Y-88481500D01*
X192528000Y-88481500D02*
X192528000Y-98081500D01*
X152933400Y-137350500D02*
X147853400Y-137350500D01*
X152933400Y-141790500D02*
X147853400Y-141790500D01*
X147853400Y-135450500D02*
X152933400Y-135450500D01*
X147853400Y-135450500D02*
X147853400Y-141790500D01*
X152933400Y-135450500D02*
X152933400Y-141790500D01*
X152984200Y-127901700D02*
X147904200Y-127901700D01*
X152984200Y-132341700D02*
X147904200Y-132341700D01*
X147904200Y-126001700D02*
X152984200Y-126001700D01*
X147904200Y-126001700D02*
X147904200Y-132341700D01*
X152984200Y-126001700D02*
X152984200Y-132341700D01*
D14*
X143891095Y-105497381D02*
X143891095Y-106306905D01*
X143938714Y-106402143D01*
X143986333Y-106449762D01*
X144081571Y-106497381D01*
X144272048Y-106497381D01*
X144367286Y-106449762D01*
X144414905Y-106402143D01*
X144462524Y-106306905D01*
X144462524Y-105497381D01*
X145367286Y-105497381D02*
X145176809Y-105497381D01*
X145081571Y-105545000D01*
X145033952Y-105592619D01*
X144938714Y-105735476D01*
X144891095Y-105925952D01*
X144891095Y-106306905D01*
X144938714Y-106402143D01*
X144986333Y-106449762D01*
X145081571Y-106497381D01*
X145272048Y-106497381D01*
X145367286Y-106449762D01*
X145414905Y-106402143D01*
X145462524Y-106306905D01*
X145462524Y-106068810D01*
X145414905Y-105973571D01*
X145367286Y-105925952D01*
X145272048Y-105878333D01*
X145081571Y-105878333D01*
X144986333Y-105925952D01*
X144938714Y-105973571D01*
X144891095Y-106068810D01*
X162788695Y-86620881D02*
X162788695Y-87430405D01*
X162836314Y-87525643D01*
X162883933Y-87573262D01*
X162979171Y-87620881D01*
X163169648Y-87620881D01*
X163264886Y-87573262D01*
X163312505Y-87525643D01*
X163360124Y-87430405D01*
X163360124Y-86620881D01*
X164312505Y-86620881D02*
X163836314Y-86620881D01*
X163788695Y-87097071D01*
X163836314Y-87049452D01*
X163931552Y-87001833D01*
X164169648Y-87001833D01*
X164264886Y-87049452D01*
X164312505Y-87097071D01*
X164360124Y-87192310D01*
X164360124Y-87430405D01*
X164312505Y-87525643D01*
X164264886Y-87573262D01*
X164169648Y-87620881D01*
X163931552Y-87620881D01*
X163836314Y-87573262D01*
X163788695Y-87525643D01*
X162763295Y-101200481D02*
X162763295Y-102010005D01*
X162810914Y-102105243D01*
X162858533Y-102152862D01*
X162953771Y-102200481D01*
X163144248Y-102200481D01*
X163239486Y-102152862D01*
X163287105Y-102105243D01*
X163334724Y-102010005D01*
X163334724Y-101200481D01*
X164239486Y-101533814D02*
X164239486Y-102200481D01*
X164001390Y-101152862D02*
X163763295Y-101867148D01*
X164382343Y-101867148D01*
X162788695Y-115449881D02*
X162788695Y-116259405D01*
X162836314Y-116354643D01*
X162883933Y-116402262D01*
X162979171Y-116449881D01*
X163169648Y-116449881D01*
X163264886Y-116402262D01*
X163312505Y-116354643D01*
X163360124Y-116259405D01*
X163360124Y-115449881D01*
X163741076Y-115449881D02*
X164360124Y-115449881D01*
X164026790Y-115830833D01*
X164169648Y-115830833D01*
X164264886Y-115878452D01*
X164312505Y-115926071D01*
X164360124Y-116021310D01*
X164360124Y-116259405D01*
X164312505Y-116354643D01*
X164264886Y-116402262D01*
X164169648Y-116449881D01*
X163883933Y-116449881D01*
X163788695Y-116402262D01*
X163741076Y-116354643D01*
X162915695Y-130664481D02*
X162915695Y-131474005D01*
X162963314Y-131569243D01*
X163010933Y-131616862D01*
X163106171Y-131664481D01*
X163296648Y-131664481D01*
X163391886Y-131616862D01*
X163439505Y-131569243D01*
X163487124Y-131474005D01*
X163487124Y-130664481D01*
X163915695Y-130759719D02*
X163963314Y-130712100D01*
X164058552Y-130664481D01*
X164296648Y-130664481D01*
X164391886Y-130712100D01*
X164439505Y-130759719D01*
X164487124Y-130854957D01*
X164487124Y-130950195D01*
X164439505Y-131093052D01*
X163868076Y-131664481D01*
X164487124Y-131664481D01*
X134818381Y-114657166D02*
X134342190Y-114990500D01*
X134818381Y-115228595D02*
X133818381Y-115228595D01*
X133818381Y-114847642D01*
X133866000Y-114752404D01*
X133913619Y-114704785D01*
X134008857Y-114657166D01*
X134151714Y-114657166D01*
X134246952Y-114704785D01*
X134294571Y-114752404D01*
X134342190Y-114847642D01*
X134342190Y-115228595D01*
X134151714Y-113800023D02*
X134818381Y-113800023D01*
X133770762Y-114038119D02*
X134485048Y-114276214D01*
X134485048Y-113657166D01*
X129113881Y-114593666D02*
X128637690Y-114927000D01*
X129113881Y-115165095D02*
X128113881Y-115165095D01*
X128113881Y-114784142D01*
X128161500Y-114688904D01*
X128209119Y-114641285D01*
X128304357Y-114593666D01*
X128447214Y-114593666D01*
X128542452Y-114641285D01*
X128590071Y-114688904D01*
X128637690Y-114784142D01*
X128637690Y-115165095D01*
X128113881Y-114260333D02*
X128113881Y-113641285D01*
X128494833Y-113974619D01*
X128494833Y-113831761D01*
X128542452Y-113736523D01*
X128590071Y-113688904D01*
X128685310Y-113641285D01*
X128923405Y-113641285D01*
X129018643Y-113688904D01*
X129066262Y-113736523D01*
X129113881Y-113831761D01*
X129113881Y-114117476D01*
X129066262Y-114212714D01*
X129018643Y-114260333D01*
X110020143Y-136707214D02*
X109905857Y-136764357D01*
X109677286Y-136764357D01*
X109563000Y-136707214D01*
X109505857Y-136592929D01*
X109505857Y-136135786D01*
X109563000Y-136021500D01*
X109677286Y-135964357D01*
X109905857Y-135964357D01*
X110020143Y-136021500D01*
X110077286Y-136135786D01*
X110077286Y-136250071D01*
X109505857Y-136364357D01*
X111220143Y-136764357D02*
X110534428Y-136764357D01*
X110877286Y-136764357D02*
X110877286Y-135564357D01*
X110763000Y-135735786D01*
X110648714Y-135850071D01*
X110534428Y-135907214D01*
D11*
X93063000Y-88768642D02*
X93034429Y-88825785D01*
X93034429Y-88911499D01*
X93063000Y-88997214D01*
X93120143Y-89054356D01*
X93177286Y-89082928D01*
X93291571Y-89111499D01*
X93377286Y-89111499D01*
X93491571Y-89082928D01*
X93548714Y-89054356D01*
X93605857Y-88997214D01*
X93634429Y-88911499D01*
X93634429Y-88854356D01*
X93605857Y-88768642D01*
X93577286Y-88740071D01*
X93377286Y-88740071D01*
X93377286Y-88854356D01*
X93634429Y-88482928D02*
X93034429Y-88482928D01*
X93634429Y-88140071D01*
X93034429Y-88140071D01*
X93634429Y-87854357D02*
X93034429Y-87854357D01*
X93034429Y-87711500D01*
X93063000Y-87625785D01*
X93120143Y-87568643D01*
X93177286Y-87540071D01*
X93291571Y-87511500D01*
X93377286Y-87511500D01*
X93491571Y-87540071D01*
X93548714Y-87568643D01*
X93605857Y-87625785D01*
X93634429Y-87711500D01*
X93634429Y-87854357D01*
X93634429Y-91697214D02*
X93034429Y-91697214D01*
X93034429Y-91297214D02*
X93034429Y-91182928D01*
X93063000Y-91125786D01*
X93120143Y-91068643D01*
X93234429Y-91040071D01*
X93434429Y-91040071D01*
X93548714Y-91068643D01*
X93605857Y-91125786D01*
X93634429Y-91182928D01*
X93634429Y-91297214D01*
X93605857Y-91354357D01*
X93548714Y-91411500D01*
X93434429Y-91440071D01*
X93234429Y-91440071D01*
X93120143Y-91411500D01*
X93063000Y-91354357D01*
X93034429Y-91297214D01*
X93091571Y-90811500D02*
X93063000Y-90782929D01*
X93034429Y-90725786D01*
X93034429Y-90582929D01*
X93063000Y-90525786D01*
X93091571Y-90497215D01*
X93148714Y-90468643D01*
X93205857Y-90468643D01*
X93291571Y-90497215D01*
X93634429Y-90840072D01*
X93634429Y-90468643D01*
X93034429Y-90268643D02*
X93034429Y-89897214D01*
X93263000Y-90097214D01*
X93263000Y-90011500D01*
X93291571Y-89954357D01*
X93320143Y-89925786D01*
X93377286Y-89897214D01*
X93520143Y-89897214D01*
X93577286Y-89925786D01*
X93605857Y-89954357D01*
X93634429Y-90011500D01*
X93634429Y-90182928D01*
X93605857Y-90240071D01*
X93577286Y-90268643D01*
X93605857Y-94025785D02*
X93634429Y-93940071D01*
X93634429Y-93797214D01*
X93605857Y-93740071D01*
X93577286Y-93711500D01*
X93520143Y-93682928D01*
X93463000Y-93682928D01*
X93405857Y-93711500D01*
X93377286Y-93740071D01*
X93348714Y-93797214D01*
X93320143Y-93911500D01*
X93291571Y-93968642D01*
X93263000Y-93997214D01*
X93205857Y-94025785D01*
X93148714Y-94025785D01*
X93091571Y-93997214D01*
X93063000Y-93968642D01*
X93034429Y-93911500D01*
X93034429Y-93768642D01*
X93063000Y-93682928D01*
X93577286Y-93082928D02*
X93605857Y-93111499D01*
X93634429Y-93197213D01*
X93634429Y-93254356D01*
X93605857Y-93340071D01*
X93548714Y-93397213D01*
X93491571Y-93425785D01*
X93377286Y-93454356D01*
X93291571Y-93454356D01*
X93177286Y-93425785D01*
X93120143Y-93397213D01*
X93063000Y-93340071D01*
X93034429Y-93254356D01*
X93034429Y-93197213D01*
X93063000Y-93111499D01*
X93091571Y-93082928D01*
X93634429Y-92540071D02*
X93634429Y-92825785D01*
X93034429Y-92825785D01*
X93634429Y-96411500D02*
X93034429Y-96411500D01*
X93034429Y-96011500D02*
X93034429Y-95897214D01*
X93063000Y-95840072D01*
X93120143Y-95782929D01*
X93234429Y-95754357D01*
X93434429Y-95754357D01*
X93548714Y-95782929D01*
X93605857Y-95840072D01*
X93634429Y-95897214D01*
X93634429Y-96011500D01*
X93605857Y-96068643D01*
X93548714Y-96125786D01*
X93434429Y-96154357D01*
X93234429Y-96154357D01*
X93120143Y-96125786D01*
X93063000Y-96068643D01*
X93034429Y-96011500D01*
X93634429Y-95182929D02*
X93634429Y-95525786D01*
X93634429Y-95354358D02*
X93034429Y-95354358D01*
X93120143Y-95411501D01*
X93177286Y-95468643D01*
X93205857Y-95525786D01*
X93634429Y-98911500D02*
X93034429Y-98911500D01*
X93034429Y-98511500D02*
X93034429Y-98397214D01*
X93063000Y-98340072D01*
X93120143Y-98282929D01*
X93234429Y-98254357D01*
X93434429Y-98254357D01*
X93548714Y-98282929D01*
X93605857Y-98340072D01*
X93634429Y-98397214D01*
X93634429Y-98511500D01*
X93605857Y-98568643D01*
X93548714Y-98625786D01*
X93434429Y-98654357D01*
X93234429Y-98654357D01*
X93120143Y-98625786D01*
X93063000Y-98568643D01*
X93034429Y-98511500D01*
X93034429Y-98054358D02*
X93034429Y-97682929D01*
X93263000Y-97882929D01*
X93263000Y-97797215D01*
X93291571Y-97740072D01*
X93320143Y-97711501D01*
X93377286Y-97682929D01*
X93520143Y-97682929D01*
X93577286Y-97711501D01*
X93605857Y-97740072D01*
X93634429Y-97797215D01*
X93634429Y-97968643D01*
X93605857Y-98025786D01*
X93577286Y-98054358D01*
X93605857Y-101790071D02*
X93634429Y-101704357D01*
X93634429Y-101561500D01*
X93605857Y-101504357D01*
X93577286Y-101475786D01*
X93520143Y-101447214D01*
X93463000Y-101447214D01*
X93405857Y-101475786D01*
X93377286Y-101504357D01*
X93348714Y-101561500D01*
X93320143Y-101675786D01*
X93291571Y-101732928D01*
X93263000Y-101761500D01*
X93205857Y-101790071D01*
X93148714Y-101790071D01*
X93091571Y-101761500D01*
X93063000Y-101732928D01*
X93034429Y-101675786D01*
X93034429Y-101532928D01*
X93063000Y-101447214D01*
X93634429Y-101190071D02*
X93034429Y-101190071D01*
X93034429Y-101047214D01*
X93063000Y-100961499D01*
X93120143Y-100904357D01*
X93177286Y-100875785D01*
X93291571Y-100847214D01*
X93377286Y-100847214D01*
X93491571Y-100875785D01*
X93548714Y-100904357D01*
X93605857Y-100961499D01*
X93634429Y-101047214D01*
X93634429Y-101190071D01*
X93463000Y-100618642D02*
X93463000Y-100332928D01*
X93634429Y-100675785D02*
X93034429Y-100475785D01*
X93634429Y-100275785D01*
X93063000Y-104018642D02*
X93034429Y-104075785D01*
X93034429Y-104161499D01*
X93063000Y-104247214D01*
X93120143Y-104304356D01*
X93177286Y-104332928D01*
X93291571Y-104361499D01*
X93377286Y-104361499D01*
X93491571Y-104332928D01*
X93548714Y-104304356D01*
X93605857Y-104247214D01*
X93634429Y-104161499D01*
X93634429Y-104104356D01*
X93605857Y-104018642D01*
X93577286Y-103990071D01*
X93377286Y-103990071D01*
X93377286Y-104104356D01*
X93634429Y-103732928D02*
X93034429Y-103732928D01*
X93634429Y-103390071D01*
X93034429Y-103390071D01*
X93634429Y-103104357D02*
X93034429Y-103104357D01*
X93034429Y-102961500D01*
X93063000Y-102875785D01*
X93120143Y-102818643D01*
X93177286Y-102790071D01*
X93291571Y-102761500D01*
X93377286Y-102761500D01*
X93491571Y-102790071D01*
X93548714Y-102818643D01*
X93605857Y-102875785D01*
X93634429Y-102961500D01*
X93634429Y-103104357D01*
X93634429Y-106947214D02*
X93034429Y-106947214D01*
X93034429Y-106547214D02*
X93034429Y-106432928D01*
X93063000Y-106375786D01*
X93120143Y-106318643D01*
X93234429Y-106290071D01*
X93434429Y-106290071D01*
X93548714Y-106318643D01*
X93605857Y-106375786D01*
X93634429Y-106432928D01*
X93634429Y-106547214D01*
X93605857Y-106604357D01*
X93548714Y-106661500D01*
X93434429Y-106690071D01*
X93234429Y-106690071D01*
X93120143Y-106661500D01*
X93063000Y-106604357D01*
X93034429Y-106547214D01*
X93634429Y-105718643D02*
X93634429Y-106061500D01*
X93634429Y-105890072D02*
X93034429Y-105890072D01*
X93120143Y-105947215D01*
X93177286Y-106004357D01*
X93205857Y-106061500D01*
X93634429Y-105432928D02*
X93634429Y-105318643D01*
X93605857Y-105261500D01*
X93577286Y-105232928D01*
X93491571Y-105175786D01*
X93377286Y-105147214D01*
X93148714Y-105147214D01*
X93091571Y-105175786D01*
X93063000Y-105204357D01*
X93034429Y-105261500D01*
X93034429Y-105375786D01*
X93063000Y-105432928D01*
X93091571Y-105461500D01*
X93148714Y-105490071D01*
X93291571Y-105490071D01*
X93348714Y-105461500D01*
X93377286Y-105432928D01*
X93405857Y-105375786D01*
X93405857Y-105261500D01*
X93377286Y-105204357D01*
X93348714Y-105175786D01*
X93291571Y-105147214D01*
X93634429Y-109447214D02*
X93034429Y-109447214D01*
X93034429Y-109047214D02*
X93034429Y-108932928D01*
X93063000Y-108875786D01*
X93120143Y-108818643D01*
X93234429Y-108790071D01*
X93434429Y-108790071D01*
X93548714Y-108818643D01*
X93605857Y-108875786D01*
X93634429Y-108932928D01*
X93634429Y-109047214D01*
X93605857Y-109104357D01*
X93548714Y-109161500D01*
X93434429Y-109190071D01*
X93234429Y-109190071D01*
X93120143Y-109161500D01*
X93063000Y-109104357D01*
X93034429Y-109047214D01*
X93634429Y-108218643D02*
X93634429Y-108561500D01*
X93634429Y-108390072D02*
X93034429Y-108390072D01*
X93120143Y-108447215D01*
X93177286Y-108504357D01*
X93205857Y-108561500D01*
X93291571Y-107875786D02*
X93263000Y-107932928D01*
X93234429Y-107961500D01*
X93177286Y-107990071D01*
X93148714Y-107990071D01*
X93091571Y-107961500D01*
X93063000Y-107932928D01*
X93034429Y-107875786D01*
X93034429Y-107761500D01*
X93063000Y-107704357D01*
X93091571Y-107675786D01*
X93148714Y-107647214D01*
X93177286Y-107647214D01*
X93234429Y-107675786D01*
X93263000Y-107704357D01*
X93291571Y-107761500D01*
X93291571Y-107875786D01*
X93320143Y-107932928D01*
X93348714Y-107961500D01*
X93405857Y-107990071D01*
X93520143Y-107990071D01*
X93577286Y-107961500D01*
X93605857Y-107932928D01*
X93634429Y-107875786D01*
X93634429Y-107761500D01*
X93605857Y-107704357D01*
X93577286Y-107675786D01*
X93520143Y-107647214D01*
X93405857Y-107647214D01*
X93348714Y-107675786D01*
X93320143Y-107704357D01*
X93291571Y-107761500D01*
X93634429Y-111661500D02*
X93034429Y-111661500D01*
X93034429Y-111261500D02*
X93034429Y-111147214D01*
X93063000Y-111090072D01*
X93120143Y-111032929D01*
X93234429Y-111004357D01*
X93434429Y-111004357D01*
X93548714Y-111032929D01*
X93605857Y-111090072D01*
X93634429Y-111147214D01*
X93634429Y-111261500D01*
X93605857Y-111318643D01*
X93548714Y-111375786D01*
X93434429Y-111404357D01*
X93234429Y-111404357D01*
X93120143Y-111375786D01*
X93063000Y-111318643D01*
X93034429Y-111261500D01*
X93034429Y-110461501D02*
X93034429Y-110747215D01*
X93320143Y-110775786D01*
X93291571Y-110747215D01*
X93263000Y-110690072D01*
X93263000Y-110547215D01*
X93291571Y-110490072D01*
X93320143Y-110461501D01*
X93377286Y-110432929D01*
X93520143Y-110432929D01*
X93577286Y-110461501D01*
X93605857Y-110490072D01*
X93634429Y-110547215D01*
X93634429Y-110690072D01*
X93605857Y-110747215D01*
X93577286Y-110775786D01*
X93634429Y-114447214D02*
X93034429Y-114447214D01*
X93034429Y-114047214D02*
X93034429Y-113932928D01*
X93063000Y-113875786D01*
X93120143Y-113818643D01*
X93234429Y-113790071D01*
X93434429Y-113790071D01*
X93548714Y-113818643D01*
X93605857Y-113875786D01*
X93634429Y-113932928D01*
X93634429Y-114047214D01*
X93605857Y-114104357D01*
X93548714Y-114161500D01*
X93434429Y-114190071D01*
X93234429Y-114190071D01*
X93120143Y-114161500D01*
X93063000Y-114104357D01*
X93034429Y-114047214D01*
X93634429Y-113218643D02*
X93634429Y-113561500D01*
X93634429Y-113390072D02*
X93034429Y-113390072D01*
X93120143Y-113447215D01*
X93177286Y-113504357D01*
X93205857Y-113561500D01*
X93034429Y-113018643D02*
X93034429Y-112618643D01*
X93634429Y-112875786D01*
X93634429Y-117197214D02*
X93034429Y-117197214D01*
X93034429Y-116797214D02*
X93034429Y-116682928D01*
X93063000Y-116625786D01*
X93120143Y-116568643D01*
X93234429Y-116540071D01*
X93434429Y-116540071D01*
X93548714Y-116568643D01*
X93605857Y-116625786D01*
X93634429Y-116682928D01*
X93634429Y-116797214D01*
X93605857Y-116854357D01*
X93548714Y-116911500D01*
X93434429Y-116940071D01*
X93234429Y-116940071D01*
X93120143Y-116911500D01*
X93063000Y-116854357D01*
X93034429Y-116797214D01*
X93634429Y-115968643D02*
X93634429Y-116311500D01*
X93634429Y-116140072D02*
X93034429Y-116140072D01*
X93120143Y-116197215D01*
X93177286Y-116254357D01*
X93205857Y-116311500D01*
X93034429Y-115454357D02*
X93034429Y-115568643D01*
X93063000Y-115625786D01*
X93091571Y-115654357D01*
X93177286Y-115711500D01*
X93291571Y-115740071D01*
X93520143Y-115740071D01*
X93577286Y-115711500D01*
X93605857Y-115682928D01*
X93634429Y-115625786D01*
X93634429Y-115511500D01*
X93605857Y-115454357D01*
X93577286Y-115425786D01*
X93520143Y-115397214D01*
X93377286Y-115397214D01*
X93320143Y-115425786D01*
X93291571Y-115454357D01*
X93263000Y-115511500D01*
X93263000Y-115625786D01*
X93291571Y-115682928D01*
X93320143Y-115711500D01*
X93377286Y-115740071D01*
X93634429Y-119411500D02*
X93034429Y-119411500D01*
X93034429Y-119011500D02*
X93034429Y-118897214D01*
X93063000Y-118840072D01*
X93120143Y-118782929D01*
X93234429Y-118754357D01*
X93434429Y-118754357D01*
X93548714Y-118782929D01*
X93605857Y-118840072D01*
X93634429Y-118897214D01*
X93634429Y-119011500D01*
X93605857Y-119068643D01*
X93548714Y-119125786D01*
X93434429Y-119154357D01*
X93234429Y-119154357D01*
X93120143Y-119125786D01*
X93063000Y-119068643D01*
X93034429Y-119011500D01*
X93234429Y-118240072D02*
X93634429Y-118240072D01*
X93005857Y-118382929D02*
X93434429Y-118525786D01*
X93434429Y-118154358D01*
X93634429Y-121911500D02*
X93034429Y-121911500D01*
X93034429Y-121511500D02*
X93034429Y-121397214D01*
X93063000Y-121340072D01*
X93120143Y-121282929D01*
X93234429Y-121254357D01*
X93434429Y-121254357D01*
X93548714Y-121282929D01*
X93605857Y-121340072D01*
X93634429Y-121397214D01*
X93634429Y-121511500D01*
X93605857Y-121568643D01*
X93548714Y-121625786D01*
X93434429Y-121654357D01*
X93234429Y-121654357D01*
X93120143Y-121625786D01*
X93063000Y-121568643D01*
X93034429Y-121511500D01*
X93034429Y-120882929D02*
X93034429Y-120825786D01*
X93063000Y-120768643D01*
X93091571Y-120740072D01*
X93148714Y-120711501D01*
X93263000Y-120682929D01*
X93405857Y-120682929D01*
X93520143Y-120711501D01*
X93577286Y-120740072D01*
X93605857Y-120768643D01*
X93634429Y-120825786D01*
X93634429Y-120882929D01*
X93605857Y-120940072D01*
X93577286Y-120968643D01*
X93520143Y-120997215D01*
X93405857Y-121025786D01*
X93263000Y-121025786D01*
X93148714Y-120997215D01*
X93091571Y-120968643D01*
X93063000Y-120940072D01*
X93034429Y-120882929D01*
X93634429Y-124411500D02*
X93034429Y-124411500D01*
X93034429Y-124011500D02*
X93034429Y-123897214D01*
X93063000Y-123840072D01*
X93120143Y-123782929D01*
X93234429Y-123754357D01*
X93434429Y-123754357D01*
X93548714Y-123782929D01*
X93605857Y-123840072D01*
X93634429Y-123897214D01*
X93634429Y-124011500D01*
X93605857Y-124068643D01*
X93548714Y-124125786D01*
X93434429Y-124154357D01*
X93234429Y-124154357D01*
X93120143Y-124125786D01*
X93063000Y-124068643D01*
X93034429Y-124011500D01*
X93091571Y-123525786D02*
X93063000Y-123497215D01*
X93034429Y-123440072D01*
X93034429Y-123297215D01*
X93063000Y-123240072D01*
X93091571Y-123211501D01*
X93148714Y-123182929D01*
X93205857Y-123182929D01*
X93291571Y-123211501D01*
X93634429Y-123554358D01*
X93634429Y-123182929D01*
X93634429Y-127197214D02*
X93034429Y-127197214D01*
X93034429Y-126797214D02*
X93034429Y-126682928D01*
X93063000Y-126625786D01*
X93120143Y-126568643D01*
X93234429Y-126540071D01*
X93434429Y-126540071D01*
X93548714Y-126568643D01*
X93605857Y-126625786D01*
X93634429Y-126682928D01*
X93634429Y-126797214D01*
X93605857Y-126854357D01*
X93548714Y-126911500D01*
X93434429Y-126940071D01*
X93234429Y-126940071D01*
X93120143Y-126911500D01*
X93063000Y-126854357D01*
X93034429Y-126797214D01*
X93634429Y-125968643D02*
X93634429Y-126311500D01*
X93634429Y-126140072D02*
X93034429Y-126140072D01*
X93120143Y-126197215D01*
X93177286Y-126254357D01*
X93205857Y-126311500D01*
X93034429Y-125425786D02*
X93034429Y-125711500D01*
X93320143Y-125740071D01*
X93291571Y-125711500D01*
X93263000Y-125654357D01*
X93263000Y-125511500D01*
X93291571Y-125454357D01*
X93320143Y-125425786D01*
X93377286Y-125397214D01*
X93520143Y-125397214D01*
X93577286Y-125425786D01*
X93605857Y-125454357D01*
X93634429Y-125511500D01*
X93634429Y-125654357D01*
X93605857Y-125711500D01*
X93577286Y-125740071D01*
X93634429Y-129411500D02*
X93034429Y-129411500D01*
X93034429Y-129011500D02*
X93034429Y-128897214D01*
X93063000Y-128840072D01*
X93120143Y-128782929D01*
X93234429Y-128754357D01*
X93434429Y-128754357D01*
X93548714Y-128782929D01*
X93605857Y-128840072D01*
X93634429Y-128897214D01*
X93634429Y-129011500D01*
X93605857Y-129068643D01*
X93548714Y-129125786D01*
X93434429Y-129154357D01*
X93234429Y-129154357D01*
X93120143Y-129125786D01*
X93063000Y-129068643D01*
X93034429Y-129011500D01*
X93291571Y-128411501D02*
X93263000Y-128468643D01*
X93234429Y-128497215D01*
X93177286Y-128525786D01*
X93148714Y-128525786D01*
X93091571Y-128497215D01*
X93063000Y-128468643D01*
X93034429Y-128411501D01*
X93034429Y-128297215D01*
X93063000Y-128240072D01*
X93091571Y-128211501D01*
X93148714Y-128182929D01*
X93177286Y-128182929D01*
X93234429Y-128211501D01*
X93263000Y-128240072D01*
X93291571Y-128297215D01*
X93291571Y-128411501D01*
X93320143Y-128468643D01*
X93348714Y-128497215D01*
X93405857Y-128525786D01*
X93520143Y-128525786D01*
X93577286Y-128497215D01*
X93605857Y-128468643D01*
X93634429Y-128411501D01*
X93634429Y-128297215D01*
X93605857Y-128240072D01*
X93577286Y-128211501D01*
X93520143Y-128182929D01*
X93405857Y-128182929D01*
X93348714Y-128211501D01*
X93320143Y-128240072D01*
X93291571Y-128297215D01*
X93634429Y-132161500D02*
X93034429Y-132161500D01*
X93034429Y-131761500D02*
X93034429Y-131647214D01*
X93063000Y-131590072D01*
X93120143Y-131532929D01*
X93234429Y-131504357D01*
X93434429Y-131504357D01*
X93548714Y-131532929D01*
X93605857Y-131590072D01*
X93634429Y-131647214D01*
X93634429Y-131761500D01*
X93605857Y-131818643D01*
X93548714Y-131875786D01*
X93434429Y-131904357D01*
X93234429Y-131904357D01*
X93120143Y-131875786D01*
X93063000Y-131818643D01*
X93034429Y-131761500D01*
X93034429Y-131304358D02*
X93034429Y-130904358D01*
X93634429Y-131161501D01*
X93634429Y-134661500D02*
X93034429Y-134661500D01*
X93034429Y-134261500D02*
X93034429Y-134147214D01*
X93063000Y-134090072D01*
X93120143Y-134032929D01*
X93234429Y-134004357D01*
X93434429Y-134004357D01*
X93548714Y-134032929D01*
X93605857Y-134090072D01*
X93634429Y-134147214D01*
X93634429Y-134261500D01*
X93605857Y-134318643D01*
X93548714Y-134375786D01*
X93434429Y-134404357D01*
X93234429Y-134404357D01*
X93120143Y-134375786D01*
X93063000Y-134318643D01*
X93034429Y-134261500D01*
X93034429Y-133490072D02*
X93034429Y-133604358D01*
X93063000Y-133661501D01*
X93091571Y-133690072D01*
X93177286Y-133747215D01*
X93291571Y-133775786D01*
X93520143Y-133775786D01*
X93577286Y-133747215D01*
X93605857Y-133718643D01*
X93634429Y-133661501D01*
X93634429Y-133547215D01*
X93605857Y-133490072D01*
X93577286Y-133461501D01*
X93520143Y-133432929D01*
X93377286Y-133432929D01*
X93320143Y-133461501D01*
X93291571Y-133490072D01*
X93263000Y-133547215D01*
X93263000Y-133661501D01*
X93291571Y-133718643D01*
X93320143Y-133747215D01*
X93377286Y-133775786D01*
X127034429Y-88425786D02*
X127034429Y-88711500D01*
X127320143Y-88740071D01*
X127291571Y-88711500D01*
X127263000Y-88654357D01*
X127263000Y-88511500D01*
X127291571Y-88454357D01*
X127320143Y-88425786D01*
X127377286Y-88397214D01*
X127520143Y-88397214D01*
X127577286Y-88425786D01*
X127605857Y-88454357D01*
X127634429Y-88511500D01*
X127634429Y-88654357D01*
X127605857Y-88711500D01*
X127577286Y-88740071D01*
X127034429Y-88225785D02*
X127634429Y-88025785D01*
X127034429Y-87825785D01*
X127634429Y-91697214D02*
X127034429Y-91697214D01*
X127034429Y-91297214D02*
X127034429Y-91182928D01*
X127063000Y-91125786D01*
X127120143Y-91068643D01*
X127234429Y-91040071D01*
X127434429Y-91040071D01*
X127548714Y-91068643D01*
X127605857Y-91125786D01*
X127634429Y-91182928D01*
X127634429Y-91297214D01*
X127605857Y-91354357D01*
X127548714Y-91411500D01*
X127434429Y-91440071D01*
X127234429Y-91440071D01*
X127120143Y-91411500D01*
X127063000Y-91354357D01*
X127034429Y-91297214D01*
X127634429Y-90468643D02*
X127634429Y-90811500D01*
X127634429Y-90640072D02*
X127034429Y-90640072D01*
X127120143Y-90697215D01*
X127177286Y-90754357D01*
X127205857Y-90811500D01*
X127634429Y-89897214D02*
X127634429Y-90240071D01*
X127634429Y-90068643D02*
X127034429Y-90068643D01*
X127120143Y-90125786D01*
X127177286Y-90182928D01*
X127205857Y-90240071D01*
X127634429Y-94197214D02*
X127034429Y-94197214D01*
X127034429Y-93797214D02*
X127034429Y-93682928D01*
X127063000Y-93625786D01*
X127120143Y-93568643D01*
X127234429Y-93540071D01*
X127434429Y-93540071D01*
X127548714Y-93568643D01*
X127605857Y-93625786D01*
X127634429Y-93682928D01*
X127634429Y-93797214D01*
X127605857Y-93854357D01*
X127548714Y-93911500D01*
X127434429Y-93940071D01*
X127234429Y-93940071D01*
X127120143Y-93911500D01*
X127063000Y-93854357D01*
X127034429Y-93797214D01*
X127634429Y-92968643D02*
X127634429Y-93311500D01*
X127634429Y-93140072D02*
X127034429Y-93140072D01*
X127120143Y-93197215D01*
X127177286Y-93254357D01*
X127205857Y-93311500D01*
X127034429Y-92597214D02*
X127034429Y-92540071D01*
X127063000Y-92482928D01*
X127091571Y-92454357D01*
X127148714Y-92425786D01*
X127263000Y-92397214D01*
X127405857Y-92397214D01*
X127520143Y-92425786D01*
X127577286Y-92454357D01*
X127605857Y-92482928D01*
X127634429Y-92540071D01*
X127634429Y-92597214D01*
X127605857Y-92654357D01*
X127577286Y-92682928D01*
X127520143Y-92711500D01*
X127405857Y-92740071D01*
X127263000Y-92740071D01*
X127148714Y-92711500D01*
X127091571Y-92682928D01*
X127063000Y-92654357D01*
X127034429Y-92597214D01*
X127634429Y-96411500D02*
X127034429Y-96411500D01*
X127034429Y-96011500D02*
X127034429Y-95897214D01*
X127063000Y-95840072D01*
X127120143Y-95782929D01*
X127234429Y-95754357D01*
X127434429Y-95754357D01*
X127548714Y-95782929D01*
X127605857Y-95840072D01*
X127634429Y-95897214D01*
X127634429Y-96011500D01*
X127605857Y-96068643D01*
X127548714Y-96125786D01*
X127434429Y-96154357D01*
X127234429Y-96154357D01*
X127120143Y-96125786D01*
X127063000Y-96068643D01*
X127034429Y-96011500D01*
X127634429Y-95468643D02*
X127634429Y-95354358D01*
X127605857Y-95297215D01*
X127577286Y-95268643D01*
X127491571Y-95211501D01*
X127377286Y-95182929D01*
X127148714Y-95182929D01*
X127091571Y-95211501D01*
X127063000Y-95240072D01*
X127034429Y-95297215D01*
X127034429Y-95411501D01*
X127063000Y-95468643D01*
X127091571Y-95497215D01*
X127148714Y-95525786D01*
X127291571Y-95525786D01*
X127348714Y-95497215D01*
X127377286Y-95468643D01*
X127405857Y-95411501D01*
X127405857Y-95297215D01*
X127377286Y-95240072D01*
X127348714Y-95211501D01*
X127291571Y-95182929D01*
X127634429Y-99197214D02*
X127034429Y-99197214D01*
X127034429Y-98797214D02*
X127034429Y-98682928D01*
X127063000Y-98625786D01*
X127120143Y-98568643D01*
X127234429Y-98540071D01*
X127434429Y-98540071D01*
X127548714Y-98568643D01*
X127605857Y-98625786D01*
X127634429Y-98682928D01*
X127634429Y-98797214D01*
X127605857Y-98854357D01*
X127548714Y-98911500D01*
X127434429Y-98940071D01*
X127234429Y-98940071D01*
X127120143Y-98911500D01*
X127063000Y-98854357D01*
X127034429Y-98797214D01*
X127634429Y-97968643D02*
X127634429Y-98311500D01*
X127634429Y-98140072D02*
X127034429Y-98140072D01*
X127120143Y-98197215D01*
X127177286Y-98254357D01*
X127205857Y-98311500D01*
X127034429Y-97768643D02*
X127034429Y-97397214D01*
X127263000Y-97597214D01*
X127263000Y-97511500D01*
X127291571Y-97454357D01*
X127320143Y-97425786D01*
X127377286Y-97397214D01*
X127520143Y-97397214D01*
X127577286Y-97425786D01*
X127605857Y-97454357D01*
X127634429Y-97511500D01*
X127634429Y-97682928D01*
X127605857Y-97740071D01*
X127577286Y-97768643D01*
X127063000Y-101268642D02*
X127034429Y-101325785D01*
X127034429Y-101411499D01*
X127063000Y-101497214D01*
X127120143Y-101554356D01*
X127177286Y-101582928D01*
X127291571Y-101611499D01*
X127377286Y-101611499D01*
X127491571Y-101582928D01*
X127548714Y-101554356D01*
X127605857Y-101497214D01*
X127634429Y-101411499D01*
X127634429Y-101354356D01*
X127605857Y-101268642D01*
X127577286Y-101240071D01*
X127377286Y-101240071D01*
X127377286Y-101354356D01*
X127634429Y-100982928D02*
X127034429Y-100982928D01*
X127634429Y-100640071D01*
X127034429Y-100640071D01*
X127634429Y-100354357D02*
X127034429Y-100354357D01*
X127034429Y-100211500D01*
X127063000Y-100125785D01*
X127120143Y-100068643D01*
X127177286Y-100040071D01*
X127291571Y-100011500D01*
X127377286Y-100011500D01*
X127491571Y-100040071D01*
X127548714Y-100068643D01*
X127605857Y-100125785D01*
X127634429Y-100211500D01*
X127634429Y-100354357D01*
X127634429Y-104197214D02*
X127034429Y-104197214D01*
X127034429Y-103797214D02*
X127034429Y-103682928D01*
X127063000Y-103625786D01*
X127120143Y-103568643D01*
X127234429Y-103540071D01*
X127434429Y-103540071D01*
X127548714Y-103568643D01*
X127605857Y-103625786D01*
X127634429Y-103682928D01*
X127634429Y-103797214D01*
X127605857Y-103854357D01*
X127548714Y-103911500D01*
X127434429Y-103940071D01*
X127234429Y-103940071D01*
X127120143Y-103911500D01*
X127063000Y-103854357D01*
X127034429Y-103797214D01*
X127634429Y-102968643D02*
X127634429Y-103311500D01*
X127634429Y-103140072D02*
X127034429Y-103140072D01*
X127120143Y-103197215D01*
X127177286Y-103254357D01*
X127205857Y-103311500D01*
X127091571Y-102740071D02*
X127063000Y-102711500D01*
X127034429Y-102654357D01*
X127034429Y-102511500D01*
X127063000Y-102454357D01*
X127091571Y-102425786D01*
X127148714Y-102397214D01*
X127205857Y-102397214D01*
X127291571Y-102425786D01*
X127634429Y-102768643D01*
X127634429Y-102397214D01*
X127634429Y-106947214D02*
X127034429Y-106947214D01*
X127034429Y-106547214D02*
X127034429Y-106432928D01*
X127063000Y-106375786D01*
X127120143Y-106318643D01*
X127234429Y-106290071D01*
X127434429Y-106290071D01*
X127548714Y-106318643D01*
X127605857Y-106375786D01*
X127634429Y-106432928D01*
X127634429Y-106547214D01*
X127605857Y-106604357D01*
X127548714Y-106661500D01*
X127434429Y-106690071D01*
X127234429Y-106690071D01*
X127120143Y-106661500D01*
X127063000Y-106604357D01*
X127034429Y-106547214D01*
X127634429Y-105718643D02*
X127634429Y-106061500D01*
X127634429Y-105890072D02*
X127034429Y-105890072D01*
X127120143Y-105947215D01*
X127177286Y-106004357D01*
X127205857Y-106061500D01*
X127234429Y-105204357D02*
X127634429Y-105204357D01*
X127005857Y-105347214D02*
X127434429Y-105490071D01*
X127434429Y-105118643D01*
X127634429Y-109447214D02*
X127034429Y-109447214D01*
X127034429Y-109047214D02*
X127034429Y-108932928D01*
X127063000Y-108875786D01*
X127120143Y-108818643D01*
X127234429Y-108790071D01*
X127434429Y-108790071D01*
X127548714Y-108818643D01*
X127605857Y-108875786D01*
X127634429Y-108932928D01*
X127634429Y-109047214D01*
X127605857Y-109104357D01*
X127548714Y-109161500D01*
X127434429Y-109190071D01*
X127234429Y-109190071D01*
X127120143Y-109161500D01*
X127063000Y-109104357D01*
X127034429Y-109047214D01*
X127091571Y-108561500D02*
X127063000Y-108532929D01*
X127034429Y-108475786D01*
X127034429Y-108332929D01*
X127063000Y-108275786D01*
X127091571Y-108247215D01*
X127148714Y-108218643D01*
X127205857Y-108218643D01*
X127291571Y-108247215D01*
X127634429Y-108590072D01*
X127634429Y-108218643D01*
X127034429Y-108018643D02*
X127034429Y-107618643D01*
X127634429Y-107875786D01*
X127634429Y-111947214D02*
X127034429Y-111947214D01*
X127034429Y-111547214D02*
X127034429Y-111432928D01*
X127063000Y-111375786D01*
X127120143Y-111318643D01*
X127234429Y-111290071D01*
X127434429Y-111290071D01*
X127548714Y-111318643D01*
X127605857Y-111375786D01*
X127634429Y-111432928D01*
X127634429Y-111547214D01*
X127605857Y-111604357D01*
X127548714Y-111661500D01*
X127434429Y-111690071D01*
X127234429Y-111690071D01*
X127120143Y-111661500D01*
X127063000Y-111604357D01*
X127034429Y-111547214D01*
X127091571Y-111061500D02*
X127063000Y-111032929D01*
X127034429Y-110975786D01*
X127034429Y-110832929D01*
X127063000Y-110775786D01*
X127091571Y-110747215D01*
X127148714Y-110718643D01*
X127205857Y-110718643D01*
X127291571Y-110747215D01*
X127634429Y-111090072D01*
X127634429Y-110718643D01*
X127034429Y-110204357D02*
X127034429Y-110318643D01*
X127063000Y-110375786D01*
X127091571Y-110404357D01*
X127177286Y-110461500D01*
X127291571Y-110490071D01*
X127520143Y-110490071D01*
X127577286Y-110461500D01*
X127605857Y-110432928D01*
X127634429Y-110375786D01*
X127634429Y-110261500D01*
X127605857Y-110204357D01*
X127577286Y-110175786D01*
X127520143Y-110147214D01*
X127377286Y-110147214D01*
X127320143Y-110175786D01*
X127291571Y-110204357D01*
X127263000Y-110261500D01*
X127263000Y-110375786D01*
X127291571Y-110432928D01*
X127320143Y-110461500D01*
X127377286Y-110490071D01*
X127634429Y-114447214D02*
X127034429Y-114447214D01*
X127034429Y-114047214D02*
X127034429Y-113932928D01*
X127063000Y-113875786D01*
X127120143Y-113818643D01*
X127234429Y-113790071D01*
X127434429Y-113790071D01*
X127548714Y-113818643D01*
X127605857Y-113875786D01*
X127634429Y-113932928D01*
X127634429Y-114047214D01*
X127605857Y-114104357D01*
X127548714Y-114161500D01*
X127434429Y-114190071D01*
X127234429Y-114190071D01*
X127120143Y-114161500D01*
X127063000Y-114104357D01*
X127034429Y-114047214D01*
X127091571Y-113561500D02*
X127063000Y-113532929D01*
X127034429Y-113475786D01*
X127034429Y-113332929D01*
X127063000Y-113275786D01*
X127091571Y-113247215D01*
X127148714Y-113218643D01*
X127205857Y-113218643D01*
X127291571Y-113247215D01*
X127634429Y-113590072D01*
X127634429Y-113218643D01*
X127034429Y-112675786D02*
X127034429Y-112961500D01*
X127320143Y-112990071D01*
X127291571Y-112961500D01*
X127263000Y-112904357D01*
X127263000Y-112761500D01*
X127291571Y-112704357D01*
X127320143Y-112675786D01*
X127377286Y-112647214D01*
X127520143Y-112647214D01*
X127577286Y-112675786D01*
X127605857Y-112704357D01*
X127634429Y-112761500D01*
X127634429Y-112904357D01*
X127605857Y-112961500D01*
X127577286Y-112990071D01*
X127634429Y-116947214D02*
X127034429Y-116947214D01*
X127034429Y-116547214D02*
X127034429Y-116432928D01*
X127063000Y-116375786D01*
X127120143Y-116318643D01*
X127234429Y-116290071D01*
X127434429Y-116290071D01*
X127548714Y-116318643D01*
X127605857Y-116375786D01*
X127634429Y-116432928D01*
X127634429Y-116547214D01*
X127605857Y-116604357D01*
X127548714Y-116661500D01*
X127434429Y-116690071D01*
X127234429Y-116690071D01*
X127120143Y-116661500D01*
X127063000Y-116604357D01*
X127034429Y-116547214D01*
X127034429Y-116090072D02*
X127034429Y-115718643D01*
X127263000Y-115918643D01*
X127263000Y-115832929D01*
X127291571Y-115775786D01*
X127320143Y-115747215D01*
X127377286Y-115718643D01*
X127520143Y-115718643D01*
X127577286Y-115747215D01*
X127605857Y-115775786D01*
X127634429Y-115832929D01*
X127634429Y-116004357D01*
X127605857Y-116061500D01*
X127577286Y-116090072D01*
X127034429Y-115518643D02*
X127034429Y-115147214D01*
X127263000Y-115347214D01*
X127263000Y-115261500D01*
X127291571Y-115204357D01*
X127320143Y-115175786D01*
X127377286Y-115147214D01*
X127520143Y-115147214D01*
X127577286Y-115175786D01*
X127605857Y-115204357D01*
X127634429Y-115261500D01*
X127634429Y-115432928D01*
X127605857Y-115490071D01*
X127577286Y-115518643D01*
X127634429Y-119447214D02*
X127034429Y-119447214D01*
X127034429Y-119047214D02*
X127034429Y-118932928D01*
X127063000Y-118875786D01*
X127120143Y-118818643D01*
X127234429Y-118790071D01*
X127434429Y-118790071D01*
X127548714Y-118818643D01*
X127605857Y-118875786D01*
X127634429Y-118932928D01*
X127634429Y-119047214D01*
X127605857Y-119104357D01*
X127548714Y-119161500D01*
X127434429Y-119190071D01*
X127234429Y-119190071D01*
X127120143Y-119161500D01*
X127063000Y-119104357D01*
X127034429Y-119047214D01*
X127034429Y-118590072D02*
X127034429Y-118218643D01*
X127263000Y-118418643D01*
X127263000Y-118332929D01*
X127291571Y-118275786D01*
X127320143Y-118247215D01*
X127377286Y-118218643D01*
X127520143Y-118218643D01*
X127577286Y-118247215D01*
X127605857Y-118275786D01*
X127634429Y-118332929D01*
X127634429Y-118504357D01*
X127605857Y-118561500D01*
X127577286Y-118590072D01*
X127091571Y-117990071D02*
X127063000Y-117961500D01*
X127034429Y-117904357D01*
X127034429Y-117761500D01*
X127063000Y-117704357D01*
X127091571Y-117675786D01*
X127148714Y-117647214D01*
X127205857Y-117647214D01*
X127291571Y-117675786D01*
X127634429Y-118018643D01*
X127634429Y-117647214D01*
X127634429Y-122197214D02*
X127034429Y-122197214D01*
X127034429Y-121797214D02*
X127034429Y-121682928D01*
X127063000Y-121625786D01*
X127120143Y-121568643D01*
X127234429Y-121540071D01*
X127434429Y-121540071D01*
X127548714Y-121568643D01*
X127605857Y-121625786D01*
X127634429Y-121682928D01*
X127634429Y-121797214D01*
X127605857Y-121854357D01*
X127548714Y-121911500D01*
X127434429Y-121940071D01*
X127234429Y-121940071D01*
X127120143Y-121911500D01*
X127063000Y-121854357D01*
X127034429Y-121797214D01*
X127034429Y-121340072D02*
X127034429Y-120968643D01*
X127263000Y-121168643D01*
X127263000Y-121082929D01*
X127291571Y-121025786D01*
X127320143Y-120997215D01*
X127377286Y-120968643D01*
X127520143Y-120968643D01*
X127577286Y-120997215D01*
X127605857Y-121025786D01*
X127634429Y-121082929D01*
X127634429Y-121254357D01*
X127605857Y-121311500D01*
X127577286Y-121340072D01*
X127034429Y-120425786D02*
X127034429Y-120711500D01*
X127320143Y-120740071D01*
X127291571Y-120711500D01*
X127263000Y-120654357D01*
X127263000Y-120511500D01*
X127291571Y-120454357D01*
X127320143Y-120425786D01*
X127377286Y-120397214D01*
X127520143Y-120397214D01*
X127577286Y-120425786D01*
X127605857Y-120454357D01*
X127634429Y-120511500D01*
X127634429Y-120654357D01*
X127605857Y-120711500D01*
X127577286Y-120740071D01*
X127634429Y-124697214D02*
X127034429Y-124697214D01*
X127034429Y-124297214D02*
X127034429Y-124182928D01*
X127063000Y-124125786D01*
X127120143Y-124068643D01*
X127234429Y-124040071D01*
X127434429Y-124040071D01*
X127548714Y-124068643D01*
X127605857Y-124125786D01*
X127634429Y-124182928D01*
X127634429Y-124297214D01*
X127605857Y-124354357D01*
X127548714Y-124411500D01*
X127434429Y-124440071D01*
X127234429Y-124440071D01*
X127120143Y-124411500D01*
X127063000Y-124354357D01*
X127034429Y-124297214D01*
X127034429Y-123840072D02*
X127034429Y-123468643D01*
X127263000Y-123668643D01*
X127263000Y-123582929D01*
X127291571Y-123525786D01*
X127320143Y-123497215D01*
X127377286Y-123468643D01*
X127520143Y-123468643D01*
X127577286Y-123497215D01*
X127605857Y-123525786D01*
X127634429Y-123582929D01*
X127634429Y-123754357D01*
X127605857Y-123811500D01*
X127577286Y-123840072D01*
X127234429Y-122954357D02*
X127634429Y-122954357D01*
X127005857Y-123097214D02*
X127434429Y-123240071D01*
X127434429Y-122868643D01*
X127634429Y-127197214D02*
X127034429Y-127197214D01*
X127034429Y-126797214D02*
X127034429Y-126682928D01*
X127063000Y-126625786D01*
X127120143Y-126568643D01*
X127234429Y-126540071D01*
X127434429Y-126540071D01*
X127548714Y-126568643D01*
X127605857Y-126625786D01*
X127634429Y-126682928D01*
X127634429Y-126797214D01*
X127605857Y-126854357D01*
X127548714Y-126911500D01*
X127434429Y-126940071D01*
X127234429Y-126940071D01*
X127120143Y-126911500D01*
X127063000Y-126854357D01*
X127034429Y-126797214D01*
X127034429Y-126340072D02*
X127034429Y-125968643D01*
X127263000Y-126168643D01*
X127263000Y-126082929D01*
X127291571Y-126025786D01*
X127320143Y-125997215D01*
X127377286Y-125968643D01*
X127520143Y-125968643D01*
X127577286Y-125997215D01*
X127605857Y-126025786D01*
X127634429Y-126082929D01*
X127634429Y-126254357D01*
X127605857Y-126311500D01*
X127577286Y-126340072D01*
X127634429Y-125682928D02*
X127634429Y-125568643D01*
X127605857Y-125511500D01*
X127577286Y-125482928D01*
X127491571Y-125425786D01*
X127377286Y-125397214D01*
X127148714Y-125397214D01*
X127091571Y-125425786D01*
X127063000Y-125454357D01*
X127034429Y-125511500D01*
X127034429Y-125625786D01*
X127063000Y-125682928D01*
X127091571Y-125711500D01*
X127148714Y-125740071D01*
X127291571Y-125740071D01*
X127348714Y-125711500D01*
X127377286Y-125682928D01*
X127405857Y-125625786D01*
X127405857Y-125511500D01*
X127377286Y-125454357D01*
X127348714Y-125425786D01*
X127291571Y-125397214D01*
X127634429Y-129697214D02*
X127034429Y-129697214D01*
X127034429Y-129297214D02*
X127034429Y-129182928D01*
X127063000Y-129125786D01*
X127120143Y-129068643D01*
X127234429Y-129040071D01*
X127434429Y-129040071D01*
X127548714Y-129068643D01*
X127605857Y-129125786D01*
X127634429Y-129182928D01*
X127634429Y-129297214D01*
X127605857Y-129354357D01*
X127548714Y-129411500D01*
X127434429Y-129440071D01*
X127234429Y-129440071D01*
X127120143Y-129411500D01*
X127063000Y-129354357D01*
X127034429Y-129297214D01*
X127034429Y-128840072D02*
X127034429Y-128468643D01*
X127263000Y-128668643D01*
X127263000Y-128582929D01*
X127291571Y-128525786D01*
X127320143Y-128497215D01*
X127377286Y-128468643D01*
X127520143Y-128468643D01*
X127577286Y-128497215D01*
X127605857Y-128525786D01*
X127634429Y-128582929D01*
X127634429Y-128754357D01*
X127605857Y-128811500D01*
X127577286Y-128840072D01*
X127034429Y-127954357D02*
X127034429Y-128068643D01*
X127063000Y-128125786D01*
X127091571Y-128154357D01*
X127177286Y-128211500D01*
X127291571Y-128240071D01*
X127520143Y-128240071D01*
X127577286Y-128211500D01*
X127605857Y-128182928D01*
X127634429Y-128125786D01*
X127634429Y-128011500D01*
X127605857Y-127954357D01*
X127577286Y-127925786D01*
X127520143Y-127897214D01*
X127377286Y-127897214D01*
X127320143Y-127925786D01*
X127291571Y-127954357D01*
X127263000Y-128011500D01*
X127263000Y-128125786D01*
X127291571Y-128182928D01*
X127320143Y-128211500D01*
X127377286Y-128240071D01*
X127320143Y-131754357D02*
X127320143Y-131554357D01*
X127634429Y-131468643D02*
X127634429Y-131754357D01*
X127034429Y-131754357D01*
X127034429Y-131468643D01*
X127634429Y-131211500D02*
X127034429Y-131211500D01*
X127634429Y-130868643D01*
X127034429Y-130868643D01*
X127034429Y-134554358D02*
X127034429Y-134182929D01*
X127263000Y-134382929D01*
X127263000Y-134297215D01*
X127291571Y-134240072D01*
X127320143Y-134211501D01*
X127377286Y-134182929D01*
X127520143Y-134182929D01*
X127577286Y-134211501D01*
X127605857Y-134240072D01*
X127634429Y-134297215D01*
X127634429Y-134468643D01*
X127605857Y-134525786D01*
X127577286Y-134554358D01*
X127034429Y-134011500D02*
X127634429Y-133811500D01*
X127034429Y-133611500D01*
X127034429Y-133468643D02*
X127034429Y-133097214D01*
X127263000Y-133297214D01*
X127263000Y-133211500D01*
X127291571Y-133154357D01*
X127320143Y-133125786D01*
X127377286Y-133097214D01*
X127520143Y-133097214D01*
X127577286Y-133125786D01*
X127605857Y-133154357D01*
X127634429Y-133211500D01*
X127634429Y-133382928D01*
X127605857Y-133440071D01*
X127577286Y-133468643D01*
X187463715Y-135193881D02*
X186892286Y-135193881D01*
X187178000Y-135193881D02*
X187178000Y-134193881D01*
X187082762Y-134336738D01*
X186987524Y-134431976D01*
X186892286Y-134479595D01*
X187463715Y-119953881D02*
X186892286Y-119953881D01*
X187178000Y-119953881D02*
X187178000Y-118953881D01*
X187082762Y-119096738D01*
X186987524Y-119191976D01*
X186892286Y-119239595D01*
X187463715Y-105348881D02*
X186892286Y-105348881D01*
X187178000Y-105348881D02*
X187178000Y-104348881D01*
X187082762Y-104491738D01*
X186987524Y-104586976D01*
X186892286Y-104634595D01*
X187463715Y-90743881D02*
X186892286Y-90743881D01*
X187178000Y-90743881D02*
X187178000Y-89743881D01*
X187082762Y-89886738D01*
X186987524Y-89981976D01*
X186892286Y-90029595D01*
M02*
