G04 #@! TF.FileFunction,Legend,Bot*
%FSLAX46Y46*%
G04 Gerber Fmt 4.6, Leading zero omitted, Abs format (unit mm)*
G04 Created by KiCad (PCBNEW 4.0.6) date 06/27/17 09:44:02*
%MOMM*%
%LPD*%
G01*
G04 APERTURE LIST*
%ADD10C,0.100000*%
%ADD11C,0.120000*%
%ADD12C,0.150000*%
G04 APERTURE END LIST*
D10*
D11*
X111340929Y-120121357D02*
X111798072Y-120121357D01*
X111569501Y-120349929D02*
X111569501Y-119892786D01*
D12*
X106865500Y-110383500D02*
X106890500Y-110383500D01*
X106865500Y-114533500D02*
X106980500Y-114533500D01*
X115765500Y-114533500D02*
X115650500Y-114533500D01*
X115765500Y-110383500D02*
X115650500Y-110383500D01*
X106865500Y-110383500D02*
X106865500Y-114533500D01*
X115765500Y-110383500D02*
X115765500Y-114533500D01*
X106890500Y-110383500D02*
X106890500Y-109008500D01*
X148101000Y-116965500D02*
X148351000Y-116965500D01*
X148101000Y-124715500D02*
X148446000Y-124715500D01*
X160001000Y-124715500D02*
X159656000Y-124715500D01*
X160001000Y-116965500D02*
X159656000Y-116965500D01*
X148101000Y-116965500D02*
X148101000Y-124715500D01*
X160001000Y-116965500D02*
X160001000Y-124715500D01*
X148351000Y-116965500D02*
X148351000Y-115140500D01*
D11*
X129992500Y-126791000D02*
X130992500Y-126791000D01*
X130992500Y-125431000D02*
X129992500Y-125431000D01*
X130992500Y-123462500D02*
X129992500Y-123462500D01*
X129992500Y-124822500D02*
X130992500Y-124822500D01*
X129929000Y-133522000D02*
X130929000Y-133522000D01*
X130929000Y-132162000D02*
X129929000Y-132162000D01*
X130929000Y-130193500D02*
X129929000Y-130193500D01*
X129929000Y-131553500D02*
X130929000Y-131553500D01*
X129929000Y-137903500D02*
X130929000Y-137903500D01*
X130929000Y-136543500D02*
X129929000Y-136543500D01*
X130929000Y-134448000D02*
X129929000Y-134448000D01*
X129929000Y-135808000D02*
X130929000Y-135808000D01*
X114117500Y-120822000D02*
X115117500Y-120822000D01*
X115117500Y-119462000D02*
X114117500Y-119462000D01*
X112847500Y-106534500D02*
X113847500Y-106534500D01*
X113847500Y-105174500D02*
X112847500Y-105174500D01*
X108323000Y-105174500D02*
X107323000Y-105174500D01*
X107323000Y-106534500D02*
X108323000Y-106534500D01*
X114117500Y-123171500D02*
X115117500Y-123171500D01*
X115117500Y-121811500D02*
X114117500Y-121811500D01*
X112847500Y-104756500D02*
X113847500Y-104756500D01*
X113847500Y-103396500D02*
X112847500Y-103396500D01*
X108323000Y-103396500D02*
X107323000Y-103396500D01*
X107323000Y-104756500D02*
X108323000Y-104756500D01*
X110101000Y-121811500D02*
X109101000Y-121811500D01*
X109101000Y-123171500D02*
X110101000Y-123171500D01*
X109887500Y-119478500D02*
X109187500Y-119478500D01*
X109187500Y-120678500D02*
X109887500Y-120678500D01*
D12*
X105392881Y-111696595D02*
X106202405Y-111696595D01*
X106297643Y-111744214D01*
X106345262Y-111791833D01*
X106392881Y-111887071D01*
X106392881Y-112077548D01*
X106345262Y-112172786D01*
X106297643Y-112220405D01*
X106202405Y-112268024D01*
X105392881Y-112268024D01*
X105821452Y-112887071D02*
X105773833Y-112791833D01*
X105726214Y-112744214D01*
X105630976Y-112696595D01*
X105583357Y-112696595D01*
X105488119Y-112744214D01*
X105440500Y-112791833D01*
X105392881Y-112887071D01*
X105392881Y-113077548D01*
X105440500Y-113172786D01*
X105488119Y-113220405D01*
X105583357Y-113268024D01*
X105630976Y-113268024D01*
X105726214Y-113220405D01*
X105773833Y-113172786D01*
X105821452Y-113077548D01*
X105821452Y-112887071D01*
X105869071Y-112791833D01*
X105916690Y-112744214D01*
X106011929Y-112696595D01*
X106202405Y-112696595D01*
X106297643Y-112744214D01*
X106345262Y-112791833D01*
X106392881Y-112887071D01*
X106392881Y-113077548D01*
X106345262Y-113172786D01*
X106297643Y-113220405D01*
X106202405Y-113268024D01*
X106011929Y-113268024D01*
X105916690Y-113220405D01*
X105869071Y-113172786D01*
X105821452Y-113077548D01*
X146628381Y-120078595D02*
X147437905Y-120078595D01*
X147533143Y-120126214D01*
X147580762Y-120173833D01*
X147628381Y-120269071D01*
X147628381Y-120459548D01*
X147580762Y-120554786D01*
X147533143Y-120602405D01*
X147437905Y-120650024D01*
X146628381Y-120650024D01*
X147628381Y-121650024D02*
X147628381Y-121078595D01*
X147628381Y-121364309D02*
X146628381Y-121364309D01*
X146771238Y-121269071D01*
X146866476Y-121173833D01*
X146914095Y-121078595D01*
X131198857Y-123197881D02*
X131532191Y-122721690D01*
X131770286Y-123197881D02*
X131770286Y-122197881D01*
X131389333Y-122197881D01*
X131294095Y-122245500D01*
X131246476Y-122293119D01*
X131198857Y-122388357D01*
X131198857Y-122531214D01*
X131246476Y-122626452D01*
X131294095Y-122674071D01*
X131389333Y-122721690D01*
X131770286Y-122721690D01*
X130246476Y-123197881D02*
X130817905Y-123197881D01*
X130532191Y-123197881D02*
X130532191Y-122197881D01*
X130627429Y-122340738D01*
X130722667Y-122435976D01*
X130817905Y-122483595D01*
X129913143Y-122197881D02*
X129246476Y-122197881D01*
X129675048Y-123197881D01*
X133103857Y-128277881D02*
X133437191Y-127801690D01*
X133675286Y-128277881D02*
X133675286Y-127277881D01*
X133294333Y-127277881D01*
X133199095Y-127325500D01*
X133151476Y-127373119D01*
X133103857Y-127468357D01*
X133103857Y-127611214D01*
X133151476Y-127706452D01*
X133199095Y-127754071D01*
X133294333Y-127801690D01*
X133675286Y-127801690D01*
X132151476Y-128277881D02*
X132722905Y-128277881D01*
X132437191Y-128277881D02*
X132437191Y-127277881D01*
X132532429Y-127420738D01*
X132627667Y-127515976D01*
X132722905Y-127563595D01*
X131294333Y-127277881D02*
X131484810Y-127277881D01*
X131580048Y-127325500D01*
X131627667Y-127373119D01*
X131722905Y-127515976D01*
X131770524Y-127706452D01*
X131770524Y-128087405D01*
X131722905Y-128182643D01*
X131675286Y-128230262D01*
X131580048Y-128277881D01*
X131389571Y-128277881D01*
X131294333Y-128230262D01*
X131246714Y-128182643D01*
X131199095Y-128087405D01*
X131199095Y-127849310D01*
X131246714Y-127754071D01*
X131294333Y-127706452D01*
X131389571Y-127658833D01*
X131580048Y-127658833D01*
X131675286Y-127706452D01*
X131722905Y-127754071D01*
X131770524Y-127849310D01*
X133103857Y-129547881D02*
X133437191Y-129071690D01*
X133675286Y-129547881D02*
X133675286Y-128547881D01*
X133294333Y-128547881D01*
X133199095Y-128595500D01*
X133151476Y-128643119D01*
X133103857Y-128738357D01*
X133103857Y-128881214D01*
X133151476Y-128976452D01*
X133199095Y-129024071D01*
X133294333Y-129071690D01*
X133675286Y-129071690D01*
X132151476Y-129547881D02*
X132722905Y-129547881D01*
X132437191Y-129547881D02*
X132437191Y-128547881D01*
X132532429Y-128690738D01*
X132627667Y-128785976D01*
X132722905Y-128833595D01*
X131246714Y-128547881D02*
X131722905Y-128547881D01*
X131770524Y-129024071D01*
X131722905Y-128976452D01*
X131627667Y-128928833D01*
X131389571Y-128928833D01*
X131294333Y-128976452D01*
X131246714Y-129024071D01*
X131199095Y-129119310D01*
X131199095Y-129357405D01*
X131246714Y-129452643D01*
X131294333Y-129500262D01*
X131389571Y-129547881D01*
X131627667Y-129547881D01*
X131722905Y-129500262D01*
X131770524Y-129452643D01*
X135008857Y-133357881D02*
X135342191Y-132881690D01*
X135580286Y-133357881D02*
X135580286Y-132357881D01*
X135199333Y-132357881D01*
X135104095Y-132405500D01*
X135056476Y-132453119D01*
X135008857Y-132548357D01*
X135008857Y-132691214D01*
X135056476Y-132786452D01*
X135104095Y-132834071D01*
X135199333Y-132881690D01*
X135580286Y-132881690D01*
X134056476Y-133357881D02*
X134627905Y-133357881D01*
X134342191Y-133357881D02*
X134342191Y-132357881D01*
X134437429Y-132500738D01*
X134532667Y-132595976D01*
X134627905Y-132643595D01*
X133199333Y-132691214D02*
X133199333Y-133357881D01*
X133437429Y-132310262D02*
X133675524Y-133024548D01*
X133056476Y-133024548D01*
X131198857Y-139707881D02*
X131532191Y-139231690D01*
X131770286Y-139707881D02*
X131770286Y-138707881D01*
X131389333Y-138707881D01*
X131294095Y-138755500D01*
X131246476Y-138803119D01*
X131198857Y-138898357D01*
X131198857Y-139041214D01*
X131246476Y-139136452D01*
X131294095Y-139184071D01*
X131389333Y-139231690D01*
X131770286Y-139231690D01*
X130246476Y-139707881D02*
X130817905Y-139707881D01*
X130532191Y-139707881D02*
X130532191Y-138707881D01*
X130627429Y-138850738D01*
X130722667Y-138945976D01*
X130817905Y-138993595D01*
X129913143Y-138707881D02*
X129294095Y-138707881D01*
X129627429Y-139088833D01*
X129484571Y-139088833D01*
X129389333Y-139136452D01*
X129341714Y-139184071D01*
X129294095Y-139279310D01*
X129294095Y-139517405D01*
X129341714Y-139612643D01*
X129389333Y-139660262D01*
X129484571Y-139707881D01*
X129770286Y-139707881D01*
X129865524Y-139660262D01*
X129913143Y-139612643D01*
X135008857Y-135897881D02*
X135342191Y-135421690D01*
X135580286Y-135897881D02*
X135580286Y-134897881D01*
X135199333Y-134897881D01*
X135104095Y-134945500D01*
X135056476Y-134993119D01*
X135008857Y-135088357D01*
X135008857Y-135231214D01*
X135056476Y-135326452D01*
X135104095Y-135374071D01*
X135199333Y-135421690D01*
X135580286Y-135421690D01*
X134056476Y-135897881D02*
X134627905Y-135897881D01*
X134342191Y-135897881D02*
X134342191Y-134897881D01*
X134437429Y-135040738D01*
X134532667Y-135135976D01*
X134627905Y-135183595D01*
X133675524Y-134993119D02*
X133627905Y-134945500D01*
X133532667Y-134897881D01*
X133294571Y-134897881D01*
X133199333Y-134945500D01*
X133151714Y-134993119D01*
X133104095Y-135088357D01*
X133104095Y-135183595D01*
X133151714Y-135326452D01*
X133723143Y-135897881D01*
X133104095Y-135897881D01*
X115260357Y-119144381D02*
X115593691Y-118668190D01*
X115831786Y-119144381D02*
X115831786Y-118144381D01*
X115450833Y-118144381D01*
X115355595Y-118192000D01*
X115307976Y-118239619D01*
X115260357Y-118334857D01*
X115260357Y-118477714D01*
X115307976Y-118572952D01*
X115355595Y-118620571D01*
X115450833Y-118668190D01*
X115831786Y-118668190D01*
X114307976Y-119144381D02*
X114879405Y-119144381D01*
X114593691Y-119144381D02*
X114593691Y-118144381D01*
X114688929Y-118287238D01*
X114784167Y-118382476D01*
X114879405Y-118430095D01*
X113355595Y-119144381D02*
X113927024Y-119144381D01*
X113641310Y-119144381D02*
X113641310Y-118144381D01*
X113736548Y-118287238D01*
X113831786Y-118382476D01*
X113927024Y-118430095D01*
X114053857Y-107957881D02*
X114387191Y-107481690D01*
X114625286Y-107957881D02*
X114625286Y-106957881D01*
X114244333Y-106957881D01*
X114149095Y-107005500D01*
X114101476Y-107053119D01*
X114053857Y-107148357D01*
X114053857Y-107291214D01*
X114101476Y-107386452D01*
X114149095Y-107434071D01*
X114244333Y-107481690D01*
X114625286Y-107481690D01*
X113101476Y-107957881D02*
X113672905Y-107957881D01*
X113387191Y-107957881D02*
X113387191Y-106957881D01*
X113482429Y-107100738D01*
X113577667Y-107195976D01*
X113672905Y-107243595D01*
X112482429Y-106957881D02*
X112387190Y-106957881D01*
X112291952Y-107005500D01*
X112244333Y-107053119D01*
X112196714Y-107148357D01*
X112149095Y-107338833D01*
X112149095Y-107576929D01*
X112196714Y-107767405D01*
X112244333Y-107862643D01*
X112291952Y-107910262D01*
X112387190Y-107957881D01*
X112482429Y-107957881D01*
X112577667Y-107910262D01*
X112625286Y-107862643D01*
X112672905Y-107767405D01*
X112720524Y-107576929D01*
X112720524Y-107338833D01*
X112672905Y-107148357D01*
X112625286Y-107053119D01*
X112577667Y-107005500D01*
X112482429Y-106957881D01*
X107989666Y-107756881D02*
X108323000Y-107280690D01*
X108561095Y-107756881D02*
X108561095Y-106756881D01*
X108180142Y-106756881D01*
X108084904Y-106804500D01*
X108037285Y-106852119D01*
X107989666Y-106947357D01*
X107989666Y-107090214D01*
X108037285Y-107185452D01*
X108084904Y-107233071D01*
X108180142Y-107280690D01*
X108561095Y-107280690D01*
X107513476Y-107756881D02*
X107323000Y-107756881D01*
X107227761Y-107709262D01*
X107180142Y-107661643D01*
X107084904Y-107518786D01*
X107037285Y-107328310D01*
X107037285Y-106947357D01*
X107084904Y-106852119D01*
X107132523Y-106804500D01*
X107227761Y-106756881D01*
X107418238Y-106756881D01*
X107513476Y-106804500D01*
X107561095Y-106852119D01*
X107608714Y-106947357D01*
X107608714Y-107185452D01*
X107561095Y-107280690D01*
X107513476Y-107328310D01*
X107418238Y-107375929D01*
X107227761Y-107375929D01*
X107132523Y-107328310D01*
X107084904Y-107280690D01*
X107037285Y-107185452D01*
X114847666Y-124467881D02*
X115181000Y-123991690D01*
X115419095Y-124467881D02*
X115419095Y-123467881D01*
X115038142Y-123467881D01*
X114942904Y-123515500D01*
X114895285Y-123563119D01*
X114847666Y-123658357D01*
X114847666Y-123801214D01*
X114895285Y-123896452D01*
X114942904Y-123944071D01*
X115038142Y-123991690D01*
X115419095Y-123991690D01*
X114276238Y-123896452D02*
X114371476Y-123848833D01*
X114419095Y-123801214D01*
X114466714Y-123705976D01*
X114466714Y-123658357D01*
X114419095Y-123563119D01*
X114371476Y-123515500D01*
X114276238Y-123467881D01*
X114085761Y-123467881D01*
X113990523Y-123515500D01*
X113942904Y-123563119D01*
X113895285Y-123658357D01*
X113895285Y-123705976D01*
X113942904Y-123801214D01*
X113990523Y-123848833D01*
X114085761Y-123896452D01*
X114276238Y-123896452D01*
X114371476Y-123944071D01*
X114419095Y-123991690D01*
X114466714Y-124086929D01*
X114466714Y-124277405D01*
X114419095Y-124372643D01*
X114371476Y-124420262D01*
X114276238Y-124467881D01*
X114085761Y-124467881D01*
X113990523Y-124420262D01*
X113942904Y-124372643D01*
X113895285Y-124277405D01*
X113895285Y-124086929D01*
X113942904Y-123991690D01*
X113990523Y-123944071D01*
X114085761Y-123896452D01*
X113514166Y-103078881D02*
X113847500Y-102602690D01*
X114085595Y-103078881D02*
X114085595Y-102078881D01*
X113704642Y-102078881D01*
X113609404Y-102126500D01*
X113561785Y-102174119D01*
X113514166Y-102269357D01*
X113514166Y-102412214D01*
X113561785Y-102507452D01*
X113609404Y-102555071D01*
X113704642Y-102602690D01*
X114085595Y-102602690D01*
X113180833Y-102078881D02*
X112514166Y-102078881D01*
X112942738Y-103078881D01*
X107862666Y-102877881D02*
X108196000Y-102401690D01*
X108434095Y-102877881D02*
X108434095Y-101877881D01*
X108053142Y-101877881D01*
X107957904Y-101925500D01*
X107910285Y-101973119D01*
X107862666Y-102068357D01*
X107862666Y-102211214D01*
X107910285Y-102306452D01*
X107957904Y-102354071D01*
X108053142Y-102401690D01*
X108434095Y-102401690D01*
X107005523Y-101877881D02*
X107196000Y-101877881D01*
X107291238Y-101925500D01*
X107338857Y-101973119D01*
X107434095Y-102115976D01*
X107481714Y-102306452D01*
X107481714Y-102687405D01*
X107434095Y-102782643D01*
X107386476Y-102830262D01*
X107291238Y-102877881D01*
X107100761Y-102877881D01*
X107005523Y-102830262D01*
X106957904Y-102782643D01*
X106910285Y-102687405D01*
X106910285Y-102449310D01*
X106957904Y-102354071D01*
X107005523Y-102306452D01*
X107100761Y-102258833D01*
X107291238Y-102258833D01*
X107386476Y-102306452D01*
X107434095Y-102354071D01*
X107481714Y-102449310D01*
X109767666Y-124467881D02*
X110101000Y-123991690D01*
X110339095Y-124467881D02*
X110339095Y-123467881D01*
X109958142Y-123467881D01*
X109862904Y-123515500D01*
X109815285Y-123563119D01*
X109767666Y-123658357D01*
X109767666Y-123801214D01*
X109815285Y-123896452D01*
X109862904Y-123944071D01*
X109958142Y-123991690D01*
X110339095Y-123991690D01*
X108862904Y-123467881D02*
X109339095Y-123467881D01*
X109386714Y-123944071D01*
X109339095Y-123896452D01*
X109243857Y-123848833D01*
X109005761Y-123848833D01*
X108910523Y-123896452D01*
X108862904Y-123944071D01*
X108815285Y-124039310D01*
X108815285Y-124277405D01*
X108862904Y-124372643D01*
X108910523Y-124420262D01*
X109005761Y-124467881D01*
X109243857Y-124467881D01*
X109339095Y-124420262D01*
X109386714Y-124372643D01*
X109704166Y-119185643D02*
X109751785Y-119233262D01*
X109894642Y-119280881D01*
X109989880Y-119280881D01*
X110132738Y-119233262D01*
X110227976Y-119138024D01*
X110275595Y-119042786D01*
X110323214Y-118852310D01*
X110323214Y-118709452D01*
X110275595Y-118518976D01*
X110227976Y-118423738D01*
X110132738Y-118328500D01*
X109989880Y-118280881D01*
X109894642Y-118280881D01*
X109751785Y-118328500D01*
X109704166Y-118376119D01*
X108751785Y-119280881D02*
X109323214Y-119280881D01*
X109037500Y-119280881D02*
X109037500Y-118280881D01*
X109132738Y-118423738D01*
X109227976Y-118518976D01*
X109323214Y-118566595D01*
M02*
