G04 #@! TF.FileFunction,Paste,Top*
%FSLAX46Y46*%
G04 Gerber Fmt 4.6, Leading zero omitted, Abs format (unit mm)*
G04 Created by KiCad (PCBNEW 4.0.6) date 06/27/17 09:44:02*
%MOMM*%
%LPD*%
G01*
G04 APERTURE LIST*
%ADD10C,0.100000*%
%ADD11R,0.285000X2.000000*%
%ADD12R,2.000000X0.600000*%
%ADD13R,0.900000X1.200000*%
G04 APERTURE END LIST*
D10*
D11*
X142348000Y-115129000D03*
X142848000Y-115129000D03*
X143348000Y-115129000D03*
X143848000Y-115129000D03*
X144348000Y-115129000D03*
X144848000Y-115129000D03*
X145348000Y-115129000D03*
X145848000Y-115129000D03*
X146348000Y-115129000D03*
X146848000Y-115129000D03*
X147348000Y-115129000D03*
X147848000Y-115129000D03*
X148348000Y-115129000D03*
X148848000Y-115129000D03*
X149348000Y-115129000D03*
X149848000Y-115129000D03*
X150348000Y-115129000D03*
X150848000Y-115129000D03*
X151348000Y-115129000D03*
X151848000Y-115129000D03*
X152348000Y-115129000D03*
X152848000Y-115129000D03*
X153348000Y-115129000D03*
X153848000Y-115129000D03*
X154348000Y-115129000D03*
X154848000Y-115129000D03*
X155348000Y-115129000D03*
X155848000Y-115129000D03*
X155848000Y-107629000D03*
X155348000Y-107629000D03*
X154848000Y-107629000D03*
X154348000Y-107629000D03*
X153848000Y-107629000D03*
X153348000Y-107629000D03*
X152848000Y-107629000D03*
X152348000Y-107629000D03*
X151848000Y-107629000D03*
X151348000Y-107629000D03*
X150848000Y-107629000D03*
X150348000Y-107629000D03*
X149848000Y-107629000D03*
X149348000Y-107629000D03*
X148848000Y-107629000D03*
X148348000Y-107629000D03*
X147848000Y-107629000D03*
X147348000Y-107629000D03*
X146848000Y-107629000D03*
X146348000Y-107629000D03*
X145848000Y-107629000D03*
X145348000Y-107629000D03*
X144848000Y-107629000D03*
X144348000Y-107629000D03*
X143848000Y-107629000D03*
X143348000Y-107629000D03*
X142848000Y-107629000D03*
X142348000Y-107629000D03*
D12*
X158850600Y-88963500D03*
X158850600Y-90233500D03*
X158850600Y-91503500D03*
X158850600Y-92773500D03*
X158850600Y-94043500D03*
X158850600Y-95313500D03*
X158850600Y-96583500D03*
X158850600Y-97853500D03*
X158850600Y-99123500D03*
X168250600Y-99123500D03*
X168250600Y-97853500D03*
X168250600Y-96583500D03*
X168250600Y-95313500D03*
X168250600Y-94043500D03*
X168250600Y-92773500D03*
X168250600Y-91503500D03*
X168250600Y-90233500D03*
X168250600Y-88963500D03*
X158825200Y-103543100D03*
X158825200Y-104813100D03*
X158825200Y-106083100D03*
X158825200Y-107353100D03*
X158825200Y-108623100D03*
X158825200Y-109893100D03*
X158825200Y-111163100D03*
X158825200Y-112433100D03*
X158825200Y-113703100D03*
X168225200Y-113703100D03*
X168225200Y-112433100D03*
X168225200Y-111163100D03*
X168225200Y-109893100D03*
X168225200Y-108623100D03*
X168225200Y-107353100D03*
X168225200Y-106083100D03*
X168225200Y-104813100D03*
X168225200Y-103543100D03*
X158850600Y-117792500D03*
X158850600Y-119062500D03*
X158850600Y-120332500D03*
X158850600Y-121602500D03*
X158850600Y-122872500D03*
X158850600Y-124142500D03*
X158850600Y-125412500D03*
X158850600Y-126682500D03*
X158850600Y-127952500D03*
X168250600Y-127952500D03*
X168250600Y-126682500D03*
X168250600Y-125412500D03*
X168250600Y-124142500D03*
X168250600Y-122872500D03*
X168250600Y-121602500D03*
X168250600Y-120332500D03*
X168250600Y-119062500D03*
X168250600Y-117792500D03*
X158977600Y-133007100D03*
X158977600Y-134277100D03*
X158977600Y-135547100D03*
X158977600Y-136817100D03*
X158977600Y-138087100D03*
X158977600Y-139357100D03*
X158977600Y-140627100D03*
X158977600Y-141897100D03*
X158977600Y-143167100D03*
X168377600Y-143167100D03*
X168377600Y-141897100D03*
X168377600Y-140627100D03*
X168377600Y-139357100D03*
X168377600Y-138087100D03*
X168377600Y-136817100D03*
X168377600Y-135547100D03*
X168377600Y-134277100D03*
X168377600Y-133007100D03*
D13*
X132651500Y-115527000D03*
X132651500Y-113327000D03*
X130111500Y-115527000D03*
X130111500Y-113327000D03*
M02*
