G04 #@! TF.GenerationSoftware,KiCad,Pcbnew,(5.1.5)-3*
G04 #@! TF.CreationDate,2020-04-29T17:43:41-04:00*
G04 #@! TF.ProjectId,ufcs,75666373-2e6b-4696-9361-645f70636258,rev?*
G04 #@! TF.SameCoordinates,Original*
G04 #@! TF.FileFunction,Legend,Top*
G04 #@! TF.FilePolarity,Positive*
%FSLAX46Y46*%
G04 Gerber Fmt 4.6, Leading zero omitted, Abs format (unit mm)*
G04 Created by KiCad (PCBNEW (5.1.5)-3) date 2020-04-29 17:43:41*
%MOMM*%
%LPD*%
G04 APERTURE LIST*
%ADD10C,0.200000*%
%ADD11C,0.120000*%
%ADD12C,0.300000*%
%ADD13C,0.150000*%
G04 APERTURE END LIST*
D10*
X130175000Y-146240500D02*
X130175000Y-137096500D01*
X147193000Y-146240500D02*
X130175000Y-146240500D01*
X147193000Y-144716500D02*
X147193000Y-146240500D01*
X147193000Y-137096500D02*
X147193000Y-144716500D01*
X130175000Y-137096500D02*
X147193000Y-137096500D01*
X130175000Y-136080500D02*
X130683000Y-136080500D01*
X130175000Y-117792500D02*
X130175000Y-136080500D01*
X147193000Y-136080500D02*
X130683000Y-136080500D01*
X147193000Y-117792500D02*
X147193000Y-136080500D01*
X130175000Y-117792500D02*
X147193000Y-117792500D01*
D11*
X144145095Y-144724500D02*
X144049857Y-144676880D01*
X143907000Y-144676880D01*
X143764142Y-144724500D01*
X143668904Y-144819738D01*
X143621285Y-144914976D01*
X143573666Y-145105452D01*
X143573666Y-145248309D01*
X143621285Y-145438785D01*
X143668904Y-145534023D01*
X143764142Y-145629261D01*
X143907000Y-145676880D01*
X144002238Y-145676880D01*
X144145095Y-145629261D01*
X144192714Y-145581642D01*
X144192714Y-145248309D01*
X144002238Y-145248309D01*
X144621285Y-145676880D02*
X144621285Y-144676880D01*
X145192714Y-145676880D01*
X145192714Y-144676880D01*
X145668904Y-145676880D02*
X145668904Y-144676880D01*
X145907000Y-144676880D01*
X146049857Y-144724500D01*
X146145095Y-144819738D01*
X146192714Y-144914976D01*
X146240333Y-145105452D01*
X146240333Y-145248309D01*
X146192714Y-145438785D01*
X146145095Y-145534023D01*
X146049857Y-145629261D01*
X145907000Y-145676880D01*
X145668904Y-145676880D01*
X140477952Y-145676880D02*
X139906523Y-145676880D01*
X140192238Y-145676880D02*
X140192238Y-144676880D01*
X140097000Y-144819738D01*
X140001761Y-144914976D01*
X139906523Y-144962595D01*
X140858904Y-144772119D02*
X140906523Y-144724500D01*
X141001761Y-144676880D01*
X141239857Y-144676880D01*
X141335095Y-144724500D01*
X141382714Y-144772119D01*
X141430333Y-144867357D01*
X141430333Y-144962595D01*
X141382714Y-145105452D01*
X140811285Y-145676880D01*
X141430333Y-145676880D01*
X141716047Y-144676880D02*
X142049380Y-145676880D01*
X142382714Y-144676880D01*
X136580714Y-145629261D02*
X136723571Y-145676880D01*
X136961666Y-145676880D01*
X137056904Y-145629261D01*
X137104523Y-145581642D01*
X137152142Y-145486404D01*
X137152142Y-145391166D01*
X137104523Y-145295928D01*
X137056904Y-145248309D01*
X136961666Y-145200690D01*
X136771190Y-145153071D01*
X136675952Y-145105452D01*
X136628333Y-145057833D01*
X136580714Y-144962595D01*
X136580714Y-144867357D01*
X136628333Y-144772119D01*
X136675952Y-144724500D01*
X136771190Y-144676880D01*
X137009285Y-144676880D01*
X137152142Y-144724500D01*
X137580714Y-145676880D02*
X137580714Y-144676880D01*
X137818809Y-144676880D01*
X137961666Y-144724500D01*
X138056904Y-144819738D01*
X138104523Y-144914976D01*
X138152142Y-145105452D01*
X138152142Y-145248309D01*
X138104523Y-145438785D01*
X138056904Y-145534023D01*
X137961666Y-145629261D01*
X137818809Y-145676880D01*
X137580714Y-145676880D01*
X138533095Y-145391166D02*
X139009285Y-145391166D01*
X138437857Y-145676880D02*
X138771190Y-144676880D01*
X139104523Y-145676880D01*
X133302523Y-145629261D02*
X133445380Y-145676880D01*
X133683476Y-145676880D01*
X133778714Y-145629261D01*
X133826333Y-145581642D01*
X133873952Y-145486404D01*
X133873952Y-145391166D01*
X133826333Y-145295928D01*
X133778714Y-145248309D01*
X133683476Y-145200690D01*
X133493000Y-145153071D01*
X133397761Y-145105452D01*
X133350142Y-145057833D01*
X133302523Y-144962595D01*
X133302523Y-144867357D01*
X133350142Y-144772119D01*
X133397761Y-144724500D01*
X133493000Y-144676880D01*
X133731095Y-144676880D01*
X133873952Y-144724500D01*
X134873952Y-145581642D02*
X134826333Y-145629261D01*
X134683476Y-145676880D01*
X134588238Y-145676880D01*
X134445380Y-145629261D01*
X134350142Y-145534023D01*
X134302523Y-145438785D01*
X134254904Y-145248309D01*
X134254904Y-145105452D01*
X134302523Y-144914976D01*
X134350142Y-144819738D01*
X134445380Y-144724500D01*
X134588238Y-144676880D01*
X134683476Y-144676880D01*
X134826333Y-144724500D01*
X134873952Y-144772119D01*
X135778714Y-145676880D02*
X135302523Y-145676880D01*
X135302523Y-144676880D01*
D10*
X132151380Y-143858976D02*
X131151380Y-143858976D01*
X131151380Y-143620880D01*
X131199000Y-143478023D01*
X131294238Y-143382785D01*
X131389476Y-143335166D01*
X131579952Y-143287547D01*
X131722809Y-143287547D01*
X131913285Y-143335166D01*
X132008523Y-143382785D01*
X132103761Y-143478023D01*
X132151380Y-143620880D01*
X132151380Y-143858976D01*
X132151380Y-142858976D02*
X131484714Y-142858976D01*
X131151380Y-142858976D02*
X131199000Y-142906595D01*
X131246619Y-142858976D01*
X131199000Y-142811357D01*
X131151380Y-142858976D01*
X131246619Y-142858976D01*
X131484714Y-141954214D02*
X132294238Y-141954214D01*
X132389476Y-142001833D01*
X132437095Y-142049452D01*
X132484714Y-142144690D01*
X132484714Y-142287547D01*
X132437095Y-142382785D01*
X132103761Y-141954214D02*
X132151380Y-142049452D01*
X132151380Y-142239928D01*
X132103761Y-142335166D01*
X132056142Y-142382785D01*
X131960904Y-142430404D01*
X131675190Y-142430404D01*
X131579952Y-142382785D01*
X131532333Y-142335166D01*
X131484714Y-142239928D01*
X131484714Y-142049452D01*
X131532333Y-141954214D01*
X132151380Y-141478023D02*
X131484714Y-141478023D01*
X131151380Y-141478023D02*
X131199000Y-141525642D01*
X131246619Y-141478023D01*
X131199000Y-141430404D01*
X131151380Y-141478023D01*
X131246619Y-141478023D01*
X131484714Y-141144690D02*
X131484714Y-140763738D01*
X131151380Y-141001833D02*
X132008523Y-141001833D01*
X132103761Y-140954214D01*
X132151380Y-140858976D01*
X132151380Y-140763738D01*
X132151380Y-140001833D02*
X131627571Y-140001833D01*
X131532333Y-140049452D01*
X131484714Y-140144690D01*
X131484714Y-140335166D01*
X131532333Y-140430404D01*
X132103761Y-140001833D02*
X132151380Y-140097071D01*
X132151380Y-140335166D01*
X132103761Y-140430404D01*
X132008523Y-140478023D01*
X131913285Y-140478023D01*
X131818047Y-140430404D01*
X131770428Y-140335166D01*
X131770428Y-140097071D01*
X131722809Y-140001833D01*
X132151380Y-139382785D02*
X132103761Y-139478023D01*
X132008523Y-139525642D01*
X131151380Y-139525642D01*
X131611666Y-130920404D02*
X131611666Y-130444214D01*
X131897380Y-131015642D02*
X130897380Y-130682309D01*
X131897380Y-130348976D01*
X131230714Y-130015642D02*
X131897380Y-130015642D01*
X131325952Y-130015642D02*
X131278333Y-129968023D01*
X131230714Y-129872785D01*
X131230714Y-129729928D01*
X131278333Y-129634690D01*
X131373571Y-129587071D01*
X131897380Y-129587071D01*
X131897380Y-128682309D02*
X131373571Y-128682309D01*
X131278333Y-128729928D01*
X131230714Y-128825166D01*
X131230714Y-129015642D01*
X131278333Y-129110880D01*
X131849761Y-128682309D02*
X131897380Y-128777547D01*
X131897380Y-129015642D01*
X131849761Y-129110880D01*
X131754523Y-129158500D01*
X131659285Y-129158500D01*
X131564047Y-129110880D01*
X131516428Y-129015642D01*
X131516428Y-128777547D01*
X131468809Y-128682309D01*
X131897380Y-128063261D02*
X131849761Y-128158500D01*
X131754523Y-128206119D01*
X130897380Y-128206119D01*
X131897380Y-127539452D02*
X131849761Y-127634690D01*
X131802142Y-127682309D01*
X131706904Y-127729928D01*
X131421190Y-127729928D01*
X131325952Y-127682309D01*
X131278333Y-127634690D01*
X131230714Y-127539452D01*
X131230714Y-127396595D01*
X131278333Y-127301357D01*
X131325952Y-127253738D01*
X131421190Y-127206119D01*
X131706904Y-127206119D01*
X131802142Y-127253738D01*
X131849761Y-127301357D01*
X131897380Y-127396595D01*
X131897380Y-127539452D01*
X131230714Y-126348976D02*
X132040238Y-126348976D01*
X132135476Y-126396595D01*
X132183095Y-126444214D01*
X132230714Y-126539452D01*
X132230714Y-126682309D01*
X132183095Y-126777547D01*
X131849761Y-126348976D02*
X131897380Y-126444214D01*
X131897380Y-126634690D01*
X131849761Y-126729928D01*
X131802142Y-126777547D01*
X131706904Y-126825166D01*
X131421190Y-126825166D01*
X131325952Y-126777547D01*
X131278333Y-126729928D01*
X131230714Y-126634690D01*
X131230714Y-126444214D01*
X131278333Y-126348976D01*
X132278333Y-124825166D02*
X132230714Y-124872785D01*
X132087857Y-124968023D01*
X131992619Y-125015642D01*
X131849761Y-125063261D01*
X131611666Y-125110880D01*
X131421190Y-125110880D01*
X131183095Y-125063261D01*
X131040238Y-125015642D01*
X130945000Y-124968023D01*
X130802142Y-124872785D01*
X130754523Y-124825166D01*
X131897380Y-124444214D02*
X130897380Y-124444214D01*
X130897380Y-124063261D01*
X130945000Y-123968023D01*
X130992619Y-123920404D01*
X131087857Y-123872785D01*
X131230714Y-123872785D01*
X131325952Y-123920404D01*
X131373571Y-123968023D01*
X131421190Y-124063261D01*
X131421190Y-124444214D01*
X131897380Y-123015642D02*
X131373571Y-123015642D01*
X131278333Y-123063261D01*
X131230714Y-123158500D01*
X131230714Y-123348976D01*
X131278333Y-123444214D01*
X131849761Y-123015642D02*
X131897380Y-123110880D01*
X131897380Y-123348976D01*
X131849761Y-123444214D01*
X131754523Y-123491833D01*
X131659285Y-123491833D01*
X131564047Y-123444214D01*
X131516428Y-123348976D01*
X131516428Y-123110880D01*
X131468809Y-123015642D01*
X131897380Y-122539452D02*
X131230714Y-122539452D01*
X131421190Y-122539452D02*
X131325952Y-122491833D01*
X131278333Y-122444214D01*
X131230714Y-122348976D01*
X131230714Y-122253738D01*
X131897380Y-121920404D02*
X130897380Y-121920404D01*
X131516428Y-121825166D02*
X131897380Y-121539452D01*
X131230714Y-121539452D02*
X131611666Y-121920404D01*
X131849761Y-120729928D02*
X131897380Y-120825166D01*
X131897380Y-121015642D01*
X131849761Y-121110880D01*
X131754523Y-121158500D01*
X131373571Y-121158500D01*
X131278333Y-121110880D01*
X131230714Y-121015642D01*
X131230714Y-120825166D01*
X131278333Y-120729928D01*
X131373571Y-120682309D01*
X131468809Y-120682309D01*
X131564047Y-121158500D01*
X131897380Y-120253738D02*
X131230714Y-120253738D01*
X131421190Y-120253738D02*
X131325952Y-120206119D01*
X131278333Y-120158500D01*
X131230714Y-120063261D01*
X131230714Y-119968023D01*
X132278333Y-119729928D02*
X132230714Y-119682309D01*
X132087857Y-119587071D01*
X131992619Y-119539452D01*
X131849761Y-119491833D01*
X131611666Y-119444214D01*
X131421190Y-119444214D01*
X131183095Y-119491833D01*
X131040238Y-119539452D01*
X130945000Y-119587071D01*
X130802142Y-119682309D01*
X130754523Y-119729928D01*
X129583571Y-142802214D02*
X128083571Y-142802214D01*
X128083571Y-142230785D01*
X128155000Y-142087928D01*
X128226428Y-142016500D01*
X128369285Y-141945071D01*
X128583571Y-141945071D01*
X128726428Y-142016500D01*
X128797857Y-142087928D01*
X128869285Y-142230785D01*
X128869285Y-142802214D01*
X129583571Y-141302214D02*
X128583571Y-141302214D01*
X128869285Y-141302214D02*
X128726428Y-141230785D01*
X128655000Y-141159357D01*
X128583571Y-141016500D01*
X128583571Y-140873642D01*
X129512142Y-139802214D02*
X129583571Y-139945071D01*
X129583571Y-140230785D01*
X129512142Y-140373642D01*
X129369285Y-140445071D01*
X128797857Y-140445071D01*
X128655000Y-140373642D01*
X128583571Y-140230785D01*
X128583571Y-139945071D01*
X128655000Y-139802214D01*
X128797857Y-139730785D01*
X128940714Y-139730785D01*
X129083571Y-140445071D01*
X129512142Y-139159357D02*
X129583571Y-139016500D01*
X129583571Y-138730785D01*
X129512142Y-138587928D01*
X129369285Y-138516500D01*
X129297857Y-138516500D01*
X129155000Y-138587928D01*
X129083571Y-138730785D01*
X129083571Y-138945071D01*
X129012142Y-139087928D01*
X128869285Y-139159357D01*
X128797857Y-139159357D01*
X128655000Y-139087928D01*
X128583571Y-138945071D01*
X128583571Y-138730785D01*
X128655000Y-138587928D01*
X129512142Y-137945071D02*
X129583571Y-137802214D01*
X129583571Y-137516500D01*
X129512142Y-137373642D01*
X129369285Y-137302214D01*
X129297857Y-137302214D01*
X129155000Y-137373642D01*
X129083571Y-137516500D01*
X129083571Y-137730785D01*
X129012142Y-137873642D01*
X128869285Y-137945071D01*
X128797857Y-137945071D01*
X128655000Y-137873642D01*
X128583571Y-137730785D01*
X128583571Y-137516500D01*
X128655000Y-137373642D01*
X128583571Y-136016500D02*
X129583571Y-136016500D01*
X128583571Y-136659357D02*
X129369285Y-136659357D01*
X129512142Y-136587928D01*
X129583571Y-136445071D01*
X129583571Y-136230785D01*
X129512142Y-136087928D01*
X129440714Y-136016500D01*
X129583571Y-135302214D02*
X128583571Y-135302214D01*
X128869285Y-135302214D02*
X128726428Y-135230785D01*
X128655000Y-135159357D01*
X128583571Y-135016500D01*
X128583571Y-134873642D01*
X129512142Y-133802214D02*
X129583571Y-133945071D01*
X129583571Y-134230785D01*
X129512142Y-134373642D01*
X129369285Y-134445071D01*
X128797857Y-134445071D01*
X128655000Y-134373642D01*
X128583571Y-134230785D01*
X128583571Y-133945071D01*
X128655000Y-133802214D01*
X128797857Y-133730785D01*
X128940714Y-133730785D01*
X129083571Y-134445071D01*
X129583571Y-131945071D02*
X128583571Y-131945071D01*
X128869285Y-131945071D02*
X128726428Y-131873642D01*
X128655000Y-131802214D01*
X128583571Y-131659357D01*
X128583571Y-131516500D01*
X129512142Y-130445071D02*
X129583571Y-130587928D01*
X129583571Y-130873642D01*
X129512142Y-131016500D01*
X129369285Y-131087928D01*
X128797857Y-131087928D01*
X128655000Y-131016500D01*
X128583571Y-130873642D01*
X128583571Y-130587928D01*
X128655000Y-130445071D01*
X128797857Y-130373642D01*
X128940714Y-130373642D01*
X129083571Y-131087928D01*
X128583571Y-129087928D02*
X129797857Y-129087928D01*
X129940714Y-129159357D01*
X130012142Y-129230785D01*
X130083571Y-129373642D01*
X130083571Y-129587928D01*
X130012142Y-129730785D01*
X129512142Y-129087928D02*
X129583571Y-129230785D01*
X129583571Y-129516500D01*
X129512142Y-129659357D01*
X129440714Y-129730785D01*
X129297857Y-129802214D01*
X128869285Y-129802214D01*
X128726428Y-129730785D01*
X128655000Y-129659357D01*
X128583571Y-129516500D01*
X128583571Y-129230785D01*
X128655000Y-129087928D01*
X128583571Y-127730785D02*
X129583571Y-127730785D01*
X128583571Y-128373642D02*
X129369285Y-128373642D01*
X129512142Y-128302214D01*
X129583571Y-128159357D01*
X129583571Y-127945071D01*
X129512142Y-127802214D01*
X129440714Y-127730785D01*
X129583571Y-126802214D02*
X129512142Y-126945071D01*
X129369285Y-127016500D01*
X128083571Y-127016500D01*
X129583571Y-125587928D02*
X128797857Y-125587928D01*
X128655000Y-125659357D01*
X128583571Y-125802214D01*
X128583571Y-126087928D01*
X128655000Y-126230785D01*
X129512142Y-125587928D02*
X129583571Y-125730785D01*
X129583571Y-126087928D01*
X129512142Y-126230785D01*
X129369285Y-126302214D01*
X129226428Y-126302214D01*
X129083571Y-126230785D01*
X129012142Y-126087928D01*
X129012142Y-125730785D01*
X128940714Y-125587928D01*
X128583571Y-125087928D02*
X128583571Y-124516500D01*
X128083571Y-124873642D02*
X129369285Y-124873642D01*
X129512142Y-124802214D01*
X129583571Y-124659357D01*
X129583571Y-124516500D01*
X129583571Y-123802214D02*
X129512142Y-123945071D01*
X129440714Y-124016500D01*
X129297857Y-124087928D01*
X128869285Y-124087928D01*
X128726428Y-124016500D01*
X128655000Y-123945071D01*
X128583571Y-123802214D01*
X128583571Y-123587928D01*
X128655000Y-123445071D01*
X128726428Y-123373642D01*
X128869285Y-123302214D01*
X129297857Y-123302214D01*
X129440714Y-123373642D01*
X129512142Y-123445071D01*
X129583571Y-123587928D01*
X129583571Y-123802214D01*
X129583571Y-122659357D02*
X128583571Y-122659357D01*
X128869285Y-122659357D02*
X128726428Y-122587928D01*
X128655000Y-122516500D01*
X128583571Y-122373642D01*
X128583571Y-122230785D01*
X129512142Y-121802214D02*
X129583571Y-121659357D01*
X129583571Y-121373642D01*
X129512142Y-121230785D01*
X129369285Y-121159357D01*
X129297857Y-121159357D01*
X129155000Y-121230785D01*
X129083571Y-121373642D01*
X129083571Y-121587928D01*
X129012142Y-121730785D01*
X128869285Y-121802214D01*
X128797857Y-121802214D01*
X128655000Y-121730785D01*
X128583571Y-121587928D01*
X128583571Y-121373642D01*
X128655000Y-121230785D01*
D11*
X142009380Y-105758976D02*
X142009380Y-106330404D01*
X142009380Y-106044690D02*
X141009380Y-106044690D01*
X141152238Y-106139928D01*
X141247476Y-106235166D01*
X141295095Y-106330404D01*
X141104619Y-105378023D02*
X141057000Y-105330404D01*
X141009380Y-105235166D01*
X141009380Y-104997071D01*
X141057000Y-104901833D01*
X141104619Y-104854214D01*
X141199857Y-104806595D01*
X141295095Y-104806595D01*
X141437952Y-104854214D01*
X142009380Y-105425642D01*
X142009380Y-104806595D01*
X141628428Y-104378023D02*
X141628428Y-103616119D01*
X141104619Y-103187547D02*
X141057000Y-103139928D01*
X141009380Y-103044690D01*
X141009380Y-102806595D01*
X141057000Y-102711357D01*
X141104619Y-102663738D01*
X141199857Y-102616119D01*
X141295095Y-102616119D01*
X141437952Y-102663738D01*
X142009380Y-103235166D01*
X142009380Y-102616119D01*
X141342714Y-101758976D02*
X142009380Y-101758976D01*
X140961761Y-101997071D02*
X141676047Y-102235166D01*
X141676047Y-101616119D01*
X141009380Y-101378023D02*
X142009380Y-101044690D01*
X141009380Y-100711357D01*
X143581761Y-106473261D02*
X143629380Y-106378023D01*
X143629380Y-106187547D01*
X143581761Y-106092309D01*
X143486523Y-106044690D01*
X143438904Y-106044690D01*
X143343666Y-106092309D01*
X143296047Y-106187547D01*
X143296047Y-106330404D01*
X143248428Y-106425642D01*
X143153190Y-106473261D01*
X143105571Y-106473261D01*
X143010333Y-106425642D01*
X142962714Y-106330404D01*
X142962714Y-106187547D01*
X143010333Y-106092309D01*
X142962714Y-105758976D02*
X142962714Y-105378023D01*
X142629380Y-105616119D02*
X143486523Y-105616119D01*
X143581761Y-105568500D01*
X143629380Y-105473261D01*
X143629380Y-105378023D01*
X143581761Y-104663738D02*
X143629380Y-104758976D01*
X143629380Y-104949452D01*
X143581761Y-105044690D01*
X143486523Y-105092309D01*
X143105571Y-105092309D01*
X143010333Y-105044690D01*
X142962714Y-104949452D01*
X142962714Y-104758976D01*
X143010333Y-104663738D01*
X143105571Y-104616119D01*
X143200809Y-104616119D01*
X143296047Y-105092309D01*
X142962714Y-104187547D02*
X143962714Y-104187547D01*
X143010333Y-104187547D02*
X142962714Y-104092309D01*
X142962714Y-103901833D01*
X143010333Y-103806595D01*
X143057952Y-103758976D01*
X143153190Y-103711357D01*
X143438904Y-103711357D01*
X143534142Y-103758976D01*
X143581761Y-103806595D01*
X143629380Y-103901833D01*
X143629380Y-104092309D01*
X143581761Y-104187547D01*
X143248428Y-103282785D02*
X143248428Y-102520880D01*
X142962714Y-101616119D02*
X143629380Y-101616119D01*
X142962714Y-102044690D02*
X143486523Y-102044690D01*
X143581761Y-101997071D01*
X143629380Y-101901833D01*
X143629380Y-101758976D01*
X143581761Y-101663738D01*
X143534142Y-101616119D01*
X142962714Y-101139928D02*
X143962714Y-101139928D01*
X143010333Y-101139928D02*
X142962714Y-101044690D01*
X142962714Y-100854214D01*
X143010333Y-100758976D01*
X143057952Y-100711357D01*
X143153190Y-100663738D01*
X143438904Y-100663738D01*
X143534142Y-100711357D01*
X143581761Y-100758976D01*
X143629380Y-100854214D01*
X143629380Y-101044690D01*
X143581761Y-101139928D01*
X89257619Y-128812119D02*
X89257619Y-128335928D01*
X90257619Y-128335928D01*
X89781428Y-129478785D02*
X89733809Y-129621642D01*
X89686190Y-129669261D01*
X89590952Y-129716880D01*
X89448095Y-129716880D01*
X89352857Y-129669261D01*
X89305238Y-129621642D01*
X89257619Y-129526404D01*
X89257619Y-129145452D01*
X90257619Y-129145452D01*
X90257619Y-129478785D01*
X90210000Y-129574023D01*
X90162380Y-129621642D01*
X90067142Y-129669261D01*
X89971904Y-129669261D01*
X89876666Y-129621642D01*
X89829047Y-129574023D01*
X89781428Y-129478785D01*
X89781428Y-129145452D01*
X89257619Y-130145452D02*
X90257619Y-130145452D01*
X89257619Y-130716880D01*
X90257619Y-130716880D01*
X89352857Y-131764500D02*
X89305238Y-131716880D01*
X89257619Y-131574023D01*
X89257619Y-131478785D01*
X89305238Y-131335928D01*
X89400476Y-131240690D01*
X89495714Y-131193071D01*
X89686190Y-131145452D01*
X89829047Y-131145452D01*
X90019523Y-131193071D01*
X90114761Y-131240690D01*
X90210000Y-131335928D01*
X90257619Y-131478785D01*
X90257619Y-131574023D01*
X90210000Y-131716880D01*
X90162380Y-131764500D01*
X89305238Y-132240690D02*
X89257619Y-132240690D01*
X89162380Y-132193071D01*
X89114761Y-132145452D01*
X89781428Y-133431166D02*
X89781428Y-133764500D01*
X89257619Y-133907357D02*
X89257619Y-133431166D01*
X90257619Y-133431166D01*
X90257619Y-133907357D01*
X89257619Y-134335928D02*
X90257619Y-134335928D01*
X90257619Y-134716880D01*
X90210000Y-134812119D01*
X90162380Y-134859738D01*
X90067142Y-134907357D01*
X89924285Y-134907357D01*
X89829047Y-134859738D01*
X89781428Y-134812119D01*
X89733809Y-134716880D01*
X89733809Y-134335928D01*
X89781428Y-135669261D02*
X89781428Y-135335928D01*
X89257619Y-135335928D02*
X90257619Y-135335928D01*
X90257619Y-135812119D01*
X89257619Y-136669261D02*
X89257619Y-136193071D01*
X90257619Y-136193071D01*
X87685238Y-123764500D02*
X87637619Y-123907357D01*
X87637619Y-124145452D01*
X87685238Y-124240690D01*
X87732857Y-124288309D01*
X87828095Y-124335928D01*
X87923333Y-124335928D01*
X88018571Y-124288309D01*
X88066190Y-124240690D01*
X88113809Y-124145452D01*
X88161428Y-123954976D01*
X88209047Y-123859738D01*
X88256666Y-123812119D01*
X88351904Y-123764500D01*
X88447142Y-123764500D01*
X88542380Y-123812119D01*
X88590000Y-123859738D01*
X88637619Y-123954976D01*
X88637619Y-124193071D01*
X88590000Y-124335928D01*
X87685238Y-125145452D02*
X87637619Y-125050214D01*
X87637619Y-124859738D01*
X87685238Y-124764500D01*
X87780476Y-124716880D01*
X88161428Y-124716880D01*
X88256666Y-124764500D01*
X88304285Y-124859738D01*
X88304285Y-125050214D01*
X88256666Y-125145452D01*
X88161428Y-125193071D01*
X88066190Y-125193071D01*
X87970952Y-124716880D01*
X88304285Y-125621642D02*
X87637619Y-125621642D01*
X88209047Y-125621642D02*
X88256666Y-125669261D01*
X88304285Y-125764500D01*
X88304285Y-125907357D01*
X88256666Y-126002595D01*
X88161428Y-126050214D01*
X87637619Y-126050214D01*
X88304285Y-126431166D02*
X87637619Y-126669261D01*
X88304285Y-126907357D02*
X87637619Y-126669261D01*
X87399523Y-126574023D01*
X87351904Y-126526404D01*
X87304285Y-126431166D01*
X87637619Y-127431166D02*
X87685238Y-127335928D01*
X87732857Y-127288309D01*
X87828095Y-127240690D01*
X88113809Y-127240690D01*
X88209047Y-127288309D01*
X88256666Y-127335928D01*
X88304285Y-127431166D01*
X88304285Y-127574023D01*
X88256666Y-127669261D01*
X88209047Y-127716880D01*
X88113809Y-127764500D01*
X87828095Y-127764500D01*
X87732857Y-127716880D01*
X87685238Y-127669261D01*
X87637619Y-127574023D01*
X87637619Y-127431166D01*
X87637619Y-129431166D02*
X87637619Y-128954976D01*
X88637619Y-128954976D01*
X87637619Y-130193071D02*
X88161428Y-130193071D01*
X88256666Y-130145452D01*
X88304285Y-130050214D01*
X88304285Y-129859738D01*
X88256666Y-129764500D01*
X87685238Y-130193071D02*
X87637619Y-130097833D01*
X87637619Y-129859738D01*
X87685238Y-129764500D01*
X87780476Y-129716880D01*
X87875714Y-129716880D01*
X87970952Y-129764500D01*
X88018571Y-129859738D01*
X88018571Y-130097833D01*
X88066190Y-130193071D01*
X87637619Y-130669261D02*
X88637619Y-130669261D01*
X88256666Y-130669261D02*
X88304285Y-130764500D01*
X88304285Y-130954976D01*
X88256666Y-131050214D01*
X88209047Y-131097833D01*
X88113809Y-131145452D01*
X87828095Y-131145452D01*
X87732857Y-131097833D01*
X87685238Y-131050214D01*
X87637619Y-130954976D01*
X87637619Y-130764500D01*
X87685238Y-130669261D01*
X87685238Y-131621642D02*
X87637619Y-131621642D01*
X87542380Y-131574023D01*
X87494761Y-131526404D01*
X87732857Y-133383547D02*
X87685238Y-133335928D01*
X87637619Y-133193071D01*
X87637619Y-133097833D01*
X87685238Y-132954976D01*
X87780476Y-132859738D01*
X87875714Y-132812119D01*
X88066190Y-132764500D01*
X88209047Y-132764500D01*
X88399523Y-132812119D01*
X88494761Y-132859738D01*
X88590000Y-132954976D01*
X88637619Y-133097833D01*
X88637619Y-133193071D01*
X88590000Y-133335928D01*
X88542380Y-133383547D01*
X88637619Y-133716880D02*
X87637619Y-133954976D01*
X88351904Y-134145452D01*
X87637619Y-134335928D01*
X88637619Y-134574023D01*
X87637619Y-135526404D02*
X88113809Y-135193071D01*
X87637619Y-134954976D02*
X88637619Y-134954976D01*
X88637619Y-135335928D01*
X88590000Y-135431166D01*
X88542380Y-135478785D01*
X88447142Y-135526404D01*
X88304285Y-135526404D01*
X88209047Y-135478785D01*
X88161428Y-135431166D01*
X88113809Y-135335928D01*
X88113809Y-134954976D01*
X88637619Y-135954976D02*
X87828095Y-135954976D01*
X87732857Y-136002595D01*
X87685238Y-136050214D01*
X87637619Y-136145452D01*
X87637619Y-136335928D01*
X87685238Y-136431166D01*
X87732857Y-136478785D01*
X87828095Y-136526404D01*
X88637619Y-136526404D01*
D10*
X148209095Y-93035500D02*
X148113857Y-92987880D01*
X147971000Y-92987880D01*
X147828142Y-93035500D01*
X147732904Y-93130738D01*
X147685285Y-93225976D01*
X147637666Y-93416452D01*
X147637666Y-93559309D01*
X147685285Y-93749785D01*
X147732904Y-93845023D01*
X147828142Y-93940261D01*
X147971000Y-93987880D01*
X148066238Y-93987880D01*
X148209095Y-93940261D01*
X148256714Y-93892642D01*
X148256714Y-93559309D01*
X148066238Y-93559309D01*
X148685285Y-93987880D02*
X148685285Y-92987880D01*
X149256714Y-93987880D01*
X149256714Y-92987880D01*
X149732904Y-93987880D02*
X149732904Y-92987880D01*
X149971000Y-92987880D01*
X150113857Y-93035500D01*
X150209095Y-93130738D01*
X150256714Y-93225976D01*
X150304333Y-93416452D01*
X150304333Y-93559309D01*
X150256714Y-93749785D01*
X150209095Y-93845023D01*
X150113857Y-93940261D01*
X149971000Y-93987880D01*
X149732904Y-93987880D01*
X147209095Y-95511928D02*
X147971000Y-95511928D01*
X147590047Y-95892880D02*
X147590047Y-95130976D01*
X148971000Y-95892880D02*
X148399571Y-95892880D01*
X148685285Y-95892880D02*
X148685285Y-94892880D01*
X148590047Y-95035738D01*
X148494809Y-95130976D01*
X148399571Y-95178595D01*
X149351952Y-94988119D02*
X149399571Y-94940500D01*
X149494809Y-94892880D01*
X149732904Y-94892880D01*
X149828142Y-94940500D01*
X149875761Y-94988119D01*
X149923380Y-95083357D01*
X149923380Y-95178595D01*
X149875761Y-95321452D01*
X149304333Y-95892880D01*
X149923380Y-95892880D01*
X150209095Y-94892880D02*
X150542428Y-95892880D01*
X150875761Y-94892880D01*
D11*
X104640761Y-112260071D02*
X104974095Y-112260071D01*
X105116952Y-112783880D02*
X104640761Y-112783880D01*
X104640761Y-111783880D01*
X105116952Y-111783880D01*
X105497904Y-112736261D02*
X105640761Y-112783880D01*
X105878857Y-112783880D01*
X105974095Y-112736261D01*
X106021714Y-112688642D01*
X106069333Y-112593404D01*
X106069333Y-112498166D01*
X106021714Y-112402928D01*
X105974095Y-112355309D01*
X105878857Y-112307690D01*
X105688380Y-112260071D01*
X105593142Y-112212452D01*
X105545523Y-112164833D01*
X105497904Y-112069595D01*
X105497904Y-111974357D01*
X105545523Y-111879119D01*
X105593142Y-111831500D01*
X105688380Y-111783880D01*
X105926476Y-111783880D01*
X106069333Y-111831500D01*
X106497904Y-112783880D02*
X106497904Y-111783880D01*
X106878857Y-111783880D01*
X106974095Y-111831500D01*
X107021714Y-111879119D01*
X107069333Y-111974357D01*
X107069333Y-112117214D01*
X107021714Y-112212452D01*
X106974095Y-112260071D01*
X106878857Y-112307690D01*
X106497904Y-112307690D01*
X107402666Y-111783880D02*
X108021714Y-111783880D01*
X107688380Y-112164833D01*
X107831238Y-112164833D01*
X107926476Y-112212452D01*
X107974095Y-112260071D01*
X108021714Y-112355309D01*
X108021714Y-112593404D01*
X107974095Y-112688642D01*
X107926476Y-112736261D01*
X107831238Y-112783880D01*
X107545523Y-112783880D01*
X107450285Y-112736261D01*
X107402666Y-112688642D01*
X108402666Y-111879119D02*
X108450285Y-111831500D01*
X108545523Y-111783880D01*
X108783619Y-111783880D01*
X108878857Y-111831500D01*
X108926476Y-111879119D01*
X108974095Y-111974357D01*
X108974095Y-112069595D01*
X108926476Y-112212452D01*
X108355047Y-112783880D01*
X108974095Y-112783880D01*
X109402666Y-112402928D02*
X110164571Y-112402928D01*
X110640761Y-112783880D02*
X110640761Y-111783880D01*
X110878857Y-111783880D01*
X111021714Y-111831500D01*
X111116952Y-111926738D01*
X111164571Y-112021976D01*
X111212190Y-112212452D01*
X111212190Y-112355309D01*
X111164571Y-112545785D01*
X111116952Y-112641023D01*
X111021714Y-112736261D01*
X110878857Y-112783880D01*
X110640761Y-112783880D01*
X112021714Y-112736261D02*
X111926476Y-112783880D01*
X111736000Y-112783880D01*
X111640761Y-112736261D01*
X111593142Y-112641023D01*
X111593142Y-112260071D01*
X111640761Y-112164833D01*
X111736000Y-112117214D01*
X111926476Y-112117214D01*
X112021714Y-112164833D01*
X112069333Y-112260071D01*
X112069333Y-112355309D01*
X111593142Y-112450547D01*
X112402666Y-112117214D02*
X112640761Y-112783880D01*
X112878857Y-112117214D01*
X113259809Y-112783880D02*
X113259809Y-111783880D01*
X113831238Y-112783880D02*
X113402666Y-112212452D01*
X113831238Y-111783880D02*
X113259809Y-112355309D01*
X114259809Y-112783880D02*
X114259809Y-112117214D01*
X114259809Y-111783880D02*
X114212190Y-111831500D01*
X114259809Y-111879119D01*
X114307428Y-111831500D01*
X114259809Y-111783880D01*
X114259809Y-111879119D01*
X114593142Y-112117214D02*
X114974095Y-112117214D01*
X114736000Y-111783880D02*
X114736000Y-112641023D01*
X114783619Y-112736261D01*
X114878857Y-112783880D01*
X114974095Y-112783880D01*
X115878857Y-112688642D02*
X115831238Y-112736261D01*
X115688380Y-112783880D01*
X115593142Y-112783880D01*
X115450285Y-112736261D01*
X115355047Y-112641023D01*
X115307428Y-112545785D01*
X115259809Y-112355309D01*
X115259809Y-112212452D01*
X115307428Y-112021976D01*
X115355047Y-111926738D01*
X115450285Y-111831500D01*
X115593142Y-111783880D01*
X115688380Y-111783880D01*
X115831238Y-111831500D01*
X115878857Y-111879119D01*
X90385119Y-95947095D02*
X91385119Y-95947095D01*
X90670833Y-96280428D01*
X91385119Y-96613761D01*
X90385119Y-96613761D01*
X90385119Y-97089952D02*
X91051785Y-97089952D01*
X91385119Y-97089952D02*
X91337500Y-97042333D01*
X91289880Y-97089952D01*
X91337500Y-97137571D01*
X91385119Y-97089952D01*
X91289880Y-97089952D01*
X90432738Y-97994714D02*
X90385119Y-97899476D01*
X90385119Y-97709000D01*
X90432738Y-97613761D01*
X90480357Y-97566142D01*
X90575595Y-97518523D01*
X90861309Y-97518523D01*
X90956547Y-97566142D01*
X91004166Y-97613761D01*
X91051785Y-97709000D01*
X91051785Y-97899476D01*
X91004166Y-97994714D01*
X90385119Y-98423285D02*
X91051785Y-98423285D01*
X90861309Y-98423285D02*
X90956547Y-98470904D01*
X91004166Y-98518523D01*
X91051785Y-98613761D01*
X91051785Y-98709000D01*
X90385119Y-99185190D02*
X90432738Y-99089952D01*
X90480357Y-99042333D01*
X90575595Y-98994714D01*
X90861309Y-98994714D01*
X90956547Y-99042333D01*
X91004166Y-99089952D01*
X91051785Y-99185190D01*
X91051785Y-99328047D01*
X91004166Y-99423285D01*
X90956547Y-99470904D01*
X90861309Y-99518523D01*
X90575595Y-99518523D01*
X90480357Y-99470904D01*
X90432738Y-99423285D01*
X90385119Y-99328047D01*
X90385119Y-99185190D01*
X91051785Y-99804238D02*
X91051785Y-100185190D01*
X90385119Y-99947095D02*
X91242261Y-99947095D01*
X91337500Y-99994714D01*
X91385119Y-100089952D01*
X91385119Y-100185190D01*
X90385119Y-100661380D02*
X90432738Y-100566142D01*
X90527976Y-100518523D01*
X91385119Y-100518523D01*
X91051785Y-101470904D02*
X90385119Y-101470904D01*
X91051785Y-101042333D02*
X90527976Y-101042333D01*
X90432738Y-101089952D01*
X90385119Y-101185190D01*
X90385119Y-101328047D01*
X90432738Y-101423285D01*
X90480357Y-101470904D01*
X90385119Y-101947095D02*
X91051785Y-101947095D01*
X91385119Y-101947095D02*
X91337500Y-101899476D01*
X91289880Y-101947095D01*
X91337500Y-101994714D01*
X91385119Y-101947095D01*
X91289880Y-101947095D01*
X90385119Y-102851857D02*
X91385119Y-102851857D01*
X90432738Y-102851857D02*
X90385119Y-102756619D01*
X90385119Y-102566142D01*
X90432738Y-102470904D01*
X90480357Y-102423285D01*
X90575595Y-102375666D01*
X90861309Y-102375666D01*
X90956547Y-102423285D01*
X91004166Y-102470904D01*
X91051785Y-102566142D01*
X91051785Y-102756619D01*
X91004166Y-102851857D01*
X90385119Y-103328047D02*
X91051785Y-103328047D01*
X91385119Y-103328047D02*
X91337500Y-103280428D01*
X91289880Y-103328047D01*
X91337500Y-103375666D01*
X91385119Y-103328047D01*
X91289880Y-103328047D01*
X90432738Y-104232809D02*
X90385119Y-104137571D01*
X90385119Y-103947095D01*
X90432738Y-103851857D01*
X90480357Y-103804238D01*
X90575595Y-103756619D01*
X90861309Y-103756619D01*
X90956547Y-103804238D01*
X91004166Y-103851857D01*
X91051785Y-103947095D01*
X91051785Y-104137571D01*
X91004166Y-104232809D01*
X90432738Y-104613761D02*
X90385119Y-104709000D01*
X90385119Y-104899476D01*
X90432738Y-104994714D01*
X90527976Y-105042333D01*
X90575595Y-105042333D01*
X90670833Y-104994714D01*
X90718452Y-104899476D01*
X90718452Y-104756619D01*
X90766071Y-104661380D01*
X90861309Y-104613761D01*
X90908928Y-104613761D01*
X91004166Y-104661380D01*
X91051785Y-104756619D01*
X91051785Y-104899476D01*
X91004166Y-104994714D01*
X90480357Y-106804238D02*
X90432738Y-106756619D01*
X90385119Y-106613761D01*
X90385119Y-106518523D01*
X90432738Y-106375666D01*
X90527976Y-106280428D01*
X90623214Y-106232809D01*
X90813690Y-106185190D01*
X90956547Y-106185190D01*
X91147023Y-106232809D01*
X91242261Y-106280428D01*
X91337500Y-106375666D01*
X91385119Y-106518523D01*
X91385119Y-106613761D01*
X91337500Y-106756619D01*
X91289880Y-106804238D01*
X90385119Y-107375666D02*
X90432738Y-107280428D01*
X90480357Y-107232809D01*
X90575595Y-107185190D01*
X90861309Y-107185190D01*
X90956547Y-107232809D01*
X91004166Y-107280428D01*
X91051785Y-107375666D01*
X91051785Y-107518523D01*
X91004166Y-107613761D01*
X90956547Y-107661380D01*
X90861309Y-107709000D01*
X90575595Y-107709000D01*
X90480357Y-107661380D01*
X90432738Y-107613761D01*
X90385119Y-107518523D01*
X90385119Y-107375666D01*
X91051785Y-108137571D02*
X90385119Y-108137571D01*
X90956547Y-108137571D02*
X91004166Y-108185190D01*
X91051785Y-108280428D01*
X91051785Y-108423285D01*
X91004166Y-108518523D01*
X90908928Y-108566142D01*
X90385119Y-108566142D01*
X91051785Y-108899476D02*
X91051785Y-109280428D01*
X91385119Y-109042333D02*
X90527976Y-109042333D01*
X90432738Y-109089952D01*
X90385119Y-109185190D01*
X90385119Y-109280428D01*
X90385119Y-109613761D02*
X91051785Y-109613761D01*
X90861309Y-109613761D02*
X90956547Y-109661380D01*
X91004166Y-109709000D01*
X91051785Y-109804238D01*
X91051785Y-109899476D01*
X90385119Y-110375666D02*
X90432738Y-110280428D01*
X90480357Y-110232809D01*
X90575595Y-110185190D01*
X90861309Y-110185190D01*
X90956547Y-110232809D01*
X91004166Y-110280428D01*
X91051785Y-110375666D01*
X91051785Y-110518523D01*
X91004166Y-110613761D01*
X90956547Y-110661380D01*
X90861309Y-110709000D01*
X90575595Y-110709000D01*
X90480357Y-110661380D01*
X90432738Y-110613761D01*
X90385119Y-110518523D01*
X90385119Y-110375666D01*
X90385119Y-111280428D02*
X90432738Y-111185190D01*
X90527976Y-111137571D01*
X91385119Y-111137571D01*
X90432738Y-112375666D02*
X90385119Y-112518523D01*
X90385119Y-112756619D01*
X90432738Y-112851857D01*
X90480357Y-112899476D01*
X90575595Y-112947095D01*
X90670833Y-112947095D01*
X90766071Y-112899476D01*
X90813690Y-112851857D01*
X90861309Y-112756619D01*
X90908928Y-112566142D01*
X90956547Y-112470904D01*
X91004166Y-112423285D01*
X91099404Y-112375666D01*
X91194642Y-112375666D01*
X91289880Y-112423285D01*
X91337500Y-112470904D01*
X91385119Y-112566142D01*
X91385119Y-112804238D01*
X91337500Y-112947095D01*
X91051785Y-113280428D02*
X90385119Y-113518523D01*
X91051785Y-113756619D02*
X90385119Y-113518523D01*
X90147023Y-113423285D01*
X90099404Y-113375666D01*
X90051785Y-113280428D01*
X90432738Y-114089952D02*
X90385119Y-114185190D01*
X90385119Y-114375666D01*
X90432738Y-114470904D01*
X90527976Y-114518523D01*
X90575595Y-114518523D01*
X90670833Y-114470904D01*
X90718452Y-114375666D01*
X90718452Y-114232809D01*
X90766071Y-114137571D01*
X90861309Y-114089952D01*
X90908928Y-114089952D01*
X91004166Y-114137571D01*
X91051785Y-114232809D01*
X91051785Y-114375666D01*
X91004166Y-114470904D01*
X91051785Y-114804238D02*
X91051785Y-115185190D01*
X91385119Y-114947095D02*
X90527976Y-114947095D01*
X90432738Y-114994714D01*
X90385119Y-115089952D01*
X90385119Y-115185190D01*
X90432738Y-115899476D02*
X90385119Y-115804238D01*
X90385119Y-115613761D01*
X90432738Y-115518523D01*
X90527976Y-115470904D01*
X90908928Y-115470904D01*
X91004166Y-115518523D01*
X91051785Y-115613761D01*
X91051785Y-115804238D01*
X91004166Y-115899476D01*
X90908928Y-115947095D01*
X90813690Y-115947095D01*
X90718452Y-115470904D01*
X90385119Y-116375666D02*
X91051785Y-116375666D01*
X90956547Y-116375666D02*
X91004166Y-116423285D01*
X91051785Y-116518523D01*
X91051785Y-116661380D01*
X91004166Y-116756619D01*
X90908928Y-116804238D01*
X90385119Y-116804238D01*
X90908928Y-116804238D02*
X91004166Y-116851857D01*
X91051785Y-116947095D01*
X91051785Y-117089952D01*
X91004166Y-117185190D01*
X90908928Y-117232809D01*
X90385119Y-117232809D01*
X91051785Y-118375666D02*
X90385119Y-118613761D01*
X91051785Y-118851857D01*
X90385119Y-119756619D02*
X90385119Y-119185190D01*
X90385119Y-119470904D02*
X91385119Y-119470904D01*
X91242261Y-119375666D01*
X91147023Y-119280428D01*
X91099404Y-119185190D01*
X90480357Y-120185190D02*
X90432738Y-120232809D01*
X90385119Y-120185190D01*
X90432738Y-120137571D01*
X90480357Y-120185190D01*
X90385119Y-120185190D01*
X91289880Y-120613761D02*
X91337500Y-120661380D01*
X91385119Y-120756619D01*
X91385119Y-120994714D01*
X91337500Y-121089952D01*
X91289880Y-121137571D01*
X91194642Y-121185190D01*
X91099404Y-121185190D01*
X90956547Y-121137571D01*
X90385119Y-120566142D01*
X90385119Y-121185190D01*
X88860357Y-96518523D02*
X88812738Y-96470904D01*
X88765119Y-96328047D01*
X88765119Y-96232809D01*
X88812738Y-96089952D01*
X88907976Y-95994714D01*
X89003214Y-95947095D01*
X89193690Y-95899476D01*
X89336547Y-95899476D01*
X89527023Y-95947095D01*
X89622261Y-95994714D01*
X89717500Y-96089952D01*
X89765119Y-96232809D01*
X89765119Y-96328047D01*
X89717500Y-96470904D01*
X89669880Y-96518523D01*
X88765119Y-96947095D02*
X89431785Y-96947095D01*
X89241309Y-96947095D02*
X89336547Y-96994714D01*
X89384166Y-97042333D01*
X89431785Y-97137571D01*
X89431785Y-97232809D01*
X88765119Y-97994714D02*
X89288928Y-97994714D01*
X89384166Y-97947095D01*
X89431785Y-97851857D01*
X89431785Y-97661380D01*
X89384166Y-97566142D01*
X88812738Y-97994714D02*
X88765119Y-97899476D01*
X88765119Y-97661380D01*
X88812738Y-97566142D01*
X88907976Y-97518523D01*
X89003214Y-97518523D01*
X89098452Y-97566142D01*
X89146071Y-97661380D01*
X89146071Y-97899476D01*
X89193690Y-97994714D01*
X88765119Y-98470904D02*
X89431785Y-98470904D01*
X89765119Y-98470904D02*
X89717500Y-98423285D01*
X89669880Y-98470904D01*
X89717500Y-98518523D01*
X89765119Y-98470904D01*
X89669880Y-98470904D01*
X89431785Y-99375666D02*
X88622261Y-99375666D01*
X88527023Y-99328047D01*
X88479404Y-99280428D01*
X88431785Y-99185190D01*
X88431785Y-99042333D01*
X88479404Y-98947095D01*
X88812738Y-99375666D02*
X88765119Y-99280428D01*
X88765119Y-99089952D01*
X88812738Y-98994714D01*
X88860357Y-98947095D01*
X88955595Y-98899476D01*
X89241309Y-98899476D01*
X89336547Y-98947095D01*
X89384166Y-98994714D01*
X89431785Y-99089952D01*
X89431785Y-99280428D01*
X89384166Y-99375666D01*
X89288928Y-100947095D02*
X89288928Y-100613761D01*
X88765119Y-100613761D02*
X89765119Y-100613761D01*
X89765119Y-101089952D01*
X88860357Y-101470904D02*
X88812738Y-101518523D01*
X88765119Y-101470904D01*
X88812738Y-101423285D01*
X88860357Y-101470904D01*
X88765119Y-101470904D01*
X89765119Y-102613761D02*
X88765119Y-102851857D01*
X89479404Y-103042333D01*
X88765119Y-103232809D01*
X89765119Y-103470904D01*
X88765119Y-104280428D02*
X89288928Y-104280428D01*
X89384166Y-104232809D01*
X89431785Y-104137571D01*
X89431785Y-103947095D01*
X89384166Y-103851857D01*
X88812738Y-104280428D02*
X88765119Y-104185190D01*
X88765119Y-103947095D01*
X88812738Y-103851857D01*
X88907976Y-103804238D01*
X89003214Y-103804238D01*
X89098452Y-103851857D01*
X89146071Y-103947095D01*
X89146071Y-104185190D01*
X89193690Y-104280428D01*
X89431785Y-104613761D02*
X89431785Y-104994714D01*
X89765119Y-104756619D02*
X88907976Y-104756619D01*
X88812738Y-104804238D01*
X88765119Y-104899476D01*
X88765119Y-104994714D01*
X88812738Y-105280428D02*
X88765119Y-105375666D01*
X88765119Y-105566142D01*
X88812738Y-105661380D01*
X88907976Y-105709000D01*
X88955595Y-105709000D01*
X89050833Y-105661380D01*
X89098452Y-105566142D01*
X89098452Y-105423285D01*
X89146071Y-105328047D01*
X89241309Y-105280428D01*
X89288928Y-105280428D01*
X89384166Y-105328047D01*
X89431785Y-105423285D01*
X89431785Y-105566142D01*
X89384166Y-105661380D01*
X88765119Y-106280428D02*
X88812738Y-106185190D01*
X88860357Y-106137571D01*
X88955595Y-106089952D01*
X89241309Y-106089952D01*
X89336547Y-106137571D01*
X89384166Y-106185190D01*
X89431785Y-106280428D01*
X89431785Y-106423285D01*
X89384166Y-106518523D01*
X89336547Y-106566142D01*
X89241309Y-106613761D01*
X88955595Y-106613761D01*
X88860357Y-106566142D01*
X88812738Y-106518523D01*
X88765119Y-106423285D01*
X88765119Y-106280428D01*
X89431785Y-107042333D02*
X88765119Y-107042333D01*
X89336547Y-107042333D02*
X89384166Y-107089952D01*
X89431785Y-107185190D01*
X89431785Y-107328047D01*
X89384166Y-107423285D01*
X89288928Y-107470904D01*
X88765119Y-107470904D01*
X88812738Y-107994714D02*
X88765119Y-107994714D01*
X88669880Y-107947095D01*
X88622261Y-107899476D01*
X89669880Y-109137571D02*
X89717500Y-109185190D01*
X89765119Y-109280428D01*
X89765119Y-109518523D01*
X89717500Y-109613761D01*
X89669880Y-109661380D01*
X89574642Y-109709000D01*
X89479404Y-109709000D01*
X89336547Y-109661380D01*
X88765119Y-109089952D01*
X88765119Y-109709000D01*
X89765119Y-110328047D02*
X89765119Y-110423285D01*
X89717500Y-110518523D01*
X89669880Y-110566142D01*
X89574642Y-110613761D01*
X89384166Y-110661380D01*
X89146071Y-110661380D01*
X88955595Y-110613761D01*
X88860357Y-110566142D01*
X88812738Y-110518523D01*
X88765119Y-110423285D01*
X88765119Y-110328047D01*
X88812738Y-110232809D01*
X88860357Y-110185190D01*
X88955595Y-110137571D01*
X89146071Y-110089952D01*
X89384166Y-110089952D01*
X89574642Y-110137571D01*
X89669880Y-110185190D01*
X89717500Y-110232809D01*
X89765119Y-110328047D01*
X89669880Y-111042333D02*
X89717500Y-111089952D01*
X89765119Y-111185190D01*
X89765119Y-111423285D01*
X89717500Y-111518523D01*
X89669880Y-111566142D01*
X89574642Y-111613761D01*
X89479404Y-111613761D01*
X89336547Y-111566142D01*
X88765119Y-110994714D01*
X88765119Y-111613761D01*
X89765119Y-112232809D02*
X89765119Y-112328047D01*
X89717500Y-112423285D01*
X89669880Y-112470904D01*
X89574642Y-112518523D01*
X89384166Y-112566142D01*
X89146071Y-112566142D01*
X88955595Y-112518523D01*
X88860357Y-112470904D01*
X88812738Y-112423285D01*
X88765119Y-112328047D01*
X88765119Y-112232809D01*
X88812738Y-112137571D01*
X88860357Y-112089952D01*
X88955595Y-112042333D01*
X89146071Y-111994714D01*
X89384166Y-111994714D01*
X89574642Y-112042333D01*
X89669880Y-112089952D01*
X89717500Y-112137571D01*
X89765119Y-112232809D01*
X87192738Y-96375666D02*
X87145119Y-96280428D01*
X87145119Y-96089952D01*
X87192738Y-95994714D01*
X87240357Y-95947095D01*
X87335595Y-95899476D01*
X87621309Y-95899476D01*
X87716547Y-95947095D01*
X87764166Y-95994714D01*
X87811785Y-96089952D01*
X87811785Y-96280428D01*
X87764166Y-96375666D01*
X87145119Y-96804238D02*
X87811785Y-96804238D01*
X87621309Y-96804238D02*
X87716547Y-96851857D01*
X87764166Y-96899476D01*
X87811785Y-96994714D01*
X87811785Y-97089952D01*
X87145119Y-97851857D02*
X87668928Y-97851857D01*
X87764166Y-97804238D01*
X87811785Y-97709000D01*
X87811785Y-97518523D01*
X87764166Y-97423285D01*
X87192738Y-97851857D02*
X87145119Y-97756619D01*
X87145119Y-97518523D01*
X87192738Y-97423285D01*
X87287976Y-97375666D01*
X87383214Y-97375666D01*
X87478452Y-97423285D01*
X87526071Y-97518523D01*
X87526071Y-97756619D01*
X87573690Y-97851857D01*
X87145119Y-98328047D02*
X87811785Y-98328047D01*
X88145119Y-98328047D02*
X88097500Y-98280428D01*
X88049880Y-98328047D01*
X88097500Y-98375666D01*
X88145119Y-98328047D01*
X88049880Y-98328047D01*
X87811785Y-99232809D02*
X87002261Y-99232809D01*
X86907023Y-99185190D01*
X86859404Y-99137571D01*
X86811785Y-99042333D01*
X86811785Y-98899476D01*
X86859404Y-98804238D01*
X87192738Y-99232809D02*
X87145119Y-99137571D01*
X87145119Y-98947095D01*
X87192738Y-98851857D01*
X87240357Y-98804238D01*
X87335595Y-98756619D01*
X87621309Y-98756619D01*
X87716547Y-98804238D01*
X87764166Y-98851857D01*
X87811785Y-98947095D01*
X87811785Y-99137571D01*
X87764166Y-99232809D01*
X87240357Y-99709000D02*
X87192738Y-99756619D01*
X87145119Y-99709000D01*
X87192738Y-99661380D01*
X87240357Y-99709000D01*
X87145119Y-99709000D01*
X87811785Y-100089952D02*
X87145119Y-100280428D01*
X87621309Y-100470904D01*
X87145119Y-100661380D01*
X87811785Y-100851857D01*
X87145119Y-101661380D02*
X87668928Y-101661380D01*
X87764166Y-101613761D01*
X87811785Y-101518523D01*
X87811785Y-101328047D01*
X87764166Y-101232809D01*
X87192738Y-101661380D02*
X87145119Y-101566142D01*
X87145119Y-101328047D01*
X87192738Y-101232809D01*
X87287976Y-101185190D01*
X87383214Y-101185190D01*
X87478452Y-101232809D01*
X87526071Y-101328047D01*
X87526071Y-101566142D01*
X87573690Y-101661380D01*
X87811785Y-101994714D02*
X87811785Y-102375666D01*
X88145119Y-102137571D02*
X87287976Y-102137571D01*
X87192738Y-102185190D01*
X87145119Y-102280428D01*
X87145119Y-102375666D01*
X87192738Y-102661380D02*
X87145119Y-102756619D01*
X87145119Y-102947095D01*
X87192738Y-103042333D01*
X87287976Y-103089952D01*
X87335595Y-103089952D01*
X87430833Y-103042333D01*
X87478452Y-102947095D01*
X87478452Y-102804238D01*
X87526071Y-102709000D01*
X87621309Y-102661380D01*
X87668928Y-102661380D01*
X87764166Y-102709000D01*
X87811785Y-102804238D01*
X87811785Y-102947095D01*
X87764166Y-103042333D01*
X87145119Y-103661380D02*
X87192738Y-103566142D01*
X87240357Y-103518523D01*
X87335595Y-103470904D01*
X87621309Y-103470904D01*
X87716547Y-103518523D01*
X87764166Y-103566142D01*
X87811785Y-103661380D01*
X87811785Y-103804238D01*
X87764166Y-103899476D01*
X87716547Y-103947095D01*
X87621309Y-103994714D01*
X87335595Y-103994714D01*
X87240357Y-103947095D01*
X87192738Y-103899476D01*
X87145119Y-103804238D01*
X87145119Y-103661380D01*
X87811785Y-104423285D02*
X87145119Y-104423285D01*
X87716547Y-104423285D02*
X87764166Y-104470904D01*
X87811785Y-104566142D01*
X87811785Y-104709000D01*
X87764166Y-104804238D01*
X87668928Y-104851857D01*
X87145119Y-104851857D01*
X87621309Y-105947095D02*
X87668928Y-105899476D01*
X87716547Y-105804238D01*
X87716547Y-105709000D01*
X87668928Y-105613761D01*
X87621309Y-105566142D01*
X87526071Y-105518523D01*
X87430833Y-105518523D01*
X87335595Y-105566142D01*
X87287976Y-105613761D01*
X87240357Y-105709000D01*
X87240357Y-105804238D01*
X87287976Y-105899476D01*
X87335595Y-105947095D01*
X87716547Y-105947095D02*
X87335595Y-105947095D01*
X87287976Y-105994714D01*
X87287976Y-106042333D01*
X87335595Y-106137571D01*
X87430833Y-106185190D01*
X87668928Y-106185190D01*
X87811785Y-106089952D01*
X87907023Y-105947095D01*
X87954642Y-105756619D01*
X87907023Y-105566142D01*
X87811785Y-105423285D01*
X87668928Y-105328047D01*
X87478452Y-105280428D01*
X87287976Y-105328047D01*
X87145119Y-105423285D01*
X87049880Y-105566142D01*
X87002261Y-105756619D01*
X87049880Y-105947095D01*
X87145119Y-106089952D01*
X87192738Y-107042333D02*
X87145119Y-106947095D01*
X87145119Y-106756619D01*
X87192738Y-106661380D01*
X87240357Y-106613761D01*
X87335595Y-106566142D01*
X87621309Y-106566142D01*
X87716547Y-106613761D01*
X87764166Y-106661380D01*
X87811785Y-106756619D01*
X87811785Y-106947095D01*
X87764166Y-107042333D01*
X87145119Y-107899476D02*
X87668928Y-107899476D01*
X87764166Y-107851857D01*
X87811785Y-107756619D01*
X87811785Y-107566142D01*
X87764166Y-107470904D01*
X87192738Y-107899476D02*
X87145119Y-107804238D01*
X87145119Y-107566142D01*
X87192738Y-107470904D01*
X87287976Y-107423285D01*
X87383214Y-107423285D01*
X87478452Y-107470904D01*
X87526071Y-107566142D01*
X87526071Y-107804238D01*
X87573690Y-107899476D01*
X87192738Y-108328047D02*
X87145119Y-108423285D01*
X87145119Y-108613761D01*
X87192738Y-108709000D01*
X87287976Y-108756619D01*
X87335595Y-108756619D01*
X87430833Y-108709000D01*
X87478452Y-108613761D01*
X87478452Y-108470904D01*
X87526071Y-108375666D01*
X87621309Y-108328047D01*
X87668928Y-108328047D01*
X87764166Y-108375666D01*
X87811785Y-108470904D01*
X87811785Y-108613761D01*
X87764166Y-108709000D01*
X87192738Y-109566142D02*
X87145119Y-109470904D01*
X87145119Y-109280428D01*
X87192738Y-109185190D01*
X87287976Y-109137571D01*
X87668928Y-109137571D01*
X87764166Y-109185190D01*
X87811785Y-109280428D01*
X87811785Y-109470904D01*
X87764166Y-109566142D01*
X87668928Y-109613761D01*
X87573690Y-109613761D01*
X87478452Y-109137571D01*
X87240357Y-110042333D02*
X87192738Y-110089952D01*
X87145119Y-110042333D01*
X87192738Y-109994714D01*
X87240357Y-110042333D01*
X87145119Y-110042333D01*
X87192738Y-110899476D02*
X87145119Y-110804238D01*
X87145119Y-110613761D01*
X87192738Y-110518523D01*
X87287976Y-110470904D01*
X87668928Y-110470904D01*
X87764166Y-110518523D01*
X87811785Y-110613761D01*
X87811785Y-110804238D01*
X87764166Y-110899476D01*
X87668928Y-110947095D01*
X87573690Y-110947095D01*
X87478452Y-110470904D01*
X87145119Y-111804238D02*
X88145119Y-111804238D01*
X87192738Y-111804238D02*
X87145119Y-111709000D01*
X87145119Y-111518523D01*
X87192738Y-111423285D01*
X87240357Y-111375666D01*
X87335595Y-111328047D01*
X87621309Y-111328047D01*
X87716547Y-111375666D01*
X87764166Y-111423285D01*
X87811785Y-111518523D01*
X87811785Y-111709000D01*
X87764166Y-111804238D01*
X87811785Y-112709000D02*
X87145119Y-112709000D01*
X87811785Y-112280428D02*
X87287976Y-112280428D01*
X87192738Y-112328047D01*
X87145119Y-112423285D01*
X87145119Y-112566142D01*
X87192738Y-112661380D01*
X87240357Y-112709000D01*
X143129095Y-134056500D02*
X143033857Y-134008880D01*
X142891000Y-134008880D01*
X142748142Y-134056500D01*
X142652904Y-134151738D01*
X142605285Y-134246976D01*
X142557666Y-134437452D01*
X142557666Y-134580309D01*
X142605285Y-134770785D01*
X142652904Y-134866023D01*
X142748142Y-134961261D01*
X142891000Y-135008880D01*
X142986238Y-135008880D01*
X143129095Y-134961261D01*
X143176714Y-134913642D01*
X143176714Y-134580309D01*
X142986238Y-134580309D01*
X143605285Y-135008880D02*
X143605285Y-134008880D01*
X144176714Y-135008880D01*
X144176714Y-134008880D01*
X144652904Y-135008880D02*
X144652904Y-134008880D01*
X144891000Y-134008880D01*
X145033857Y-134056500D01*
X145129095Y-134151738D01*
X145176714Y-134246976D01*
X145224333Y-134437452D01*
X145224333Y-134580309D01*
X145176714Y-134770785D01*
X145129095Y-134866023D01*
X145033857Y-134961261D01*
X144891000Y-135008880D01*
X144652904Y-135008880D01*
X140025523Y-135008880D02*
X140025523Y-134008880D01*
X140406476Y-134008880D01*
X140501714Y-134056500D01*
X140549333Y-134104119D01*
X140596952Y-134199357D01*
X140596952Y-134342214D01*
X140549333Y-134437452D01*
X140501714Y-134485071D01*
X140406476Y-134532690D01*
X140025523Y-134532690D01*
X140882666Y-134008880D02*
X141216000Y-135008880D01*
X141549333Y-134008880D01*
X137390285Y-134961261D02*
X137533142Y-135008880D01*
X137771238Y-135008880D01*
X137866476Y-134961261D01*
X137914095Y-134913642D01*
X137961714Y-134818404D01*
X137961714Y-134723166D01*
X137914095Y-134627928D01*
X137866476Y-134580309D01*
X137771238Y-134532690D01*
X137580761Y-134485071D01*
X137485523Y-134437452D01*
X137437904Y-134389833D01*
X137390285Y-134294595D01*
X137390285Y-134199357D01*
X137437904Y-134104119D01*
X137485523Y-134056500D01*
X137580761Y-134008880D01*
X137818857Y-134008880D01*
X137961714Y-134056500D01*
X138390285Y-135008880D02*
X138390285Y-134008880D01*
X138771238Y-134008880D01*
X138866476Y-134056500D01*
X138914095Y-134104119D01*
X138961714Y-134199357D01*
X138961714Y-134342214D01*
X138914095Y-134437452D01*
X138866476Y-134485071D01*
X138771238Y-134532690D01*
X138390285Y-134532690D01*
X133810523Y-134104119D02*
X133858142Y-134056500D01*
X133953380Y-134008880D01*
X134191476Y-134008880D01*
X134286714Y-134056500D01*
X134334333Y-134104119D01*
X134381952Y-134199357D01*
X134381952Y-134294595D01*
X134334333Y-134437452D01*
X133762904Y-135008880D01*
X134381952Y-135008880D01*
X135239095Y-134342214D02*
X135239095Y-135008880D01*
X135001000Y-133961261D02*
X134762904Y-134675547D01*
X135381952Y-134675547D01*
X135620047Y-134008880D02*
X135953380Y-135008880D01*
X136286714Y-134008880D01*
X135183619Y-92273595D02*
X135659809Y-91940261D01*
X135183619Y-91702166D02*
X136183619Y-91702166D01*
X136183619Y-92083119D01*
X136136000Y-92178357D01*
X136088380Y-92225976D01*
X135993142Y-92273595D01*
X135850285Y-92273595D01*
X135755047Y-92225976D01*
X135707428Y-92178357D01*
X135659809Y-92083119D01*
X135659809Y-91702166D01*
X135564571Y-92702166D02*
X135564571Y-93464071D01*
X136183619Y-93845023D02*
X136183619Y-94511690D01*
X135183619Y-94083119D01*
X135755047Y-95035500D02*
X135802666Y-94940261D01*
X135850285Y-94892642D01*
X135945523Y-94845023D01*
X135993142Y-94845023D01*
X136088380Y-94892642D01*
X136136000Y-94940261D01*
X136183619Y-95035500D01*
X136183619Y-95225976D01*
X136136000Y-95321214D01*
X136088380Y-95368833D01*
X135993142Y-95416452D01*
X135945523Y-95416452D01*
X135850285Y-95368833D01*
X135802666Y-95321214D01*
X135755047Y-95225976D01*
X135755047Y-95035500D01*
X135707428Y-94940261D01*
X135659809Y-94892642D01*
X135564571Y-94845023D01*
X135374095Y-94845023D01*
X135278857Y-94892642D01*
X135231238Y-94940261D01*
X135183619Y-95035500D01*
X135183619Y-95225976D01*
X135231238Y-95321214D01*
X135278857Y-95368833D01*
X135374095Y-95416452D01*
X135564571Y-95416452D01*
X135659809Y-95368833D01*
X135707428Y-95321214D01*
X135755047Y-95225976D01*
X141057380Y-90550976D02*
X141057380Y-91027166D01*
X141533571Y-91074785D01*
X141485952Y-91027166D01*
X141438333Y-90931928D01*
X141438333Y-90693833D01*
X141485952Y-90598595D01*
X141533571Y-90550976D01*
X141628809Y-90503357D01*
X141866904Y-90503357D01*
X141962142Y-90550976D01*
X142009761Y-90598595D01*
X142057380Y-90693833D01*
X142057380Y-90931928D01*
X142009761Y-91027166D01*
X141962142Y-91074785D01*
X141057380Y-90217642D02*
X142057380Y-89884309D01*
X141057380Y-89550976D01*
X141105000Y-94170404D02*
X141057380Y-94265642D01*
X141057380Y-94408500D01*
X141105000Y-94551357D01*
X141200238Y-94646595D01*
X141295476Y-94694214D01*
X141485952Y-94741833D01*
X141628809Y-94741833D01*
X141819285Y-94694214D01*
X141914523Y-94646595D01*
X142009761Y-94551357D01*
X142057380Y-94408500D01*
X142057380Y-94313261D01*
X142009761Y-94170404D01*
X141962142Y-94122785D01*
X141628809Y-94122785D01*
X141628809Y-94313261D01*
X142057380Y-93694214D02*
X141057380Y-93694214D01*
X142057380Y-93122785D01*
X141057380Y-93122785D01*
X142057380Y-92646595D02*
X141057380Y-92646595D01*
X141057380Y-92408500D01*
X141105000Y-92265642D01*
X141200238Y-92170404D01*
X141295476Y-92122785D01*
X141485952Y-92075166D01*
X141628809Y-92075166D01*
X141819285Y-92122785D01*
X141914523Y-92170404D01*
X142009761Y-92265642D01*
X142057380Y-92408500D01*
X142057380Y-92646595D01*
X142057380Y-97329547D02*
X142057380Y-97900976D01*
X142057380Y-97615261D02*
X141057380Y-97615261D01*
X141200238Y-97710500D01*
X141295476Y-97805738D01*
X141343095Y-97900976D01*
X141152619Y-96948595D02*
X141105000Y-96900976D01*
X141057380Y-96805738D01*
X141057380Y-96567642D01*
X141105000Y-96472404D01*
X141152619Y-96424785D01*
X141247857Y-96377166D01*
X141343095Y-96377166D01*
X141485952Y-96424785D01*
X142057380Y-96996214D01*
X142057380Y-96377166D01*
X141057380Y-96091452D02*
X142057380Y-95758119D01*
X141057380Y-95424785D01*
X135509095Y-108593000D02*
X135413857Y-108545380D01*
X135271000Y-108545380D01*
X135128142Y-108593000D01*
X135032904Y-108688238D01*
X134985285Y-108783476D01*
X134937666Y-108973952D01*
X134937666Y-109116809D01*
X134985285Y-109307285D01*
X135032904Y-109402523D01*
X135128142Y-109497761D01*
X135271000Y-109545380D01*
X135366238Y-109545380D01*
X135509095Y-109497761D01*
X135556714Y-109450142D01*
X135556714Y-109116809D01*
X135366238Y-109116809D01*
X135985285Y-109545380D02*
X135985285Y-108545380D01*
X136556714Y-109545380D01*
X136556714Y-108545380D01*
X137032904Y-109545380D02*
X137032904Y-108545380D01*
X137271000Y-108545380D01*
X137413857Y-108593000D01*
X137509095Y-108688238D01*
X137556714Y-108783476D01*
X137604333Y-108973952D01*
X137604333Y-109116809D01*
X137556714Y-109307285D01*
X137509095Y-109402523D01*
X137413857Y-109497761D01*
X137271000Y-109545380D01*
X137032904Y-109545380D01*
X139144452Y-109481880D02*
X138573023Y-109481880D01*
X138858738Y-109481880D02*
X138858738Y-108481880D01*
X138763500Y-108624738D01*
X138668261Y-108719976D01*
X138573023Y-108767595D01*
X139525404Y-108577119D02*
X139573023Y-108529500D01*
X139668261Y-108481880D01*
X139906357Y-108481880D01*
X140001595Y-108529500D01*
X140049214Y-108577119D01*
X140096833Y-108672357D01*
X140096833Y-108767595D01*
X140049214Y-108910452D01*
X139477785Y-109481880D01*
X140096833Y-109481880D01*
X140382547Y-108481880D02*
X140715880Y-109481880D01*
X141049214Y-108481880D01*
X131334023Y-108640619D02*
X131381642Y-108593000D01*
X131476880Y-108545380D01*
X131714976Y-108545380D01*
X131810214Y-108593000D01*
X131857833Y-108640619D01*
X131905452Y-108735857D01*
X131905452Y-108831095D01*
X131857833Y-108973952D01*
X131286404Y-109545380D01*
X131905452Y-109545380D01*
X132762595Y-108878714D02*
X132762595Y-109545380D01*
X132524500Y-108497761D02*
X132286404Y-109212047D01*
X132905452Y-109212047D01*
X133143547Y-108545380D02*
X133476880Y-109545380D01*
X133810214Y-108545380D01*
X140025523Y-125737880D02*
X140025523Y-124737880D01*
X140406476Y-124737880D01*
X140501714Y-124785500D01*
X140549333Y-124833119D01*
X140596952Y-124928357D01*
X140596952Y-125071214D01*
X140549333Y-125166452D01*
X140501714Y-125214071D01*
X140406476Y-125261690D01*
X140025523Y-125261690D01*
X140882666Y-124737880D02*
X141216000Y-125737880D01*
X141549333Y-124737880D01*
X137390285Y-125690261D02*
X137533142Y-125737880D01*
X137771238Y-125737880D01*
X137866476Y-125690261D01*
X137914095Y-125642642D01*
X137961714Y-125547404D01*
X137961714Y-125452166D01*
X137914095Y-125356928D01*
X137866476Y-125309309D01*
X137771238Y-125261690D01*
X137580761Y-125214071D01*
X137485523Y-125166452D01*
X137437904Y-125118833D01*
X137390285Y-125023595D01*
X137390285Y-124928357D01*
X137437904Y-124833119D01*
X137485523Y-124785500D01*
X137580761Y-124737880D01*
X137818857Y-124737880D01*
X137961714Y-124785500D01*
X138390285Y-125737880D02*
X138390285Y-124737880D01*
X138771238Y-124737880D01*
X138866476Y-124785500D01*
X138914095Y-124833119D01*
X138961714Y-124928357D01*
X138961714Y-125071214D01*
X138914095Y-125166452D01*
X138866476Y-125214071D01*
X138771238Y-125261690D01*
X138390285Y-125261690D01*
X143129095Y-124785500D02*
X143033857Y-124737880D01*
X142891000Y-124737880D01*
X142748142Y-124785500D01*
X142652904Y-124880738D01*
X142605285Y-124975976D01*
X142557666Y-125166452D01*
X142557666Y-125309309D01*
X142605285Y-125499785D01*
X142652904Y-125595023D01*
X142748142Y-125690261D01*
X142891000Y-125737880D01*
X142986238Y-125737880D01*
X143129095Y-125690261D01*
X143176714Y-125642642D01*
X143176714Y-125309309D01*
X142986238Y-125309309D01*
X143605285Y-125737880D02*
X143605285Y-124737880D01*
X144176714Y-125737880D01*
X144176714Y-124737880D01*
X144652904Y-125737880D02*
X144652904Y-124737880D01*
X144891000Y-124737880D01*
X145033857Y-124785500D01*
X145129095Y-124880738D01*
X145176714Y-124975976D01*
X145224333Y-125166452D01*
X145224333Y-125309309D01*
X145176714Y-125499785D01*
X145129095Y-125595023D01*
X145033857Y-125690261D01*
X144891000Y-125737880D01*
X144652904Y-125737880D01*
X133810523Y-124833119D02*
X133858142Y-124785500D01*
X133953380Y-124737880D01*
X134191476Y-124737880D01*
X134286714Y-124785500D01*
X134334333Y-124833119D01*
X134381952Y-124928357D01*
X134381952Y-125023595D01*
X134334333Y-125166452D01*
X133762904Y-125737880D01*
X134381952Y-125737880D01*
X135239095Y-125071214D02*
X135239095Y-125737880D01*
X135001000Y-124690261D02*
X134762904Y-125404547D01*
X135381952Y-125404547D01*
X135620047Y-124737880D02*
X135953380Y-125737880D01*
X136286714Y-124737880D01*
D12*
X132794428Y-120161928D02*
X132865857Y-120090500D01*
X133008714Y-120019071D01*
X133365857Y-120019071D01*
X133508714Y-120090500D01*
X133580142Y-120161928D01*
X133651571Y-120304785D01*
X133651571Y-120447642D01*
X133580142Y-120661928D01*
X132723000Y-121519071D01*
X133651571Y-121519071D01*
X133397571Y-130409071D02*
X132540428Y-130409071D01*
X132969000Y-130409071D02*
X132969000Y-128909071D01*
X132826142Y-129123357D01*
X132683285Y-129266214D01*
X132540428Y-129337642D01*
D10*
X151320571Y-143299642D02*
X152463428Y-143299642D01*
X151447571Y-133520642D02*
X152590428Y-133520642D01*
X148590071Y-143236142D02*
X149732928Y-143236142D01*
X149161500Y-143807571D02*
X149161500Y-142664714D01*
X148717071Y-133520642D02*
X149859928Y-133520642D01*
X149288500Y-134092071D02*
X149288500Y-132949214D01*
X155618571Y-132369214D02*
X154118571Y-132369214D01*
X154118571Y-131797785D01*
X154190000Y-131654928D01*
X154261428Y-131583500D01*
X154404285Y-131512071D01*
X154618571Y-131512071D01*
X154761428Y-131583500D01*
X154832857Y-131654928D01*
X154904285Y-131797785D01*
X154904285Y-132369214D01*
X154618571Y-130226357D02*
X155618571Y-130226357D01*
X154618571Y-130869214D02*
X155404285Y-130869214D01*
X155547142Y-130797785D01*
X155618571Y-130654928D01*
X155618571Y-130440642D01*
X155547142Y-130297785D01*
X155475714Y-130226357D01*
X155618571Y-129512071D02*
X154618571Y-129512071D01*
X154761428Y-129512071D02*
X154690000Y-129440642D01*
X154618571Y-129297785D01*
X154618571Y-129083500D01*
X154690000Y-128940642D01*
X154832857Y-128869214D01*
X155618571Y-128869214D01*
X154832857Y-128869214D02*
X154690000Y-128797785D01*
X154618571Y-128654928D01*
X154618571Y-128440642D01*
X154690000Y-128297785D01*
X154832857Y-128226357D01*
X155618571Y-128226357D01*
X154618571Y-127512071D02*
X156118571Y-127512071D01*
X154690000Y-127512071D02*
X154618571Y-127369214D01*
X154618571Y-127083500D01*
X154690000Y-126940642D01*
X154761428Y-126869214D01*
X154904285Y-126797785D01*
X155332857Y-126797785D01*
X155475714Y-126869214D01*
X155547142Y-126940642D01*
X155618571Y-127083500D01*
X155618571Y-127369214D01*
X155547142Y-127512071D01*
X154261428Y-125083500D02*
X154190000Y-125012071D01*
X154118571Y-124869214D01*
X154118571Y-124512071D01*
X154190000Y-124369214D01*
X154261428Y-124297785D01*
X154404285Y-124226357D01*
X154547142Y-124226357D01*
X154761428Y-124297785D01*
X155618571Y-125154928D01*
X155618571Y-124226357D01*
X155555071Y-142719714D02*
X154055071Y-142719714D01*
X154055071Y-142148285D01*
X154126500Y-142005428D01*
X154197928Y-141934000D01*
X154340785Y-141862571D01*
X154555071Y-141862571D01*
X154697928Y-141934000D01*
X154769357Y-142005428D01*
X154840785Y-142148285D01*
X154840785Y-142719714D01*
X154555071Y-140576857D02*
X155555071Y-140576857D01*
X154555071Y-141219714D02*
X155340785Y-141219714D01*
X155483642Y-141148285D01*
X155555071Y-141005428D01*
X155555071Y-140791142D01*
X155483642Y-140648285D01*
X155412214Y-140576857D01*
X155555071Y-139862571D02*
X154555071Y-139862571D01*
X154697928Y-139862571D02*
X154626500Y-139791142D01*
X154555071Y-139648285D01*
X154555071Y-139434000D01*
X154626500Y-139291142D01*
X154769357Y-139219714D01*
X155555071Y-139219714D01*
X154769357Y-139219714D02*
X154626500Y-139148285D01*
X154555071Y-139005428D01*
X154555071Y-138791142D01*
X154626500Y-138648285D01*
X154769357Y-138576857D01*
X155555071Y-138576857D01*
X154555071Y-137862571D02*
X156055071Y-137862571D01*
X154626500Y-137862571D02*
X154555071Y-137719714D01*
X154555071Y-137434000D01*
X154626500Y-137291142D01*
X154697928Y-137219714D01*
X154840785Y-137148285D01*
X155269357Y-137148285D01*
X155412214Y-137219714D01*
X155483642Y-137291142D01*
X155555071Y-137434000D01*
X155555071Y-137719714D01*
X155483642Y-137862571D01*
X155555071Y-134576857D02*
X155555071Y-135434000D01*
X155555071Y-135005428D02*
X154055071Y-135005428D01*
X154269357Y-135148285D01*
X154412214Y-135291142D01*
X154483642Y-135434000D01*
X174368000Y-98810071D02*
X174868000Y-100310071D01*
X175368000Y-98810071D01*
X176510857Y-100310071D02*
X176510857Y-99524357D01*
X176439428Y-99381500D01*
X176296571Y-99310071D01*
X176010857Y-99310071D01*
X175868000Y-99381500D01*
X176510857Y-100238642D02*
X176368000Y-100310071D01*
X176010857Y-100310071D01*
X175868000Y-100238642D01*
X175796571Y-100095785D01*
X175796571Y-99952928D01*
X175868000Y-99810071D01*
X176010857Y-99738642D01*
X176368000Y-99738642D01*
X176510857Y-99667214D01*
X177439428Y-100310071D02*
X177296571Y-100238642D01*
X177225142Y-100095785D01*
X177225142Y-98810071D01*
X177868000Y-99310071D02*
X178225142Y-100310071D01*
X178582285Y-99310071D01*
X179725142Y-100238642D02*
X179582285Y-100310071D01*
X179296571Y-100310071D01*
X179153714Y-100238642D01*
X179082285Y-100095785D01*
X179082285Y-99524357D01*
X179153714Y-99381500D01*
X179296571Y-99310071D01*
X179582285Y-99310071D01*
X179725142Y-99381500D01*
X179796571Y-99524357D01*
X179796571Y-99667214D01*
X179082285Y-99810071D01*
X180368000Y-100238642D02*
X180510857Y-100310071D01*
X180796571Y-100310071D01*
X180939428Y-100238642D01*
X181010857Y-100095785D01*
X181010857Y-100024357D01*
X180939428Y-99881500D01*
X180796571Y-99810071D01*
X180582285Y-99810071D01*
X180439428Y-99738642D01*
X180368000Y-99595785D01*
X180368000Y-99524357D01*
X180439428Y-99381500D01*
X180582285Y-99310071D01*
X180796571Y-99310071D01*
X180939428Y-99381500D01*
X182725142Y-98952928D02*
X182796571Y-98881500D01*
X182939428Y-98810071D01*
X183296571Y-98810071D01*
X183439428Y-98881500D01*
X183510857Y-98952928D01*
X183582285Y-99095785D01*
X183582285Y-99238642D01*
X183510857Y-99452928D01*
X182653714Y-100310071D01*
X183582285Y-100310071D01*
X184939428Y-98810071D02*
X184225142Y-98810071D01*
X184153714Y-99524357D01*
X184225142Y-99452928D01*
X184368000Y-99381500D01*
X184725142Y-99381500D01*
X184868000Y-99452928D01*
X184939428Y-99524357D01*
X185010857Y-99667214D01*
X185010857Y-100024357D01*
X184939428Y-100167214D01*
X184868000Y-100238642D01*
X184725142Y-100310071D01*
X184368000Y-100310071D01*
X184225142Y-100238642D01*
X184153714Y-100167214D01*
X185653714Y-99738642D02*
X186796571Y-99738642D01*
X187368000Y-98810071D02*
X188296571Y-98810071D01*
X187796571Y-99381500D01*
X188010857Y-99381500D01*
X188153714Y-99452928D01*
X188225142Y-99524357D01*
X188296571Y-99667214D01*
X188296571Y-100024357D01*
X188225142Y-100167214D01*
X188153714Y-100238642D01*
X188010857Y-100310071D01*
X187582285Y-100310071D01*
X187439428Y-100238642D01*
X187368000Y-100167214D01*
X188868000Y-98952928D02*
X188939428Y-98881500D01*
X189082285Y-98810071D01*
X189439428Y-98810071D01*
X189582285Y-98881500D01*
X189653714Y-98952928D01*
X189725142Y-99095785D01*
X189725142Y-99238642D01*
X189653714Y-99452928D01*
X188796571Y-100310071D01*
X189725142Y-100310071D01*
X174368000Y-113415071D02*
X174868000Y-114915071D01*
X175368000Y-113415071D01*
X176510857Y-114915071D02*
X176510857Y-114129357D01*
X176439428Y-113986500D01*
X176296571Y-113915071D01*
X176010857Y-113915071D01*
X175868000Y-113986500D01*
X176510857Y-114843642D02*
X176368000Y-114915071D01*
X176010857Y-114915071D01*
X175868000Y-114843642D01*
X175796571Y-114700785D01*
X175796571Y-114557928D01*
X175868000Y-114415071D01*
X176010857Y-114343642D01*
X176368000Y-114343642D01*
X176510857Y-114272214D01*
X177439428Y-114915071D02*
X177296571Y-114843642D01*
X177225142Y-114700785D01*
X177225142Y-113415071D01*
X177868000Y-113915071D02*
X178225142Y-114915071D01*
X178582285Y-113915071D01*
X179725142Y-114843642D02*
X179582285Y-114915071D01*
X179296571Y-114915071D01*
X179153714Y-114843642D01*
X179082285Y-114700785D01*
X179082285Y-114129357D01*
X179153714Y-113986500D01*
X179296571Y-113915071D01*
X179582285Y-113915071D01*
X179725142Y-113986500D01*
X179796571Y-114129357D01*
X179796571Y-114272214D01*
X179082285Y-114415071D01*
X180368000Y-114843642D02*
X180510857Y-114915071D01*
X180796571Y-114915071D01*
X180939428Y-114843642D01*
X181010857Y-114700785D01*
X181010857Y-114629357D01*
X180939428Y-114486500D01*
X180796571Y-114415071D01*
X180582285Y-114415071D01*
X180439428Y-114343642D01*
X180368000Y-114200785D01*
X180368000Y-114129357D01*
X180439428Y-113986500D01*
X180582285Y-113915071D01*
X180796571Y-113915071D01*
X180939428Y-113986500D01*
X183582285Y-114915071D02*
X182725142Y-114915071D01*
X183153714Y-114915071D02*
X183153714Y-113415071D01*
X183010857Y-113629357D01*
X182868000Y-113772214D01*
X182725142Y-113843642D01*
X184082285Y-113415071D02*
X185082285Y-113415071D01*
X184439428Y-114915071D01*
X185653714Y-114343642D02*
X186796571Y-114343642D01*
X187439428Y-113557928D02*
X187510857Y-113486500D01*
X187653714Y-113415071D01*
X188010857Y-113415071D01*
X188153714Y-113486500D01*
X188225142Y-113557928D01*
X188296571Y-113700785D01*
X188296571Y-113843642D01*
X188225142Y-114057928D01*
X187368000Y-114915071D01*
X188296571Y-114915071D01*
X189582285Y-113915071D02*
X189582285Y-114915071D01*
X189225142Y-113343642D02*
X188868000Y-114415071D01*
X189796571Y-114415071D01*
X174447285Y-128020071D02*
X174947285Y-129520071D01*
X175447285Y-128020071D01*
X176590142Y-129520071D02*
X176590142Y-128734357D01*
X176518714Y-128591500D01*
X176375857Y-128520071D01*
X176090142Y-128520071D01*
X175947285Y-128591500D01*
X176590142Y-129448642D02*
X176447285Y-129520071D01*
X176090142Y-129520071D01*
X175947285Y-129448642D01*
X175875857Y-129305785D01*
X175875857Y-129162928D01*
X175947285Y-129020071D01*
X176090142Y-128948642D01*
X176447285Y-128948642D01*
X176590142Y-128877214D01*
X177518714Y-129520071D02*
X177375857Y-129448642D01*
X177304428Y-129305785D01*
X177304428Y-128020071D01*
X177947285Y-128520071D02*
X178304428Y-129520071D01*
X178661571Y-128520071D01*
X179804428Y-129448642D02*
X179661571Y-129520071D01*
X179375857Y-129520071D01*
X179233000Y-129448642D01*
X179161571Y-129305785D01*
X179161571Y-128734357D01*
X179233000Y-128591500D01*
X179375857Y-128520071D01*
X179661571Y-128520071D01*
X179804428Y-128591500D01*
X179875857Y-128734357D01*
X179875857Y-128877214D01*
X179161571Y-129020071D01*
X180447285Y-129448642D02*
X180590142Y-129520071D01*
X180875857Y-129520071D01*
X181018714Y-129448642D01*
X181090142Y-129305785D01*
X181090142Y-129234357D01*
X181018714Y-129091500D01*
X180875857Y-129020071D01*
X180661571Y-129020071D01*
X180518714Y-128948642D01*
X180447285Y-128805785D01*
X180447285Y-128734357D01*
X180518714Y-128591500D01*
X180661571Y-128520071D01*
X180875857Y-128520071D01*
X181018714Y-128591500D01*
X182947285Y-129520071D02*
X183233000Y-129520071D01*
X183375857Y-129448642D01*
X183447285Y-129377214D01*
X183590142Y-129162928D01*
X183661571Y-128877214D01*
X183661571Y-128305785D01*
X183590142Y-128162928D01*
X183518714Y-128091500D01*
X183375857Y-128020071D01*
X183090142Y-128020071D01*
X182947285Y-128091500D01*
X182875857Y-128162928D01*
X182804428Y-128305785D01*
X182804428Y-128662928D01*
X182875857Y-128805785D01*
X182947285Y-128877214D01*
X183090142Y-128948642D01*
X183375857Y-128948642D01*
X183518714Y-128877214D01*
X183590142Y-128805785D01*
X183661571Y-128662928D01*
X184304428Y-128948642D02*
X185447285Y-128948642D01*
X186947285Y-129520071D02*
X186090142Y-129520071D01*
X186518714Y-129520071D02*
X186518714Y-128020071D01*
X186375857Y-128234357D01*
X186233000Y-128377214D01*
X186090142Y-128448642D01*
X188233000Y-128020071D02*
X187947285Y-128020071D01*
X187804428Y-128091500D01*
X187733000Y-128162928D01*
X187590142Y-128377214D01*
X187518714Y-128662928D01*
X187518714Y-129234357D01*
X187590142Y-129377214D01*
X187661571Y-129448642D01*
X187804428Y-129520071D01*
X188090142Y-129520071D01*
X188233000Y-129448642D01*
X188304428Y-129377214D01*
X188375857Y-129234357D01*
X188375857Y-128877214D01*
X188304428Y-128734357D01*
X188233000Y-128662928D01*
X188090142Y-128591500D01*
X187804428Y-128591500D01*
X187661571Y-128662928D01*
X187590142Y-128734357D01*
X187518714Y-128877214D01*
X175161571Y-143260071D02*
X175661571Y-144760071D01*
X176161571Y-143260071D01*
X177304428Y-144760071D02*
X177304428Y-143974357D01*
X177233000Y-143831500D01*
X177090142Y-143760071D01*
X176804428Y-143760071D01*
X176661571Y-143831500D01*
X177304428Y-144688642D02*
X177161571Y-144760071D01*
X176804428Y-144760071D01*
X176661571Y-144688642D01*
X176590142Y-144545785D01*
X176590142Y-144402928D01*
X176661571Y-144260071D01*
X176804428Y-144188642D01*
X177161571Y-144188642D01*
X177304428Y-144117214D01*
X178233000Y-144760071D02*
X178090142Y-144688642D01*
X178018714Y-144545785D01*
X178018714Y-143260071D01*
X178661571Y-143760071D02*
X179018714Y-144760071D01*
X179375857Y-143760071D01*
X180518714Y-144688642D02*
X180375857Y-144760071D01*
X180090142Y-144760071D01*
X179947285Y-144688642D01*
X179875857Y-144545785D01*
X179875857Y-143974357D01*
X179947285Y-143831500D01*
X180090142Y-143760071D01*
X180375857Y-143760071D01*
X180518714Y-143831500D01*
X180590142Y-143974357D01*
X180590142Y-144117214D01*
X179875857Y-144260071D01*
X181161571Y-144688642D02*
X181304428Y-144760071D01*
X181590142Y-144760071D01*
X181733000Y-144688642D01*
X181804428Y-144545785D01*
X181804428Y-144474357D01*
X181733000Y-144331500D01*
X181590142Y-144260071D01*
X181375857Y-144260071D01*
X181233000Y-144188642D01*
X181161571Y-144045785D01*
X181161571Y-143974357D01*
X181233000Y-143831500D01*
X181375857Y-143760071D01*
X181590142Y-143760071D01*
X181733000Y-143831500D01*
X184375857Y-144760071D02*
X183518714Y-144760071D01*
X183947285Y-144760071D02*
X183947285Y-143260071D01*
X183804428Y-143474357D01*
X183661571Y-143617214D01*
X183518714Y-143688642D01*
X185018714Y-144188642D02*
X186161571Y-144188642D01*
X187090142Y-143902928D02*
X186947285Y-143831500D01*
X186875857Y-143760071D01*
X186804428Y-143617214D01*
X186804428Y-143545785D01*
X186875857Y-143402928D01*
X186947285Y-143331500D01*
X187090142Y-143260071D01*
X187375857Y-143260071D01*
X187518714Y-143331500D01*
X187590142Y-143402928D01*
X187661571Y-143545785D01*
X187661571Y-143617214D01*
X187590142Y-143760071D01*
X187518714Y-143831500D01*
X187375857Y-143902928D01*
X187090142Y-143902928D01*
X186947285Y-143974357D01*
X186875857Y-144045785D01*
X186804428Y-144188642D01*
X186804428Y-144474357D01*
X186875857Y-144617214D01*
X186947285Y-144688642D01*
X187090142Y-144760071D01*
X187375857Y-144760071D01*
X187518714Y-144688642D01*
X187590142Y-144617214D01*
X187661571Y-144474357D01*
X187661571Y-144188642D01*
X187590142Y-144045785D01*
X187518714Y-143974357D01*
X187375857Y-143902928D01*
D13*
X154971000Y-98633300D02*
X142971000Y-98633300D01*
X142971000Y-85633300D02*
X154971000Y-85633300D01*
X154971000Y-85633300D02*
X154971000Y-98633300D01*
X142971000Y-98633300D02*
X142971000Y-85633300D01*
D11*
X137033000Y-141982500D02*
X137033000Y-139322500D01*
X137033000Y-141982500D02*
X144713000Y-141982500D01*
X144713000Y-141982500D02*
X144713000Y-139322500D01*
X137033000Y-139322500D02*
X144713000Y-139322500D01*
X134433000Y-139322500D02*
X135763000Y-139322500D01*
X134433000Y-140652500D02*
X134433000Y-139322500D01*
X134433000Y-120840500D02*
X134433000Y-119510500D01*
X134433000Y-119510500D02*
X135763000Y-119510500D01*
X137033000Y-119510500D02*
X144713000Y-119510500D01*
X144713000Y-122170500D02*
X144713000Y-119510500D01*
X137033000Y-122170500D02*
X144713000Y-122170500D01*
X137033000Y-122170500D02*
X137033000Y-119510500D01*
D13*
X124363000Y-87061500D02*
X124363000Y-135061500D01*
X96363000Y-87061500D02*
X124363000Y-87061500D01*
X96363000Y-135061500D02*
X96363000Y-87061500D01*
X120363000Y-135061500D02*
X124363000Y-135061500D01*
X120363000Y-141561500D02*
X120363000Y-135061500D01*
X100363000Y-141561500D02*
X120363000Y-141561500D01*
X100363000Y-135061500D02*
X100363000Y-141561500D01*
X96363000Y-135061500D02*
X100363000Y-135061500D01*
D11*
X198374000Y-90106500D02*
G75*
G03X198374000Y-90106500I-2286000J0D01*
G01*
X92329000Y-90106500D02*
G75*
G03X92329000Y-90106500I-2286000J0D01*
G01*
X92329000Y-142811500D02*
G75*
G03X92329000Y-142811500I-2286000J0D01*
G01*
X198374000Y-142811500D02*
G75*
G03X198374000Y-142811500I-2286000J0D01*
G01*
X140284200Y-112509300D02*
G75*
G03X140284200Y-112509300I-2286000J0D01*
G01*
X192528000Y-142531500D02*
X171708000Y-142531500D01*
X171708000Y-142531500D02*
X171708000Y-132931500D01*
X171708000Y-132931500D02*
X192528000Y-132931500D01*
X192528000Y-132931500D02*
X192528000Y-142531500D01*
X192528000Y-127291500D02*
X171708000Y-127291500D01*
X171708000Y-127291500D02*
X171708000Y-117691500D01*
X171708000Y-117691500D02*
X192528000Y-117691500D01*
X192528000Y-117691500D02*
X192528000Y-127291500D01*
X192528000Y-112686500D02*
X171708000Y-112686500D01*
X171708000Y-112686500D02*
X171708000Y-103086500D01*
X171708000Y-103086500D02*
X192528000Y-103086500D01*
X192528000Y-103086500D02*
X192528000Y-112686500D01*
X192528000Y-98081500D02*
X171708000Y-98081500D01*
X171708000Y-98081500D02*
X171708000Y-88481500D01*
X171708000Y-88481500D02*
X192528000Y-88481500D01*
X192528000Y-88481500D02*
X192528000Y-98081500D01*
X152933400Y-137350500D02*
X147853400Y-137350500D01*
X152933400Y-141790500D02*
X147853400Y-141790500D01*
X147853400Y-135450500D02*
X152933400Y-135450500D01*
X147853400Y-135450500D02*
X147853400Y-141790500D01*
X152933400Y-135450500D02*
X152933400Y-141790500D01*
X152984200Y-127901700D02*
X147904200Y-127901700D01*
X152984200Y-132341700D02*
X147904200Y-132341700D01*
X147904200Y-126001700D02*
X152984200Y-126001700D01*
X147904200Y-126001700D02*
X147904200Y-132341700D01*
X152984200Y-126001700D02*
X152984200Y-132341700D01*
X137033000Y-130806500D02*
X137033000Y-128146500D01*
X137033000Y-130806500D02*
X144713000Y-130806500D01*
X144713000Y-130806500D02*
X144713000Y-128146500D01*
X137033000Y-128146500D02*
X144713000Y-128146500D01*
X134433000Y-128146500D02*
X135763000Y-128146500D01*
X134433000Y-129476500D02*
X134433000Y-128146500D01*
X129601500Y-114598267D02*
X129601500Y-114255733D01*
X130621500Y-114598267D02*
X130621500Y-114255733D01*
X133161500Y-114598267D02*
X133161500Y-114255733D01*
X132141500Y-114598267D02*
X132141500Y-114255733D01*
D13*
X159802600Y-132137100D02*
X159802600Y-132387100D01*
X167552600Y-132137100D02*
X167552600Y-132482100D01*
X167552600Y-144037100D02*
X167552600Y-143692100D01*
X159802600Y-144037100D02*
X159802600Y-143692100D01*
X159802600Y-132137100D02*
X167552600Y-132137100D01*
X159802600Y-144037100D02*
X167552600Y-144037100D01*
X159802600Y-132387100D02*
X157977600Y-132387100D01*
X159650200Y-102923100D02*
X157825200Y-102923100D01*
X159650200Y-114573100D02*
X167400200Y-114573100D01*
X159650200Y-102673100D02*
X167400200Y-102673100D01*
X159650200Y-114573100D02*
X159650200Y-114228100D01*
X167400200Y-114573100D02*
X167400200Y-114228100D01*
X167400200Y-102673100D02*
X167400200Y-103018100D01*
X159650200Y-102673100D02*
X159650200Y-102923100D01*
X159675600Y-88343500D02*
X157850600Y-88343500D01*
X159675600Y-99993500D02*
X167425600Y-99993500D01*
X159675600Y-88093500D02*
X167425600Y-88093500D01*
X159675600Y-99993500D02*
X159675600Y-99648500D01*
X167425600Y-99993500D02*
X167425600Y-99648500D01*
X167425600Y-88093500D02*
X167425600Y-88438500D01*
X159675600Y-88093500D02*
X159675600Y-88343500D01*
X159675600Y-116922500D02*
X159675600Y-117172500D01*
X167425600Y-116922500D02*
X167425600Y-117267500D01*
X167425600Y-128822500D02*
X167425600Y-128477500D01*
X159675600Y-128822500D02*
X159675600Y-128477500D01*
X159675600Y-116922500D02*
X167425600Y-116922500D01*
X159675600Y-128822500D02*
X167425600Y-128822500D01*
X159675600Y-117172500D02*
X157850600Y-117172500D01*
X141973000Y-108204000D02*
X141980500Y-108204000D01*
X156223000Y-108204000D02*
X156215500Y-108204000D01*
X156223000Y-114554000D02*
X156215500Y-114554000D01*
X141898000Y-115629000D02*
X141898000Y-108204000D01*
X156223000Y-114554000D02*
X156223000Y-108204000D01*
D11*
X131743000Y-99319500D02*
X131743000Y-87598500D01*
X140363000Y-99319500D02*
X140363000Y-87598500D01*
X131743000Y-99319500D02*
X140363000Y-99319500D01*
X131743000Y-87598500D02*
X140363000Y-87598500D01*
X139363000Y-99559500D02*
X140603000Y-99559500D01*
X140603000Y-99559500D02*
X140603000Y-98319500D01*
X140271500Y-108008500D02*
X140271500Y-101668500D01*
X132651500Y-108008500D02*
X132651500Y-101668500D01*
X132651500Y-106108500D02*
X140271500Y-106108500D01*
X140271500Y-108008500D02*
X132651500Y-108008500D01*
X132651500Y-101668500D02*
X140271500Y-101668500D01*
D13*
X145883380Y-141208023D02*
X146597666Y-141208023D01*
X146740523Y-141255642D01*
X146835761Y-141350880D01*
X146883380Y-141493738D01*
X146883380Y-141588976D01*
X146883380Y-140208023D02*
X146883380Y-140779452D01*
X146883380Y-140493738D02*
X145883380Y-140493738D01*
X146026238Y-140588976D01*
X146121476Y-140684214D01*
X146169095Y-140779452D01*
X146883380Y-139255642D02*
X146883380Y-139827071D01*
X146883380Y-139541357D02*
X145883380Y-139541357D01*
X146026238Y-139636595D01*
X146121476Y-139731833D01*
X146169095Y-139827071D01*
X145438880Y-121650023D02*
X146153166Y-121650023D01*
X146296023Y-121697642D01*
X146391261Y-121792880D01*
X146438880Y-121935738D01*
X146438880Y-122030976D01*
X146438880Y-120650023D02*
X146438880Y-121221452D01*
X146438880Y-120935738D02*
X145438880Y-120935738D01*
X145581738Y-121030976D01*
X145676976Y-121126214D01*
X145724595Y-121221452D01*
X145438880Y-120030976D02*
X145438880Y-119935738D01*
X145486500Y-119840500D01*
X145534119Y-119792880D01*
X145629357Y-119745261D01*
X145819833Y-119697642D01*
X146057928Y-119697642D01*
X146248404Y-119745261D01*
X146343642Y-119792880D01*
X146391261Y-119840500D01*
X146438880Y-119935738D01*
X146438880Y-120030976D01*
X146391261Y-120126214D01*
X146343642Y-120173833D01*
X146248404Y-120221452D01*
X146057928Y-120269071D01*
X145819833Y-120269071D01*
X145629357Y-120221452D01*
X145534119Y-120173833D01*
X145486500Y-120126214D01*
X145438880Y-120030976D01*
X110020142Y-136707214D02*
X109905857Y-136764357D01*
X109677285Y-136764357D01*
X109563000Y-136707214D01*
X109505857Y-136592928D01*
X109505857Y-136135785D01*
X109563000Y-136021500D01*
X109677285Y-135964357D01*
X109905857Y-135964357D01*
X110020142Y-136021500D01*
X110077285Y-136135785D01*
X110077285Y-136250071D01*
X109505857Y-136364357D01*
X111220142Y-136764357D02*
X110534428Y-136764357D01*
X110877285Y-136764357D02*
X110877285Y-135564357D01*
X110763000Y-135735785D01*
X110648714Y-135850071D01*
X110534428Y-135907214D01*
D11*
X127034428Y-134554357D02*
X127034428Y-134182928D01*
X127263000Y-134382928D01*
X127263000Y-134297214D01*
X127291571Y-134240071D01*
X127320142Y-134211500D01*
X127377285Y-134182928D01*
X127520142Y-134182928D01*
X127577285Y-134211500D01*
X127605857Y-134240071D01*
X127634428Y-134297214D01*
X127634428Y-134468642D01*
X127605857Y-134525785D01*
X127577285Y-134554357D01*
X127034428Y-134011500D02*
X127634428Y-133811500D01*
X127034428Y-133611500D01*
X127034428Y-133468642D02*
X127034428Y-133097214D01*
X127263000Y-133297214D01*
X127263000Y-133211500D01*
X127291571Y-133154357D01*
X127320142Y-133125785D01*
X127377285Y-133097214D01*
X127520142Y-133097214D01*
X127577285Y-133125785D01*
X127605857Y-133154357D01*
X127634428Y-133211500D01*
X127634428Y-133382928D01*
X127605857Y-133440071D01*
X127577285Y-133468642D01*
X127320142Y-131754357D02*
X127320142Y-131554357D01*
X127634428Y-131468642D02*
X127634428Y-131754357D01*
X127034428Y-131754357D01*
X127034428Y-131468642D01*
X127634428Y-131211500D02*
X127034428Y-131211500D01*
X127634428Y-130868642D01*
X127034428Y-130868642D01*
X127634428Y-129697214D02*
X127034428Y-129697214D01*
X127034428Y-129297214D02*
X127034428Y-129182928D01*
X127063000Y-129125785D01*
X127120142Y-129068642D01*
X127234428Y-129040071D01*
X127434428Y-129040071D01*
X127548714Y-129068642D01*
X127605857Y-129125785D01*
X127634428Y-129182928D01*
X127634428Y-129297214D01*
X127605857Y-129354357D01*
X127548714Y-129411500D01*
X127434428Y-129440071D01*
X127234428Y-129440071D01*
X127120142Y-129411500D01*
X127063000Y-129354357D01*
X127034428Y-129297214D01*
X127034428Y-128840071D02*
X127034428Y-128468642D01*
X127263000Y-128668642D01*
X127263000Y-128582928D01*
X127291571Y-128525785D01*
X127320142Y-128497214D01*
X127377285Y-128468642D01*
X127520142Y-128468642D01*
X127577285Y-128497214D01*
X127605857Y-128525785D01*
X127634428Y-128582928D01*
X127634428Y-128754357D01*
X127605857Y-128811500D01*
X127577285Y-128840071D01*
X127034428Y-127954357D02*
X127034428Y-128068642D01*
X127063000Y-128125785D01*
X127091571Y-128154357D01*
X127177285Y-128211500D01*
X127291571Y-128240071D01*
X127520142Y-128240071D01*
X127577285Y-128211500D01*
X127605857Y-128182928D01*
X127634428Y-128125785D01*
X127634428Y-128011500D01*
X127605857Y-127954357D01*
X127577285Y-127925785D01*
X127520142Y-127897214D01*
X127377285Y-127897214D01*
X127320142Y-127925785D01*
X127291571Y-127954357D01*
X127263000Y-128011500D01*
X127263000Y-128125785D01*
X127291571Y-128182928D01*
X127320142Y-128211500D01*
X127377285Y-128240071D01*
X127634428Y-127197214D02*
X127034428Y-127197214D01*
X127034428Y-126797214D02*
X127034428Y-126682928D01*
X127063000Y-126625785D01*
X127120142Y-126568642D01*
X127234428Y-126540071D01*
X127434428Y-126540071D01*
X127548714Y-126568642D01*
X127605857Y-126625785D01*
X127634428Y-126682928D01*
X127634428Y-126797214D01*
X127605857Y-126854357D01*
X127548714Y-126911500D01*
X127434428Y-126940071D01*
X127234428Y-126940071D01*
X127120142Y-126911500D01*
X127063000Y-126854357D01*
X127034428Y-126797214D01*
X127034428Y-126340071D02*
X127034428Y-125968642D01*
X127263000Y-126168642D01*
X127263000Y-126082928D01*
X127291571Y-126025785D01*
X127320142Y-125997214D01*
X127377285Y-125968642D01*
X127520142Y-125968642D01*
X127577285Y-125997214D01*
X127605857Y-126025785D01*
X127634428Y-126082928D01*
X127634428Y-126254357D01*
X127605857Y-126311500D01*
X127577285Y-126340071D01*
X127634428Y-125682928D02*
X127634428Y-125568642D01*
X127605857Y-125511500D01*
X127577285Y-125482928D01*
X127491571Y-125425785D01*
X127377285Y-125397214D01*
X127148714Y-125397214D01*
X127091571Y-125425785D01*
X127063000Y-125454357D01*
X127034428Y-125511500D01*
X127034428Y-125625785D01*
X127063000Y-125682928D01*
X127091571Y-125711500D01*
X127148714Y-125740071D01*
X127291571Y-125740071D01*
X127348714Y-125711500D01*
X127377285Y-125682928D01*
X127405857Y-125625785D01*
X127405857Y-125511500D01*
X127377285Y-125454357D01*
X127348714Y-125425785D01*
X127291571Y-125397214D01*
X127634428Y-124697214D02*
X127034428Y-124697214D01*
X127034428Y-124297214D02*
X127034428Y-124182928D01*
X127063000Y-124125785D01*
X127120142Y-124068642D01*
X127234428Y-124040071D01*
X127434428Y-124040071D01*
X127548714Y-124068642D01*
X127605857Y-124125785D01*
X127634428Y-124182928D01*
X127634428Y-124297214D01*
X127605857Y-124354357D01*
X127548714Y-124411500D01*
X127434428Y-124440071D01*
X127234428Y-124440071D01*
X127120142Y-124411500D01*
X127063000Y-124354357D01*
X127034428Y-124297214D01*
X127034428Y-123840071D02*
X127034428Y-123468642D01*
X127263000Y-123668642D01*
X127263000Y-123582928D01*
X127291571Y-123525785D01*
X127320142Y-123497214D01*
X127377285Y-123468642D01*
X127520142Y-123468642D01*
X127577285Y-123497214D01*
X127605857Y-123525785D01*
X127634428Y-123582928D01*
X127634428Y-123754357D01*
X127605857Y-123811500D01*
X127577285Y-123840071D01*
X127234428Y-122954357D02*
X127634428Y-122954357D01*
X127005857Y-123097214D02*
X127434428Y-123240071D01*
X127434428Y-122868642D01*
X127634428Y-122197214D02*
X127034428Y-122197214D01*
X127034428Y-121797214D02*
X127034428Y-121682928D01*
X127063000Y-121625785D01*
X127120142Y-121568642D01*
X127234428Y-121540071D01*
X127434428Y-121540071D01*
X127548714Y-121568642D01*
X127605857Y-121625785D01*
X127634428Y-121682928D01*
X127634428Y-121797214D01*
X127605857Y-121854357D01*
X127548714Y-121911500D01*
X127434428Y-121940071D01*
X127234428Y-121940071D01*
X127120142Y-121911500D01*
X127063000Y-121854357D01*
X127034428Y-121797214D01*
X127034428Y-121340071D02*
X127034428Y-120968642D01*
X127263000Y-121168642D01*
X127263000Y-121082928D01*
X127291571Y-121025785D01*
X127320142Y-120997214D01*
X127377285Y-120968642D01*
X127520142Y-120968642D01*
X127577285Y-120997214D01*
X127605857Y-121025785D01*
X127634428Y-121082928D01*
X127634428Y-121254357D01*
X127605857Y-121311500D01*
X127577285Y-121340071D01*
X127034428Y-120425785D02*
X127034428Y-120711500D01*
X127320142Y-120740071D01*
X127291571Y-120711500D01*
X127263000Y-120654357D01*
X127263000Y-120511500D01*
X127291571Y-120454357D01*
X127320142Y-120425785D01*
X127377285Y-120397214D01*
X127520142Y-120397214D01*
X127577285Y-120425785D01*
X127605857Y-120454357D01*
X127634428Y-120511500D01*
X127634428Y-120654357D01*
X127605857Y-120711500D01*
X127577285Y-120740071D01*
X127634428Y-119447214D02*
X127034428Y-119447214D01*
X127034428Y-119047214D02*
X127034428Y-118932928D01*
X127063000Y-118875785D01*
X127120142Y-118818642D01*
X127234428Y-118790071D01*
X127434428Y-118790071D01*
X127548714Y-118818642D01*
X127605857Y-118875785D01*
X127634428Y-118932928D01*
X127634428Y-119047214D01*
X127605857Y-119104357D01*
X127548714Y-119161500D01*
X127434428Y-119190071D01*
X127234428Y-119190071D01*
X127120142Y-119161500D01*
X127063000Y-119104357D01*
X127034428Y-119047214D01*
X127034428Y-118590071D02*
X127034428Y-118218642D01*
X127263000Y-118418642D01*
X127263000Y-118332928D01*
X127291571Y-118275785D01*
X127320142Y-118247214D01*
X127377285Y-118218642D01*
X127520142Y-118218642D01*
X127577285Y-118247214D01*
X127605857Y-118275785D01*
X127634428Y-118332928D01*
X127634428Y-118504357D01*
X127605857Y-118561500D01*
X127577285Y-118590071D01*
X127091571Y-117990071D02*
X127063000Y-117961500D01*
X127034428Y-117904357D01*
X127034428Y-117761500D01*
X127063000Y-117704357D01*
X127091571Y-117675785D01*
X127148714Y-117647214D01*
X127205857Y-117647214D01*
X127291571Y-117675785D01*
X127634428Y-118018642D01*
X127634428Y-117647214D01*
X127634428Y-116947214D02*
X127034428Y-116947214D01*
X127034428Y-116547214D02*
X127034428Y-116432928D01*
X127063000Y-116375785D01*
X127120142Y-116318642D01*
X127234428Y-116290071D01*
X127434428Y-116290071D01*
X127548714Y-116318642D01*
X127605857Y-116375785D01*
X127634428Y-116432928D01*
X127634428Y-116547214D01*
X127605857Y-116604357D01*
X127548714Y-116661500D01*
X127434428Y-116690071D01*
X127234428Y-116690071D01*
X127120142Y-116661500D01*
X127063000Y-116604357D01*
X127034428Y-116547214D01*
X127034428Y-116090071D02*
X127034428Y-115718642D01*
X127263000Y-115918642D01*
X127263000Y-115832928D01*
X127291571Y-115775785D01*
X127320142Y-115747214D01*
X127377285Y-115718642D01*
X127520142Y-115718642D01*
X127577285Y-115747214D01*
X127605857Y-115775785D01*
X127634428Y-115832928D01*
X127634428Y-116004357D01*
X127605857Y-116061500D01*
X127577285Y-116090071D01*
X127034428Y-115518642D02*
X127034428Y-115147214D01*
X127263000Y-115347214D01*
X127263000Y-115261500D01*
X127291571Y-115204357D01*
X127320142Y-115175785D01*
X127377285Y-115147214D01*
X127520142Y-115147214D01*
X127577285Y-115175785D01*
X127605857Y-115204357D01*
X127634428Y-115261500D01*
X127634428Y-115432928D01*
X127605857Y-115490071D01*
X127577285Y-115518642D01*
X127634428Y-114447214D02*
X127034428Y-114447214D01*
X127034428Y-114047214D02*
X127034428Y-113932928D01*
X127063000Y-113875785D01*
X127120142Y-113818642D01*
X127234428Y-113790071D01*
X127434428Y-113790071D01*
X127548714Y-113818642D01*
X127605857Y-113875785D01*
X127634428Y-113932928D01*
X127634428Y-114047214D01*
X127605857Y-114104357D01*
X127548714Y-114161500D01*
X127434428Y-114190071D01*
X127234428Y-114190071D01*
X127120142Y-114161500D01*
X127063000Y-114104357D01*
X127034428Y-114047214D01*
X127091571Y-113561500D02*
X127063000Y-113532928D01*
X127034428Y-113475785D01*
X127034428Y-113332928D01*
X127063000Y-113275785D01*
X127091571Y-113247214D01*
X127148714Y-113218642D01*
X127205857Y-113218642D01*
X127291571Y-113247214D01*
X127634428Y-113590071D01*
X127634428Y-113218642D01*
X127034428Y-112675785D02*
X127034428Y-112961500D01*
X127320142Y-112990071D01*
X127291571Y-112961500D01*
X127263000Y-112904357D01*
X127263000Y-112761500D01*
X127291571Y-112704357D01*
X127320142Y-112675785D01*
X127377285Y-112647214D01*
X127520142Y-112647214D01*
X127577285Y-112675785D01*
X127605857Y-112704357D01*
X127634428Y-112761500D01*
X127634428Y-112904357D01*
X127605857Y-112961500D01*
X127577285Y-112990071D01*
X127634428Y-111947214D02*
X127034428Y-111947214D01*
X127034428Y-111547214D02*
X127034428Y-111432928D01*
X127063000Y-111375785D01*
X127120142Y-111318642D01*
X127234428Y-111290071D01*
X127434428Y-111290071D01*
X127548714Y-111318642D01*
X127605857Y-111375785D01*
X127634428Y-111432928D01*
X127634428Y-111547214D01*
X127605857Y-111604357D01*
X127548714Y-111661500D01*
X127434428Y-111690071D01*
X127234428Y-111690071D01*
X127120142Y-111661500D01*
X127063000Y-111604357D01*
X127034428Y-111547214D01*
X127091571Y-111061500D02*
X127063000Y-111032928D01*
X127034428Y-110975785D01*
X127034428Y-110832928D01*
X127063000Y-110775785D01*
X127091571Y-110747214D01*
X127148714Y-110718642D01*
X127205857Y-110718642D01*
X127291571Y-110747214D01*
X127634428Y-111090071D01*
X127634428Y-110718642D01*
X127034428Y-110204357D02*
X127034428Y-110318642D01*
X127063000Y-110375785D01*
X127091571Y-110404357D01*
X127177285Y-110461500D01*
X127291571Y-110490071D01*
X127520142Y-110490071D01*
X127577285Y-110461500D01*
X127605857Y-110432928D01*
X127634428Y-110375785D01*
X127634428Y-110261500D01*
X127605857Y-110204357D01*
X127577285Y-110175785D01*
X127520142Y-110147214D01*
X127377285Y-110147214D01*
X127320142Y-110175785D01*
X127291571Y-110204357D01*
X127263000Y-110261500D01*
X127263000Y-110375785D01*
X127291571Y-110432928D01*
X127320142Y-110461500D01*
X127377285Y-110490071D01*
X127634428Y-109447214D02*
X127034428Y-109447214D01*
X127034428Y-109047214D02*
X127034428Y-108932928D01*
X127063000Y-108875785D01*
X127120142Y-108818642D01*
X127234428Y-108790071D01*
X127434428Y-108790071D01*
X127548714Y-108818642D01*
X127605857Y-108875785D01*
X127634428Y-108932928D01*
X127634428Y-109047214D01*
X127605857Y-109104357D01*
X127548714Y-109161500D01*
X127434428Y-109190071D01*
X127234428Y-109190071D01*
X127120142Y-109161500D01*
X127063000Y-109104357D01*
X127034428Y-109047214D01*
X127091571Y-108561500D02*
X127063000Y-108532928D01*
X127034428Y-108475785D01*
X127034428Y-108332928D01*
X127063000Y-108275785D01*
X127091571Y-108247214D01*
X127148714Y-108218642D01*
X127205857Y-108218642D01*
X127291571Y-108247214D01*
X127634428Y-108590071D01*
X127634428Y-108218642D01*
X127034428Y-108018642D02*
X127034428Y-107618642D01*
X127634428Y-107875785D01*
X127634428Y-106947214D02*
X127034428Y-106947214D01*
X127034428Y-106547214D02*
X127034428Y-106432928D01*
X127063000Y-106375785D01*
X127120142Y-106318642D01*
X127234428Y-106290071D01*
X127434428Y-106290071D01*
X127548714Y-106318642D01*
X127605857Y-106375785D01*
X127634428Y-106432928D01*
X127634428Y-106547214D01*
X127605857Y-106604357D01*
X127548714Y-106661500D01*
X127434428Y-106690071D01*
X127234428Y-106690071D01*
X127120142Y-106661500D01*
X127063000Y-106604357D01*
X127034428Y-106547214D01*
X127634428Y-105718642D02*
X127634428Y-106061500D01*
X127634428Y-105890071D02*
X127034428Y-105890071D01*
X127120142Y-105947214D01*
X127177285Y-106004357D01*
X127205857Y-106061500D01*
X127234428Y-105204357D02*
X127634428Y-105204357D01*
X127005857Y-105347214D02*
X127434428Y-105490071D01*
X127434428Y-105118642D01*
X127634428Y-104197214D02*
X127034428Y-104197214D01*
X127034428Y-103797214D02*
X127034428Y-103682928D01*
X127063000Y-103625785D01*
X127120142Y-103568642D01*
X127234428Y-103540071D01*
X127434428Y-103540071D01*
X127548714Y-103568642D01*
X127605857Y-103625785D01*
X127634428Y-103682928D01*
X127634428Y-103797214D01*
X127605857Y-103854357D01*
X127548714Y-103911500D01*
X127434428Y-103940071D01*
X127234428Y-103940071D01*
X127120142Y-103911500D01*
X127063000Y-103854357D01*
X127034428Y-103797214D01*
X127634428Y-102968642D02*
X127634428Y-103311500D01*
X127634428Y-103140071D02*
X127034428Y-103140071D01*
X127120142Y-103197214D01*
X127177285Y-103254357D01*
X127205857Y-103311500D01*
X127091571Y-102740071D02*
X127063000Y-102711500D01*
X127034428Y-102654357D01*
X127034428Y-102511500D01*
X127063000Y-102454357D01*
X127091571Y-102425785D01*
X127148714Y-102397214D01*
X127205857Y-102397214D01*
X127291571Y-102425785D01*
X127634428Y-102768642D01*
X127634428Y-102397214D01*
X127063000Y-101268642D02*
X127034428Y-101325785D01*
X127034428Y-101411500D01*
X127063000Y-101497214D01*
X127120142Y-101554357D01*
X127177285Y-101582928D01*
X127291571Y-101611500D01*
X127377285Y-101611500D01*
X127491571Y-101582928D01*
X127548714Y-101554357D01*
X127605857Y-101497214D01*
X127634428Y-101411500D01*
X127634428Y-101354357D01*
X127605857Y-101268642D01*
X127577285Y-101240071D01*
X127377285Y-101240071D01*
X127377285Y-101354357D01*
X127634428Y-100982928D02*
X127034428Y-100982928D01*
X127634428Y-100640071D01*
X127034428Y-100640071D01*
X127634428Y-100354357D02*
X127034428Y-100354357D01*
X127034428Y-100211500D01*
X127063000Y-100125785D01*
X127120142Y-100068642D01*
X127177285Y-100040071D01*
X127291571Y-100011500D01*
X127377285Y-100011500D01*
X127491571Y-100040071D01*
X127548714Y-100068642D01*
X127605857Y-100125785D01*
X127634428Y-100211500D01*
X127634428Y-100354357D01*
X127634428Y-99197214D02*
X127034428Y-99197214D01*
X127034428Y-98797214D02*
X127034428Y-98682928D01*
X127063000Y-98625785D01*
X127120142Y-98568642D01*
X127234428Y-98540071D01*
X127434428Y-98540071D01*
X127548714Y-98568642D01*
X127605857Y-98625785D01*
X127634428Y-98682928D01*
X127634428Y-98797214D01*
X127605857Y-98854357D01*
X127548714Y-98911500D01*
X127434428Y-98940071D01*
X127234428Y-98940071D01*
X127120142Y-98911500D01*
X127063000Y-98854357D01*
X127034428Y-98797214D01*
X127634428Y-97968642D02*
X127634428Y-98311500D01*
X127634428Y-98140071D02*
X127034428Y-98140071D01*
X127120142Y-98197214D01*
X127177285Y-98254357D01*
X127205857Y-98311500D01*
X127034428Y-97768642D02*
X127034428Y-97397214D01*
X127263000Y-97597214D01*
X127263000Y-97511500D01*
X127291571Y-97454357D01*
X127320142Y-97425785D01*
X127377285Y-97397214D01*
X127520142Y-97397214D01*
X127577285Y-97425785D01*
X127605857Y-97454357D01*
X127634428Y-97511500D01*
X127634428Y-97682928D01*
X127605857Y-97740071D01*
X127577285Y-97768642D01*
X127634428Y-96411500D02*
X127034428Y-96411500D01*
X127034428Y-96011500D02*
X127034428Y-95897214D01*
X127063000Y-95840071D01*
X127120142Y-95782928D01*
X127234428Y-95754357D01*
X127434428Y-95754357D01*
X127548714Y-95782928D01*
X127605857Y-95840071D01*
X127634428Y-95897214D01*
X127634428Y-96011500D01*
X127605857Y-96068642D01*
X127548714Y-96125785D01*
X127434428Y-96154357D01*
X127234428Y-96154357D01*
X127120142Y-96125785D01*
X127063000Y-96068642D01*
X127034428Y-96011500D01*
X127634428Y-95468642D02*
X127634428Y-95354357D01*
X127605857Y-95297214D01*
X127577285Y-95268642D01*
X127491571Y-95211500D01*
X127377285Y-95182928D01*
X127148714Y-95182928D01*
X127091571Y-95211500D01*
X127063000Y-95240071D01*
X127034428Y-95297214D01*
X127034428Y-95411500D01*
X127063000Y-95468642D01*
X127091571Y-95497214D01*
X127148714Y-95525785D01*
X127291571Y-95525785D01*
X127348714Y-95497214D01*
X127377285Y-95468642D01*
X127405857Y-95411500D01*
X127405857Y-95297214D01*
X127377285Y-95240071D01*
X127348714Y-95211500D01*
X127291571Y-95182928D01*
X127634428Y-94197214D02*
X127034428Y-94197214D01*
X127034428Y-93797214D02*
X127034428Y-93682928D01*
X127063000Y-93625785D01*
X127120142Y-93568642D01*
X127234428Y-93540071D01*
X127434428Y-93540071D01*
X127548714Y-93568642D01*
X127605857Y-93625785D01*
X127634428Y-93682928D01*
X127634428Y-93797214D01*
X127605857Y-93854357D01*
X127548714Y-93911500D01*
X127434428Y-93940071D01*
X127234428Y-93940071D01*
X127120142Y-93911500D01*
X127063000Y-93854357D01*
X127034428Y-93797214D01*
X127634428Y-92968642D02*
X127634428Y-93311500D01*
X127634428Y-93140071D02*
X127034428Y-93140071D01*
X127120142Y-93197214D01*
X127177285Y-93254357D01*
X127205857Y-93311500D01*
X127034428Y-92597214D02*
X127034428Y-92540071D01*
X127063000Y-92482928D01*
X127091571Y-92454357D01*
X127148714Y-92425785D01*
X127263000Y-92397214D01*
X127405857Y-92397214D01*
X127520142Y-92425785D01*
X127577285Y-92454357D01*
X127605857Y-92482928D01*
X127634428Y-92540071D01*
X127634428Y-92597214D01*
X127605857Y-92654357D01*
X127577285Y-92682928D01*
X127520142Y-92711500D01*
X127405857Y-92740071D01*
X127263000Y-92740071D01*
X127148714Y-92711500D01*
X127091571Y-92682928D01*
X127063000Y-92654357D01*
X127034428Y-92597214D01*
X127634428Y-91697214D02*
X127034428Y-91697214D01*
X127034428Y-91297214D02*
X127034428Y-91182928D01*
X127063000Y-91125785D01*
X127120142Y-91068642D01*
X127234428Y-91040071D01*
X127434428Y-91040071D01*
X127548714Y-91068642D01*
X127605857Y-91125785D01*
X127634428Y-91182928D01*
X127634428Y-91297214D01*
X127605857Y-91354357D01*
X127548714Y-91411500D01*
X127434428Y-91440071D01*
X127234428Y-91440071D01*
X127120142Y-91411500D01*
X127063000Y-91354357D01*
X127034428Y-91297214D01*
X127634428Y-90468642D02*
X127634428Y-90811500D01*
X127634428Y-90640071D02*
X127034428Y-90640071D01*
X127120142Y-90697214D01*
X127177285Y-90754357D01*
X127205857Y-90811500D01*
X127634428Y-89897214D02*
X127634428Y-90240071D01*
X127634428Y-90068642D02*
X127034428Y-90068642D01*
X127120142Y-90125785D01*
X127177285Y-90182928D01*
X127205857Y-90240071D01*
X127034428Y-88425785D02*
X127034428Y-88711500D01*
X127320142Y-88740071D01*
X127291571Y-88711500D01*
X127263000Y-88654357D01*
X127263000Y-88511500D01*
X127291571Y-88454357D01*
X127320142Y-88425785D01*
X127377285Y-88397214D01*
X127520142Y-88397214D01*
X127577285Y-88425785D01*
X127605857Y-88454357D01*
X127634428Y-88511500D01*
X127634428Y-88654357D01*
X127605857Y-88711500D01*
X127577285Y-88740071D01*
X127034428Y-88225785D02*
X127634428Y-88025785D01*
X127034428Y-87825785D01*
X93073571Y-87601500D02*
X93673571Y-87601500D01*
X93673571Y-88001500D02*
X93673571Y-88115785D01*
X93645000Y-88172928D01*
X93587857Y-88230071D01*
X93473571Y-88258642D01*
X93273571Y-88258642D01*
X93159285Y-88230071D01*
X93102142Y-88172928D01*
X93073571Y-88115785D01*
X93073571Y-88001500D01*
X93102142Y-87944357D01*
X93159285Y-87887214D01*
X93273571Y-87858642D01*
X93473571Y-87858642D01*
X93587857Y-87887214D01*
X93645000Y-87944357D01*
X93673571Y-88001500D01*
X93673571Y-88772928D02*
X93673571Y-88658642D01*
X93645000Y-88601500D01*
X93616428Y-88572928D01*
X93530714Y-88515785D01*
X93416428Y-88487214D01*
X93187857Y-88487214D01*
X93130714Y-88515785D01*
X93102142Y-88544357D01*
X93073571Y-88601500D01*
X93073571Y-88715785D01*
X93102142Y-88772928D01*
X93130714Y-88801500D01*
X93187857Y-88830071D01*
X93330714Y-88830071D01*
X93387857Y-88801500D01*
X93416428Y-88772928D01*
X93445000Y-88715785D01*
X93445000Y-88601500D01*
X93416428Y-88544357D01*
X93387857Y-88515785D01*
X93330714Y-88487214D01*
X93073571Y-90141500D02*
X93673571Y-90141500D01*
X93673571Y-90541500D02*
X93673571Y-90655785D01*
X93645000Y-90712928D01*
X93587857Y-90770071D01*
X93473571Y-90798642D01*
X93273571Y-90798642D01*
X93159285Y-90770071D01*
X93102142Y-90712928D01*
X93073571Y-90655785D01*
X93073571Y-90541500D01*
X93102142Y-90484357D01*
X93159285Y-90427214D01*
X93273571Y-90398642D01*
X93473571Y-90398642D01*
X93587857Y-90427214D01*
X93645000Y-90484357D01*
X93673571Y-90541500D01*
X93673571Y-90998642D02*
X93673571Y-91398642D01*
X93073571Y-91141500D01*
X93073571Y-92681500D02*
X93673571Y-92681500D01*
X93673571Y-93081500D02*
X93673571Y-93195785D01*
X93645000Y-93252928D01*
X93587857Y-93310071D01*
X93473571Y-93338642D01*
X93273571Y-93338642D01*
X93159285Y-93310071D01*
X93102142Y-93252928D01*
X93073571Y-93195785D01*
X93073571Y-93081500D01*
X93102142Y-93024357D01*
X93159285Y-92967214D01*
X93273571Y-92938642D01*
X93473571Y-92938642D01*
X93587857Y-92967214D01*
X93645000Y-93024357D01*
X93673571Y-93081500D01*
X93416428Y-93681500D02*
X93445000Y-93624357D01*
X93473571Y-93595785D01*
X93530714Y-93567214D01*
X93559285Y-93567214D01*
X93616428Y-93595785D01*
X93645000Y-93624357D01*
X93673571Y-93681500D01*
X93673571Y-93795785D01*
X93645000Y-93852928D01*
X93616428Y-93881500D01*
X93559285Y-93910071D01*
X93530714Y-93910071D01*
X93473571Y-93881500D01*
X93445000Y-93852928D01*
X93416428Y-93795785D01*
X93416428Y-93681500D01*
X93387857Y-93624357D01*
X93359285Y-93595785D01*
X93302142Y-93567214D01*
X93187857Y-93567214D01*
X93130714Y-93595785D01*
X93102142Y-93624357D01*
X93073571Y-93681500D01*
X93073571Y-93795785D01*
X93102142Y-93852928D01*
X93130714Y-93881500D01*
X93187857Y-93910071D01*
X93302142Y-93910071D01*
X93359285Y-93881500D01*
X93387857Y-93852928D01*
X93416428Y-93795785D01*
X93073571Y-94935785D02*
X93673571Y-94935785D01*
X93673571Y-95335785D02*
X93673571Y-95450071D01*
X93645000Y-95507214D01*
X93587857Y-95564357D01*
X93473571Y-95592928D01*
X93273571Y-95592928D01*
X93159285Y-95564357D01*
X93102142Y-95507214D01*
X93073571Y-95450071D01*
X93073571Y-95335785D01*
X93102142Y-95278642D01*
X93159285Y-95221500D01*
X93273571Y-95192928D01*
X93473571Y-95192928D01*
X93587857Y-95221500D01*
X93645000Y-95278642D01*
X93673571Y-95335785D01*
X93073571Y-96164357D02*
X93073571Y-95821500D01*
X93073571Y-95992928D02*
X93673571Y-95992928D01*
X93587857Y-95935785D01*
X93530714Y-95878642D01*
X93502142Y-95821500D01*
X93673571Y-96707214D02*
X93673571Y-96421500D01*
X93387857Y-96392928D01*
X93416428Y-96421500D01*
X93445000Y-96478642D01*
X93445000Y-96621500D01*
X93416428Y-96678642D01*
X93387857Y-96707214D01*
X93330714Y-96735785D01*
X93187857Y-96735785D01*
X93130714Y-96707214D01*
X93102142Y-96678642D01*
X93073571Y-96621500D01*
X93073571Y-96478642D01*
X93102142Y-96421500D01*
X93130714Y-96392928D01*
X93073571Y-97761500D02*
X93673571Y-97761500D01*
X93673571Y-98161500D02*
X93673571Y-98275785D01*
X93645000Y-98332928D01*
X93587857Y-98390071D01*
X93473571Y-98418642D01*
X93273571Y-98418642D01*
X93159285Y-98390071D01*
X93102142Y-98332928D01*
X93073571Y-98275785D01*
X93073571Y-98161500D01*
X93102142Y-98104357D01*
X93159285Y-98047214D01*
X93273571Y-98018642D01*
X93473571Y-98018642D01*
X93587857Y-98047214D01*
X93645000Y-98104357D01*
X93673571Y-98161500D01*
X93616428Y-98647214D02*
X93645000Y-98675785D01*
X93673571Y-98732928D01*
X93673571Y-98875785D01*
X93645000Y-98932928D01*
X93616428Y-98961500D01*
X93559285Y-98990071D01*
X93502142Y-98990071D01*
X93416428Y-98961500D01*
X93073571Y-98618642D01*
X93073571Y-98990071D01*
X93073571Y-100301500D02*
X93673571Y-100301500D01*
X93673571Y-100701500D02*
X93673571Y-100815785D01*
X93645000Y-100872928D01*
X93587857Y-100930071D01*
X93473571Y-100958642D01*
X93273571Y-100958642D01*
X93159285Y-100930071D01*
X93102142Y-100872928D01*
X93073571Y-100815785D01*
X93073571Y-100701500D01*
X93102142Y-100644357D01*
X93159285Y-100587214D01*
X93273571Y-100558642D01*
X93473571Y-100558642D01*
X93587857Y-100587214D01*
X93645000Y-100644357D01*
X93673571Y-100701500D01*
X93673571Y-101330071D02*
X93673571Y-101387214D01*
X93645000Y-101444357D01*
X93616428Y-101472928D01*
X93559285Y-101501500D01*
X93445000Y-101530071D01*
X93302142Y-101530071D01*
X93187857Y-101501500D01*
X93130714Y-101472928D01*
X93102142Y-101444357D01*
X93073571Y-101387214D01*
X93073571Y-101330071D01*
X93102142Y-101272928D01*
X93130714Y-101244357D01*
X93187857Y-101215785D01*
X93302142Y-101187214D01*
X93445000Y-101187214D01*
X93559285Y-101215785D01*
X93616428Y-101244357D01*
X93645000Y-101272928D01*
X93673571Y-101330071D01*
X93073571Y-102841500D02*
X93673571Y-102841500D01*
X93673571Y-103241500D02*
X93673571Y-103355785D01*
X93645000Y-103412928D01*
X93587857Y-103470071D01*
X93473571Y-103498642D01*
X93273571Y-103498642D01*
X93159285Y-103470071D01*
X93102142Y-103412928D01*
X93073571Y-103355785D01*
X93073571Y-103241500D01*
X93102142Y-103184357D01*
X93159285Y-103127214D01*
X93273571Y-103098642D01*
X93473571Y-103098642D01*
X93587857Y-103127214D01*
X93645000Y-103184357D01*
X93673571Y-103241500D01*
X93473571Y-104012928D02*
X93073571Y-104012928D01*
X93702142Y-103870071D02*
X93273571Y-103727214D01*
X93273571Y-104098642D01*
X93073571Y-105095785D02*
X93673571Y-105095785D01*
X93673571Y-105495785D02*
X93673571Y-105610071D01*
X93645000Y-105667214D01*
X93587857Y-105724357D01*
X93473571Y-105752928D01*
X93273571Y-105752928D01*
X93159285Y-105724357D01*
X93102142Y-105667214D01*
X93073571Y-105610071D01*
X93073571Y-105495785D01*
X93102142Y-105438642D01*
X93159285Y-105381500D01*
X93273571Y-105352928D01*
X93473571Y-105352928D01*
X93587857Y-105381500D01*
X93645000Y-105438642D01*
X93673571Y-105495785D01*
X93073571Y-106324357D02*
X93073571Y-105981500D01*
X93073571Y-106152928D02*
X93673571Y-106152928D01*
X93587857Y-106095785D01*
X93530714Y-106038642D01*
X93502142Y-105981500D01*
X93673571Y-106838642D02*
X93673571Y-106724357D01*
X93645000Y-106667214D01*
X93616428Y-106638642D01*
X93530714Y-106581500D01*
X93416428Y-106552928D01*
X93187857Y-106552928D01*
X93130714Y-106581500D01*
X93102142Y-106610071D01*
X93073571Y-106667214D01*
X93073571Y-106781500D01*
X93102142Y-106838642D01*
X93130714Y-106867214D01*
X93187857Y-106895785D01*
X93330714Y-106895785D01*
X93387857Y-106867214D01*
X93416428Y-106838642D01*
X93445000Y-106781500D01*
X93445000Y-106667214D01*
X93416428Y-106610071D01*
X93387857Y-106581500D01*
X93330714Y-106552928D01*
X93073571Y-107635785D02*
X93673571Y-107635785D01*
X93673571Y-108035785D02*
X93673571Y-108150071D01*
X93645000Y-108207214D01*
X93587857Y-108264357D01*
X93473571Y-108292928D01*
X93273571Y-108292928D01*
X93159285Y-108264357D01*
X93102142Y-108207214D01*
X93073571Y-108150071D01*
X93073571Y-108035785D01*
X93102142Y-107978642D01*
X93159285Y-107921500D01*
X93273571Y-107892928D01*
X93473571Y-107892928D01*
X93587857Y-107921500D01*
X93645000Y-107978642D01*
X93673571Y-108035785D01*
X93073571Y-108864357D02*
X93073571Y-108521500D01*
X93073571Y-108692928D02*
X93673571Y-108692928D01*
X93587857Y-108635785D01*
X93530714Y-108578642D01*
X93502142Y-108521500D01*
X93673571Y-109064357D02*
X93673571Y-109464357D01*
X93073571Y-109207214D01*
X93091571Y-110461500D02*
X93691571Y-110461500D01*
X93691571Y-110861500D02*
X93691571Y-110975785D01*
X93663000Y-111032928D01*
X93605857Y-111090071D01*
X93491571Y-111118642D01*
X93291571Y-111118642D01*
X93177285Y-111090071D01*
X93120142Y-111032928D01*
X93091571Y-110975785D01*
X93091571Y-110861500D01*
X93120142Y-110804357D01*
X93177285Y-110747214D01*
X93291571Y-110718642D01*
X93491571Y-110718642D01*
X93605857Y-110747214D01*
X93663000Y-110804357D01*
X93691571Y-110861500D01*
X93691571Y-111661500D02*
X93691571Y-111375785D01*
X93405857Y-111347214D01*
X93434428Y-111375785D01*
X93463000Y-111432928D01*
X93463000Y-111575785D01*
X93434428Y-111632928D01*
X93405857Y-111661500D01*
X93348714Y-111690071D01*
X93205857Y-111690071D01*
X93148714Y-111661500D01*
X93120142Y-111632928D01*
X93091571Y-111575785D01*
X93091571Y-111432928D01*
X93120142Y-111375785D01*
X93148714Y-111347214D01*
X93073571Y-112715785D02*
X93673571Y-112715785D01*
X93673571Y-113115785D02*
X93673571Y-113230071D01*
X93645000Y-113287214D01*
X93587857Y-113344357D01*
X93473571Y-113372928D01*
X93273571Y-113372928D01*
X93159285Y-113344357D01*
X93102142Y-113287214D01*
X93073571Y-113230071D01*
X93073571Y-113115785D01*
X93102142Y-113058642D01*
X93159285Y-113001500D01*
X93273571Y-112972928D01*
X93473571Y-112972928D01*
X93587857Y-113001500D01*
X93645000Y-113058642D01*
X93673571Y-113115785D01*
X93073571Y-113944357D02*
X93073571Y-113601500D01*
X93073571Y-113772928D02*
X93673571Y-113772928D01*
X93587857Y-113715785D01*
X93530714Y-113658642D01*
X93502142Y-113601500D01*
X93416428Y-114287214D02*
X93445000Y-114230071D01*
X93473571Y-114201500D01*
X93530714Y-114172928D01*
X93559285Y-114172928D01*
X93616428Y-114201500D01*
X93645000Y-114230071D01*
X93673571Y-114287214D01*
X93673571Y-114401500D01*
X93645000Y-114458642D01*
X93616428Y-114487214D01*
X93559285Y-114515785D01*
X93530714Y-114515785D01*
X93473571Y-114487214D01*
X93445000Y-114458642D01*
X93416428Y-114401500D01*
X93416428Y-114287214D01*
X93387857Y-114230071D01*
X93359285Y-114201500D01*
X93302142Y-114172928D01*
X93187857Y-114172928D01*
X93130714Y-114201500D01*
X93102142Y-114230071D01*
X93073571Y-114287214D01*
X93073571Y-114401500D01*
X93102142Y-114458642D01*
X93130714Y-114487214D01*
X93187857Y-114515785D01*
X93302142Y-114515785D01*
X93359285Y-114487214D01*
X93387857Y-114458642D01*
X93416428Y-114401500D01*
X93073571Y-115255785D02*
X93673571Y-115255785D01*
X93673571Y-115655785D02*
X93673571Y-115770071D01*
X93645000Y-115827214D01*
X93587857Y-115884357D01*
X93473571Y-115912928D01*
X93273571Y-115912928D01*
X93159285Y-115884357D01*
X93102142Y-115827214D01*
X93073571Y-115770071D01*
X93073571Y-115655785D01*
X93102142Y-115598642D01*
X93159285Y-115541500D01*
X93273571Y-115512928D01*
X93473571Y-115512928D01*
X93587857Y-115541500D01*
X93645000Y-115598642D01*
X93673571Y-115655785D01*
X93073571Y-116484357D02*
X93073571Y-116141500D01*
X93073571Y-116312928D02*
X93673571Y-116312928D01*
X93587857Y-116255785D01*
X93530714Y-116198642D01*
X93502142Y-116141500D01*
X93073571Y-116770071D02*
X93073571Y-116884357D01*
X93102142Y-116941500D01*
X93130714Y-116970071D01*
X93216428Y-117027214D01*
X93330714Y-117055785D01*
X93559285Y-117055785D01*
X93616428Y-117027214D01*
X93645000Y-116998642D01*
X93673571Y-116941500D01*
X93673571Y-116827214D01*
X93645000Y-116770071D01*
X93616428Y-116741500D01*
X93559285Y-116712928D01*
X93416428Y-116712928D01*
X93359285Y-116741500D01*
X93330714Y-116770071D01*
X93302142Y-116827214D01*
X93302142Y-116941500D01*
X93330714Y-116998642D01*
X93359285Y-117027214D01*
X93416428Y-117055785D01*
X93645000Y-118224357D02*
X93673571Y-118167214D01*
X93673571Y-118081500D01*
X93645000Y-117995785D01*
X93587857Y-117938642D01*
X93530714Y-117910071D01*
X93416428Y-117881500D01*
X93330714Y-117881500D01*
X93216428Y-117910071D01*
X93159285Y-117938642D01*
X93102142Y-117995785D01*
X93073571Y-118081500D01*
X93073571Y-118138642D01*
X93102142Y-118224357D01*
X93130714Y-118252928D01*
X93330714Y-118252928D01*
X93330714Y-118138642D01*
X93073571Y-118510071D02*
X93673571Y-118510071D01*
X93073571Y-118852928D01*
X93673571Y-118852928D01*
X93073571Y-119138642D02*
X93673571Y-119138642D01*
X93673571Y-119281500D01*
X93645000Y-119367214D01*
X93587857Y-119424357D01*
X93530714Y-119452928D01*
X93416428Y-119481500D01*
X93330714Y-119481500D01*
X93216428Y-119452928D01*
X93159285Y-119424357D01*
X93102142Y-119367214D01*
X93073571Y-119281500D01*
X93073571Y-119138642D01*
X93102142Y-120492928D02*
X93073571Y-120578642D01*
X93073571Y-120721500D01*
X93102142Y-120778642D01*
X93130714Y-120807214D01*
X93187857Y-120835785D01*
X93245000Y-120835785D01*
X93302142Y-120807214D01*
X93330714Y-120778642D01*
X93359285Y-120721500D01*
X93387857Y-120607214D01*
X93416428Y-120550071D01*
X93445000Y-120521500D01*
X93502142Y-120492928D01*
X93559285Y-120492928D01*
X93616428Y-120521500D01*
X93645000Y-120550071D01*
X93673571Y-120607214D01*
X93673571Y-120750071D01*
X93645000Y-120835785D01*
X93073571Y-121092928D02*
X93673571Y-121092928D01*
X93673571Y-121235785D01*
X93645000Y-121321500D01*
X93587857Y-121378642D01*
X93530714Y-121407214D01*
X93416428Y-121435785D01*
X93330714Y-121435785D01*
X93216428Y-121407214D01*
X93159285Y-121378642D01*
X93102142Y-121321500D01*
X93073571Y-121235785D01*
X93073571Y-121092928D01*
X93245000Y-121664357D02*
X93245000Y-121950071D01*
X93073571Y-121607214D02*
X93673571Y-121807214D01*
X93073571Y-122007214D01*
X93073571Y-123161500D02*
X93673571Y-123161500D01*
X93673571Y-123561500D02*
X93673571Y-123675785D01*
X93645000Y-123732928D01*
X93587857Y-123790071D01*
X93473571Y-123818642D01*
X93273571Y-123818642D01*
X93159285Y-123790071D01*
X93102142Y-123732928D01*
X93073571Y-123675785D01*
X93073571Y-123561500D01*
X93102142Y-123504357D01*
X93159285Y-123447214D01*
X93273571Y-123418642D01*
X93473571Y-123418642D01*
X93587857Y-123447214D01*
X93645000Y-123504357D01*
X93673571Y-123561500D01*
X93673571Y-124018642D02*
X93673571Y-124390071D01*
X93445000Y-124190071D01*
X93445000Y-124275785D01*
X93416428Y-124332928D01*
X93387857Y-124361500D01*
X93330714Y-124390071D01*
X93187857Y-124390071D01*
X93130714Y-124361500D01*
X93102142Y-124332928D01*
X93073571Y-124275785D01*
X93073571Y-124104357D01*
X93102142Y-124047214D01*
X93130714Y-124018642D01*
X93073571Y-125701500D02*
X93673571Y-125701500D01*
X93673571Y-126101500D02*
X93673571Y-126215785D01*
X93645000Y-126272928D01*
X93587857Y-126330071D01*
X93473571Y-126358642D01*
X93273571Y-126358642D01*
X93159285Y-126330071D01*
X93102142Y-126272928D01*
X93073571Y-126215785D01*
X93073571Y-126101500D01*
X93102142Y-126044357D01*
X93159285Y-125987214D01*
X93273571Y-125958642D01*
X93473571Y-125958642D01*
X93587857Y-125987214D01*
X93645000Y-126044357D01*
X93673571Y-126101500D01*
X93073571Y-126930071D02*
X93073571Y-126587214D01*
X93073571Y-126758642D02*
X93673571Y-126758642D01*
X93587857Y-126701500D01*
X93530714Y-126644357D01*
X93502142Y-126587214D01*
X93102142Y-128127214D02*
X93073571Y-128212928D01*
X93073571Y-128355785D01*
X93102142Y-128412928D01*
X93130714Y-128441500D01*
X93187857Y-128470071D01*
X93245000Y-128470071D01*
X93302142Y-128441500D01*
X93330714Y-128412928D01*
X93359285Y-128355785D01*
X93387857Y-128241500D01*
X93416428Y-128184357D01*
X93445000Y-128155785D01*
X93502142Y-128127214D01*
X93559285Y-128127214D01*
X93616428Y-128155785D01*
X93645000Y-128184357D01*
X93673571Y-128241500D01*
X93673571Y-128384357D01*
X93645000Y-128470071D01*
X93130714Y-129070071D02*
X93102142Y-129041500D01*
X93073571Y-128955785D01*
X93073571Y-128898642D01*
X93102142Y-128812928D01*
X93159285Y-128755785D01*
X93216428Y-128727214D01*
X93330714Y-128698642D01*
X93416428Y-128698642D01*
X93530714Y-128727214D01*
X93587857Y-128755785D01*
X93645000Y-128812928D01*
X93673571Y-128898642D01*
X93673571Y-128955785D01*
X93645000Y-129041500D01*
X93616428Y-129070071D01*
X93073571Y-129612928D02*
X93073571Y-129327214D01*
X93673571Y-129327214D01*
X93073571Y-130495785D02*
X93673571Y-130495785D01*
X93673571Y-130895785D02*
X93673571Y-131010071D01*
X93645000Y-131067214D01*
X93587857Y-131124357D01*
X93473571Y-131152928D01*
X93273571Y-131152928D01*
X93159285Y-131124357D01*
X93102142Y-131067214D01*
X93073571Y-131010071D01*
X93073571Y-130895785D01*
X93102142Y-130838642D01*
X93159285Y-130781500D01*
X93273571Y-130752928D01*
X93473571Y-130752928D01*
X93587857Y-130781500D01*
X93645000Y-130838642D01*
X93673571Y-130895785D01*
X93616428Y-131381500D02*
X93645000Y-131410071D01*
X93673571Y-131467214D01*
X93673571Y-131610071D01*
X93645000Y-131667214D01*
X93616428Y-131695785D01*
X93559285Y-131724357D01*
X93502142Y-131724357D01*
X93416428Y-131695785D01*
X93073571Y-131352928D01*
X93073571Y-131724357D01*
X93673571Y-131924357D02*
X93673571Y-132295785D01*
X93445000Y-132095785D01*
X93445000Y-132181500D01*
X93416428Y-132238642D01*
X93387857Y-132267214D01*
X93330714Y-132295785D01*
X93187857Y-132295785D01*
X93130714Y-132267214D01*
X93102142Y-132238642D01*
X93073571Y-132181500D01*
X93073571Y-132010071D01*
X93102142Y-131952928D01*
X93130714Y-131924357D01*
X93645000Y-133464357D02*
X93673571Y-133407214D01*
X93673571Y-133321500D01*
X93645000Y-133235785D01*
X93587857Y-133178642D01*
X93530714Y-133150071D01*
X93416428Y-133121500D01*
X93330714Y-133121500D01*
X93216428Y-133150071D01*
X93159285Y-133178642D01*
X93102142Y-133235785D01*
X93073571Y-133321500D01*
X93073571Y-133378642D01*
X93102142Y-133464357D01*
X93130714Y-133492928D01*
X93330714Y-133492928D01*
X93330714Y-133378642D01*
X93073571Y-133750071D02*
X93673571Y-133750071D01*
X93073571Y-134092928D01*
X93673571Y-134092928D01*
X93073571Y-134378642D02*
X93673571Y-134378642D01*
X93673571Y-134521500D01*
X93645000Y-134607214D01*
X93587857Y-134664357D01*
X93530714Y-134692928D01*
X93416428Y-134721500D01*
X93330714Y-134721500D01*
X93216428Y-134692928D01*
X93159285Y-134664357D01*
X93102142Y-134607214D01*
X93073571Y-134521500D01*
X93073571Y-134378642D01*
X187463714Y-135193880D02*
X186892285Y-135193880D01*
X187178000Y-135193880D02*
X187178000Y-134193880D01*
X187082761Y-134336738D01*
X186987523Y-134431976D01*
X186892285Y-134479595D01*
X187463714Y-119953880D02*
X186892285Y-119953880D01*
X187178000Y-119953880D02*
X187178000Y-118953880D01*
X187082761Y-119096738D01*
X186987523Y-119191976D01*
X186892285Y-119239595D01*
X187463714Y-105348880D02*
X186892285Y-105348880D01*
X187178000Y-105348880D02*
X187178000Y-104348880D01*
X187082761Y-104491738D01*
X186987523Y-104586976D01*
X186892285Y-104634595D01*
X187463714Y-90743880D02*
X186892285Y-90743880D01*
X187178000Y-90743880D02*
X187178000Y-89743880D01*
X187082761Y-89886738D01*
X186987523Y-89981976D01*
X186892285Y-90029595D01*
D13*
X151939666Y-134262880D02*
X151939666Y-134977166D01*
X151892047Y-135120023D01*
X151796809Y-135215261D01*
X151653952Y-135262880D01*
X151558714Y-135262880D01*
X152844428Y-134262880D02*
X152653952Y-134262880D01*
X152558714Y-134310500D01*
X152511095Y-134358119D01*
X152415857Y-134500976D01*
X152368238Y-134691452D01*
X152368238Y-135072404D01*
X152415857Y-135167642D01*
X152463476Y-135215261D01*
X152558714Y-135262880D01*
X152749190Y-135262880D01*
X152844428Y-135215261D01*
X152892047Y-135167642D01*
X152939666Y-135072404D01*
X152939666Y-134834309D01*
X152892047Y-134739071D01*
X152844428Y-134691452D01*
X152749190Y-134643833D01*
X152558714Y-134643833D01*
X152463476Y-134691452D01*
X152415857Y-134739071D01*
X152368238Y-134834309D01*
X151939666Y-124864880D02*
X151939666Y-125579166D01*
X151892047Y-125722023D01*
X151796809Y-125817261D01*
X151653952Y-125864880D01*
X151558714Y-125864880D01*
X152320619Y-124864880D02*
X152987285Y-124864880D01*
X152558714Y-125864880D01*
X145438880Y-129809833D02*
X146153166Y-129809833D01*
X146296023Y-129857452D01*
X146391261Y-129952690D01*
X146438880Y-130095547D01*
X146438880Y-130190785D01*
X146438880Y-129286023D02*
X146438880Y-129095547D01*
X146391261Y-129000309D01*
X146343642Y-128952690D01*
X146200785Y-128857452D01*
X146010309Y-128809833D01*
X145629357Y-128809833D01*
X145534119Y-128857452D01*
X145486500Y-128905071D01*
X145438880Y-129000309D01*
X145438880Y-129190785D01*
X145486500Y-129286023D01*
X145534119Y-129333642D01*
X145629357Y-129381261D01*
X145867452Y-129381261D01*
X145962690Y-129333642D01*
X146010309Y-129286023D01*
X146057928Y-129190785D01*
X146057928Y-129000309D01*
X146010309Y-128905071D01*
X145962690Y-128857452D01*
X145867452Y-128809833D01*
X130627380Y-112117166D02*
X130151190Y-112450500D01*
X130627380Y-112688595D02*
X129627380Y-112688595D01*
X129627380Y-112307642D01*
X129675000Y-112212404D01*
X129722619Y-112164785D01*
X129817857Y-112117166D01*
X129960714Y-112117166D01*
X130055952Y-112164785D01*
X130103571Y-112212404D01*
X130151190Y-112307642D01*
X130151190Y-112688595D01*
X130627380Y-111164785D02*
X130627380Y-111736214D01*
X130627380Y-111450500D02*
X129627380Y-111450500D01*
X129770238Y-111545738D01*
X129865476Y-111640976D01*
X129913095Y-111736214D01*
X133167380Y-112117166D02*
X132691190Y-112450500D01*
X133167380Y-112688595D02*
X132167380Y-112688595D01*
X132167380Y-112307642D01*
X132215000Y-112212404D01*
X132262619Y-112164785D01*
X132357857Y-112117166D01*
X132500714Y-112117166D01*
X132595952Y-112164785D01*
X132643571Y-112212404D01*
X132691190Y-112307642D01*
X132691190Y-112688595D01*
X132262619Y-111736214D02*
X132215000Y-111688595D01*
X132167380Y-111593357D01*
X132167380Y-111355261D01*
X132215000Y-111260023D01*
X132262619Y-111212404D01*
X132357857Y-111164785D01*
X132453095Y-111164785D01*
X132595952Y-111212404D01*
X133167380Y-111783833D01*
X133167380Y-111164785D01*
X162915695Y-130664480D02*
X162915695Y-131474004D01*
X162963314Y-131569242D01*
X163010933Y-131616861D01*
X163106171Y-131664480D01*
X163296647Y-131664480D01*
X163391885Y-131616861D01*
X163439504Y-131569242D01*
X163487123Y-131474004D01*
X163487123Y-130664480D01*
X163915695Y-130759719D02*
X163963314Y-130712100D01*
X164058552Y-130664480D01*
X164296647Y-130664480D01*
X164391885Y-130712100D01*
X164439504Y-130759719D01*
X164487123Y-130854957D01*
X164487123Y-130950195D01*
X164439504Y-131093052D01*
X163868076Y-131664480D01*
X164487123Y-131664480D01*
X162763295Y-101200480D02*
X162763295Y-102010004D01*
X162810914Y-102105242D01*
X162858533Y-102152861D01*
X162953771Y-102200480D01*
X163144247Y-102200480D01*
X163239485Y-102152861D01*
X163287104Y-102105242D01*
X163334723Y-102010004D01*
X163334723Y-101200480D01*
X164239485Y-101533814D02*
X164239485Y-102200480D01*
X164001390Y-101152861D02*
X163763295Y-101867147D01*
X164382342Y-101867147D01*
X162788695Y-86620880D02*
X162788695Y-87430404D01*
X162836314Y-87525642D01*
X162883933Y-87573261D01*
X162979171Y-87620880D01*
X163169647Y-87620880D01*
X163264885Y-87573261D01*
X163312504Y-87525642D01*
X163360123Y-87430404D01*
X163360123Y-86620880D01*
X164312504Y-86620880D02*
X163836314Y-86620880D01*
X163788695Y-87097071D01*
X163836314Y-87049452D01*
X163931552Y-87001833D01*
X164169647Y-87001833D01*
X164264885Y-87049452D01*
X164312504Y-87097071D01*
X164360123Y-87192309D01*
X164360123Y-87430404D01*
X164312504Y-87525642D01*
X164264885Y-87573261D01*
X164169647Y-87620880D01*
X163931552Y-87620880D01*
X163836314Y-87573261D01*
X163788695Y-87525642D01*
X162788695Y-115449880D02*
X162788695Y-116259404D01*
X162836314Y-116354642D01*
X162883933Y-116402261D01*
X162979171Y-116449880D01*
X163169647Y-116449880D01*
X163264885Y-116402261D01*
X163312504Y-116354642D01*
X163360123Y-116259404D01*
X163360123Y-115449880D01*
X163741076Y-115449880D02*
X164360123Y-115449880D01*
X164026790Y-115830833D01*
X164169647Y-115830833D01*
X164264885Y-115878452D01*
X164312504Y-115926071D01*
X164360123Y-116021309D01*
X164360123Y-116259404D01*
X164312504Y-116354642D01*
X164264885Y-116402261D01*
X164169647Y-116449880D01*
X163883933Y-116449880D01*
X163788695Y-116402261D01*
X163741076Y-116354642D01*
X140500380Y-112140904D02*
X141309904Y-112140904D01*
X141405142Y-112093285D01*
X141452761Y-112045666D01*
X141500380Y-111950428D01*
X141500380Y-111759952D01*
X141452761Y-111664714D01*
X141405142Y-111617095D01*
X141309904Y-111569476D01*
X140500380Y-111569476D01*
X140500380Y-110664714D02*
X140500380Y-110855190D01*
X140548000Y-110950428D01*
X140595619Y-110998047D01*
X140738476Y-111093285D01*
X140928952Y-111140904D01*
X141309904Y-111140904D01*
X141405142Y-111093285D01*
X141452761Y-111045666D01*
X141500380Y-110950428D01*
X141500380Y-110759952D01*
X141452761Y-110664714D01*
X141405142Y-110617095D01*
X141309904Y-110569476D01*
X141071809Y-110569476D01*
X140976571Y-110617095D01*
X140928952Y-110664714D01*
X140881333Y-110759952D01*
X140881333Y-110950428D01*
X140928952Y-111045666D01*
X140976571Y-111093285D01*
X141071809Y-111140904D01*
X130195380Y-94170404D02*
X131004904Y-94170404D01*
X131100142Y-94122785D01*
X131147761Y-94075166D01*
X131195380Y-93979928D01*
X131195380Y-93789452D01*
X131147761Y-93694214D01*
X131100142Y-93646595D01*
X131004904Y-93598976D01*
X130195380Y-93598976D01*
X130195380Y-93218023D02*
X130195380Y-92551357D01*
X131195380Y-92979928D01*
X131365666Y-101750880D02*
X131365666Y-102465166D01*
X131318047Y-102608023D01*
X131222809Y-102703261D01*
X131079952Y-102750880D01*
X130984714Y-102750880D01*
X131794238Y-101846119D02*
X131841857Y-101798500D01*
X131937095Y-101750880D01*
X132175190Y-101750880D01*
X132270428Y-101798500D01*
X132318047Y-101846119D01*
X132365666Y-101941357D01*
X132365666Y-102036595D01*
X132318047Y-102179452D01*
X131746619Y-102750880D01*
X132365666Y-102750880D01*
M02*
