G04 #@! TF.GenerationSoftware,KiCad,Pcbnew,(5.1.5)-3*
G04 #@! TF.CreationDate,2020-04-29T17:43:40-04:00*
G04 #@! TF.ProjectId,ufcs,75666373-2e6b-4696-9361-645f70636258,rev?*
G04 #@! TF.SameCoordinates,Original*
G04 #@! TF.FileFunction,Copper,L1,Top*
G04 #@! TF.FilePolarity,Positive*
%FSLAX46Y46*%
G04 Gerber Fmt 4.6, Leading zero omitted, Abs format (unit mm)*
G04 Created by KiCad (PCBNEW (5.1.5)-3) date 2020-04-29 17:43:40*
%MOMM*%
%LPD*%
G04 APERTURE LIST*
%ADD10R,4.400000X2.000000*%
%ADD11R,3.700000X2.000000*%
%ADD12R,2.000000X4.000000*%
%ADD13R,1.700000X1.700000*%
%ADD14O,1.700000X1.700000*%
%ADD15O,2.000000X1.200000*%
%ADD16C,4.064000*%
%ADD17R,1.727200X1.727200*%
%ADD18O,1.727200X1.727200*%
%ADD19O,1.510000X3.010000*%
%ADD20C,0.100000*%
%ADD21R,2.000000X0.600000*%
%ADD22R,0.285000X1.000000*%
%ADD23R,2.300000X1.500000*%
%ADD24O,2.300000X1.500000*%
%ADD25C,0.762000*%
%ADD26C,0.152400*%
%ADD27C,0.381000*%
%ADD28C,1.524000*%
G04 APERTURE END LIST*
D10*
X148971000Y-97633300D03*
D11*
X148971000Y-91633300D03*
D12*
X153471000Y-90633300D03*
X144471000Y-90633300D03*
D13*
X135763000Y-140652500D03*
D14*
X138303000Y-140652500D03*
X140843000Y-140652500D03*
X143383000Y-140652500D03*
X143383000Y-120840500D03*
X140843000Y-120840500D03*
X138303000Y-120840500D03*
D13*
X135763000Y-120840500D03*
D15*
X123063000Y-88201500D03*
X97613000Y-88201500D03*
X123063000Y-90741500D03*
X97613000Y-90741500D03*
X123063000Y-93281500D03*
X97613000Y-93281500D03*
X123063000Y-95821500D03*
X97613000Y-95821500D03*
X123063000Y-98361500D03*
X97613000Y-98361500D03*
X123063000Y-100901500D03*
X97613000Y-100901500D03*
X123063000Y-103441500D03*
X97613000Y-103441500D03*
X123063000Y-105981500D03*
X97613000Y-105981500D03*
X123063000Y-108521500D03*
X97613000Y-108521500D03*
X123063000Y-111061500D03*
X97613000Y-111061500D03*
X123063000Y-113601500D03*
X97613000Y-113601500D03*
X123063000Y-116141500D03*
X97613000Y-116141500D03*
X123063000Y-118681500D03*
X97613000Y-118681500D03*
X123063000Y-121221500D03*
X97613000Y-121221500D03*
X123063000Y-123761500D03*
X97613000Y-123761500D03*
X123063000Y-126301500D03*
X97613000Y-126301500D03*
X123063000Y-128841500D03*
X97613000Y-128841500D03*
X123063000Y-131381500D03*
X97613000Y-131381500D03*
X123063000Y-133921500D03*
X97613000Y-133921500D03*
X95073000Y-133921500D03*
X95073000Y-131381500D03*
X95073000Y-128841500D03*
X95073000Y-126301500D03*
X95073000Y-123761500D03*
X95073000Y-121221500D03*
X95073000Y-118681500D03*
X95073000Y-116141500D03*
X95073000Y-113601500D03*
X95073000Y-111061500D03*
X95073000Y-108521500D03*
X95073000Y-105981500D03*
X95073000Y-103441500D03*
X95073000Y-100901500D03*
X95073000Y-98361500D03*
X95073000Y-95821500D03*
X95073000Y-93281500D03*
X95073000Y-90741500D03*
X95073000Y-88201500D03*
X125653000Y-133921500D03*
X125653000Y-131381500D03*
X125653000Y-128841500D03*
X125653000Y-126301500D03*
X125653000Y-123761500D03*
X125653000Y-121221500D03*
X125653000Y-118681500D03*
X125653000Y-116141500D03*
X125653000Y-113601500D03*
X125653000Y-111061500D03*
X125653000Y-108521500D03*
X125653000Y-105981500D03*
X125653000Y-103441500D03*
X125653000Y-100901500D03*
X125653000Y-98361500D03*
X125653000Y-95821500D03*
X125653000Y-93281500D03*
X125653000Y-90741500D03*
X125653000Y-88201500D03*
D16*
X196088000Y-90106500D03*
X90043000Y-90106500D03*
X90043000Y-142811500D03*
X196088000Y-142811500D03*
X137998200Y-112509300D03*
D17*
X187198000Y-136461500D03*
D18*
X187198000Y-139001500D03*
X184658000Y-136461500D03*
X184658000Y-139001500D03*
X182118000Y-136461500D03*
X182118000Y-139001500D03*
X179578000Y-136461500D03*
X179578000Y-139001500D03*
X177038000Y-136461500D03*
X177038000Y-139001500D03*
D17*
X187198000Y-121221500D03*
D18*
X187198000Y-123761500D03*
X184658000Y-121221500D03*
X184658000Y-123761500D03*
X182118000Y-121221500D03*
X182118000Y-123761500D03*
X179578000Y-121221500D03*
X179578000Y-123761500D03*
X177038000Y-121221500D03*
X177038000Y-123761500D03*
D17*
X187198000Y-106616500D03*
D18*
X187198000Y-109156500D03*
X184658000Y-106616500D03*
X184658000Y-109156500D03*
X182118000Y-106616500D03*
X182118000Y-109156500D03*
X179578000Y-106616500D03*
X179578000Y-109156500D03*
X177038000Y-106616500D03*
X177038000Y-109156500D03*
D17*
X187198000Y-92011500D03*
D18*
X187198000Y-94551500D03*
X184658000Y-92011500D03*
X184658000Y-94551500D03*
X182118000Y-92011500D03*
X182118000Y-94551500D03*
X179578000Y-92011500D03*
X179578000Y-94551500D03*
X177038000Y-92011500D03*
X177038000Y-94551500D03*
D19*
X149123400Y-138620500D03*
X151663400Y-138620500D03*
X149174200Y-129171700D03*
X151714200Y-129171700D03*
D13*
X135763000Y-129476500D03*
D14*
X138303000Y-129476500D03*
X140843000Y-129476500D03*
X143383000Y-129476500D03*
G04 #@! TA.AperFunction,SMDPad,CuDef*
D20*
G36*
X130372279Y-114778144D02*
G01*
X130395334Y-114781563D01*
X130417943Y-114787227D01*
X130439887Y-114795079D01*
X130460957Y-114805044D01*
X130480948Y-114817026D01*
X130499668Y-114830910D01*
X130516938Y-114846562D01*
X130532590Y-114863832D01*
X130546474Y-114882552D01*
X130558456Y-114902543D01*
X130568421Y-114923613D01*
X130576273Y-114945557D01*
X130581937Y-114968166D01*
X130585356Y-114991221D01*
X130586500Y-115014500D01*
X130586500Y-115589500D01*
X130585356Y-115612779D01*
X130581937Y-115635834D01*
X130576273Y-115658443D01*
X130568421Y-115680387D01*
X130558456Y-115701457D01*
X130546474Y-115721448D01*
X130532590Y-115740168D01*
X130516938Y-115757438D01*
X130499668Y-115773090D01*
X130480948Y-115786974D01*
X130460957Y-115798956D01*
X130439887Y-115808921D01*
X130417943Y-115816773D01*
X130395334Y-115822437D01*
X130372279Y-115825856D01*
X130349000Y-115827000D01*
X129874000Y-115827000D01*
X129850721Y-115825856D01*
X129827666Y-115822437D01*
X129805057Y-115816773D01*
X129783113Y-115808921D01*
X129762043Y-115798956D01*
X129742052Y-115786974D01*
X129723332Y-115773090D01*
X129706062Y-115757438D01*
X129690410Y-115740168D01*
X129676526Y-115721448D01*
X129664544Y-115701457D01*
X129654579Y-115680387D01*
X129646727Y-115658443D01*
X129641063Y-115635834D01*
X129637644Y-115612779D01*
X129636500Y-115589500D01*
X129636500Y-115014500D01*
X129637644Y-114991221D01*
X129641063Y-114968166D01*
X129646727Y-114945557D01*
X129654579Y-114923613D01*
X129664544Y-114902543D01*
X129676526Y-114882552D01*
X129690410Y-114863832D01*
X129706062Y-114846562D01*
X129723332Y-114830910D01*
X129742052Y-114817026D01*
X129762043Y-114805044D01*
X129783113Y-114795079D01*
X129805057Y-114787227D01*
X129827666Y-114781563D01*
X129850721Y-114778144D01*
X129874000Y-114777000D01*
X130349000Y-114777000D01*
X130372279Y-114778144D01*
G37*
G04 #@! TD.AperFunction*
G04 #@! TA.AperFunction,SMDPad,CuDef*
G36*
X130372279Y-113028144D02*
G01*
X130395334Y-113031563D01*
X130417943Y-113037227D01*
X130439887Y-113045079D01*
X130460957Y-113055044D01*
X130480948Y-113067026D01*
X130499668Y-113080910D01*
X130516938Y-113096562D01*
X130532590Y-113113832D01*
X130546474Y-113132552D01*
X130558456Y-113152543D01*
X130568421Y-113173613D01*
X130576273Y-113195557D01*
X130581937Y-113218166D01*
X130585356Y-113241221D01*
X130586500Y-113264500D01*
X130586500Y-113839500D01*
X130585356Y-113862779D01*
X130581937Y-113885834D01*
X130576273Y-113908443D01*
X130568421Y-113930387D01*
X130558456Y-113951457D01*
X130546474Y-113971448D01*
X130532590Y-113990168D01*
X130516938Y-114007438D01*
X130499668Y-114023090D01*
X130480948Y-114036974D01*
X130460957Y-114048956D01*
X130439887Y-114058921D01*
X130417943Y-114066773D01*
X130395334Y-114072437D01*
X130372279Y-114075856D01*
X130349000Y-114077000D01*
X129874000Y-114077000D01*
X129850721Y-114075856D01*
X129827666Y-114072437D01*
X129805057Y-114066773D01*
X129783113Y-114058921D01*
X129762043Y-114048956D01*
X129742052Y-114036974D01*
X129723332Y-114023090D01*
X129706062Y-114007438D01*
X129690410Y-113990168D01*
X129676526Y-113971448D01*
X129664544Y-113951457D01*
X129654579Y-113930387D01*
X129646727Y-113908443D01*
X129641063Y-113885834D01*
X129637644Y-113862779D01*
X129636500Y-113839500D01*
X129636500Y-113264500D01*
X129637644Y-113241221D01*
X129641063Y-113218166D01*
X129646727Y-113195557D01*
X129654579Y-113173613D01*
X129664544Y-113152543D01*
X129676526Y-113132552D01*
X129690410Y-113113832D01*
X129706062Y-113096562D01*
X129723332Y-113080910D01*
X129742052Y-113067026D01*
X129762043Y-113055044D01*
X129783113Y-113045079D01*
X129805057Y-113037227D01*
X129827666Y-113031563D01*
X129850721Y-113028144D01*
X129874000Y-113027000D01*
X130349000Y-113027000D01*
X130372279Y-113028144D01*
G37*
G04 #@! TD.AperFunction*
G04 #@! TA.AperFunction,SMDPad,CuDef*
G36*
X132912279Y-113028144D02*
G01*
X132935334Y-113031563D01*
X132957943Y-113037227D01*
X132979887Y-113045079D01*
X133000957Y-113055044D01*
X133020948Y-113067026D01*
X133039668Y-113080910D01*
X133056938Y-113096562D01*
X133072590Y-113113832D01*
X133086474Y-113132552D01*
X133098456Y-113152543D01*
X133108421Y-113173613D01*
X133116273Y-113195557D01*
X133121937Y-113218166D01*
X133125356Y-113241221D01*
X133126500Y-113264500D01*
X133126500Y-113839500D01*
X133125356Y-113862779D01*
X133121937Y-113885834D01*
X133116273Y-113908443D01*
X133108421Y-113930387D01*
X133098456Y-113951457D01*
X133086474Y-113971448D01*
X133072590Y-113990168D01*
X133056938Y-114007438D01*
X133039668Y-114023090D01*
X133020948Y-114036974D01*
X133000957Y-114048956D01*
X132979887Y-114058921D01*
X132957943Y-114066773D01*
X132935334Y-114072437D01*
X132912279Y-114075856D01*
X132889000Y-114077000D01*
X132414000Y-114077000D01*
X132390721Y-114075856D01*
X132367666Y-114072437D01*
X132345057Y-114066773D01*
X132323113Y-114058921D01*
X132302043Y-114048956D01*
X132282052Y-114036974D01*
X132263332Y-114023090D01*
X132246062Y-114007438D01*
X132230410Y-113990168D01*
X132216526Y-113971448D01*
X132204544Y-113951457D01*
X132194579Y-113930387D01*
X132186727Y-113908443D01*
X132181063Y-113885834D01*
X132177644Y-113862779D01*
X132176500Y-113839500D01*
X132176500Y-113264500D01*
X132177644Y-113241221D01*
X132181063Y-113218166D01*
X132186727Y-113195557D01*
X132194579Y-113173613D01*
X132204544Y-113152543D01*
X132216526Y-113132552D01*
X132230410Y-113113832D01*
X132246062Y-113096562D01*
X132263332Y-113080910D01*
X132282052Y-113067026D01*
X132302043Y-113055044D01*
X132323113Y-113045079D01*
X132345057Y-113037227D01*
X132367666Y-113031563D01*
X132390721Y-113028144D01*
X132414000Y-113027000D01*
X132889000Y-113027000D01*
X132912279Y-113028144D01*
G37*
G04 #@! TD.AperFunction*
G04 #@! TA.AperFunction,SMDPad,CuDef*
G36*
X132912279Y-114778144D02*
G01*
X132935334Y-114781563D01*
X132957943Y-114787227D01*
X132979887Y-114795079D01*
X133000957Y-114805044D01*
X133020948Y-114817026D01*
X133039668Y-114830910D01*
X133056938Y-114846562D01*
X133072590Y-114863832D01*
X133086474Y-114882552D01*
X133098456Y-114902543D01*
X133108421Y-114923613D01*
X133116273Y-114945557D01*
X133121937Y-114968166D01*
X133125356Y-114991221D01*
X133126500Y-115014500D01*
X133126500Y-115589500D01*
X133125356Y-115612779D01*
X133121937Y-115635834D01*
X133116273Y-115658443D01*
X133108421Y-115680387D01*
X133098456Y-115701457D01*
X133086474Y-115721448D01*
X133072590Y-115740168D01*
X133056938Y-115757438D01*
X133039668Y-115773090D01*
X133020948Y-115786974D01*
X133000957Y-115798956D01*
X132979887Y-115808921D01*
X132957943Y-115816773D01*
X132935334Y-115822437D01*
X132912279Y-115825856D01*
X132889000Y-115827000D01*
X132414000Y-115827000D01*
X132390721Y-115825856D01*
X132367666Y-115822437D01*
X132345057Y-115816773D01*
X132323113Y-115808921D01*
X132302043Y-115798956D01*
X132282052Y-115786974D01*
X132263332Y-115773090D01*
X132246062Y-115757438D01*
X132230410Y-115740168D01*
X132216526Y-115721448D01*
X132204544Y-115701457D01*
X132194579Y-115680387D01*
X132186727Y-115658443D01*
X132181063Y-115635834D01*
X132177644Y-115612779D01*
X132176500Y-115589500D01*
X132176500Y-115014500D01*
X132177644Y-114991221D01*
X132181063Y-114968166D01*
X132186727Y-114945557D01*
X132194579Y-114923613D01*
X132204544Y-114902543D01*
X132216526Y-114882552D01*
X132230410Y-114863832D01*
X132246062Y-114846562D01*
X132263332Y-114830910D01*
X132282052Y-114817026D01*
X132302043Y-114805044D01*
X132323113Y-114795079D01*
X132345057Y-114787227D01*
X132367666Y-114781563D01*
X132390721Y-114778144D01*
X132414000Y-114777000D01*
X132889000Y-114777000D01*
X132912279Y-114778144D01*
G37*
G04 #@! TD.AperFunction*
D21*
X158977600Y-133007100D03*
X158977600Y-134277100D03*
X158977600Y-135547100D03*
X158977600Y-136817100D03*
X158977600Y-138087100D03*
X158977600Y-139357100D03*
X158977600Y-140627100D03*
X158977600Y-141897100D03*
X158977600Y-143167100D03*
X168377600Y-143167100D03*
X168377600Y-141897100D03*
X168377600Y-140627100D03*
X168377600Y-139357100D03*
X168377600Y-138087100D03*
X168377600Y-136817100D03*
X168377600Y-135547100D03*
X168377600Y-134277100D03*
X168377600Y-133007100D03*
X168225200Y-103543100D03*
X168225200Y-104813100D03*
X168225200Y-106083100D03*
X168225200Y-107353100D03*
X168225200Y-108623100D03*
X168225200Y-109893100D03*
X168225200Y-111163100D03*
X168225200Y-112433100D03*
X168225200Y-113703100D03*
X158825200Y-113703100D03*
X158825200Y-112433100D03*
X158825200Y-111163100D03*
X158825200Y-109893100D03*
X158825200Y-108623100D03*
X158825200Y-107353100D03*
X158825200Y-106083100D03*
X158825200Y-104813100D03*
X158825200Y-103543100D03*
X168250600Y-88963500D03*
X168250600Y-90233500D03*
X168250600Y-91503500D03*
X168250600Y-92773500D03*
X168250600Y-94043500D03*
X168250600Y-95313500D03*
X168250600Y-96583500D03*
X168250600Y-97853500D03*
X168250600Y-99123500D03*
X158850600Y-99123500D03*
X158850600Y-97853500D03*
X158850600Y-96583500D03*
X158850600Y-95313500D03*
X158850600Y-94043500D03*
X158850600Y-92773500D03*
X158850600Y-91503500D03*
X158850600Y-90233500D03*
X158850600Y-88963500D03*
X158850600Y-117792500D03*
X158850600Y-119062500D03*
X158850600Y-120332500D03*
X158850600Y-121602500D03*
X158850600Y-122872500D03*
X158850600Y-124142500D03*
X158850600Y-125412500D03*
X158850600Y-126682500D03*
X158850600Y-127952500D03*
X168250600Y-127952500D03*
X168250600Y-126682500D03*
X168250600Y-125412500D03*
X168250600Y-124142500D03*
X168250600Y-122872500D03*
X168250600Y-121602500D03*
X168250600Y-120332500D03*
X168250600Y-119062500D03*
X168250600Y-117792500D03*
D22*
X142348000Y-115129000D03*
X142848000Y-115129000D03*
X143348000Y-115129000D03*
X143848000Y-115129000D03*
X144348000Y-115129000D03*
X144848000Y-115129000D03*
X145348000Y-115129000D03*
X145848000Y-115129000D03*
X146348000Y-115129000D03*
X146848000Y-115129000D03*
X147348000Y-115129000D03*
X147848000Y-115129000D03*
X148348000Y-115129000D03*
X148848000Y-115129000D03*
X149348000Y-115129000D03*
X149848000Y-115129000D03*
X150348000Y-115129000D03*
X150848000Y-115129000D03*
X151348000Y-115129000D03*
X151848000Y-115129000D03*
X152348000Y-115129000D03*
X152848000Y-115129000D03*
X153348000Y-115129000D03*
X153848000Y-115129000D03*
X154348000Y-115129000D03*
X154848000Y-115129000D03*
X155348000Y-115129000D03*
X155848000Y-115129000D03*
X155848000Y-107629000D03*
X155348000Y-107629000D03*
X154848000Y-107629000D03*
X154348000Y-107629000D03*
X153848000Y-107629000D03*
X153348000Y-107629000D03*
X152848000Y-107629000D03*
X152348000Y-107629000D03*
X151848000Y-107629000D03*
X151348000Y-107629000D03*
X150848000Y-107629000D03*
X150348000Y-107629000D03*
X149848000Y-107629000D03*
X149348000Y-107629000D03*
X148848000Y-107629000D03*
X148348000Y-107629000D03*
X147848000Y-107629000D03*
X147348000Y-107629000D03*
X146848000Y-107629000D03*
X146348000Y-107629000D03*
X145848000Y-107629000D03*
X145348000Y-107629000D03*
X144848000Y-107629000D03*
X144348000Y-107629000D03*
X143848000Y-107629000D03*
X143348000Y-107629000D03*
X142848000Y-107629000D03*
X142348000Y-107629000D03*
D23*
X138303000Y-95948500D03*
D24*
X138303000Y-93408500D03*
X138303000Y-90868500D03*
D19*
X139001500Y-104838500D03*
X136461500Y-104838500D03*
X133921500Y-104838500D03*
D25*
X145859500Y-113284000D03*
X144843500Y-109283500D03*
X156908500Y-107759500D03*
X161417000Y-115062000D03*
X161607500Y-141986000D03*
X158877000Y-129476500D03*
X158877000Y-100647500D03*
X110807500Y-101981000D03*
X147320000Y-105854500D03*
X147320000Y-110109000D03*
X143510000Y-112585500D03*
X142113000Y-116903500D03*
X164084000Y-101536500D03*
X133858000Y-117284500D03*
X117856000Y-109791500D03*
X128651000Y-122618500D03*
X153797000Y-109982000D03*
X156273500Y-109982000D03*
X153543000Y-111125000D03*
X155638500Y-111188500D03*
X152844500Y-112395000D03*
X156146500Y-112395000D03*
D26*
X192024000Y-145605500D02*
X192024000Y-145351500D01*
X153348000Y-115129000D02*
X153348000Y-116708500D01*
X155348000Y-117003500D02*
X155348000Y-115129000D01*
X155067000Y-117284500D02*
X155348000Y-117003500D01*
X153924000Y-117284500D02*
X155067000Y-117284500D01*
X153348000Y-116708500D02*
X153924000Y-117284500D01*
X150848000Y-107629000D02*
X150848000Y-108867000D01*
X150848000Y-108867000D02*
X150622000Y-109093000D01*
X145859500Y-113284000D02*
X145034000Y-113284000D01*
X147348000Y-113883500D02*
X146748500Y-113284000D01*
X146748500Y-113284000D02*
X145859500Y-113284000D01*
X147348000Y-115129000D02*
X147348000Y-113883500D01*
X144848000Y-113470000D02*
X144848000Y-115129000D01*
X145034000Y-113284000D02*
X144848000Y-113470000D01*
X152844500Y-109093000D02*
X153035000Y-109093000D01*
X153225500Y-108902500D02*
X153348000Y-108780000D01*
X153348000Y-108780000D02*
X153348000Y-107629000D01*
X150622000Y-109093000D02*
X152844500Y-109093000D01*
X153035000Y-109093000D02*
X153225500Y-108902500D01*
X150304500Y-109093000D02*
X150622000Y-109093000D01*
X150304500Y-109093000D02*
X145034000Y-109093000D01*
X153348000Y-107629000D02*
X153348000Y-108526000D01*
X144848000Y-109279000D02*
X144843500Y-109283500D01*
X145034000Y-109283500D02*
X144843500Y-109474000D01*
X144848000Y-109279000D02*
X144848000Y-107629000D01*
X150812500Y-107664500D02*
X150848000Y-107629000D01*
X155848000Y-107629000D02*
X156778000Y-107629000D01*
X156778000Y-107629000D02*
X156908500Y-107759500D01*
X147348000Y-115129000D02*
X147348000Y-114201000D01*
X144848000Y-114295500D02*
X144848000Y-115129000D01*
D27*
X158825200Y-113703100D02*
X160693100Y-113703100D01*
X161417000Y-114427000D02*
X161417000Y-115062000D01*
X160693100Y-113703100D02*
X161417000Y-114427000D01*
D26*
X156146500Y-115062000D02*
X161417000Y-115062000D01*
D27*
X158977600Y-143167100D02*
X160426400Y-143167100D01*
X160426400Y-143167100D02*
X161607500Y-141986000D01*
D26*
X123063000Y-100901500D02*
X125653000Y-100901500D01*
X153348000Y-115129000D02*
X153348000Y-115946500D01*
X155348000Y-116051000D02*
X155348000Y-115129000D01*
X156146500Y-115062000D02*
X155415000Y-115062000D01*
X155415000Y-115062000D02*
X155348000Y-115129000D01*
X155915000Y-115062000D02*
X156146500Y-115062000D01*
X155915000Y-115062000D02*
X155848000Y-115129000D01*
D27*
X158850600Y-127952500D02*
X158850600Y-129450100D01*
X158850600Y-129450100D02*
X158877000Y-129476500D01*
X158850600Y-99123500D02*
X158850600Y-100621100D01*
X158850600Y-100621100D02*
X158877000Y-100647500D01*
D26*
X97613000Y-118681500D02*
X95073000Y-118681500D01*
X97613000Y-133921500D02*
X95073000Y-133921500D01*
D27*
X125653000Y-88201500D02*
X123063000Y-88201500D01*
D26*
X110807500Y-101981000D02*
X110807500Y-93726000D01*
X116332000Y-88201500D02*
X123063000Y-88201500D01*
X110807500Y-93726000D02*
X116332000Y-88201500D01*
D27*
X136767000Y-88201500D02*
X138303000Y-89737500D01*
X125653000Y-88201500D02*
X136767000Y-88201500D01*
X138303000Y-89737500D02*
X138303000Y-90868500D01*
D26*
X123063000Y-95821500D02*
X125653000Y-95821500D01*
X123063000Y-105981500D02*
X125653000Y-105981500D01*
X123063000Y-108521500D02*
X125653000Y-108521500D01*
X125653000Y-128841500D02*
X123063000Y-128841500D01*
X125653000Y-126301500D02*
X123063000Y-126301500D01*
X123063000Y-131381500D02*
X125653000Y-131381500D01*
X149034500Y-113347500D02*
X150558500Y-113347500D01*
X150848000Y-113637000D02*
X150848000Y-115129000D01*
X150558500Y-113347500D02*
X150848000Y-113637000D01*
X147320000Y-111569500D02*
X147320000Y-111633000D01*
X147320000Y-111633000D02*
X147510500Y-111823500D01*
X147510500Y-111823500D02*
X149034500Y-113347500D01*
X147320000Y-110109000D02*
X147320000Y-111569500D01*
X147320000Y-110109000D02*
X145669000Y-110109000D01*
X147348000Y-105882500D02*
X147320000Y-105854500D01*
X147348000Y-107629000D02*
X147348000Y-105882500D01*
X145669000Y-110109000D02*
X143510000Y-112268000D01*
X143510000Y-112268000D02*
X143510000Y-112585500D01*
X125653000Y-133921500D02*
X123063000Y-133921500D01*
X130111500Y-115527000D02*
X130111500Y-129463000D01*
X130111500Y-129463000D02*
X125653000Y-133921500D01*
X125653000Y-133921500D02*
X126555500Y-133921500D01*
X130586500Y-115302000D02*
X132651500Y-115302000D01*
X130111500Y-115302000D02*
X130586500Y-115302000D01*
X133126500Y-115302000D02*
X134728000Y-116903500D01*
X132651500Y-115302000D02*
X133126500Y-115302000D01*
X134728000Y-116903500D02*
X142113000Y-116903500D01*
X95073000Y-90741500D02*
X97613000Y-90741500D01*
X97613000Y-95821500D02*
X95073000Y-95821500D01*
X97613000Y-98361500D02*
X95073000Y-98361500D01*
X142348000Y-107629000D02*
X139315500Y-107629000D01*
X127571500Y-100280000D02*
X125653000Y-98361500D01*
X127571500Y-101155500D02*
X127571500Y-100280000D01*
X133350000Y-106934000D02*
X127571500Y-101155500D01*
X138620500Y-106934000D02*
X133350000Y-106934000D01*
X139315500Y-107629000D02*
X138620500Y-106934000D01*
X125653000Y-98361500D02*
X123063000Y-98361500D01*
X153416000Y-109283500D02*
X153352500Y-109283500D01*
X153352500Y-109283500D02*
X152971500Y-109664500D01*
X152781000Y-109664500D02*
X152971500Y-109664500D01*
X129730500Y-103949500D02*
X129222500Y-103441500D01*
X129222500Y-103441500D02*
X125653000Y-103441500D01*
X133159500Y-107378500D02*
X131445000Y-105664000D01*
X138176000Y-107378500D02*
X133159500Y-107378500D01*
X140779500Y-109982000D02*
X138176000Y-107378500D01*
X145161000Y-109982000D02*
X140779500Y-109982000D01*
X131445000Y-105664000D02*
X129730500Y-103949500D01*
X152781000Y-109664500D02*
X150558500Y-109664500D01*
X145732500Y-109410500D02*
X150050500Y-109410500D01*
X150050500Y-109410500D02*
X150114000Y-109410500D01*
X145161000Y-109982000D02*
X145732500Y-109410500D01*
X150304500Y-109410500D02*
X150558500Y-109664500D01*
X150114000Y-109410500D02*
X150304500Y-109410500D01*
X155348000Y-107629000D02*
X155348000Y-108875500D01*
X155348000Y-108875500D02*
X155003500Y-109220000D01*
X154686000Y-109283500D02*
X154940000Y-109283500D01*
X154686000Y-109283500D02*
X153416000Y-109283500D01*
X154940000Y-109283500D02*
X155003500Y-109220000D01*
X155321000Y-107656000D02*
X155348000Y-107629000D01*
X125653000Y-103441500D02*
X123063000Y-103441500D01*
X95073000Y-111061500D02*
X97613000Y-111061500D01*
X95073000Y-113601500D02*
X97613000Y-113601500D01*
X95073000Y-116141500D02*
X97613000Y-116141500D01*
X95073000Y-123761500D02*
X97613000Y-123761500D01*
X97613000Y-126301500D02*
X95073000Y-126301500D01*
X95073000Y-131381500D02*
X97613000Y-131381500D01*
D28*
X164084000Y-101536500D02*
X163957000Y-101536500D01*
X163957000Y-101536500D02*
X163957000Y-101409500D01*
D27*
X146209500Y-97630500D02*
X146081000Y-97630500D01*
X144526000Y-96075500D02*
X138176000Y-96075500D01*
X146081000Y-97630500D02*
X144526000Y-96075500D01*
D28*
X146209500Y-97630500D02*
X144677500Y-99162500D01*
X148971000Y-97630500D02*
X146209500Y-97630500D01*
X187198000Y-136461500D02*
X187198000Y-139001500D01*
X187198000Y-123761500D02*
X187198000Y-136461500D01*
D27*
X163957000Y-123126500D02*
X164274500Y-123126500D01*
X164274500Y-123126500D02*
X163957000Y-123126500D01*
D28*
X149123400Y-138620500D02*
X149123400Y-129222500D01*
X149123400Y-129222500D02*
X149174200Y-129171700D01*
X163957000Y-141351000D02*
X163957000Y-143446500D01*
X149123400Y-142392400D02*
X149123400Y-138620500D01*
X151701500Y-144970500D02*
X149123400Y-142392400D01*
X162433000Y-144970500D02*
X151701500Y-144970500D01*
X163957000Y-143446500D02*
X162433000Y-144970500D01*
D27*
X163957000Y-141351000D02*
X164655500Y-141351000D01*
X166471600Y-143167100D02*
X168377600Y-143167100D01*
X164655500Y-141351000D02*
X166471600Y-143167100D01*
X163957000Y-126238000D02*
X164592000Y-126238000D01*
X166306500Y-127952500D02*
X168250600Y-127952500D01*
X164592000Y-126238000D02*
X166306500Y-127952500D01*
X163957000Y-111760000D02*
X164274500Y-111760000D01*
X166217600Y-113703100D02*
X168225200Y-113703100D01*
X164274500Y-111760000D02*
X166217600Y-113703100D01*
D28*
X163957000Y-101409500D02*
X163957000Y-111760000D01*
X163957000Y-111760000D02*
X163957000Y-123126500D01*
X163957000Y-123126500D02*
X163957000Y-124333000D01*
X163957000Y-124333000D02*
X163957000Y-126238000D01*
X163957000Y-126238000D02*
X163957000Y-141351000D01*
X187198000Y-121221500D02*
X187198000Y-123761500D01*
X187198000Y-109156500D02*
X187198000Y-121221500D01*
X187198000Y-106616500D02*
X187198000Y-109156500D01*
X182943500Y-101409500D02*
X187198000Y-105664000D01*
X187198000Y-105664000D02*
X187198000Y-106616500D01*
X187198000Y-94551500D02*
X187198000Y-92011500D01*
X163957000Y-101409500D02*
X182943500Y-101409500D01*
X187198000Y-97155000D02*
X187198000Y-94551500D01*
X182943500Y-101409500D02*
X187198000Y-97155000D01*
D27*
X168250600Y-99123500D02*
X166243000Y-99123500D01*
X166243000Y-99123500D02*
X163957000Y-101409500D01*
D28*
X144677500Y-99162500D02*
X139001500Y-104838500D01*
X148107400Y-137604500D02*
X149123400Y-138620500D01*
X141605000Y-137604500D02*
X148107400Y-137604500D01*
X140843000Y-140652500D02*
X140843000Y-138366500D01*
X140843000Y-138366500D02*
X141605000Y-137604500D01*
D27*
X135763000Y-122071500D02*
X135763000Y-129476500D01*
X135763000Y-120840500D02*
X135763000Y-122071500D01*
X134532000Y-120840500D02*
X135763000Y-120840500D01*
X133858000Y-120166500D02*
X134532000Y-120840500D01*
X133858000Y-117284500D02*
X133858000Y-120166500D01*
D26*
X184658000Y-136461500D02*
X184658000Y-134048500D01*
X183832500Y-133223000D02*
X168593500Y-133223000D01*
X184658000Y-134048500D02*
X183832500Y-133223000D01*
X168593500Y-133223000D02*
X168377600Y-133007100D01*
X184658000Y-139001500D02*
X184594500Y-139001500D01*
X184594500Y-139001500D02*
X183388000Y-137795000D01*
X183388000Y-137795000D02*
X183388000Y-135445500D01*
X183388000Y-135445500D02*
X181673500Y-133731000D01*
X181673500Y-133731000D02*
X173609000Y-133731000D01*
X173609000Y-133731000D02*
X173062900Y-134277100D01*
X173062900Y-134277100D02*
X168377600Y-134277100D01*
X182118000Y-136461500D02*
X182118000Y-136271000D01*
X182118000Y-136271000D02*
X179895500Y-134048500D01*
X179895500Y-134048500D02*
X174561500Y-134048500D01*
X174561500Y-134048500D02*
X173062900Y-135547100D01*
X173062900Y-135547100D02*
X168377600Y-135547100D01*
X182118000Y-139001500D02*
X182118000Y-138684000D01*
X182118000Y-138684000D02*
X180848000Y-137414000D01*
X180848000Y-137414000D02*
X180848000Y-135826500D01*
X180848000Y-135826500D02*
X179451000Y-134429500D01*
X179451000Y-134429500D02*
X174942500Y-134429500D01*
X174942500Y-134429500D02*
X172554900Y-136817100D01*
X172554900Y-136817100D02*
X168377600Y-136817100D01*
X179578000Y-136461500D02*
X179578000Y-136080500D01*
X179578000Y-136080500D02*
X178244500Y-134747000D01*
X178244500Y-134747000D02*
X175514000Y-134747000D01*
X175514000Y-134747000D02*
X172173900Y-138087100D01*
X172173900Y-138087100D02*
X168377600Y-138087100D01*
X179578000Y-139001500D02*
X179451000Y-139001500D01*
X179451000Y-139001500D02*
X178308000Y-137858500D01*
X178308000Y-137858500D02*
X178308000Y-135763000D01*
X178308000Y-135763000D02*
X177609500Y-135064500D01*
X177609500Y-135064500D02*
X176403000Y-135064500D01*
X176403000Y-135064500D02*
X172110400Y-139357100D01*
X172110400Y-139357100D02*
X168377600Y-139357100D01*
X177038000Y-136461500D02*
X177038000Y-136969500D01*
X177038000Y-136969500D02*
X173380400Y-140627100D01*
X173380400Y-140627100D02*
X168377600Y-140627100D01*
X177038000Y-139001500D02*
X177038000Y-139509500D01*
X177038000Y-139509500D02*
X174650400Y-141897100D01*
X174650400Y-141897100D02*
X168377600Y-141897100D01*
X168250600Y-117792500D02*
X182753000Y-117792500D01*
X182753000Y-117792500D02*
X184658000Y-119697500D01*
X184658000Y-119697500D02*
X184658000Y-121221500D01*
X184658000Y-123761500D02*
X184658000Y-123634500D01*
X184658000Y-123634500D02*
X183388000Y-122364500D01*
X183388000Y-122364500D02*
X183388000Y-119951500D01*
X183388000Y-119951500D02*
X182054500Y-118618000D01*
X182054500Y-118618000D02*
X172974000Y-118618000D01*
X172974000Y-118618000D02*
X172529500Y-119062500D01*
X172529500Y-119062500D02*
X168250600Y-119062500D01*
X168250600Y-120332500D02*
X172974000Y-120332500D01*
X172974000Y-120332500D02*
X174371000Y-118935500D01*
X174371000Y-118935500D02*
X180848000Y-118935500D01*
X180848000Y-118935500D02*
X182118000Y-120205500D01*
X182118000Y-120205500D02*
X182118000Y-121221500D01*
X182118000Y-123761500D02*
X182118000Y-123253500D01*
X182118000Y-123253500D02*
X180848000Y-121983500D01*
X180848000Y-121983500D02*
X180848000Y-120142000D01*
X180848000Y-120142000D02*
X179959000Y-119253000D01*
X179959000Y-119253000D02*
X175069500Y-119253000D01*
X175069500Y-119253000D02*
X172720000Y-121602500D01*
X172720000Y-121602500D02*
X168250600Y-121602500D01*
X179578000Y-121221500D02*
X179578000Y-121094500D01*
X179578000Y-121094500D02*
X178054000Y-119570500D01*
X178054000Y-119570500D02*
X175768000Y-119570500D01*
X175768000Y-119570500D02*
X172466000Y-122872500D01*
X172466000Y-122872500D02*
X168250600Y-122872500D01*
X168250600Y-124142500D02*
X172212000Y-124142500D01*
X172212000Y-124142500D02*
X176466500Y-119888000D01*
X176466500Y-119888000D02*
X177800000Y-119888000D01*
X177800000Y-119888000D02*
X178308000Y-120396000D01*
X178308000Y-120396000D02*
X178308000Y-122491500D01*
X178308000Y-122491500D02*
X179578000Y-123761500D01*
X177038000Y-121221500D02*
X176784000Y-121221500D01*
X176784000Y-121221500D02*
X172593000Y-125412500D01*
X172593000Y-125412500D02*
X168250600Y-125412500D01*
X177038000Y-123761500D02*
X175641000Y-123761500D01*
X175641000Y-123761500D02*
X172720000Y-126682500D01*
X172720000Y-126682500D02*
X168250600Y-126682500D01*
X184658000Y-106616500D02*
X184658000Y-105410000D01*
X170014900Y-103543100D02*
X168225200Y-103543100D01*
X170815000Y-102743000D02*
X170014900Y-103543100D01*
X181991000Y-102743000D02*
X170815000Y-102743000D01*
X184658000Y-105410000D02*
X181991000Y-102743000D01*
X168225200Y-104813100D02*
X169443400Y-104813100D01*
X183388000Y-107886500D02*
X184658000Y-109156500D01*
X183388000Y-104902000D02*
X183388000Y-107886500D01*
X181610000Y-103124000D02*
X183388000Y-104902000D01*
X171132500Y-103124000D02*
X181610000Y-103124000D01*
X169443400Y-104813100D02*
X171132500Y-103124000D01*
X182118000Y-106616500D02*
X182118000Y-104267000D01*
X169506900Y-106083100D02*
X168225200Y-106083100D01*
X172021500Y-103568500D02*
X169506900Y-106083100D01*
X181419500Y-103568500D02*
X172021500Y-103568500D01*
X182118000Y-104267000D02*
X181419500Y-103568500D01*
X168225200Y-107353100D02*
X169252900Y-107353100D01*
X180848000Y-107886500D02*
X182118000Y-109156500D01*
X180848000Y-104457500D02*
X180848000Y-107886500D01*
X180340000Y-103949500D02*
X180848000Y-104457500D01*
X172656500Y-103949500D02*
X180340000Y-103949500D01*
X169252900Y-107353100D02*
X172656500Y-103949500D01*
X179578000Y-106616500D02*
X179578000Y-105219500D01*
X169506900Y-108623100D02*
X168225200Y-108623100D01*
X173799500Y-104330500D02*
X169506900Y-108623100D01*
X178689000Y-104330500D02*
X173799500Y-104330500D01*
X179578000Y-105219500D02*
X178689000Y-104330500D01*
X179578000Y-109156500D02*
X179578000Y-108839000D01*
X179578000Y-108839000D02*
X178308000Y-107569000D01*
X178308000Y-107569000D02*
X178308000Y-105283000D01*
X178308000Y-105283000D02*
X177863500Y-104838500D01*
X177863500Y-104838500D02*
X174625000Y-104838500D01*
X174625000Y-104838500D02*
X169570400Y-109893100D01*
X169570400Y-109893100D02*
X168225200Y-109893100D01*
X177038000Y-106616500D02*
X174307500Y-106616500D01*
X169760900Y-111163100D02*
X168225200Y-111163100D01*
X174307500Y-106616500D02*
X169760900Y-111163100D01*
X177038000Y-109156500D02*
X173164500Y-109156500D01*
X169887900Y-112433100D02*
X168225200Y-112433100D01*
X173164500Y-109156500D02*
X169887900Y-112433100D01*
X168250600Y-88963500D02*
X170180000Y-88963500D01*
X184658000Y-89725500D02*
X184658000Y-92011500D01*
X182943500Y-88011000D02*
X184658000Y-89725500D01*
X171132500Y-88011000D02*
X182943500Y-88011000D01*
X170180000Y-88963500D02*
X171132500Y-88011000D01*
X168250600Y-90233500D02*
X169672000Y-90233500D01*
X183388000Y-93281500D02*
X184658000Y-94551500D01*
X183388000Y-89408000D02*
X183388000Y-93281500D01*
X182499000Y-88519000D02*
X183388000Y-89408000D01*
X171386500Y-88519000D02*
X182499000Y-88519000D01*
X169672000Y-90233500D02*
X171386500Y-88519000D01*
X182118000Y-92011500D02*
X182118000Y-89535000D01*
X169672000Y-91503500D02*
X168250600Y-91503500D01*
X172085000Y-89090500D02*
X169672000Y-91503500D01*
X181673500Y-89090500D02*
X172085000Y-89090500D01*
X182118000Y-89535000D02*
X181673500Y-89090500D01*
X168250600Y-92773500D02*
X169164000Y-92773500D01*
X169164000Y-92773500D02*
X172402500Y-89535000D01*
X172402500Y-89535000D02*
X180276500Y-89535000D01*
X180276500Y-89535000D02*
X180848000Y-90106500D01*
X180848000Y-90106500D02*
X180848000Y-93281500D01*
X180848000Y-93281500D02*
X182118000Y-94551500D01*
X182118000Y-94551500D02*
X181927500Y-94551500D01*
X170180000Y-93535500D02*
X173355000Y-90360500D01*
X173355000Y-90360500D02*
X173799500Y-89916000D01*
X179578000Y-92011500D02*
X179578000Y-90614500D01*
X178879500Y-89916000D02*
X173799500Y-89916000D01*
X179578000Y-90614500D02*
X178879500Y-89916000D01*
X169672000Y-94043500D02*
X168250600Y-94043500D01*
X170180000Y-93535500D02*
X169672000Y-94043500D01*
X179578000Y-94551500D02*
X179578000Y-94488000D01*
X179578000Y-94488000D02*
X178308000Y-93218000D01*
X178308000Y-93218000D02*
X178308000Y-91059000D01*
X178308000Y-91059000D02*
X177673000Y-90424000D01*
X177673000Y-90424000D02*
X174561500Y-90424000D01*
X174561500Y-90424000D02*
X169672000Y-95313500D01*
X169672000Y-95313500D02*
X168250600Y-95313500D01*
X177038000Y-92011500D02*
X175006000Y-92011500D01*
X170434000Y-96583500D02*
X168250600Y-96583500D01*
X175006000Y-92011500D02*
X170434000Y-96583500D01*
X177038000Y-94551500D02*
X174117000Y-94551500D01*
X170815000Y-97853500D02*
X168250600Y-97853500D01*
X174117000Y-94551500D02*
X170815000Y-97853500D01*
X127635000Y-110490000D02*
X126936500Y-109791500D01*
X126936500Y-109791500D02*
X117856000Y-109791500D01*
X127635000Y-121094500D02*
X127635000Y-121856500D01*
X127635000Y-121094500D02*
X127635000Y-110490000D01*
X127635000Y-121856500D02*
X128397000Y-122618500D01*
X128397000Y-122618500D02*
X128651000Y-122618500D01*
X147848000Y-115129000D02*
X147848000Y-117241000D01*
X157035500Y-131065000D02*
X158977600Y-133007100D01*
X157035500Y-126428500D02*
X157035500Y-131065000D01*
X147848000Y-117241000D02*
X157035500Y-126428500D01*
X146848000Y-115129000D02*
X146848000Y-116749000D01*
X157835600Y-134277100D02*
X158977600Y-134277100D01*
X156654500Y-133096000D02*
X157835600Y-134277100D01*
X156654500Y-126555500D02*
X156654500Y-133096000D01*
X146848000Y-116749000D02*
X156654500Y-126555500D01*
X146348000Y-115129000D02*
X146348000Y-116820500D01*
X157391100Y-135547100D02*
X158977600Y-135547100D01*
X156337000Y-134493000D02*
X157391100Y-135547100D01*
X156337000Y-126809500D02*
X156337000Y-134493000D01*
X146348000Y-116820500D02*
X156337000Y-126809500D01*
X155956000Y-134810500D02*
X155956000Y-135191500D01*
X157581600Y-136817100D02*
X158977600Y-136817100D01*
X155956000Y-135191500D02*
X157581600Y-136817100D01*
X145848000Y-115129000D02*
X145848000Y-116892000D01*
X155956000Y-127000000D02*
X155956000Y-134810500D01*
X145848000Y-116892000D02*
X155956000Y-127000000D01*
X155575000Y-135826500D02*
X155575000Y-135890000D01*
X155575000Y-135890000D02*
X157772100Y-138087100D01*
X157772100Y-138087100D02*
X158977600Y-138087100D01*
X155448000Y-127063500D02*
X155575000Y-127190500D01*
X155575000Y-127190500D02*
X155575000Y-135826500D01*
X155575000Y-135890000D02*
X155575000Y-135826500D01*
X145348000Y-116963500D02*
X145348000Y-115129000D01*
X155448000Y-127063500D02*
X145348000Y-116963500D01*
X155067000Y-127254000D02*
X155130500Y-127317500D01*
X155130500Y-136842500D02*
X157645100Y-139357100D01*
X155130500Y-127317500D02*
X155130500Y-136842500D01*
X144348000Y-115129000D02*
X144348000Y-116535000D01*
X157645100Y-139357100D02*
X158977600Y-139357100D01*
X144348000Y-116535000D02*
X155067000Y-127254000D01*
X154686000Y-137096500D02*
X154686000Y-137604500D01*
X157708600Y-140627100D02*
X158977600Y-140627100D01*
X154686000Y-137604500D02*
X157708600Y-140627100D01*
X143848000Y-115129000D02*
X143848000Y-116543000D01*
X154686000Y-127381000D02*
X154686000Y-137096500D01*
X143848000Y-116543000D02*
X154686000Y-127381000D01*
X158216600Y-140627100D02*
X158977600Y-140627100D01*
X154305000Y-137604500D02*
X154305000Y-138366500D01*
X154305000Y-138366500D02*
X157835600Y-141897100D01*
X143348000Y-115129000D02*
X143348000Y-116614500D01*
X157835600Y-141897100D02*
X158977600Y-141897100D01*
X154305000Y-127571500D02*
X154305000Y-137604500D01*
X143348000Y-116614500D02*
X154305000Y-127571500D01*
X152348000Y-115129000D02*
X152348000Y-116407000D01*
X153733500Y-117792500D02*
X153987500Y-117792500D01*
X152348000Y-116407000D02*
X153733500Y-117792500D01*
X158850600Y-117792500D02*
X153987500Y-117792500D01*
X151848000Y-115129000D02*
X151848000Y-116542000D01*
X154368500Y-119062500D02*
X158850600Y-119062500D01*
X151848000Y-116542000D02*
X154368500Y-119062500D01*
X151348000Y-115129000D02*
X151348000Y-116613500D01*
X155067000Y-120332500D02*
X158850600Y-120332500D01*
X151348000Y-116613500D02*
X155067000Y-120332500D01*
X150348000Y-115129000D02*
X150348000Y-116375500D01*
X155575000Y-121602500D02*
X158850600Y-121602500D01*
X150348000Y-116375500D02*
X155575000Y-121602500D01*
X150348000Y-115129000D02*
X150348000Y-115931000D01*
X149848000Y-115129000D02*
X149848000Y-116574000D01*
X156146500Y-122872500D02*
X158850600Y-122872500D01*
X149848000Y-116574000D02*
X156146500Y-122872500D01*
X149848000Y-115129000D02*
X149848000Y-116066000D01*
X149348000Y-116459000D02*
X149348000Y-116836000D01*
X156654500Y-124142500D02*
X158850600Y-124142500D01*
X149348000Y-116836000D02*
X156654500Y-124142500D01*
X149348000Y-116328000D02*
X149348000Y-116459000D01*
X149348000Y-116328000D02*
X149348000Y-115129000D01*
X148848000Y-116840000D02*
X148848000Y-116971000D01*
X157289500Y-125412500D02*
X158850600Y-125412500D01*
X148848000Y-116971000D02*
X157289500Y-125412500D01*
X148848000Y-116395500D02*
X148848000Y-116840000D01*
X148848000Y-116395500D02*
X148848000Y-115129000D01*
X148348000Y-116522500D02*
X148348000Y-117106000D01*
X148348000Y-117106000D02*
X157924500Y-126682500D01*
X157924500Y-126682500D02*
X158850600Y-126682500D01*
X158850600Y-126682500D02*
X158242000Y-126682500D01*
X148348000Y-116522500D02*
X148348000Y-115129000D01*
X152848000Y-107629000D02*
X152848000Y-106422500D01*
X155727400Y-103543100D02*
X158825200Y-103543100D01*
X152848000Y-106422500D02*
X155727400Y-103543100D01*
X152848000Y-107629000D02*
X152848000Y-106867000D01*
X152844500Y-107625500D02*
X152848000Y-107629000D01*
X153848000Y-106616500D02*
X153848000Y-106375000D01*
X155409900Y-104813100D02*
X158825200Y-104813100D01*
X153848000Y-106375000D02*
X155409900Y-104813100D01*
X153848000Y-106616500D02*
X153848000Y-107629000D01*
X158799800Y-104838500D02*
X158825200Y-104813100D01*
X154348000Y-107629000D02*
X154348000Y-106446500D01*
X155194000Y-105600500D02*
X155638500Y-105600500D01*
X154348000Y-106446500D02*
X155194000Y-105600500D01*
X156908500Y-105600500D02*
X157391100Y-106083100D01*
X155638500Y-105600500D02*
X156908500Y-105600500D01*
X158825200Y-106083100D02*
X157391100Y-106083100D01*
X154348000Y-106700500D02*
X154348000Y-107629000D01*
X156781500Y-106553000D02*
X156400500Y-106172000D01*
X154848000Y-106454500D02*
X154848000Y-107629000D01*
X155130500Y-106172000D02*
X154848000Y-106454500D01*
X156400500Y-106172000D02*
X155130500Y-106172000D01*
X154848000Y-107629000D02*
X154848000Y-106899000D01*
X157581600Y-107353100D02*
X158825200Y-107353100D01*
X156781500Y-106553000D02*
X157581600Y-107353100D01*
X155479750Y-109251750D02*
X156495750Y-109251750D01*
X157124400Y-108623100D02*
X158825200Y-108623100D01*
X156495750Y-109251750D02*
X157124400Y-108623100D01*
X154848000Y-109883500D02*
X154848000Y-115129000D01*
X155479750Y-109251750D02*
X154848000Y-109883500D01*
X158825200Y-109893100D02*
X156362400Y-109893100D01*
X154348000Y-110533000D02*
X154348000Y-115129000D01*
X153797000Y-109982000D02*
X154348000Y-110533000D01*
X156362400Y-109893100D02*
X156273500Y-109982000D01*
X158825200Y-111163100D02*
X155663900Y-111163100D01*
X153848000Y-111430000D02*
X153848000Y-115129000D01*
X153543000Y-111125000D02*
X153848000Y-111430000D01*
X155663900Y-111163100D02*
X155638500Y-111188500D01*
X158825200Y-112433100D02*
X156184600Y-112433100D01*
X152848000Y-112398500D02*
X152848000Y-115129000D01*
X152844500Y-112395000D02*
X152848000Y-112398500D01*
X156184600Y-112433100D02*
X156146500Y-112395000D01*
X148348000Y-107629000D02*
X148348000Y-105652000D01*
X148348000Y-105652000D02*
X154178000Y-99822000D01*
X158850600Y-88963500D02*
X158051500Y-88963500D01*
X158051500Y-88963500D02*
X156591000Y-90424000D01*
X156591000Y-90424000D02*
X156591000Y-91503500D01*
X156591000Y-91503500D02*
X155194000Y-92900500D01*
X155194000Y-92900500D02*
X155194000Y-95123000D01*
X155194000Y-95123000D02*
X154178000Y-96139000D01*
X154178000Y-96139000D02*
X154178000Y-99822000D01*
X158850600Y-88963500D02*
X158178500Y-88963500D01*
X148848000Y-107629000D02*
X148848000Y-105723500D01*
X148848000Y-105723500D02*
X154559000Y-100012500D01*
X157607000Y-90233500D02*
X158850600Y-90233500D01*
X157035500Y-90805000D02*
X157607000Y-90233500D01*
X157035500Y-91630500D02*
X157035500Y-90805000D01*
X155575000Y-93091000D02*
X157035500Y-91630500D01*
X155575000Y-95313500D02*
X155575000Y-93091000D01*
X154559000Y-96329500D02*
X155575000Y-95313500D01*
X154559000Y-100012500D02*
X154559000Y-96329500D01*
X149348000Y-107629000D02*
X149348000Y-105858500D01*
X149348000Y-105858500D02*
X155003500Y-100203000D01*
X149348000Y-107629000D02*
X149348000Y-106684000D01*
X156019500Y-93535500D02*
X158051500Y-91503500D01*
X155003500Y-100203000D02*
X155003500Y-96456500D01*
X155003500Y-96456500D02*
X156019500Y-95440500D01*
X156019500Y-95440500D02*
X156019500Y-93535500D01*
X158051500Y-91503500D02*
X158850600Y-91503500D01*
X149848000Y-107629000D02*
X149848000Y-105930000D01*
X149848000Y-105930000D02*
X155448000Y-100330000D01*
X149848000Y-107629000D02*
X149848000Y-106755500D01*
X157543500Y-92773500D02*
X158850600Y-92773500D01*
X156400500Y-93916500D02*
X157543500Y-92773500D01*
X156400500Y-95631000D02*
X156400500Y-93916500D01*
X155448000Y-96583500D02*
X156400500Y-95631000D01*
X155448000Y-100330000D02*
X155448000Y-96583500D01*
X150348000Y-107629000D02*
X150348000Y-106001500D01*
X150348000Y-106001500D02*
X155829000Y-100520500D01*
X150348000Y-107629000D02*
X150348000Y-106954000D01*
X157480000Y-94043500D02*
X158850600Y-94043500D01*
X156845000Y-94678500D02*
X157480000Y-94043500D01*
X156845000Y-96012000D02*
X156845000Y-94678500D01*
X155829000Y-97028000D02*
X156845000Y-96012000D01*
X155829000Y-100520500D02*
X155829000Y-97028000D01*
X151348000Y-107629000D02*
X151348000Y-105573000D01*
X151348000Y-105573000D02*
X156210000Y-100711000D01*
X151348000Y-107629000D02*
X151348000Y-106716000D01*
X157226000Y-96012000D02*
X157924500Y-95313500D01*
X156210000Y-100711000D02*
X156210000Y-97726500D01*
X156210000Y-97726500D02*
X157226000Y-96710500D01*
X157226000Y-96710500D02*
X157226000Y-96012000D01*
X157924500Y-95313500D02*
X158850600Y-95313500D01*
X151848000Y-107629000D02*
X151848000Y-105708000D01*
X151848000Y-105708000D02*
X156654500Y-100901500D01*
X156654500Y-97980500D02*
X158051500Y-96583500D01*
X156654500Y-100901500D02*
X156654500Y-97980500D01*
X151848000Y-107629000D02*
X151848000Y-106724000D01*
X158051500Y-96583500D02*
X158850600Y-96583500D01*
X152348000Y-107629000D02*
X152348000Y-105970000D01*
X157543500Y-97853500D02*
X158850600Y-97853500D01*
X157162500Y-98234500D02*
X157543500Y-97853500D01*
X157162500Y-101155500D02*
X157162500Y-98234500D01*
X152348000Y-105970000D02*
X157162500Y-101155500D01*
X152348000Y-107629000D02*
X152348000Y-106732000D01*
X123063000Y-113601500D02*
X125653000Y-113601500D01*
X125653000Y-111061500D02*
X123063000Y-111061500D01*
X97613000Y-105981500D02*
X95073000Y-105981500D01*
X97613000Y-108521500D02*
X95073000Y-108521500D01*
X123063000Y-90741500D02*
X125653000Y-90741500D01*
X126492000Y-93281500D02*
X125653000Y-93281500D01*
X125653000Y-93281500D02*
X123063000Y-93281500D01*
X97613000Y-88201500D02*
X95073000Y-88201500D01*
X97613000Y-93281500D02*
X95073000Y-93281500D01*
X97613000Y-100901500D02*
X95073000Y-100901500D01*
X95073000Y-103441500D02*
X97613000Y-103441500D01*
X125653000Y-121221500D02*
X123063000Y-121221500D01*
X103759000Y-119189500D02*
X101727000Y-121221500D01*
X127508000Y-107251500D02*
X115824000Y-107251500D01*
X115697000Y-107251500D02*
X103759000Y-119189500D01*
X115824000Y-107251500D02*
X115697000Y-107251500D01*
X130111500Y-109855000D02*
X127508000Y-107251500D01*
X130111500Y-113327000D02*
X130111500Y-109855000D01*
X101727000Y-121221500D02*
X97613000Y-121221500D01*
X142348000Y-115129000D02*
X142173000Y-115129000D01*
X131211500Y-114427000D02*
X130111500Y-113327000D01*
X133413500Y-114427000D02*
X131211500Y-114427000D01*
X135445500Y-116459000D02*
X133413500Y-114427000D01*
X140843000Y-116459000D02*
X135445500Y-116459000D01*
X142173000Y-115129000D02*
X140843000Y-116459000D01*
X97613000Y-121221500D02*
X95073000Y-121221500D01*
X125653000Y-123761500D02*
X123063000Y-123761500D01*
X142848000Y-114273000D02*
X142848000Y-115129000D01*
X97613000Y-128841500D02*
X95073000Y-128841500D01*
X142848000Y-113638000D02*
X142848000Y-115129000D01*
X100330000Y-120078500D02*
X115824000Y-104584500D01*
X93599000Y-120078500D02*
X100330000Y-120078500D01*
X95073000Y-128841500D02*
X93726000Y-128841500D01*
X93091000Y-120586500D02*
X93599000Y-120078500D01*
X93091000Y-128206500D02*
X93091000Y-120586500D01*
X132651500Y-113327000D02*
X133202500Y-113327000D01*
X93726000Y-128841500D02*
X93091000Y-128206500D01*
X132651500Y-108902500D02*
X132651500Y-113327000D01*
X115824000Y-104584500D02*
X115824000Y-104521000D01*
X115824000Y-104521000D02*
X128270000Y-104521000D01*
X128270000Y-104521000D02*
X132651500Y-108902500D01*
X133202500Y-113327000D02*
X135699500Y-115824000D01*
X135699500Y-115824000D02*
X139700000Y-115824000D01*
X139700000Y-115824000D02*
X142049500Y-113474500D01*
X142049500Y-113474500D02*
X142684500Y-113474500D01*
X142684500Y-113474500D02*
X142848000Y-113638000D01*
X125653000Y-116141500D02*
X123063000Y-116141500D01*
X123063000Y-118681500D02*
X122364500Y-118681500D01*
X123063000Y-118681500D02*
X125653000Y-118681500D01*
M02*
