G04 #@! TF.GenerationSoftware,KiCad,Pcbnew,(5.0.1)-3*
G04 #@! TF.CreationDate,2018-10-30T11:50:23-04:00*
G04 #@! TF.ProjectId,ufcs,756663732E6B696361645F7063620000,rev?*
G04 #@! TF.SameCoordinates,Original*
G04 #@! TF.FileFunction,Soldermask,Bot*
G04 #@! TF.FilePolarity,Negative*
%FSLAX46Y46*%
G04 Gerber Fmt 4.6, Leading zero omitted, Abs format (unit mm)*
G04 Created by KiCad (PCBNEW (5.0.1)-3) date 30-Oct-18 11:50:23*
%MOMM*%
%LPD*%
G01*
G04 APERTURE LIST*
%ADD10C,0.100000*%
G04 APERTURE END LIST*
D10*
G36*
X196695296Y-140809509D02*
X196860547Y-140877959D01*
X197074197Y-140966455D01*
X197074200Y-140966457D01*
X197415197Y-141194303D01*
X197705197Y-141484303D01*
X197933043Y-141825300D01*
X197933045Y-141825303D01*
X198021541Y-142038953D01*
X198089991Y-142204204D01*
X198170000Y-142606439D01*
X198170000Y-143016561D01*
X198089991Y-143418796D01*
X198021541Y-143584047D01*
X197933045Y-143797697D01*
X197933043Y-143797700D01*
X197705197Y-144138697D01*
X197415197Y-144428697D01*
X197074200Y-144656543D01*
X197074197Y-144656545D01*
X196860547Y-144745041D01*
X196695296Y-144813491D01*
X196293061Y-144893500D01*
X195882939Y-144893500D01*
X195480704Y-144813491D01*
X195315453Y-144745041D01*
X195101803Y-144656545D01*
X195101800Y-144656543D01*
X194760803Y-144428697D01*
X194470803Y-144138697D01*
X194242957Y-143797700D01*
X194242955Y-143797697D01*
X194154459Y-143584047D01*
X194086009Y-143418796D01*
X194006000Y-143016561D01*
X194006000Y-142606439D01*
X194086009Y-142204204D01*
X194154459Y-142038953D01*
X194242955Y-141825303D01*
X194242957Y-141825300D01*
X194470803Y-141484303D01*
X194760803Y-141194303D01*
X195101800Y-140966457D01*
X195101803Y-140966455D01*
X195315453Y-140877959D01*
X195480704Y-140809509D01*
X195882939Y-140729500D01*
X196293061Y-140729500D01*
X196695296Y-140809509D01*
X196695296Y-140809509D01*
G37*
G36*
X90650296Y-140809509D02*
X90815547Y-140877959D01*
X91029197Y-140966455D01*
X91029200Y-140966457D01*
X91370197Y-141194303D01*
X91660197Y-141484303D01*
X91888043Y-141825300D01*
X91888045Y-141825303D01*
X91976541Y-142038953D01*
X92044991Y-142204204D01*
X92125000Y-142606439D01*
X92125000Y-143016561D01*
X92044991Y-143418796D01*
X91976541Y-143584047D01*
X91888045Y-143797697D01*
X91888043Y-143797700D01*
X91660197Y-144138697D01*
X91370197Y-144428697D01*
X91029200Y-144656543D01*
X91029197Y-144656545D01*
X90815547Y-144745041D01*
X90650296Y-144813491D01*
X90248061Y-144893500D01*
X89837939Y-144893500D01*
X89435704Y-144813491D01*
X89270453Y-144745041D01*
X89056803Y-144656545D01*
X89056800Y-144656543D01*
X88715803Y-144428697D01*
X88425803Y-144138697D01*
X88197957Y-143797700D01*
X88197955Y-143797697D01*
X88109459Y-143584047D01*
X88041009Y-143418796D01*
X87961000Y-143016561D01*
X87961000Y-142606439D01*
X88041009Y-142204204D01*
X88109459Y-142038953D01*
X88197955Y-141825303D01*
X88197957Y-141825300D01*
X88425803Y-141484303D01*
X88715803Y-141194303D01*
X89056800Y-140966457D01*
X89056803Y-140966455D01*
X89270453Y-140877959D01*
X89435704Y-140809509D01*
X89837939Y-140729500D01*
X90248061Y-140729500D01*
X90650296Y-140809509D01*
X90650296Y-140809509D01*
G37*
G36*
X136663000Y-141552500D02*
X134863000Y-141552500D01*
X134863000Y-139752500D01*
X136663000Y-139752500D01*
X136663000Y-141552500D01*
X136663000Y-141552500D01*
G37*
G36*
X143559430Y-139765522D02*
X143729081Y-139816985D01*
X143885433Y-139900557D01*
X144022475Y-140013025D01*
X144134943Y-140150067D01*
X144218515Y-140306419D01*
X144269978Y-140476070D01*
X144287354Y-140652500D01*
X144269978Y-140828930D01*
X144218515Y-140998581D01*
X144134943Y-141154933D01*
X144022475Y-141291975D01*
X143885433Y-141404443D01*
X143729081Y-141488015D01*
X143559430Y-141539478D01*
X143427211Y-141552500D01*
X143338789Y-141552500D01*
X143206570Y-141539478D01*
X143036919Y-141488015D01*
X142880567Y-141404443D01*
X142743525Y-141291975D01*
X142631057Y-141154933D01*
X142547485Y-140998581D01*
X142496022Y-140828930D01*
X142478646Y-140652500D01*
X142496022Y-140476070D01*
X142547485Y-140306419D01*
X142631057Y-140150067D01*
X142743525Y-140013025D01*
X142880567Y-139900557D01*
X143036919Y-139816985D01*
X143206570Y-139765522D01*
X143338789Y-139752500D01*
X143427211Y-139752500D01*
X143559430Y-139765522D01*
X143559430Y-139765522D01*
G37*
G36*
X141019430Y-139765522D02*
X141189081Y-139816985D01*
X141345433Y-139900557D01*
X141482475Y-140013025D01*
X141594943Y-140150067D01*
X141678515Y-140306419D01*
X141729978Y-140476070D01*
X141747354Y-140652500D01*
X141729978Y-140828930D01*
X141678515Y-140998581D01*
X141594943Y-141154933D01*
X141482475Y-141291975D01*
X141345433Y-141404443D01*
X141189081Y-141488015D01*
X141019430Y-141539478D01*
X140887211Y-141552500D01*
X140798789Y-141552500D01*
X140666570Y-141539478D01*
X140496919Y-141488015D01*
X140340567Y-141404443D01*
X140203525Y-141291975D01*
X140091057Y-141154933D01*
X140007485Y-140998581D01*
X139956022Y-140828930D01*
X139938646Y-140652500D01*
X139956022Y-140476070D01*
X140007485Y-140306419D01*
X140091057Y-140150067D01*
X140203525Y-140013025D01*
X140340567Y-139900557D01*
X140496919Y-139816985D01*
X140666570Y-139765522D01*
X140798789Y-139752500D01*
X140887211Y-139752500D01*
X141019430Y-139765522D01*
X141019430Y-139765522D01*
G37*
G36*
X138479430Y-139765522D02*
X138649081Y-139816985D01*
X138805433Y-139900557D01*
X138942475Y-140013025D01*
X139054943Y-140150067D01*
X139138515Y-140306419D01*
X139189978Y-140476070D01*
X139207354Y-140652500D01*
X139189978Y-140828930D01*
X139138515Y-140998581D01*
X139054943Y-141154933D01*
X138942475Y-141291975D01*
X138805433Y-141404443D01*
X138649081Y-141488015D01*
X138479430Y-141539478D01*
X138347211Y-141552500D01*
X138258789Y-141552500D01*
X138126570Y-141539478D01*
X137956919Y-141488015D01*
X137800567Y-141404443D01*
X137663525Y-141291975D01*
X137551057Y-141154933D01*
X137467485Y-140998581D01*
X137416022Y-140828930D01*
X137398646Y-140652500D01*
X137416022Y-140476070D01*
X137467485Y-140306419D01*
X137551057Y-140150067D01*
X137663525Y-140013025D01*
X137800567Y-139900557D01*
X137956919Y-139816985D01*
X138126570Y-139765522D01*
X138258789Y-139752500D01*
X138347211Y-139752500D01*
X138479430Y-139765522D01*
X138479430Y-139765522D01*
G37*
G36*
X149281207Y-137077148D02*
X149432950Y-137123178D01*
X149572797Y-137197928D01*
X149695375Y-137298525D01*
X149795972Y-137421102D01*
X149870722Y-137560949D01*
X149916752Y-137712692D01*
X149928400Y-137830954D01*
X149928400Y-139410046D01*
X149916752Y-139528308D01*
X149870722Y-139680051D01*
X149795972Y-139819898D01*
X149695375Y-139942475D01*
X149572798Y-140043072D01*
X149432951Y-140117822D01*
X149281208Y-140163852D01*
X149123400Y-140179395D01*
X148965593Y-140163852D01*
X148813850Y-140117822D01*
X148674003Y-140043072D01*
X148551426Y-139942475D01*
X148450829Y-139819898D01*
X148376079Y-139680051D01*
X148330049Y-139528308D01*
X148318401Y-139410046D01*
X148318400Y-137830955D01*
X148330048Y-137712693D01*
X148376078Y-137560950D01*
X148450828Y-137421103D01*
X148551425Y-137298525D01*
X148674002Y-137197928D01*
X148813849Y-137123178D01*
X148965592Y-137077148D01*
X149123400Y-137061605D01*
X149281207Y-137077148D01*
X149281207Y-137077148D01*
G37*
G36*
X151821207Y-137077148D02*
X151972950Y-137123178D01*
X152112797Y-137197928D01*
X152235375Y-137298525D01*
X152335972Y-137421102D01*
X152410722Y-137560949D01*
X152456752Y-137712692D01*
X152468400Y-137830954D01*
X152468400Y-139410046D01*
X152456752Y-139528308D01*
X152410722Y-139680051D01*
X152335972Y-139819898D01*
X152235375Y-139942475D01*
X152112798Y-140043072D01*
X151972951Y-140117822D01*
X151821208Y-140163852D01*
X151663400Y-140179395D01*
X151505593Y-140163852D01*
X151353850Y-140117822D01*
X151214003Y-140043072D01*
X151091426Y-139942475D01*
X150990829Y-139819898D01*
X150916079Y-139680051D01*
X150870049Y-139528308D01*
X150858401Y-139410046D01*
X150858400Y-137830955D01*
X150870048Y-137712693D01*
X150916078Y-137560950D01*
X150990828Y-137421103D01*
X151091425Y-137298525D01*
X151214002Y-137197928D01*
X151353849Y-137123178D01*
X151505592Y-137077148D01*
X151663400Y-137061605D01*
X151821207Y-137077148D01*
X151821207Y-137077148D01*
G37*
G36*
X184837097Y-138101119D02*
X185009311Y-138153360D01*
X185168025Y-138238194D01*
X185307138Y-138352362D01*
X185421306Y-138491475D01*
X185506140Y-138650189D01*
X185558381Y-138822403D01*
X185576020Y-139001500D01*
X185558381Y-139180597D01*
X185506140Y-139352811D01*
X185421306Y-139511525D01*
X185307138Y-139650638D01*
X185168025Y-139764806D01*
X185064955Y-139819898D01*
X185009311Y-139849640D01*
X184837097Y-139901881D01*
X184702880Y-139915100D01*
X184613120Y-139915100D01*
X184478903Y-139901881D01*
X184306689Y-139849640D01*
X184251045Y-139819898D01*
X184147975Y-139764806D01*
X184008862Y-139650638D01*
X183894694Y-139511525D01*
X183809860Y-139352811D01*
X183757619Y-139180597D01*
X183739980Y-139001500D01*
X183757619Y-138822403D01*
X183809860Y-138650189D01*
X183894694Y-138491475D01*
X184008862Y-138352362D01*
X184147975Y-138238194D01*
X184306689Y-138153360D01*
X184478903Y-138101119D01*
X184613120Y-138087900D01*
X184702880Y-138087900D01*
X184837097Y-138101119D01*
X184837097Y-138101119D01*
G37*
G36*
X187377097Y-138101119D02*
X187549311Y-138153360D01*
X187708025Y-138238194D01*
X187847138Y-138352362D01*
X187961306Y-138491475D01*
X188046140Y-138650189D01*
X188098381Y-138822403D01*
X188116020Y-139001500D01*
X188098381Y-139180597D01*
X188046140Y-139352811D01*
X187961306Y-139511525D01*
X187847138Y-139650638D01*
X187708025Y-139764806D01*
X187604955Y-139819898D01*
X187549311Y-139849640D01*
X187377097Y-139901881D01*
X187242880Y-139915100D01*
X187153120Y-139915100D01*
X187018903Y-139901881D01*
X186846689Y-139849640D01*
X186791045Y-139819898D01*
X186687975Y-139764806D01*
X186548862Y-139650638D01*
X186434694Y-139511525D01*
X186349860Y-139352811D01*
X186297619Y-139180597D01*
X186279980Y-139001500D01*
X186297619Y-138822403D01*
X186349860Y-138650189D01*
X186434694Y-138491475D01*
X186548862Y-138352362D01*
X186687975Y-138238194D01*
X186846689Y-138153360D01*
X187018903Y-138101119D01*
X187153120Y-138087900D01*
X187242880Y-138087900D01*
X187377097Y-138101119D01*
X187377097Y-138101119D01*
G37*
G36*
X182297097Y-138101119D02*
X182469311Y-138153360D01*
X182628025Y-138238194D01*
X182767138Y-138352362D01*
X182881306Y-138491475D01*
X182966140Y-138650189D01*
X183018381Y-138822403D01*
X183036020Y-139001500D01*
X183018381Y-139180597D01*
X182966140Y-139352811D01*
X182881306Y-139511525D01*
X182767138Y-139650638D01*
X182628025Y-139764806D01*
X182524955Y-139819898D01*
X182469311Y-139849640D01*
X182297097Y-139901881D01*
X182162880Y-139915100D01*
X182073120Y-139915100D01*
X181938903Y-139901881D01*
X181766689Y-139849640D01*
X181711045Y-139819898D01*
X181607975Y-139764806D01*
X181468862Y-139650638D01*
X181354694Y-139511525D01*
X181269860Y-139352811D01*
X181217619Y-139180597D01*
X181199980Y-139001500D01*
X181217619Y-138822403D01*
X181269860Y-138650189D01*
X181354694Y-138491475D01*
X181468862Y-138352362D01*
X181607975Y-138238194D01*
X181766689Y-138153360D01*
X181938903Y-138101119D01*
X182073120Y-138087900D01*
X182162880Y-138087900D01*
X182297097Y-138101119D01*
X182297097Y-138101119D01*
G37*
G36*
X179757097Y-138101119D02*
X179929311Y-138153360D01*
X180088025Y-138238194D01*
X180227138Y-138352362D01*
X180341306Y-138491475D01*
X180426140Y-138650189D01*
X180478381Y-138822403D01*
X180496020Y-139001500D01*
X180478381Y-139180597D01*
X180426140Y-139352811D01*
X180341306Y-139511525D01*
X180227138Y-139650638D01*
X180088025Y-139764806D01*
X179984955Y-139819898D01*
X179929311Y-139849640D01*
X179757097Y-139901881D01*
X179622880Y-139915100D01*
X179533120Y-139915100D01*
X179398903Y-139901881D01*
X179226689Y-139849640D01*
X179171045Y-139819898D01*
X179067975Y-139764806D01*
X178928862Y-139650638D01*
X178814694Y-139511525D01*
X178729860Y-139352811D01*
X178677619Y-139180597D01*
X178659980Y-139001500D01*
X178677619Y-138822403D01*
X178729860Y-138650189D01*
X178814694Y-138491475D01*
X178928862Y-138352362D01*
X179067975Y-138238194D01*
X179226689Y-138153360D01*
X179398903Y-138101119D01*
X179533120Y-138087900D01*
X179622880Y-138087900D01*
X179757097Y-138101119D01*
X179757097Y-138101119D01*
G37*
G36*
X177217097Y-138101119D02*
X177389311Y-138153360D01*
X177548025Y-138238194D01*
X177687138Y-138352362D01*
X177801306Y-138491475D01*
X177886140Y-138650189D01*
X177938381Y-138822403D01*
X177956020Y-139001500D01*
X177938381Y-139180597D01*
X177886140Y-139352811D01*
X177801306Y-139511525D01*
X177687138Y-139650638D01*
X177548025Y-139764806D01*
X177444955Y-139819898D01*
X177389311Y-139849640D01*
X177217097Y-139901881D01*
X177082880Y-139915100D01*
X176993120Y-139915100D01*
X176858903Y-139901881D01*
X176686689Y-139849640D01*
X176631045Y-139819898D01*
X176527975Y-139764806D01*
X176388862Y-139650638D01*
X176274694Y-139511525D01*
X176189860Y-139352811D01*
X176137619Y-139180597D01*
X176119980Y-139001500D01*
X176137619Y-138822403D01*
X176189860Y-138650189D01*
X176274694Y-138491475D01*
X176388862Y-138352362D01*
X176527975Y-138238194D01*
X176686689Y-138153360D01*
X176858903Y-138101119D01*
X176993120Y-138087900D01*
X177082880Y-138087900D01*
X177217097Y-138101119D01*
X177217097Y-138101119D01*
G37*
G36*
X188111600Y-137375100D02*
X186284400Y-137375100D01*
X186284400Y-135547900D01*
X188111600Y-135547900D01*
X188111600Y-137375100D01*
X188111600Y-137375100D01*
G37*
G36*
X184837097Y-135561119D02*
X185009311Y-135613360D01*
X185168025Y-135698194D01*
X185307138Y-135812362D01*
X185421306Y-135951475D01*
X185506140Y-136110189D01*
X185558381Y-136282403D01*
X185576020Y-136461500D01*
X185558381Y-136640597D01*
X185506140Y-136812811D01*
X185421306Y-136971525D01*
X185307138Y-137110638D01*
X185168025Y-137224806D01*
X185168023Y-137224807D01*
X185009311Y-137309640D01*
X184837097Y-137361881D01*
X184702880Y-137375100D01*
X184613120Y-137375100D01*
X184478903Y-137361881D01*
X184306689Y-137309640D01*
X184147977Y-137224807D01*
X184147975Y-137224806D01*
X184008862Y-137110638D01*
X183894694Y-136971525D01*
X183809860Y-136812811D01*
X183757619Y-136640597D01*
X183739980Y-136461500D01*
X183757619Y-136282403D01*
X183809860Y-136110189D01*
X183894694Y-135951475D01*
X184008862Y-135812362D01*
X184147975Y-135698194D01*
X184306689Y-135613360D01*
X184478903Y-135561119D01*
X184613120Y-135547900D01*
X184702880Y-135547900D01*
X184837097Y-135561119D01*
X184837097Y-135561119D01*
G37*
G36*
X177217097Y-135561119D02*
X177389311Y-135613360D01*
X177548025Y-135698194D01*
X177687138Y-135812362D01*
X177801306Y-135951475D01*
X177886140Y-136110189D01*
X177938381Y-136282403D01*
X177956020Y-136461500D01*
X177938381Y-136640597D01*
X177886140Y-136812811D01*
X177801306Y-136971525D01*
X177687138Y-137110638D01*
X177548025Y-137224806D01*
X177548023Y-137224807D01*
X177389311Y-137309640D01*
X177217097Y-137361881D01*
X177082880Y-137375100D01*
X176993120Y-137375100D01*
X176858903Y-137361881D01*
X176686689Y-137309640D01*
X176527977Y-137224807D01*
X176527975Y-137224806D01*
X176388862Y-137110638D01*
X176274694Y-136971525D01*
X176189860Y-136812811D01*
X176137619Y-136640597D01*
X176119980Y-136461500D01*
X176137619Y-136282403D01*
X176189860Y-136110189D01*
X176274694Y-135951475D01*
X176388862Y-135812362D01*
X176527975Y-135698194D01*
X176686689Y-135613360D01*
X176858903Y-135561119D01*
X176993120Y-135547900D01*
X177082880Y-135547900D01*
X177217097Y-135561119D01*
X177217097Y-135561119D01*
G37*
G36*
X182297097Y-135561119D02*
X182469311Y-135613360D01*
X182628025Y-135698194D01*
X182767138Y-135812362D01*
X182881306Y-135951475D01*
X182966140Y-136110189D01*
X183018381Y-136282403D01*
X183036020Y-136461500D01*
X183018381Y-136640597D01*
X182966140Y-136812811D01*
X182881306Y-136971525D01*
X182767138Y-137110638D01*
X182628025Y-137224806D01*
X182628023Y-137224807D01*
X182469311Y-137309640D01*
X182297097Y-137361881D01*
X182162880Y-137375100D01*
X182073120Y-137375100D01*
X181938903Y-137361881D01*
X181766689Y-137309640D01*
X181607977Y-137224807D01*
X181607975Y-137224806D01*
X181468862Y-137110638D01*
X181354694Y-136971525D01*
X181269860Y-136812811D01*
X181217619Y-136640597D01*
X181199980Y-136461500D01*
X181217619Y-136282403D01*
X181269860Y-136110189D01*
X181354694Y-135951475D01*
X181468862Y-135812362D01*
X181607975Y-135698194D01*
X181766689Y-135613360D01*
X181938903Y-135561119D01*
X182073120Y-135547900D01*
X182162880Y-135547900D01*
X182297097Y-135561119D01*
X182297097Y-135561119D01*
G37*
G36*
X179757097Y-135561119D02*
X179929311Y-135613360D01*
X180088025Y-135698194D01*
X180227138Y-135812362D01*
X180341306Y-135951475D01*
X180426140Y-136110189D01*
X180478381Y-136282403D01*
X180496020Y-136461500D01*
X180478381Y-136640597D01*
X180426140Y-136812811D01*
X180341306Y-136971525D01*
X180227138Y-137110638D01*
X180088025Y-137224806D01*
X180088023Y-137224807D01*
X179929311Y-137309640D01*
X179757097Y-137361881D01*
X179622880Y-137375100D01*
X179533120Y-137375100D01*
X179398903Y-137361881D01*
X179226689Y-137309640D01*
X179067977Y-137224807D01*
X179067975Y-137224806D01*
X178928862Y-137110638D01*
X178814694Y-136971525D01*
X178729860Y-136812811D01*
X178677619Y-136640597D01*
X178659980Y-136461500D01*
X178677619Y-136282403D01*
X178729860Y-136110189D01*
X178814694Y-135951475D01*
X178928862Y-135812362D01*
X179067975Y-135698194D01*
X179226689Y-135613360D01*
X179398903Y-135561119D01*
X179533120Y-135547900D01*
X179622880Y-135547900D01*
X179757097Y-135561119D01*
X179757097Y-135561119D01*
G37*
G36*
X126180422Y-133280904D02*
X126302948Y-133318072D01*
X126415866Y-133378428D01*
X126514843Y-133459657D01*
X126596072Y-133558634D01*
X126656428Y-133671552D01*
X126693596Y-133794078D01*
X126706145Y-133921500D01*
X126693596Y-134048922D01*
X126656428Y-134171448D01*
X126596072Y-134284366D01*
X126514843Y-134383343D01*
X126415866Y-134464572D01*
X126302948Y-134524928D01*
X126180422Y-134562096D01*
X126084936Y-134571500D01*
X125221064Y-134571500D01*
X125125578Y-134562096D01*
X125003052Y-134524928D01*
X124890134Y-134464572D01*
X124791157Y-134383343D01*
X124709928Y-134284366D01*
X124649572Y-134171448D01*
X124612404Y-134048922D01*
X124599855Y-133921500D01*
X124612404Y-133794078D01*
X124649572Y-133671552D01*
X124709928Y-133558634D01*
X124791157Y-133459657D01*
X124890134Y-133378428D01*
X125003052Y-133318072D01*
X125125578Y-133280904D01*
X125221064Y-133271500D01*
X126084936Y-133271500D01*
X126180422Y-133280904D01*
X126180422Y-133280904D01*
G37*
G36*
X123590422Y-133280904D02*
X123712948Y-133318072D01*
X123825866Y-133378428D01*
X123924843Y-133459657D01*
X124006072Y-133558634D01*
X124066428Y-133671552D01*
X124103596Y-133794078D01*
X124116145Y-133921500D01*
X124103596Y-134048922D01*
X124066428Y-134171448D01*
X124006072Y-134284366D01*
X123924843Y-134383343D01*
X123825866Y-134464572D01*
X123712948Y-134524928D01*
X123590422Y-134562096D01*
X123494936Y-134571500D01*
X122631064Y-134571500D01*
X122535578Y-134562096D01*
X122413052Y-134524928D01*
X122300134Y-134464572D01*
X122201157Y-134383343D01*
X122119928Y-134284366D01*
X122059572Y-134171448D01*
X122022404Y-134048922D01*
X122009855Y-133921500D01*
X122022404Y-133794078D01*
X122059572Y-133671552D01*
X122119928Y-133558634D01*
X122201157Y-133459657D01*
X122300134Y-133378428D01*
X122413052Y-133318072D01*
X122535578Y-133280904D01*
X122631064Y-133271500D01*
X123494936Y-133271500D01*
X123590422Y-133280904D01*
X123590422Y-133280904D01*
G37*
G36*
X98140422Y-133280904D02*
X98262948Y-133318072D01*
X98375866Y-133378428D01*
X98474843Y-133459657D01*
X98556072Y-133558634D01*
X98616428Y-133671552D01*
X98653596Y-133794078D01*
X98666145Y-133921500D01*
X98653596Y-134048922D01*
X98616428Y-134171448D01*
X98556072Y-134284366D01*
X98474843Y-134383343D01*
X98375866Y-134464572D01*
X98262948Y-134524928D01*
X98140422Y-134562096D01*
X98044936Y-134571500D01*
X97181064Y-134571500D01*
X97085578Y-134562096D01*
X96963052Y-134524928D01*
X96850134Y-134464572D01*
X96751157Y-134383343D01*
X96669928Y-134284366D01*
X96609572Y-134171448D01*
X96572404Y-134048922D01*
X96559855Y-133921500D01*
X96572404Y-133794078D01*
X96609572Y-133671552D01*
X96669928Y-133558634D01*
X96751157Y-133459657D01*
X96850134Y-133378428D01*
X96963052Y-133318072D01*
X97085578Y-133280904D01*
X97181064Y-133271500D01*
X98044936Y-133271500D01*
X98140422Y-133280904D01*
X98140422Y-133280904D01*
G37*
G36*
X95600422Y-133280904D02*
X95722948Y-133318072D01*
X95835866Y-133378428D01*
X95934843Y-133459657D01*
X96016072Y-133558634D01*
X96076428Y-133671552D01*
X96113596Y-133794078D01*
X96126145Y-133921500D01*
X96113596Y-134048922D01*
X96076428Y-134171448D01*
X96016072Y-134284366D01*
X95934843Y-134383343D01*
X95835866Y-134464572D01*
X95722948Y-134524928D01*
X95600422Y-134562096D01*
X95504936Y-134571500D01*
X94641064Y-134571500D01*
X94545578Y-134562096D01*
X94423052Y-134524928D01*
X94310134Y-134464572D01*
X94211157Y-134383343D01*
X94129928Y-134284366D01*
X94069572Y-134171448D01*
X94032404Y-134048922D01*
X94019855Y-133921500D01*
X94032404Y-133794078D01*
X94069572Y-133671552D01*
X94129928Y-133558634D01*
X94211157Y-133459657D01*
X94310134Y-133378428D01*
X94423052Y-133318072D01*
X94545578Y-133280904D01*
X94641064Y-133271500D01*
X95504936Y-133271500D01*
X95600422Y-133280904D01*
X95600422Y-133280904D01*
G37*
G36*
X130078784Y-131496300D02*
X130123297Y-131509804D01*
X130164312Y-131531726D01*
X130200267Y-131561233D01*
X130229774Y-131597188D01*
X130251696Y-131638203D01*
X130265200Y-131682716D01*
X130270000Y-131731454D01*
X130270000Y-132301546D01*
X130265200Y-132350284D01*
X130251696Y-132394797D01*
X130229774Y-132435812D01*
X130200267Y-132471767D01*
X130164312Y-132501274D01*
X130123297Y-132523196D01*
X130078784Y-132536700D01*
X130030046Y-132541500D01*
X129359954Y-132541500D01*
X129311216Y-132536700D01*
X129266703Y-132523196D01*
X129225688Y-132501274D01*
X129189733Y-132471767D01*
X129160226Y-132435812D01*
X129138304Y-132394797D01*
X129124800Y-132350284D01*
X129120000Y-132301546D01*
X129120000Y-131731454D01*
X129124800Y-131682716D01*
X129138304Y-131638203D01*
X129160226Y-131597188D01*
X129189733Y-131561233D01*
X129225688Y-131531726D01*
X129266703Y-131509804D01*
X129311216Y-131496300D01*
X129359954Y-131491500D01*
X130030046Y-131491500D01*
X130078784Y-131496300D01*
X130078784Y-131496300D01*
G37*
G36*
X131828784Y-131496300D02*
X131873297Y-131509804D01*
X131914312Y-131531726D01*
X131950267Y-131561233D01*
X131979774Y-131597188D01*
X132001696Y-131638203D01*
X132015200Y-131682716D01*
X132020000Y-131731454D01*
X132020000Y-132301546D01*
X132015200Y-132350284D01*
X132001696Y-132394797D01*
X131979774Y-132435812D01*
X131950267Y-132471767D01*
X131914312Y-132501274D01*
X131873297Y-132523196D01*
X131828784Y-132536700D01*
X131780046Y-132541500D01*
X131109954Y-132541500D01*
X131061216Y-132536700D01*
X131016703Y-132523196D01*
X130975688Y-132501274D01*
X130939733Y-132471767D01*
X130910226Y-132435812D01*
X130888304Y-132394797D01*
X130874800Y-132350284D01*
X130870000Y-132301546D01*
X130870000Y-131731454D01*
X130874800Y-131682716D01*
X130888304Y-131638203D01*
X130910226Y-131597188D01*
X130939733Y-131561233D01*
X130975688Y-131531726D01*
X131016703Y-131509804D01*
X131061216Y-131496300D01*
X131109954Y-131491500D01*
X131780046Y-131491500D01*
X131828784Y-131496300D01*
X131828784Y-131496300D01*
G37*
G36*
X95600422Y-130740904D02*
X95722948Y-130778072D01*
X95835866Y-130838428D01*
X95934843Y-130919657D01*
X96016072Y-131018634D01*
X96076428Y-131131552D01*
X96113596Y-131254078D01*
X96126145Y-131381500D01*
X96113596Y-131508922D01*
X96076428Y-131631448D01*
X96016072Y-131744366D01*
X95934843Y-131843343D01*
X95835866Y-131924572D01*
X95722948Y-131984928D01*
X95600422Y-132022096D01*
X95504936Y-132031500D01*
X94641064Y-132031500D01*
X94545578Y-132022096D01*
X94423052Y-131984928D01*
X94310134Y-131924572D01*
X94211157Y-131843343D01*
X94129928Y-131744366D01*
X94069572Y-131631448D01*
X94032404Y-131508922D01*
X94019855Y-131381500D01*
X94032404Y-131254078D01*
X94069572Y-131131552D01*
X94129928Y-131018634D01*
X94211157Y-130919657D01*
X94310134Y-130838428D01*
X94423052Y-130778072D01*
X94545578Y-130740904D01*
X94641064Y-130731500D01*
X95504936Y-130731500D01*
X95600422Y-130740904D01*
X95600422Y-130740904D01*
G37*
G36*
X123590422Y-130740904D02*
X123712948Y-130778072D01*
X123825866Y-130838428D01*
X123924843Y-130919657D01*
X124006072Y-131018634D01*
X124066428Y-131131552D01*
X124103596Y-131254078D01*
X124116145Y-131381500D01*
X124103596Y-131508922D01*
X124066428Y-131631448D01*
X124006072Y-131744366D01*
X123924843Y-131843343D01*
X123825866Y-131924572D01*
X123712948Y-131984928D01*
X123590422Y-132022096D01*
X123494936Y-132031500D01*
X122631064Y-132031500D01*
X122535578Y-132022096D01*
X122413052Y-131984928D01*
X122300134Y-131924572D01*
X122201157Y-131843343D01*
X122119928Y-131744366D01*
X122059572Y-131631448D01*
X122022404Y-131508922D01*
X122009855Y-131381500D01*
X122022404Y-131254078D01*
X122059572Y-131131552D01*
X122119928Y-131018634D01*
X122201157Y-130919657D01*
X122300134Y-130838428D01*
X122413052Y-130778072D01*
X122535578Y-130740904D01*
X122631064Y-130731500D01*
X123494936Y-130731500D01*
X123590422Y-130740904D01*
X123590422Y-130740904D01*
G37*
G36*
X98140422Y-130740904D02*
X98262948Y-130778072D01*
X98375866Y-130838428D01*
X98474843Y-130919657D01*
X98556072Y-131018634D01*
X98616428Y-131131552D01*
X98653596Y-131254078D01*
X98666145Y-131381500D01*
X98653596Y-131508922D01*
X98616428Y-131631448D01*
X98556072Y-131744366D01*
X98474843Y-131843343D01*
X98375866Y-131924572D01*
X98262948Y-131984928D01*
X98140422Y-132022096D01*
X98044936Y-132031500D01*
X97181064Y-132031500D01*
X97085578Y-132022096D01*
X96963052Y-131984928D01*
X96850134Y-131924572D01*
X96751157Y-131843343D01*
X96669928Y-131744366D01*
X96609572Y-131631448D01*
X96572404Y-131508922D01*
X96559855Y-131381500D01*
X96572404Y-131254078D01*
X96609572Y-131131552D01*
X96669928Y-131018634D01*
X96751157Y-130919657D01*
X96850134Y-130838428D01*
X96963052Y-130778072D01*
X97085578Y-130740904D01*
X97181064Y-130731500D01*
X98044936Y-130731500D01*
X98140422Y-130740904D01*
X98140422Y-130740904D01*
G37*
G36*
X126180422Y-130740904D02*
X126302948Y-130778072D01*
X126415866Y-130838428D01*
X126514843Y-130919657D01*
X126596072Y-131018634D01*
X126656428Y-131131552D01*
X126693596Y-131254078D01*
X126706145Y-131381500D01*
X126693596Y-131508922D01*
X126656428Y-131631448D01*
X126596072Y-131744366D01*
X126514843Y-131843343D01*
X126415866Y-131924572D01*
X126302948Y-131984928D01*
X126180422Y-132022096D01*
X126084936Y-132031500D01*
X125221064Y-132031500D01*
X125125578Y-132022096D01*
X125003052Y-131984928D01*
X124890134Y-131924572D01*
X124791157Y-131843343D01*
X124709928Y-131744366D01*
X124649572Y-131631448D01*
X124612404Y-131508922D01*
X124599855Y-131381500D01*
X124612404Y-131254078D01*
X124649572Y-131131552D01*
X124709928Y-131018634D01*
X124791157Y-130919657D01*
X124890134Y-130838428D01*
X125003052Y-130778072D01*
X125125578Y-130740904D01*
X125221064Y-130731500D01*
X126084936Y-130731500D01*
X126180422Y-130740904D01*
X126180422Y-130740904D01*
G37*
G36*
X149332007Y-127628348D02*
X149483750Y-127674378D01*
X149623597Y-127749128D01*
X149746175Y-127849725D01*
X149846772Y-127972302D01*
X149921522Y-128112149D01*
X149967552Y-128263892D01*
X149979200Y-128382154D01*
X149979200Y-129961246D01*
X149967552Y-130079508D01*
X149921522Y-130231251D01*
X149846772Y-130371098D01*
X149746175Y-130493675D01*
X149623598Y-130594272D01*
X149483751Y-130669022D01*
X149332008Y-130715052D01*
X149174200Y-130730595D01*
X149016393Y-130715052D01*
X148864650Y-130669022D01*
X148724803Y-130594272D01*
X148602226Y-130493675D01*
X148501629Y-130371098D01*
X148426879Y-130231251D01*
X148380849Y-130079508D01*
X148369201Y-129961246D01*
X148369200Y-128382155D01*
X148380848Y-128263893D01*
X148426878Y-128112150D01*
X148501628Y-127972303D01*
X148602225Y-127849725D01*
X148724802Y-127749128D01*
X148864649Y-127674378D01*
X149016392Y-127628348D01*
X149174200Y-127612805D01*
X149332007Y-127628348D01*
X149332007Y-127628348D01*
G37*
G36*
X151872007Y-127628348D02*
X152023750Y-127674378D01*
X152163597Y-127749128D01*
X152286175Y-127849725D01*
X152386772Y-127972302D01*
X152461522Y-128112149D01*
X152507552Y-128263892D01*
X152519200Y-128382154D01*
X152519200Y-129961246D01*
X152507552Y-130079508D01*
X152461522Y-130231251D01*
X152386772Y-130371098D01*
X152286175Y-130493675D01*
X152163598Y-130594272D01*
X152023751Y-130669022D01*
X151872008Y-130715052D01*
X151714200Y-130730595D01*
X151556393Y-130715052D01*
X151404650Y-130669022D01*
X151264803Y-130594272D01*
X151142226Y-130493675D01*
X151041629Y-130371098D01*
X150966879Y-130231251D01*
X150920849Y-130079508D01*
X150909201Y-129961246D01*
X150909200Y-128382155D01*
X150920848Y-128263893D01*
X150966878Y-128112150D01*
X151041628Y-127972303D01*
X151142225Y-127849725D01*
X151264802Y-127749128D01*
X151404649Y-127674378D01*
X151556392Y-127628348D01*
X151714200Y-127612805D01*
X151872007Y-127628348D01*
X151872007Y-127628348D01*
G37*
G36*
X136663000Y-130376500D02*
X134863000Y-130376500D01*
X134863000Y-128576500D01*
X136663000Y-128576500D01*
X136663000Y-130376500D01*
X136663000Y-130376500D01*
G37*
G36*
X143559430Y-128589522D02*
X143729081Y-128640985D01*
X143885433Y-128724557D01*
X144022475Y-128837025D01*
X144134943Y-128974067D01*
X144218515Y-129130419D01*
X144269978Y-129300070D01*
X144287354Y-129476500D01*
X144269978Y-129652930D01*
X144218515Y-129822581D01*
X144134943Y-129978933D01*
X144022475Y-130115975D01*
X143885433Y-130228443D01*
X143729081Y-130312015D01*
X143559430Y-130363478D01*
X143427211Y-130376500D01*
X143338789Y-130376500D01*
X143206570Y-130363478D01*
X143036919Y-130312015D01*
X142880567Y-130228443D01*
X142743525Y-130115975D01*
X142631057Y-129978933D01*
X142547485Y-129822581D01*
X142496022Y-129652930D01*
X142478646Y-129476500D01*
X142496022Y-129300070D01*
X142547485Y-129130419D01*
X142631057Y-128974067D01*
X142743525Y-128837025D01*
X142880567Y-128724557D01*
X143036919Y-128640985D01*
X143206570Y-128589522D01*
X143338789Y-128576500D01*
X143427211Y-128576500D01*
X143559430Y-128589522D01*
X143559430Y-128589522D01*
G37*
G36*
X141019430Y-128589522D02*
X141189081Y-128640985D01*
X141345433Y-128724557D01*
X141482475Y-128837025D01*
X141594943Y-128974067D01*
X141678515Y-129130419D01*
X141729978Y-129300070D01*
X141747354Y-129476500D01*
X141729978Y-129652930D01*
X141678515Y-129822581D01*
X141594943Y-129978933D01*
X141482475Y-130115975D01*
X141345433Y-130228443D01*
X141189081Y-130312015D01*
X141019430Y-130363478D01*
X140887211Y-130376500D01*
X140798789Y-130376500D01*
X140666570Y-130363478D01*
X140496919Y-130312015D01*
X140340567Y-130228443D01*
X140203525Y-130115975D01*
X140091057Y-129978933D01*
X140007485Y-129822581D01*
X139956022Y-129652930D01*
X139938646Y-129476500D01*
X139956022Y-129300070D01*
X140007485Y-129130419D01*
X140091057Y-128974067D01*
X140203525Y-128837025D01*
X140340567Y-128724557D01*
X140496919Y-128640985D01*
X140666570Y-128589522D01*
X140798789Y-128576500D01*
X140887211Y-128576500D01*
X141019430Y-128589522D01*
X141019430Y-128589522D01*
G37*
G36*
X138479430Y-128589522D02*
X138649081Y-128640985D01*
X138805433Y-128724557D01*
X138942475Y-128837025D01*
X139054943Y-128974067D01*
X139138515Y-129130419D01*
X139189978Y-129300070D01*
X139207354Y-129476500D01*
X139189978Y-129652930D01*
X139138515Y-129822581D01*
X139054943Y-129978933D01*
X138942475Y-130115975D01*
X138805433Y-130228443D01*
X138649081Y-130312015D01*
X138479430Y-130363478D01*
X138347211Y-130376500D01*
X138258789Y-130376500D01*
X138126570Y-130363478D01*
X137956919Y-130312015D01*
X137800567Y-130228443D01*
X137663525Y-130115975D01*
X137551057Y-129978933D01*
X137467485Y-129822581D01*
X137416022Y-129652930D01*
X137398646Y-129476500D01*
X137416022Y-129300070D01*
X137467485Y-129130419D01*
X137551057Y-128974067D01*
X137663525Y-128837025D01*
X137800567Y-128724557D01*
X137956919Y-128640985D01*
X138126570Y-128589522D01*
X138258789Y-128576500D01*
X138347211Y-128576500D01*
X138479430Y-128589522D01*
X138479430Y-128589522D01*
G37*
G36*
X130078784Y-129210300D02*
X130123297Y-129223804D01*
X130164312Y-129245726D01*
X130200267Y-129275233D01*
X130229774Y-129311188D01*
X130251696Y-129352203D01*
X130265200Y-129396716D01*
X130270000Y-129445454D01*
X130270000Y-130015546D01*
X130265200Y-130064284D01*
X130251696Y-130108797D01*
X130229774Y-130149812D01*
X130200267Y-130185767D01*
X130164312Y-130215274D01*
X130123297Y-130237196D01*
X130078784Y-130250700D01*
X130030046Y-130255500D01*
X129359954Y-130255500D01*
X129311216Y-130250700D01*
X129266703Y-130237196D01*
X129225688Y-130215274D01*
X129189733Y-130185767D01*
X129160226Y-130149812D01*
X129138304Y-130108797D01*
X129124800Y-130064284D01*
X129120000Y-130015546D01*
X129120000Y-129445454D01*
X129124800Y-129396716D01*
X129138304Y-129352203D01*
X129160226Y-129311188D01*
X129189733Y-129275233D01*
X129225688Y-129245726D01*
X129266703Y-129223804D01*
X129311216Y-129210300D01*
X129359954Y-129205500D01*
X130030046Y-129205500D01*
X130078784Y-129210300D01*
X130078784Y-129210300D01*
G37*
G36*
X131828784Y-129210300D02*
X131873297Y-129223804D01*
X131914312Y-129245726D01*
X131950267Y-129275233D01*
X131979774Y-129311188D01*
X132001696Y-129352203D01*
X132015200Y-129396716D01*
X132020000Y-129445454D01*
X132020000Y-130015546D01*
X132015200Y-130064284D01*
X132001696Y-130108797D01*
X131979774Y-130149812D01*
X131950267Y-130185767D01*
X131914312Y-130215274D01*
X131873297Y-130237196D01*
X131828784Y-130250700D01*
X131780046Y-130255500D01*
X131109954Y-130255500D01*
X131061216Y-130250700D01*
X131016703Y-130237196D01*
X130975688Y-130215274D01*
X130939733Y-130185767D01*
X130910226Y-130149812D01*
X130888304Y-130108797D01*
X130874800Y-130064284D01*
X130870000Y-130015546D01*
X130870000Y-129445454D01*
X130874800Y-129396716D01*
X130888304Y-129352203D01*
X130910226Y-129311188D01*
X130939733Y-129275233D01*
X130975688Y-129245726D01*
X131016703Y-129223804D01*
X131061216Y-129210300D01*
X131109954Y-129205500D01*
X131780046Y-129205500D01*
X131828784Y-129210300D01*
X131828784Y-129210300D01*
G37*
G36*
X95600422Y-128200904D02*
X95722948Y-128238072D01*
X95835866Y-128298428D01*
X95934843Y-128379657D01*
X96016072Y-128478634D01*
X96076428Y-128591552D01*
X96113596Y-128714078D01*
X96126145Y-128841500D01*
X96113596Y-128968922D01*
X96076428Y-129091448D01*
X96016072Y-129204366D01*
X95934843Y-129303343D01*
X95835866Y-129384572D01*
X95722948Y-129444928D01*
X95600422Y-129482096D01*
X95504936Y-129491500D01*
X94641064Y-129491500D01*
X94545578Y-129482096D01*
X94423052Y-129444928D01*
X94310134Y-129384572D01*
X94211157Y-129303343D01*
X94129928Y-129204366D01*
X94069572Y-129091448D01*
X94032404Y-128968922D01*
X94019855Y-128841500D01*
X94032404Y-128714078D01*
X94069572Y-128591552D01*
X94129928Y-128478634D01*
X94211157Y-128379657D01*
X94310134Y-128298428D01*
X94423052Y-128238072D01*
X94545578Y-128200904D01*
X94641064Y-128191500D01*
X95504936Y-128191500D01*
X95600422Y-128200904D01*
X95600422Y-128200904D01*
G37*
G36*
X123590422Y-128200904D02*
X123712948Y-128238072D01*
X123825866Y-128298428D01*
X123924843Y-128379657D01*
X124006072Y-128478634D01*
X124066428Y-128591552D01*
X124103596Y-128714078D01*
X124116145Y-128841500D01*
X124103596Y-128968922D01*
X124066428Y-129091448D01*
X124006072Y-129204366D01*
X123924843Y-129303343D01*
X123825866Y-129384572D01*
X123712948Y-129444928D01*
X123590422Y-129482096D01*
X123494936Y-129491500D01*
X122631064Y-129491500D01*
X122535578Y-129482096D01*
X122413052Y-129444928D01*
X122300134Y-129384572D01*
X122201157Y-129303343D01*
X122119928Y-129204366D01*
X122059572Y-129091448D01*
X122022404Y-128968922D01*
X122009855Y-128841500D01*
X122022404Y-128714078D01*
X122059572Y-128591552D01*
X122119928Y-128478634D01*
X122201157Y-128379657D01*
X122300134Y-128298428D01*
X122413052Y-128238072D01*
X122535578Y-128200904D01*
X122631064Y-128191500D01*
X123494936Y-128191500D01*
X123590422Y-128200904D01*
X123590422Y-128200904D01*
G37*
G36*
X126180422Y-128200904D02*
X126302948Y-128238072D01*
X126415866Y-128298428D01*
X126514843Y-128379657D01*
X126596072Y-128478634D01*
X126656428Y-128591552D01*
X126693596Y-128714078D01*
X126706145Y-128841500D01*
X126693596Y-128968922D01*
X126656428Y-129091448D01*
X126596072Y-129204366D01*
X126514843Y-129303343D01*
X126415866Y-129384572D01*
X126302948Y-129444928D01*
X126180422Y-129482096D01*
X126084936Y-129491500D01*
X125221064Y-129491500D01*
X125125578Y-129482096D01*
X125003052Y-129444928D01*
X124890134Y-129384572D01*
X124791157Y-129303343D01*
X124709928Y-129204366D01*
X124649572Y-129091448D01*
X124612404Y-128968922D01*
X124599855Y-128841500D01*
X124612404Y-128714078D01*
X124649572Y-128591552D01*
X124709928Y-128478634D01*
X124791157Y-128379657D01*
X124890134Y-128298428D01*
X125003052Y-128238072D01*
X125125578Y-128200904D01*
X125221064Y-128191500D01*
X126084936Y-128191500D01*
X126180422Y-128200904D01*
X126180422Y-128200904D01*
G37*
G36*
X98140422Y-128200904D02*
X98262948Y-128238072D01*
X98375866Y-128298428D01*
X98474843Y-128379657D01*
X98556072Y-128478634D01*
X98616428Y-128591552D01*
X98653596Y-128714078D01*
X98666145Y-128841500D01*
X98653596Y-128968922D01*
X98616428Y-129091448D01*
X98556072Y-129204366D01*
X98474843Y-129303343D01*
X98375866Y-129384572D01*
X98262948Y-129444928D01*
X98140422Y-129482096D01*
X98044936Y-129491500D01*
X97181064Y-129491500D01*
X97085578Y-129482096D01*
X96963052Y-129444928D01*
X96850134Y-129384572D01*
X96751157Y-129303343D01*
X96669928Y-129204366D01*
X96609572Y-129091448D01*
X96572404Y-128968922D01*
X96559855Y-128841500D01*
X96572404Y-128714078D01*
X96609572Y-128591552D01*
X96669928Y-128478634D01*
X96751157Y-128379657D01*
X96850134Y-128298428D01*
X96963052Y-128238072D01*
X97085578Y-128200904D01*
X97181064Y-128191500D01*
X98044936Y-128191500D01*
X98140422Y-128200904D01*
X98140422Y-128200904D01*
G37*
G36*
X131828784Y-125908300D02*
X131873297Y-125921804D01*
X131914312Y-125943726D01*
X131950267Y-125973233D01*
X131979774Y-126009188D01*
X132001696Y-126050203D01*
X132015200Y-126094716D01*
X132020000Y-126143454D01*
X132020000Y-126713546D01*
X132015200Y-126762284D01*
X132001696Y-126806797D01*
X131979774Y-126847812D01*
X131950267Y-126883767D01*
X131914312Y-126913274D01*
X131873297Y-126935196D01*
X131828784Y-126948700D01*
X131780046Y-126953500D01*
X131109954Y-126953500D01*
X131061216Y-126948700D01*
X131016703Y-126935196D01*
X130975688Y-126913274D01*
X130939733Y-126883767D01*
X130910226Y-126847812D01*
X130888304Y-126806797D01*
X130874800Y-126762284D01*
X130870000Y-126713546D01*
X130870000Y-126143454D01*
X130874800Y-126094716D01*
X130888304Y-126050203D01*
X130910226Y-126009188D01*
X130939733Y-125973233D01*
X130975688Y-125943726D01*
X131016703Y-125921804D01*
X131061216Y-125908300D01*
X131109954Y-125903500D01*
X131780046Y-125903500D01*
X131828784Y-125908300D01*
X131828784Y-125908300D01*
G37*
G36*
X130078784Y-125908300D02*
X130123297Y-125921804D01*
X130164312Y-125943726D01*
X130200267Y-125973233D01*
X130229774Y-126009188D01*
X130251696Y-126050203D01*
X130265200Y-126094716D01*
X130270000Y-126143454D01*
X130270000Y-126713546D01*
X130265200Y-126762284D01*
X130251696Y-126806797D01*
X130229774Y-126847812D01*
X130200267Y-126883767D01*
X130164312Y-126913274D01*
X130123297Y-126935196D01*
X130078784Y-126948700D01*
X130030046Y-126953500D01*
X129359954Y-126953500D01*
X129311216Y-126948700D01*
X129266703Y-126935196D01*
X129225688Y-126913274D01*
X129189733Y-126883767D01*
X129160226Y-126847812D01*
X129138304Y-126806797D01*
X129124800Y-126762284D01*
X129120000Y-126713546D01*
X129120000Y-126143454D01*
X129124800Y-126094716D01*
X129138304Y-126050203D01*
X129160226Y-126009188D01*
X129189733Y-125973233D01*
X129225688Y-125943726D01*
X129266703Y-125921804D01*
X129311216Y-125908300D01*
X129359954Y-125903500D01*
X130030046Y-125903500D01*
X130078784Y-125908300D01*
X130078784Y-125908300D01*
G37*
G36*
X98140422Y-125660904D02*
X98262948Y-125698072D01*
X98375866Y-125758428D01*
X98474843Y-125839657D01*
X98556072Y-125938634D01*
X98616428Y-126051552D01*
X98653596Y-126174078D01*
X98666145Y-126301500D01*
X98653596Y-126428922D01*
X98616428Y-126551448D01*
X98556072Y-126664366D01*
X98474843Y-126763343D01*
X98375866Y-126844572D01*
X98262948Y-126904928D01*
X98140422Y-126942096D01*
X98044936Y-126951500D01*
X97181064Y-126951500D01*
X97085578Y-126942096D01*
X96963052Y-126904928D01*
X96850134Y-126844572D01*
X96751157Y-126763343D01*
X96669928Y-126664366D01*
X96609572Y-126551448D01*
X96572404Y-126428922D01*
X96559855Y-126301500D01*
X96572404Y-126174078D01*
X96609572Y-126051552D01*
X96669928Y-125938634D01*
X96751157Y-125839657D01*
X96850134Y-125758428D01*
X96963052Y-125698072D01*
X97085578Y-125660904D01*
X97181064Y-125651500D01*
X98044936Y-125651500D01*
X98140422Y-125660904D01*
X98140422Y-125660904D01*
G37*
G36*
X123590422Y-125660904D02*
X123712948Y-125698072D01*
X123825866Y-125758428D01*
X123924843Y-125839657D01*
X124006072Y-125938634D01*
X124066428Y-126051552D01*
X124103596Y-126174078D01*
X124116145Y-126301500D01*
X124103596Y-126428922D01*
X124066428Y-126551448D01*
X124006072Y-126664366D01*
X123924843Y-126763343D01*
X123825866Y-126844572D01*
X123712948Y-126904928D01*
X123590422Y-126942096D01*
X123494936Y-126951500D01*
X122631064Y-126951500D01*
X122535578Y-126942096D01*
X122413052Y-126904928D01*
X122300134Y-126844572D01*
X122201157Y-126763343D01*
X122119928Y-126664366D01*
X122059572Y-126551448D01*
X122022404Y-126428922D01*
X122009855Y-126301500D01*
X122022404Y-126174078D01*
X122059572Y-126051552D01*
X122119928Y-125938634D01*
X122201157Y-125839657D01*
X122300134Y-125758428D01*
X122413052Y-125698072D01*
X122535578Y-125660904D01*
X122631064Y-125651500D01*
X123494936Y-125651500D01*
X123590422Y-125660904D01*
X123590422Y-125660904D01*
G37*
G36*
X126180422Y-125660904D02*
X126302948Y-125698072D01*
X126415866Y-125758428D01*
X126514843Y-125839657D01*
X126596072Y-125938634D01*
X126656428Y-126051552D01*
X126693596Y-126174078D01*
X126706145Y-126301500D01*
X126693596Y-126428922D01*
X126656428Y-126551448D01*
X126596072Y-126664366D01*
X126514843Y-126763343D01*
X126415866Y-126844572D01*
X126302948Y-126904928D01*
X126180422Y-126942096D01*
X126084936Y-126951500D01*
X125221064Y-126951500D01*
X125125578Y-126942096D01*
X125003052Y-126904928D01*
X124890134Y-126844572D01*
X124791157Y-126763343D01*
X124709928Y-126664366D01*
X124649572Y-126551448D01*
X124612404Y-126428922D01*
X124599855Y-126301500D01*
X124612404Y-126174078D01*
X124649572Y-126051552D01*
X124709928Y-125938634D01*
X124791157Y-125839657D01*
X124890134Y-125758428D01*
X125003052Y-125698072D01*
X125125578Y-125660904D01*
X125221064Y-125651500D01*
X126084936Y-125651500D01*
X126180422Y-125660904D01*
X126180422Y-125660904D01*
G37*
G36*
X95600422Y-125660904D02*
X95722948Y-125698072D01*
X95835866Y-125758428D01*
X95934843Y-125839657D01*
X96016072Y-125938634D01*
X96076428Y-126051552D01*
X96113596Y-126174078D01*
X96126145Y-126301500D01*
X96113596Y-126428922D01*
X96076428Y-126551448D01*
X96016072Y-126664366D01*
X95934843Y-126763343D01*
X95835866Y-126844572D01*
X95722948Y-126904928D01*
X95600422Y-126942096D01*
X95504936Y-126951500D01*
X94641064Y-126951500D01*
X94545578Y-126942096D01*
X94423052Y-126904928D01*
X94310134Y-126844572D01*
X94211157Y-126763343D01*
X94129928Y-126664366D01*
X94069572Y-126551448D01*
X94032404Y-126428922D01*
X94019855Y-126301500D01*
X94032404Y-126174078D01*
X94069572Y-126051552D01*
X94129928Y-125938634D01*
X94211157Y-125839657D01*
X94310134Y-125758428D01*
X94423052Y-125698072D01*
X94545578Y-125660904D01*
X94641064Y-125651500D01*
X95504936Y-125651500D01*
X95600422Y-125660904D01*
X95600422Y-125660904D01*
G37*
G36*
X154401000Y-126590500D02*
X153701000Y-126590500D01*
X153701000Y-124490500D01*
X154401000Y-124490500D01*
X154401000Y-126590500D01*
X154401000Y-126590500D01*
G37*
G36*
X153131000Y-126590500D02*
X152431000Y-126590500D01*
X152431000Y-124490500D01*
X153131000Y-124490500D01*
X153131000Y-126590500D01*
X153131000Y-126590500D01*
G37*
G36*
X151861000Y-126590500D02*
X151161000Y-126590500D01*
X151161000Y-124490500D01*
X151861000Y-124490500D01*
X151861000Y-126590500D01*
X151861000Y-126590500D01*
G37*
G36*
X150591000Y-126590500D02*
X149891000Y-126590500D01*
X149891000Y-124490500D01*
X150591000Y-124490500D01*
X150591000Y-126590500D01*
X150591000Y-126590500D01*
G37*
G36*
X155671000Y-126590500D02*
X154971000Y-126590500D01*
X154971000Y-124490500D01*
X155671000Y-124490500D01*
X155671000Y-126590500D01*
X155671000Y-126590500D01*
G37*
G36*
X156941000Y-126590500D02*
X156241000Y-126590500D01*
X156241000Y-124490500D01*
X156941000Y-124490500D01*
X156941000Y-126590500D01*
X156941000Y-126590500D01*
G37*
G36*
X158211000Y-126590500D02*
X157511000Y-126590500D01*
X157511000Y-124490500D01*
X158211000Y-124490500D01*
X158211000Y-126590500D01*
X158211000Y-126590500D01*
G37*
G36*
X159481000Y-126590500D02*
X158781000Y-126590500D01*
X158781000Y-124490500D01*
X159481000Y-124490500D01*
X159481000Y-126590500D01*
X159481000Y-126590500D01*
G37*
G36*
X149321000Y-126590500D02*
X148621000Y-126590500D01*
X148621000Y-124490500D01*
X149321000Y-124490500D01*
X149321000Y-126590500D01*
X149321000Y-126590500D01*
G37*
G36*
X131828784Y-123876300D02*
X131873297Y-123889804D01*
X131914312Y-123911726D01*
X131950267Y-123941233D01*
X131979774Y-123977188D01*
X132001696Y-124018203D01*
X132015200Y-124062716D01*
X132020000Y-124111454D01*
X132020000Y-124681546D01*
X132015200Y-124730284D01*
X132001696Y-124774797D01*
X131979774Y-124815812D01*
X131950267Y-124851767D01*
X131914312Y-124881274D01*
X131873297Y-124903196D01*
X131828784Y-124916700D01*
X131780046Y-124921500D01*
X131109954Y-124921500D01*
X131061216Y-124916700D01*
X131016703Y-124903196D01*
X130975688Y-124881274D01*
X130939733Y-124851767D01*
X130910226Y-124815812D01*
X130888304Y-124774797D01*
X130874800Y-124730284D01*
X130870000Y-124681546D01*
X130870000Y-124111454D01*
X130874800Y-124062716D01*
X130888304Y-124018203D01*
X130910226Y-123977188D01*
X130939733Y-123941233D01*
X130975688Y-123911726D01*
X131016703Y-123889804D01*
X131061216Y-123876300D01*
X131109954Y-123871500D01*
X131780046Y-123871500D01*
X131828784Y-123876300D01*
X131828784Y-123876300D01*
G37*
G36*
X130078784Y-123876300D02*
X130123297Y-123889804D01*
X130164312Y-123911726D01*
X130200267Y-123941233D01*
X130229774Y-123977188D01*
X130251696Y-124018203D01*
X130265200Y-124062716D01*
X130270000Y-124111454D01*
X130270000Y-124681546D01*
X130265200Y-124730284D01*
X130251696Y-124774797D01*
X130229774Y-124815812D01*
X130200267Y-124851767D01*
X130164312Y-124881274D01*
X130123297Y-124903196D01*
X130078784Y-124916700D01*
X130030046Y-124921500D01*
X129359954Y-124921500D01*
X129311216Y-124916700D01*
X129266703Y-124903196D01*
X129225688Y-124881274D01*
X129189733Y-124851767D01*
X129160226Y-124815812D01*
X129138304Y-124774797D01*
X129124800Y-124730284D01*
X129120000Y-124681546D01*
X129120000Y-124111454D01*
X129124800Y-124062716D01*
X129138304Y-124018203D01*
X129160226Y-123977188D01*
X129189733Y-123941233D01*
X129225688Y-123911726D01*
X129266703Y-123889804D01*
X129311216Y-123876300D01*
X129359954Y-123871500D01*
X130030046Y-123871500D01*
X130078784Y-123876300D01*
X130078784Y-123876300D01*
G37*
G36*
X179757097Y-122861119D02*
X179929311Y-122913360D01*
X180088025Y-122998194D01*
X180227138Y-123112362D01*
X180341306Y-123251475D01*
X180426140Y-123410189D01*
X180478381Y-123582403D01*
X180496020Y-123761500D01*
X180478381Y-123940597D01*
X180426140Y-124112811D01*
X180341306Y-124271525D01*
X180227138Y-124410638D01*
X180088025Y-124524806D01*
X180088023Y-124524807D01*
X179929311Y-124609640D01*
X179757097Y-124661881D01*
X179622880Y-124675100D01*
X179533120Y-124675100D01*
X179398903Y-124661881D01*
X179226689Y-124609640D01*
X179067977Y-124524807D01*
X179067975Y-124524806D01*
X178928862Y-124410638D01*
X178814694Y-124271525D01*
X178729860Y-124112811D01*
X178677619Y-123940597D01*
X178659980Y-123761500D01*
X178677619Y-123582403D01*
X178729860Y-123410189D01*
X178814694Y-123251475D01*
X178928862Y-123112362D01*
X179067975Y-122998194D01*
X179226689Y-122913360D01*
X179398903Y-122861119D01*
X179533120Y-122847900D01*
X179622880Y-122847900D01*
X179757097Y-122861119D01*
X179757097Y-122861119D01*
G37*
G36*
X187377097Y-122861119D02*
X187549311Y-122913360D01*
X187708025Y-122998194D01*
X187847138Y-123112362D01*
X187961306Y-123251475D01*
X188046140Y-123410189D01*
X188098381Y-123582403D01*
X188116020Y-123761500D01*
X188098381Y-123940597D01*
X188046140Y-124112811D01*
X187961306Y-124271525D01*
X187847138Y-124410638D01*
X187708025Y-124524806D01*
X187708023Y-124524807D01*
X187549311Y-124609640D01*
X187377097Y-124661881D01*
X187242880Y-124675100D01*
X187153120Y-124675100D01*
X187018903Y-124661881D01*
X186846689Y-124609640D01*
X186687977Y-124524807D01*
X186687975Y-124524806D01*
X186548862Y-124410638D01*
X186434694Y-124271525D01*
X186349860Y-124112811D01*
X186297619Y-123940597D01*
X186279980Y-123761500D01*
X186297619Y-123582403D01*
X186349860Y-123410189D01*
X186434694Y-123251475D01*
X186548862Y-123112362D01*
X186687975Y-122998194D01*
X186846689Y-122913360D01*
X187018903Y-122861119D01*
X187153120Y-122847900D01*
X187242880Y-122847900D01*
X187377097Y-122861119D01*
X187377097Y-122861119D01*
G37*
G36*
X177217097Y-122861119D02*
X177389311Y-122913360D01*
X177548025Y-122998194D01*
X177687138Y-123112362D01*
X177801306Y-123251475D01*
X177886140Y-123410189D01*
X177938381Y-123582403D01*
X177956020Y-123761500D01*
X177938381Y-123940597D01*
X177886140Y-124112811D01*
X177801306Y-124271525D01*
X177687138Y-124410638D01*
X177548025Y-124524806D01*
X177548023Y-124524807D01*
X177389311Y-124609640D01*
X177217097Y-124661881D01*
X177082880Y-124675100D01*
X176993120Y-124675100D01*
X176858903Y-124661881D01*
X176686689Y-124609640D01*
X176527977Y-124524807D01*
X176527975Y-124524806D01*
X176388862Y-124410638D01*
X176274694Y-124271525D01*
X176189860Y-124112811D01*
X176137619Y-123940597D01*
X176119980Y-123761500D01*
X176137619Y-123582403D01*
X176189860Y-123410189D01*
X176274694Y-123251475D01*
X176388862Y-123112362D01*
X176527975Y-122998194D01*
X176686689Y-122913360D01*
X176858903Y-122861119D01*
X176993120Y-122847900D01*
X177082880Y-122847900D01*
X177217097Y-122861119D01*
X177217097Y-122861119D01*
G37*
G36*
X182297097Y-122861119D02*
X182469311Y-122913360D01*
X182628025Y-122998194D01*
X182767138Y-123112362D01*
X182881306Y-123251475D01*
X182966140Y-123410189D01*
X183018381Y-123582403D01*
X183036020Y-123761500D01*
X183018381Y-123940597D01*
X182966140Y-124112811D01*
X182881306Y-124271525D01*
X182767138Y-124410638D01*
X182628025Y-124524806D01*
X182628023Y-124524807D01*
X182469311Y-124609640D01*
X182297097Y-124661881D01*
X182162880Y-124675100D01*
X182073120Y-124675100D01*
X181938903Y-124661881D01*
X181766689Y-124609640D01*
X181607977Y-124524807D01*
X181607975Y-124524806D01*
X181468862Y-124410638D01*
X181354694Y-124271525D01*
X181269860Y-124112811D01*
X181217619Y-123940597D01*
X181199980Y-123761500D01*
X181217619Y-123582403D01*
X181269860Y-123410189D01*
X181354694Y-123251475D01*
X181468862Y-123112362D01*
X181607975Y-122998194D01*
X181766689Y-122913360D01*
X181938903Y-122861119D01*
X182073120Y-122847900D01*
X182162880Y-122847900D01*
X182297097Y-122861119D01*
X182297097Y-122861119D01*
G37*
G36*
X184837097Y-122861119D02*
X185009311Y-122913360D01*
X185168025Y-122998194D01*
X185307138Y-123112362D01*
X185421306Y-123251475D01*
X185506140Y-123410189D01*
X185558381Y-123582403D01*
X185576020Y-123761500D01*
X185558381Y-123940597D01*
X185506140Y-124112811D01*
X185421306Y-124271525D01*
X185307138Y-124410638D01*
X185168025Y-124524806D01*
X185168023Y-124524807D01*
X185009311Y-124609640D01*
X184837097Y-124661881D01*
X184702880Y-124675100D01*
X184613120Y-124675100D01*
X184478903Y-124661881D01*
X184306689Y-124609640D01*
X184147977Y-124524807D01*
X184147975Y-124524806D01*
X184008862Y-124410638D01*
X183894694Y-124271525D01*
X183809860Y-124112811D01*
X183757619Y-123940597D01*
X183739980Y-123761500D01*
X183757619Y-123582403D01*
X183809860Y-123410189D01*
X183894694Y-123251475D01*
X184008862Y-123112362D01*
X184147975Y-122998194D01*
X184306689Y-122913360D01*
X184478903Y-122861119D01*
X184613120Y-122847900D01*
X184702880Y-122847900D01*
X184837097Y-122861119D01*
X184837097Y-122861119D01*
G37*
G36*
X98140422Y-123120904D02*
X98262948Y-123158072D01*
X98375866Y-123218428D01*
X98474843Y-123299657D01*
X98556072Y-123398634D01*
X98616428Y-123511552D01*
X98653596Y-123634078D01*
X98666145Y-123761500D01*
X98653596Y-123888922D01*
X98616428Y-124011448D01*
X98556072Y-124124366D01*
X98474843Y-124223343D01*
X98375866Y-124304572D01*
X98262948Y-124364928D01*
X98140422Y-124402096D01*
X98044936Y-124411500D01*
X97181064Y-124411500D01*
X97085578Y-124402096D01*
X96963052Y-124364928D01*
X96850134Y-124304572D01*
X96751157Y-124223343D01*
X96669928Y-124124366D01*
X96609572Y-124011448D01*
X96572404Y-123888922D01*
X96559855Y-123761500D01*
X96572404Y-123634078D01*
X96609572Y-123511552D01*
X96669928Y-123398634D01*
X96751157Y-123299657D01*
X96850134Y-123218428D01*
X96963052Y-123158072D01*
X97085578Y-123120904D01*
X97181064Y-123111500D01*
X98044936Y-123111500D01*
X98140422Y-123120904D01*
X98140422Y-123120904D01*
G37*
G36*
X95600422Y-123120904D02*
X95722948Y-123158072D01*
X95835866Y-123218428D01*
X95934843Y-123299657D01*
X96016072Y-123398634D01*
X96076428Y-123511552D01*
X96113596Y-123634078D01*
X96126145Y-123761500D01*
X96113596Y-123888922D01*
X96076428Y-124011448D01*
X96016072Y-124124366D01*
X95934843Y-124223343D01*
X95835866Y-124304572D01*
X95722948Y-124364928D01*
X95600422Y-124402096D01*
X95504936Y-124411500D01*
X94641064Y-124411500D01*
X94545578Y-124402096D01*
X94423052Y-124364928D01*
X94310134Y-124304572D01*
X94211157Y-124223343D01*
X94129928Y-124124366D01*
X94069572Y-124011448D01*
X94032404Y-123888922D01*
X94019855Y-123761500D01*
X94032404Y-123634078D01*
X94069572Y-123511552D01*
X94129928Y-123398634D01*
X94211157Y-123299657D01*
X94310134Y-123218428D01*
X94423052Y-123158072D01*
X94545578Y-123120904D01*
X94641064Y-123111500D01*
X95504936Y-123111500D01*
X95600422Y-123120904D01*
X95600422Y-123120904D01*
G37*
G36*
X123590422Y-123120904D02*
X123712948Y-123158072D01*
X123825866Y-123218428D01*
X123924843Y-123299657D01*
X124006072Y-123398634D01*
X124066428Y-123511552D01*
X124103596Y-123634078D01*
X124116145Y-123761500D01*
X124103596Y-123888922D01*
X124066428Y-124011448D01*
X124006072Y-124124366D01*
X123924843Y-124223343D01*
X123825866Y-124304572D01*
X123712948Y-124364928D01*
X123590422Y-124402096D01*
X123494936Y-124411500D01*
X122631064Y-124411500D01*
X122535578Y-124402096D01*
X122413052Y-124364928D01*
X122300134Y-124304572D01*
X122201157Y-124223343D01*
X122119928Y-124124366D01*
X122059572Y-124011448D01*
X122022404Y-123888922D01*
X122009855Y-123761500D01*
X122022404Y-123634078D01*
X122059572Y-123511552D01*
X122119928Y-123398634D01*
X122201157Y-123299657D01*
X122300134Y-123218428D01*
X122413052Y-123158072D01*
X122535578Y-123120904D01*
X122631064Y-123111500D01*
X123494936Y-123111500D01*
X123590422Y-123120904D01*
X123590422Y-123120904D01*
G37*
G36*
X126180422Y-123120904D02*
X126302948Y-123158072D01*
X126415866Y-123218428D01*
X126514843Y-123299657D01*
X126596072Y-123398634D01*
X126656428Y-123511552D01*
X126693596Y-123634078D01*
X126706145Y-123761500D01*
X126693596Y-123888922D01*
X126656428Y-124011448D01*
X126596072Y-124124366D01*
X126514843Y-124223343D01*
X126415866Y-124304572D01*
X126302948Y-124364928D01*
X126180422Y-124402096D01*
X126084936Y-124411500D01*
X125221064Y-124411500D01*
X125125578Y-124402096D01*
X125003052Y-124364928D01*
X124890134Y-124304572D01*
X124791157Y-124223343D01*
X124709928Y-124124366D01*
X124649572Y-124011448D01*
X124612404Y-123888922D01*
X124599855Y-123761500D01*
X124612404Y-123634078D01*
X124649572Y-123511552D01*
X124709928Y-123398634D01*
X124791157Y-123299657D01*
X124890134Y-123218428D01*
X125003052Y-123158072D01*
X125125578Y-123120904D01*
X125221064Y-123111500D01*
X126084936Y-123111500D01*
X126180422Y-123120904D01*
X126180422Y-123120904D01*
G37*
G36*
X179757097Y-120321119D02*
X179929311Y-120373360D01*
X180088025Y-120458194D01*
X180227138Y-120572362D01*
X180341306Y-120711475D01*
X180426140Y-120870189D01*
X180478381Y-121042403D01*
X180496020Y-121221500D01*
X180478381Y-121400597D01*
X180426140Y-121572811D01*
X180341306Y-121731525D01*
X180227138Y-121870638D01*
X180088025Y-121984806D01*
X180088023Y-121984807D01*
X179929311Y-122069640D01*
X179757097Y-122121881D01*
X179622880Y-122135100D01*
X179533120Y-122135100D01*
X179398903Y-122121881D01*
X179226689Y-122069640D01*
X179067977Y-121984807D01*
X179067975Y-121984806D01*
X178928862Y-121870638D01*
X178814694Y-121731525D01*
X178729860Y-121572811D01*
X178677619Y-121400597D01*
X178659980Y-121221500D01*
X178677619Y-121042403D01*
X178729860Y-120870189D01*
X178814694Y-120711475D01*
X178928862Y-120572362D01*
X179067975Y-120458194D01*
X179226689Y-120373360D01*
X179398903Y-120321119D01*
X179533120Y-120307900D01*
X179622880Y-120307900D01*
X179757097Y-120321119D01*
X179757097Y-120321119D01*
G37*
G36*
X188111600Y-122135100D02*
X186284400Y-122135100D01*
X186284400Y-120307900D01*
X188111600Y-120307900D01*
X188111600Y-122135100D01*
X188111600Y-122135100D01*
G37*
G36*
X184837097Y-120321119D02*
X185009311Y-120373360D01*
X185168025Y-120458194D01*
X185307138Y-120572362D01*
X185421306Y-120711475D01*
X185506140Y-120870189D01*
X185558381Y-121042403D01*
X185576020Y-121221500D01*
X185558381Y-121400597D01*
X185506140Y-121572811D01*
X185421306Y-121731525D01*
X185307138Y-121870638D01*
X185168025Y-121984806D01*
X185168023Y-121984807D01*
X185009311Y-122069640D01*
X184837097Y-122121881D01*
X184702880Y-122135100D01*
X184613120Y-122135100D01*
X184478903Y-122121881D01*
X184306689Y-122069640D01*
X184147977Y-121984807D01*
X184147975Y-121984806D01*
X184008862Y-121870638D01*
X183894694Y-121731525D01*
X183809860Y-121572811D01*
X183757619Y-121400597D01*
X183739980Y-121221500D01*
X183757619Y-121042403D01*
X183809860Y-120870189D01*
X183894694Y-120711475D01*
X184008862Y-120572362D01*
X184147975Y-120458194D01*
X184306689Y-120373360D01*
X184478903Y-120321119D01*
X184613120Y-120307900D01*
X184702880Y-120307900D01*
X184837097Y-120321119D01*
X184837097Y-120321119D01*
G37*
G36*
X182297097Y-120321119D02*
X182469311Y-120373360D01*
X182628025Y-120458194D01*
X182767138Y-120572362D01*
X182881306Y-120711475D01*
X182966140Y-120870189D01*
X183018381Y-121042403D01*
X183036020Y-121221500D01*
X183018381Y-121400597D01*
X182966140Y-121572811D01*
X182881306Y-121731525D01*
X182767138Y-121870638D01*
X182628025Y-121984806D01*
X182628023Y-121984807D01*
X182469311Y-122069640D01*
X182297097Y-122121881D01*
X182162880Y-122135100D01*
X182073120Y-122135100D01*
X181938903Y-122121881D01*
X181766689Y-122069640D01*
X181607977Y-121984807D01*
X181607975Y-121984806D01*
X181468862Y-121870638D01*
X181354694Y-121731525D01*
X181269860Y-121572811D01*
X181217619Y-121400597D01*
X181199980Y-121221500D01*
X181217619Y-121042403D01*
X181269860Y-120870189D01*
X181354694Y-120711475D01*
X181468862Y-120572362D01*
X181607975Y-120458194D01*
X181766689Y-120373360D01*
X181938903Y-120321119D01*
X182073120Y-120307900D01*
X182162880Y-120307900D01*
X182297097Y-120321119D01*
X182297097Y-120321119D01*
G37*
G36*
X177217097Y-120321119D02*
X177389311Y-120373360D01*
X177548025Y-120458194D01*
X177687138Y-120572362D01*
X177801306Y-120711475D01*
X177886140Y-120870189D01*
X177938381Y-121042403D01*
X177956020Y-121221500D01*
X177938381Y-121400597D01*
X177886140Y-121572811D01*
X177801306Y-121731525D01*
X177687138Y-121870638D01*
X177548025Y-121984806D01*
X177548023Y-121984807D01*
X177389311Y-122069640D01*
X177217097Y-122121881D01*
X177082880Y-122135100D01*
X176993120Y-122135100D01*
X176858903Y-122121881D01*
X176686689Y-122069640D01*
X176527977Y-121984807D01*
X176527975Y-121984806D01*
X176388862Y-121870638D01*
X176274694Y-121731525D01*
X176189860Y-121572811D01*
X176137619Y-121400597D01*
X176119980Y-121221500D01*
X176137619Y-121042403D01*
X176189860Y-120870189D01*
X176274694Y-120711475D01*
X176388862Y-120572362D01*
X176527975Y-120458194D01*
X176686689Y-120373360D01*
X176858903Y-120321119D01*
X176993120Y-120307900D01*
X177082880Y-120307900D01*
X177217097Y-120321119D01*
X177217097Y-120321119D01*
G37*
G36*
X126180422Y-120580904D02*
X126302948Y-120618072D01*
X126415866Y-120678428D01*
X126514843Y-120759657D01*
X126596072Y-120858634D01*
X126656428Y-120971552D01*
X126693596Y-121094078D01*
X126706145Y-121221500D01*
X126693596Y-121348922D01*
X126656428Y-121471448D01*
X126596072Y-121584366D01*
X126514843Y-121683343D01*
X126415866Y-121764572D01*
X126302948Y-121824928D01*
X126180422Y-121862096D01*
X126084936Y-121871500D01*
X125221064Y-121871500D01*
X125125578Y-121862096D01*
X125003052Y-121824928D01*
X124890134Y-121764572D01*
X124791157Y-121683343D01*
X124709928Y-121584366D01*
X124649572Y-121471448D01*
X124612404Y-121348922D01*
X124599855Y-121221500D01*
X124612404Y-121094078D01*
X124649572Y-120971552D01*
X124709928Y-120858634D01*
X124791157Y-120759657D01*
X124890134Y-120678428D01*
X125003052Y-120618072D01*
X125125578Y-120580904D01*
X125221064Y-120571500D01*
X126084936Y-120571500D01*
X126180422Y-120580904D01*
X126180422Y-120580904D01*
G37*
G36*
X123590422Y-120580904D02*
X123712948Y-120618072D01*
X123825866Y-120678428D01*
X123924843Y-120759657D01*
X124006072Y-120858634D01*
X124066428Y-120971552D01*
X124103596Y-121094078D01*
X124116145Y-121221500D01*
X124103596Y-121348922D01*
X124066428Y-121471448D01*
X124006072Y-121584366D01*
X123924843Y-121683343D01*
X123825866Y-121764572D01*
X123712948Y-121824928D01*
X123590422Y-121862096D01*
X123494936Y-121871500D01*
X122631064Y-121871500D01*
X122535578Y-121862096D01*
X122413052Y-121824928D01*
X122300134Y-121764572D01*
X122201157Y-121683343D01*
X122119928Y-121584366D01*
X122059572Y-121471448D01*
X122022404Y-121348922D01*
X122009855Y-121221500D01*
X122022404Y-121094078D01*
X122059572Y-120971552D01*
X122119928Y-120858634D01*
X122201157Y-120759657D01*
X122300134Y-120678428D01*
X122413052Y-120618072D01*
X122535578Y-120580904D01*
X122631064Y-120571500D01*
X123494936Y-120571500D01*
X123590422Y-120580904D01*
X123590422Y-120580904D01*
G37*
G36*
X98140422Y-120580904D02*
X98262948Y-120618072D01*
X98375866Y-120678428D01*
X98474843Y-120759657D01*
X98556072Y-120858634D01*
X98616428Y-120971552D01*
X98653596Y-121094078D01*
X98666145Y-121221500D01*
X98653596Y-121348922D01*
X98616428Y-121471448D01*
X98556072Y-121584366D01*
X98474843Y-121683343D01*
X98375866Y-121764572D01*
X98262948Y-121824928D01*
X98140422Y-121862096D01*
X98044936Y-121871500D01*
X97181064Y-121871500D01*
X97085578Y-121862096D01*
X96963052Y-121824928D01*
X96850134Y-121764572D01*
X96751157Y-121683343D01*
X96669928Y-121584366D01*
X96609572Y-121471448D01*
X96572404Y-121348922D01*
X96559855Y-121221500D01*
X96572404Y-121094078D01*
X96609572Y-120971552D01*
X96669928Y-120858634D01*
X96751157Y-120759657D01*
X96850134Y-120678428D01*
X96963052Y-120618072D01*
X97085578Y-120580904D01*
X97181064Y-120571500D01*
X98044936Y-120571500D01*
X98140422Y-120580904D01*
X98140422Y-120580904D01*
G37*
G36*
X95600422Y-120580904D02*
X95722948Y-120618072D01*
X95835866Y-120678428D01*
X95934843Y-120759657D01*
X96016072Y-120858634D01*
X96076428Y-120971552D01*
X96113596Y-121094078D01*
X96126145Y-121221500D01*
X96113596Y-121348922D01*
X96076428Y-121471448D01*
X96016072Y-121584366D01*
X95934843Y-121683343D01*
X95835866Y-121764572D01*
X95722948Y-121824928D01*
X95600422Y-121862096D01*
X95504936Y-121871500D01*
X94641064Y-121871500D01*
X94545578Y-121862096D01*
X94423052Y-121824928D01*
X94310134Y-121764572D01*
X94211157Y-121683343D01*
X94129928Y-121584366D01*
X94069572Y-121471448D01*
X94032404Y-121348922D01*
X94019855Y-121221500D01*
X94032404Y-121094078D01*
X94069572Y-120971552D01*
X94129928Y-120858634D01*
X94211157Y-120759657D01*
X94310134Y-120678428D01*
X94423052Y-120618072D01*
X94545578Y-120580904D01*
X94641064Y-120571500D01*
X95504936Y-120571500D01*
X95600422Y-120580904D01*
X95600422Y-120580904D01*
G37*
G36*
X136663000Y-121740500D02*
X134863000Y-121740500D01*
X134863000Y-119940500D01*
X136663000Y-119940500D01*
X136663000Y-121740500D01*
X136663000Y-121740500D01*
G37*
G36*
X143559430Y-119953522D02*
X143729081Y-120004985D01*
X143885433Y-120088557D01*
X144022475Y-120201025D01*
X144134943Y-120338067D01*
X144218515Y-120494419D01*
X144269978Y-120664070D01*
X144287354Y-120840500D01*
X144269978Y-121016930D01*
X144218515Y-121186581D01*
X144134943Y-121342933D01*
X144022475Y-121479975D01*
X143885433Y-121592443D01*
X143729081Y-121676015D01*
X143559430Y-121727478D01*
X143427211Y-121740500D01*
X143338789Y-121740500D01*
X143206570Y-121727478D01*
X143036919Y-121676015D01*
X142880567Y-121592443D01*
X142743525Y-121479975D01*
X142631057Y-121342933D01*
X142547485Y-121186581D01*
X142496022Y-121016930D01*
X142478646Y-120840500D01*
X142496022Y-120664070D01*
X142547485Y-120494419D01*
X142631057Y-120338067D01*
X142743525Y-120201025D01*
X142880567Y-120088557D01*
X143036919Y-120004985D01*
X143206570Y-119953522D01*
X143338789Y-119940500D01*
X143427211Y-119940500D01*
X143559430Y-119953522D01*
X143559430Y-119953522D01*
G37*
G36*
X138479430Y-119953522D02*
X138649081Y-120004985D01*
X138805433Y-120088557D01*
X138942475Y-120201025D01*
X139054943Y-120338067D01*
X139138515Y-120494419D01*
X139189978Y-120664070D01*
X139207354Y-120840500D01*
X139189978Y-121016930D01*
X139138515Y-121186581D01*
X139054943Y-121342933D01*
X138942475Y-121479975D01*
X138805433Y-121592443D01*
X138649081Y-121676015D01*
X138479430Y-121727478D01*
X138347211Y-121740500D01*
X138258789Y-121740500D01*
X138126570Y-121727478D01*
X137956919Y-121676015D01*
X137800567Y-121592443D01*
X137663525Y-121479975D01*
X137551057Y-121342933D01*
X137467485Y-121186581D01*
X137416022Y-121016930D01*
X137398646Y-120840500D01*
X137416022Y-120664070D01*
X137467485Y-120494419D01*
X137551057Y-120338067D01*
X137663525Y-120201025D01*
X137800567Y-120088557D01*
X137956919Y-120004985D01*
X138126570Y-119953522D01*
X138258789Y-119940500D01*
X138347211Y-119940500D01*
X138479430Y-119953522D01*
X138479430Y-119953522D01*
G37*
G36*
X141019430Y-119953522D02*
X141189081Y-120004985D01*
X141345433Y-120088557D01*
X141482475Y-120201025D01*
X141594943Y-120338067D01*
X141678515Y-120494419D01*
X141729978Y-120664070D01*
X141747354Y-120840500D01*
X141729978Y-121016930D01*
X141678515Y-121186581D01*
X141594943Y-121342933D01*
X141482475Y-121479975D01*
X141345433Y-121592443D01*
X141189081Y-121676015D01*
X141019430Y-121727478D01*
X140887211Y-121740500D01*
X140798789Y-121740500D01*
X140666570Y-121727478D01*
X140496919Y-121676015D01*
X140340567Y-121592443D01*
X140203525Y-121479975D01*
X140091057Y-121342933D01*
X140007485Y-121186581D01*
X139956022Y-121016930D01*
X139938646Y-120840500D01*
X139956022Y-120664070D01*
X140007485Y-120494419D01*
X140091057Y-120338067D01*
X140203525Y-120201025D01*
X140340567Y-120088557D01*
X140496919Y-120004985D01*
X140666570Y-119953522D01*
X140798789Y-119940500D01*
X140887211Y-119940500D01*
X141019430Y-119953522D01*
X141019430Y-119953522D01*
G37*
G36*
X126180422Y-118040904D02*
X126302948Y-118078072D01*
X126415866Y-118138428D01*
X126514843Y-118219657D01*
X126596072Y-118318634D01*
X126656428Y-118431552D01*
X126693596Y-118554078D01*
X126706145Y-118681500D01*
X126693596Y-118808922D01*
X126656428Y-118931448D01*
X126596072Y-119044366D01*
X126514843Y-119143343D01*
X126415866Y-119224572D01*
X126302948Y-119284928D01*
X126180422Y-119322096D01*
X126084936Y-119331500D01*
X125221064Y-119331500D01*
X125125578Y-119322096D01*
X125003052Y-119284928D01*
X124890134Y-119224572D01*
X124791157Y-119143343D01*
X124709928Y-119044366D01*
X124649572Y-118931448D01*
X124612404Y-118808922D01*
X124599855Y-118681500D01*
X124612404Y-118554078D01*
X124649572Y-118431552D01*
X124709928Y-118318634D01*
X124791157Y-118219657D01*
X124890134Y-118138428D01*
X125003052Y-118078072D01*
X125125578Y-118040904D01*
X125221064Y-118031500D01*
X126084936Y-118031500D01*
X126180422Y-118040904D01*
X126180422Y-118040904D01*
G37*
G36*
X95600422Y-118040904D02*
X95722948Y-118078072D01*
X95835866Y-118138428D01*
X95934843Y-118219657D01*
X96016072Y-118318634D01*
X96076428Y-118431552D01*
X96113596Y-118554078D01*
X96126145Y-118681500D01*
X96113596Y-118808922D01*
X96076428Y-118931448D01*
X96016072Y-119044366D01*
X95934843Y-119143343D01*
X95835866Y-119224572D01*
X95722948Y-119284928D01*
X95600422Y-119322096D01*
X95504936Y-119331500D01*
X94641064Y-119331500D01*
X94545578Y-119322096D01*
X94423052Y-119284928D01*
X94310134Y-119224572D01*
X94211157Y-119143343D01*
X94129928Y-119044366D01*
X94069572Y-118931448D01*
X94032404Y-118808922D01*
X94019855Y-118681500D01*
X94032404Y-118554078D01*
X94069572Y-118431552D01*
X94129928Y-118318634D01*
X94211157Y-118219657D01*
X94310134Y-118138428D01*
X94423052Y-118078072D01*
X94545578Y-118040904D01*
X94641064Y-118031500D01*
X95504936Y-118031500D01*
X95600422Y-118040904D01*
X95600422Y-118040904D01*
G37*
G36*
X98140422Y-118040904D02*
X98262948Y-118078072D01*
X98375866Y-118138428D01*
X98474843Y-118219657D01*
X98556072Y-118318634D01*
X98616428Y-118431552D01*
X98653596Y-118554078D01*
X98666145Y-118681500D01*
X98653596Y-118808922D01*
X98616428Y-118931448D01*
X98556072Y-119044366D01*
X98474843Y-119143343D01*
X98375866Y-119224572D01*
X98262948Y-119284928D01*
X98140422Y-119322096D01*
X98044936Y-119331500D01*
X97181064Y-119331500D01*
X97085578Y-119322096D01*
X96963052Y-119284928D01*
X96850134Y-119224572D01*
X96751157Y-119143343D01*
X96669928Y-119044366D01*
X96609572Y-118931448D01*
X96572404Y-118808922D01*
X96559855Y-118681500D01*
X96572404Y-118554078D01*
X96609572Y-118431552D01*
X96669928Y-118318634D01*
X96751157Y-118219657D01*
X96850134Y-118138428D01*
X96963052Y-118078072D01*
X97085578Y-118040904D01*
X97181064Y-118031500D01*
X98044936Y-118031500D01*
X98140422Y-118040904D01*
X98140422Y-118040904D01*
G37*
G36*
X123590422Y-118040904D02*
X123712948Y-118078072D01*
X123825866Y-118138428D01*
X123924843Y-118219657D01*
X124006072Y-118318634D01*
X124066428Y-118431552D01*
X124103596Y-118554078D01*
X124116145Y-118681500D01*
X124103596Y-118808922D01*
X124066428Y-118931448D01*
X124006072Y-119044366D01*
X123924843Y-119143343D01*
X123825866Y-119224572D01*
X123712948Y-119284928D01*
X123590422Y-119322096D01*
X123494936Y-119331500D01*
X122631064Y-119331500D01*
X122535578Y-119322096D01*
X122413052Y-119284928D01*
X122300134Y-119224572D01*
X122201157Y-119143343D01*
X122119928Y-119044366D01*
X122059572Y-118931448D01*
X122022404Y-118808922D01*
X122009855Y-118681500D01*
X122022404Y-118554078D01*
X122059572Y-118431552D01*
X122119928Y-118318634D01*
X122201157Y-118219657D01*
X122300134Y-118138428D01*
X122413052Y-118078072D01*
X122535578Y-118040904D01*
X122631064Y-118031500D01*
X123494936Y-118031500D01*
X123590422Y-118040904D01*
X123590422Y-118040904D01*
G37*
G36*
X155671000Y-117190500D02*
X154971000Y-117190500D01*
X154971000Y-115090500D01*
X155671000Y-115090500D01*
X155671000Y-117190500D01*
X155671000Y-117190500D01*
G37*
G36*
X159481000Y-117190500D02*
X158781000Y-117190500D01*
X158781000Y-115090500D01*
X159481000Y-115090500D01*
X159481000Y-117190500D01*
X159481000Y-117190500D01*
G37*
G36*
X158211000Y-117190500D02*
X157511000Y-117190500D01*
X157511000Y-115090500D01*
X158211000Y-115090500D01*
X158211000Y-117190500D01*
X158211000Y-117190500D01*
G37*
G36*
X156941000Y-117190500D02*
X156241000Y-117190500D01*
X156241000Y-115090500D01*
X156941000Y-115090500D01*
X156941000Y-117190500D01*
X156941000Y-117190500D01*
G37*
G36*
X149321000Y-117190500D02*
X148621000Y-117190500D01*
X148621000Y-115090500D01*
X149321000Y-115090500D01*
X149321000Y-117190500D01*
X149321000Y-117190500D01*
G37*
G36*
X150591000Y-117190500D02*
X149891000Y-117190500D01*
X149891000Y-115090500D01*
X150591000Y-115090500D01*
X150591000Y-117190500D01*
X150591000Y-117190500D01*
G37*
G36*
X151861000Y-117190500D02*
X151161000Y-117190500D01*
X151161000Y-115090500D01*
X151861000Y-115090500D01*
X151861000Y-117190500D01*
X151861000Y-117190500D01*
G37*
G36*
X153131000Y-117190500D02*
X152431000Y-117190500D01*
X152431000Y-115090500D01*
X153131000Y-115090500D01*
X153131000Y-117190500D01*
X153131000Y-117190500D01*
G37*
G36*
X154401000Y-117190500D02*
X153701000Y-117190500D01*
X153701000Y-115090500D01*
X154401000Y-115090500D01*
X154401000Y-117190500D01*
X154401000Y-117190500D01*
G37*
G36*
X126180422Y-115500904D02*
X126302948Y-115538072D01*
X126415866Y-115598428D01*
X126514843Y-115679657D01*
X126596072Y-115778634D01*
X126656428Y-115891552D01*
X126693596Y-116014078D01*
X126706145Y-116141500D01*
X126693596Y-116268922D01*
X126656428Y-116391448D01*
X126596072Y-116504366D01*
X126514843Y-116603343D01*
X126415866Y-116684572D01*
X126302948Y-116744928D01*
X126180422Y-116782096D01*
X126084936Y-116791500D01*
X125221064Y-116791500D01*
X125125578Y-116782096D01*
X125003052Y-116744928D01*
X124890134Y-116684572D01*
X124791157Y-116603343D01*
X124709928Y-116504366D01*
X124649572Y-116391448D01*
X124612404Y-116268922D01*
X124599855Y-116141500D01*
X124612404Y-116014078D01*
X124649572Y-115891552D01*
X124709928Y-115778634D01*
X124791157Y-115679657D01*
X124890134Y-115598428D01*
X125003052Y-115538072D01*
X125125578Y-115500904D01*
X125221064Y-115491500D01*
X126084936Y-115491500D01*
X126180422Y-115500904D01*
X126180422Y-115500904D01*
G37*
G36*
X123590422Y-115500904D02*
X123712948Y-115538072D01*
X123825866Y-115598428D01*
X123924843Y-115679657D01*
X124006072Y-115778634D01*
X124066428Y-115891552D01*
X124103596Y-116014078D01*
X124116145Y-116141500D01*
X124103596Y-116268922D01*
X124066428Y-116391448D01*
X124006072Y-116504366D01*
X123924843Y-116603343D01*
X123825866Y-116684572D01*
X123712948Y-116744928D01*
X123590422Y-116782096D01*
X123494936Y-116791500D01*
X122631064Y-116791500D01*
X122535578Y-116782096D01*
X122413052Y-116744928D01*
X122300134Y-116684572D01*
X122201157Y-116603343D01*
X122119928Y-116504366D01*
X122059572Y-116391448D01*
X122022404Y-116268922D01*
X122009855Y-116141500D01*
X122022404Y-116014078D01*
X122059572Y-115891552D01*
X122119928Y-115778634D01*
X122201157Y-115679657D01*
X122300134Y-115598428D01*
X122413052Y-115538072D01*
X122535578Y-115500904D01*
X122631064Y-115491500D01*
X123494936Y-115491500D01*
X123590422Y-115500904D01*
X123590422Y-115500904D01*
G37*
G36*
X98140422Y-115500904D02*
X98262948Y-115538072D01*
X98375866Y-115598428D01*
X98474843Y-115679657D01*
X98556072Y-115778634D01*
X98616428Y-115891552D01*
X98653596Y-116014078D01*
X98666145Y-116141500D01*
X98653596Y-116268922D01*
X98616428Y-116391448D01*
X98556072Y-116504366D01*
X98474843Y-116603343D01*
X98375866Y-116684572D01*
X98262948Y-116744928D01*
X98140422Y-116782096D01*
X98044936Y-116791500D01*
X97181064Y-116791500D01*
X97085578Y-116782096D01*
X96963052Y-116744928D01*
X96850134Y-116684572D01*
X96751157Y-116603343D01*
X96669928Y-116504366D01*
X96609572Y-116391448D01*
X96572404Y-116268922D01*
X96559855Y-116141500D01*
X96572404Y-116014078D01*
X96609572Y-115891552D01*
X96669928Y-115778634D01*
X96751157Y-115679657D01*
X96850134Y-115598428D01*
X96963052Y-115538072D01*
X97085578Y-115500904D01*
X97181064Y-115491500D01*
X98044936Y-115491500D01*
X98140422Y-115500904D01*
X98140422Y-115500904D01*
G37*
G36*
X95600422Y-115500904D02*
X95722948Y-115538072D01*
X95835866Y-115598428D01*
X95934843Y-115679657D01*
X96016072Y-115778634D01*
X96076428Y-115891552D01*
X96113596Y-116014078D01*
X96126145Y-116141500D01*
X96113596Y-116268922D01*
X96076428Y-116391448D01*
X96016072Y-116504366D01*
X95934843Y-116603343D01*
X95835866Y-116684572D01*
X95722948Y-116744928D01*
X95600422Y-116782096D01*
X95504936Y-116791500D01*
X94641064Y-116791500D01*
X94545578Y-116782096D01*
X94423052Y-116744928D01*
X94310134Y-116684572D01*
X94211157Y-116603343D01*
X94129928Y-116504366D01*
X94069572Y-116391448D01*
X94032404Y-116268922D01*
X94019855Y-116141500D01*
X94032404Y-116014078D01*
X94069572Y-115891552D01*
X94129928Y-115778634D01*
X94211157Y-115679657D01*
X94310134Y-115598428D01*
X94423052Y-115538072D01*
X94545578Y-115500904D01*
X94641064Y-115491500D01*
X95504936Y-115491500D01*
X95600422Y-115500904D01*
X95600422Y-115500904D01*
G37*
G36*
X107855500Y-115958500D02*
X107155500Y-115958500D01*
X107155500Y-114358500D01*
X107855500Y-114358500D01*
X107855500Y-115958500D01*
X107855500Y-115958500D01*
G37*
G36*
X110395500Y-115958500D02*
X109695500Y-115958500D01*
X109695500Y-114358500D01*
X110395500Y-114358500D01*
X110395500Y-115958500D01*
X110395500Y-115958500D01*
G37*
G36*
X112935500Y-115958500D02*
X112235500Y-115958500D01*
X112235500Y-114358500D01*
X112935500Y-114358500D01*
X112935500Y-115958500D01*
X112935500Y-115958500D01*
G37*
G36*
X115475500Y-115958500D02*
X114775500Y-115958500D01*
X114775500Y-114358500D01*
X115475500Y-114358500D01*
X115475500Y-115958500D01*
X115475500Y-115958500D01*
G37*
G36*
X111665500Y-115958500D02*
X110965500Y-115958500D01*
X110965500Y-114358500D01*
X111665500Y-114358500D01*
X111665500Y-115958500D01*
X111665500Y-115958500D01*
G37*
G36*
X109125500Y-115958500D02*
X108425500Y-115958500D01*
X108425500Y-114358500D01*
X109125500Y-114358500D01*
X109125500Y-115958500D01*
X109125500Y-115958500D01*
G37*
G36*
X114205500Y-115958500D02*
X113505500Y-115958500D01*
X113505500Y-114358500D01*
X114205500Y-114358500D01*
X114205500Y-115958500D01*
X114205500Y-115958500D01*
G37*
G36*
X138605496Y-110507309D02*
X138729081Y-110558500D01*
X138984397Y-110664255D01*
X138984400Y-110664257D01*
X139325397Y-110892103D01*
X139615397Y-111182103D01*
X139843243Y-111523100D01*
X139843245Y-111523103D01*
X139917386Y-111702095D01*
X140000191Y-111902004D01*
X140080200Y-112304239D01*
X140080200Y-112714361D01*
X140000191Y-113116596D01*
X139949642Y-113238632D01*
X139843245Y-113495497D01*
X139843243Y-113495500D01*
X139615397Y-113836497D01*
X139325397Y-114126497D01*
X138984400Y-114354343D01*
X138984397Y-114354345D01*
X138770747Y-114442841D01*
X138605496Y-114511291D01*
X138203261Y-114591300D01*
X137793139Y-114591300D01*
X137390904Y-114511291D01*
X137225653Y-114442841D01*
X137012003Y-114354345D01*
X137012000Y-114354343D01*
X136671003Y-114126497D01*
X136381003Y-113836497D01*
X136153157Y-113495500D01*
X136153155Y-113495497D01*
X136046758Y-113238632D01*
X135996209Y-113116596D01*
X135916200Y-112714361D01*
X135916200Y-112304239D01*
X135996209Y-111902004D01*
X136079014Y-111702095D01*
X136153155Y-111523103D01*
X136153157Y-111523100D01*
X136381003Y-111182103D01*
X136671003Y-110892103D01*
X137012000Y-110664257D01*
X137012003Y-110664255D01*
X137267319Y-110558500D01*
X137390904Y-110507309D01*
X137793139Y-110427300D01*
X138203261Y-110427300D01*
X138605496Y-110507309D01*
X138605496Y-110507309D01*
G37*
G36*
X95600422Y-112960904D02*
X95722948Y-112998072D01*
X95835866Y-113058428D01*
X95934843Y-113139657D01*
X96016072Y-113238634D01*
X96076428Y-113351552D01*
X96113596Y-113474078D01*
X96126145Y-113601500D01*
X96113596Y-113728922D01*
X96076428Y-113851448D01*
X96016072Y-113964366D01*
X95934843Y-114063343D01*
X95835866Y-114144572D01*
X95722948Y-114204928D01*
X95600422Y-114242096D01*
X95504936Y-114251500D01*
X94641064Y-114251500D01*
X94545578Y-114242096D01*
X94423052Y-114204928D01*
X94310134Y-114144572D01*
X94211157Y-114063343D01*
X94129928Y-113964366D01*
X94069572Y-113851448D01*
X94032404Y-113728922D01*
X94019855Y-113601500D01*
X94032404Y-113474078D01*
X94069572Y-113351552D01*
X94129928Y-113238634D01*
X94211157Y-113139657D01*
X94310134Y-113058428D01*
X94423052Y-112998072D01*
X94545578Y-112960904D01*
X94641064Y-112951500D01*
X95504936Y-112951500D01*
X95600422Y-112960904D01*
X95600422Y-112960904D01*
G37*
G36*
X126180422Y-112960904D02*
X126302948Y-112998072D01*
X126415866Y-113058428D01*
X126514843Y-113139657D01*
X126596072Y-113238634D01*
X126656428Y-113351552D01*
X126693596Y-113474078D01*
X126706145Y-113601500D01*
X126693596Y-113728922D01*
X126656428Y-113851448D01*
X126596072Y-113964366D01*
X126514843Y-114063343D01*
X126415866Y-114144572D01*
X126302948Y-114204928D01*
X126180422Y-114242096D01*
X126084936Y-114251500D01*
X125221064Y-114251500D01*
X125125578Y-114242096D01*
X125003052Y-114204928D01*
X124890134Y-114144572D01*
X124791157Y-114063343D01*
X124709928Y-113964366D01*
X124649572Y-113851448D01*
X124612404Y-113728922D01*
X124599855Y-113601500D01*
X124612404Y-113474078D01*
X124649572Y-113351552D01*
X124709928Y-113238634D01*
X124791157Y-113139657D01*
X124890134Y-113058428D01*
X125003052Y-112998072D01*
X125125578Y-112960904D01*
X125221064Y-112951500D01*
X126084936Y-112951500D01*
X126180422Y-112960904D01*
X126180422Y-112960904D01*
G37*
G36*
X123590422Y-112960904D02*
X123712948Y-112998072D01*
X123825866Y-113058428D01*
X123924843Y-113139657D01*
X124006072Y-113238634D01*
X124066428Y-113351552D01*
X124103596Y-113474078D01*
X124116145Y-113601500D01*
X124103596Y-113728922D01*
X124066428Y-113851448D01*
X124006072Y-113964366D01*
X123924843Y-114063343D01*
X123825866Y-114144572D01*
X123712948Y-114204928D01*
X123590422Y-114242096D01*
X123494936Y-114251500D01*
X122631064Y-114251500D01*
X122535578Y-114242096D01*
X122413052Y-114204928D01*
X122300134Y-114144572D01*
X122201157Y-114063343D01*
X122119928Y-113964366D01*
X122059572Y-113851448D01*
X122022404Y-113728922D01*
X122009855Y-113601500D01*
X122022404Y-113474078D01*
X122059572Y-113351552D01*
X122119928Y-113238634D01*
X122201157Y-113139657D01*
X122300134Y-113058428D01*
X122413052Y-112998072D01*
X122535578Y-112960904D01*
X122631064Y-112951500D01*
X123494936Y-112951500D01*
X123590422Y-112960904D01*
X123590422Y-112960904D01*
G37*
G36*
X98140422Y-112960904D02*
X98262948Y-112998072D01*
X98375866Y-113058428D01*
X98474843Y-113139657D01*
X98556072Y-113238634D01*
X98616428Y-113351552D01*
X98653596Y-113474078D01*
X98666145Y-113601500D01*
X98653596Y-113728922D01*
X98616428Y-113851448D01*
X98556072Y-113964366D01*
X98474843Y-114063343D01*
X98375866Y-114144572D01*
X98262948Y-114204928D01*
X98140422Y-114242096D01*
X98044936Y-114251500D01*
X97181064Y-114251500D01*
X97085578Y-114242096D01*
X96963052Y-114204928D01*
X96850134Y-114144572D01*
X96751157Y-114063343D01*
X96669928Y-113964366D01*
X96609572Y-113851448D01*
X96572404Y-113728922D01*
X96559855Y-113601500D01*
X96572404Y-113474078D01*
X96609572Y-113351552D01*
X96669928Y-113238634D01*
X96751157Y-113139657D01*
X96850134Y-113058428D01*
X96963052Y-112998072D01*
X97085578Y-112960904D01*
X97181064Y-112951500D01*
X98044936Y-112951500D01*
X98140422Y-112960904D01*
X98140422Y-112960904D01*
G37*
G36*
X126180422Y-110420904D02*
X126302948Y-110458072D01*
X126415866Y-110518428D01*
X126514843Y-110599657D01*
X126596072Y-110698634D01*
X126656428Y-110811552D01*
X126693596Y-110934078D01*
X126706145Y-111061500D01*
X126693596Y-111188922D01*
X126656428Y-111311448D01*
X126596072Y-111424366D01*
X126514843Y-111523343D01*
X126415866Y-111604572D01*
X126302948Y-111664928D01*
X126180422Y-111702096D01*
X126084936Y-111711500D01*
X125221064Y-111711500D01*
X125125578Y-111702096D01*
X125003052Y-111664928D01*
X124890134Y-111604572D01*
X124791157Y-111523343D01*
X124709928Y-111424366D01*
X124649572Y-111311448D01*
X124612404Y-111188922D01*
X124599855Y-111061500D01*
X124612404Y-110934078D01*
X124649572Y-110811552D01*
X124709928Y-110698634D01*
X124791157Y-110599657D01*
X124890134Y-110518428D01*
X125003052Y-110458072D01*
X125125578Y-110420904D01*
X125221064Y-110411500D01*
X126084936Y-110411500D01*
X126180422Y-110420904D01*
X126180422Y-110420904D01*
G37*
G36*
X98140422Y-110420904D02*
X98262948Y-110458072D01*
X98375866Y-110518428D01*
X98474843Y-110599657D01*
X98556072Y-110698634D01*
X98616428Y-110811552D01*
X98653596Y-110934078D01*
X98666145Y-111061500D01*
X98653596Y-111188922D01*
X98616428Y-111311448D01*
X98556072Y-111424366D01*
X98474843Y-111523343D01*
X98375866Y-111604572D01*
X98262948Y-111664928D01*
X98140422Y-111702096D01*
X98044936Y-111711500D01*
X97181064Y-111711500D01*
X97085578Y-111702096D01*
X96963052Y-111664928D01*
X96850134Y-111604572D01*
X96751157Y-111523343D01*
X96669928Y-111424366D01*
X96609572Y-111311448D01*
X96572404Y-111188922D01*
X96559855Y-111061500D01*
X96572404Y-110934078D01*
X96609572Y-110811552D01*
X96669928Y-110698634D01*
X96751157Y-110599657D01*
X96850134Y-110518428D01*
X96963052Y-110458072D01*
X97085578Y-110420904D01*
X97181064Y-110411500D01*
X98044936Y-110411500D01*
X98140422Y-110420904D01*
X98140422Y-110420904D01*
G37*
G36*
X123590422Y-110420904D02*
X123712948Y-110458072D01*
X123825866Y-110518428D01*
X123924843Y-110599657D01*
X124006072Y-110698634D01*
X124066428Y-110811552D01*
X124103596Y-110934078D01*
X124116145Y-111061500D01*
X124103596Y-111188922D01*
X124066428Y-111311448D01*
X124006072Y-111424366D01*
X123924843Y-111523343D01*
X123825866Y-111604572D01*
X123712948Y-111664928D01*
X123590422Y-111702096D01*
X123494936Y-111711500D01*
X122631064Y-111711500D01*
X122535578Y-111702096D01*
X122413052Y-111664928D01*
X122300134Y-111604572D01*
X122201157Y-111523343D01*
X122119928Y-111424366D01*
X122059572Y-111311448D01*
X122022404Y-111188922D01*
X122009855Y-111061500D01*
X122022404Y-110934078D01*
X122059572Y-110811552D01*
X122119928Y-110698634D01*
X122201157Y-110599657D01*
X122300134Y-110518428D01*
X122413052Y-110458072D01*
X122535578Y-110420904D01*
X122631064Y-110411500D01*
X123494936Y-110411500D01*
X123590422Y-110420904D01*
X123590422Y-110420904D01*
G37*
G36*
X95600422Y-110420904D02*
X95722948Y-110458072D01*
X95835866Y-110518428D01*
X95934843Y-110599657D01*
X96016072Y-110698634D01*
X96076428Y-110811552D01*
X96113596Y-110934078D01*
X96126145Y-111061500D01*
X96113596Y-111188922D01*
X96076428Y-111311448D01*
X96016072Y-111424366D01*
X95934843Y-111523343D01*
X95835866Y-111604572D01*
X95722948Y-111664928D01*
X95600422Y-111702096D01*
X95504936Y-111711500D01*
X94641064Y-111711500D01*
X94545578Y-111702096D01*
X94423052Y-111664928D01*
X94310134Y-111604572D01*
X94211157Y-111523343D01*
X94129928Y-111424366D01*
X94069572Y-111311448D01*
X94032404Y-111188922D01*
X94019855Y-111061500D01*
X94032404Y-110934078D01*
X94069572Y-110811552D01*
X94129928Y-110698634D01*
X94211157Y-110599657D01*
X94310134Y-110518428D01*
X94423052Y-110458072D01*
X94545578Y-110420904D01*
X94641064Y-110411500D01*
X95504936Y-110411500D01*
X95600422Y-110420904D01*
X95600422Y-110420904D01*
G37*
G36*
X111665500Y-110558500D02*
X110965500Y-110558500D01*
X110965500Y-108958500D01*
X111665500Y-108958500D01*
X111665500Y-110558500D01*
X111665500Y-110558500D01*
G37*
G36*
X114205500Y-110558500D02*
X113505500Y-110558500D01*
X113505500Y-108958500D01*
X114205500Y-108958500D01*
X114205500Y-110558500D01*
X114205500Y-110558500D01*
G37*
G36*
X115475500Y-110558500D02*
X114775500Y-110558500D01*
X114775500Y-108958500D01*
X115475500Y-108958500D01*
X115475500Y-110558500D01*
X115475500Y-110558500D01*
G37*
G36*
X109125500Y-110558500D02*
X108425500Y-110558500D01*
X108425500Y-108958500D01*
X109125500Y-108958500D01*
X109125500Y-110558500D01*
X109125500Y-110558500D01*
G37*
G36*
X110395500Y-110558500D02*
X109695500Y-110558500D01*
X109695500Y-108958500D01*
X110395500Y-108958500D01*
X110395500Y-110558500D01*
X110395500Y-110558500D01*
G37*
G36*
X112935500Y-110558500D02*
X112235500Y-110558500D01*
X112235500Y-108958500D01*
X112935500Y-108958500D01*
X112935500Y-110558500D01*
X112935500Y-110558500D01*
G37*
G36*
X107855500Y-110558500D02*
X107155500Y-110558500D01*
X107155500Y-108958500D01*
X107855500Y-108958500D01*
X107855500Y-110558500D01*
X107855500Y-110558500D01*
G37*
G36*
X184837097Y-108256119D02*
X185009311Y-108308360D01*
X185168025Y-108393194D01*
X185307138Y-108507362D01*
X185421306Y-108646475D01*
X185506140Y-108805189D01*
X185558381Y-108977403D01*
X185576020Y-109156500D01*
X185558381Y-109335597D01*
X185506140Y-109507811D01*
X185421306Y-109666525D01*
X185307138Y-109805638D01*
X185168025Y-109919806D01*
X185168023Y-109919807D01*
X185009311Y-110004640D01*
X184837097Y-110056881D01*
X184702880Y-110070100D01*
X184613120Y-110070100D01*
X184478903Y-110056881D01*
X184306689Y-110004640D01*
X184147977Y-109919807D01*
X184147975Y-109919806D01*
X184008862Y-109805638D01*
X183894694Y-109666525D01*
X183809860Y-109507811D01*
X183757619Y-109335597D01*
X183739980Y-109156500D01*
X183757619Y-108977403D01*
X183809860Y-108805189D01*
X183894694Y-108646475D01*
X184008862Y-108507362D01*
X184147975Y-108393194D01*
X184306689Y-108308360D01*
X184478903Y-108256119D01*
X184613120Y-108242900D01*
X184702880Y-108242900D01*
X184837097Y-108256119D01*
X184837097Y-108256119D01*
G37*
G36*
X187377097Y-108256119D02*
X187549311Y-108308360D01*
X187708025Y-108393194D01*
X187847138Y-108507362D01*
X187961306Y-108646475D01*
X188046140Y-108805189D01*
X188098381Y-108977403D01*
X188116020Y-109156500D01*
X188098381Y-109335597D01*
X188046140Y-109507811D01*
X187961306Y-109666525D01*
X187847138Y-109805638D01*
X187708025Y-109919806D01*
X187708023Y-109919807D01*
X187549311Y-110004640D01*
X187377097Y-110056881D01*
X187242880Y-110070100D01*
X187153120Y-110070100D01*
X187018903Y-110056881D01*
X186846689Y-110004640D01*
X186687977Y-109919807D01*
X186687975Y-109919806D01*
X186548862Y-109805638D01*
X186434694Y-109666525D01*
X186349860Y-109507811D01*
X186297619Y-109335597D01*
X186279980Y-109156500D01*
X186297619Y-108977403D01*
X186349860Y-108805189D01*
X186434694Y-108646475D01*
X186548862Y-108507362D01*
X186687975Y-108393194D01*
X186846689Y-108308360D01*
X187018903Y-108256119D01*
X187153120Y-108242900D01*
X187242880Y-108242900D01*
X187377097Y-108256119D01*
X187377097Y-108256119D01*
G37*
G36*
X177217097Y-108256119D02*
X177389311Y-108308360D01*
X177548025Y-108393194D01*
X177687138Y-108507362D01*
X177801306Y-108646475D01*
X177886140Y-108805189D01*
X177938381Y-108977403D01*
X177956020Y-109156500D01*
X177938381Y-109335597D01*
X177886140Y-109507811D01*
X177801306Y-109666525D01*
X177687138Y-109805638D01*
X177548025Y-109919806D01*
X177548023Y-109919807D01*
X177389311Y-110004640D01*
X177217097Y-110056881D01*
X177082880Y-110070100D01*
X176993120Y-110070100D01*
X176858903Y-110056881D01*
X176686689Y-110004640D01*
X176527977Y-109919807D01*
X176527975Y-109919806D01*
X176388862Y-109805638D01*
X176274694Y-109666525D01*
X176189860Y-109507811D01*
X176137619Y-109335597D01*
X176119980Y-109156500D01*
X176137619Y-108977403D01*
X176189860Y-108805189D01*
X176274694Y-108646475D01*
X176388862Y-108507362D01*
X176527975Y-108393194D01*
X176686689Y-108308360D01*
X176858903Y-108256119D01*
X176993120Y-108242900D01*
X177082880Y-108242900D01*
X177217097Y-108256119D01*
X177217097Y-108256119D01*
G37*
G36*
X179757097Y-108256119D02*
X179929311Y-108308360D01*
X180088025Y-108393194D01*
X180227138Y-108507362D01*
X180341306Y-108646475D01*
X180426140Y-108805189D01*
X180478381Y-108977403D01*
X180496020Y-109156500D01*
X180478381Y-109335597D01*
X180426140Y-109507811D01*
X180341306Y-109666525D01*
X180227138Y-109805638D01*
X180088025Y-109919806D01*
X180088023Y-109919807D01*
X179929311Y-110004640D01*
X179757097Y-110056881D01*
X179622880Y-110070100D01*
X179533120Y-110070100D01*
X179398903Y-110056881D01*
X179226689Y-110004640D01*
X179067977Y-109919807D01*
X179067975Y-109919806D01*
X178928862Y-109805638D01*
X178814694Y-109666525D01*
X178729860Y-109507811D01*
X178677619Y-109335597D01*
X178659980Y-109156500D01*
X178677619Y-108977403D01*
X178729860Y-108805189D01*
X178814694Y-108646475D01*
X178928862Y-108507362D01*
X179067975Y-108393194D01*
X179226689Y-108308360D01*
X179398903Y-108256119D01*
X179533120Y-108242900D01*
X179622880Y-108242900D01*
X179757097Y-108256119D01*
X179757097Y-108256119D01*
G37*
G36*
X182297097Y-108256119D02*
X182469311Y-108308360D01*
X182628025Y-108393194D01*
X182767138Y-108507362D01*
X182881306Y-108646475D01*
X182966140Y-108805189D01*
X183018381Y-108977403D01*
X183036020Y-109156500D01*
X183018381Y-109335597D01*
X182966140Y-109507811D01*
X182881306Y-109666525D01*
X182767138Y-109805638D01*
X182628025Y-109919806D01*
X182628023Y-109919807D01*
X182469311Y-110004640D01*
X182297097Y-110056881D01*
X182162880Y-110070100D01*
X182073120Y-110070100D01*
X181938903Y-110056881D01*
X181766689Y-110004640D01*
X181607977Y-109919807D01*
X181607975Y-109919806D01*
X181468862Y-109805638D01*
X181354694Y-109666525D01*
X181269860Y-109507811D01*
X181217619Y-109335597D01*
X181199980Y-109156500D01*
X181217619Y-108977403D01*
X181269860Y-108805189D01*
X181354694Y-108646475D01*
X181468862Y-108507362D01*
X181607975Y-108393194D01*
X181766689Y-108308360D01*
X181938903Y-108256119D01*
X182073120Y-108242900D01*
X182162880Y-108242900D01*
X182297097Y-108256119D01*
X182297097Y-108256119D01*
G37*
G36*
X95600422Y-107880904D02*
X95722948Y-107918072D01*
X95835866Y-107978428D01*
X95934843Y-108059657D01*
X96016072Y-108158634D01*
X96076428Y-108271552D01*
X96113596Y-108394078D01*
X96126145Y-108521500D01*
X96113596Y-108648922D01*
X96076428Y-108771448D01*
X96016072Y-108884366D01*
X95934843Y-108983343D01*
X95835866Y-109064572D01*
X95722948Y-109124928D01*
X95600422Y-109162096D01*
X95504936Y-109171500D01*
X94641064Y-109171500D01*
X94545578Y-109162096D01*
X94423052Y-109124928D01*
X94310134Y-109064572D01*
X94211157Y-108983343D01*
X94129928Y-108884366D01*
X94069572Y-108771448D01*
X94032404Y-108648922D01*
X94019855Y-108521500D01*
X94032404Y-108394078D01*
X94069572Y-108271552D01*
X94129928Y-108158634D01*
X94211157Y-108059657D01*
X94310134Y-107978428D01*
X94423052Y-107918072D01*
X94545578Y-107880904D01*
X94641064Y-107871500D01*
X95504936Y-107871500D01*
X95600422Y-107880904D01*
X95600422Y-107880904D01*
G37*
G36*
X123590422Y-107880904D02*
X123712948Y-107918072D01*
X123825866Y-107978428D01*
X123924843Y-108059657D01*
X124006072Y-108158634D01*
X124066428Y-108271552D01*
X124103596Y-108394078D01*
X124116145Y-108521500D01*
X124103596Y-108648922D01*
X124066428Y-108771448D01*
X124006072Y-108884366D01*
X123924843Y-108983343D01*
X123825866Y-109064572D01*
X123712948Y-109124928D01*
X123590422Y-109162096D01*
X123494936Y-109171500D01*
X122631064Y-109171500D01*
X122535578Y-109162096D01*
X122413052Y-109124928D01*
X122300134Y-109064572D01*
X122201157Y-108983343D01*
X122119928Y-108884366D01*
X122059572Y-108771448D01*
X122022404Y-108648922D01*
X122009855Y-108521500D01*
X122022404Y-108394078D01*
X122059572Y-108271552D01*
X122119928Y-108158634D01*
X122201157Y-108059657D01*
X122300134Y-107978428D01*
X122413052Y-107918072D01*
X122535578Y-107880904D01*
X122631064Y-107871500D01*
X123494936Y-107871500D01*
X123590422Y-107880904D01*
X123590422Y-107880904D01*
G37*
G36*
X126180422Y-107880904D02*
X126302948Y-107918072D01*
X126415866Y-107978428D01*
X126514843Y-108059657D01*
X126596072Y-108158634D01*
X126656428Y-108271552D01*
X126693596Y-108394078D01*
X126706145Y-108521500D01*
X126693596Y-108648922D01*
X126656428Y-108771448D01*
X126596072Y-108884366D01*
X126514843Y-108983343D01*
X126415866Y-109064572D01*
X126302948Y-109124928D01*
X126180422Y-109162096D01*
X126084936Y-109171500D01*
X125221064Y-109171500D01*
X125125578Y-109162096D01*
X125003052Y-109124928D01*
X124890134Y-109064572D01*
X124791157Y-108983343D01*
X124709928Y-108884366D01*
X124649572Y-108771448D01*
X124612404Y-108648922D01*
X124599855Y-108521500D01*
X124612404Y-108394078D01*
X124649572Y-108271552D01*
X124709928Y-108158634D01*
X124791157Y-108059657D01*
X124890134Y-107978428D01*
X125003052Y-107918072D01*
X125125578Y-107880904D01*
X125221064Y-107871500D01*
X126084936Y-107871500D01*
X126180422Y-107880904D01*
X126180422Y-107880904D01*
G37*
G36*
X98140422Y-107880904D02*
X98262948Y-107918072D01*
X98375866Y-107978428D01*
X98474843Y-108059657D01*
X98556072Y-108158634D01*
X98616428Y-108271552D01*
X98653596Y-108394078D01*
X98666145Y-108521500D01*
X98653596Y-108648922D01*
X98616428Y-108771448D01*
X98556072Y-108884366D01*
X98474843Y-108983343D01*
X98375866Y-109064572D01*
X98262948Y-109124928D01*
X98140422Y-109162096D01*
X98044936Y-109171500D01*
X97181064Y-109171500D01*
X97085578Y-109162096D01*
X96963052Y-109124928D01*
X96850134Y-109064572D01*
X96751157Y-108983343D01*
X96669928Y-108884366D01*
X96609572Y-108771448D01*
X96572404Y-108648922D01*
X96559855Y-108521500D01*
X96572404Y-108394078D01*
X96609572Y-108271552D01*
X96669928Y-108158634D01*
X96751157Y-108059657D01*
X96850134Y-107978428D01*
X96963052Y-107918072D01*
X97085578Y-107880904D01*
X97181064Y-107871500D01*
X98044936Y-107871500D01*
X98140422Y-107880904D01*
X98140422Y-107880904D01*
G37*
G36*
X188111600Y-107530100D02*
X186284400Y-107530100D01*
X186284400Y-105702900D01*
X188111600Y-105702900D01*
X188111600Y-107530100D01*
X188111600Y-107530100D01*
G37*
G36*
X182297097Y-105716119D02*
X182469311Y-105768360D01*
X182628025Y-105853194D01*
X182767138Y-105967362D01*
X182881306Y-106106475D01*
X182966140Y-106265189D01*
X183018381Y-106437403D01*
X183036020Y-106616500D01*
X183018381Y-106795597D01*
X182966140Y-106967811D01*
X182881306Y-107126525D01*
X182767138Y-107265638D01*
X182628025Y-107379806D01*
X182628023Y-107379807D01*
X182469311Y-107464640D01*
X182297097Y-107516881D01*
X182162880Y-107530100D01*
X182073120Y-107530100D01*
X181938903Y-107516881D01*
X181766689Y-107464640D01*
X181607977Y-107379807D01*
X181607975Y-107379806D01*
X181468862Y-107265638D01*
X181354694Y-107126525D01*
X181269860Y-106967811D01*
X181217619Y-106795597D01*
X181199980Y-106616500D01*
X181217619Y-106437403D01*
X181269860Y-106265189D01*
X181354694Y-106106475D01*
X181468862Y-105967362D01*
X181607975Y-105853194D01*
X181766689Y-105768360D01*
X181938903Y-105716119D01*
X182073120Y-105702900D01*
X182162880Y-105702900D01*
X182297097Y-105716119D01*
X182297097Y-105716119D01*
G37*
G36*
X177217097Y-105716119D02*
X177389311Y-105768360D01*
X177548025Y-105853194D01*
X177687138Y-105967362D01*
X177801306Y-106106475D01*
X177886140Y-106265189D01*
X177938381Y-106437403D01*
X177956020Y-106616500D01*
X177938381Y-106795597D01*
X177886140Y-106967811D01*
X177801306Y-107126525D01*
X177687138Y-107265638D01*
X177548025Y-107379806D01*
X177548023Y-107379807D01*
X177389311Y-107464640D01*
X177217097Y-107516881D01*
X177082880Y-107530100D01*
X176993120Y-107530100D01*
X176858903Y-107516881D01*
X176686689Y-107464640D01*
X176527977Y-107379807D01*
X176527975Y-107379806D01*
X176388862Y-107265638D01*
X176274694Y-107126525D01*
X176189860Y-106967811D01*
X176137619Y-106795597D01*
X176119980Y-106616500D01*
X176137619Y-106437403D01*
X176189860Y-106265189D01*
X176274694Y-106106475D01*
X176388862Y-105967362D01*
X176527975Y-105853194D01*
X176686689Y-105768360D01*
X176858903Y-105716119D01*
X176993120Y-105702900D01*
X177082880Y-105702900D01*
X177217097Y-105716119D01*
X177217097Y-105716119D01*
G37*
G36*
X179757097Y-105716119D02*
X179929311Y-105768360D01*
X180088025Y-105853194D01*
X180227138Y-105967362D01*
X180341306Y-106106475D01*
X180426140Y-106265189D01*
X180478381Y-106437403D01*
X180496020Y-106616500D01*
X180478381Y-106795597D01*
X180426140Y-106967811D01*
X180341306Y-107126525D01*
X180227138Y-107265638D01*
X180088025Y-107379806D01*
X180088023Y-107379807D01*
X179929311Y-107464640D01*
X179757097Y-107516881D01*
X179622880Y-107530100D01*
X179533120Y-107530100D01*
X179398903Y-107516881D01*
X179226689Y-107464640D01*
X179067977Y-107379807D01*
X179067975Y-107379806D01*
X178928862Y-107265638D01*
X178814694Y-107126525D01*
X178729860Y-106967811D01*
X178677619Y-106795597D01*
X178659980Y-106616500D01*
X178677619Y-106437403D01*
X178729860Y-106265189D01*
X178814694Y-106106475D01*
X178928862Y-105967362D01*
X179067975Y-105853194D01*
X179226689Y-105768360D01*
X179398903Y-105716119D01*
X179533120Y-105702900D01*
X179622880Y-105702900D01*
X179757097Y-105716119D01*
X179757097Y-105716119D01*
G37*
G36*
X184837097Y-105716119D02*
X185009311Y-105768360D01*
X185168025Y-105853194D01*
X185307138Y-105967362D01*
X185421306Y-106106475D01*
X185506140Y-106265189D01*
X185558381Y-106437403D01*
X185576020Y-106616500D01*
X185558381Y-106795597D01*
X185506140Y-106967811D01*
X185421306Y-107126525D01*
X185307138Y-107265638D01*
X185168025Y-107379806D01*
X185168023Y-107379807D01*
X185009311Y-107464640D01*
X184837097Y-107516881D01*
X184702880Y-107530100D01*
X184613120Y-107530100D01*
X184478903Y-107516881D01*
X184306689Y-107464640D01*
X184147977Y-107379807D01*
X184147975Y-107379806D01*
X184008862Y-107265638D01*
X183894694Y-107126525D01*
X183809860Y-106967811D01*
X183757619Y-106795597D01*
X183739980Y-106616500D01*
X183757619Y-106437403D01*
X183809860Y-106265189D01*
X183894694Y-106106475D01*
X184008862Y-105967362D01*
X184147975Y-105853194D01*
X184306689Y-105768360D01*
X184478903Y-105716119D01*
X184613120Y-105702900D01*
X184702880Y-105702900D01*
X184837097Y-105716119D01*
X184837097Y-105716119D01*
G37*
G36*
X98140422Y-105340904D02*
X98262948Y-105378072D01*
X98375866Y-105438428D01*
X98474843Y-105519657D01*
X98556072Y-105618634D01*
X98616428Y-105731552D01*
X98653596Y-105854078D01*
X98666145Y-105981500D01*
X98653596Y-106108922D01*
X98616428Y-106231448D01*
X98556072Y-106344366D01*
X98474843Y-106443343D01*
X98375866Y-106524572D01*
X98262948Y-106584928D01*
X98140422Y-106622096D01*
X98044936Y-106631500D01*
X97181064Y-106631500D01*
X97085578Y-106622096D01*
X96963052Y-106584928D01*
X96850134Y-106524572D01*
X96751157Y-106443343D01*
X96669928Y-106344366D01*
X96609572Y-106231448D01*
X96572404Y-106108922D01*
X96559855Y-105981500D01*
X96572404Y-105854078D01*
X96609572Y-105731552D01*
X96669928Y-105618634D01*
X96751157Y-105519657D01*
X96850134Y-105438428D01*
X96963052Y-105378072D01*
X97085578Y-105340904D01*
X97181064Y-105331500D01*
X98044936Y-105331500D01*
X98140422Y-105340904D01*
X98140422Y-105340904D01*
G37*
G36*
X126180422Y-105340904D02*
X126302948Y-105378072D01*
X126415866Y-105438428D01*
X126514843Y-105519657D01*
X126596072Y-105618634D01*
X126656428Y-105731552D01*
X126693596Y-105854078D01*
X126706145Y-105981500D01*
X126693596Y-106108922D01*
X126656428Y-106231448D01*
X126596072Y-106344366D01*
X126514843Y-106443343D01*
X126415866Y-106524572D01*
X126302948Y-106584928D01*
X126180422Y-106622096D01*
X126084936Y-106631500D01*
X125221064Y-106631500D01*
X125125578Y-106622096D01*
X125003052Y-106584928D01*
X124890134Y-106524572D01*
X124791157Y-106443343D01*
X124709928Y-106344366D01*
X124649572Y-106231448D01*
X124612404Y-106108922D01*
X124599855Y-105981500D01*
X124612404Y-105854078D01*
X124649572Y-105731552D01*
X124709928Y-105618634D01*
X124791157Y-105519657D01*
X124890134Y-105438428D01*
X125003052Y-105378072D01*
X125125578Y-105340904D01*
X125221064Y-105331500D01*
X126084936Y-105331500D01*
X126180422Y-105340904D01*
X126180422Y-105340904D01*
G37*
G36*
X95600422Y-105340904D02*
X95722948Y-105378072D01*
X95835866Y-105438428D01*
X95934843Y-105519657D01*
X96016072Y-105618634D01*
X96076428Y-105731552D01*
X96113596Y-105854078D01*
X96126145Y-105981500D01*
X96113596Y-106108922D01*
X96076428Y-106231448D01*
X96016072Y-106344366D01*
X95934843Y-106443343D01*
X95835866Y-106524572D01*
X95722948Y-106584928D01*
X95600422Y-106622096D01*
X95504936Y-106631500D01*
X94641064Y-106631500D01*
X94545578Y-106622096D01*
X94423052Y-106584928D01*
X94310134Y-106524572D01*
X94211157Y-106443343D01*
X94129928Y-106344366D01*
X94069572Y-106231448D01*
X94032404Y-106108922D01*
X94019855Y-105981500D01*
X94032404Y-105854078D01*
X94069572Y-105731552D01*
X94129928Y-105618634D01*
X94211157Y-105519657D01*
X94310134Y-105438428D01*
X94423052Y-105378072D01*
X94545578Y-105340904D01*
X94641064Y-105331500D01*
X95504936Y-105331500D01*
X95600422Y-105340904D01*
X95600422Y-105340904D01*
G37*
G36*
X123590422Y-105340904D02*
X123712948Y-105378072D01*
X123825866Y-105438428D01*
X123924843Y-105519657D01*
X124006072Y-105618634D01*
X124066428Y-105731552D01*
X124103596Y-105854078D01*
X124116145Y-105981500D01*
X124103596Y-106108922D01*
X124066428Y-106231448D01*
X124006072Y-106344366D01*
X123924843Y-106443343D01*
X123825866Y-106524572D01*
X123712948Y-106584928D01*
X123590422Y-106622096D01*
X123494936Y-106631500D01*
X122631064Y-106631500D01*
X122535578Y-106622096D01*
X122413052Y-106584928D01*
X122300134Y-106524572D01*
X122201157Y-106443343D01*
X122119928Y-106344366D01*
X122059572Y-106231448D01*
X122022404Y-106108922D01*
X122009855Y-105981500D01*
X122022404Y-105854078D01*
X122059572Y-105731552D01*
X122119928Y-105618634D01*
X122201157Y-105519657D01*
X122300134Y-105438428D01*
X122413052Y-105378072D01*
X122535578Y-105340904D01*
X122631064Y-105331500D01*
X123494936Y-105331500D01*
X123590422Y-105340904D01*
X123590422Y-105340904D01*
G37*
G36*
X139159308Y-103295148D02*
X139311051Y-103341178D01*
X139450898Y-103415928D01*
X139573475Y-103516525D01*
X139674072Y-103639102D01*
X139748822Y-103778949D01*
X139794852Y-103930692D01*
X139806500Y-104048954D01*
X139806500Y-105628046D01*
X139794852Y-105746308D01*
X139748822Y-105898051D01*
X139674072Y-106037898D01*
X139573475Y-106160475D01*
X139450897Y-106261072D01*
X139311050Y-106335822D01*
X139159307Y-106381852D01*
X139001500Y-106397395D01*
X138843692Y-106381852D01*
X138691949Y-106335822D01*
X138552102Y-106261072D01*
X138429525Y-106160475D01*
X138328928Y-106037897D01*
X138254178Y-105898050D01*
X138208148Y-105746307D01*
X138196500Y-105628045D01*
X138196501Y-104048954D01*
X138208149Y-103930692D01*
X138254179Y-103778949D01*
X138328929Y-103639102D01*
X138429526Y-103516525D01*
X138552103Y-103415928D01*
X138691950Y-103341178D01*
X138843693Y-103295148D01*
X139001500Y-103279605D01*
X139159308Y-103295148D01*
X139159308Y-103295148D01*
G37*
G36*
X136619308Y-103295148D02*
X136771051Y-103341178D01*
X136910898Y-103415928D01*
X137033475Y-103516525D01*
X137134072Y-103639102D01*
X137208822Y-103778949D01*
X137254852Y-103930692D01*
X137266500Y-104048954D01*
X137266500Y-105628046D01*
X137254852Y-105746308D01*
X137208822Y-105898051D01*
X137134072Y-106037898D01*
X137033475Y-106160475D01*
X136910897Y-106261072D01*
X136771050Y-106335822D01*
X136619307Y-106381852D01*
X136461500Y-106397395D01*
X136303692Y-106381852D01*
X136151949Y-106335822D01*
X136012102Y-106261072D01*
X135889525Y-106160475D01*
X135788928Y-106037897D01*
X135714178Y-105898050D01*
X135668148Y-105746307D01*
X135656500Y-105628045D01*
X135656501Y-104048954D01*
X135668149Y-103930692D01*
X135714179Y-103778949D01*
X135788929Y-103639102D01*
X135889526Y-103516525D01*
X136012103Y-103415928D01*
X136151950Y-103341178D01*
X136303693Y-103295148D01*
X136461500Y-103279605D01*
X136619308Y-103295148D01*
X136619308Y-103295148D01*
G37*
G36*
X134079308Y-103295148D02*
X134231051Y-103341178D01*
X134370898Y-103415928D01*
X134493475Y-103516525D01*
X134594072Y-103639102D01*
X134668822Y-103778949D01*
X134714852Y-103930692D01*
X134726500Y-104048954D01*
X134726500Y-105628046D01*
X134714852Y-105746308D01*
X134668822Y-105898051D01*
X134594072Y-106037898D01*
X134493475Y-106160475D01*
X134370897Y-106261072D01*
X134231050Y-106335822D01*
X134079307Y-106381852D01*
X133921500Y-106397395D01*
X133763692Y-106381852D01*
X133611949Y-106335822D01*
X133472102Y-106261072D01*
X133349525Y-106160475D01*
X133248928Y-106037897D01*
X133174178Y-105898050D01*
X133128148Y-105746307D01*
X133116500Y-105628045D01*
X133116501Y-104048954D01*
X133128149Y-103930692D01*
X133174179Y-103778949D01*
X133248929Y-103639102D01*
X133349526Y-103516525D01*
X133472103Y-103415928D01*
X133611950Y-103341178D01*
X133763693Y-103295148D01*
X133921500Y-103279605D01*
X134079308Y-103295148D01*
X134079308Y-103295148D01*
G37*
G36*
X112856284Y-105334300D02*
X112900797Y-105347804D01*
X112941812Y-105369726D01*
X112977767Y-105399233D01*
X113007274Y-105435188D01*
X113029196Y-105476203D01*
X113042700Y-105520716D01*
X113047500Y-105569454D01*
X113047500Y-106139546D01*
X113042700Y-106188284D01*
X113029196Y-106232797D01*
X113007274Y-106273812D01*
X112977767Y-106309767D01*
X112941812Y-106339274D01*
X112900797Y-106361196D01*
X112856284Y-106374700D01*
X112807546Y-106379500D01*
X112137454Y-106379500D01*
X112088716Y-106374700D01*
X112044203Y-106361196D01*
X112003188Y-106339274D01*
X111967233Y-106309767D01*
X111937726Y-106273812D01*
X111915804Y-106232797D01*
X111902300Y-106188284D01*
X111897500Y-106139546D01*
X111897500Y-105569454D01*
X111902300Y-105520716D01*
X111915804Y-105476203D01*
X111937726Y-105435188D01*
X111967233Y-105399233D01*
X112003188Y-105369726D01*
X112044203Y-105347804D01*
X112088716Y-105334300D01*
X112137454Y-105329500D01*
X112807546Y-105329500D01*
X112856284Y-105334300D01*
X112856284Y-105334300D01*
G37*
G36*
X107331784Y-105334300D02*
X107376297Y-105347804D01*
X107417312Y-105369726D01*
X107453267Y-105399233D01*
X107482774Y-105435188D01*
X107504696Y-105476203D01*
X107518200Y-105520716D01*
X107523000Y-105569454D01*
X107523000Y-106139546D01*
X107518200Y-106188284D01*
X107504696Y-106232797D01*
X107482774Y-106273812D01*
X107453267Y-106309767D01*
X107417312Y-106339274D01*
X107376297Y-106361196D01*
X107331784Y-106374700D01*
X107283046Y-106379500D01*
X106612954Y-106379500D01*
X106564216Y-106374700D01*
X106519703Y-106361196D01*
X106478688Y-106339274D01*
X106442733Y-106309767D01*
X106413226Y-106273812D01*
X106391304Y-106232797D01*
X106377800Y-106188284D01*
X106373000Y-106139546D01*
X106373000Y-105569454D01*
X106377800Y-105520716D01*
X106391304Y-105476203D01*
X106413226Y-105435188D01*
X106442733Y-105399233D01*
X106478688Y-105369726D01*
X106519703Y-105347804D01*
X106564216Y-105334300D01*
X106612954Y-105329500D01*
X107283046Y-105329500D01*
X107331784Y-105334300D01*
X107331784Y-105334300D01*
G37*
G36*
X109081784Y-105334300D02*
X109126297Y-105347804D01*
X109167312Y-105369726D01*
X109203267Y-105399233D01*
X109232774Y-105435188D01*
X109254696Y-105476203D01*
X109268200Y-105520716D01*
X109273000Y-105569454D01*
X109273000Y-106139546D01*
X109268200Y-106188284D01*
X109254696Y-106232797D01*
X109232774Y-106273812D01*
X109203267Y-106309767D01*
X109167312Y-106339274D01*
X109126297Y-106361196D01*
X109081784Y-106374700D01*
X109033046Y-106379500D01*
X108362954Y-106379500D01*
X108314216Y-106374700D01*
X108269703Y-106361196D01*
X108228688Y-106339274D01*
X108192733Y-106309767D01*
X108163226Y-106273812D01*
X108141304Y-106232797D01*
X108127800Y-106188284D01*
X108123000Y-106139546D01*
X108123000Y-105569454D01*
X108127800Y-105520716D01*
X108141304Y-105476203D01*
X108163226Y-105435188D01*
X108192733Y-105399233D01*
X108228688Y-105369726D01*
X108269703Y-105347804D01*
X108314216Y-105334300D01*
X108362954Y-105329500D01*
X109033046Y-105329500D01*
X109081784Y-105334300D01*
X109081784Y-105334300D01*
G37*
G36*
X114606284Y-105334300D02*
X114650797Y-105347804D01*
X114691812Y-105369726D01*
X114727767Y-105399233D01*
X114757274Y-105435188D01*
X114779196Y-105476203D01*
X114792700Y-105520716D01*
X114797500Y-105569454D01*
X114797500Y-106139546D01*
X114792700Y-106188284D01*
X114779196Y-106232797D01*
X114757274Y-106273812D01*
X114727767Y-106309767D01*
X114691812Y-106339274D01*
X114650797Y-106361196D01*
X114606284Y-106374700D01*
X114557546Y-106379500D01*
X113887454Y-106379500D01*
X113838716Y-106374700D01*
X113794203Y-106361196D01*
X113753188Y-106339274D01*
X113717233Y-106309767D01*
X113687726Y-106273812D01*
X113665804Y-106232797D01*
X113652300Y-106188284D01*
X113647500Y-106139546D01*
X113647500Y-105569454D01*
X113652300Y-105520716D01*
X113665804Y-105476203D01*
X113687726Y-105435188D01*
X113717233Y-105399233D01*
X113753188Y-105369726D01*
X113794203Y-105347804D01*
X113838716Y-105334300D01*
X113887454Y-105329500D01*
X114557546Y-105329500D01*
X114606284Y-105334300D01*
X114606284Y-105334300D01*
G37*
G36*
X107331784Y-103556300D02*
X107376297Y-103569804D01*
X107417312Y-103591726D01*
X107453267Y-103621233D01*
X107482774Y-103657188D01*
X107504696Y-103698203D01*
X107518200Y-103742716D01*
X107523000Y-103791454D01*
X107523000Y-104361546D01*
X107518200Y-104410284D01*
X107504696Y-104454797D01*
X107482774Y-104495812D01*
X107453267Y-104531767D01*
X107417312Y-104561274D01*
X107376297Y-104583196D01*
X107331784Y-104596700D01*
X107283046Y-104601500D01*
X106612954Y-104601500D01*
X106564216Y-104596700D01*
X106519703Y-104583196D01*
X106478688Y-104561274D01*
X106442733Y-104531767D01*
X106413226Y-104495812D01*
X106391304Y-104454797D01*
X106377800Y-104410284D01*
X106373000Y-104361546D01*
X106373000Y-103791454D01*
X106377800Y-103742716D01*
X106391304Y-103698203D01*
X106413226Y-103657188D01*
X106442733Y-103621233D01*
X106478688Y-103591726D01*
X106519703Y-103569804D01*
X106564216Y-103556300D01*
X106612954Y-103551500D01*
X107283046Y-103551500D01*
X107331784Y-103556300D01*
X107331784Y-103556300D01*
G37*
G36*
X112856284Y-103556300D02*
X112900797Y-103569804D01*
X112941812Y-103591726D01*
X112977767Y-103621233D01*
X113007274Y-103657188D01*
X113029196Y-103698203D01*
X113042700Y-103742716D01*
X113047500Y-103791454D01*
X113047500Y-104361546D01*
X113042700Y-104410284D01*
X113029196Y-104454797D01*
X113007274Y-104495812D01*
X112977767Y-104531767D01*
X112941812Y-104561274D01*
X112900797Y-104583196D01*
X112856284Y-104596700D01*
X112807546Y-104601500D01*
X112137454Y-104601500D01*
X112088716Y-104596700D01*
X112044203Y-104583196D01*
X112003188Y-104561274D01*
X111967233Y-104531767D01*
X111937726Y-104495812D01*
X111915804Y-104454797D01*
X111902300Y-104410284D01*
X111897500Y-104361546D01*
X111897500Y-103791454D01*
X111902300Y-103742716D01*
X111915804Y-103698203D01*
X111937726Y-103657188D01*
X111967233Y-103621233D01*
X112003188Y-103591726D01*
X112044203Y-103569804D01*
X112088716Y-103556300D01*
X112137454Y-103551500D01*
X112807546Y-103551500D01*
X112856284Y-103556300D01*
X112856284Y-103556300D01*
G37*
G36*
X114606284Y-103556300D02*
X114650797Y-103569804D01*
X114691812Y-103591726D01*
X114727767Y-103621233D01*
X114757274Y-103657188D01*
X114779196Y-103698203D01*
X114792700Y-103742716D01*
X114797500Y-103791454D01*
X114797500Y-104361546D01*
X114792700Y-104410284D01*
X114779196Y-104454797D01*
X114757274Y-104495812D01*
X114727767Y-104531767D01*
X114691812Y-104561274D01*
X114650797Y-104583196D01*
X114606284Y-104596700D01*
X114557546Y-104601500D01*
X113887454Y-104601500D01*
X113838716Y-104596700D01*
X113794203Y-104583196D01*
X113753188Y-104561274D01*
X113717233Y-104531767D01*
X113687726Y-104495812D01*
X113665804Y-104454797D01*
X113652300Y-104410284D01*
X113647500Y-104361546D01*
X113647500Y-103791454D01*
X113652300Y-103742716D01*
X113665804Y-103698203D01*
X113687726Y-103657188D01*
X113717233Y-103621233D01*
X113753188Y-103591726D01*
X113794203Y-103569804D01*
X113838716Y-103556300D01*
X113887454Y-103551500D01*
X114557546Y-103551500D01*
X114606284Y-103556300D01*
X114606284Y-103556300D01*
G37*
G36*
X109081784Y-103556300D02*
X109126297Y-103569804D01*
X109167312Y-103591726D01*
X109203267Y-103621233D01*
X109232774Y-103657188D01*
X109254696Y-103698203D01*
X109268200Y-103742716D01*
X109273000Y-103791454D01*
X109273000Y-104361546D01*
X109268200Y-104410284D01*
X109254696Y-104454797D01*
X109232774Y-104495812D01*
X109203267Y-104531767D01*
X109167312Y-104561274D01*
X109126297Y-104583196D01*
X109081784Y-104596700D01*
X109033046Y-104601500D01*
X108362954Y-104601500D01*
X108314216Y-104596700D01*
X108269703Y-104583196D01*
X108228688Y-104561274D01*
X108192733Y-104531767D01*
X108163226Y-104495812D01*
X108141304Y-104454797D01*
X108127800Y-104410284D01*
X108123000Y-104361546D01*
X108123000Y-103791454D01*
X108127800Y-103742716D01*
X108141304Y-103698203D01*
X108163226Y-103657188D01*
X108192733Y-103621233D01*
X108228688Y-103591726D01*
X108269703Y-103569804D01*
X108314216Y-103556300D01*
X108362954Y-103551500D01*
X109033046Y-103551500D01*
X109081784Y-103556300D01*
X109081784Y-103556300D01*
G37*
G36*
X126180422Y-102800904D02*
X126302948Y-102838072D01*
X126415866Y-102898428D01*
X126514843Y-102979657D01*
X126596072Y-103078634D01*
X126656428Y-103191552D01*
X126693596Y-103314078D01*
X126706145Y-103441500D01*
X126693596Y-103568922D01*
X126656428Y-103691448D01*
X126596072Y-103804366D01*
X126514843Y-103903343D01*
X126415866Y-103984572D01*
X126302948Y-104044928D01*
X126180422Y-104082096D01*
X126084936Y-104091500D01*
X125221064Y-104091500D01*
X125125578Y-104082096D01*
X125003052Y-104044928D01*
X124890134Y-103984572D01*
X124791157Y-103903343D01*
X124709928Y-103804366D01*
X124649572Y-103691448D01*
X124612404Y-103568922D01*
X124599855Y-103441500D01*
X124612404Y-103314078D01*
X124649572Y-103191552D01*
X124709928Y-103078634D01*
X124791157Y-102979657D01*
X124890134Y-102898428D01*
X125003052Y-102838072D01*
X125125578Y-102800904D01*
X125221064Y-102791500D01*
X126084936Y-102791500D01*
X126180422Y-102800904D01*
X126180422Y-102800904D01*
G37*
G36*
X95600422Y-102800904D02*
X95722948Y-102838072D01*
X95835866Y-102898428D01*
X95934843Y-102979657D01*
X96016072Y-103078634D01*
X96076428Y-103191552D01*
X96113596Y-103314078D01*
X96126145Y-103441500D01*
X96113596Y-103568922D01*
X96076428Y-103691448D01*
X96016072Y-103804366D01*
X95934843Y-103903343D01*
X95835866Y-103984572D01*
X95722948Y-104044928D01*
X95600422Y-104082096D01*
X95504936Y-104091500D01*
X94641064Y-104091500D01*
X94545578Y-104082096D01*
X94423052Y-104044928D01*
X94310134Y-103984572D01*
X94211157Y-103903343D01*
X94129928Y-103804366D01*
X94069572Y-103691448D01*
X94032404Y-103568922D01*
X94019855Y-103441500D01*
X94032404Y-103314078D01*
X94069572Y-103191552D01*
X94129928Y-103078634D01*
X94211157Y-102979657D01*
X94310134Y-102898428D01*
X94423052Y-102838072D01*
X94545578Y-102800904D01*
X94641064Y-102791500D01*
X95504936Y-102791500D01*
X95600422Y-102800904D01*
X95600422Y-102800904D01*
G37*
G36*
X98140422Y-102800904D02*
X98262948Y-102838072D01*
X98375866Y-102898428D01*
X98474843Y-102979657D01*
X98556072Y-103078634D01*
X98616428Y-103191552D01*
X98653596Y-103314078D01*
X98666145Y-103441500D01*
X98653596Y-103568922D01*
X98616428Y-103691448D01*
X98556072Y-103804366D01*
X98474843Y-103903343D01*
X98375866Y-103984572D01*
X98262948Y-104044928D01*
X98140422Y-104082096D01*
X98044936Y-104091500D01*
X97181064Y-104091500D01*
X97085578Y-104082096D01*
X96963052Y-104044928D01*
X96850134Y-103984572D01*
X96751157Y-103903343D01*
X96669928Y-103804366D01*
X96609572Y-103691448D01*
X96572404Y-103568922D01*
X96559855Y-103441500D01*
X96572404Y-103314078D01*
X96609572Y-103191552D01*
X96669928Y-103078634D01*
X96751157Y-102979657D01*
X96850134Y-102898428D01*
X96963052Y-102838072D01*
X97085578Y-102800904D01*
X97181064Y-102791500D01*
X98044936Y-102791500D01*
X98140422Y-102800904D01*
X98140422Y-102800904D01*
G37*
G36*
X123590422Y-102800904D02*
X123712948Y-102838072D01*
X123825866Y-102898428D01*
X123924843Y-102979657D01*
X124006072Y-103078634D01*
X124066428Y-103191552D01*
X124103596Y-103314078D01*
X124116145Y-103441500D01*
X124103596Y-103568922D01*
X124066428Y-103691448D01*
X124006072Y-103804366D01*
X123924843Y-103903343D01*
X123825866Y-103984572D01*
X123712948Y-104044928D01*
X123590422Y-104082096D01*
X123494936Y-104091500D01*
X122631064Y-104091500D01*
X122535578Y-104082096D01*
X122413052Y-104044928D01*
X122300134Y-103984572D01*
X122201157Y-103903343D01*
X122119928Y-103804366D01*
X122059572Y-103691448D01*
X122022404Y-103568922D01*
X122009855Y-103441500D01*
X122022404Y-103314078D01*
X122059572Y-103191552D01*
X122119928Y-103078634D01*
X122201157Y-102979657D01*
X122300134Y-102898428D01*
X122413052Y-102838072D01*
X122535578Y-102800904D01*
X122631064Y-102791500D01*
X123494936Y-102791500D01*
X123590422Y-102800904D01*
X123590422Y-102800904D01*
G37*
G36*
X123590422Y-100260904D02*
X123712948Y-100298072D01*
X123825866Y-100358428D01*
X123924843Y-100439657D01*
X124006072Y-100538634D01*
X124066428Y-100651552D01*
X124103596Y-100774078D01*
X124116145Y-100901500D01*
X124103596Y-101028922D01*
X124066428Y-101151448D01*
X124006072Y-101264366D01*
X123924843Y-101363343D01*
X123825866Y-101444572D01*
X123712948Y-101504928D01*
X123590422Y-101542096D01*
X123494936Y-101551500D01*
X122631064Y-101551500D01*
X122535578Y-101542096D01*
X122413052Y-101504928D01*
X122300134Y-101444572D01*
X122201157Y-101363343D01*
X122119928Y-101264366D01*
X122059572Y-101151448D01*
X122022404Y-101028922D01*
X122009855Y-100901500D01*
X122022404Y-100774078D01*
X122059572Y-100651552D01*
X122119928Y-100538634D01*
X122201157Y-100439657D01*
X122300134Y-100358428D01*
X122413052Y-100298072D01*
X122535578Y-100260904D01*
X122631064Y-100251500D01*
X123494936Y-100251500D01*
X123590422Y-100260904D01*
X123590422Y-100260904D01*
G37*
G36*
X98140422Y-100260904D02*
X98262948Y-100298072D01*
X98375866Y-100358428D01*
X98474843Y-100439657D01*
X98556072Y-100538634D01*
X98616428Y-100651552D01*
X98653596Y-100774078D01*
X98666145Y-100901500D01*
X98653596Y-101028922D01*
X98616428Y-101151448D01*
X98556072Y-101264366D01*
X98474843Y-101363343D01*
X98375866Y-101444572D01*
X98262948Y-101504928D01*
X98140422Y-101542096D01*
X98044936Y-101551500D01*
X97181064Y-101551500D01*
X97085578Y-101542096D01*
X96963052Y-101504928D01*
X96850134Y-101444572D01*
X96751157Y-101363343D01*
X96669928Y-101264366D01*
X96609572Y-101151448D01*
X96572404Y-101028922D01*
X96559855Y-100901500D01*
X96572404Y-100774078D01*
X96609572Y-100651552D01*
X96669928Y-100538634D01*
X96751157Y-100439657D01*
X96850134Y-100358428D01*
X96963052Y-100298072D01*
X97085578Y-100260904D01*
X97181064Y-100251500D01*
X98044936Y-100251500D01*
X98140422Y-100260904D01*
X98140422Y-100260904D01*
G37*
G36*
X126180422Y-100260904D02*
X126302948Y-100298072D01*
X126415866Y-100358428D01*
X126514843Y-100439657D01*
X126596072Y-100538634D01*
X126656428Y-100651552D01*
X126693596Y-100774078D01*
X126706145Y-100901500D01*
X126693596Y-101028922D01*
X126656428Y-101151448D01*
X126596072Y-101264366D01*
X126514843Y-101363343D01*
X126415866Y-101444572D01*
X126302948Y-101504928D01*
X126180422Y-101542096D01*
X126084936Y-101551500D01*
X125221064Y-101551500D01*
X125125578Y-101542096D01*
X125003052Y-101504928D01*
X124890134Y-101444572D01*
X124791157Y-101363343D01*
X124709928Y-101264366D01*
X124649572Y-101151448D01*
X124612404Y-101028922D01*
X124599855Y-100901500D01*
X124612404Y-100774078D01*
X124649572Y-100651552D01*
X124709928Y-100538634D01*
X124791157Y-100439657D01*
X124890134Y-100358428D01*
X125003052Y-100298072D01*
X125125578Y-100260904D01*
X125221064Y-100251500D01*
X126084936Y-100251500D01*
X126180422Y-100260904D01*
X126180422Y-100260904D01*
G37*
G36*
X95600422Y-100260904D02*
X95722948Y-100298072D01*
X95835866Y-100358428D01*
X95934843Y-100439657D01*
X96016072Y-100538634D01*
X96076428Y-100651552D01*
X96113596Y-100774078D01*
X96126145Y-100901500D01*
X96113596Y-101028922D01*
X96076428Y-101151448D01*
X96016072Y-101264366D01*
X95934843Y-101363343D01*
X95835866Y-101444572D01*
X95722948Y-101504928D01*
X95600422Y-101542096D01*
X95504936Y-101551500D01*
X94641064Y-101551500D01*
X94545578Y-101542096D01*
X94423052Y-101504928D01*
X94310134Y-101444572D01*
X94211157Y-101363343D01*
X94129928Y-101264366D01*
X94069572Y-101151448D01*
X94032404Y-101028922D01*
X94019855Y-100901500D01*
X94032404Y-100774078D01*
X94069572Y-100651552D01*
X94129928Y-100538634D01*
X94211157Y-100439657D01*
X94310134Y-100358428D01*
X94423052Y-100298072D01*
X94545578Y-100260904D01*
X94641064Y-100251500D01*
X95504936Y-100251500D01*
X95600422Y-100260904D01*
X95600422Y-100260904D01*
G37*
G36*
X126180422Y-97720904D02*
X126302948Y-97758072D01*
X126415866Y-97818428D01*
X126514843Y-97899657D01*
X126596072Y-97998634D01*
X126656428Y-98111552D01*
X126693596Y-98234078D01*
X126706145Y-98361500D01*
X126693596Y-98488922D01*
X126656428Y-98611448D01*
X126596072Y-98724366D01*
X126514843Y-98823343D01*
X126415866Y-98904572D01*
X126302948Y-98964928D01*
X126180422Y-99002096D01*
X126084936Y-99011500D01*
X125221064Y-99011500D01*
X125125578Y-99002096D01*
X125003052Y-98964928D01*
X124890134Y-98904572D01*
X124791157Y-98823343D01*
X124709928Y-98724366D01*
X124649572Y-98611448D01*
X124612404Y-98488922D01*
X124599855Y-98361500D01*
X124612404Y-98234078D01*
X124649572Y-98111552D01*
X124709928Y-97998634D01*
X124791157Y-97899657D01*
X124890134Y-97818428D01*
X125003052Y-97758072D01*
X125125578Y-97720904D01*
X125221064Y-97711500D01*
X126084936Y-97711500D01*
X126180422Y-97720904D01*
X126180422Y-97720904D01*
G37*
G36*
X98140422Y-97720904D02*
X98262948Y-97758072D01*
X98375866Y-97818428D01*
X98474843Y-97899657D01*
X98556072Y-97998634D01*
X98616428Y-98111552D01*
X98653596Y-98234078D01*
X98666145Y-98361500D01*
X98653596Y-98488922D01*
X98616428Y-98611448D01*
X98556072Y-98724366D01*
X98474843Y-98823343D01*
X98375866Y-98904572D01*
X98262948Y-98964928D01*
X98140422Y-99002096D01*
X98044936Y-99011500D01*
X97181064Y-99011500D01*
X97085578Y-99002096D01*
X96963052Y-98964928D01*
X96850134Y-98904572D01*
X96751157Y-98823343D01*
X96669928Y-98724366D01*
X96609572Y-98611448D01*
X96572404Y-98488922D01*
X96559855Y-98361500D01*
X96572404Y-98234078D01*
X96609572Y-98111552D01*
X96669928Y-97998634D01*
X96751157Y-97899657D01*
X96850134Y-97818428D01*
X96963052Y-97758072D01*
X97085578Y-97720904D01*
X97181064Y-97711500D01*
X98044936Y-97711500D01*
X98140422Y-97720904D01*
X98140422Y-97720904D01*
G37*
G36*
X95600422Y-97720904D02*
X95722948Y-97758072D01*
X95835866Y-97818428D01*
X95934843Y-97899657D01*
X96016072Y-97998634D01*
X96076428Y-98111552D01*
X96113596Y-98234078D01*
X96126145Y-98361500D01*
X96113596Y-98488922D01*
X96076428Y-98611448D01*
X96016072Y-98724366D01*
X95934843Y-98823343D01*
X95835866Y-98904572D01*
X95722948Y-98964928D01*
X95600422Y-99002096D01*
X95504936Y-99011500D01*
X94641064Y-99011500D01*
X94545578Y-99002096D01*
X94423052Y-98964928D01*
X94310134Y-98904572D01*
X94211157Y-98823343D01*
X94129928Y-98724366D01*
X94069572Y-98611448D01*
X94032404Y-98488922D01*
X94019855Y-98361500D01*
X94032404Y-98234078D01*
X94069572Y-98111552D01*
X94129928Y-97998634D01*
X94211157Y-97899657D01*
X94310134Y-97818428D01*
X94423052Y-97758072D01*
X94545578Y-97720904D01*
X94641064Y-97711500D01*
X95504936Y-97711500D01*
X95600422Y-97720904D01*
X95600422Y-97720904D01*
G37*
G36*
X123590422Y-97720904D02*
X123712948Y-97758072D01*
X123825866Y-97818428D01*
X123924843Y-97899657D01*
X124006072Y-97998634D01*
X124066428Y-98111552D01*
X124103596Y-98234078D01*
X124116145Y-98361500D01*
X124103596Y-98488922D01*
X124066428Y-98611448D01*
X124006072Y-98724366D01*
X123924843Y-98823343D01*
X123825866Y-98904572D01*
X123712948Y-98964928D01*
X123590422Y-99002096D01*
X123494936Y-99011500D01*
X122631064Y-99011500D01*
X122535578Y-99002096D01*
X122413052Y-98964928D01*
X122300134Y-98904572D01*
X122201157Y-98823343D01*
X122119928Y-98724366D01*
X122059572Y-98611448D01*
X122022404Y-98488922D01*
X122009855Y-98361500D01*
X122022404Y-98234078D01*
X122059572Y-98111552D01*
X122119928Y-97998634D01*
X122201157Y-97899657D01*
X122300134Y-97818428D01*
X122413052Y-97758072D01*
X122535578Y-97720904D01*
X122631064Y-97711500D01*
X123494936Y-97711500D01*
X123590422Y-97720904D01*
X123590422Y-97720904D01*
G37*
G36*
X151221000Y-98680500D02*
X146721000Y-98680500D01*
X146721000Y-96580500D01*
X151221000Y-96580500D01*
X151221000Y-98680500D01*
X151221000Y-98680500D01*
G37*
G36*
X139503000Y-96748500D02*
X137103000Y-96748500D01*
X137103000Y-95148500D01*
X139503000Y-95148500D01*
X139503000Y-96748500D01*
X139503000Y-96748500D01*
G37*
G36*
X98140422Y-95180904D02*
X98262948Y-95218072D01*
X98375866Y-95278428D01*
X98474843Y-95359657D01*
X98556072Y-95458634D01*
X98616428Y-95571552D01*
X98653596Y-95694078D01*
X98666145Y-95821500D01*
X98653596Y-95948922D01*
X98616428Y-96071448D01*
X98556072Y-96184366D01*
X98474843Y-96283343D01*
X98375866Y-96364572D01*
X98262948Y-96424928D01*
X98140422Y-96462096D01*
X98044936Y-96471500D01*
X97181064Y-96471500D01*
X97085578Y-96462096D01*
X96963052Y-96424928D01*
X96850134Y-96364572D01*
X96751157Y-96283343D01*
X96669928Y-96184366D01*
X96609572Y-96071448D01*
X96572404Y-95948922D01*
X96559855Y-95821500D01*
X96572404Y-95694078D01*
X96609572Y-95571552D01*
X96669928Y-95458634D01*
X96751157Y-95359657D01*
X96850134Y-95278428D01*
X96963052Y-95218072D01*
X97085578Y-95180904D01*
X97181064Y-95171500D01*
X98044936Y-95171500D01*
X98140422Y-95180904D01*
X98140422Y-95180904D01*
G37*
G36*
X95600422Y-95180904D02*
X95722948Y-95218072D01*
X95835866Y-95278428D01*
X95934843Y-95359657D01*
X96016072Y-95458634D01*
X96076428Y-95571552D01*
X96113596Y-95694078D01*
X96126145Y-95821500D01*
X96113596Y-95948922D01*
X96076428Y-96071448D01*
X96016072Y-96184366D01*
X95934843Y-96283343D01*
X95835866Y-96364572D01*
X95722948Y-96424928D01*
X95600422Y-96462096D01*
X95504936Y-96471500D01*
X94641064Y-96471500D01*
X94545578Y-96462096D01*
X94423052Y-96424928D01*
X94310134Y-96364572D01*
X94211157Y-96283343D01*
X94129928Y-96184366D01*
X94069572Y-96071448D01*
X94032404Y-95948922D01*
X94019855Y-95821500D01*
X94032404Y-95694078D01*
X94069572Y-95571552D01*
X94129928Y-95458634D01*
X94211157Y-95359657D01*
X94310134Y-95278428D01*
X94423052Y-95218072D01*
X94545578Y-95180904D01*
X94641064Y-95171500D01*
X95504936Y-95171500D01*
X95600422Y-95180904D01*
X95600422Y-95180904D01*
G37*
G36*
X126180422Y-95180904D02*
X126302948Y-95218072D01*
X126415866Y-95278428D01*
X126514843Y-95359657D01*
X126596072Y-95458634D01*
X126656428Y-95571552D01*
X126693596Y-95694078D01*
X126706145Y-95821500D01*
X126693596Y-95948922D01*
X126656428Y-96071448D01*
X126596072Y-96184366D01*
X126514843Y-96283343D01*
X126415866Y-96364572D01*
X126302948Y-96424928D01*
X126180422Y-96462096D01*
X126084936Y-96471500D01*
X125221064Y-96471500D01*
X125125578Y-96462096D01*
X125003052Y-96424928D01*
X124890134Y-96364572D01*
X124791157Y-96283343D01*
X124709928Y-96184366D01*
X124649572Y-96071448D01*
X124612404Y-95948922D01*
X124599855Y-95821500D01*
X124612404Y-95694078D01*
X124649572Y-95571552D01*
X124709928Y-95458634D01*
X124791157Y-95359657D01*
X124890134Y-95278428D01*
X125003052Y-95218072D01*
X125125578Y-95180904D01*
X125221064Y-95171500D01*
X126084936Y-95171500D01*
X126180422Y-95180904D01*
X126180422Y-95180904D01*
G37*
G36*
X123590422Y-95180904D02*
X123712948Y-95218072D01*
X123825866Y-95278428D01*
X123924843Y-95359657D01*
X124006072Y-95458634D01*
X124066428Y-95571552D01*
X124103596Y-95694078D01*
X124116145Y-95821500D01*
X124103596Y-95948922D01*
X124066428Y-96071448D01*
X124006072Y-96184366D01*
X123924843Y-96283343D01*
X123825866Y-96364572D01*
X123712948Y-96424928D01*
X123590422Y-96462096D01*
X123494936Y-96471500D01*
X122631064Y-96471500D01*
X122535578Y-96462096D01*
X122413052Y-96424928D01*
X122300134Y-96364572D01*
X122201157Y-96283343D01*
X122119928Y-96184366D01*
X122059572Y-96071448D01*
X122022404Y-95948922D01*
X122009855Y-95821500D01*
X122022404Y-95694078D01*
X122059572Y-95571552D01*
X122119928Y-95458634D01*
X122201157Y-95359657D01*
X122300134Y-95278428D01*
X122413052Y-95218072D01*
X122535578Y-95180904D01*
X122631064Y-95171500D01*
X123494936Y-95171500D01*
X123590422Y-95180904D01*
X123590422Y-95180904D01*
G37*
G36*
X177217097Y-93651119D02*
X177389311Y-93703360D01*
X177548025Y-93788194D01*
X177687138Y-93902362D01*
X177801306Y-94041475D01*
X177886140Y-94200189D01*
X177938381Y-94372403D01*
X177956020Y-94551500D01*
X177938381Y-94730597D01*
X177886140Y-94902811D01*
X177801306Y-95061525D01*
X177687138Y-95200638D01*
X177548025Y-95314806D01*
X177548023Y-95314807D01*
X177389311Y-95399640D01*
X177217097Y-95451881D01*
X177082880Y-95465100D01*
X176993120Y-95465100D01*
X176858903Y-95451881D01*
X176686689Y-95399640D01*
X176527977Y-95314807D01*
X176527975Y-95314806D01*
X176388862Y-95200638D01*
X176274694Y-95061525D01*
X176189860Y-94902811D01*
X176137619Y-94730597D01*
X176119980Y-94551500D01*
X176137619Y-94372403D01*
X176189860Y-94200189D01*
X176274694Y-94041475D01*
X176388862Y-93902362D01*
X176527975Y-93788194D01*
X176686689Y-93703360D01*
X176858903Y-93651119D01*
X176993120Y-93637900D01*
X177082880Y-93637900D01*
X177217097Y-93651119D01*
X177217097Y-93651119D01*
G37*
G36*
X179757097Y-93651119D02*
X179929311Y-93703360D01*
X180088025Y-93788194D01*
X180227138Y-93902362D01*
X180341306Y-94041475D01*
X180426140Y-94200189D01*
X180478381Y-94372403D01*
X180496020Y-94551500D01*
X180478381Y-94730597D01*
X180426140Y-94902811D01*
X180341306Y-95061525D01*
X180227138Y-95200638D01*
X180088025Y-95314806D01*
X180088023Y-95314807D01*
X179929311Y-95399640D01*
X179757097Y-95451881D01*
X179622880Y-95465100D01*
X179533120Y-95465100D01*
X179398903Y-95451881D01*
X179226689Y-95399640D01*
X179067977Y-95314807D01*
X179067975Y-95314806D01*
X178928862Y-95200638D01*
X178814694Y-95061525D01*
X178729860Y-94902811D01*
X178677619Y-94730597D01*
X178659980Y-94551500D01*
X178677619Y-94372403D01*
X178729860Y-94200189D01*
X178814694Y-94041475D01*
X178928862Y-93902362D01*
X179067975Y-93788194D01*
X179226689Y-93703360D01*
X179398903Y-93651119D01*
X179533120Y-93637900D01*
X179622880Y-93637900D01*
X179757097Y-93651119D01*
X179757097Y-93651119D01*
G37*
G36*
X182297097Y-93651119D02*
X182469311Y-93703360D01*
X182628025Y-93788194D01*
X182767138Y-93902362D01*
X182881306Y-94041475D01*
X182966140Y-94200189D01*
X183018381Y-94372403D01*
X183036020Y-94551500D01*
X183018381Y-94730597D01*
X182966140Y-94902811D01*
X182881306Y-95061525D01*
X182767138Y-95200638D01*
X182628025Y-95314806D01*
X182628023Y-95314807D01*
X182469311Y-95399640D01*
X182297097Y-95451881D01*
X182162880Y-95465100D01*
X182073120Y-95465100D01*
X181938903Y-95451881D01*
X181766689Y-95399640D01*
X181607977Y-95314807D01*
X181607975Y-95314806D01*
X181468862Y-95200638D01*
X181354694Y-95061525D01*
X181269860Y-94902811D01*
X181217619Y-94730597D01*
X181199980Y-94551500D01*
X181217619Y-94372403D01*
X181269860Y-94200189D01*
X181354694Y-94041475D01*
X181468862Y-93902362D01*
X181607975Y-93788194D01*
X181766689Y-93703360D01*
X181938903Y-93651119D01*
X182073120Y-93637900D01*
X182162880Y-93637900D01*
X182297097Y-93651119D01*
X182297097Y-93651119D01*
G37*
G36*
X184837097Y-93651119D02*
X185009311Y-93703360D01*
X185168025Y-93788194D01*
X185307138Y-93902362D01*
X185421306Y-94041475D01*
X185506140Y-94200189D01*
X185558381Y-94372403D01*
X185576020Y-94551500D01*
X185558381Y-94730597D01*
X185506140Y-94902811D01*
X185421306Y-95061525D01*
X185307138Y-95200638D01*
X185168025Y-95314806D01*
X185168023Y-95314807D01*
X185009311Y-95399640D01*
X184837097Y-95451881D01*
X184702880Y-95465100D01*
X184613120Y-95465100D01*
X184478903Y-95451881D01*
X184306689Y-95399640D01*
X184147977Y-95314807D01*
X184147975Y-95314806D01*
X184008862Y-95200638D01*
X183894694Y-95061525D01*
X183809860Y-94902811D01*
X183757619Y-94730597D01*
X183739980Y-94551500D01*
X183757619Y-94372403D01*
X183809860Y-94200189D01*
X183894694Y-94041475D01*
X184008862Y-93902362D01*
X184147975Y-93788194D01*
X184306689Y-93703360D01*
X184478903Y-93651119D01*
X184613120Y-93637900D01*
X184702880Y-93637900D01*
X184837097Y-93651119D01*
X184837097Y-93651119D01*
G37*
G36*
X187377097Y-93651119D02*
X187549311Y-93703360D01*
X187708025Y-93788194D01*
X187847138Y-93902362D01*
X187961306Y-94041475D01*
X188046140Y-94200189D01*
X188098381Y-94372403D01*
X188116020Y-94551500D01*
X188098381Y-94730597D01*
X188046140Y-94902811D01*
X187961306Y-95061525D01*
X187847138Y-95200638D01*
X187708025Y-95314806D01*
X187708023Y-95314807D01*
X187549311Y-95399640D01*
X187377097Y-95451881D01*
X187242880Y-95465100D01*
X187153120Y-95465100D01*
X187018903Y-95451881D01*
X186846689Y-95399640D01*
X186687977Y-95314807D01*
X186687975Y-95314806D01*
X186548862Y-95200638D01*
X186434694Y-95061525D01*
X186349860Y-94902811D01*
X186297619Y-94730597D01*
X186279980Y-94551500D01*
X186297619Y-94372403D01*
X186349860Y-94200189D01*
X186434694Y-94041475D01*
X186548862Y-93902362D01*
X186687975Y-93788194D01*
X186846689Y-93703360D01*
X187018903Y-93651119D01*
X187153120Y-93637900D01*
X187242880Y-93637900D01*
X187377097Y-93651119D01*
X187377097Y-93651119D01*
G37*
G36*
X138859827Y-92620076D02*
X139010628Y-92665820D01*
X139149607Y-92740107D01*
X139271422Y-92840078D01*
X139371393Y-92961893D01*
X139445680Y-93100872D01*
X139491424Y-93251673D01*
X139506870Y-93408500D01*
X139491424Y-93565327D01*
X139445680Y-93716128D01*
X139371393Y-93855107D01*
X139271422Y-93976922D01*
X139149607Y-94076893D01*
X139010628Y-94151180D01*
X138859827Y-94196924D01*
X138742295Y-94208500D01*
X137863705Y-94208500D01*
X137746173Y-94196924D01*
X137595372Y-94151180D01*
X137456393Y-94076893D01*
X137334578Y-93976922D01*
X137234607Y-93855107D01*
X137160320Y-93716128D01*
X137114576Y-93565327D01*
X137099130Y-93408500D01*
X137114576Y-93251673D01*
X137160320Y-93100872D01*
X137234607Y-92961893D01*
X137334578Y-92840078D01*
X137456393Y-92740107D01*
X137595372Y-92665820D01*
X137746173Y-92620076D01*
X137863705Y-92608500D01*
X138742295Y-92608500D01*
X138859827Y-92620076D01*
X138859827Y-92620076D01*
G37*
G36*
X95600422Y-92640904D02*
X95722948Y-92678072D01*
X95835866Y-92738428D01*
X95934843Y-92819657D01*
X96016072Y-92918634D01*
X96076428Y-93031552D01*
X96113596Y-93154078D01*
X96126145Y-93281500D01*
X96113596Y-93408922D01*
X96076428Y-93531448D01*
X96016072Y-93644366D01*
X95934843Y-93743343D01*
X95835866Y-93824572D01*
X95722948Y-93884928D01*
X95600422Y-93922096D01*
X95504936Y-93931500D01*
X94641064Y-93931500D01*
X94545578Y-93922096D01*
X94423052Y-93884928D01*
X94310134Y-93824572D01*
X94211157Y-93743343D01*
X94129928Y-93644366D01*
X94069572Y-93531448D01*
X94032404Y-93408922D01*
X94019855Y-93281500D01*
X94032404Y-93154078D01*
X94069572Y-93031552D01*
X94129928Y-92918634D01*
X94211157Y-92819657D01*
X94310134Y-92738428D01*
X94423052Y-92678072D01*
X94545578Y-92640904D01*
X94641064Y-92631500D01*
X95504936Y-92631500D01*
X95600422Y-92640904D01*
X95600422Y-92640904D01*
G37*
G36*
X126180422Y-92640904D02*
X126302948Y-92678072D01*
X126415866Y-92738428D01*
X126514843Y-92819657D01*
X126596072Y-92918634D01*
X126656428Y-93031552D01*
X126693596Y-93154078D01*
X126706145Y-93281500D01*
X126693596Y-93408922D01*
X126656428Y-93531448D01*
X126596072Y-93644366D01*
X126514843Y-93743343D01*
X126415866Y-93824572D01*
X126302948Y-93884928D01*
X126180422Y-93922096D01*
X126084936Y-93931500D01*
X125221064Y-93931500D01*
X125125578Y-93922096D01*
X125003052Y-93884928D01*
X124890134Y-93824572D01*
X124791157Y-93743343D01*
X124709928Y-93644366D01*
X124649572Y-93531448D01*
X124612404Y-93408922D01*
X124599855Y-93281500D01*
X124612404Y-93154078D01*
X124649572Y-93031552D01*
X124709928Y-92918634D01*
X124791157Y-92819657D01*
X124890134Y-92738428D01*
X125003052Y-92678072D01*
X125125578Y-92640904D01*
X125221064Y-92631500D01*
X126084936Y-92631500D01*
X126180422Y-92640904D01*
X126180422Y-92640904D01*
G37*
G36*
X98140422Y-92640904D02*
X98262948Y-92678072D01*
X98375866Y-92738428D01*
X98474843Y-92819657D01*
X98556072Y-92918634D01*
X98616428Y-93031552D01*
X98653596Y-93154078D01*
X98666145Y-93281500D01*
X98653596Y-93408922D01*
X98616428Y-93531448D01*
X98556072Y-93644366D01*
X98474843Y-93743343D01*
X98375866Y-93824572D01*
X98262948Y-93884928D01*
X98140422Y-93922096D01*
X98044936Y-93931500D01*
X97181064Y-93931500D01*
X97085578Y-93922096D01*
X96963052Y-93884928D01*
X96850134Y-93824572D01*
X96751157Y-93743343D01*
X96669928Y-93644366D01*
X96609572Y-93531448D01*
X96572404Y-93408922D01*
X96559855Y-93281500D01*
X96572404Y-93154078D01*
X96609572Y-93031552D01*
X96669928Y-92918634D01*
X96751157Y-92819657D01*
X96850134Y-92738428D01*
X96963052Y-92678072D01*
X97085578Y-92640904D01*
X97181064Y-92631500D01*
X98044936Y-92631500D01*
X98140422Y-92640904D01*
X98140422Y-92640904D01*
G37*
G36*
X123590422Y-92640904D02*
X123712948Y-92678072D01*
X123825866Y-92738428D01*
X123924843Y-92819657D01*
X124006072Y-92918634D01*
X124066428Y-93031552D01*
X124103596Y-93154078D01*
X124116145Y-93281500D01*
X124103596Y-93408922D01*
X124066428Y-93531448D01*
X124006072Y-93644366D01*
X123924843Y-93743343D01*
X123825866Y-93824572D01*
X123712948Y-93884928D01*
X123590422Y-93922096D01*
X123494936Y-93931500D01*
X122631064Y-93931500D01*
X122535578Y-93922096D01*
X122413052Y-93884928D01*
X122300134Y-93824572D01*
X122201157Y-93743343D01*
X122119928Y-93644366D01*
X122059572Y-93531448D01*
X122022404Y-93408922D01*
X122009855Y-93281500D01*
X122022404Y-93154078D01*
X122059572Y-93031552D01*
X122119928Y-92918634D01*
X122201157Y-92819657D01*
X122300134Y-92738428D01*
X122413052Y-92678072D01*
X122535578Y-92640904D01*
X122631064Y-92631500D01*
X123494936Y-92631500D01*
X123590422Y-92640904D01*
X123590422Y-92640904D01*
G37*
G36*
X177217097Y-91111119D02*
X177389311Y-91163360D01*
X177548025Y-91248194D01*
X177687138Y-91362362D01*
X177801306Y-91501475D01*
X177886140Y-91660189D01*
X177938381Y-91832403D01*
X177956020Y-92011500D01*
X177938381Y-92190597D01*
X177886140Y-92362811D01*
X177801306Y-92521525D01*
X177687138Y-92660638D01*
X177548025Y-92774806D01*
X177548023Y-92774807D01*
X177389311Y-92859640D01*
X177217097Y-92911881D01*
X177082880Y-92925100D01*
X176993120Y-92925100D01*
X176858903Y-92911881D01*
X176686689Y-92859640D01*
X176527977Y-92774807D01*
X176527975Y-92774806D01*
X176388862Y-92660638D01*
X176274694Y-92521525D01*
X176189860Y-92362811D01*
X176137619Y-92190597D01*
X176119980Y-92011500D01*
X176137619Y-91832403D01*
X176189860Y-91660189D01*
X176274694Y-91501475D01*
X176388862Y-91362362D01*
X176527975Y-91248194D01*
X176686689Y-91163360D01*
X176858903Y-91111119D01*
X176993120Y-91097900D01*
X177082880Y-91097900D01*
X177217097Y-91111119D01*
X177217097Y-91111119D01*
G37*
G36*
X188111600Y-92925100D02*
X186284400Y-92925100D01*
X186284400Y-91097900D01*
X188111600Y-91097900D01*
X188111600Y-92925100D01*
X188111600Y-92925100D01*
G37*
G36*
X184837097Y-91111119D02*
X185009311Y-91163360D01*
X185168025Y-91248194D01*
X185307138Y-91362362D01*
X185421306Y-91501475D01*
X185506140Y-91660189D01*
X185558381Y-91832403D01*
X185576020Y-92011500D01*
X185558381Y-92190597D01*
X185506140Y-92362811D01*
X185421306Y-92521525D01*
X185307138Y-92660638D01*
X185168025Y-92774806D01*
X185168023Y-92774807D01*
X185009311Y-92859640D01*
X184837097Y-92911881D01*
X184702880Y-92925100D01*
X184613120Y-92925100D01*
X184478903Y-92911881D01*
X184306689Y-92859640D01*
X184147977Y-92774807D01*
X184147975Y-92774806D01*
X184008862Y-92660638D01*
X183894694Y-92521525D01*
X183809860Y-92362811D01*
X183757619Y-92190597D01*
X183739980Y-92011500D01*
X183757619Y-91832403D01*
X183809860Y-91660189D01*
X183894694Y-91501475D01*
X184008862Y-91362362D01*
X184147975Y-91248194D01*
X184306689Y-91163360D01*
X184478903Y-91111119D01*
X184613120Y-91097900D01*
X184702880Y-91097900D01*
X184837097Y-91111119D01*
X184837097Y-91111119D01*
G37*
G36*
X182297097Y-91111119D02*
X182469311Y-91163360D01*
X182628025Y-91248194D01*
X182767138Y-91362362D01*
X182881306Y-91501475D01*
X182966140Y-91660189D01*
X183018381Y-91832403D01*
X183036020Y-92011500D01*
X183018381Y-92190597D01*
X182966140Y-92362811D01*
X182881306Y-92521525D01*
X182767138Y-92660638D01*
X182628025Y-92774806D01*
X182628023Y-92774807D01*
X182469311Y-92859640D01*
X182297097Y-92911881D01*
X182162880Y-92925100D01*
X182073120Y-92925100D01*
X181938903Y-92911881D01*
X181766689Y-92859640D01*
X181607977Y-92774807D01*
X181607975Y-92774806D01*
X181468862Y-92660638D01*
X181354694Y-92521525D01*
X181269860Y-92362811D01*
X181217619Y-92190597D01*
X181199980Y-92011500D01*
X181217619Y-91832403D01*
X181269860Y-91660189D01*
X181354694Y-91501475D01*
X181468862Y-91362362D01*
X181607975Y-91248194D01*
X181766689Y-91163360D01*
X181938903Y-91111119D01*
X182073120Y-91097900D01*
X182162880Y-91097900D01*
X182297097Y-91111119D01*
X182297097Y-91111119D01*
G37*
G36*
X179757097Y-91111119D02*
X179929311Y-91163360D01*
X180088025Y-91248194D01*
X180227138Y-91362362D01*
X180341306Y-91501475D01*
X180426140Y-91660189D01*
X180478381Y-91832403D01*
X180496020Y-92011500D01*
X180478381Y-92190597D01*
X180426140Y-92362811D01*
X180341306Y-92521525D01*
X180227138Y-92660638D01*
X180088025Y-92774806D01*
X180088023Y-92774807D01*
X179929311Y-92859640D01*
X179757097Y-92911881D01*
X179622880Y-92925100D01*
X179533120Y-92925100D01*
X179398903Y-92911881D01*
X179226689Y-92859640D01*
X179067977Y-92774807D01*
X179067975Y-92774806D01*
X178928862Y-92660638D01*
X178814694Y-92521525D01*
X178729860Y-92362811D01*
X178677619Y-92190597D01*
X178659980Y-92011500D01*
X178677619Y-91832403D01*
X178729860Y-91660189D01*
X178814694Y-91501475D01*
X178928862Y-91362362D01*
X179067975Y-91248194D01*
X179226689Y-91163360D01*
X179398903Y-91111119D01*
X179533120Y-91097900D01*
X179622880Y-91097900D01*
X179757097Y-91111119D01*
X179757097Y-91111119D01*
G37*
G36*
X154521000Y-92680500D02*
X152421000Y-92680500D01*
X152421000Y-88580500D01*
X154521000Y-88580500D01*
X154521000Y-92680500D01*
X154521000Y-92680500D01*
G37*
G36*
X150871000Y-92680500D02*
X147071000Y-92680500D01*
X147071000Y-90580500D01*
X150871000Y-90580500D01*
X150871000Y-92680500D01*
X150871000Y-92680500D01*
G37*
G36*
X145521000Y-92680500D02*
X143421000Y-92680500D01*
X143421000Y-88580500D01*
X145521000Y-88580500D01*
X145521000Y-92680500D01*
X145521000Y-92680500D01*
G37*
G36*
X90650296Y-88104509D02*
X90815547Y-88172959D01*
X91029197Y-88261455D01*
X91029200Y-88261457D01*
X91370197Y-88489303D01*
X91660197Y-88779303D01*
X91861446Y-89080495D01*
X91888045Y-89120303D01*
X91976541Y-89333953D01*
X92044991Y-89499204D01*
X92125000Y-89901439D01*
X92125000Y-90311561D01*
X92044991Y-90713796D01*
X91980910Y-90868500D01*
X91888045Y-91092697D01*
X91888043Y-91092700D01*
X91660197Y-91433697D01*
X91370197Y-91723697D01*
X91029200Y-91951543D01*
X91029197Y-91951545D01*
X90884452Y-92011500D01*
X90650296Y-92108491D01*
X90248061Y-92188500D01*
X89837939Y-92188500D01*
X89435704Y-92108491D01*
X89201548Y-92011500D01*
X89056803Y-91951545D01*
X89056800Y-91951543D01*
X88715803Y-91723697D01*
X88425803Y-91433697D01*
X88197957Y-91092700D01*
X88197955Y-91092697D01*
X88105090Y-90868500D01*
X88041009Y-90713796D01*
X87961000Y-90311561D01*
X87961000Y-89901439D01*
X88041009Y-89499204D01*
X88109459Y-89333953D01*
X88197955Y-89120303D01*
X88224554Y-89080495D01*
X88425803Y-88779303D01*
X88715803Y-88489303D01*
X89056800Y-88261457D01*
X89056803Y-88261455D01*
X89270453Y-88172959D01*
X89435704Y-88104509D01*
X89837939Y-88024500D01*
X90248061Y-88024500D01*
X90650296Y-88104509D01*
X90650296Y-88104509D01*
G37*
G36*
X196695296Y-88104509D02*
X196860547Y-88172959D01*
X197074197Y-88261455D01*
X197074200Y-88261457D01*
X197415197Y-88489303D01*
X197705197Y-88779303D01*
X197906446Y-89080495D01*
X197933045Y-89120303D01*
X198021541Y-89333953D01*
X198089991Y-89499204D01*
X198170000Y-89901439D01*
X198170000Y-90311561D01*
X198089991Y-90713796D01*
X198025910Y-90868500D01*
X197933045Y-91092697D01*
X197933043Y-91092700D01*
X197705197Y-91433697D01*
X197415197Y-91723697D01*
X197074200Y-91951543D01*
X197074197Y-91951545D01*
X196929452Y-92011500D01*
X196695296Y-92108491D01*
X196293061Y-92188500D01*
X195882939Y-92188500D01*
X195480704Y-92108491D01*
X195246548Y-92011500D01*
X195101803Y-91951545D01*
X195101800Y-91951543D01*
X194760803Y-91723697D01*
X194470803Y-91433697D01*
X194242957Y-91092700D01*
X194242955Y-91092697D01*
X194150090Y-90868500D01*
X194086009Y-90713796D01*
X194006000Y-90311561D01*
X194006000Y-89901439D01*
X194086009Y-89499204D01*
X194154459Y-89333953D01*
X194242955Y-89120303D01*
X194269554Y-89080495D01*
X194470803Y-88779303D01*
X194760803Y-88489303D01*
X195101800Y-88261457D01*
X195101803Y-88261455D01*
X195315453Y-88172959D01*
X195480704Y-88104509D01*
X195882939Y-88024500D01*
X196293061Y-88024500D01*
X196695296Y-88104509D01*
X196695296Y-88104509D01*
G37*
G36*
X138859827Y-90080076D02*
X139010628Y-90125820D01*
X139149607Y-90200107D01*
X139271422Y-90300078D01*
X139371393Y-90421893D01*
X139445680Y-90560872D01*
X139491424Y-90711673D01*
X139506870Y-90868500D01*
X139491424Y-91025327D01*
X139445680Y-91176128D01*
X139371393Y-91315107D01*
X139271422Y-91436922D01*
X139149607Y-91536893D01*
X139010628Y-91611180D01*
X138859827Y-91656924D01*
X138742295Y-91668500D01*
X137863705Y-91668500D01*
X137746173Y-91656924D01*
X137595372Y-91611180D01*
X137456393Y-91536893D01*
X137334578Y-91436922D01*
X137234607Y-91315107D01*
X137160320Y-91176128D01*
X137114576Y-91025327D01*
X137099130Y-90868500D01*
X137114576Y-90711673D01*
X137160320Y-90560872D01*
X137234607Y-90421893D01*
X137334578Y-90300078D01*
X137456393Y-90200107D01*
X137595372Y-90125820D01*
X137746173Y-90080076D01*
X137863705Y-90068500D01*
X138742295Y-90068500D01*
X138859827Y-90080076D01*
X138859827Y-90080076D01*
G37*
G36*
X126180422Y-90100904D02*
X126302948Y-90138072D01*
X126415866Y-90198428D01*
X126514843Y-90279657D01*
X126596072Y-90378634D01*
X126656428Y-90491552D01*
X126693596Y-90614078D01*
X126706145Y-90741500D01*
X126693596Y-90868922D01*
X126656428Y-90991448D01*
X126596072Y-91104366D01*
X126514843Y-91203343D01*
X126415866Y-91284572D01*
X126302948Y-91344928D01*
X126180422Y-91382096D01*
X126084936Y-91391500D01*
X125221064Y-91391500D01*
X125125578Y-91382096D01*
X125003052Y-91344928D01*
X124890134Y-91284572D01*
X124791157Y-91203343D01*
X124709928Y-91104366D01*
X124649572Y-90991448D01*
X124612404Y-90868922D01*
X124599855Y-90741500D01*
X124612404Y-90614078D01*
X124649572Y-90491552D01*
X124709928Y-90378634D01*
X124791157Y-90279657D01*
X124890134Y-90198428D01*
X125003052Y-90138072D01*
X125125578Y-90100904D01*
X125221064Y-90091500D01*
X126084936Y-90091500D01*
X126180422Y-90100904D01*
X126180422Y-90100904D01*
G37*
G36*
X123590422Y-90100904D02*
X123712948Y-90138072D01*
X123825866Y-90198428D01*
X123924843Y-90279657D01*
X124006072Y-90378634D01*
X124066428Y-90491552D01*
X124103596Y-90614078D01*
X124116145Y-90741500D01*
X124103596Y-90868922D01*
X124066428Y-90991448D01*
X124006072Y-91104366D01*
X123924843Y-91203343D01*
X123825866Y-91284572D01*
X123712948Y-91344928D01*
X123590422Y-91382096D01*
X123494936Y-91391500D01*
X122631064Y-91391500D01*
X122535578Y-91382096D01*
X122413052Y-91344928D01*
X122300134Y-91284572D01*
X122201157Y-91203343D01*
X122119928Y-91104366D01*
X122059572Y-90991448D01*
X122022404Y-90868922D01*
X122009855Y-90741500D01*
X122022404Y-90614078D01*
X122059572Y-90491552D01*
X122119928Y-90378634D01*
X122201157Y-90279657D01*
X122300134Y-90198428D01*
X122413052Y-90138072D01*
X122535578Y-90100904D01*
X122631064Y-90091500D01*
X123494936Y-90091500D01*
X123590422Y-90100904D01*
X123590422Y-90100904D01*
G37*
G36*
X98140422Y-90100904D02*
X98262948Y-90138072D01*
X98375866Y-90198428D01*
X98474843Y-90279657D01*
X98556072Y-90378634D01*
X98616428Y-90491552D01*
X98653596Y-90614078D01*
X98666145Y-90741500D01*
X98653596Y-90868922D01*
X98616428Y-90991448D01*
X98556072Y-91104366D01*
X98474843Y-91203343D01*
X98375866Y-91284572D01*
X98262948Y-91344928D01*
X98140422Y-91382096D01*
X98044936Y-91391500D01*
X97181064Y-91391500D01*
X97085578Y-91382096D01*
X96963052Y-91344928D01*
X96850134Y-91284572D01*
X96751157Y-91203343D01*
X96669928Y-91104366D01*
X96609572Y-90991448D01*
X96572404Y-90868922D01*
X96559855Y-90741500D01*
X96572404Y-90614078D01*
X96609572Y-90491552D01*
X96669928Y-90378634D01*
X96751157Y-90279657D01*
X96850134Y-90198428D01*
X96963052Y-90138072D01*
X97085578Y-90100904D01*
X97181064Y-90091500D01*
X98044936Y-90091500D01*
X98140422Y-90100904D01*
X98140422Y-90100904D01*
G37*
G36*
X95600422Y-90100904D02*
X95722948Y-90138072D01*
X95835866Y-90198428D01*
X95934843Y-90279657D01*
X96016072Y-90378634D01*
X96076428Y-90491552D01*
X96113596Y-90614078D01*
X96126145Y-90741500D01*
X96113596Y-90868922D01*
X96076428Y-90991448D01*
X96016072Y-91104366D01*
X95934843Y-91203343D01*
X95835866Y-91284572D01*
X95722948Y-91344928D01*
X95600422Y-91382096D01*
X95504936Y-91391500D01*
X94641064Y-91391500D01*
X94545578Y-91382096D01*
X94423052Y-91344928D01*
X94310134Y-91284572D01*
X94211157Y-91203343D01*
X94129928Y-91104366D01*
X94069572Y-90991448D01*
X94032404Y-90868922D01*
X94019855Y-90741500D01*
X94032404Y-90614078D01*
X94069572Y-90491552D01*
X94129928Y-90378634D01*
X94211157Y-90279657D01*
X94310134Y-90198428D01*
X94423052Y-90138072D01*
X94545578Y-90100904D01*
X94641064Y-90091500D01*
X95504936Y-90091500D01*
X95600422Y-90100904D01*
X95600422Y-90100904D01*
G37*
G36*
X149248103Y-87717007D02*
X149420995Y-87788621D01*
X149576591Y-87892587D01*
X149708913Y-88024909D01*
X149812879Y-88180505D01*
X149884493Y-88353397D01*
X149921000Y-88536932D01*
X149921000Y-88724068D01*
X149884493Y-88907603D01*
X149812879Y-89080495D01*
X149708913Y-89236091D01*
X149576591Y-89368413D01*
X149420995Y-89472379D01*
X149248103Y-89543993D01*
X149064568Y-89580500D01*
X148877432Y-89580500D01*
X148693897Y-89543993D01*
X148521005Y-89472379D01*
X148365409Y-89368413D01*
X148233087Y-89236091D01*
X148129121Y-89080495D01*
X148057507Y-88907603D01*
X148021000Y-88724068D01*
X148021000Y-88536932D01*
X148057507Y-88353397D01*
X148129121Y-88180505D01*
X148233087Y-88024909D01*
X148365409Y-87892587D01*
X148521005Y-87788621D01*
X148693897Y-87717007D01*
X148877432Y-87680500D01*
X149064568Y-87680500D01*
X149248103Y-87717007D01*
X149248103Y-87717007D01*
G37*
G36*
X126180422Y-87560904D02*
X126302948Y-87598072D01*
X126415866Y-87658428D01*
X126514843Y-87739657D01*
X126596072Y-87838634D01*
X126656428Y-87951552D01*
X126693596Y-88074078D01*
X126706145Y-88201500D01*
X126693596Y-88328922D01*
X126656428Y-88451448D01*
X126596072Y-88564366D01*
X126514843Y-88663343D01*
X126415866Y-88744572D01*
X126302948Y-88804928D01*
X126180422Y-88842096D01*
X126084936Y-88851500D01*
X125221064Y-88851500D01*
X125125578Y-88842096D01*
X125003052Y-88804928D01*
X124890134Y-88744572D01*
X124791157Y-88663343D01*
X124709928Y-88564366D01*
X124649572Y-88451448D01*
X124612404Y-88328922D01*
X124599855Y-88201500D01*
X124612404Y-88074078D01*
X124649572Y-87951552D01*
X124709928Y-87838634D01*
X124791157Y-87739657D01*
X124890134Y-87658428D01*
X125003052Y-87598072D01*
X125125578Y-87560904D01*
X125221064Y-87551500D01*
X126084936Y-87551500D01*
X126180422Y-87560904D01*
X126180422Y-87560904D01*
G37*
G36*
X95600422Y-87560904D02*
X95722948Y-87598072D01*
X95835866Y-87658428D01*
X95934843Y-87739657D01*
X96016072Y-87838634D01*
X96076428Y-87951552D01*
X96113596Y-88074078D01*
X96126145Y-88201500D01*
X96113596Y-88328922D01*
X96076428Y-88451448D01*
X96016072Y-88564366D01*
X95934843Y-88663343D01*
X95835866Y-88744572D01*
X95722948Y-88804928D01*
X95600422Y-88842096D01*
X95504936Y-88851500D01*
X94641064Y-88851500D01*
X94545578Y-88842096D01*
X94423052Y-88804928D01*
X94310134Y-88744572D01*
X94211157Y-88663343D01*
X94129928Y-88564366D01*
X94069572Y-88451448D01*
X94032404Y-88328922D01*
X94019855Y-88201500D01*
X94032404Y-88074078D01*
X94069572Y-87951552D01*
X94129928Y-87838634D01*
X94211157Y-87739657D01*
X94310134Y-87658428D01*
X94423052Y-87598072D01*
X94545578Y-87560904D01*
X94641064Y-87551500D01*
X95504936Y-87551500D01*
X95600422Y-87560904D01*
X95600422Y-87560904D01*
G37*
G36*
X98140422Y-87560904D02*
X98262948Y-87598072D01*
X98375866Y-87658428D01*
X98474843Y-87739657D01*
X98556072Y-87838634D01*
X98616428Y-87951552D01*
X98653596Y-88074078D01*
X98666145Y-88201500D01*
X98653596Y-88328922D01*
X98616428Y-88451448D01*
X98556072Y-88564366D01*
X98474843Y-88663343D01*
X98375866Y-88744572D01*
X98262948Y-88804928D01*
X98140422Y-88842096D01*
X98044936Y-88851500D01*
X97181064Y-88851500D01*
X97085578Y-88842096D01*
X96963052Y-88804928D01*
X96850134Y-88744572D01*
X96751157Y-88663343D01*
X96669928Y-88564366D01*
X96609572Y-88451448D01*
X96572404Y-88328922D01*
X96559855Y-88201500D01*
X96572404Y-88074078D01*
X96609572Y-87951552D01*
X96669928Y-87838634D01*
X96751157Y-87739657D01*
X96850134Y-87658428D01*
X96963052Y-87598072D01*
X97085578Y-87560904D01*
X97181064Y-87551500D01*
X98044936Y-87551500D01*
X98140422Y-87560904D01*
X98140422Y-87560904D01*
G37*
G36*
X123590422Y-87560904D02*
X123712948Y-87598072D01*
X123825866Y-87658428D01*
X123924843Y-87739657D01*
X124006072Y-87838634D01*
X124066428Y-87951552D01*
X124103596Y-88074078D01*
X124116145Y-88201500D01*
X124103596Y-88328922D01*
X124066428Y-88451448D01*
X124006072Y-88564366D01*
X123924843Y-88663343D01*
X123825866Y-88744572D01*
X123712948Y-88804928D01*
X123590422Y-88842096D01*
X123494936Y-88851500D01*
X122631064Y-88851500D01*
X122535578Y-88842096D01*
X122413052Y-88804928D01*
X122300134Y-88744572D01*
X122201157Y-88663343D01*
X122119928Y-88564366D01*
X122059572Y-88451448D01*
X122022404Y-88328922D01*
X122009855Y-88201500D01*
X122022404Y-88074078D01*
X122059572Y-87951552D01*
X122119928Y-87838634D01*
X122201157Y-87739657D01*
X122300134Y-87658428D01*
X122413052Y-87598072D01*
X122535578Y-87560904D01*
X122631064Y-87551500D01*
X123494936Y-87551500D01*
X123590422Y-87560904D01*
X123590422Y-87560904D01*
G37*
M02*
