G04 #@! TF.GenerationSoftware,KiCad,Pcbnew,(5.1.5)-3*
G04 #@! TF.CreationDate,2020-03-04T17:55:08-05:00*
G04 #@! TF.ProjectId,ufcs,75666373-2e6b-4696-9361-645f70636258,rev?*
G04 #@! TF.SameCoordinates,Original*
G04 #@! TF.FileFunction,Paste,Top*
G04 #@! TF.FilePolarity,Positive*
%FSLAX46Y46*%
G04 Gerber Fmt 4.6, Leading zero omitted, Abs format (unit mm)*
G04 Created by KiCad (PCBNEW (5.1.5)-3) date 2020-03-04 17:55:08*
%MOMM*%
%LPD*%
G04 APERTURE LIST*
%ADD10C,0.100000*%
%ADD11R,2.000000X0.600000*%
%ADD12R,0.285000X1.000000*%
G04 APERTURE END LIST*
D10*
G36*
X130372279Y-114778144D02*
G01*
X130395334Y-114781563D01*
X130417943Y-114787227D01*
X130439887Y-114795079D01*
X130460957Y-114805044D01*
X130480948Y-114817026D01*
X130499668Y-114830910D01*
X130516938Y-114846562D01*
X130532590Y-114863832D01*
X130546474Y-114882552D01*
X130558456Y-114902543D01*
X130568421Y-114923613D01*
X130576273Y-114945557D01*
X130581937Y-114968166D01*
X130585356Y-114991221D01*
X130586500Y-115014500D01*
X130586500Y-115589500D01*
X130585356Y-115612779D01*
X130581937Y-115635834D01*
X130576273Y-115658443D01*
X130568421Y-115680387D01*
X130558456Y-115701457D01*
X130546474Y-115721448D01*
X130532590Y-115740168D01*
X130516938Y-115757438D01*
X130499668Y-115773090D01*
X130480948Y-115786974D01*
X130460957Y-115798956D01*
X130439887Y-115808921D01*
X130417943Y-115816773D01*
X130395334Y-115822437D01*
X130372279Y-115825856D01*
X130349000Y-115827000D01*
X129874000Y-115827000D01*
X129850721Y-115825856D01*
X129827666Y-115822437D01*
X129805057Y-115816773D01*
X129783113Y-115808921D01*
X129762043Y-115798956D01*
X129742052Y-115786974D01*
X129723332Y-115773090D01*
X129706062Y-115757438D01*
X129690410Y-115740168D01*
X129676526Y-115721448D01*
X129664544Y-115701457D01*
X129654579Y-115680387D01*
X129646727Y-115658443D01*
X129641063Y-115635834D01*
X129637644Y-115612779D01*
X129636500Y-115589500D01*
X129636500Y-115014500D01*
X129637644Y-114991221D01*
X129641063Y-114968166D01*
X129646727Y-114945557D01*
X129654579Y-114923613D01*
X129664544Y-114902543D01*
X129676526Y-114882552D01*
X129690410Y-114863832D01*
X129706062Y-114846562D01*
X129723332Y-114830910D01*
X129742052Y-114817026D01*
X129762043Y-114805044D01*
X129783113Y-114795079D01*
X129805057Y-114787227D01*
X129827666Y-114781563D01*
X129850721Y-114778144D01*
X129874000Y-114777000D01*
X130349000Y-114777000D01*
X130372279Y-114778144D01*
G37*
G36*
X130372279Y-113028144D02*
G01*
X130395334Y-113031563D01*
X130417943Y-113037227D01*
X130439887Y-113045079D01*
X130460957Y-113055044D01*
X130480948Y-113067026D01*
X130499668Y-113080910D01*
X130516938Y-113096562D01*
X130532590Y-113113832D01*
X130546474Y-113132552D01*
X130558456Y-113152543D01*
X130568421Y-113173613D01*
X130576273Y-113195557D01*
X130581937Y-113218166D01*
X130585356Y-113241221D01*
X130586500Y-113264500D01*
X130586500Y-113839500D01*
X130585356Y-113862779D01*
X130581937Y-113885834D01*
X130576273Y-113908443D01*
X130568421Y-113930387D01*
X130558456Y-113951457D01*
X130546474Y-113971448D01*
X130532590Y-113990168D01*
X130516938Y-114007438D01*
X130499668Y-114023090D01*
X130480948Y-114036974D01*
X130460957Y-114048956D01*
X130439887Y-114058921D01*
X130417943Y-114066773D01*
X130395334Y-114072437D01*
X130372279Y-114075856D01*
X130349000Y-114077000D01*
X129874000Y-114077000D01*
X129850721Y-114075856D01*
X129827666Y-114072437D01*
X129805057Y-114066773D01*
X129783113Y-114058921D01*
X129762043Y-114048956D01*
X129742052Y-114036974D01*
X129723332Y-114023090D01*
X129706062Y-114007438D01*
X129690410Y-113990168D01*
X129676526Y-113971448D01*
X129664544Y-113951457D01*
X129654579Y-113930387D01*
X129646727Y-113908443D01*
X129641063Y-113885834D01*
X129637644Y-113862779D01*
X129636500Y-113839500D01*
X129636500Y-113264500D01*
X129637644Y-113241221D01*
X129641063Y-113218166D01*
X129646727Y-113195557D01*
X129654579Y-113173613D01*
X129664544Y-113152543D01*
X129676526Y-113132552D01*
X129690410Y-113113832D01*
X129706062Y-113096562D01*
X129723332Y-113080910D01*
X129742052Y-113067026D01*
X129762043Y-113055044D01*
X129783113Y-113045079D01*
X129805057Y-113037227D01*
X129827666Y-113031563D01*
X129850721Y-113028144D01*
X129874000Y-113027000D01*
X130349000Y-113027000D01*
X130372279Y-113028144D01*
G37*
G36*
X132912279Y-113028144D02*
G01*
X132935334Y-113031563D01*
X132957943Y-113037227D01*
X132979887Y-113045079D01*
X133000957Y-113055044D01*
X133020948Y-113067026D01*
X133039668Y-113080910D01*
X133056938Y-113096562D01*
X133072590Y-113113832D01*
X133086474Y-113132552D01*
X133098456Y-113152543D01*
X133108421Y-113173613D01*
X133116273Y-113195557D01*
X133121937Y-113218166D01*
X133125356Y-113241221D01*
X133126500Y-113264500D01*
X133126500Y-113839500D01*
X133125356Y-113862779D01*
X133121937Y-113885834D01*
X133116273Y-113908443D01*
X133108421Y-113930387D01*
X133098456Y-113951457D01*
X133086474Y-113971448D01*
X133072590Y-113990168D01*
X133056938Y-114007438D01*
X133039668Y-114023090D01*
X133020948Y-114036974D01*
X133000957Y-114048956D01*
X132979887Y-114058921D01*
X132957943Y-114066773D01*
X132935334Y-114072437D01*
X132912279Y-114075856D01*
X132889000Y-114077000D01*
X132414000Y-114077000D01*
X132390721Y-114075856D01*
X132367666Y-114072437D01*
X132345057Y-114066773D01*
X132323113Y-114058921D01*
X132302043Y-114048956D01*
X132282052Y-114036974D01*
X132263332Y-114023090D01*
X132246062Y-114007438D01*
X132230410Y-113990168D01*
X132216526Y-113971448D01*
X132204544Y-113951457D01*
X132194579Y-113930387D01*
X132186727Y-113908443D01*
X132181063Y-113885834D01*
X132177644Y-113862779D01*
X132176500Y-113839500D01*
X132176500Y-113264500D01*
X132177644Y-113241221D01*
X132181063Y-113218166D01*
X132186727Y-113195557D01*
X132194579Y-113173613D01*
X132204544Y-113152543D01*
X132216526Y-113132552D01*
X132230410Y-113113832D01*
X132246062Y-113096562D01*
X132263332Y-113080910D01*
X132282052Y-113067026D01*
X132302043Y-113055044D01*
X132323113Y-113045079D01*
X132345057Y-113037227D01*
X132367666Y-113031563D01*
X132390721Y-113028144D01*
X132414000Y-113027000D01*
X132889000Y-113027000D01*
X132912279Y-113028144D01*
G37*
G36*
X132912279Y-114778144D02*
G01*
X132935334Y-114781563D01*
X132957943Y-114787227D01*
X132979887Y-114795079D01*
X133000957Y-114805044D01*
X133020948Y-114817026D01*
X133039668Y-114830910D01*
X133056938Y-114846562D01*
X133072590Y-114863832D01*
X133086474Y-114882552D01*
X133098456Y-114902543D01*
X133108421Y-114923613D01*
X133116273Y-114945557D01*
X133121937Y-114968166D01*
X133125356Y-114991221D01*
X133126500Y-115014500D01*
X133126500Y-115589500D01*
X133125356Y-115612779D01*
X133121937Y-115635834D01*
X133116273Y-115658443D01*
X133108421Y-115680387D01*
X133098456Y-115701457D01*
X133086474Y-115721448D01*
X133072590Y-115740168D01*
X133056938Y-115757438D01*
X133039668Y-115773090D01*
X133020948Y-115786974D01*
X133000957Y-115798956D01*
X132979887Y-115808921D01*
X132957943Y-115816773D01*
X132935334Y-115822437D01*
X132912279Y-115825856D01*
X132889000Y-115827000D01*
X132414000Y-115827000D01*
X132390721Y-115825856D01*
X132367666Y-115822437D01*
X132345057Y-115816773D01*
X132323113Y-115808921D01*
X132302043Y-115798956D01*
X132282052Y-115786974D01*
X132263332Y-115773090D01*
X132246062Y-115757438D01*
X132230410Y-115740168D01*
X132216526Y-115721448D01*
X132204544Y-115701457D01*
X132194579Y-115680387D01*
X132186727Y-115658443D01*
X132181063Y-115635834D01*
X132177644Y-115612779D01*
X132176500Y-115589500D01*
X132176500Y-115014500D01*
X132177644Y-114991221D01*
X132181063Y-114968166D01*
X132186727Y-114945557D01*
X132194579Y-114923613D01*
X132204544Y-114902543D01*
X132216526Y-114882552D01*
X132230410Y-114863832D01*
X132246062Y-114846562D01*
X132263332Y-114830910D01*
X132282052Y-114817026D01*
X132302043Y-114805044D01*
X132323113Y-114795079D01*
X132345057Y-114787227D01*
X132367666Y-114781563D01*
X132390721Y-114778144D01*
X132414000Y-114777000D01*
X132889000Y-114777000D01*
X132912279Y-114778144D01*
G37*
D11*
X158977600Y-133007100D03*
X158977600Y-134277100D03*
X158977600Y-135547100D03*
X158977600Y-136817100D03*
X158977600Y-138087100D03*
X158977600Y-139357100D03*
X158977600Y-140627100D03*
X158977600Y-141897100D03*
X158977600Y-143167100D03*
X168377600Y-143167100D03*
X168377600Y-141897100D03*
X168377600Y-140627100D03*
X168377600Y-139357100D03*
X168377600Y-138087100D03*
X168377600Y-136817100D03*
X168377600Y-135547100D03*
X168377600Y-134277100D03*
X168377600Y-133007100D03*
X168225200Y-103543100D03*
X168225200Y-104813100D03*
X168225200Y-106083100D03*
X168225200Y-107353100D03*
X168225200Y-108623100D03*
X168225200Y-109893100D03*
X168225200Y-111163100D03*
X168225200Y-112433100D03*
X168225200Y-113703100D03*
X158825200Y-113703100D03*
X158825200Y-112433100D03*
X158825200Y-111163100D03*
X158825200Y-109893100D03*
X158825200Y-108623100D03*
X158825200Y-107353100D03*
X158825200Y-106083100D03*
X158825200Y-104813100D03*
X158825200Y-103543100D03*
X168250600Y-88963500D03*
X168250600Y-90233500D03*
X168250600Y-91503500D03*
X168250600Y-92773500D03*
X168250600Y-94043500D03*
X168250600Y-95313500D03*
X168250600Y-96583500D03*
X168250600Y-97853500D03*
X168250600Y-99123500D03*
X158850600Y-99123500D03*
X158850600Y-97853500D03*
X158850600Y-96583500D03*
X158850600Y-95313500D03*
X158850600Y-94043500D03*
X158850600Y-92773500D03*
X158850600Y-91503500D03*
X158850600Y-90233500D03*
X158850600Y-88963500D03*
X158850600Y-117792500D03*
X158850600Y-119062500D03*
X158850600Y-120332500D03*
X158850600Y-121602500D03*
X158850600Y-122872500D03*
X158850600Y-124142500D03*
X158850600Y-125412500D03*
X158850600Y-126682500D03*
X158850600Y-127952500D03*
X168250600Y-127952500D03*
X168250600Y-126682500D03*
X168250600Y-125412500D03*
X168250600Y-124142500D03*
X168250600Y-122872500D03*
X168250600Y-121602500D03*
X168250600Y-120332500D03*
X168250600Y-119062500D03*
X168250600Y-117792500D03*
D12*
X142348000Y-115129000D03*
X142848000Y-115129000D03*
X143348000Y-115129000D03*
X143848000Y-115129000D03*
X144348000Y-115129000D03*
X144848000Y-115129000D03*
X145348000Y-115129000D03*
X145848000Y-115129000D03*
X146348000Y-115129000D03*
X146848000Y-115129000D03*
X147348000Y-115129000D03*
X147848000Y-115129000D03*
X148348000Y-115129000D03*
X148848000Y-115129000D03*
X149348000Y-115129000D03*
X149848000Y-115129000D03*
X150348000Y-115129000D03*
X150848000Y-115129000D03*
X151348000Y-115129000D03*
X151848000Y-115129000D03*
X152348000Y-115129000D03*
X152848000Y-115129000D03*
X153348000Y-115129000D03*
X153848000Y-115129000D03*
X154348000Y-115129000D03*
X154848000Y-115129000D03*
X155348000Y-115129000D03*
X155848000Y-115129000D03*
X155848000Y-107629000D03*
X155348000Y-107629000D03*
X154848000Y-107629000D03*
X154348000Y-107629000D03*
X153848000Y-107629000D03*
X153348000Y-107629000D03*
X152848000Y-107629000D03*
X152348000Y-107629000D03*
X151848000Y-107629000D03*
X151348000Y-107629000D03*
X150848000Y-107629000D03*
X150348000Y-107629000D03*
X149848000Y-107629000D03*
X149348000Y-107629000D03*
X148848000Y-107629000D03*
X148348000Y-107629000D03*
X147848000Y-107629000D03*
X147348000Y-107629000D03*
X146848000Y-107629000D03*
X146348000Y-107629000D03*
X145848000Y-107629000D03*
X145348000Y-107629000D03*
X144848000Y-107629000D03*
X144348000Y-107629000D03*
X143848000Y-107629000D03*
X143348000Y-107629000D03*
X142848000Y-107629000D03*
X142348000Y-107629000D03*
M02*
