M48
; DRILL file {KiCad (5.1.5)-3} date 2020-03-04 17:54:59
; FORMAT={-:-/ absolute / inch / decimal}
; #@! TF.CreationDate,2020-03-04T17:54:59-05:00
; #@! TF.GenerationSoftware,Kicad,Pcbnew,(5.1.5)-3
; #@! TF.FileFunction,Plated,1,2,PTH
FMAT,2
INCH
T1C0.0150
T2C0.0315
T3C0.0394
T4C0.0400
T5C0.0512
T6C0.1200
%
G90
G05
T1
X4.3625Y-4.015
X4.64Y-4.3225
X5.065Y-4.8275
X5.27Y-4.6175
X5.595Y-4.6025
X5.65Y-4.4325
X5.7025Y-4.3025
X5.7425Y-4.46
X5.8Y-4.1675
X5.8Y-4.335
X6.0175Y-4.425
X6.045Y-4.375
X6.055Y-4.33
X6.1275Y-4.3775
X6.1475Y-4.425
X6.1525Y-4.33
X6.1775Y-4.2425
X6.255Y-3.9625
X6.255Y-5.0975
X6.355Y-4.53
X6.3625Y-5.59
X6.46Y-3.9975
T2
X3.743Y-3.4725
X3.743Y-3.5725
X3.743Y-3.6725
X3.743Y-3.7725
X3.743Y-3.8725
X3.743Y-3.9725
X3.743Y-4.0725
X3.743Y-4.1725
X3.743Y-4.2725
X3.743Y-4.3725
X3.743Y-4.4725
X3.743Y-4.5725
X3.743Y-4.6725
X3.743Y-4.7725
X3.743Y-4.8725
X3.743Y-4.9725
X3.743Y-5.0725
X3.743Y-5.1725
X3.743Y-5.2725
X3.843Y-3.4725
X3.843Y-3.5725
X3.843Y-3.6725
X3.843Y-3.7725
X3.843Y-3.8725
X3.843Y-3.9725
X3.843Y-4.0725
X3.843Y-4.1725
X3.843Y-4.2725
X3.843Y-4.3725
X3.843Y-4.4725
X3.843Y-4.5725
X3.843Y-4.6725
X3.843Y-4.7725
X3.843Y-4.8725
X3.843Y-4.9725
X3.843Y-5.0725
X3.843Y-5.1725
X3.843Y-5.2725
X4.845Y-3.4725
X4.845Y-3.5725
X4.845Y-3.6725
X4.845Y-3.7725
X4.845Y-3.8725
X4.845Y-3.9725
X4.845Y-4.0725
X4.845Y-4.1725
X4.845Y-4.2725
X4.845Y-4.3725
X4.845Y-4.4725
X4.845Y-4.5725
X4.845Y-4.6725
X4.845Y-4.7725
X4.845Y-4.8725
X4.845Y-4.9725
X4.845Y-5.0725
X4.845Y-5.1725
X4.845Y-5.2725
X4.947Y-3.4725
X4.947Y-3.5725
X4.947Y-3.6725
X4.947Y-3.7725
X4.947Y-3.8725
X4.947Y-3.9725
X4.947Y-4.0725
X4.947Y-4.1725
X4.947Y-4.2725
X4.947Y-4.3725
X4.947Y-4.4725
X4.947Y-4.5725
X4.947Y-4.6725
X4.947Y-4.7725
X4.947Y-4.8725
X4.947Y-4.9725
X4.947Y-5.0725
X4.947Y-5.1725
X4.947Y-5.2725
T3
X5.345Y-5.0975
X5.445Y-5.0975
X5.545Y-5.0975
X5.645Y-5.0975
X5.2725Y-4.1275
X5.3725Y-4.1275
X5.4725Y-4.1275
X5.871Y-5.4575
X5.971Y-5.4575
X5.445Y-3.5775
X5.445Y-3.6775
X5.445Y-3.7775
X5.345Y-5.5375
X5.445Y-5.5375
X5.545Y-5.5375
X5.645Y-5.5375
X5.345Y-4.7575
X5.445Y-4.7575
X5.545Y-4.7575
X5.645Y-4.7575
X5.873Y-5.0855
X5.973Y-5.0855
T4
X6.97Y-4.7725
X6.97Y-4.8725
X7.07Y-4.7725
X7.07Y-4.8725
X7.17Y-4.7725
X7.17Y-4.8725
X7.27Y-4.7725
X7.27Y-4.8725
X7.37Y-4.7725
X7.37Y-4.8725
X6.97Y-3.6225
X6.97Y-3.7225
X7.07Y-3.6225
X7.07Y-3.7225
X7.17Y-3.6225
X7.17Y-3.7225
X7.27Y-3.6225
X7.27Y-3.7225
X7.37Y-3.6225
X7.37Y-3.7225
X6.97Y-4.1975
X6.97Y-4.2975
X7.07Y-4.1975
X7.07Y-4.2975
X7.17Y-4.1975
X7.17Y-4.2975
X7.27Y-4.1975
X7.27Y-4.2975
X7.37Y-4.1975
X7.37Y-4.2975
X6.97Y-5.3725
X6.97Y-5.4725
X7.07Y-5.3725
X7.07Y-5.4725
X7.17Y-5.3725
X7.17Y-5.4725
X7.27Y-5.3725
X7.27Y-5.4725
X7.37Y-5.3725
X7.37Y-5.4725
T6
X3.545Y-5.6225
X7.72Y-5.6225
X3.545Y-3.5475
X5.433Y-4.4295
X7.72Y-3.5475
T5
G00X5.6878Y-3.5288
M15
G01X5.6878Y-3.6075
M16
G05
G00X5.8315Y-3.6075
M15
G01X5.8985Y-3.6075
M16
G05
G00X5.8178Y-3.8437
M15
G01X5.9122Y-3.8437
M16
G05
G00X6.0422Y-3.5288
M15
G01X6.0422Y-3.6075
M16
G05
T0
M30
