G04 #@! TF.GenerationSoftware,KiCad,Pcbnew,(5.0.1)-3*
G04 #@! TF.CreationDate,2018-10-30T11:50:23-04:00*
G04 #@! TF.ProjectId,ufcs,756663732E6B696361645F7063620000,rev?*
G04 #@! TF.SameCoordinates,Original*
G04 #@! TF.FileFunction,Paste,Bot*
G04 #@! TF.FilePolarity,Positive*
%FSLAX46Y46*%
G04 Gerber Fmt 4.6, Leading zero omitted, Abs format (unit mm)*
G04 Created by KiCad (PCBNEW (5.0.1)-3) date 30-Oct-18 11:50:23*
%MOMM*%
%LPD*%
G01*
G04 APERTURE LIST*
%ADD10C,0.100000*%
%ADD11C,0.950000*%
%ADD12R,0.600000X1.500000*%
%ADD13R,0.600000X2.000000*%
G04 APERTURE END LIST*
D10*
G04 #@! TO.C,R3*
G36*
X109008779Y-103602644D02*
X109031834Y-103606063D01*
X109054443Y-103611727D01*
X109076387Y-103619579D01*
X109097457Y-103629544D01*
X109117448Y-103641526D01*
X109136168Y-103655410D01*
X109153438Y-103671062D01*
X109169090Y-103688332D01*
X109182974Y-103707052D01*
X109194956Y-103727043D01*
X109204921Y-103748113D01*
X109212773Y-103770057D01*
X109218437Y-103792666D01*
X109221856Y-103815721D01*
X109223000Y-103839000D01*
X109223000Y-104314000D01*
X109221856Y-104337279D01*
X109218437Y-104360334D01*
X109212773Y-104382943D01*
X109204921Y-104404887D01*
X109194956Y-104425957D01*
X109182974Y-104445948D01*
X109169090Y-104464668D01*
X109153438Y-104481938D01*
X109136168Y-104497590D01*
X109117448Y-104511474D01*
X109097457Y-104523456D01*
X109076387Y-104533421D01*
X109054443Y-104541273D01*
X109031834Y-104546937D01*
X109008779Y-104550356D01*
X108985500Y-104551500D01*
X108410500Y-104551500D01*
X108387221Y-104550356D01*
X108364166Y-104546937D01*
X108341557Y-104541273D01*
X108319613Y-104533421D01*
X108298543Y-104523456D01*
X108278552Y-104511474D01*
X108259832Y-104497590D01*
X108242562Y-104481938D01*
X108226910Y-104464668D01*
X108213026Y-104445948D01*
X108201044Y-104425957D01*
X108191079Y-104404887D01*
X108183227Y-104382943D01*
X108177563Y-104360334D01*
X108174144Y-104337279D01*
X108173000Y-104314000D01*
X108173000Y-103839000D01*
X108174144Y-103815721D01*
X108177563Y-103792666D01*
X108183227Y-103770057D01*
X108191079Y-103748113D01*
X108201044Y-103727043D01*
X108213026Y-103707052D01*
X108226910Y-103688332D01*
X108242562Y-103671062D01*
X108259832Y-103655410D01*
X108278552Y-103641526D01*
X108298543Y-103629544D01*
X108319613Y-103619579D01*
X108341557Y-103611727D01*
X108364166Y-103606063D01*
X108387221Y-103602644D01*
X108410500Y-103601500D01*
X108985500Y-103601500D01*
X109008779Y-103602644D01*
X109008779Y-103602644D01*
G37*
D11*
X108698000Y-104076500D03*
D10*
G36*
X107258779Y-103602644D02*
X107281834Y-103606063D01*
X107304443Y-103611727D01*
X107326387Y-103619579D01*
X107347457Y-103629544D01*
X107367448Y-103641526D01*
X107386168Y-103655410D01*
X107403438Y-103671062D01*
X107419090Y-103688332D01*
X107432974Y-103707052D01*
X107444956Y-103727043D01*
X107454921Y-103748113D01*
X107462773Y-103770057D01*
X107468437Y-103792666D01*
X107471856Y-103815721D01*
X107473000Y-103839000D01*
X107473000Y-104314000D01*
X107471856Y-104337279D01*
X107468437Y-104360334D01*
X107462773Y-104382943D01*
X107454921Y-104404887D01*
X107444956Y-104425957D01*
X107432974Y-104445948D01*
X107419090Y-104464668D01*
X107403438Y-104481938D01*
X107386168Y-104497590D01*
X107367448Y-104511474D01*
X107347457Y-104523456D01*
X107326387Y-104533421D01*
X107304443Y-104541273D01*
X107281834Y-104546937D01*
X107258779Y-104550356D01*
X107235500Y-104551500D01*
X106660500Y-104551500D01*
X106637221Y-104550356D01*
X106614166Y-104546937D01*
X106591557Y-104541273D01*
X106569613Y-104533421D01*
X106548543Y-104523456D01*
X106528552Y-104511474D01*
X106509832Y-104497590D01*
X106492562Y-104481938D01*
X106476910Y-104464668D01*
X106463026Y-104445948D01*
X106451044Y-104425957D01*
X106441079Y-104404887D01*
X106433227Y-104382943D01*
X106427563Y-104360334D01*
X106424144Y-104337279D01*
X106423000Y-104314000D01*
X106423000Y-103839000D01*
X106424144Y-103815721D01*
X106427563Y-103792666D01*
X106433227Y-103770057D01*
X106441079Y-103748113D01*
X106451044Y-103727043D01*
X106463026Y-103707052D01*
X106476910Y-103688332D01*
X106492562Y-103671062D01*
X106509832Y-103655410D01*
X106528552Y-103641526D01*
X106548543Y-103629544D01*
X106569613Y-103619579D01*
X106591557Y-103611727D01*
X106614166Y-103606063D01*
X106637221Y-103602644D01*
X106660500Y-103601500D01*
X107235500Y-103601500D01*
X107258779Y-103602644D01*
X107258779Y-103602644D01*
G37*
D11*
X106948000Y-104076500D03*
G04 #@! TD*
D10*
G04 #@! TO.C,R4*
G36*
X112783279Y-103602644D02*
X112806334Y-103606063D01*
X112828943Y-103611727D01*
X112850887Y-103619579D01*
X112871957Y-103629544D01*
X112891948Y-103641526D01*
X112910668Y-103655410D01*
X112927938Y-103671062D01*
X112943590Y-103688332D01*
X112957474Y-103707052D01*
X112969456Y-103727043D01*
X112979421Y-103748113D01*
X112987273Y-103770057D01*
X112992937Y-103792666D01*
X112996356Y-103815721D01*
X112997500Y-103839000D01*
X112997500Y-104314000D01*
X112996356Y-104337279D01*
X112992937Y-104360334D01*
X112987273Y-104382943D01*
X112979421Y-104404887D01*
X112969456Y-104425957D01*
X112957474Y-104445948D01*
X112943590Y-104464668D01*
X112927938Y-104481938D01*
X112910668Y-104497590D01*
X112891948Y-104511474D01*
X112871957Y-104523456D01*
X112850887Y-104533421D01*
X112828943Y-104541273D01*
X112806334Y-104546937D01*
X112783279Y-104550356D01*
X112760000Y-104551500D01*
X112185000Y-104551500D01*
X112161721Y-104550356D01*
X112138666Y-104546937D01*
X112116057Y-104541273D01*
X112094113Y-104533421D01*
X112073043Y-104523456D01*
X112053052Y-104511474D01*
X112034332Y-104497590D01*
X112017062Y-104481938D01*
X112001410Y-104464668D01*
X111987526Y-104445948D01*
X111975544Y-104425957D01*
X111965579Y-104404887D01*
X111957727Y-104382943D01*
X111952063Y-104360334D01*
X111948644Y-104337279D01*
X111947500Y-104314000D01*
X111947500Y-103839000D01*
X111948644Y-103815721D01*
X111952063Y-103792666D01*
X111957727Y-103770057D01*
X111965579Y-103748113D01*
X111975544Y-103727043D01*
X111987526Y-103707052D01*
X112001410Y-103688332D01*
X112017062Y-103671062D01*
X112034332Y-103655410D01*
X112053052Y-103641526D01*
X112073043Y-103629544D01*
X112094113Y-103619579D01*
X112116057Y-103611727D01*
X112138666Y-103606063D01*
X112161721Y-103602644D01*
X112185000Y-103601500D01*
X112760000Y-103601500D01*
X112783279Y-103602644D01*
X112783279Y-103602644D01*
G37*
D11*
X112472500Y-104076500D03*
D10*
G36*
X114533279Y-103602644D02*
X114556334Y-103606063D01*
X114578943Y-103611727D01*
X114600887Y-103619579D01*
X114621957Y-103629544D01*
X114641948Y-103641526D01*
X114660668Y-103655410D01*
X114677938Y-103671062D01*
X114693590Y-103688332D01*
X114707474Y-103707052D01*
X114719456Y-103727043D01*
X114729421Y-103748113D01*
X114737273Y-103770057D01*
X114742937Y-103792666D01*
X114746356Y-103815721D01*
X114747500Y-103839000D01*
X114747500Y-104314000D01*
X114746356Y-104337279D01*
X114742937Y-104360334D01*
X114737273Y-104382943D01*
X114729421Y-104404887D01*
X114719456Y-104425957D01*
X114707474Y-104445948D01*
X114693590Y-104464668D01*
X114677938Y-104481938D01*
X114660668Y-104497590D01*
X114641948Y-104511474D01*
X114621957Y-104523456D01*
X114600887Y-104533421D01*
X114578943Y-104541273D01*
X114556334Y-104546937D01*
X114533279Y-104550356D01*
X114510000Y-104551500D01*
X113935000Y-104551500D01*
X113911721Y-104550356D01*
X113888666Y-104546937D01*
X113866057Y-104541273D01*
X113844113Y-104533421D01*
X113823043Y-104523456D01*
X113803052Y-104511474D01*
X113784332Y-104497590D01*
X113767062Y-104481938D01*
X113751410Y-104464668D01*
X113737526Y-104445948D01*
X113725544Y-104425957D01*
X113715579Y-104404887D01*
X113707727Y-104382943D01*
X113702063Y-104360334D01*
X113698644Y-104337279D01*
X113697500Y-104314000D01*
X113697500Y-103839000D01*
X113698644Y-103815721D01*
X113702063Y-103792666D01*
X113707727Y-103770057D01*
X113715579Y-103748113D01*
X113725544Y-103727043D01*
X113737526Y-103707052D01*
X113751410Y-103688332D01*
X113767062Y-103671062D01*
X113784332Y-103655410D01*
X113803052Y-103641526D01*
X113823043Y-103629544D01*
X113844113Y-103619579D01*
X113866057Y-103611727D01*
X113888666Y-103606063D01*
X113911721Y-103602644D01*
X113935000Y-103601500D01*
X114510000Y-103601500D01*
X114533279Y-103602644D01*
X114533279Y-103602644D01*
G37*
D11*
X114222500Y-104076500D03*
G04 #@! TD*
D10*
G04 #@! TO.C,R5*
G36*
X109008779Y-105380644D02*
X109031834Y-105384063D01*
X109054443Y-105389727D01*
X109076387Y-105397579D01*
X109097457Y-105407544D01*
X109117448Y-105419526D01*
X109136168Y-105433410D01*
X109153438Y-105449062D01*
X109169090Y-105466332D01*
X109182974Y-105485052D01*
X109194956Y-105505043D01*
X109204921Y-105526113D01*
X109212773Y-105548057D01*
X109218437Y-105570666D01*
X109221856Y-105593721D01*
X109223000Y-105617000D01*
X109223000Y-106092000D01*
X109221856Y-106115279D01*
X109218437Y-106138334D01*
X109212773Y-106160943D01*
X109204921Y-106182887D01*
X109194956Y-106203957D01*
X109182974Y-106223948D01*
X109169090Y-106242668D01*
X109153438Y-106259938D01*
X109136168Y-106275590D01*
X109117448Y-106289474D01*
X109097457Y-106301456D01*
X109076387Y-106311421D01*
X109054443Y-106319273D01*
X109031834Y-106324937D01*
X109008779Y-106328356D01*
X108985500Y-106329500D01*
X108410500Y-106329500D01*
X108387221Y-106328356D01*
X108364166Y-106324937D01*
X108341557Y-106319273D01*
X108319613Y-106311421D01*
X108298543Y-106301456D01*
X108278552Y-106289474D01*
X108259832Y-106275590D01*
X108242562Y-106259938D01*
X108226910Y-106242668D01*
X108213026Y-106223948D01*
X108201044Y-106203957D01*
X108191079Y-106182887D01*
X108183227Y-106160943D01*
X108177563Y-106138334D01*
X108174144Y-106115279D01*
X108173000Y-106092000D01*
X108173000Y-105617000D01*
X108174144Y-105593721D01*
X108177563Y-105570666D01*
X108183227Y-105548057D01*
X108191079Y-105526113D01*
X108201044Y-105505043D01*
X108213026Y-105485052D01*
X108226910Y-105466332D01*
X108242562Y-105449062D01*
X108259832Y-105433410D01*
X108278552Y-105419526D01*
X108298543Y-105407544D01*
X108319613Y-105397579D01*
X108341557Y-105389727D01*
X108364166Y-105384063D01*
X108387221Y-105380644D01*
X108410500Y-105379500D01*
X108985500Y-105379500D01*
X109008779Y-105380644D01*
X109008779Y-105380644D01*
G37*
D11*
X108698000Y-105854500D03*
D10*
G36*
X107258779Y-105380644D02*
X107281834Y-105384063D01*
X107304443Y-105389727D01*
X107326387Y-105397579D01*
X107347457Y-105407544D01*
X107367448Y-105419526D01*
X107386168Y-105433410D01*
X107403438Y-105449062D01*
X107419090Y-105466332D01*
X107432974Y-105485052D01*
X107444956Y-105505043D01*
X107454921Y-105526113D01*
X107462773Y-105548057D01*
X107468437Y-105570666D01*
X107471856Y-105593721D01*
X107473000Y-105617000D01*
X107473000Y-106092000D01*
X107471856Y-106115279D01*
X107468437Y-106138334D01*
X107462773Y-106160943D01*
X107454921Y-106182887D01*
X107444956Y-106203957D01*
X107432974Y-106223948D01*
X107419090Y-106242668D01*
X107403438Y-106259938D01*
X107386168Y-106275590D01*
X107367448Y-106289474D01*
X107347457Y-106301456D01*
X107326387Y-106311421D01*
X107304443Y-106319273D01*
X107281834Y-106324937D01*
X107258779Y-106328356D01*
X107235500Y-106329500D01*
X106660500Y-106329500D01*
X106637221Y-106328356D01*
X106614166Y-106324937D01*
X106591557Y-106319273D01*
X106569613Y-106311421D01*
X106548543Y-106301456D01*
X106528552Y-106289474D01*
X106509832Y-106275590D01*
X106492562Y-106259938D01*
X106476910Y-106242668D01*
X106463026Y-106223948D01*
X106451044Y-106203957D01*
X106441079Y-106182887D01*
X106433227Y-106160943D01*
X106427563Y-106138334D01*
X106424144Y-106115279D01*
X106423000Y-106092000D01*
X106423000Y-105617000D01*
X106424144Y-105593721D01*
X106427563Y-105570666D01*
X106433227Y-105548057D01*
X106441079Y-105526113D01*
X106451044Y-105505043D01*
X106463026Y-105485052D01*
X106476910Y-105466332D01*
X106492562Y-105449062D01*
X106509832Y-105433410D01*
X106528552Y-105419526D01*
X106548543Y-105407544D01*
X106569613Y-105397579D01*
X106591557Y-105389727D01*
X106614166Y-105384063D01*
X106637221Y-105380644D01*
X106660500Y-105379500D01*
X107235500Y-105379500D01*
X107258779Y-105380644D01*
X107258779Y-105380644D01*
G37*
D11*
X106948000Y-105854500D03*
G04 #@! TD*
D10*
G04 #@! TO.C,R6*
G36*
X114533279Y-105380644D02*
X114556334Y-105384063D01*
X114578943Y-105389727D01*
X114600887Y-105397579D01*
X114621957Y-105407544D01*
X114641948Y-105419526D01*
X114660668Y-105433410D01*
X114677938Y-105449062D01*
X114693590Y-105466332D01*
X114707474Y-105485052D01*
X114719456Y-105505043D01*
X114729421Y-105526113D01*
X114737273Y-105548057D01*
X114742937Y-105570666D01*
X114746356Y-105593721D01*
X114747500Y-105617000D01*
X114747500Y-106092000D01*
X114746356Y-106115279D01*
X114742937Y-106138334D01*
X114737273Y-106160943D01*
X114729421Y-106182887D01*
X114719456Y-106203957D01*
X114707474Y-106223948D01*
X114693590Y-106242668D01*
X114677938Y-106259938D01*
X114660668Y-106275590D01*
X114641948Y-106289474D01*
X114621957Y-106301456D01*
X114600887Y-106311421D01*
X114578943Y-106319273D01*
X114556334Y-106324937D01*
X114533279Y-106328356D01*
X114510000Y-106329500D01*
X113935000Y-106329500D01*
X113911721Y-106328356D01*
X113888666Y-106324937D01*
X113866057Y-106319273D01*
X113844113Y-106311421D01*
X113823043Y-106301456D01*
X113803052Y-106289474D01*
X113784332Y-106275590D01*
X113767062Y-106259938D01*
X113751410Y-106242668D01*
X113737526Y-106223948D01*
X113725544Y-106203957D01*
X113715579Y-106182887D01*
X113707727Y-106160943D01*
X113702063Y-106138334D01*
X113698644Y-106115279D01*
X113697500Y-106092000D01*
X113697500Y-105617000D01*
X113698644Y-105593721D01*
X113702063Y-105570666D01*
X113707727Y-105548057D01*
X113715579Y-105526113D01*
X113725544Y-105505043D01*
X113737526Y-105485052D01*
X113751410Y-105466332D01*
X113767062Y-105449062D01*
X113784332Y-105433410D01*
X113803052Y-105419526D01*
X113823043Y-105407544D01*
X113844113Y-105397579D01*
X113866057Y-105389727D01*
X113888666Y-105384063D01*
X113911721Y-105380644D01*
X113935000Y-105379500D01*
X114510000Y-105379500D01*
X114533279Y-105380644D01*
X114533279Y-105380644D01*
G37*
D11*
X114222500Y-105854500D03*
D10*
G36*
X112783279Y-105380644D02*
X112806334Y-105384063D01*
X112828943Y-105389727D01*
X112850887Y-105397579D01*
X112871957Y-105407544D01*
X112891948Y-105419526D01*
X112910668Y-105433410D01*
X112927938Y-105449062D01*
X112943590Y-105466332D01*
X112957474Y-105485052D01*
X112969456Y-105505043D01*
X112979421Y-105526113D01*
X112987273Y-105548057D01*
X112992937Y-105570666D01*
X112996356Y-105593721D01*
X112997500Y-105617000D01*
X112997500Y-106092000D01*
X112996356Y-106115279D01*
X112992937Y-106138334D01*
X112987273Y-106160943D01*
X112979421Y-106182887D01*
X112969456Y-106203957D01*
X112957474Y-106223948D01*
X112943590Y-106242668D01*
X112927938Y-106259938D01*
X112910668Y-106275590D01*
X112891948Y-106289474D01*
X112871957Y-106301456D01*
X112850887Y-106311421D01*
X112828943Y-106319273D01*
X112806334Y-106324937D01*
X112783279Y-106328356D01*
X112760000Y-106329500D01*
X112185000Y-106329500D01*
X112161721Y-106328356D01*
X112138666Y-106324937D01*
X112116057Y-106319273D01*
X112094113Y-106311421D01*
X112073043Y-106301456D01*
X112053052Y-106289474D01*
X112034332Y-106275590D01*
X112017062Y-106259938D01*
X112001410Y-106242668D01*
X111987526Y-106223948D01*
X111975544Y-106203957D01*
X111965579Y-106182887D01*
X111957727Y-106160943D01*
X111952063Y-106138334D01*
X111948644Y-106115279D01*
X111947500Y-106092000D01*
X111947500Y-105617000D01*
X111948644Y-105593721D01*
X111952063Y-105570666D01*
X111957727Y-105548057D01*
X111965579Y-105526113D01*
X111975544Y-105505043D01*
X111987526Y-105485052D01*
X112001410Y-105466332D01*
X112017062Y-105449062D01*
X112034332Y-105433410D01*
X112053052Y-105419526D01*
X112073043Y-105407544D01*
X112094113Y-105397579D01*
X112116057Y-105389727D01*
X112138666Y-105384063D01*
X112161721Y-105380644D01*
X112185000Y-105379500D01*
X112760000Y-105379500D01*
X112783279Y-105380644D01*
X112783279Y-105380644D01*
G37*
D11*
X112472500Y-105854500D03*
G04 #@! TD*
D10*
G04 #@! TO.C,R7*
G36*
X131755779Y-129256644D02*
X131778834Y-129260063D01*
X131801443Y-129265727D01*
X131823387Y-129273579D01*
X131844457Y-129283544D01*
X131864448Y-129295526D01*
X131883168Y-129309410D01*
X131900438Y-129325062D01*
X131916090Y-129342332D01*
X131929974Y-129361052D01*
X131941956Y-129381043D01*
X131951921Y-129402113D01*
X131959773Y-129424057D01*
X131965437Y-129446666D01*
X131968856Y-129469721D01*
X131970000Y-129493000D01*
X131970000Y-129968000D01*
X131968856Y-129991279D01*
X131965437Y-130014334D01*
X131959773Y-130036943D01*
X131951921Y-130058887D01*
X131941956Y-130079957D01*
X131929974Y-130099948D01*
X131916090Y-130118668D01*
X131900438Y-130135938D01*
X131883168Y-130151590D01*
X131864448Y-130165474D01*
X131844457Y-130177456D01*
X131823387Y-130187421D01*
X131801443Y-130195273D01*
X131778834Y-130200937D01*
X131755779Y-130204356D01*
X131732500Y-130205500D01*
X131157500Y-130205500D01*
X131134221Y-130204356D01*
X131111166Y-130200937D01*
X131088557Y-130195273D01*
X131066613Y-130187421D01*
X131045543Y-130177456D01*
X131025552Y-130165474D01*
X131006832Y-130151590D01*
X130989562Y-130135938D01*
X130973910Y-130118668D01*
X130960026Y-130099948D01*
X130948044Y-130079957D01*
X130938079Y-130058887D01*
X130930227Y-130036943D01*
X130924563Y-130014334D01*
X130921144Y-129991279D01*
X130920000Y-129968000D01*
X130920000Y-129493000D01*
X130921144Y-129469721D01*
X130924563Y-129446666D01*
X130930227Y-129424057D01*
X130938079Y-129402113D01*
X130948044Y-129381043D01*
X130960026Y-129361052D01*
X130973910Y-129342332D01*
X130989562Y-129325062D01*
X131006832Y-129309410D01*
X131025552Y-129295526D01*
X131045543Y-129283544D01*
X131066613Y-129273579D01*
X131088557Y-129265727D01*
X131111166Y-129260063D01*
X131134221Y-129256644D01*
X131157500Y-129255500D01*
X131732500Y-129255500D01*
X131755779Y-129256644D01*
X131755779Y-129256644D01*
G37*
D11*
X131445000Y-129730500D03*
D10*
G36*
X130005779Y-129256644D02*
X130028834Y-129260063D01*
X130051443Y-129265727D01*
X130073387Y-129273579D01*
X130094457Y-129283544D01*
X130114448Y-129295526D01*
X130133168Y-129309410D01*
X130150438Y-129325062D01*
X130166090Y-129342332D01*
X130179974Y-129361052D01*
X130191956Y-129381043D01*
X130201921Y-129402113D01*
X130209773Y-129424057D01*
X130215437Y-129446666D01*
X130218856Y-129469721D01*
X130220000Y-129493000D01*
X130220000Y-129968000D01*
X130218856Y-129991279D01*
X130215437Y-130014334D01*
X130209773Y-130036943D01*
X130201921Y-130058887D01*
X130191956Y-130079957D01*
X130179974Y-130099948D01*
X130166090Y-130118668D01*
X130150438Y-130135938D01*
X130133168Y-130151590D01*
X130114448Y-130165474D01*
X130094457Y-130177456D01*
X130073387Y-130187421D01*
X130051443Y-130195273D01*
X130028834Y-130200937D01*
X130005779Y-130204356D01*
X129982500Y-130205500D01*
X129407500Y-130205500D01*
X129384221Y-130204356D01*
X129361166Y-130200937D01*
X129338557Y-130195273D01*
X129316613Y-130187421D01*
X129295543Y-130177456D01*
X129275552Y-130165474D01*
X129256832Y-130151590D01*
X129239562Y-130135938D01*
X129223910Y-130118668D01*
X129210026Y-130099948D01*
X129198044Y-130079957D01*
X129188079Y-130058887D01*
X129180227Y-130036943D01*
X129174563Y-130014334D01*
X129171144Y-129991279D01*
X129170000Y-129968000D01*
X129170000Y-129493000D01*
X129171144Y-129469721D01*
X129174563Y-129446666D01*
X129180227Y-129424057D01*
X129188079Y-129402113D01*
X129198044Y-129381043D01*
X129210026Y-129361052D01*
X129223910Y-129342332D01*
X129239562Y-129325062D01*
X129256832Y-129309410D01*
X129275552Y-129295526D01*
X129295543Y-129283544D01*
X129316613Y-129273579D01*
X129338557Y-129265727D01*
X129361166Y-129260063D01*
X129384221Y-129256644D01*
X129407500Y-129255500D01*
X129982500Y-129255500D01*
X130005779Y-129256644D01*
X130005779Y-129256644D01*
G37*
D11*
X129695000Y-129730500D03*
G04 #@! TD*
D10*
G04 #@! TO.C,R8*
G36*
X131755779Y-131542644D02*
X131778834Y-131546063D01*
X131801443Y-131551727D01*
X131823387Y-131559579D01*
X131844457Y-131569544D01*
X131864448Y-131581526D01*
X131883168Y-131595410D01*
X131900438Y-131611062D01*
X131916090Y-131628332D01*
X131929974Y-131647052D01*
X131941956Y-131667043D01*
X131951921Y-131688113D01*
X131959773Y-131710057D01*
X131965437Y-131732666D01*
X131968856Y-131755721D01*
X131970000Y-131779000D01*
X131970000Y-132254000D01*
X131968856Y-132277279D01*
X131965437Y-132300334D01*
X131959773Y-132322943D01*
X131951921Y-132344887D01*
X131941956Y-132365957D01*
X131929974Y-132385948D01*
X131916090Y-132404668D01*
X131900438Y-132421938D01*
X131883168Y-132437590D01*
X131864448Y-132451474D01*
X131844457Y-132463456D01*
X131823387Y-132473421D01*
X131801443Y-132481273D01*
X131778834Y-132486937D01*
X131755779Y-132490356D01*
X131732500Y-132491500D01*
X131157500Y-132491500D01*
X131134221Y-132490356D01*
X131111166Y-132486937D01*
X131088557Y-132481273D01*
X131066613Y-132473421D01*
X131045543Y-132463456D01*
X131025552Y-132451474D01*
X131006832Y-132437590D01*
X130989562Y-132421938D01*
X130973910Y-132404668D01*
X130960026Y-132385948D01*
X130948044Y-132365957D01*
X130938079Y-132344887D01*
X130930227Y-132322943D01*
X130924563Y-132300334D01*
X130921144Y-132277279D01*
X130920000Y-132254000D01*
X130920000Y-131779000D01*
X130921144Y-131755721D01*
X130924563Y-131732666D01*
X130930227Y-131710057D01*
X130938079Y-131688113D01*
X130948044Y-131667043D01*
X130960026Y-131647052D01*
X130973910Y-131628332D01*
X130989562Y-131611062D01*
X131006832Y-131595410D01*
X131025552Y-131581526D01*
X131045543Y-131569544D01*
X131066613Y-131559579D01*
X131088557Y-131551727D01*
X131111166Y-131546063D01*
X131134221Y-131542644D01*
X131157500Y-131541500D01*
X131732500Y-131541500D01*
X131755779Y-131542644D01*
X131755779Y-131542644D01*
G37*
D11*
X131445000Y-132016500D03*
D10*
G36*
X130005779Y-131542644D02*
X130028834Y-131546063D01*
X130051443Y-131551727D01*
X130073387Y-131559579D01*
X130094457Y-131569544D01*
X130114448Y-131581526D01*
X130133168Y-131595410D01*
X130150438Y-131611062D01*
X130166090Y-131628332D01*
X130179974Y-131647052D01*
X130191956Y-131667043D01*
X130201921Y-131688113D01*
X130209773Y-131710057D01*
X130215437Y-131732666D01*
X130218856Y-131755721D01*
X130220000Y-131779000D01*
X130220000Y-132254000D01*
X130218856Y-132277279D01*
X130215437Y-132300334D01*
X130209773Y-132322943D01*
X130201921Y-132344887D01*
X130191956Y-132365957D01*
X130179974Y-132385948D01*
X130166090Y-132404668D01*
X130150438Y-132421938D01*
X130133168Y-132437590D01*
X130114448Y-132451474D01*
X130094457Y-132463456D01*
X130073387Y-132473421D01*
X130051443Y-132481273D01*
X130028834Y-132486937D01*
X130005779Y-132490356D01*
X129982500Y-132491500D01*
X129407500Y-132491500D01*
X129384221Y-132490356D01*
X129361166Y-132486937D01*
X129338557Y-132481273D01*
X129316613Y-132473421D01*
X129295543Y-132463456D01*
X129275552Y-132451474D01*
X129256832Y-132437590D01*
X129239562Y-132421938D01*
X129223910Y-132404668D01*
X129210026Y-132385948D01*
X129198044Y-132365957D01*
X129188079Y-132344887D01*
X129180227Y-132322943D01*
X129174563Y-132300334D01*
X129171144Y-132277279D01*
X129170000Y-132254000D01*
X129170000Y-131779000D01*
X129171144Y-131755721D01*
X129174563Y-131732666D01*
X129180227Y-131710057D01*
X129188079Y-131688113D01*
X129198044Y-131667043D01*
X129210026Y-131647052D01*
X129223910Y-131628332D01*
X129239562Y-131611062D01*
X129256832Y-131595410D01*
X129275552Y-131581526D01*
X129295543Y-131569544D01*
X129316613Y-131559579D01*
X129338557Y-131551727D01*
X129361166Y-131546063D01*
X129384221Y-131542644D01*
X129407500Y-131541500D01*
X129982500Y-131541500D01*
X130005779Y-131542644D01*
X130005779Y-131542644D01*
G37*
D11*
X129695000Y-132016500D03*
G04 #@! TD*
D10*
G04 #@! TO.C,R9*
G36*
X130005779Y-123922644D02*
X130028834Y-123926063D01*
X130051443Y-123931727D01*
X130073387Y-123939579D01*
X130094457Y-123949544D01*
X130114448Y-123961526D01*
X130133168Y-123975410D01*
X130150438Y-123991062D01*
X130166090Y-124008332D01*
X130179974Y-124027052D01*
X130191956Y-124047043D01*
X130201921Y-124068113D01*
X130209773Y-124090057D01*
X130215437Y-124112666D01*
X130218856Y-124135721D01*
X130220000Y-124159000D01*
X130220000Y-124634000D01*
X130218856Y-124657279D01*
X130215437Y-124680334D01*
X130209773Y-124702943D01*
X130201921Y-124724887D01*
X130191956Y-124745957D01*
X130179974Y-124765948D01*
X130166090Y-124784668D01*
X130150438Y-124801938D01*
X130133168Y-124817590D01*
X130114448Y-124831474D01*
X130094457Y-124843456D01*
X130073387Y-124853421D01*
X130051443Y-124861273D01*
X130028834Y-124866937D01*
X130005779Y-124870356D01*
X129982500Y-124871500D01*
X129407500Y-124871500D01*
X129384221Y-124870356D01*
X129361166Y-124866937D01*
X129338557Y-124861273D01*
X129316613Y-124853421D01*
X129295543Y-124843456D01*
X129275552Y-124831474D01*
X129256832Y-124817590D01*
X129239562Y-124801938D01*
X129223910Y-124784668D01*
X129210026Y-124765948D01*
X129198044Y-124745957D01*
X129188079Y-124724887D01*
X129180227Y-124702943D01*
X129174563Y-124680334D01*
X129171144Y-124657279D01*
X129170000Y-124634000D01*
X129170000Y-124159000D01*
X129171144Y-124135721D01*
X129174563Y-124112666D01*
X129180227Y-124090057D01*
X129188079Y-124068113D01*
X129198044Y-124047043D01*
X129210026Y-124027052D01*
X129223910Y-124008332D01*
X129239562Y-123991062D01*
X129256832Y-123975410D01*
X129275552Y-123961526D01*
X129295543Y-123949544D01*
X129316613Y-123939579D01*
X129338557Y-123931727D01*
X129361166Y-123926063D01*
X129384221Y-123922644D01*
X129407500Y-123921500D01*
X129982500Y-123921500D01*
X130005779Y-123922644D01*
X130005779Y-123922644D01*
G37*
D11*
X129695000Y-124396500D03*
D10*
G36*
X131755779Y-123922644D02*
X131778834Y-123926063D01*
X131801443Y-123931727D01*
X131823387Y-123939579D01*
X131844457Y-123949544D01*
X131864448Y-123961526D01*
X131883168Y-123975410D01*
X131900438Y-123991062D01*
X131916090Y-124008332D01*
X131929974Y-124027052D01*
X131941956Y-124047043D01*
X131951921Y-124068113D01*
X131959773Y-124090057D01*
X131965437Y-124112666D01*
X131968856Y-124135721D01*
X131970000Y-124159000D01*
X131970000Y-124634000D01*
X131968856Y-124657279D01*
X131965437Y-124680334D01*
X131959773Y-124702943D01*
X131951921Y-124724887D01*
X131941956Y-124745957D01*
X131929974Y-124765948D01*
X131916090Y-124784668D01*
X131900438Y-124801938D01*
X131883168Y-124817590D01*
X131864448Y-124831474D01*
X131844457Y-124843456D01*
X131823387Y-124853421D01*
X131801443Y-124861273D01*
X131778834Y-124866937D01*
X131755779Y-124870356D01*
X131732500Y-124871500D01*
X131157500Y-124871500D01*
X131134221Y-124870356D01*
X131111166Y-124866937D01*
X131088557Y-124861273D01*
X131066613Y-124853421D01*
X131045543Y-124843456D01*
X131025552Y-124831474D01*
X131006832Y-124817590D01*
X130989562Y-124801938D01*
X130973910Y-124784668D01*
X130960026Y-124765948D01*
X130948044Y-124745957D01*
X130938079Y-124724887D01*
X130930227Y-124702943D01*
X130924563Y-124680334D01*
X130921144Y-124657279D01*
X130920000Y-124634000D01*
X130920000Y-124159000D01*
X130921144Y-124135721D01*
X130924563Y-124112666D01*
X130930227Y-124090057D01*
X130938079Y-124068113D01*
X130948044Y-124047043D01*
X130960026Y-124027052D01*
X130973910Y-124008332D01*
X130989562Y-123991062D01*
X131006832Y-123975410D01*
X131025552Y-123961526D01*
X131045543Y-123949544D01*
X131066613Y-123939579D01*
X131088557Y-123931727D01*
X131111166Y-123926063D01*
X131134221Y-123922644D01*
X131157500Y-123921500D01*
X131732500Y-123921500D01*
X131755779Y-123922644D01*
X131755779Y-123922644D01*
G37*
D11*
X131445000Y-124396500D03*
G04 #@! TD*
D10*
G04 #@! TO.C,R10*
G36*
X131755779Y-125954644D02*
X131778834Y-125958063D01*
X131801443Y-125963727D01*
X131823387Y-125971579D01*
X131844457Y-125981544D01*
X131864448Y-125993526D01*
X131883168Y-126007410D01*
X131900438Y-126023062D01*
X131916090Y-126040332D01*
X131929974Y-126059052D01*
X131941956Y-126079043D01*
X131951921Y-126100113D01*
X131959773Y-126122057D01*
X131965437Y-126144666D01*
X131968856Y-126167721D01*
X131970000Y-126191000D01*
X131970000Y-126666000D01*
X131968856Y-126689279D01*
X131965437Y-126712334D01*
X131959773Y-126734943D01*
X131951921Y-126756887D01*
X131941956Y-126777957D01*
X131929974Y-126797948D01*
X131916090Y-126816668D01*
X131900438Y-126833938D01*
X131883168Y-126849590D01*
X131864448Y-126863474D01*
X131844457Y-126875456D01*
X131823387Y-126885421D01*
X131801443Y-126893273D01*
X131778834Y-126898937D01*
X131755779Y-126902356D01*
X131732500Y-126903500D01*
X131157500Y-126903500D01*
X131134221Y-126902356D01*
X131111166Y-126898937D01*
X131088557Y-126893273D01*
X131066613Y-126885421D01*
X131045543Y-126875456D01*
X131025552Y-126863474D01*
X131006832Y-126849590D01*
X130989562Y-126833938D01*
X130973910Y-126816668D01*
X130960026Y-126797948D01*
X130948044Y-126777957D01*
X130938079Y-126756887D01*
X130930227Y-126734943D01*
X130924563Y-126712334D01*
X130921144Y-126689279D01*
X130920000Y-126666000D01*
X130920000Y-126191000D01*
X130921144Y-126167721D01*
X130924563Y-126144666D01*
X130930227Y-126122057D01*
X130938079Y-126100113D01*
X130948044Y-126079043D01*
X130960026Y-126059052D01*
X130973910Y-126040332D01*
X130989562Y-126023062D01*
X131006832Y-126007410D01*
X131025552Y-125993526D01*
X131045543Y-125981544D01*
X131066613Y-125971579D01*
X131088557Y-125963727D01*
X131111166Y-125958063D01*
X131134221Y-125954644D01*
X131157500Y-125953500D01*
X131732500Y-125953500D01*
X131755779Y-125954644D01*
X131755779Y-125954644D01*
G37*
D11*
X131445000Y-126428500D03*
D10*
G36*
X130005779Y-125954644D02*
X130028834Y-125958063D01*
X130051443Y-125963727D01*
X130073387Y-125971579D01*
X130094457Y-125981544D01*
X130114448Y-125993526D01*
X130133168Y-126007410D01*
X130150438Y-126023062D01*
X130166090Y-126040332D01*
X130179974Y-126059052D01*
X130191956Y-126079043D01*
X130201921Y-126100113D01*
X130209773Y-126122057D01*
X130215437Y-126144666D01*
X130218856Y-126167721D01*
X130220000Y-126191000D01*
X130220000Y-126666000D01*
X130218856Y-126689279D01*
X130215437Y-126712334D01*
X130209773Y-126734943D01*
X130201921Y-126756887D01*
X130191956Y-126777957D01*
X130179974Y-126797948D01*
X130166090Y-126816668D01*
X130150438Y-126833938D01*
X130133168Y-126849590D01*
X130114448Y-126863474D01*
X130094457Y-126875456D01*
X130073387Y-126885421D01*
X130051443Y-126893273D01*
X130028834Y-126898937D01*
X130005779Y-126902356D01*
X129982500Y-126903500D01*
X129407500Y-126903500D01*
X129384221Y-126902356D01*
X129361166Y-126898937D01*
X129338557Y-126893273D01*
X129316613Y-126885421D01*
X129295543Y-126875456D01*
X129275552Y-126863474D01*
X129256832Y-126849590D01*
X129239562Y-126833938D01*
X129223910Y-126816668D01*
X129210026Y-126797948D01*
X129198044Y-126777957D01*
X129188079Y-126756887D01*
X129180227Y-126734943D01*
X129174563Y-126712334D01*
X129171144Y-126689279D01*
X129170000Y-126666000D01*
X129170000Y-126191000D01*
X129171144Y-126167721D01*
X129174563Y-126144666D01*
X129180227Y-126122057D01*
X129188079Y-126100113D01*
X129198044Y-126079043D01*
X129210026Y-126059052D01*
X129223910Y-126040332D01*
X129239562Y-126023062D01*
X129256832Y-126007410D01*
X129275552Y-125993526D01*
X129295543Y-125981544D01*
X129316613Y-125971579D01*
X129338557Y-125963727D01*
X129361166Y-125958063D01*
X129384221Y-125954644D01*
X129407500Y-125953500D01*
X129982500Y-125953500D01*
X130005779Y-125954644D01*
X130005779Y-125954644D01*
G37*
D11*
X129695000Y-126428500D03*
G04 #@! TD*
D12*
G04 #@! TO.C,U8*
X107505500Y-109758500D03*
X108775500Y-109758500D03*
X110045500Y-109758500D03*
X111315500Y-109758500D03*
X112585500Y-109758500D03*
X113855500Y-109758500D03*
X115125500Y-109758500D03*
X115125500Y-115158500D03*
X113855500Y-115158500D03*
X112585500Y-115158500D03*
X111315500Y-115158500D03*
X110045500Y-115158500D03*
X108775500Y-115158500D03*
X107505500Y-115158500D03*
G04 #@! TD*
D13*
G04 #@! TO.C,U1*
X148971000Y-125540500D03*
X150241000Y-125540500D03*
X151511000Y-125540500D03*
X152781000Y-125540500D03*
X154051000Y-125540500D03*
X155321000Y-125540500D03*
X156591000Y-125540500D03*
X157861000Y-125540500D03*
X159131000Y-125540500D03*
X159131000Y-116140500D03*
X157861000Y-116140500D03*
X156591000Y-116140500D03*
X155321000Y-116140500D03*
X154051000Y-116140500D03*
X152781000Y-116140500D03*
X151511000Y-116140500D03*
X150241000Y-116140500D03*
X148971000Y-116140500D03*
G04 #@! TD*
M02*
