G04 #@! TF.GenerationSoftware,KiCad,Pcbnew,(5.1.5)-3*
G04 #@! TF.CreationDate,2020-04-29T17:43:41-04:00*
G04 #@! TF.ProjectId,ufcs,75666373-2e6b-4696-9361-645f70636258,rev?*
G04 #@! TF.SameCoordinates,Original*
G04 #@! TF.FileFunction,Soldermask,Bot*
G04 #@! TF.FilePolarity,Negative*
%FSLAX46Y46*%
G04 Gerber Fmt 4.6, Leading zero omitted, Abs format (unit mm)*
G04 Created by KiCad (PCBNEW (5.1.5)-3) date 2020-04-29 17:43:41*
%MOMM*%
%LPD*%
G04 APERTURE LIST*
%ADD10C,0.100000*%
G04 APERTURE END LIST*
D10*
G36*
X196695295Y-140809509D02*
G01*
X196695298Y-140809510D01*
X196695297Y-140809510D01*
X197074197Y-140966455D01*
X197415198Y-141194305D01*
X197705195Y-141484302D01*
X197933045Y-141825303D01*
X198063063Y-142139195D01*
X198089991Y-142204205D01*
X198170000Y-142606439D01*
X198170000Y-143016561D01*
X198089991Y-143418795D01*
X198089990Y-143418797D01*
X197933045Y-143797697D01*
X197705195Y-144138698D01*
X197415198Y-144428695D01*
X197074197Y-144656545D01*
X196760305Y-144786563D01*
X196695295Y-144813491D01*
X196293061Y-144893500D01*
X195882939Y-144893500D01*
X195480705Y-144813491D01*
X195415695Y-144786563D01*
X195101803Y-144656545D01*
X194760802Y-144428695D01*
X194470805Y-144138698D01*
X194242955Y-143797697D01*
X194086010Y-143418797D01*
X194086009Y-143418795D01*
X194006000Y-143016561D01*
X194006000Y-142606439D01*
X194086009Y-142204205D01*
X194112937Y-142139195D01*
X194242955Y-141825303D01*
X194470805Y-141484302D01*
X194760802Y-141194305D01*
X195101803Y-140966455D01*
X195480703Y-140809510D01*
X195480702Y-140809510D01*
X195480705Y-140809509D01*
X195882939Y-140729500D01*
X196293061Y-140729500D01*
X196695295Y-140809509D01*
G37*
G36*
X90650295Y-140809509D02*
G01*
X90650298Y-140809510D01*
X90650297Y-140809510D01*
X91029197Y-140966455D01*
X91370198Y-141194305D01*
X91660195Y-141484302D01*
X91888045Y-141825303D01*
X92018063Y-142139195D01*
X92044991Y-142204205D01*
X92125000Y-142606439D01*
X92125000Y-143016561D01*
X92044991Y-143418795D01*
X92044990Y-143418797D01*
X91888045Y-143797697D01*
X91660195Y-144138698D01*
X91370198Y-144428695D01*
X91029197Y-144656545D01*
X90715305Y-144786563D01*
X90650295Y-144813491D01*
X90248061Y-144893500D01*
X89837939Y-144893500D01*
X89435705Y-144813491D01*
X89370695Y-144786563D01*
X89056803Y-144656545D01*
X88715802Y-144428695D01*
X88425805Y-144138698D01*
X88197955Y-143797697D01*
X88041010Y-143418797D01*
X88041009Y-143418795D01*
X87961000Y-143016561D01*
X87961000Y-142606439D01*
X88041009Y-142204205D01*
X88067937Y-142139195D01*
X88197955Y-141825303D01*
X88425805Y-141484302D01*
X88715802Y-141194305D01*
X89056803Y-140966455D01*
X89435703Y-140809510D01*
X89435702Y-140809510D01*
X89435705Y-140809509D01*
X89837939Y-140729500D01*
X90248061Y-140729500D01*
X90650295Y-140809509D01*
G37*
G36*
X138507561Y-139775557D02*
G01*
X138565520Y-139787086D01*
X138729310Y-139854930D01*
X138876717Y-139953424D01*
X139002076Y-140078783D01*
X139100570Y-140226190D01*
X139168414Y-140389980D01*
X139203000Y-140563858D01*
X139203000Y-140741142D01*
X139168414Y-140915020D01*
X139100570Y-141078810D01*
X139002076Y-141226217D01*
X138876717Y-141351576D01*
X138729310Y-141450070D01*
X138565520Y-141517914D01*
X138507561Y-141529443D01*
X138391644Y-141552500D01*
X138214356Y-141552500D01*
X138098439Y-141529443D01*
X138040480Y-141517914D01*
X137876690Y-141450070D01*
X137729283Y-141351576D01*
X137603924Y-141226217D01*
X137505430Y-141078810D01*
X137437586Y-140915020D01*
X137403000Y-140741142D01*
X137403000Y-140563858D01*
X137437586Y-140389980D01*
X137505430Y-140226190D01*
X137603924Y-140078783D01*
X137729283Y-139953424D01*
X137876690Y-139854930D01*
X138040480Y-139787086D01*
X138098439Y-139775557D01*
X138214356Y-139752500D01*
X138391644Y-139752500D01*
X138507561Y-139775557D01*
G37*
G36*
X136663000Y-141552500D02*
G01*
X134863000Y-141552500D01*
X134863000Y-139752500D01*
X136663000Y-139752500D01*
X136663000Y-141552500D01*
G37*
G36*
X143587561Y-139775557D02*
G01*
X143645520Y-139787086D01*
X143809310Y-139854930D01*
X143956717Y-139953424D01*
X144082076Y-140078783D01*
X144180570Y-140226190D01*
X144248414Y-140389980D01*
X144283000Y-140563858D01*
X144283000Y-140741142D01*
X144248414Y-140915020D01*
X144180570Y-141078810D01*
X144082076Y-141226217D01*
X143956717Y-141351576D01*
X143809310Y-141450070D01*
X143645520Y-141517914D01*
X143587561Y-141529443D01*
X143471644Y-141552500D01*
X143294356Y-141552500D01*
X143178439Y-141529443D01*
X143120480Y-141517914D01*
X142956690Y-141450070D01*
X142809283Y-141351576D01*
X142683924Y-141226217D01*
X142585430Y-141078810D01*
X142517586Y-140915020D01*
X142483000Y-140741142D01*
X142483000Y-140563858D01*
X142517586Y-140389980D01*
X142585430Y-140226190D01*
X142683924Y-140078783D01*
X142809283Y-139953424D01*
X142956690Y-139854930D01*
X143120480Y-139787086D01*
X143178439Y-139775557D01*
X143294356Y-139752500D01*
X143471644Y-139752500D01*
X143587561Y-139775557D01*
G37*
G36*
X141047561Y-139775557D02*
G01*
X141105520Y-139787086D01*
X141269310Y-139854930D01*
X141416717Y-139953424D01*
X141542076Y-140078783D01*
X141640570Y-140226190D01*
X141708414Y-140389980D01*
X141743000Y-140563858D01*
X141743000Y-140741142D01*
X141708414Y-140915020D01*
X141640570Y-141078810D01*
X141542076Y-141226217D01*
X141416717Y-141351576D01*
X141269310Y-141450070D01*
X141105520Y-141517914D01*
X141047561Y-141529443D01*
X140931644Y-141552500D01*
X140754356Y-141552500D01*
X140638439Y-141529443D01*
X140580480Y-141517914D01*
X140416690Y-141450070D01*
X140269283Y-141351576D01*
X140143924Y-141226217D01*
X140045430Y-141078810D01*
X139977586Y-140915020D01*
X139943000Y-140741142D01*
X139943000Y-140563858D01*
X139977586Y-140389980D01*
X140045430Y-140226190D01*
X140143924Y-140078783D01*
X140269283Y-139953424D01*
X140416690Y-139854930D01*
X140580480Y-139787086D01*
X140638439Y-139775557D01*
X140754356Y-139752500D01*
X140931644Y-139752500D01*
X141047561Y-139775557D01*
G37*
G36*
X151821207Y-137077148D02*
G01*
X151972950Y-137123178D01*
X152112797Y-137197928D01*
X152235375Y-137298525D01*
X152335972Y-137421102D01*
X152410722Y-137560949D01*
X152456752Y-137712692D01*
X152468400Y-137830954D01*
X152468400Y-139410046D01*
X152456752Y-139528308D01*
X152410722Y-139680051D01*
X152335972Y-139819898D01*
X152235375Y-139942475D01*
X152112798Y-140043072D01*
X151972951Y-140117822D01*
X151821208Y-140163852D01*
X151663400Y-140179395D01*
X151505593Y-140163852D01*
X151353850Y-140117822D01*
X151214003Y-140043072D01*
X151091426Y-139942475D01*
X150990829Y-139819898D01*
X150916079Y-139680051D01*
X150870049Y-139528308D01*
X150858401Y-139410046D01*
X150858400Y-137830955D01*
X150870048Y-137712693D01*
X150916078Y-137560950D01*
X150990828Y-137421103D01*
X151091425Y-137298525D01*
X151214002Y-137197928D01*
X151353849Y-137123178D01*
X151505592Y-137077148D01*
X151663400Y-137061605D01*
X151821207Y-137077148D01*
G37*
G36*
X149281207Y-137077148D02*
G01*
X149432950Y-137123178D01*
X149572797Y-137197928D01*
X149695375Y-137298525D01*
X149795972Y-137421102D01*
X149870722Y-137560949D01*
X149916752Y-137712692D01*
X149928400Y-137830954D01*
X149928400Y-139410046D01*
X149916752Y-139528308D01*
X149870722Y-139680051D01*
X149795972Y-139819898D01*
X149695375Y-139942475D01*
X149572798Y-140043072D01*
X149432951Y-140117822D01*
X149281208Y-140163852D01*
X149123400Y-140179395D01*
X148965593Y-140163852D01*
X148813850Y-140117822D01*
X148674003Y-140043072D01*
X148551426Y-139942475D01*
X148450829Y-139819898D01*
X148376079Y-139680051D01*
X148330049Y-139528308D01*
X148318401Y-139410046D01*
X148318400Y-137830955D01*
X148330048Y-137712693D01*
X148376078Y-137560950D01*
X148450828Y-137421103D01*
X148551425Y-137298525D01*
X148674002Y-137197928D01*
X148813849Y-137123178D01*
X148965592Y-137077148D01*
X149123400Y-137061605D01*
X149281207Y-137077148D01*
G37*
G36*
X177186817Y-138099603D02*
G01*
X177304487Y-138123009D01*
X177470752Y-138191878D01*
X177620386Y-138291860D01*
X177747640Y-138419114D01*
X177847622Y-138568748D01*
X177916491Y-138735013D01*
X177951600Y-138911518D01*
X177951600Y-139091482D01*
X177916491Y-139267987D01*
X177847622Y-139434252D01*
X177747640Y-139583886D01*
X177620386Y-139711140D01*
X177470752Y-139811122D01*
X177304487Y-139879991D01*
X177186817Y-139903397D01*
X177127983Y-139915100D01*
X176948017Y-139915100D01*
X176889183Y-139903397D01*
X176771513Y-139879991D01*
X176605248Y-139811122D01*
X176455614Y-139711140D01*
X176328360Y-139583886D01*
X176228378Y-139434252D01*
X176159509Y-139267987D01*
X176124400Y-139091482D01*
X176124400Y-138911518D01*
X176159509Y-138735013D01*
X176228378Y-138568748D01*
X176328360Y-138419114D01*
X176455614Y-138291860D01*
X176605248Y-138191878D01*
X176771513Y-138123009D01*
X176889183Y-138099603D01*
X176948017Y-138087900D01*
X177127983Y-138087900D01*
X177186817Y-138099603D01*
G37*
G36*
X179726817Y-138099603D02*
G01*
X179844487Y-138123009D01*
X180010752Y-138191878D01*
X180160386Y-138291860D01*
X180287640Y-138419114D01*
X180387622Y-138568748D01*
X180456491Y-138735013D01*
X180491600Y-138911518D01*
X180491600Y-139091482D01*
X180456491Y-139267987D01*
X180387622Y-139434252D01*
X180287640Y-139583886D01*
X180160386Y-139711140D01*
X180010752Y-139811122D01*
X179844487Y-139879991D01*
X179726817Y-139903397D01*
X179667983Y-139915100D01*
X179488017Y-139915100D01*
X179429183Y-139903397D01*
X179311513Y-139879991D01*
X179145248Y-139811122D01*
X178995614Y-139711140D01*
X178868360Y-139583886D01*
X178768378Y-139434252D01*
X178699509Y-139267987D01*
X178664400Y-139091482D01*
X178664400Y-138911518D01*
X178699509Y-138735013D01*
X178768378Y-138568748D01*
X178868360Y-138419114D01*
X178995614Y-138291860D01*
X179145248Y-138191878D01*
X179311513Y-138123009D01*
X179429183Y-138099603D01*
X179488017Y-138087900D01*
X179667983Y-138087900D01*
X179726817Y-138099603D01*
G37*
G36*
X182266817Y-138099603D02*
G01*
X182384487Y-138123009D01*
X182550752Y-138191878D01*
X182700386Y-138291860D01*
X182827640Y-138419114D01*
X182927622Y-138568748D01*
X182996491Y-138735013D01*
X183031600Y-138911518D01*
X183031600Y-139091482D01*
X182996491Y-139267987D01*
X182927622Y-139434252D01*
X182827640Y-139583886D01*
X182700386Y-139711140D01*
X182550752Y-139811122D01*
X182384487Y-139879991D01*
X182266817Y-139903397D01*
X182207983Y-139915100D01*
X182028017Y-139915100D01*
X181969183Y-139903397D01*
X181851513Y-139879991D01*
X181685248Y-139811122D01*
X181535614Y-139711140D01*
X181408360Y-139583886D01*
X181308378Y-139434252D01*
X181239509Y-139267987D01*
X181204400Y-139091482D01*
X181204400Y-138911518D01*
X181239509Y-138735013D01*
X181308378Y-138568748D01*
X181408360Y-138419114D01*
X181535614Y-138291860D01*
X181685248Y-138191878D01*
X181851513Y-138123009D01*
X181969183Y-138099603D01*
X182028017Y-138087900D01*
X182207983Y-138087900D01*
X182266817Y-138099603D01*
G37*
G36*
X184806817Y-138099603D02*
G01*
X184924487Y-138123009D01*
X185090752Y-138191878D01*
X185240386Y-138291860D01*
X185367640Y-138419114D01*
X185467622Y-138568748D01*
X185536491Y-138735013D01*
X185571600Y-138911518D01*
X185571600Y-139091482D01*
X185536491Y-139267987D01*
X185467622Y-139434252D01*
X185367640Y-139583886D01*
X185240386Y-139711140D01*
X185090752Y-139811122D01*
X184924487Y-139879991D01*
X184806817Y-139903397D01*
X184747983Y-139915100D01*
X184568017Y-139915100D01*
X184509183Y-139903397D01*
X184391513Y-139879991D01*
X184225248Y-139811122D01*
X184075614Y-139711140D01*
X183948360Y-139583886D01*
X183848378Y-139434252D01*
X183779509Y-139267987D01*
X183744400Y-139091482D01*
X183744400Y-138911518D01*
X183779509Y-138735013D01*
X183848378Y-138568748D01*
X183948360Y-138419114D01*
X184075614Y-138291860D01*
X184225248Y-138191878D01*
X184391513Y-138123009D01*
X184509183Y-138099603D01*
X184568017Y-138087900D01*
X184747983Y-138087900D01*
X184806817Y-138099603D01*
G37*
G36*
X187346817Y-138099603D02*
G01*
X187464487Y-138123009D01*
X187630752Y-138191878D01*
X187780386Y-138291860D01*
X187907640Y-138419114D01*
X188007622Y-138568748D01*
X188076491Y-138735013D01*
X188111600Y-138911518D01*
X188111600Y-139091482D01*
X188076491Y-139267987D01*
X188007622Y-139434252D01*
X187907640Y-139583886D01*
X187780386Y-139711140D01*
X187630752Y-139811122D01*
X187464487Y-139879991D01*
X187346817Y-139903397D01*
X187287983Y-139915100D01*
X187108017Y-139915100D01*
X187049183Y-139903397D01*
X186931513Y-139879991D01*
X186765248Y-139811122D01*
X186615614Y-139711140D01*
X186488360Y-139583886D01*
X186388378Y-139434252D01*
X186319509Y-139267987D01*
X186284400Y-139091482D01*
X186284400Y-138911518D01*
X186319509Y-138735013D01*
X186388378Y-138568748D01*
X186488360Y-138419114D01*
X186615614Y-138291860D01*
X186765248Y-138191878D01*
X186931513Y-138123009D01*
X187049183Y-138099603D01*
X187108017Y-138087900D01*
X187287983Y-138087900D01*
X187346817Y-138099603D01*
G37*
G36*
X179726817Y-135559603D02*
G01*
X179844487Y-135583009D01*
X180010752Y-135651878D01*
X180160386Y-135751860D01*
X180287640Y-135879114D01*
X180387622Y-136028748D01*
X180456491Y-136195013D01*
X180491600Y-136371518D01*
X180491600Y-136551482D01*
X180456491Y-136727987D01*
X180387622Y-136894252D01*
X180287640Y-137043886D01*
X180160386Y-137171140D01*
X180010752Y-137271122D01*
X179844487Y-137339991D01*
X179726817Y-137363397D01*
X179667983Y-137375100D01*
X179488017Y-137375100D01*
X179429183Y-137363397D01*
X179311513Y-137339991D01*
X179145248Y-137271122D01*
X178995614Y-137171140D01*
X178868360Y-137043886D01*
X178768378Y-136894252D01*
X178699509Y-136727987D01*
X178664400Y-136551482D01*
X178664400Y-136371518D01*
X178699509Y-136195013D01*
X178768378Y-136028748D01*
X178868360Y-135879114D01*
X178995614Y-135751860D01*
X179145248Y-135651878D01*
X179311513Y-135583009D01*
X179429183Y-135559603D01*
X179488017Y-135547900D01*
X179667983Y-135547900D01*
X179726817Y-135559603D01*
G37*
G36*
X177186817Y-135559603D02*
G01*
X177304487Y-135583009D01*
X177470752Y-135651878D01*
X177620386Y-135751860D01*
X177747640Y-135879114D01*
X177847622Y-136028748D01*
X177916491Y-136195013D01*
X177951600Y-136371518D01*
X177951600Y-136551482D01*
X177916491Y-136727987D01*
X177847622Y-136894252D01*
X177747640Y-137043886D01*
X177620386Y-137171140D01*
X177470752Y-137271122D01*
X177304487Y-137339991D01*
X177186817Y-137363397D01*
X177127983Y-137375100D01*
X176948017Y-137375100D01*
X176889183Y-137363397D01*
X176771513Y-137339991D01*
X176605248Y-137271122D01*
X176455614Y-137171140D01*
X176328360Y-137043886D01*
X176228378Y-136894252D01*
X176159509Y-136727987D01*
X176124400Y-136551482D01*
X176124400Y-136371518D01*
X176159509Y-136195013D01*
X176228378Y-136028748D01*
X176328360Y-135879114D01*
X176455614Y-135751860D01*
X176605248Y-135651878D01*
X176771513Y-135583009D01*
X176889183Y-135559603D01*
X176948017Y-135547900D01*
X177127983Y-135547900D01*
X177186817Y-135559603D01*
G37*
G36*
X184806817Y-135559603D02*
G01*
X184924487Y-135583009D01*
X185090752Y-135651878D01*
X185240386Y-135751860D01*
X185367640Y-135879114D01*
X185467622Y-136028748D01*
X185536491Y-136195013D01*
X185571600Y-136371518D01*
X185571600Y-136551482D01*
X185536491Y-136727987D01*
X185467622Y-136894252D01*
X185367640Y-137043886D01*
X185240386Y-137171140D01*
X185090752Y-137271122D01*
X184924487Y-137339991D01*
X184806817Y-137363397D01*
X184747983Y-137375100D01*
X184568017Y-137375100D01*
X184509183Y-137363397D01*
X184391513Y-137339991D01*
X184225248Y-137271122D01*
X184075614Y-137171140D01*
X183948360Y-137043886D01*
X183848378Y-136894252D01*
X183779509Y-136727987D01*
X183744400Y-136551482D01*
X183744400Y-136371518D01*
X183779509Y-136195013D01*
X183848378Y-136028748D01*
X183948360Y-135879114D01*
X184075614Y-135751860D01*
X184225248Y-135651878D01*
X184391513Y-135583009D01*
X184509183Y-135559603D01*
X184568017Y-135547900D01*
X184747983Y-135547900D01*
X184806817Y-135559603D01*
G37*
G36*
X188111600Y-137375100D02*
G01*
X186284400Y-137375100D01*
X186284400Y-135547900D01*
X188111600Y-135547900D01*
X188111600Y-137375100D01*
G37*
G36*
X182266817Y-135559603D02*
G01*
X182384487Y-135583009D01*
X182550752Y-135651878D01*
X182700386Y-135751860D01*
X182827640Y-135879114D01*
X182927622Y-136028748D01*
X182996491Y-136195013D01*
X183031600Y-136371518D01*
X183031600Y-136551482D01*
X182996491Y-136727987D01*
X182927622Y-136894252D01*
X182827640Y-137043886D01*
X182700386Y-137171140D01*
X182550752Y-137271122D01*
X182384487Y-137339991D01*
X182266817Y-137363397D01*
X182207983Y-137375100D01*
X182028017Y-137375100D01*
X181969183Y-137363397D01*
X181851513Y-137339991D01*
X181685248Y-137271122D01*
X181535614Y-137171140D01*
X181408360Y-137043886D01*
X181308378Y-136894252D01*
X181239509Y-136727987D01*
X181204400Y-136551482D01*
X181204400Y-136371518D01*
X181239509Y-136195013D01*
X181308378Y-136028748D01*
X181408360Y-135879114D01*
X181535614Y-135751860D01*
X181685248Y-135651878D01*
X181851513Y-135583009D01*
X181969183Y-135559603D01*
X182028017Y-135547900D01*
X182207983Y-135547900D01*
X182266817Y-135559603D01*
G37*
G36*
X95600422Y-133280905D02*
G01*
X95722948Y-133318073D01*
X95835868Y-133378430D01*
X95934843Y-133459657D01*
X96016070Y-133558632D01*
X96076427Y-133671552D01*
X96113595Y-133794078D01*
X96126145Y-133921500D01*
X96113595Y-134048922D01*
X96076427Y-134171448D01*
X96016070Y-134284368D01*
X95934843Y-134383343D01*
X95835868Y-134464570D01*
X95722948Y-134524927D01*
X95600422Y-134562095D01*
X95504932Y-134571500D01*
X94641068Y-134571500D01*
X94545578Y-134562095D01*
X94423052Y-134524927D01*
X94310132Y-134464570D01*
X94211157Y-134383343D01*
X94129930Y-134284368D01*
X94069573Y-134171448D01*
X94032405Y-134048922D01*
X94019855Y-133921500D01*
X94032405Y-133794078D01*
X94069573Y-133671552D01*
X94129930Y-133558632D01*
X94211157Y-133459657D01*
X94310132Y-133378430D01*
X94423052Y-133318073D01*
X94545578Y-133280905D01*
X94641068Y-133271500D01*
X95504932Y-133271500D01*
X95600422Y-133280905D01*
G37*
G36*
X98140422Y-133280905D02*
G01*
X98262948Y-133318073D01*
X98375868Y-133378430D01*
X98474843Y-133459657D01*
X98556070Y-133558632D01*
X98616427Y-133671552D01*
X98653595Y-133794078D01*
X98666145Y-133921500D01*
X98653595Y-134048922D01*
X98616427Y-134171448D01*
X98556070Y-134284368D01*
X98474843Y-134383343D01*
X98375868Y-134464570D01*
X98262948Y-134524927D01*
X98140422Y-134562095D01*
X98044932Y-134571500D01*
X97181068Y-134571500D01*
X97085578Y-134562095D01*
X96963052Y-134524927D01*
X96850132Y-134464570D01*
X96751157Y-134383343D01*
X96669930Y-134284368D01*
X96609573Y-134171448D01*
X96572405Y-134048922D01*
X96559855Y-133921500D01*
X96572405Y-133794078D01*
X96609573Y-133671552D01*
X96669930Y-133558632D01*
X96751157Y-133459657D01*
X96850132Y-133378430D01*
X96963052Y-133318073D01*
X97085578Y-133280905D01*
X97181068Y-133271500D01*
X98044932Y-133271500D01*
X98140422Y-133280905D01*
G37*
G36*
X123590422Y-133280905D02*
G01*
X123712948Y-133318073D01*
X123825868Y-133378430D01*
X123924843Y-133459657D01*
X124006070Y-133558632D01*
X124066427Y-133671552D01*
X124103595Y-133794078D01*
X124116145Y-133921500D01*
X124103595Y-134048922D01*
X124066427Y-134171448D01*
X124006070Y-134284368D01*
X123924843Y-134383343D01*
X123825868Y-134464570D01*
X123712948Y-134524927D01*
X123590422Y-134562095D01*
X123494932Y-134571500D01*
X122631068Y-134571500D01*
X122535578Y-134562095D01*
X122413052Y-134524927D01*
X122300132Y-134464570D01*
X122201157Y-134383343D01*
X122119930Y-134284368D01*
X122059573Y-134171448D01*
X122022405Y-134048922D01*
X122009855Y-133921500D01*
X122022405Y-133794078D01*
X122059573Y-133671552D01*
X122119930Y-133558632D01*
X122201157Y-133459657D01*
X122300132Y-133378430D01*
X122413052Y-133318073D01*
X122535578Y-133280905D01*
X122631068Y-133271500D01*
X123494932Y-133271500D01*
X123590422Y-133280905D01*
G37*
G36*
X126180422Y-133280905D02*
G01*
X126302948Y-133318073D01*
X126415868Y-133378430D01*
X126514843Y-133459657D01*
X126596070Y-133558632D01*
X126656427Y-133671552D01*
X126693595Y-133794078D01*
X126706145Y-133921500D01*
X126693595Y-134048922D01*
X126656427Y-134171448D01*
X126596070Y-134284368D01*
X126514843Y-134383343D01*
X126415868Y-134464570D01*
X126302948Y-134524927D01*
X126180422Y-134562095D01*
X126084932Y-134571500D01*
X125221068Y-134571500D01*
X125125578Y-134562095D01*
X125003052Y-134524927D01*
X124890132Y-134464570D01*
X124791157Y-134383343D01*
X124709930Y-134284368D01*
X124649573Y-134171448D01*
X124612405Y-134048922D01*
X124599855Y-133921500D01*
X124612405Y-133794078D01*
X124649573Y-133671552D01*
X124709930Y-133558632D01*
X124791157Y-133459657D01*
X124890132Y-133378430D01*
X125003052Y-133318073D01*
X125125578Y-133280905D01*
X125221068Y-133271500D01*
X126084932Y-133271500D01*
X126180422Y-133280905D01*
G37*
G36*
X151739785Y-133274300D02*
G01*
X151784292Y-133287802D01*
X151825316Y-133309729D01*
X151861266Y-133339234D01*
X151890771Y-133375184D01*
X151912698Y-133416208D01*
X151926200Y-133460715D01*
X151931000Y-133509454D01*
X151931000Y-134079546D01*
X151926200Y-134128285D01*
X151912698Y-134172792D01*
X151890771Y-134213816D01*
X151861266Y-134249766D01*
X151825316Y-134279271D01*
X151784292Y-134301198D01*
X151739785Y-134314700D01*
X151691046Y-134319500D01*
X151020954Y-134319500D01*
X150972215Y-134314700D01*
X150927708Y-134301198D01*
X150886684Y-134279271D01*
X150850734Y-134249766D01*
X150821229Y-134213816D01*
X150799302Y-134172792D01*
X150785800Y-134128285D01*
X150781000Y-134079546D01*
X150781000Y-133509454D01*
X150785800Y-133460715D01*
X150799302Y-133416208D01*
X150821229Y-133375184D01*
X150850734Y-133339234D01*
X150886684Y-133309729D01*
X150927708Y-133287802D01*
X150972215Y-133274300D01*
X151020954Y-133269500D01*
X151691046Y-133269500D01*
X151739785Y-133274300D01*
G37*
G36*
X149989785Y-133274300D02*
G01*
X150034292Y-133287802D01*
X150075316Y-133309729D01*
X150111266Y-133339234D01*
X150140771Y-133375184D01*
X150162698Y-133416208D01*
X150176200Y-133460715D01*
X150181000Y-133509454D01*
X150181000Y-134079546D01*
X150176200Y-134128285D01*
X150162698Y-134172792D01*
X150140771Y-134213816D01*
X150111266Y-134249766D01*
X150075316Y-134279271D01*
X150034292Y-134301198D01*
X149989785Y-134314700D01*
X149941046Y-134319500D01*
X149270954Y-134319500D01*
X149222215Y-134314700D01*
X149177708Y-134301198D01*
X149136684Y-134279271D01*
X149100734Y-134249766D01*
X149071229Y-134213816D01*
X149049302Y-134172792D01*
X149035800Y-134128285D01*
X149031000Y-134079546D01*
X149031000Y-133509454D01*
X149035800Y-133460715D01*
X149049302Y-133416208D01*
X149071229Y-133375184D01*
X149100734Y-133339234D01*
X149136684Y-133309729D01*
X149177708Y-133287802D01*
X149222215Y-133274300D01*
X149270954Y-133269500D01*
X149941046Y-133269500D01*
X149989785Y-133274300D01*
G37*
G36*
X130078785Y-131496300D02*
G01*
X130123292Y-131509802D01*
X130164316Y-131531729D01*
X130200266Y-131561234D01*
X130229771Y-131597184D01*
X130251698Y-131638208D01*
X130265200Y-131682715D01*
X130270000Y-131731454D01*
X130270000Y-132301546D01*
X130265200Y-132350285D01*
X130251698Y-132394792D01*
X130229771Y-132435816D01*
X130200266Y-132471766D01*
X130164316Y-132501271D01*
X130123292Y-132523198D01*
X130078785Y-132536700D01*
X130030046Y-132541500D01*
X129359954Y-132541500D01*
X129311215Y-132536700D01*
X129266708Y-132523198D01*
X129225684Y-132501271D01*
X129189734Y-132471766D01*
X129160229Y-132435816D01*
X129138302Y-132394792D01*
X129124800Y-132350285D01*
X129120000Y-132301546D01*
X129120000Y-131731454D01*
X129124800Y-131682715D01*
X129138302Y-131638208D01*
X129160229Y-131597184D01*
X129189734Y-131561234D01*
X129225684Y-131531729D01*
X129266708Y-131509802D01*
X129311215Y-131496300D01*
X129359954Y-131491500D01*
X130030046Y-131491500D01*
X130078785Y-131496300D01*
G37*
G36*
X131828785Y-131496300D02*
G01*
X131873292Y-131509802D01*
X131914316Y-131531729D01*
X131950266Y-131561234D01*
X131979771Y-131597184D01*
X132001698Y-131638208D01*
X132015200Y-131682715D01*
X132020000Y-131731454D01*
X132020000Y-132301546D01*
X132015200Y-132350285D01*
X132001698Y-132394792D01*
X131979771Y-132435816D01*
X131950266Y-132471766D01*
X131914316Y-132501271D01*
X131873292Y-132523198D01*
X131828785Y-132536700D01*
X131780046Y-132541500D01*
X131109954Y-132541500D01*
X131061215Y-132536700D01*
X131016708Y-132523198D01*
X130975684Y-132501271D01*
X130939734Y-132471766D01*
X130910229Y-132435816D01*
X130888302Y-132394792D01*
X130874800Y-132350285D01*
X130870000Y-132301546D01*
X130870000Y-131731454D01*
X130874800Y-131682715D01*
X130888302Y-131638208D01*
X130910229Y-131597184D01*
X130939734Y-131561234D01*
X130975684Y-131531729D01*
X131016708Y-131509802D01*
X131061215Y-131496300D01*
X131109954Y-131491500D01*
X131780046Y-131491500D01*
X131828785Y-131496300D01*
G37*
G36*
X95600422Y-130740905D02*
G01*
X95722948Y-130778073D01*
X95835868Y-130838430D01*
X95934843Y-130919657D01*
X96016070Y-131018632D01*
X96076427Y-131131552D01*
X96113595Y-131254078D01*
X96126145Y-131381500D01*
X96113595Y-131508922D01*
X96076427Y-131631448D01*
X96016070Y-131744368D01*
X95934843Y-131843343D01*
X95835868Y-131924570D01*
X95722948Y-131984927D01*
X95600422Y-132022095D01*
X95504932Y-132031500D01*
X94641068Y-132031500D01*
X94545578Y-132022095D01*
X94423052Y-131984927D01*
X94310132Y-131924570D01*
X94211157Y-131843343D01*
X94129930Y-131744368D01*
X94069573Y-131631448D01*
X94032405Y-131508922D01*
X94019855Y-131381500D01*
X94032405Y-131254078D01*
X94069573Y-131131552D01*
X94129930Y-131018632D01*
X94211157Y-130919657D01*
X94310132Y-130838430D01*
X94423052Y-130778073D01*
X94545578Y-130740905D01*
X94641068Y-130731500D01*
X95504932Y-130731500D01*
X95600422Y-130740905D01*
G37*
G36*
X98140422Y-130740905D02*
G01*
X98262948Y-130778073D01*
X98375868Y-130838430D01*
X98474843Y-130919657D01*
X98556070Y-131018632D01*
X98616427Y-131131552D01*
X98653595Y-131254078D01*
X98666145Y-131381500D01*
X98653595Y-131508922D01*
X98616427Y-131631448D01*
X98556070Y-131744368D01*
X98474843Y-131843343D01*
X98375868Y-131924570D01*
X98262948Y-131984927D01*
X98140422Y-132022095D01*
X98044932Y-132031500D01*
X97181068Y-132031500D01*
X97085578Y-132022095D01*
X96963052Y-131984927D01*
X96850132Y-131924570D01*
X96751157Y-131843343D01*
X96669930Y-131744368D01*
X96609573Y-131631448D01*
X96572405Y-131508922D01*
X96559855Y-131381500D01*
X96572405Y-131254078D01*
X96609573Y-131131552D01*
X96669930Y-131018632D01*
X96751157Y-130919657D01*
X96850132Y-130838430D01*
X96963052Y-130778073D01*
X97085578Y-130740905D01*
X97181068Y-130731500D01*
X98044932Y-130731500D01*
X98140422Y-130740905D01*
G37*
G36*
X123590422Y-130740905D02*
G01*
X123712948Y-130778073D01*
X123825868Y-130838430D01*
X123924843Y-130919657D01*
X124006070Y-131018632D01*
X124066427Y-131131552D01*
X124103595Y-131254078D01*
X124116145Y-131381500D01*
X124103595Y-131508922D01*
X124066427Y-131631448D01*
X124006070Y-131744368D01*
X123924843Y-131843343D01*
X123825868Y-131924570D01*
X123712948Y-131984927D01*
X123590422Y-132022095D01*
X123494932Y-132031500D01*
X122631068Y-132031500D01*
X122535578Y-132022095D01*
X122413052Y-131984927D01*
X122300132Y-131924570D01*
X122201157Y-131843343D01*
X122119930Y-131744368D01*
X122059573Y-131631448D01*
X122022405Y-131508922D01*
X122009855Y-131381500D01*
X122022405Y-131254078D01*
X122059573Y-131131552D01*
X122119930Y-131018632D01*
X122201157Y-130919657D01*
X122300132Y-130838430D01*
X122413052Y-130778073D01*
X122535578Y-130740905D01*
X122631068Y-130731500D01*
X123494932Y-130731500D01*
X123590422Y-130740905D01*
G37*
G36*
X126180422Y-130740905D02*
G01*
X126302948Y-130778073D01*
X126415868Y-130838430D01*
X126514843Y-130919657D01*
X126596070Y-131018632D01*
X126656427Y-131131552D01*
X126693595Y-131254078D01*
X126706145Y-131381500D01*
X126693595Y-131508922D01*
X126656427Y-131631448D01*
X126596070Y-131744368D01*
X126514843Y-131843343D01*
X126415868Y-131924570D01*
X126302948Y-131984927D01*
X126180422Y-132022095D01*
X126084932Y-132031500D01*
X125221068Y-132031500D01*
X125125578Y-132022095D01*
X125003052Y-131984927D01*
X124890132Y-131924570D01*
X124791157Y-131843343D01*
X124709930Y-131744368D01*
X124649573Y-131631448D01*
X124612405Y-131508922D01*
X124599855Y-131381500D01*
X124612405Y-131254078D01*
X124649573Y-131131552D01*
X124709930Y-131018632D01*
X124791157Y-130919657D01*
X124890132Y-130838430D01*
X125003052Y-130778073D01*
X125125578Y-130740905D01*
X125221068Y-130731500D01*
X126084932Y-130731500D01*
X126180422Y-130740905D01*
G37*
G36*
X149332007Y-127628348D02*
G01*
X149483750Y-127674378D01*
X149623597Y-127749128D01*
X149746175Y-127849725D01*
X149846772Y-127972302D01*
X149921522Y-128112149D01*
X149967552Y-128263892D01*
X149979200Y-128382154D01*
X149979200Y-129961246D01*
X149967552Y-130079508D01*
X149921522Y-130231251D01*
X149846772Y-130371098D01*
X149746175Y-130493675D01*
X149623598Y-130594272D01*
X149483751Y-130669022D01*
X149332008Y-130715052D01*
X149174200Y-130730595D01*
X149016393Y-130715052D01*
X148864650Y-130669022D01*
X148724803Y-130594272D01*
X148602226Y-130493675D01*
X148501629Y-130371098D01*
X148426879Y-130231251D01*
X148380849Y-130079508D01*
X148369201Y-129961246D01*
X148369200Y-128382155D01*
X148380848Y-128263893D01*
X148426878Y-128112150D01*
X148501628Y-127972303D01*
X148602225Y-127849725D01*
X148724802Y-127749128D01*
X148864649Y-127674378D01*
X149016392Y-127628348D01*
X149174200Y-127612805D01*
X149332007Y-127628348D01*
G37*
G36*
X151872007Y-127628348D02*
G01*
X152023750Y-127674378D01*
X152163597Y-127749128D01*
X152286175Y-127849725D01*
X152386772Y-127972302D01*
X152461522Y-128112149D01*
X152507552Y-128263892D01*
X152519200Y-128382154D01*
X152519200Y-129961246D01*
X152507552Y-130079508D01*
X152461522Y-130231251D01*
X152386772Y-130371098D01*
X152286175Y-130493675D01*
X152163598Y-130594272D01*
X152023751Y-130669022D01*
X151872008Y-130715052D01*
X151714200Y-130730595D01*
X151556393Y-130715052D01*
X151404650Y-130669022D01*
X151264803Y-130594272D01*
X151142226Y-130493675D01*
X151041629Y-130371098D01*
X150966879Y-130231251D01*
X150920849Y-130079508D01*
X150909201Y-129961246D01*
X150909200Y-128382155D01*
X150920848Y-128263893D01*
X150966878Y-128112150D01*
X151041628Y-127972303D01*
X151142225Y-127849725D01*
X151264802Y-127749128D01*
X151404649Y-127674378D01*
X151556392Y-127628348D01*
X151714200Y-127612805D01*
X151872007Y-127628348D01*
G37*
G36*
X105025000Y-130431500D02*
G01*
X104525000Y-130431500D01*
X104525000Y-129821500D01*
X105025000Y-129821500D01*
X105025000Y-130431500D01*
G37*
G36*
X141007310Y-128591551D02*
G01*
X141105520Y-128611086D01*
X141269310Y-128678930D01*
X141416717Y-128777424D01*
X141542076Y-128902783D01*
X141640570Y-129050190D01*
X141706991Y-129210544D01*
X141708414Y-129213981D01*
X141742347Y-129384571D01*
X141743000Y-129387858D01*
X141743000Y-129565142D01*
X141708414Y-129739020D01*
X141640570Y-129902810D01*
X141542076Y-130050217D01*
X141416717Y-130175576D01*
X141269310Y-130274070D01*
X141105520Y-130341914D01*
X141047561Y-130353443D01*
X140931644Y-130376500D01*
X140754356Y-130376500D01*
X140638439Y-130353443D01*
X140580480Y-130341914D01*
X140416690Y-130274070D01*
X140269283Y-130175576D01*
X140143924Y-130050217D01*
X140045430Y-129902810D01*
X139977586Y-129739020D01*
X139943000Y-129565142D01*
X139943000Y-129387858D01*
X139943654Y-129384571D01*
X139977586Y-129213981D01*
X139979010Y-129210544D01*
X140045430Y-129050190D01*
X140143924Y-128902783D01*
X140269283Y-128777424D01*
X140416690Y-128678930D01*
X140580480Y-128611086D01*
X140678690Y-128591551D01*
X140754356Y-128576500D01*
X140931644Y-128576500D01*
X141007310Y-128591551D01*
G37*
G36*
X143547310Y-128591551D02*
G01*
X143645520Y-128611086D01*
X143809310Y-128678930D01*
X143956717Y-128777424D01*
X144082076Y-128902783D01*
X144180570Y-129050190D01*
X144246991Y-129210544D01*
X144248414Y-129213981D01*
X144282347Y-129384571D01*
X144283000Y-129387858D01*
X144283000Y-129565142D01*
X144248414Y-129739020D01*
X144180570Y-129902810D01*
X144082076Y-130050217D01*
X143956717Y-130175576D01*
X143809310Y-130274070D01*
X143645520Y-130341914D01*
X143587561Y-130353443D01*
X143471644Y-130376500D01*
X143294356Y-130376500D01*
X143178439Y-130353443D01*
X143120480Y-130341914D01*
X142956690Y-130274070D01*
X142809283Y-130175576D01*
X142683924Y-130050217D01*
X142585430Y-129902810D01*
X142517586Y-129739020D01*
X142483000Y-129565142D01*
X142483000Y-129387858D01*
X142483654Y-129384571D01*
X142517586Y-129213981D01*
X142519010Y-129210544D01*
X142585430Y-129050190D01*
X142683924Y-128902783D01*
X142809283Y-128777424D01*
X142956690Y-128678930D01*
X143120480Y-128611086D01*
X143218690Y-128591551D01*
X143294356Y-128576500D01*
X143471644Y-128576500D01*
X143547310Y-128591551D01*
G37*
G36*
X138467310Y-128591551D02*
G01*
X138565520Y-128611086D01*
X138729310Y-128678930D01*
X138876717Y-128777424D01*
X139002076Y-128902783D01*
X139100570Y-129050190D01*
X139166991Y-129210544D01*
X139168414Y-129213981D01*
X139202347Y-129384571D01*
X139203000Y-129387858D01*
X139203000Y-129565142D01*
X139168414Y-129739020D01*
X139100570Y-129902810D01*
X139002076Y-130050217D01*
X138876717Y-130175576D01*
X138729310Y-130274070D01*
X138565520Y-130341914D01*
X138507561Y-130353443D01*
X138391644Y-130376500D01*
X138214356Y-130376500D01*
X138098439Y-130353443D01*
X138040480Y-130341914D01*
X137876690Y-130274070D01*
X137729283Y-130175576D01*
X137603924Y-130050217D01*
X137505430Y-129902810D01*
X137437586Y-129739020D01*
X137403000Y-129565142D01*
X137403000Y-129387858D01*
X137403654Y-129384571D01*
X137437586Y-129213981D01*
X137439010Y-129210544D01*
X137505430Y-129050190D01*
X137603924Y-128902783D01*
X137729283Y-128777424D01*
X137876690Y-128678930D01*
X138040480Y-128611086D01*
X138138690Y-128591551D01*
X138214356Y-128576500D01*
X138391644Y-128576500D01*
X138467310Y-128591551D01*
G37*
G36*
X136663000Y-130376500D02*
G01*
X134863000Y-130376500D01*
X134863000Y-128576500D01*
X136663000Y-128576500D01*
X136663000Y-130376500D01*
G37*
G36*
X130078785Y-129210300D02*
G01*
X130123292Y-129223802D01*
X130164316Y-129245729D01*
X130200266Y-129275234D01*
X130229771Y-129311184D01*
X130251698Y-129352208D01*
X130265200Y-129396715D01*
X130270000Y-129445454D01*
X130270000Y-130015546D01*
X130265200Y-130064285D01*
X130251698Y-130108792D01*
X130229771Y-130149816D01*
X130200266Y-130185766D01*
X130164316Y-130215271D01*
X130123292Y-130237198D01*
X130078785Y-130250700D01*
X130030046Y-130255500D01*
X129359954Y-130255500D01*
X129311215Y-130250700D01*
X129266708Y-130237198D01*
X129225684Y-130215271D01*
X129189734Y-130185766D01*
X129160229Y-130149816D01*
X129138302Y-130108792D01*
X129124800Y-130064285D01*
X129120000Y-130015546D01*
X129120000Y-129445454D01*
X129124800Y-129396715D01*
X129138302Y-129352208D01*
X129160229Y-129311184D01*
X129189734Y-129275234D01*
X129225684Y-129245729D01*
X129266708Y-129223802D01*
X129311215Y-129210300D01*
X129359954Y-129205500D01*
X130030046Y-129205500D01*
X130078785Y-129210300D01*
G37*
G36*
X131828785Y-129210300D02*
G01*
X131873292Y-129223802D01*
X131914316Y-129245729D01*
X131950266Y-129275234D01*
X131979771Y-129311184D01*
X132001698Y-129352208D01*
X132015200Y-129396715D01*
X132020000Y-129445454D01*
X132020000Y-130015546D01*
X132015200Y-130064285D01*
X132001698Y-130108792D01*
X131979771Y-130149816D01*
X131950266Y-130185766D01*
X131914316Y-130215271D01*
X131873292Y-130237198D01*
X131828785Y-130250700D01*
X131780046Y-130255500D01*
X131109954Y-130255500D01*
X131061215Y-130250700D01*
X131016708Y-130237198D01*
X130975684Y-130215271D01*
X130939734Y-130185766D01*
X130910229Y-130149816D01*
X130888302Y-130108792D01*
X130874800Y-130064285D01*
X130870000Y-130015546D01*
X130870000Y-129445454D01*
X130874800Y-129396715D01*
X130888302Y-129352208D01*
X130910229Y-129311184D01*
X130939734Y-129275234D01*
X130975684Y-129245729D01*
X131016708Y-129223802D01*
X131061215Y-129210300D01*
X131109954Y-129205500D01*
X131780046Y-129205500D01*
X131828785Y-129210300D01*
G37*
G36*
X123590422Y-128200905D02*
G01*
X123712948Y-128238073D01*
X123825868Y-128298430D01*
X123924843Y-128379657D01*
X124006070Y-128478632D01*
X124066427Y-128591552D01*
X124103595Y-128714078D01*
X124116145Y-128841500D01*
X124103595Y-128968922D01*
X124066427Y-129091448D01*
X124006070Y-129204368D01*
X123924843Y-129303343D01*
X123825868Y-129384570D01*
X123712948Y-129444927D01*
X123590422Y-129482095D01*
X123494932Y-129491500D01*
X122631068Y-129491500D01*
X122535578Y-129482095D01*
X122413052Y-129444927D01*
X122300132Y-129384570D01*
X122201157Y-129303343D01*
X122119930Y-129204368D01*
X122059573Y-129091448D01*
X122022405Y-128968922D01*
X122009855Y-128841500D01*
X122022405Y-128714078D01*
X122059573Y-128591552D01*
X122119930Y-128478632D01*
X122201157Y-128379657D01*
X122300132Y-128298430D01*
X122413052Y-128238073D01*
X122535578Y-128200905D01*
X122631068Y-128191500D01*
X123494932Y-128191500D01*
X123590422Y-128200905D01*
G37*
G36*
X126180422Y-128200905D02*
G01*
X126302948Y-128238073D01*
X126415868Y-128298430D01*
X126514843Y-128379657D01*
X126596070Y-128478632D01*
X126656427Y-128591552D01*
X126693595Y-128714078D01*
X126706145Y-128841500D01*
X126693595Y-128968922D01*
X126656427Y-129091448D01*
X126596070Y-129204368D01*
X126514843Y-129303343D01*
X126415868Y-129384570D01*
X126302948Y-129444927D01*
X126180422Y-129482095D01*
X126084932Y-129491500D01*
X125221068Y-129491500D01*
X125125578Y-129482095D01*
X125003052Y-129444927D01*
X124890132Y-129384570D01*
X124791157Y-129303343D01*
X124709930Y-129204368D01*
X124649573Y-129091448D01*
X124612405Y-128968922D01*
X124599855Y-128841500D01*
X124612405Y-128714078D01*
X124649573Y-128591552D01*
X124709930Y-128478632D01*
X124791157Y-128379657D01*
X124890132Y-128298430D01*
X125003052Y-128238073D01*
X125125578Y-128200905D01*
X125221068Y-128191500D01*
X126084932Y-128191500D01*
X126180422Y-128200905D01*
G37*
G36*
X98140422Y-128200905D02*
G01*
X98262948Y-128238073D01*
X98375868Y-128298430D01*
X98474843Y-128379657D01*
X98556070Y-128478632D01*
X98616427Y-128591552D01*
X98653595Y-128714078D01*
X98666145Y-128841500D01*
X98653595Y-128968922D01*
X98616427Y-129091448D01*
X98556070Y-129204368D01*
X98474843Y-129303343D01*
X98375868Y-129384570D01*
X98262948Y-129444927D01*
X98140422Y-129482095D01*
X98044932Y-129491500D01*
X97181068Y-129491500D01*
X97085578Y-129482095D01*
X96963052Y-129444927D01*
X96850132Y-129384570D01*
X96751157Y-129303343D01*
X96669930Y-129204368D01*
X96609573Y-129091448D01*
X96572405Y-128968922D01*
X96559855Y-128841500D01*
X96572405Y-128714078D01*
X96609573Y-128591552D01*
X96669930Y-128478632D01*
X96751157Y-128379657D01*
X96850132Y-128298430D01*
X96963052Y-128238073D01*
X97085578Y-128200905D01*
X97181068Y-128191500D01*
X98044932Y-128191500D01*
X98140422Y-128200905D01*
G37*
G36*
X95600422Y-128200905D02*
G01*
X95722948Y-128238073D01*
X95835868Y-128298430D01*
X95934843Y-128379657D01*
X96016070Y-128478632D01*
X96076427Y-128591552D01*
X96113595Y-128714078D01*
X96126145Y-128841500D01*
X96113595Y-128968922D01*
X96076427Y-129091448D01*
X96016070Y-129204368D01*
X95934843Y-129303343D01*
X95835868Y-129384570D01*
X95722948Y-129444927D01*
X95600422Y-129482095D01*
X95504932Y-129491500D01*
X94641068Y-129491500D01*
X94545578Y-129482095D01*
X94423052Y-129444927D01*
X94310132Y-129384570D01*
X94211157Y-129303343D01*
X94129930Y-129204368D01*
X94069573Y-129091448D01*
X94032405Y-128968922D01*
X94019855Y-128841500D01*
X94032405Y-128714078D01*
X94069573Y-128591552D01*
X94129930Y-128478632D01*
X94211157Y-128379657D01*
X94310132Y-128298430D01*
X94423052Y-128238073D01*
X94545578Y-128200905D01*
X94641068Y-128191500D01*
X95504932Y-128191500D01*
X95600422Y-128200905D01*
G37*
G36*
X104525000Y-129131500D02*
G01*
X104025000Y-129131500D01*
X104025000Y-128521500D01*
X104525000Y-128521500D01*
X104525000Y-129131500D01*
G37*
G36*
X105525000Y-129131500D02*
G01*
X105025000Y-129131500D01*
X105025000Y-128521500D01*
X105525000Y-128521500D01*
X105525000Y-129131500D01*
G37*
G36*
X130078785Y-125908300D02*
G01*
X130123292Y-125921802D01*
X130164316Y-125943729D01*
X130200266Y-125973234D01*
X130229771Y-126009184D01*
X130251698Y-126050208D01*
X130265200Y-126094715D01*
X130270000Y-126143454D01*
X130270000Y-126713546D01*
X130265200Y-126762285D01*
X130251698Y-126806792D01*
X130229771Y-126847816D01*
X130200266Y-126883766D01*
X130164316Y-126913271D01*
X130123292Y-126935198D01*
X130078785Y-126948700D01*
X130030046Y-126953500D01*
X129359954Y-126953500D01*
X129311215Y-126948700D01*
X129266708Y-126935198D01*
X129225684Y-126913271D01*
X129189734Y-126883766D01*
X129160229Y-126847816D01*
X129138302Y-126806792D01*
X129124800Y-126762285D01*
X129120000Y-126713546D01*
X129120000Y-126143454D01*
X129124800Y-126094715D01*
X129138302Y-126050208D01*
X129160229Y-126009184D01*
X129189734Y-125973234D01*
X129225684Y-125943729D01*
X129266708Y-125921802D01*
X129311215Y-125908300D01*
X129359954Y-125903500D01*
X130030046Y-125903500D01*
X130078785Y-125908300D01*
G37*
G36*
X131828785Y-125908300D02*
G01*
X131873292Y-125921802D01*
X131914316Y-125943729D01*
X131950266Y-125973234D01*
X131979771Y-126009184D01*
X132001698Y-126050208D01*
X132015200Y-126094715D01*
X132020000Y-126143454D01*
X132020000Y-126713546D01*
X132015200Y-126762285D01*
X132001698Y-126806792D01*
X131979771Y-126847816D01*
X131950266Y-126883766D01*
X131914316Y-126913271D01*
X131873292Y-126935198D01*
X131828785Y-126948700D01*
X131780046Y-126953500D01*
X131109954Y-126953500D01*
X131061215Y-126948700D01*
X131016708Y-126935198D01*
X130975684Y-126913271D01*
X130939734Y-126883766D01*
X130910229Y-126847816D01*
X130888302Y-126806792D01*
X130874800Y-126762285D01*
X130870000Y-126713546D01*
X130870000Y-126143454D01*
X130874800Y-126094715D01*
X130888302Y-126050208D01*
X130910229Y-126009184D01*
X130939734Y-125973234D01*
X130975684Y-125943729D01*
X131016708Y-125921802D01*
X131061215Y-125908300D01*
X131109954Y-125903500D01*
X131780046Y-125903500D01*
X131828785Y-125908300D01*
G37*
G36*
X95600422Y-125660905D02*
G01*
X95722948Y-125698073D01*
X95835868Y-125758430D01*
X95934843Y-125839657D01*
X96016070Y-125938632D01*
X96076427Y-126051552D01*
X96113595Y-126174078D01*
X96126145Y-126301500D01*
X96113595Y-126428922D01*
X96076427Y-126551448D01*
X96016070Y-126664368D01*
X95934843Y-126763343D01*
X95835868Y-126844570D01*
X95722948Y-126904927D01*
X95600422Y-126942095D01*
X95504932Y-126951500D01*
X94641068Y-126951500D01*
X94545578Y-126942095D01*
X94423052Y-126904927D01*
X94310132Y-126844570D01*
X94211157Y-126763343D01*
X94129930Y-126664368D01*
X94069573Y-126551448D01*
X94032405Y-126428922D01*
X94019855Y-126301500D01*
X94032405Y-126174078D01*
X94069573Y-126051552D01*
X94129930Y-125938632D01*
X94211157Y-125839657D01*
X94310132Y-125758430D01*
X94423052Y-125698073D01*
X94545578Y-125660905D01*
X94641068Y-125651500D01*
X95504932Y-125651500D01*
X95600422Y-125660905D01*
G37*
G36*
X126180422Y-125660905D02*
G01*
X126302948Y-125698073D01*
X126415868Y-125758430D01*
X126514843Y-125839657D01*
X126596070Y-125938632D01*
X126656427Y-126051552D01*
X126693595Y-126174078D01*
X126706145Y-126301500D01*
X126693595Y-126428922D01*
X126656427Y-126551448D01*
X126596070Y-126664368D01*
X126514843Y-126763343D01*
X126415868Y-126844570D01*
X126302948Y-126904927D01*
X126180422Y-126942095D01*
X126084932Y-126951500D01*
X125221068Y-126951500D01*
X125125578Y-126942095D01*
X125003052Y-126904927D01*
X124890132Y-126844570D01*
X124791157Y-126763343D01*
X124709930Y-126664368D01*
X124649573Y-126551448D01*
X124612405Y-126428922D01*
X124599855Y-126301500D01*
X124612405Y-126174078D01*
X124649573Y-126051552D01*
X124709930Y-125938632D01*
X124791157Y-125839657D01*
X124890132Y-125758430D01*
X125003052Y-125698073D01*
X125125578Y-125660905D01*
X125221068Y-125651500D01*
X126084932Y-125651500D01*
X126180422Y-125660905D01*
G37*
G36*
X123590422Y-125660905D02*
G01*
X123712948Y-125698073D01*
X123825868Y-125758430D01*
X123924843Y-125839657D01*
X124006070Y-125938632D01*
X124066427Y-126051552D01*
X124103595Y-126174078D01*
X124116145Y-126301500D01*
X124103595Y-126428922D01*
X124066427Y-126551448D01*
X124006070Y-126664368D01*
X123924843Y-126763343D01*
X123825868Y-126844570D01*
X123712948Y-126904927D01*
X123590422Y-126942095D01*
X123494932Y-126951500D01*
X122631068Y-126951500D01*
X122535578Y-126942095D01*
X122413052Y-126904927D01*
X122300132Y-126844570D01*
X122201157Y-126763343D01*
X122119930Y-126664368D01*
X122059573Y-126551448D01*
X122022405Y-126428922D01*
X122009855Y-126301500D01*
X122022405Y-126174078D01*
X122059573Y-126051552D01*
X122119930Y-125938632D01*
X122201157Y-125839657D01*
X122300132Y-125758430D01*
X122413052Y-125698073D01*
X122535578Y-125660905D01*
X122631068Y-125651500D01*
X123494932Y-125651500D01*
X123590422Y-125660905D01*
G37*
G36*
X98140422Y-125660905D02*
G01*
X98262948Y-125698073D01*
X98375868Y-125758430D01*
X98474843Y-125839657D01*
X98556070Y-125938632D01*
X98616427Y-126051552D01*
X98653595Y-126174078D01*
X98666145Y-126301500D01*
X98653595Y-126428922D01*
X98616427Y-126551448D01*
X98556070Y-126664368D01*
X98474843Y-126763343D01*
X98375868Y-126844570D01*
X98262948Y-126904927D01*
X98140422Y-126942095D01*
X98044932Y-126951500D01*
X97181068Y-126951500D01*
X97085578Y-126942095D01*
X96963052Y-126904927D01*
X96850132Y-126844570D01*
X96751157Y-126763343D01*
X96669930Y-126664368D01*
X96609573Y-126551448D01*
X96572405Y-126428922D01*
X96559855Y-126301500D01*
X96572405Y-126174078D01*
X96609573Y-126051552D01*
X96669930Y-125938632D01*
X96751157Y-125839657D01*
X96850132Y-125758430D01*
X96963052Y-125698073D01*
X97085578Y-125660905D01*
X97181068Y-125651500D01*
X98044932Y-125651500D01*
X98140422Y-125660905D01*
G37*
G36*
X151753785Y-125400300D02*
G01*
X151798292Y-125413802D01*
X151839316Y-125435729D01*
X151875266Y-125465234D01*
X151904771Y-125501184D01*
X151926698Y-125542208D01*
X151940200Y-125586715D01*
X151945000Y-125635454D01*
X151945000Y-126205546D01*
X151940200Y-126254285D01*
X151926698Y-126298792D01*
X151904771Y-126339816D01*
X151875266Y-126375766D01*
X151839316Y-126405271D01*
X151798292Y-126427198D01*
X151753785Y-126440700D01*
X151705046Y-126445500D01*
X151034954Y-126445500D01*
X150986215Y-126440700D01*
X150941708Y-126427198D01*
X150900684Y-126405271D01*
X150864734Y-126375766D01*
X150835229Y-126339816D01*
X150813302Y-126298792D01*
X150799800Y-126254285D01*
X150795000Y-126205546D01*
X150795000Y-125635454D01*
X150799800Y-125586715D01*
X150813302Y-125542208D01*
X150835229Y-125501184D01*
X150864734Y-125465234D01*
X150900684Y-125435729D01*
X150941708Y-125413802D01*
X150986215Y-125400300D01*
X151034954Y-125395500D01*
X151705046Y-125395500D01*
X151753785Y-125400300D01*
G37*
G36*
X150003785Y-125400300D02*
G01*
X150048292Y-125413802D01*
X150089316Y-125435729D01*
X150125266Y-125465234D01*
X150154771Y-125501184D01*
X150176698Y-125542208D01*
X150190200Y-125586715D01*
X150195000Y-125635454D01*
X150195000Y-126205546D01*
X150190200Y-126254285D01*
X150176698Y-126298792D01*
X150154771Y-126339816D01*
X150125266Y-126375766D01*
X150089316Y-126405271D01*
X150048292Y-126427198D01*
X150003785Y-126440700D01*
X149955046Y-126445500D01*
X149284954Y-126445500D01*
X149236215Y-126440700D01*
X149191708Y-126427198D01*
X149150684Y-126405271D01*
X149114734Y-126375766D01*
X149085229Y-126339816D01*
X149063302Y-126298792D01*
X149049800Y-126254285D01*
X149045000Y-126205546D01*
X149045000Y-125635454D01*
X149049800Y-125586715D01*
X149063302Y-125542208D01*
X149085229Y-125501184D01*
X149114734Y-125465234D01*
X149150684Y-125435729D01*
X149191708Y-125413802D01*
X149236215Y-125400300D01*
X149284954Y-125395500D01*
X149955046Y-125395500D01*
X150003785Y-125400300D01*
G37*
G36*
X131828785Y-123876300D02*
G01*
X131873292Y-123889802D01*
X131914316Y-123911729D01*
X131950266Y-123941234D01*
X131979771Y-123977184D01*
X132001698Y-124018208D01*
X132015200Y-124062715D01*
X132020000Y-124111454D01*
X132020000Y-124681546D01*
X132015200Y-124730285D01*
X132001698Y-124774792D01*
X131979771Y-124815816D01*
X131950266Y-124851766D01*
X131914316Y-124881271D01*
X131873292Y-124903198D01*
X131828785Y-124916700D01*
X131780046Y-124921500D01*
X131109954Y-124921500D01*
X131061215Y-124916700D01*
X131016708Y-124903198D01*
X130975684Y-124881271D01*
X130939734Y-124851766D01*
X130910229Y-124815816D01*
X130888302Y-124774792D01*
X130874800Y-124730285D01*
X130870000Y-124681546D01*
X130870000Y-124111454D01*
X130874800Y-124062715D01*
X130888302Y-124018208D01*
X130910229Y-123977184D01*
X130939734Y-123941234D01*
X130975684Y-123911729D01*
X131016708Y-123889802D01*
X131061215Y-123876300D01*
X131109954Y-123871500D01*
X131780046Y-123871500D01*
X131828785Y-123876300D01*
G37*
G36*
X130078785Y-123876300D02*
G01*
X130123292Y-123889802D01*
X130164316Y-123911729D01*
X130200266Y-123941234D01*
X130229771Y-123977184D01*
X130251698Y-124018208D01*
X130265200Y-124062715D01*
X130270000Y-124111454D01*
X130270000Y-124681546D01*
X130265200Y-124730285D01*
X130251698Y-124774792D01*
X130229771Y-124815816D01*
X130200266Y-124851766D01*
X130164316Y-124881271D01*
X130123292Y-124903198D01*
X130078785Y-124916700D01*
X130030046Y-124921500D01*
X129359954Y-124921500D01*
X129311215Y-124916700D01*
X129266708Y-124903198D01*
X129225684Y-124881271D01*
X129189734Y-124851766D01*
X129160229Y-124815816D01*
X129138302Y-124774792D01*
X129124800Y-124730285D01*
X129120000Y-124681546D01*
X129120000Y-124111454D01*
X129124800Y-124062715D01*
X129138302Y-124018208D01*
X129160229Y-123977184D01*
X129189734Y-123941234D01*
X129225684Y-123911729D01*
X129266708Y-123889802D01*
X129311215Y-123876300D01*
X129359954Y-123871500D01*
X130030046Y-123871500D01*
X130078785Y-123876300D01*
G37*
G36*
X177186817Y-122859603D02*
G01*
X177304487Y-122883009D01*
X177470752Y-122951878D01*
X177620386Y-123051860D01*
X177747640Y-123179114D01*
X177847622Y-123328748D01*
X177916491Y-123495013D01*
X177933007Y-123578046D01*
X177951600Y-123671517D01*
X177951600Y-123851483D01*
X177946615Y-123876544D01*
X177916491Y-124027987D01*
X177847622Y-124194252D01*
X177747640Y-124343886D01*
X177620386Y-124471140D01*
X177470752Y-124571122D01*
X177304487Y-124639991D01*
X177208922Y-124659000D01*
X177127983Y-124675100D01*
X176948017Y-124675100D01*
X176867078Y-124659000D01*
X176771513Y-124639991D01*
X176605248Y-124571122D01*
X176455614Y-124471140D01*
X176328360Y-124343886D01*
X176228378Y-124194252D01*
X176159509Y-124027987D01*
X176129385Y-123876544D01*
X176124400Y-123851483D01*
X176124400Y-123671517D01*
X176142993Y-123578046D01*
X176159509Y-123495013D01*
X176228378Y-123328748D01*
X176328360Y-123179114D01*
X176455614Y-123051860D01*
X176605248Y-122951878D01*
X176771513Y-122883009D01*
X176889183Y-122859603D01*
X176948017Y-122847900D01*
X177127983Y-122847900D01*
X177186817Y-122859603D01*
G37*
G36*
X182266817Y-122859603D02*
G01*
X182384487Y-122883009D01*
X182550752Y-122951878D01*
X182700386Y-123051860D01*
X182827640Y-123179114D01*
X182927622Y-123328748D01*
X182996491Y-123495013D01*
X183013007Y-123578046D01*
X183031600Y-123671517D01*
X183031600Y-123851483D01*
X183026615Y-123876544D01*
X182996491Y-124027987D01*
X182927622Y-124194252D01*
X182827640Y-124343886D01*
X182700386Y-124471140D01*
X182550752Y-124571122D01*
X182384487Y-124639991D01*
X182288922Y-124659000D01*
X182207983Y-124675100D01*
X182028017Y-124675100D01*
X181947078Y-124659000D01*
X181851513Y-124639991D01*
X181685248Y-124571122D01*
X181535614Y-124471140D01*
X181408360Y-124343886D01*
X181308378Y-124194252D01*
X181239509Y-124027987D01*
X181209385Y-123876544D01*
X181204400Y-123851483D01*
X181204400Y-123671517D01*
X181222993Y-123578046D01*
X181239509Y-123495013D01*
X181308378Y-123328748D01*
X181408360Y-123179114D01*
X181535614Y-123051860D01*
X181685248Y-122951878D01*
X181851513Y-122883009D01*
X181969183Y-122859603D01*
X182028017Y-122847900D01*
X182207983Y-122847900D01*
X182266817Y-122859603D01*
G37*
G36*
X179726817Y-122859603D02*
G01*
X179844487Y-122883009D01*
X180010752Y-122951878D01*
X180160386Y-123051860D01*
X180287640Y-123179114D01*
X180387622Y-123328748D01*
X180456491Y-123495013D01*
X180473007Y-123578046D01*
X180491600Y-123671517D01*
X180491600Y-123851483D01*
X180486615Y-123876544D01*
X180456491Y-124027987D01*
X180387622Y-124194252D01*
X180287640Y-124343886D01*
X180160386Y-124471140D01*
X180010752Y-124571122D01*
X179844487Y-124639991D01*
X179748922Y-124659000D01*
X179667983Y-124675100D01*
X179488017Y-124675100D01*
X179407078Y-124659000D01*
X179311513Y-124639991D01*
X179145248Y-124571122D01*
X178995614Y-124471140D01*
X178868360Y-124343886D01*
X178768378Y-124194252D01*
X178699509Y-124027987D01*
X178669385Y-123876544D01*
X178664400Y-123851483D01*
X178664400Y-123671517D01*
X178682993Y-123578046D01*
X178699509Y-123495013D01*
X178768378Y-123328748D01*
X178868360Y-123179114D01*
X178995614Y-123051860D01*
X179145248Y-122951878D01*
X179311513Y-122883009D01*
X179429183Y-122859603D01*
X179488017Y-122847900D01*
X179667983Y-122847900D01*
X179726817Y-122859603D01*
G37*
G36*
X184806817Y-122859603D02*
G01*
X184924487Y-122883009D01*
X185090752Y-122951878D01*
X185240386Y-123051860D01*
X185367640Y-123179114D01*
X185467622Y-123328748D01*
X185536491Y-123495013D01*
X185553007Y-123578046D01*
X185571600Y-123671517D01*
X185571600Y-123851483D01*
X185566615Y-123876544D01*
X185536491Y-124027987D01*
X185467622Y-124194252D01*
X185367640Y-124343886D01*
X185240386Y-124471140D01*
X185090752Y-124571122D01*
X184924487Y-124639991D01*
X184828922Y-124659000D01*
X184747983Y-124675100D01*
X184568017Y-124675100D01*
X184487078Y-124659000D01*
X184391513Y-124639991D01*
X184225248Y-124571122D01*
X184075614Y-124471140D01*
X183948360Y-124343886D01*
X183848378Y-124194252D01*
X183779509Y-124027987D01*
X183749385Y-123876544D01*
X183744400Y-123851483D01*
X183744400Y-123671517D01*
X183762993Y-123578046D01*
X183779509Y-123495013D01*
X183848378Y-123328748D01*
X183948360Y-123179114D01*
X184075614Y-123051860D01*
X184225248Y-122951878D01*
X184391513Y-122883009D01*
X184509183Y-122859603D01*
X184568017Y-122847900D01*
X184747983Y-122847900D01*
X184806817Y-122859603D01*
G37*
G36*
X187346817Y-122859603D02*
G01*
X187464487Y-122883009D01*
X187630752Y-122951878D01*
X187780386Y-123051860D01*
X187907640Y-123179114D01*
X188007622Y-123328748D01*
X188076491Y-123495013D01*
X188093007Y-123578046D01*
X188111600Y-123671517D01*
X188111600Y-123851483D01*
X188106615Y-123876544D01*
X188076491Y-124027987D01*
X188007622Y-124194252D01*
X187907640Y-124343886D01*
X187780386Y-124471140D01*
X187630752Y-124571122D01*
X187464487Y-124639991D01*
X187368922Y-124659000D01*
X187287983Y-124675100D01*
X187108017Y-124675100D01*
X187027078Y-124659000D01*
X186931513Y-124639991D01*
X186765248Y-124571122D01*
X186615614Y-124471140D01*
X186488360Y-124343886D01*
X186388378Y-124194252D01*
X186319509Y-124027987D01*
X186289385Y-123876544D01*
X186284400Y-123851483D01*
X186284400Y-123671517D01*
X186302993Y-123578046D01*
X186319509Y-123495013D01*
X186388378Y-123328748D01*
X186488360Y-123179114D01*
X186615614Y-123051860D01*
X186765248Y-122951878D01*
X186931513Y-122883009D01*
X187049183Y-122859603D01*
X187108017Y-122847900D01*
X187287983Y-122847900D01*
X187346817Y-122859603D01*
G37*
G36*
X98140422Y-123120905D02*
G01*
X98262948Y-123158073D01*
X98375868Y-123218430D01*
X98474843Y-123299657D01*
X98556070Y-123398632D01*
X98616427Y-123511552D01*
X98653595Y-123634078D01*
X98666145Y-123761500D01*
X98653595Y-123888922D01*
X98616427Y-124011448D01*
X98556070Y-124124368D01*
X98474843Y-124223343D01*
X98375868Y-124304570D01*
X98262948Y-124364927D01*
X98140422Y-124402095D01*
X98044932Y-124411500D01*
X97181068Y-124411500D01*
X97085578Y-124402095D01*
X96963052Y-124364927D01*
X96850132Y-124304570D01*
X96751157Y-124223343D01*
X96669930Y-124124368D01*
X96609573Y-124011448D01*
X96572405Y-123888922D01*
X96559855Y-123761500D01*
X96572405Y-123634078D01*
X96609573Y-123511552D01*
X96669930Y-123398632D01*
X96751157Y-123299657D01*
X96850132Y-123218430D01*
X96963052Y-123158073D01*
X97085578Y-123120905D01*
X97181068Y-123111500D01*
X98044932Y-123111500D01*
X98140422Y-123120905D01*
G37*
G36*
X123590422Y-123120905D02*
G01*
X123712948Y-123158073D01*
X123825868Y-123218430D01*
X123924843Y-123299657D01*
X124006070Y-123398632D01*
X124066427Y-123511552D01*
X124103595Y-123634078D01*
X124116145Y-123761500D01*
X124103595Y-123888922D01*
X124066427Y-124011448D01*
X124006070Y-124124368D01*
X123924843Y-124223343D01*
X123825868Y-124304570D01*
X123712948Y-124364927D01*
X123590422Y-124402095D01*
X123494932Y-124411500D01*
X122631068Y-124411500D01*
X122535578Y-124402095D01*
X122413052Y-124364927D01*
X122300132Y-124304570D01*
X122201157Y-124223343D01*
X122119930Y-124124368D01*
X122059573Y-124011448D01*
X122022405Y-123888922D01*
X122009855Y-123761500D01*
X122022405Y-123634078D01*
X122059573Y-123511552D01*
X122119930Y-123398632D01*
X122201157Y-123299657D01*
X122300132Y-123218430D01*
X122413052Y-123158073D01*
X122535578Y-123120905D01*
X122631068Y-123111500D01*
X123494932Y-123111500D01*
X123590422Y-123120905D01*
G37*
G36*
X126180422Y-123120905D02*
G01*
X126302948Y-123158073D01*
X126415868Y-123218430D01*
X126514843Y-123299657D01*
X126596070Y-123398632D01*
X126656427Y-123511552D01*
X126693595Y-123634078D01*
X126706145Y-123761500D01*
X126693595Y-123888922D01*
X126656427Y-124011448D01*
X126596070Y-124124368D01*
X126514843Y-124223343D01*
X126415868Y-124304570D01*
X126302948Y-124364927D01*
X126180422Y-124402095D01*
X126084932Y-124411500D01*
X125221068Y-124411500D01*
X125125578Y-124402095D01*
X125003052Y-124364927D01*
X124890132Y-124304570D01*
X124791157Y-124223343D01*
X124709930Y-124124368D01*
X124649573Y-124011448D01*
X124612405Y-123888922D01*
X124599855Y-123761500D01*
X124612405Y-123634078D01*
X124649573Y-123511552D01*
X124709930Y-123398632D01*
X124791157Y-123299657D01*
X124890132Y-123218430D01*
X125003052Y-123158073D01*
X125125578Y-123120905D01*
X125221068Y-123111500D01*
X126084932Y-123111500D01*
X126180422Y-123120905D01*
G37*
G36*
X95600422Y-123120905D02*
G01*
X95722948Y-123158073D01*
X95835868Y-123218430D01*
X95934843Y-123299657D01*
X96016070Y-123398632D01*
X96076427Y-123511552D01*
X96113595Y-123634078D01*
X96126145Y-123761500D01*
X96113595Y-123888922D01*
X96076427Y-124011448D01*
X96016070Y-124124368D01*
X95934843Y-124223343D01*
X95835868Y-124304570D01*
X95722948Y-124364927D01*
X95600422Y-124402095D01*
X95504932Y-124411500D01*
X94641068Y-124411500D01*
X94545578Y-124402095D01*
X94423052Y-124364927D01*
X94310132Y-124304570D01*
X94211157Y-124223343D01*
X94129930Y-124124368D01*
X94069573Y-124011448D01*
X94032405Y-123888922D01*
X94019855Y-123761500D01*
X94032405Y-123634078D01*
X94069573Y-123511552D01*
X94129930Y-123398632D01*
X94211157Y-123299657D01*
X94310132Y-123218430D01*
X94423052Y-123158073D01*
X94545578Y-123120905D01*
X94641068Y-123111500D01*
X95504932Y-123111500D01*
X95600422Y-123120905D01*
G37*
G36*
X153655216Y-123033619D02*
G01*
X153683309Y-123042141D01*
X153709204Y-123055983D01*
X153731896Y-123074604D01*
X153750517Y-123097296D01*
X153764359Y-123123191D01*
X153772881Y-123151284D01*
X153776000Y-123182954D01*
X153776000Y-123578046D01*
X153772881Y-123609716D01*
X153764359Y-123637809D01*
X153750517Y-123663704D01*
X153731896Y-123686396D01*
X153709204Y-123705017D01*
X153683309Y-123718859D01*
X153655216Y-123727381D01*
X153623546Y-123730500D01*
X152078454Y-123730500D01*
X152046784Y-123727381D01*
X152018691Y-123718859D01*
X151992796Y-123705017D01*
X151970104Y-123686396D01*
X151951483Y-123663704D01*
X151937641Y-123637809D01*
X151929119Y-123609716D01*
X151926000Y-123578046D01*
X151926000Y-123182954D01*
X151929119Y-123151284D01*
X151937641Y-123123191D01*
X151951483Y-123097296D01*
X151970104Y-123074604D01*
X151992796Y-123055983D01*
X152018691Y-123042141D01*
X152046784Y-123033619D01*
X152078454Y-123030500D01*
X153623546Y-123030500D01*
X153655216Y-123033619D01*
G37*
G36*
X148505216Y-123033619D02*
G01*
X148533309Y-123042141D01*
X148559204Y-123055983D01*
X148581896Y-123074604D01*
X148600517Y-123097296D01*
X148614359Y-123123191D01*
X148622881Y-123151284D01*
X148626000Y-123182954D01*
X148626000Y-123578046D01*
X148622881Y-123609716D01*
X148614359Y-123637809D01*
X148600517Y-123663704D01*
X148581896Y-123686396D01*
X148559204Y-123705017D01*
X148533309Y-123718859D01*
X148505216Y-123727381D01*
X148473546Y-123730500D01*
X146928454Y-123730500D01*
X146896784Y-123727381D01*
X146868691Y-123718859D01*
X146842796Y-123705017D01*
X146820104Y-123686396D01*
X146801483Y-123663704D01*
X146787641Y-123637809D01*
X146779119Y-123609716D01*
X146776000Y-123578046D01*
X146776000Y-123182954D01*
X146779119Y-123151284D01*
X146787641Y-123123191D01*
X146801483Y-123097296D01*
X146820104Y-123074604D01*
X146842796Y-123055983D01*
X146868691Y-123042141D01*
X146896784Y-123033619D01*
X146928454Y-123030500D01*
X148473546Y-123030500D01*
X148505216Y-123033619D01*
G37*
G36*
X148505216Y-121763619D02*
G01*
X148533309Y-121772141D01*
X148559204Y-121785983D01*
X148581896Y-121804604D01*
X148600517Y-121827296D01*
X148614359Y-121853191D01*
X148622881Y-121881284D01*
X148626000Y-121912954D01*
X148626000Y-122308046D01*
X148622881Y-122339716D01*
X148614359Y-122367809D01*
X148600517Y-122393704D01*
X148581896Y-122416396D01*
X148559204Y-122435017D01*
X148533309Y-122448859D01*
X148505216Y-122457381D01*
X148473546Y-122460500D01*
X146928454Y-122460500D01*
X146896784Y-122457381D01*
X146868691Y-122448859D01*
X146842796Y-122435017D01*
X146820104Y-122416396D01*
X146801483Y-122393704D01*
X146787641Y-122367809D01*
X146779119Y-122339716D01*
X146776000Y-122308046D01*
X146776000Y-121912954D01*
X146779119Y-121881284D01*
X146787641Y-121853191D01*
X146801483Y-121827296D01*
X146820104Y-121804604D01*
X146842796Y-121785983D01*
X146868691Y-121772141D01*
X146896784Y-121763619D01*
X146928454Y-121760500D01*
X148473546Y-121760500D01*
X148505216Y-121763619D01*
G37*
G36*
X153655216Y-121763619D02*
G01*
X153683309Y-121772141D01*
X153709204Y-121785983D01*
X153731896Y-121804604D01*
X153750517Y-121827296D01*
X153764359Y-121853191D01*
X153772881Y-121881284D01*
X153776000Y-121912954D01*
X153776000Y-122308046D01*
X153772881Y-122339716D01*
X153764359Y-122367809D01*
X153750517Y-122393704D01*
X153731896Y-122416396D01*
X153709204Y-122435017D01*
X153683309Y-122448859D01*
X153655216Y-122457381D01*
X153623546Y-122460500D01*
X152078454Y-122460500D01*
X152046784Y-122457381D01*
X152018691Y-122448859D01*
X151992796Y-122435017D01*
X151970104Y-122416396D01*
X151951483Y-122393704D01*
X151937641Y-122367809D01*
X151929119Y-122339716D01*
X151926000Y-122308046D01*
X151926000Y-121912954D01*
X151929119Y-121881284D01*
X151937641Y-121853191D01*
X151951483Y-121827296D01*
X151970104Y-121804604D01*
X151992796Y-121785983D01*
X152018691Y-121772141D01*
X152046784Y-121763619D01*
X152078454Y-121760500D01*
X153623546Y-121760500D01*
X153655216Y-121763619D01*
G37*
G36*
X188111600Y-122135100D02*
G01*
X186284400Y-122135100D01*
X186284400Y-120307900D01*
X188111600Y-120307900D01*
X188111600Y-122135100D01*
G37*
G36*
X177186817Y-120319603D02*
G01*
X177304487Y-120343009D01*
X177470752Y-120411878D01*
X177620386Y-120511860D01*
X177747640Y-120639114D01*
X177847622Y-120788748D01*
X177916491Y-120955013D01*
X177933007Y-121038046D01*
X177945932Y-121103020D01*
X177951600Y-121131518D01*
X177951600Y-121311482D01*
X177916491Y-121487987D01*
X177847622Y-121654252D01*
X177747640Y-121803886D01*
X177620386Y-121931140D01*
X177470752Y-122031122D01*
X177304487Y-122099991D01*
X177186817Y-122123397D01*
X177127983Y-122135100D01*
X176948017Y-122135100D01*
X176889183Y-122123397D01*
X176771513Y-122099991D01*
X176605248Y-122031122D01*
X176455614Y-121931140D01*
X176328360Y-121803886D01*
X176228378Y-121654252D01*
X176159509Y-121487987D01*
X176124400Y-121311482D01*
X176124400Y-121131518D01*
X176130069Y-121103020D01*
X176142993Y-121038046D01*
X176159509Y-120955013D01*
X176228378Y-120788748D01*
X176328360Y-120639114D01*
X176455614Y-120511860D01*
X176605248Y-120411878D01*
X176771513Y-120343009D01*
X176889183Y-120319603D01*
X176948017Y-120307900D01*
X177127983Y-120307900D01*
X177186817Y-120319603D01*
G37*
G36*
X179726817Y-120319603D02*
G01*
X179844487Y-120343009D01*
X180010752Y-120411878D01*
X180160386Y-120511860D01*
X180287640Y-120639114D01*
X180387622Y-120788748D01*
X180456491Y-120955013D01*
X180473007Y-121038046D01*
X180485932Y-121103020D01*
X180491600Y-121131518D01*
X180491600Y-121311482D01*
X180456491Y-121487987D01*
X180387622Y-121654252D01*
X180287640Y-121803886D01*
X180160386Y-121931140D01*
X180010752Y-122031122D01*
X179844487Y-122099991D01*
X179726817Y-122123397D01*
X179667983Y-122135100D01*
X179488017Y-122135100D01*
X179429183Y-122123397D01*
X179311513Y-122099991D01*
X179145248Y-122031122D01*
X178995614Y-121931140D01*
X178868360Y-121803886D01*
X178768378Y-121654252D01*
X178699509Y-121487987D01*
X178664400Y-121311482D01*
X178664400Y-121131518D01*
X178670069Y-121103020D01*
X178682993Y-121038046D01*
X178699509Y-120955013D01*
X178768378Y-120788748D01*
X178868360Y-120639114D01*
X178995614Y-120511860D01*
X179145248Y-120411878D01*
X179311513Y-120343009D01*
X179429183Y-120319603D01*
X179488017Y-120307900D01*
X179667983Y-120307900D01*
X179726817Y-120319603D01*
G37*
G36*
X184806817Y-120319603D02*
G01*
X184924487Y-120343009D01*
X185090752Y-120411878D01*
X185240386Y-120511860D01*
X185367640Y-120639114D01*
X185467622Y-120788748D01*
X185536491Y-120955013D01*
X185553007Y-121038046D01*
X185565932Y-121103020D01*
X185571600Y-121131518D01*
X185571600Y-121311482D01*
X185536491Y-121487987D01*
X185467622Y-121654252D01*
X185367640Y-121803886D01*
X185240386Y-121931140D01*
X185090752Y-122031122D01*
X184924487Y-122099991D01*
X184806817Y-122123397D01*
X184747983Y-122135100D01*
X184568017Y-122135100D01*
X184509183Y-122123397D01*
X184391513Y-122099991D01*
X184225248Y-122031122D01*
X184075614Y-121931140D01*
X183948360Y-121803886D01*
X183848378Y-121654252D01*
X183779509Y-121487987D01*
X183744400Y-121311482D01*
X183744400Y-121131518D01*
X183750069Y-121103020D01*
X183762993Y-121038046D01*
X183779509Y-120955013D01*
X183848378Y-120788748D01*
X183948360Y-120639114D01*
X184075614Y-120511860D01*
X184225248Y-120411878D01*
X184391513Y-120343009D01*
X184509183Y-120319603D01*
X184568017Y-120307900D01*
X184747983Y-120307900D01*
X184806817Y-120319603D01*
G37*
G36*
X182266817Y-120319603D02*
G01*
X182384487Y-120343009D01*
X182550752Y-120411878D01*
X182700386Y-120511860D01*
X182827640Y-120639114D01*
X182927622Y-120788748D01*
X182996491Y-120955013D01*
X183013007Y-121038046D01*
X183025932Y-121103020D01*
X183031600Y-121131518D01*
X183031600Y-121311482D01*
X182996491Y-121487987D01*
X182927622Y-121654252D01*
X182827640Y-121803886D01*
X182700386Y-121931140D01*
X182550752Y-122031122D01*
X182384487Y-122099991D01*
X182266817Y-122123397D01*
X182207983Y-122135100D01*
X182028017Y-122135100D01*
X181969183Y-122123397D01*
X181851513Y-122099991D01*
X181685248Y-122031122D01*
X181535614Y-121931140D01*
X181408360Y-121803886D01*
X181308378Y-121654252D01*
X181239509Y-121487987D01*
X181204400Y-121311482D01*
X181204400Y-121131518D01*
X181210069Y-121103020D01*
X181222993Y-121038046D01*
X181239509Y-120955013D01*
X181308378Y-120788748D01*
X181408360Y-120639114D01*
X181535614Y-120511860D01*
X181685248Y-120411878D01*
X181851513Y-120343009D01*
X181969183Y-120319603D01*
X182028017Y-120307900D01*
X182207983Y-120307900D01*
X182266817Y-120319603D01*
G37*
G36*
X126180422Y-120580905D02*
G01*
X126302948Y-120618073D01*
X126415868Y-120678430D01*
X126514843Y-120759657D01*
X126596070Y-120858632D01*
X126656427Y-120971552D01*
X126693595Y-121094078D01*
X126706145Y-121221500D01*
X126693595Y-121348922D01*
X126656427Y-121471448D01*
X126596070Y-121584368D01*
X126514843Y-121683343D01*
X126415868Y-121764570D01*
X126302948Y-121824927D01*
X126180422Y-121862095D01*
X126084932Y-121871500D01*
X125221068Y-121871500D01*
X125125578Y-121862095D01*
X125003052Y-121824927D01*
X124890132Y-121764570D01*
X124791157Y-121683343D01*
X124709930Y-121584368D01*
X124649573Y-121471448D01*
X124612405Y-121348922D01*
X124599855Y-121221500D01*
X124612405Y-121094078D01*
X124649573Y-120971552D01*
X124709930Y-120858632D01*
X124791157Y-120759657D01*
X124890132Y-120678430D01*
X125003052Y-120618073D01*
X125125578Y-120580905D01*
X125221068Y-120571500D01*
X126084932Y-120571500D01*
X126180422Y-120580905D01*
G37*
G36*
X95600422Y-120580905D02*
G01*
X95722948Y-120618073D01*
X95835868Y-120678430D01*
X95934843Y-120759657D01*
X96016070Y-120858632D01*
X96076427Y-120971552D01*
X96113595Y-121094078D01*
X96126145Y-121221500D01*
X96113595Y-121348922D01*
X96076427Y-121471448D01*
X96016070Y-121584368D01*
X95934843Y-121683343D01*
X95835868Y-121764570D01*
X95722948Y-121824927D01*
X95600422Y-121862095D01*
X95504932Y-121871500D01*
X94641068Y-121871500D01*
X94545578Y-121862095D01*
X94423052Y-121824927D01*
X94310132Y-121764570D01*
X94211157Y-121683343D01*
X94129930Y-121584368D01*
X94069573Y-121471448D01*
X94032405Y-121348922D01*
X94019855Y-121221500D01*
X94032405Y-121094078D01*
X94069573Y-120971552D01*
X94129930Y-120858632D01*
X94211157Y-120759657D01*
X94310132Y-120678430D01*
X94423052Y-120618073D01*
X94545578Y-120580905D01*
X94641068Y-120571500D01*
X95504932Y-120571500D01*
X95600422Y-120580905D01*
G37*
G36*
X123590422Y-120580905D02*
G01*
X123712948Y-120618073D01*
X123825868Y-120678430D01*
X123924843Y-120759657D01*
X124006070Y-120858632D01*
X124066427Y-120971552D01*
X124103595Y-121094078D01*
X124116145Y-121221500D01*
X124103595Y-121348922D01*
X124066427Y-121471448D01*
X124006070Y-121584368D01*
X123924843Y-121683343D01*
X123825868Y-121764570D01*
X123712948Y-121824927D01*
X123590422Y-121862095D01*
X123494932Y-121871500D01*
X122631068Y-121871500D01*
X122535578Y-121862095D01*
X122413052Y-121824927D01*
X122300132Y-121764570D01*
X122201157Y-121683343D01*
X122119930Y-121584368D01*
X122059573Y-121471448D01*
X122022405Y-121348922D01*
X122009855Y-121221500D01*
X122022405Y-121094078D01*
X122059573Y-120971552D01*
X122119930Y-120858632D01*
X122201157Y-120759657D01*
X122300132Y-120678430D01*
X122413052Y-120618073D01*
X122535578Y-120580905D01*
X122631068Y-120571500D01*
X123494932Y-120571500D01*
X123590422Y-120580905D01*
G37*
G36*
X98140422Y-120580905D02*
G01*
X98262948Y-120618073D01*
X98375868Y-120678430D01*
X98474843Y-120759657D01*
X98556070Y-120858632D01*
X98616427Y-120971552D01*
X98653595Y-121094078D01*
X98666145Y-121221500D01*
X98653595Y-121348922D01*
X98616427Y-121471448D01*
X98556070Y-121584368D01*
X98474843Y-121683343D01*
X98375868Y-121764570D01*
X98262948Y-121824927D01*
X98140422Y-121862095D01*
X98044932Y-121871500D01*
X97181068Y-121871500D01*
X97085578Y-121862095D01*
X96963052Y-121824927D01*
X96850132Y-121764570D01*
X96751157Y-121683343D01*
X96669930Y-121584368D01*
X96609573Y-121471448D01*
X96572405Y-121348922D01*
X96559855Y-121221500D01*
X96572405Y-121094078D01*
X96609573Y-120971552D01*
X96669930Y-120858632D01*
X96751157Y-120759657D01*
X96850132Y-120678430D01*
X96963052Y-120618073D01*
X97085578Y-120580905D01*
X97181068Y-120571500D01*
X98044932Y-120571500D01*
X98140422Y-120580905D01*
G37*
G36*
X143587561Y-119963557D02*
G01*
X143645520Y-119975086D01*
X143809310Y-120042930D01*
X143956717Y-120141424D01*
X144082076Y-120266783D01*
X144180570Y-120414190D01*
X144248414Y-120577980D01*
X144255038Y-120611284D01*
X144283000Y-120751856D01*
X144283000Y-120929144D01*
X144274564Y-120971552D01*
X144248414Y-121103020D01*
X144180570Y-121266810D01*
X144082076Y-121414217D01*
X143956717Y-121539576D01*
X143809310Y-121638070D01*
X143645520Y-121705914D01*
X143587561Y-121717443D01*
X143471644Y-121740500D01*
X143294356Y-121740500D01*
X143178439Y-121717443D01*
X143120480Y-121705914D01*
X142956690Y-121638070D01*
X142809283Y-121539576D01*
X142683924Y-121414217D01*
X142585430Y-121266810D01*
X142517586Y-121103020D01*
X142491436Y-120971552D01*
X142483000Y-120929144D01*
X142483000Y-120751856D01*
X142510962Y-120611284D01*
X142517586Y-120577980D01*
X142585430Y-120414190D01*
X142683924Y-120266783D01*
X142809283Y-120141424D01*
X142956690Y-120042930D01*
X143120480Y-119975086D01*
X143178439Y-119963557D01*
X143294356Y-119940500D01*
X143471644Y-119940500D01*
X143587561Y-119963557D01*
G37*
G36*
X141047561Y-119963557D02*
G01*
X141105520Y-119975086D01*
X141269310Y-120042930D01*
X141416717Y-120141424D01*
X141542076Y-120266783D01*
X141640570Y-120414190D01*
X141708414Y-120577980D01*
X141715038Y-120611284D01*
X141743000Y-120751856D01*
X141743000Y-120929144D01*
X141734564Y-120971552D01*
X141708414Y-121103020D01*
X141640570Y-121266810D01*
X141542076Y-121414217D01*
X141416717Y-121539576D01*
X141269310Y-121638070D01*
X141105520Y-121705914D01*
X141047561Y-121717443D01*
X140931644Y-121740500D01*
X140754356Y-121740500D01*
X140638439Y-121717443D01*
X140580480Y-121705914D01*
X140416690Y-121638070D01*
X140269283Y-121539576D01*
X140143924Y-121414217D01*
X140045430Y-121266810D01*
X139977586Y-121103020D01*
X139951436Y-120971552D01*
X139943000Y-120929144D01*
X139943000Y-120751856D01*
X139970962Y-120611284D01*
X139977586Y-120577980D01*
X140045430Y-120414190D01*
X140143924Y-120266783D01*
X140269283Y-120141424D01*
X140416690Y-120042930D01*
X140580480Y-119975086D01*
X140638439Y-119963557D01*
X140754356Y-119940500D01*
X140931644Y-119940500D01*
X141047561Y-119963557D01*
G37*
G36*
X138507561Y-119963557D02*
G01*
X138565520Y-119975086D01*
X138729310Y-120042930D01*
X138876717Y-120141424D01*
X139002076Y-120266783D01*
X139100570Y-120414190D01*
X139168414Y-120577980D01*
X139175038Y-120611284D01*
X139203000Y-120751856D01*
X139203000Y-120929144D01*
X139194564Y-120971552D01*
X139168414Y-121103020D01*
X139100570Y-121266810D01*
X139002076Y-121414217D01*
X138876717Y-121539576D01*
X138729310Y-121638070D01*
X138565520Y-121705914D01*
X138507561Y-121717443D01*
X138391644Y-121740500D01*
X138214356Y-121740500D01*
X138098439Y-121717443D01*
X138040480Y-121705914D01*
X137876690Y-121638070D01*
X137729283Y-121539576D01*
X137603924Y-121414217D01*
X137505430Y-121266810D01*
X137437586Y-121103020D01*
X137411436Y-120971552D01*
X137403000Y-120929144D01*
X137403000Y-120751856D01*
X137430962Y-120611284D01*
X137437586Y-120577980D01*
X137505430Y-120414190D01*
X137603924Y-120266783D01*
X137729283Y-120141424D01*
X137876690Y-120042930D01*
X138040480Y-119975086D01*
X138098439Y-119963557D01*
X138214356Y-119940500D01*
X138391644Y-119940500D01*
X138507561Y-119963557D01*
G37*
G36*
X136663000Y-121740500D02*
G01*
X134863000Y-121740500D01*
X134863000Y-119940500D01*
X136663000Y-119940500D01*
X136663000Y-121740500D01*
G37*
G36*
X148505216Y-120493619D02*
G01*
X148533309Y-120502141D01*
X148559204Y-120515983D01*
X148581896Y-120534604D01*
X148600517Y-120557296D01*
X148614359Y-120583191D01*
X148622881Y-120611284D01*
X148626000Y-120642954D01*
X148626000Y-121038046D01*
X148622881Y-121069716D01*
X148614359Y-121097809D01*
X148600517Y-121123704D01*
X148581896Y-121146396D01*
X148559204Y-121165017D01*
X148533309Y-121178859D01*
X148505216Y-121187381D01*
X148473546Y-121190500D01*
X146928454Y-121190500D01*
X146896784Y-121187381D01*
X146868691Y-121178859D01*
X146842796Y-121165017D01*
X146820104Y-121146396D01*
X146801483Y-121123704D01*
X146787641Y-121097809D01*
X146779119Y-121069716D01*
X146776000Y-121038046D01*
X146776000Y-120642954D01*
X146779119Y-120611284D01*
X146787641Y-120583191D01*
X146801483Y-120557296D01*
X146820104Y-120534604D01*
X146842796Y-120515983D01*
X146868691Y-120502141D01*
X146896784Y-120493619D01*
X146928454Y-120490500D01*
X148473546Y-120490500D01*
X148505216Y-120493619D01*
G37*
G36*
X153655216Y-120493619D02*
G01*
X153683309Y-120502141D01*
X153709204Y-120515983D01*
X153731896Y-120534604D01*
X153750517Y-120557296D01*
X153764359Y-120583191D01*
X153772881Y-120611284D01*
X153776000Y-120642954D01*
X153776000Y-121038046D01*
X153772881Y-121069716D01*
X153764359Y-121097809D01*
X153750517Y-121123704D01*
X153731896Y-121146396D01*
X153709204Y-121165017D01*
X153683309Y-121178859D01*
X153655216Y-121187381D01*
X153623546Y-121190500D01*
X152078454Y-121190500D01*
X152046784Y-121187381D01*
X152018691Y-121178859D01*
X151992796Y-121165017D01*
X151970104Y-121146396D01*
X151951483Y-121123704D01*
X151937641Y-121097809D01*
X151929119Y-121069716D01*
X151926000Y-121038046D01*
X151926000Y-120642954D01*
X151929119Y-120611284D01*
X151937641Y-120583191D01*
X151951483Y-120557296D01*
X151970104Y-120534604D01*
X151992796Y-120515983D01*
X152018691Y-120502141D01*
X152046784Y-120493619D01*
X152078454Y-120490500D01*
X153623546Y-120490500D01*
X153655216Y-120493619D01*
G37*
G36*
X153655216Y-119223619D02*
G01*
X153683309Y-119232141D01*
X153709204Y-119245983D01*
X153731896Y-119264604D01*
X153750517Y-119287296D01*
X153764359Y-119313191D01*
X153772881Y-119341284D01*
X153776000Y-119372954D01*
X153776000Y-119768046D01*
X153772881Y-119799716D01*
X153764359Y-119827809D01*
X153750517Y-119853704D01*
X153731896Y-119876396D01*
X153709204Y-119895017D01*
X153683309Y-119908859D01*
X153655216Y-119917381D01*
X153623546Y-119920500D01*
X152078454Y-119920500D01*
X152046784Y-119917381D01*
X152018691Y-119908859D01*
X151992796Y-119895017D01*
X151970104Y-119876396D01*
X151951483Y-119853704D01*
X151937641Y-119827809D01*
X151929119Y-119799716D01*
X151926000Y-119768046D01*
X151926000Y-119372954D01*
X151929119Y-119341284D01*
X151937641Y-119313191D01*
X151951483Y-119287296D01*
X151970104Y-119264604D01*
X151992796Y-119245983D01*
X152018691Y-119232141D01*
X152046784Y-119223619D01*
X152078454Y-119220500D01*
X153623546Y-119220500D01*
X153655216Y-119223619D01*
G37*
G36*
X148505216Y-119223619D02*
G01*
X148533309Y-119232141D01*
X148559204Y-119245983D01*
X148581896Y-119264604D01*
X148600517Y-119287296D01*
X148614359Y-119313191D01*
X148622881Y-119341284D01*
X148626000Y-119372954D01*
X148626000Y-119768046D01*
X148622881Y-119799716D01*
X148614359Y-119827809D01*
X148600517Y-119853704D01*
X148581896Y-119876396D01*
X148559204Y-119895017D01*
X148533309Y-119908859D01*
X148505216Y-119917381D01*
X148473546Y-119920500D01*
X146928454Y-119920500D01*
X146896784Y-119917381D01*
X146868691Y-119908859D01*
X146842796Y-119895017D01*
X146820104Y-119876396D01*
X146801483Y-119853704D01*
X146787641Y-119827809D01*
X146779119Y-119799716D01*
X146776000Y-119768046D01*
X146776000Y-119372954D01*
X146779119Y-119341284D01*
X146787641Y-119313191D01*
X146801483Y-119287296D01*
X146820104Y-119264604D01*
X146842796Y-119245983D01*
X146868691Y-119232141D01*
X146896784Y-119223619D01*
X146928454Y-119220500D01*
X148473546Y-119220500D01*
X148505216Y-119223619D01*
G37*
G36*
X126180422Y-118040905D02*
G01*
X126302948Y-118078073D01*
X126415868Y-118138430D01*
X126514843Y-118219657D01*
X126596070Y-118318632D01*
X126656427Y-118431552D01*
X126693595Y-118554078D01*
X126706145Y-118681500D01*
X126693595Y-118808922D01*
X126656427Y-118931448D01*
X126596070Y-119044368D01*
X126514843Y-119143343D01*
X126415868Y-119224570D01*
X126302948Y-119284927D01*
X126180422Y-119322095D01*
X126084932Y-119331500D01*
X125221068Y-119331500D01*
X125125578Y-119322095D01*
X125003052Y-119284927D01*
X124890132Y-119224570D01*
X124791157Y-119143343D01*
X124709930Y-119044368D01*
X124649573Y-118931448D01*
X124612405Y-118808922D01*
X124599855Y-118681500D01*
X124612405Y-118554078D01*
X124649573Y-118431552D01*
X124709930Y-118318632D01*
X124791157Y-118219657D01*
X124890132Y-118138430D01*
X125003052Y-118078073D01*
X125125578Y-118040905D01*
X125221068Y-118031500D01*
X126084932Y-118031500D01*
X126180422Y-118040905D01*
G37*
G36*
X98140422Y-118040905D02*
G01*
X98262948Y-118078073D01*
X98375868Y-118138430D01*
X98474843Y-118219657D01*
X98556070Y-118318632D01*
X98616427Y-118431552D01*
X98653595Y-118554078D01*
X98666145Y-118681500D01*
X98653595Y-118808922D01*
X98616427Y-118931448D01*
X98556070Y-119044368D01*
X98474843Y-119143343D01*
X98375868Y-119224570D01*
X98262948Y-119284927D01*
X98140422Y-119322095D01*
X98044932Y-119331500D01*
X97181068Y-119331500D01*
X97085578Y-119322095D01*
X96963052Y-119284927D01*
X96850132Y-119224570D01*
X96751157Y-119143343D01*
X96669930Y-119044368D01*
X96609573Y-118931448D01*
X96572405Y-118808922D01*
X96559855Y-118681500D01*
X96572405Y-118554078D01*
X96609573Y-118431552D01*
X96669930Y-118318632D01*
X96751157Y-118219657D01*
X96850132Y-118138430D01*
X96963052Y-118078073D01*
X97085578Y-118040905D01*
X97181068Y-118031500D01*
X98044932Y-118031500D01*
X98140422Y-118040905D01*
G37*
G36*
X123590422Y-118040905D02*
G01*
X123712948Y-118078073D01*
X123825868Y-118138430D01*
X123924843Y-118219657D01*
X124006070Y-118318632D01*
X124066427Y-118431552D01*
X124103595Y-118554078D01*
X124116145Y-118681500D01*
X124103595Y-118808922D01*
X124066427Y-118931448D01*
X124006070Y-119044368D01*
X123924843Y-119143343D01*
X123825868Y-119224570D01*
X123712948Y-119284927D01*
X123590422Y-119322095D01*
X123494932Y-119331500D01*
X122631068Y-119331500D01*
X122535578Y-119322095D01*
X122413052Y-119284927D01*
X122300132Y-119224570D01*
X122201157Y-119143343D01*
X122119930Y-119044368D01*
X122059573Y-118931448D01*
X122022405Y-118808922D01*
X122009855Y-118681500D01*
X122022405Y-118554078D01*
X122059573Y-118431552D01*
X122119930Y-118318632D01*
X122201157Y-118219657D01*
X122300132Y-118138430D01*
X122413052Y-118078073D01*
X122535578Y-118040905D01*
X122631068Y-118031500D01*
X123494932Y-118031500D01*
X123590422Y-118040905D01*
G37*
G36*
X95600422Y-118040905D02*
G01*
X95722948Y-118078073D01*
X95835868Y-118138430D01*
X95934843Y-118219657D01*
X96016070Y-118318632D01*
X96076427Y-118431552D01*
X96113595Y-118554078D01*
X96126145Y-118681500D01*
X96113595Y-118808922D01*
X96076427Y-118931448D01*
X96016070Y-119044368D01*
X95934843Y-119143343D01*
X95835868Y-119224570D01*
X95722948Y-119284927D01*
X95600422Y-119322095D01*
X95504932Y-119331500D01*
X94641068Y-119331500D01*
X94545578Y-119322095D01*
X94423052Y-119284927D01*
X94310132Y-119224570D01*
X94211157Y-119143343D01*
X94129930Y-119044368D01*
X94069573Y-118931448D01*
X94032405Y-118808922D01*
X94019855Y-118681500D01*
X94032405Y-118554078D01*
X94069573Y-118431552D01*
X94129930Y-118318632D01*
X94211157Y-118219657D01*
X94310132Y-118138430D01*
X94423052Y-118078073D01*
X94545578Y-118040905D01*
X94641068Y-118031500D01*
X95504932Y-118031500D01*
X95600422Y-118040905D01*
G37*
G36*
X126180422Y-115500905D02*
G01*
X126302948Y-115538073D01*
X126415868Y-115598430D01*
X126514843Y-115679657D01*
X126596070Y-115778632D01*
X126656427Y-115891552D01*
X126693595Y-116014078D01*
X126706145Y-116141500D01*
X126693595Y-116268922D01*
X126656427Y-116391448D01*
X126596070Y-116504368D01*
X126514843Y-116603343D01*
X126415868Y-116684570D01*
X126302948Y-116744927D01*
X126180422Y-116782095D01*
X126084932Y-116791500D01*
X125221068Y-116791500D01*
X125125578Y-116782095D01*
X125003052Y-116744927D01*
X124890132Y-116684570D01*
X124791157Y-116603343D01*
X124709930Y-116504368D01*
X124649573Y-116391448D01*
X124612405Y-116268922D01*
X124599855Y-116141500D01*
X124612405Y-116014078D01*
X124649573Y-115891552D01*
X124709930Y-115778632D01*
X124791157Y-115679657D01*
X124890132Y-115598430D01*
X125003052Y-115538073D01*
X125125578Y-115500905D01*
X125221068Y-115491500D01*
X126084932Y-115491500D01*
X126180422Y-115500905D01*
G37*
G36*
X123590422Y-115500905D02*
G01*
X123712948Y-115538073D01*
X123825868Y-115598430D01*
X123924843Y-115679657D01*
X124006070Y-115778632D01*
X124066427Y-115891552D01*
X124103595Y-116014078D01*
X124116145Y-116141500D01*
X124103595Y-116268922D01*
X124066427Y-116391448D01*
X124006070Y-116504368D01*
X123924843Y-116603343D01*
X123825868Y-116684570D01*
X123712948Y-116744927D01*
X123590422Y-116782095D01*
X123494932Y-116791500D01*
X122631068Y-116791500D01*
X122535578Y-116782095D01*
X122413052Y-116744927D01*
X122300132Y-116684570D01*
X122201157Y-116603343D01*
X122119930Y-116504368D01*
X122059573Y-116391448D01*
X122022405Y-116268922D01*
X122009855Y-116141500D01*
X122022405Y-116014078D01*
X122059573Y-115891552D01*
X122119930Y-115778632D01*
X122201157Y-115679657D01*
X122300132Y-115598430D01*
X122413052Y-115538073D01*
X122535578Y-115500905D01*
X122631068Y-115491500D01*
X123494932Y-115491500D01*
X123590422Y-115500905D01*
G37*
G36*
X98140422Y-115500905D02*
G01*
X98262948Y-115538073D01*
X98375868Y-115598430D01*
X98474843Y-115679657D01*
X98556070Y-115778632D01*
X98616427Y-115891552D01*
X98653595Y-116014078D01*
X98666145Y-116141500D01*
X98653595Y-116268922D01*
X98616427Y-116391448D01*
X98556070Y-116504368D01*
X98474843Y-116603343D01*
X98375868Y-116684570D01*
X98262948Y-116744927D01*
X98140422Y-116782095D01*
X98044932Y-116791500D01*
X97181068Y-116791500D01*
X97085578Y-116782095D01*
X96963052Y-116744927D01*
X96850132Y-116684570D01*
X96751157Y-116603343D01*
X96669930Y-116504368D01*
X96609573Y-116391448D01*
X96572405Y-116268922D01*
X96559855Y-116141500D01*
X96572405Y-116014078D01*
X96609573Y-115891552D01*
X96669930Y-115778632D01*
X96751157Y-115679657D01*
X96850132Y-115598430D01*
X96963052Y-115538073D01*
X97085578Y-115500905D01*
X97181068Y-115491500D01*
X98044932Y-115491500D01*
X98140422Y-115500905D01*
G37*
G36*
X95600422Y-115500905D02*
G01*
X95722948Y-115538073D01*
X95835868Y-115598430D01*
X95934843Y-115679657D01*
X96016070Y-115778632D01*
X96076427Y-115891552D01*
X96113595Y-116014078D01*
X96126145Y-116141500D01*
X96113595Y-116268922D01*
X96076427Y-116391448D01*
X96016070Y-116504368D01*
X95934843Y-116603343D01*
X95835868Y-116684570D01*
X95722948Y-116744927D01*
X95600422Y-116782095D01*
X95504932Y-116791500D01*
X94641068Y-116791500D01*
X94545578Y-116782095D01*
X94423052Y-116744927D01*
X94310132Y-116684570D01*
X94211157Y-116603343D01*
X94129930Y-116504368D01*
X94069573Y-116391448D01*
X94032405Y-116268922D01*
X94019855Y-116141500D01*
X94032405Y-116014078D01*
X94069573Y-115891552D01*
X94129930Y-115778632D01*
X94211157Y-115679657D01*
X94310132Y-115598430D01*
X94423052Y-115538073D01*
X94545578Y-115500905D01*
X94641068Y-115491500D01*
X95504932Y-115491500D01*
X95600422Y-115500905D01*
G37*
G36*
X114205500Y-115958500D02*
G01*
X113505500Y-115958500D01*
X113505500Y-114358500D01*
X114205500Y-114358500D01*
X114205500Y-115958500D01*
G37*
G36*
X112935500Y-115958500D02*
G01*
X112235500Y-115958500D01*
X112235500Y-114358500D01*
X112935500Y-114358500D01*
X112935500Y-115958500D01*
G37*
G36*
X110395500Y-115958500D02*
G01*
X109695500Y-115958500D01*
X109695500Y-114358500D01*
X110395500Y-114358500D01*
X110395500Y-115958500D01*
G37*
G36*
X109125500Y-115958500D02*
G01*
X108425500Y-115958500D01*
X108425500Y-114358500D01*
X109125500Y-114358500D01*
X109125500Y-115958500D01*
G37*
G36*
X107855500Y-115958500D02*
G01*
X107155500Y-115958500D01*
X107155500Y-114358500D01*
X107855500Y-114358500D01*
X107855500Y-115958500D01*
G37*
G36*
X115475500Y-115958500D02*
G01*
X114775500Y-115958500D01*
X114775500Y-114358500D01*
X115475500Y-114358500D01*
X115475500Y-115958500D01*
G37*
G36*
X111665500Y-115958500D02*
G01*
X110965500Y-115958500D01*
X110965500Y-114358500D01*
X111665500Y-114358500D01*
X111665500Y-115958500D01*
G37*
G36*
X138605495Y-110507309D02*
G01*
X138605498Y-110507310D01*
X138605497Y-110507310D01*
X138984397Y-110664255D01*
X139325398Y-110892105D01*
X139615395Y-111182102D01*
X139843245Y-111523103D01*
X139921281Y-111711500D01*
X140000191Y-111902005D01*
X140080200Y-112304239D01*
X140080200Y-112714361D01*
X140000191Y-113116595D01*
X140000190Y-113116597D01*
X139843245Y-113495497D01*
X139615395Y-113836498D01*
X139325398Y-114126495D01*
X138984397Y-114354345D01*
X138670505Y-114484363D01*
X138605495Y-114511291D01*
X138203261Y-114591300D01*
X137793139Y-114591300D01*
X137390905Y-114511291D01*
X137325895Y-114484363D01*
X137012003Y-114354345D01*
X136671002Y-114126495D01*
X136381005Y-113836498D01*
X136153155Y-113495497D01*
X135996210Y-113116597D01*
X135996209Y-113116595D01*
X135916200Y-112714361D01*
X135916200Y-112304239D01*
X135996209Y-111902005D01*
X136075119Y-111711500D01*
X136153155Y-111523103D01*
X136381005Y-111182102D01*
X136671002Y-110892105D01*
X137012003Y-110664255D01*
X137390903Y-110507310D01*
X137390902Y-110507310D01*
X137390905Y-110507309D01*
X137793139Y-110427300D01*
X138203261Y-110427300D01*
X138605495Y-110507309D01*
G37*
G36*
X126180422Y-112960905D02*
G01*
X126302948Y-112998073D01*
X126415868Y-113058430D01*
X126514843Y-113139657D01*
X126596070Y-113238632D01*
X126656427Y-113351552D01*
X126693595Y-113474078D01*
X126706145Y-113601500D01*
X126693595Y-113728922D01*
X126656427Y-113851448D01*
X126596070Y-113964368D01*
X126514843Y-114063343D01*
X126415868Y-114144570D01*
X126302948Y-114204927D01*
X126180422Y-114242095D01*
X126084932Y-114251500D01*
X125221068Y-114251500D01*
X125125578Y-114242095D01*
X125003052Y-114204927D01*
X124890132Y-114144570D01*
X124791157Y-114063343D01*
X124709930Y-113964368D01*
X124649573Y-113851448D01*
X124612405Y-113728922D01*
X124599855Y-113601500D01*
X124612405Y-113474078D01*
X124649573Y-113351552D01*
X124709930Y-113238632D01*
X124791157Y-113139657D01*
X124890132Y-113058430D01*
X125003052Y-112998073D01*
X125125578Y-112960905D01*
X125221068Y-112951500D01*
X126084932Y-112951500D01*
X126180422Y-112960905D01*
G37*
G36*
X123590422Y-112960905D02*
G01*
X123712948Y-112998073D01*
X123825868Y-113058430D01*
X123924843Y-113139657D01*
X124006070Y-113238632D01*
X124066427Y-113351552D01*
X124103595Y-113474078D01*
X124116145Y-113601500D01*
X124103595Y-113728922D01*
X124066427Y-113851448D01*
X124006070Y-113964368D01*
X123924843Y-114063343D01*
X123825868Y-114144570D01*
X123712948Y-114204927D01*
X123590422Y-114242095D01*
X123494932Y-114251500D01*
X122631068Y-114251500D01*
X122535578Y-114242095D01*
X122413052Y-114204927D01*
X122300132Y-114144570D01*
X122201157Y-114063343D01*
X122119930Y-113964368D01*
X122059573Y-113851448D01*
X122022405Y-113728922D01*
X122009855Y-113601500D01*
X122022405Y-113474078D01*
X122059573Y-113351552D01*
X122119930Y-113238632D01*
X122201157Y-113139657D01*
X122300132Y-113058430D01*
X122413052Y-112998073D01*
X122535578Y-112960905D01*
X122631068Y-112951500D01*
X123494932Y-112951500D01*
X123590422Y-112960905D01*
G37*
G36*
X98140422Y-112960905D02*
G01*
X98262948Y-112998073D01*
X98375868Y-113058430D01*
X98474843Y-113139657D01*
X98556070Y-113238632D01*
X98616427Y-113351552D01*
X98653595Y-113474078D01*
X98666145Y-113601500D01*
X98653595Y-113728922D01*
X98616427Y-113851448D01*
X98556070Y-113964368D01*
X98474843Y-114063343D01*
X98375868Y-114144570D01*
X98262948Y-114204927D01*
X98140422Y-114242095D01*
X98044932Y-114251500D01*
X97181068Y-114251500D01*
X97085578Y-114242095D01*
X96963052Y-114204927D01*
X96850132Y-114144570D01*
X96751157Y-114063343D01*
X96669930Y-113964368D01*
X96609573Y-113851448D01*
X96572405Y-113728922D01*
X96559855Y-113601500D01*
X96572405Y-113474078D01*
X96609573Y-113351552D01*
X96669930Y-113238632D01*
X96751157Y-113139657D01*
X96850132Y-113058430D01*
X96963052Y-112998073D01*
X97085578Y-112960905D01*
X97181068Y-112951500D01*
X98044932Y-112951500D01*
X98140422Y-112960905D01*
G37*
G36*
X95600422Y-112960905D02*
G01*
X95722948Y-112998073D01*
X95835868Y-113058430D01*
X95934843Y-113139657D01*
X96016070Y-113238632D01*
X96076427Y-113351552D01*
X96113595Y-113474078D01*
X96126145Y-113601500D01*
X96113595Y-113728922D01*
X96076427Y-113851448D01*
X96016070Y-113964368D01*
X95934843Y-114063343D01*
X95835868Y-114144570D01*
X95722948Y-114204927D01*
X95600422Y-114242095D01*
X95504932Y-114251500D01*
X94641068Y-114251500D01*
X94545578Y-114242095D01*
X94423052Y-114204927D01*
X94310132Y-114144570D01*
X94211157Y-114063343D01*
X94129930Y-113964368D01*
X94069573Y-113851448D01*
X94032405Y-113728922D01*
X94019855Y-113601500D01*
X94032405Y-113474078D01*
X94069573Y-113351552D01*
X94129930Y-113238632D01*
X94211157Y-113139657D01*
X94310132Y-113058430D01*
X94423052Y-112998073D01*
X94545578Y-112960905D01*
X94641068Y-112951500D01*
X95504932Y-112951500D01*
X95600422Y-112960905D01*
G37*
G36*
X98140422Y-110420905D02*
G01*
X98262948Y-110458073D01*
X98375868Y-110518430D01*
X98474843Y-110599657D01*
X98556070Y-110698632D01*
X98616427Y-110811552D01*
X98653595Y-110934078D01*
X98666145Y-111061500D01*
X98653595Y-111188922D01*
X98616427Y-111311448D01*
X98556070Y-111424368D01*
X98474843Y-111523343D01*
X98375868Y-111604570D01*
X98262948Y-111664927D01*
X98140422Y-111702095D01*
X98044932Y-111711500D01*
X97181068Y-111711500D01*
X97085578Y-111702095D01*
X96963052Y-111664927D01*
X96850132Y-111604570D01*
X96751157Y-111523343D01*
X96669930Y-111424368D01*
X96609573Y-111311448D01*
X96572405Y-111188922D01*
X96559855Y-111061500D01*
X96572405Y-110934078D01*
X96609573Y-110811552D01*
X96669930Y-110698632D01*
X96751157Y-110599657D01*
X96850132Y-110518430D01*
X96963052Y-110458073D01*
X97085578Y-110420905D01*
X97181068Y-110411500D01*
X98044932Y-110411500D01*
X98140422Y-110420905D01*
G37*
G36*
X126180422Y-110420905D02*
G01*
X126302948Y-110458073D01*
X126415868Y-110518430D01*
X126514843Y-110599657D01*
X126596070Y-110698632D01*
X126656427Y-110811552D01*
X126693595Y-110934078D01*
X126706145Y-111061500D01*
X126693595Y-111188922D01*
X126656427Y-111311448D01*
X126596070Y-111424368D01*
X126514843Y-111523343D01*
X126415868Y-111604570D01*
X126302948Y-111664927D01*
X126180422Y-111702095D01*
X126084932Y-111711500D01*
X125221068Y-111711500D01*
X125125578Y-111702095D01*
X125003052Y-111664927D01*
X124890132Y-111604570D01*
X124791157Y-111523343D01*
X124709930Y-111424368D01*
X124649573Y-111311448D01*
X124612405Y-111188922D01*
X124599855Y-111061500D01*
X124612405Y-110934078D01*
X124649573Y-110811552D01*
X124709930Y-110698632D01*
X124791157Y-110599657D01*
X124890132Y-110518430D01*
X125003052Y-110458073D01*
X125125578Y-110420905D01*
X125221068Y-110411500D01*
X126084932Y-110411500D01*
X126180422Y-110420905D01*
G37*
G36*
X123590422Y-110420905D02*
G01*
X123712948Y-110458073D01*
X123825868Y-110518430D01*
X123924843Y-110599657D01*
X124006070Y-110698632D01*
X124066427Y-110811552D01*
X124103595Y-110934078D01*
X124116145Y-111061500D01*
X124103595Y-111188922D01*
X124066427Y-111311448D01*
X124006070Y-111424368D01*
X123924843Y-111523343D01*
X123825868Y-111604570D01*
X123712948Y-111664927D01*
X123590422Y-111702095D01*
X123494932Y-111711500D01*
X122631068Y-111711500D01*
X122535578Y-111702095D01*
X122413052Y-111664927D01*
X122300132Y-111604570D01*
X122201157Y-111523343D01*
X122119930Y-111424368D01*
X122059573Y-111311448D01*
X122022405Y-111188922D01*
X122009855Y-111061500D01*
X122022405Y-110934078D01*
X122059573Y-110811552D01*
X122119930Y-110698632D01*
X122201157Y-110599657D01*
X122300132Y-110518430D01*
X122413052Y-110458073D01*
X122535578Y-110420905D01*
X122631068Y-110411500D01*
X123494932Y-110411500D01*
X123590422Y-110420905D01*
G37*
G36*
X95600422Y-110420905D02*
G01*
X95722948Y-110458073D01*
X95835868Y-110518430D01*
X95934843Y-110599657D01*
X96016070Y-110698632D01*
X96076427Y-110811552D01*
X96113595Y-110934078D01*
X96126145Y-111061500D01*
X96113595Y-111188922D01*
X96076427Y-111311448D01*
X96016070Y-111424368D01*
X95934843Y-111523343D01*
X95835868Y-111604570D01*
X95722948Y-111664927D01*
X95600422Y-111702095D01*
X95504932Y-111711500D01*
X94641068Y-111711500D01*
X94545578Y-111702095D01*
X94423052Y-111664927D01*
X94310132Y-111604570D01*
X94211157Y-111523343D01*
X94129930Y-111424368D01*
X94069573Y-111311448D01*
X94032405Y-111188922D01*
X94019855Y-111061500D01*
X94032405Y-110934078D01*
X94069573Y-110811552D01*
X94129930Y-110698632D01*
X94211157Y-110599657D01*
X94310132Y-110518430D01*
X94423052Y-110458073D01*
X94545578Y-110420905D01*
X94641068Y-110411500D01*
X95504932Y-110411500D01*
X95600422Y-110420905D01*
G37*
G36*
X114205500Y-110558500D02*
G01*
X113505500Y-110558500D01*
X113505500Y-108958500D01*
X114205500Y-108958500D01*
X114205500Y-110558500D01*
G37*
G36*
X107855500Y-110558500D02*
G01*
X107155500Y-110558500D01*
X107155500Y-108958500D01*
X107855500Y-108958500D01*
X107855500Y-110558500D01*
G37*
G36*
X109125500Y-110558500D02*
G01*
X108425500Y-110558500D01*
X108425500Y-108958500D01*
X109125500Y-108958500D01*
X109125500Y-110558500D01*
G37*
G36*
X110395500Y-110558500D02*
G01*
X109695500Y-110558500D01*
X109695500Y-108958500D01*
X110395500Y-108958500D01*
X110395500Y-110558500D01*
G37*
G36*
X111665500Y-110558500D02*
G01*
X110965500Y-110558500D01*
X110965500Y-108958500D01*
X111665500Y-108958500D01*
X111665500Y-110558500D01*
G37*
G36*
X112935500Y-110558500D02*
G01*
X112235500Y-110558500D01*
X112235500Y-108958500D01*
X112935500Y-108958500D01*
X112935500Y-110558500D01*
G37*
G36*
X115475500Y-110558500D02*
G01*
X114775500Y-110558500D01*
X114775500Y-108958500D01*
X115475500Y-108958500D01*
X115475500Y-110558500D01*
G37*
G36*
X179726817Y-108254603D02*
G01*
X179844487Y-108278009D01*
X180010752Y-108346878D01*
X180160386Y-108446860D01*
X180287640Y-108574114D01*
X180387622Y-108723748D01*
X180456491Y-108890013D01*
X180491600Y-109066518D01*
X180491600Y-109246482D01*
X180456491Y-109422987D01*
X180387622Y-109589252D01*
X180287640Y-109738886D01*
X180160386Y-109866140D01*
X180010752Y-109966122D01*
X179844487Y-110034991D01*
X179726817Y-110058397D01*
X179667983Y-110070100D01*
X179488017Y-110070100D01*
X179429183Y-110058397D01*
X179311513Y-110034991D01*
X179145248Y-109966122D01*
X178995614Y-109866140D01*
X178868360Y-109738886D01*
X178768378Y-109589252D01*
X178699509Y-109422987D01*
X178664400Y-109246482D01*
X178664400Y-109066518D01*
X178699509Y-108890013D01*
X178768378Y-108723748D01*
X178868360Y-108574114D01*
X178995614Y-108446860D01*
X179145248Y-108346878D01*
X179311513Y-108278009D01*
X179429183Y-108254603D01*
X179488017Y-108242900D01*
X179667983Y-108242900D01*
X179726817Y-108254603D01*
G37*
G36*
X182266817Y-108254603D02*
G01*
X182384487Y-108278009D01*
X182550752Y-108346878D01*
X182700386Y-108446860D01*
X182827640Y-108574114D01*
X182927622Y-108723748D01*
X182996491Y-108890013D01*
X183031600Y-109066518D01*
X183031600Y-109246482D01*
X182996491Y-109422987D01*
X182927622Y-109589252D01*
X182827640Y-109738886D01*
X182700386Y-109866140D01*
X182550752Y-109966122D01*
X182384487Y-110034991D01*
X182266817Y-110058397D01*
X182207983Y-110070100D01*
X182028017Y-110070100D01*
X181969183Y-110058397D01*
X181851513Y-110034991D01*
X181685248Y-109966122D01*
X181535614Y-109866140D01*
X181408360Y-109738886D01*
X181308378Y-109589252D01*
X181239509Y-109422987D01*
X181204400Y-109246482D01*
X181204400Y-109066518D01*
X181239509Y-108890013D01*
X181308378Y-108723748D01*
X181408360Y-108574114D01*
X181535614Y-108446860D01*
X181685248Y-108346878D01*
X181851513Y-108278009D01*
X181969183Y-108254603D01*
X182028017Y-108242900D01*
X182207983Y-108242900D01*
X182266817Y-108254603D01*
G37*
G36*
X184806817Y-108254603D02*
G01*
X184924487Y-108278009D01*
X185090752Y-108346878D01*
X185240386Y-108446860D01*
X185367640Y-108574114D01*
X185467622Y-108723748D01*
X185536491Y-108890013D01*
X185571600Y-109066518D01*
X185571600Y-109246482D01*
X185536491Y-109422987D01*
X185467622Y-109589252D01*
X185367640Y-109738886D01*
X185240386Y-109866140D01*
X185090752Y-109966122D01*
X184924487Y-110034991D01*
X184806817Y-110058397D01*
X184747983Y-110070100D01*
X184568017Y-110070100D01*
X184509183Y-110058397D01*
X184391513Y-110034991D01*
X184225248Y-109966122D01*
X184075614Y-109866140D01*
X183948360Y-109738886D01*
X183848378Y-109589252D01*
X183779509Y-109422987D01*
X183744400Y-109246482D01*
X183744400Y-109066518D01*
X183779509Y-108890013D01*
X183848378Y-108723748D01*
X183948360Y-108574114D01*
X184075614Y-108446860D01*
X184225248Y-108346878D01*
X184391513Y-108278009D01*
X184509183Y-108254603D01*
X184568017Y-108242900D01*
X184747983Y-108242900D01*
X184806817Y-108254603D01*
G37*
G36*
X187346817Y-108254603D02*
G01*
X187464487Y-108278009D01*
X187630752Y-108346878D01*
X187780386Y-108446860D01*
X187907640Y-108574114D01*
X188007622Y-108723748D01*
X188076491Y-108890013D01*
X188111600Y-109066518D01*
X188111600Y-109246482D01*
X188076491Y-109422987D01*
X188007622Y-109589252D01*
X187907640Y-109738886D01*
X187780386Y-109866140D01*
X187630752Y-109966122D01*
X187464487Y-110034991D01*
X187346817Y-110058397D01*
X187287983Y-110070100D01*
X187108017Y-110070100D01*
X187049183Y-110058397D01*
X186931513Y-110034991D01*
X186765248Y-109966122D01*
X186615614Y-109866140D01*
X186488360Y-109738886D01*
X186388378Y-109589252D01*
X186319509Y-109422987D01*
X186284400Y-109246482D01*
X186284400Y-109066518D01*
X186319509Y-108890013D01*
X186388378Y-108723748D01*
X186488360Y-108574114D01*
X186615614Y-108446860D01*
X186765248Y-108346878D01*
X186931513Y-108278009D01*
X187049183Y-108254603D01*
X187108017Y-108242900D01*
X187287983Y-108242900D01*
X187346817Y-108254603D01*
G37*
G36*
X177186817Y-108254603D02*
G01*
X177304487Y-108278009D01*
X177470752Y-108346878D01*
X177620386Y-108446860D01*
X177747640Y-108574114D01*
X177847622Y-108723748D01*
X177916491Y-108890013D01*
X177951600Y-109066518D01*
X177951600Y-109246482D01*
X177916491Y-109422987D01*
X177847622Y-109589252D01*
X177747640Y-109738886D01*
X177620386Y-109866140D01*
X177470752Y-109966122D01*
X177304487Y-110034991D01*
X177186817Y-110058397D01*
X177127983Y-110070100D01*
X176948017Y-110070100D01*
X176889183Y-110058397D01*
X176771513Y-110034991D01*
X176605248Y-109966122D01*
X176455614Y-109866140D01*
X176328360Y-109738886D01*
X176228378Y-109589252D01*
X176159509Y-109422987D01*
X176124400Y-109246482D01*
X176124400Y-109066518D01*
X176159509Y-108890013D01*
X176228378Y-108723748D01*
X176328360Y-108574114D01*
X176455614Y-108446860D01*
X176605248Y-108346878D01*
X176771513Y-108278009D01*
X176889183Y-108254603D01*
X176948017Y-108242900D01*
X177127983Y-108242900D01*
X177186817Y-108254603D01*
G37*
G36*
X123590422Y-107880905D02*
G01*
X123712948Y-107918073D01*
X123825868Y-107978430D01*
X123924843Y-108059657D01*
X124006070Y-108158632D01*
X124066427Y-108271552D01*
X124103595Y-108394078D01*
X124116145Y-108521500D01*
X124103595Y-108648922D01*
X124066427Y-108771448D01*
X124006070Y-108884368D01*
X123924843Y-108983343D01*
X123825868Y-109064570D01*
X123712948Y-109124927D01*
X123590422Y-109162095D01*
X123494932Y-109171500D01*
X122631068Y-109171500D01*
X122535578Y-109162095D01*
X122413052Y-109124927D01*
X122300132Y-109064570D01*
X122201157Y-108983343D01*
X122119930Y-108884368D01*
X122059573Y-108771448D01*
X122022405Y-108648922D01*
X122009855Y-108521500D01*
X122022405Y-108394078D01*
X122059573Y-108271552D01*
X122119930Y-108158632D01*
X122201157Y-108059657D01*
X122300132Y-107978430D01*
X122413052Y-107918073D01*
X122535578Y-107880905D01*
X122631068Y-107871500D01*
X123494932Y-107871500D01*
X123590422Y-107880905D01*
G37*
G36*
X98140422Y-107880905D02*
G01*
X98262948Y-107918073D01*
X98375868Y-107978430D01*
X98474843Y-108059657D01*
X98556070Y-108158632D01*
X98616427Y-108271552D01*
X98653595Y-108394078D01*
X98666145Y-108521500D01*
X98653595Y-108648922D01*
X98616427Y-108771448D01*
X98556070Y-108884368D01*
X98474843Y-108983343D01*
X98375868Y-109064570D01*
X98262948Y-109124927D01*
X98140422Y-109162095D01*
X98044932Y-109171500D01*
X97181068Y-109171500D01*
X97085578Y-109162095D01*
X96963052Y-109124927D01*
X96850132Y-109064570D01*
X96751157Y-108983343D01*
X96669930Y-108884368D01*
X96609573Y-108771448D01*
X96572405Y-108648922D01*
X96559855Y-108521500D01*
X96572405Y-108394078D01*
X96609573Y-108271552D01*
X96669930Y-108158632D01*
X96751157Y-108059657D01*
X96850132Y-107978430D01*
X96963052Y-107918073D01*
X97085578Y-107880905D01*
X97181068Y-107871500D01*
X98044932Y-107871500D01*
X98140422Y-107880905D01*
G37*
G36*
X126180422Y-107880905D02*
G01*
X126302948Y-107918073D01*
X126415868Y-107978430D01*
X126514843Y-108059657D01*
X126596070Y-108158632D01*
X126656427Y-108271552D01*
X126693595Y-108394078D01*
X126706145Y-108521500D01*
X126693595Y-108648922D01*
X126656427Y-108771448D01*
X126596070Y-108884368D01*
X126514843Y-108983343D01*
X126415868Y-109064570D01*
X126302948Y-109124927D01*
X126180422Y-109162095D01*
X126084932Y-109171500D01*
X125221068Y-109171500D01*
X125125578Y-109162095D01*
X125003052Y-109124927D01*
X124890132Y-109064570D01*
X124791157Y-108983343D01*
X124709930Y-108884368D01*
X124649573Y-108771448D01*
X124612405Y-108648922D01*
X124599855Y-108521500D01*
X124612405Y-108394078D01*
X124649573Y-108271552D01*
X124709930Y-108158632D01*
X124791157Y-108059657D01*
X124890132Y-107978430D01*
X125003052Y-107918073D01*
X125125578Y-107880905D01*
X125221068Y-107871500D01*
X126084932Y-107871500D01*
X126180422Y-107880905D01*
G37*
G36*
X95600422Y-107880905D02*
G01*
X95722948Y-107918073D01*
X95835868Y-107978430D01*
X95934843Y-108059657D01*
X96016070Y-108158632D01*
X96076427Y-108271552D01*
X96113595Y-108394078D01*
X96126145Y-108521500D01*
X96113595Y-108648922D01*
X96076427Y-108771448D01*
X96016070Y-108884368D01*
X95934843Y-108983343D01*
X95835868Y-109064570D01*
X95722948Y-109124927D01*
X95600422Y-109162095D01*
X95504932Y-109171500D01*
X94641068Y-109171500D01*
X94545578Y-109162095D01*
X94423052Y-109124927D01*
X94310132Y-109064570D01*
X94211157Y-108983343D01*
X94129930Y-108884368D01*
X94069573Y-108771448D01*
X94032405Y-108648922D01*
X94019855Y-108521500D01*
X94032405Y-108394078D01*
X94069573Y-108271552D01*
X94129930Y-108158632D01*
X94211157Y-108059657D01*
X94310132Y-107978430D01*
X94423052Y-107918073D01*
X94545578Y-107880905D01*
X94641068Y-107871500D01*
X95504932Y-107871500D01*
X95600422Y-107880905D01*
G37*
G36*
X184806817Y-105714603D02*
G01*
X184924487Y-105738009D01*
X185090752Y-105806878D01*
X185240386Y-105906860D01*
X185367640Y-106034114D01*
X185467622Y-106183748D01*
X185536491Y-106350013D01*
X185571600Y-106526518D01*
X185571600Y-106706482D01*
X185536491Y-106882987D01*
X185467622Y-107049252D01*
X185367640Y-107198886D01*
X185240386Y-107326140D01*
X185090752Y-107426122D01*
X184924487Y-107494991D01*
X184806817Y-107518397D01*
X184747983Y-107530100D01*
X184568017Y-107530100D01*
X184509183Y-107518397D01*
X184391513Y-107494991D01*
X184225248Y-107426122D01*
X184075614Y-107326140D01*
X183948360Y-107198886D01*
X183848378Y-107049252D01*
X183779509Y-106882987D01*
X183744400Y-106706482D01*
X183744400Y-106526518D01*
X183779509Y-106350013D01*
X183848378Y-106183748D01*
X183948360Y-106034114D01*
X184075614Y-105906860D01*
X184225248Y-105806878D01*
X184391513Y-105738009D01*
X184509183Y-105714603D01*
X184568017Y-105702900D01*
X184747983Y-105702900D01*
X184806817Y-105714603D01*
G37*
G36*
X182266817Y-105714603D02*
G01*
X182384487Y-105738009D01*
X182550752Y-105806878D01*
X182700386Y-105906860D01*
X182827640Y-106034114D01*
X182927622Y-106183748D01*
X182996491Y-106350013D01*
X183031600Y-106526518D01*
X183031600Y-106706482D01*
X182996491Y-106882987D01*
X182927622Y-107049252D01*
X182827640Y-107198886D01*
X182700386Y-107326140D01*
X182550752Y-107426122D01*
X182384487Y-107494991D01*
X182266817Y-107518397D01*
X182207983Y-107530100D01*
X182028017Y-107530100D01*
X181969183Y-107518397D01*
X181851513Y-107494991D01*
X181685248Y-107426122D01*
X181535614Y-107326140D01*
X181408360Y-107198886D01*
X181308378Y-107049252D01*
X181239509Y-106882987D01*
X181204400Y-106706482D01*
X181204400Y-106526518D01*
X181239509Y-106350013D01*
X181308378Y-106183748D01*
X181408360Y-106034114D01*
X181535614Y-105906860D01*
X181685248Y-105806878D01*
X181851513Y-105738009D01*
X181969183Y-105714603D01*
X182028017Y-105702900D01*
X182207983Y-105702900D01*
X182266817Y-105714603D01*
G37*
G36*
X177186817Y-105714603D02*
G01*
X177304487Y-105738009D01*
X177470752Y-105806878D01*
X177620386Y-105906860D01*
X177747640Y-106034114D01*
X177847622Y-106183748D01*
X177916491Y-106350013D01*
X177951600Y-106526518D01*
X177951600Y-106706482D01*
X177916491Y-106882987D01*
X177847622Y-107049252D01*
X177747640Y-107198886D01*
X177620386Y-107326140D01*
X177470752Y-107426122D01*
X177304487Y-107494991D01*
X177186817Y-107518397D01*
X177127983Y-107530100D01*
X176948017Y-107530100D01*
X176889183Y-107518397D01*
X176771513Y-107494991D01*
X176605248Y-107426122D01*
X176455614Y-107326140D01*
X176328360Y-107198886D01*
X176228378Y-107049252D01*
X176159509Y-106882987D01*
X176124400Y-106706482D01*
X176124400Y-106526518D01*
X176159509Y-106350013D01*
X176228378Y-106183748D01*
X176328360Y-106034114D01*
X176455614Y-105906860D01*
X176605248Y-105806878D01*
X176771513Y-105738009D01*
X176889183Y-105714603D01*
X176948017Y-105702900D01*
X177127983Y-105702900D01*
X177186817Y-105714603D01*
G37*
G36*
X188111600Y-107530100D02*
G01*
X186284400Y-107530100D01*
X186284400Y-105702900D01*
X188111600Y-105702900D01*
X188111600Y-107530100D01*
G37*
G36*
X179726817Y-105714603D02*
G01*
X179844487Y-105738009D01*
X180010752Y-105806878D01*
X180160386Y-105906860D01*
X180287640Y-106034114D01*
X180387622Y-106183748D01*
X180456491Y-106350013D01*
X180491600Y-106526518D01*
X180491600Y-106706482D01*
X180456491Y-106882987D01*
X180387622Y-107049252D01*
X180287640Y-107198886D01*
X180160386Y-107326140D01*
X180010752Y-107426122D01*
X179844487Y-107494991D01*
X179726817Y-107518397D01*
X179667983Y-107530100D01*
X179488017Y-107530100D01*
X179429183Y-107518397D01*
X179311513Y-107494991D01*
X179145248Y-107426122D01*
X178995614Y-107326140D01*
X178868360Y-107198886D01*
X178768378Y-107049252D01*
X178699509Y-106882987D01*
X178664400Y-106706482D01*
X178664400Y-106526518D01*
X178699509Y-106350013D01*
X178768378Y-106183748D01*
X178868360Y-106034114D01*
X178995614Y-105906860D01*
X179145248Y-105806878D01*
X179311513Y-105738009D01*
X179429183Y-105714603D01*
X179488017Y-105702900D01*
X179667983Y-105702900D01*
X179726817Y-105714603D01*
G37*
G36*
X126180422Y-105340905D02*
G01*
X126302948Y-105378073D01*
X126415868Y-105438430D01*
X126514843Y-105519657D01*
X126596070Y-105618632D01*
X126656427Y-105731552D01*
X126693595Y-105854078D01*
X126706145Y-105981500D01*
X126693595Y-106108922D01*
X126656427Y-106231448D01*
X126596070Y-106344368D01*
X126514843Y-106443343D01*
X126415868Y-106524570D01*
X126302948Y-106584927D01*
X126180422Y-106622095D01*
X126084932Y-106631500D01*
X125221068Y-106631500D01*
X125125578Y-106622095D01*
X125003052Y-106584927D01*
X124890132Y-106524570D01*
X124791157Y-106443343D01*
X124709930Y-106344368D01*
X124649573Y-106231448D01*
X124612405Y-106108922D01*
X124599855Y-105981500D01*
X124612405Y-105854078D01*
X124649573Y-105731552D01*
X124709930Y-105618632D01*
X124791157Y-105519657D01*
X124890132Y-105438430D01*
X125003052Y-105378073D01*
X125125578Y-105340905D01*
X125221068Y-105331500D01*
X126084932Y-105331500D01*
X126180422Y-105340905D01*
G37*
G36*
X123590422Y-105340905D02*
G01*
X123712948Y-105378073D01*
X123825868Y-105438430D01*
X123924843Y-105519657D01*
X124006070Y-105618632D01*
X124066427Y-105731552D01*
X124103595Y-105854078D01*
X124116145Y-105981500D01*
X124103595Y-106108922D01*
X124066427Y-106231448D01*
X124006070Y-106344368D01*
X123924843Y-106443343D01*
X123825868Y-106524570D01*
X123712948Y-106584927D01*
X123590422Y-106622095D01*
X123494932Y-106631500D01*
X122631068Y-106631500D01*
X122535578Y-106622095D01*
X122413052Y-106584927D01*
X122300132Y-106524570D01*
X122201157Y-106443343D01*
X122119930Y-106344368D01*
X122059573Y-106231448D01*
X122022405Y-106108922D01*
X122009855Y-105981500D01*
X122022405Y-105854078D01*
X122059573Y-105731552D01*
X122119930Y-105618632D01*
X122201157Y-105519657D01*
X122300132Y-105438430D01*
X122413052Y-105378073D01*
X122535578Y-105340905D01*
X122631068Y-105331500D01*
X123494932Y-105331500D01*
X123590422Y-105340905D01*
G37*
G36*
X98140422Y-105340905D02*
G01*
X98262948Y-105378073D01*
X98375868Y-105438430D01*
X98474843Y-105519657D01*
X98556070Y-105618632D01*
X98616427Y-105731552D01*
X98653595Y-105854078D01*
X98666145Y-105981500D01*
X98653595Y-106108922D01*
X98616427Y-106231448D01*
X98556070Y-106344368D01*
X98474843Y-106443343D01*
X98375868Y-106524570D01*
X98262948Y-106584927D01*
X98140422Y-106622095D01*
X98044932Y-106631500D01*
X97181068Y-106631500D01*
X97085578Y-106622095D01*
X96963052Y-106584927D01*
X96850132Y-106524570D01*
X96751157Y-106443343D01*
X96669930Y-106344368D01*
X96609573Y-106231448D01*
X96572405Y-106108922D01*
X96559855Y-105981500D01*
X96572405Y-105854078D01*
X96609573Y-105731552D01*
X96669930Y-105618632D01*
X96751157Y-105519657D01*
X96850132Y-105438430D01*
X96963052Y-105378073D01*
X97085578Y-105340905D01*
X97181068Y-105331500D01*
X98044932Y-105331500D01*
X98140422Y-105340905D01*
G37*
G36*
X95600422Y-105340905D02*
G01*
X95722948Y-105378073D01*
X95835868Y-105438430D01*
X95934843Y-105519657D01*
X96016070Y-105618632D01*
X96076427Y-105731552D01*
X96113595Y-105854078D01*
X96126145Y-105981500D01*
X96113595Y-106108922D01*
X96076427Y-106231448D01*
X96016070Y-106344368D01*
X95934843Y-106443343D01*
X95835868Y-106524570D01*
X95722948Y-106584927D01*
X95600422Y-106622095D01*
X95504932Y-106631500D01*
X94641068Y-106631500D01*
X94545578Y-106622095D01*
X94423052Y-106584927D01*
X94310132Y-106524570D01*
X94211157Y-106443343D01*
X94129930Y-106344368D01*
X94069573Y-106231448D01*
X94032405Y-106108922D01*
X94019855Y-105981500D01*
X94032405Y-105854078D01*
X94069573Y-105731552D01*
X94129930Y-105618632D01*
X94211157Y-105519657D01*
X94310132Y-105438430D01*
X94423052Y-105378073D01*
X94545578Y-105340905D01*
X94641068Y-105331500D01*
X95504932Y-105331500D01*
X95600422Y-105340905D01*
G37*
G36*
X139159308Y-103295148D02*
G01*
X139311051Y-103341178D01*
X139450898Y-103415928D01*
X139573475Y-103516525D01*
X139674072Y-103639102D01*
X139748822Y-103778949D01*
X139794852Y-103930692D01*
X139806500Y-104048954D01*
X139806500Y-105628046D01*
X139794852Y-105746308D01*
X139748822Y-105898051D01*
X139674072Y-106037898D01*
X139573475Y-106160475D01*
X139450897Y-106261072D01*
X139311050Y-106335822D01*
X139159307Y-106381852D01*
X139001500Y-106397395D01*
X138843692Y-106381852D01*
X138691949Y-106335822D01*
X138552102Y-106261072D01*
X138429525Y-106160475D01*
X138328928Y-106037897D01*
X138254178Y-105898050D01*
X138208148Y-105746307D01*
X138196500Y-105628045D01*
X138196501Y-104048954D01*
X138208149Y-103930692D01*
X138254179Y-103778949D01*
X138328929Y-103639102D01*
X138429526Y-103516525D01*
X138552103Y-103415928D01*
X138691950Y-103341178D01*
X138843693Y-103295148D01*
X139001500Y-103279605D01*
X139159308Y-103295148D01*
G37*
G36*
X134079308Y-103295148D02*
G01*
X134231051Y-103341178D01*
X134370898Y-103415928D01*
X134493475Y-103516525D01*
X134594072Y-103639102D01*
X134668822Y-103778949D01*
X134714852Y-103930692D01*
X134726500Y-104048954D01*
X134726500Y-105628046D01*
X134714852Y-105746308D01*
X134668822Y-105898051D01*
X134594072Y-106037898D01*
X134493475Y-106160475D01*
X134370897Y-106261072D01*
X134231050Y-106335822D01*
X134079307Y-106381852D01*
X133921500Y-106397395D01*
X133763692Y-106381852D01*
X133611949Y-106335822D01*
X133472102Y-106261072D01*
X133349525Y-106160475D01*
X133248928Y-106037897D01*
X133174178Y-105898050D01*
X133128148Y-105746307D01*
X133116500Y-105628045D01*
X133116501Y-104048954D01*
X133128149Y-103930692D01*
X133174179Y-103778949D01*
X133248929Y-103639102D01*
X133349526Y-103516525D01*
X133472103Y-103415928D01*
X133611950Y-103341178D01*
X133763693Y-103295148D01*
X133921500Y-103279605D01*
X134079308Y-103295148D01*
G37*
G36*
X136619308Y-103295148D02*
G01*
X136771051Y-103341178D01*
X136910898Y-103415928D01*
X137033475Y-103516525D01*
X137134072Y-103639102D01*
X137208822Y-103778949D01*
X137254852Y-103930692D01*
X137266500Y-104048954D01*
X137266500Y-105628046D01*
X137254852Y-105746308D01*
X137208822Y-105898051D01*
X137134072Y-106037898D01*
X137033475Y-106160475D01*
X136910897Y-106261072D01*
X136771050Y-106335822D01*
X136619307Y-106381852D01*
X136461500Y-106397395D01*
X136303692Y-106381852D01*
X136151949Y-106335822D01*
X136012102Y-106261072D01*
X135889525Y-106160475D01*
X135788928Y-106037897D01*
X135714178Y-105898050D01*
X135668148Y-105746307D01*
X135656500Y-105628045D01*
X135656501Y-104048954D01*
X135668149Y-103930692D01*
X135714179Y-103778949D01*
X135788929Y-103639102D01*
X135889526Y-103516525D01*
X136012103Y-103415928D01*
X136151950Y-103341178D01*
X136303693Y-103295148D01*
X136461500Y-103279605D01*
X136619308Y-103295148D01*
G37*
G36*
X112856285Y-105334300D02*
G01*
X112900792Y-105347802D01*
X112941816Y-105369729D01*
X112977766Y-105399234D01*
X113007271Y-105435184D01*
X113029198Y-105476208D01*
X113042700Y-105520715D01*
X113047500Y-105569454D01*
X113047500Y-106139546D01*
X113042700Y-106188285D01*
X113029198Y-106232792D01*
X113007271Y-106273816D01*
X112977766Y-106309766D01*
X112941816Y-106339271D01*
X112900792Y-106361198D01*
X112856285Y-106374700D01*
X112807546Y-106379500D01*
X112137454Y-106379500D01*
X112088715Y-106374700D01*
X112044208Y-106361198D01*
X112003184Y-106339271D01*
X111967234Y-106309766D01*
X111937729Y-106273816D01*
X111915802Y-106232792D01*
X111902300Y-106188285D01*
X111897500Y-106139546D01*
X111897500Y-105569454D01*
X111902300Y-105520715D01*
X111915802Y-105476208D01*
X111937729Y-105435184D01*
X111967234Y-105399234D01*
X112003184Y-105369729D01*
X112044208Y-105347802D01*
X112088715Y-105334300D01*
X112137454Y-105329500D01*
X112807546Y-105329500D01*
X112856285Y-105334300D01*
G37*
G36*
X114606285Y-105334300D02*
G01*
X114650792Y-105347802D01*
X114691816Y-105369729D01*
X114727766Y-105399234D01*
X114757271Y-105435184D01*
X114779198Y-105476208D01*
X114792700Y-105520715D01*
X114797500Y-105569454D01*
X114797500Y-106139546D01*
X114792700Y-106188285D01*
X114779198Y-106232792D01*
X114757271Y-106273816D01*
X114727766Y-106309766D01*
X114691816Y-106339271D01*
X114650792Y-106361198D01*
X114606285Y-106374700D01*
X114557546Y-106379500D01*
X113887454Y-106379500D01*
X113838715Y-106374700D01*
X113794208Y-106361198D01*
X113753184Y-106339271D01*
X113717234Y-106309766D01*
X113687729Y-106273816D01*
X113665802Y-106232792D01*
X113652300Y-106188285D01*
X113647500Y-106139546D01*
X113647500Y-105569454D01*
X113652300Y-105520715D01*
X113665802Y-105476208D01*
X113687729Y-105435184D01*
X113717234Y-105399234D01*
X113753184Y-105369729D01*
X113794208Y-105347802D01*
X113838715Y-105334300D01*
X113887454Y-105329500D01*
X114557546Y-105329500D01*
X114606285Y-105334300D01*
G37*
G36*
X107331785Y-105334300D02*
G01*
X107376292Y-105347802D01*
X107417316Y-105369729D01*
X107453266Y-105399234D01*
X107482771Y-105435184D01*
X107504698Y-105476208D01*
X107518200Y-105520715D01*
X107523000Y-105569454D01*
X107523000Y-106139546D01*
X107518200Y-106188285D01*
X107504698Y-106232792D01*
X107482771Y-106273816D01*
X107453266Y-106309766D01*
X107417316Y-106339271D01*
X107376292Y-106361198D01*
X107331785Y-106374700D01*
X107283046Y-106379500D01*
X106612954Y-106379500D01*
X106564215Y-106374700D01*
X106519708Y-106361198D01*
X106478684Y-106339271D01*
X106442734Y-106309766D01*
X106413229Y-106273816D01*
X106391302Y-106232792D01*
X106377800Y-106188285D01*
X106373000Y-106139546D01*
X106373000Y-105569454D01*
X106377800Y-105520715D01*
X106391302Y-105476208D01*
X106413229Y-105435184D01*
X106442734Y-105399234D01*
X106478684Y-105369729D01*
X106519708Y-105347802D01*
X106564215Y-105334300D01*
X106612954Y-105329500D01*
X107283046Y-105329500D01*
X107331785Y-105334300D01*
G37*
G36*
X109081785Y-105334300D02*
G01*
X109126292Y-105347802D01*
X109167316Y-105369729D01*
X109203266Y-105399234D01*
X109232771Y-105435184D01*
X109254698Y-105476208D01*
X109268200Y-105520715D01*
X109273000Y-105569454D01*
X109273000Y-106139546D01*
X109268200Y-106188285D01*
X109254698Y-106232792D01*
X109232771Y-106273816D01*
X109203266Y-106309766D01*
X109167316Y-106339271D01*
X109126292Y-106361198D01*
X109081785Y-106374700D01*
X109033046Y-106379500D01*
X108362954Y-106379500D01*
X108314215Y-106374700D01*
X108269708Y-106361198D01*
X108228684Y-106339271D01*
X108192734Y-106309766D01*
X108163229Y-106273816D01*
X108141302Y-106232792D01*
X108127800Y-106188285D01*
X108123000Y-106139546D01*
X108123000Y-105569454D01*
X108127800Y-105520715D01*
X108141302Y-105476208D01*
X108163229Y-105435184D01*
X108192734Y-105399234D01*
X108228684Y-105369729D01*
X108269708Y-105347802D01*
X108314215Y-105334300D01*
X108362954Y-105329500D01*
X109033046Y-105329500D01*
X109081785Y-105334300D01*
G37*
G36*
X109081785Y-103556300D02*
G01*
X109126292Y-103569802D01*
X109167316Y-103591729D01*
X109203266Y-103621234D01*
X109232771Y-103657184D01*
X109254698Y-103698208D01*
X109268200Y-103742715D01*
X109273000Y-103791454D01*
X109273000Y-104361546D01*
X109268200Y-104410285D01*
X109254698Y-104454792D01*
X109232771Y-104495816D01*
X109203266Y-104531766D01*
X109167316Y-104561271D01*
X109126292Y-104583198D01*
X109081785Y-104596700D01*
X109033046Y-104601500D01*
X108362954Y-104601500D01*
X108314215Y-104596700D01*
X108269708Y-104583198D01*
X108228684Y-104561271D01*
X108192734Y-104531766D01*
X108163229Y-104495816D01*
X108141302Y-104454792D01*
X108127800Y-104410285D01*
X108123000Y-104361546D01*
X108123000Y-103791454D01*
X108127800Y-103742715D01*
X108141302Y-103698208D01*
X108163229Y-103657184D01*
X108192734Y-103621234D01*
X108228684Y-103591729D01*
X108269708Y-103569802D01*
X108314215Y-103556300D01*
X108362954Y-103551500D01*
X109033046Y-103551500D01*
X109081785Y-103556300D01*
G37*
G36*
X107331785Y-103556300D02*
G01*
X107376292Y-103569802D01*
X107417316Y-103591729D01*
X107453266Y-103621234D01*
X107482771Y-103657184D01*
X107504698Y-103698208D01*
X107518200Y-103742715D01*
X107523000Y-103791454D01*
X107523000Y-104361546D01*
X107518200Y-104410285D01*
X107504698Y-104454792D01*
X107482771Y-104495816D01*
X107453266Y-104531766D01*
X107417316Y-104561271D01*
X107376292Y-104583198D01*
X107331785Y-104596700D01*
X107283046Y-104601500D01*
X106612954Y-104601500D01*
X106564215Y-104596700D01*
X106519708Y-104583198D01*
X106478684Y-104561271D01*
X106442734Y-104531766D01*
X106413229Y-104495816D01*
X106391302Y-104454792D01*
X106377800Y-104410285D01*
X106373000Y-104361546D01*
X106373000Y-103791454D01*
X106377800Y-103742715D01*
X106391302Y-103698208D01*
X106413229Y-103657184D01*
X106442734Y-103621234D01*
X106478684Y-103591729D01*
X106519708Y-103569802D01*
X106564215Y-103556300D01*
X106612954Y-103551500D01*
X107283046Y-103551500D01*
X107331785Y-103556300D01*
G37*
G36*
X112856285Y-103556300D02*
G01*
X112900792Y-103569802D01*
X112941816Y-103591729D01*
X112977766Y-103621234D01*
X113007271Y-103657184D01*
X113029198Y-103698208D01*
X113042700Y-103742715D01*
X113047500Y-103791454D01*
X113047500Y-104361546D01*
X113042700Y-104410285D01*
X113029198Y-104454792D01*
X113007271Y-104495816D01*
X112977766Y-104531766D01*
X112941816Y-104561271D01*
X112900792Y-104583198D01*
X112856285Y-104596700D01*
X112807546Y-104601500D01*
X112137454Y-104601500D01*
X112088715Y-104596700D01*
X112044208Y-104583198D01*
X112003184Y-104561271D01*
X111967234Y-104531766D01*
X111937729Y-104495816D01*
X111915802Y-104454792D01*
X111902300Y-104410285D01*
X111897500Y-104361546D01*
X111897500Y-103791454D01*
X111902300Y-103742715D01*
X111915802Y-103698208D01*
X111937729Y-103657184D01*
X111967234Y-103621234D01*
X112003184Y-103591729D01*
X112044208Y-103569802D01*
X112088715Y-103556300D01*
X112137454Y-103551500D01*
X112807546Y-103551500D01*
X112856285Y-103556300D01*
G37*
G36*
X114606285Y-103556300D02*
G01*
X114650792Y-103569802D01*
X114691816Y-103591729D01*
X114727766Y-103621234D01*
X114757271Y-103657184D01*
X114779198Y-103698208D01*
X114792700Y-103742715D01*
X114797500Y-103791454D01*
X114797500Y-104361546D01*
X114792700Y-104410285D01*
X114779198Y-104454792D01*
X114757271Y-104495816D01*
X114727766Y-104531766D01*
X114691816Y-104561271D01*
X114650792Y-104583198D01*
X114606285Y-104596700D01*
X114557546Y-104601500D01*
X113887454Y-104601500D01*
X113838715Y-104596700D01*
X113794208Y-104583198D01*
X113753184Y-104561271D01*
X113717234Y-104531766D01*
X113687729Y-104495816D01*
X113665802Y-104454792D01*
X113652300Y-104410285D01*
X113647500Y-104361546D01*
X113647500Y-103791454D01*
X113652300Y-103742715D01*
X113665802Y-103698208D01*
X113687729Y-103657184D01*
X113717234Y-103621234D01*
X113753184Y-103591729D01*
X113794208Y-103569802D01*
X113838715Y-103556300D01*
X113887454Y-103551500D01*
X114557546Y-103551500D01*
X114606285Y-103556300D01*
G37*
G36*
X98140422Y-102800905D02*
G01*
X98262948Y-102838073D01*
X98375868Y-102898430D01*
X98474843Y-102979657D01*
X98556070Y-103078632D01*
X98616427Y-103191552D01*
X98653595Y-103314078D01*
X98666145Y-103441500D01*
X98653595Y-103568922D01*
X98616427Y-103691448D01*
X98556070Y-103804368D01*
X98474843Y-103903343D01*
X98375868Y-103984570D01*
X98262948Y-104044927D01*
X98140422Y-104082095D01*
X98044932Y-104091500D01*
X97181068Y-104091500D01*
X97085578Y-104082095D01*
X96963052Y-104044927D01*
X96850132Y-103984570D01*
X96751157Y-103903343D01*
X96669930Y-103804368D01*
X96609573Y-103691448D01*
X96572405Y-103568922D01*
X96559855Y-103441500D01*
X96572405Y-103314078D01*
X96609573Y-103191552D01*
X96669930Y-103078632D01*
X96751157Y-102979657D01*
X96850132Y-102898430D01*
X96963052Y-102838073D01*
X97085578Y-102800905D01*
X97181068Y-102791500D01*
X98044932Y-102791500D01*
X98140422Y-102800905D01*
G37*
G36*
X123590422Y-102800905D02*
G01*
X123712948Y-102838073D01*
X123825868Y-102898430D01*
X123924843Y-102979657D01*
X124006070Y-103078632D01*
X124066427Y-103191552D01*
X124103595Y-103314078D01*
X124116145Y-103441500D01*
X124103595Y-103568922D01*
X124066427Y-103691448D01*
X124006070Y-103804368D01*
X123924843Y-103903343D01*
X123825868Y-103984570D01*
X123712948Y-104044927D01*
X123590422Y-104082095D01*
X123494932Y-104091500D01*
X122631068Y-104091500D01*
X122535578Y-104082095D01*
X122413052Y-104044927D01*
X122300132Y-103984570D01*
X122201157Y-103903343D01*
X122119930Y-103804368D01*
X122059573Y-103691448D01*
X122022405Y-103568922D01*
X122009855Y-103441500D01*
X122022405Y-103314078D01*
X122059573Y-103191552D01*
X122119930Y-103078632D01*
X122201157Y-102979657D01*
X122300132Y-102898430D01*
X122413052Y-102838073D01*
X122535578Y-102800905D01*
X122631068Y-102791500D01*
X123494932Y-102791500D01*
X123590422Y-102800905D01*
G37*
G36*
X126180422Y-102800905D02*
G01*
X126302948Y-102838073D01*
X126415868Y-102898430D01*
X126514843Y-102979657D01*
X126596070Y-103078632D01*
X126656427Y-103191552D01*
X126693595Y-103314078D01*
X126706145Y-103441500D01*
X126693595Y-103568922D01*
X126656427Y-103691448D01*
X126596070Y-103804368D01*
X126514843Y-103903343D01*
X126415868Y-103984570D01*
X126302948Y-104044927D01*
X126180422Y-104082095D01*
X126084932Y-104091500D01*
X125221068Y-104091500D01*
X125125578Y-104082095D01*
X125003052Y-104044927D01*
X124890132Y-103984570D01*
X124791157Y-103903343D01*
X124709930Y-103804368D01*
X124649573Y-103691448D01*
X124612405Y-103568922D01*
X124599855Y-103441500D01*
X124612405Y-103314078D01*
X124649573Y-103191552D01*
X124709930Y-103078632D01*
X124791157Y-102979657D01*
X124890132Y-102898430D01*
X125003052Y-102838073D01*
X125125578Y-102800905D01*
X125221068Y-102791500D01*
X126084932Y-102791500D01*
X126180422Y-102800905D01*
G37*
G36*
X95600422Y-102800905D02*
G01*
X95722948Y-102838073D01*
X95835868Y-102898430D01*
X95934843Y-102979657D01*
X96016070Y-103078632D01*
X96076427Y-103191552D01*
X96113595Y-103314078D01*
X96126145Y-103441500D01*
X96113595Y-103568922D01*
X96076427Y-103691448D01*
X96016070Y-103804368D01*
X95934843Y-103903343D01*
X95835868Y-103984570D01*
X95722948Y-104044927D01*
X95600422Y-104082095D01*
X95504932Y-104091500D01*
X94641068Y-104091500D01*
X94545578Y-104082095D01*
X94423052Y-104044927D01*
X94310132Y-103984570D01*
X94211157Y-103903343D01*
X94129930Y-103804368D01*
X94069573Y-103691448D01*
X94032405Y-103568922D01*
X94019855Y-103441500D01*
X94032405Y-103314078D01*
X94069573Y-103191552D01*
X94129930Y-103078632D01*
X94211157Y-102979657D01*
X94310132Y-102898430D01*
X94423052Y-102838073D01*
X94545578Y-102800905D01*
X94641068Y-102791500D01*
X95504932Y-102791500D01*
X95600422Y-102800905D01*
G37*
G36*
X126180422Y-100260905D02*
G01*
X126302948Y-100298073D01*
X126415868Y-100358430D01*
X126514843Y-100439657D01*
X126596070Y-100538632D01*
X126656427Y-100651552D01*
X126693595Y-100774078D01*
X126706145Y-100901500D01*
X126693595Y-101028922D01*
X126656427Y-101151448D01*
X126596070Y-101264368D01*
X126514843Y-101363343D01*
X126415868Y-101444570D01*
X126302948Y-101504927D01*
X126180422Y-101542095D01*
X126084932Y-101551500D01*
X125221068Y-101551500D01*
X125125578Y-101542095D01*
X125003052Y-101504927D01*
X124890132Y-101444570D01*
X124791157Y-101363343D01*
X124709930Y-101264368D01*
X124649573Y-101151448D01*
X124612405Y-101028922D01*
X124599855Y-100901500D01*
X124612405Y-100774078D01*
X124649573Y-100651552D01*
X124709930Y-100538632D01*
X124791157Y-100439657D01*
X124890132Y-100358430D01*
X125003052Y-100298073D01*
X125125578Y-100260905D01*
X125221068Y-100251500D01*
X126084932Y-100251500D01*
X126180422Y-100260905D01*
G37*
G36*
X95600422Y-100260905D02*
G01*
X95722948Y-100298073D01*
X95835868Y-100358430D01*
X95934843Y-100439657D01*
X96016070Y-100538632D01*
X96076427Y-100651552D01*
X96113595Y-100774078D01*
X96126145Y-100901500D01*
X96113595Y-101028922D01*
X96076427Y-101151448D01*
X96016070Y-101264368D01*
X95934843Y-101363343D01*
X95835868Y-101444570D01*
X95722948Y-101504927D01*
X95600422Y-101542095D01*
X95504932Y-101551500D01*
X94641068Y-101551500D01*
X94545578Y-101542095D01*
X94423052Y-101504927D01*
X94310132Y-101444570D01*
X94211157Y-101363343D01*
X94129930Y-101264368D01*
X94069573Y-101151448D01*
X94032405Y-101028922D01*
X94019855Y-100901500D01*
X94032405Y-100774078D01*
X94069573Y-100651552D01*
X94129930Y-100538632D01*
X94211157Y-100439657D01*
X94310132Y-100358430D01*
X94423052Y-100298073D01*
X94545578Y-100260905D01*
X94641068Y-100251500D01*
X95504932Y-100251500D01*
X95600422Y-100260905D01*
G37*
G36*
X123590422Y-100260905D02*
G01*
X123712948Y-100298073D01*
X123825868Y-100358430D01*
X123924843Y-100439657D01*
X124006070Y-100538632D01*
X124066427Y-100651552D01*
X124103595Y-100774078D01*
X124116145Y-100901500D01*
X124103595Y-101028922D01*
X124066427Y-101151448D01*
X124006070Y-101264368D01*
X123924843Y-101363343D01*
X123825868Y-101444570D01*
X123712948Y-101504927D01*
X123590422Y-101542095D01*
X123494932Y-101551500D01*
X122631068Y-101551500D01*
X122535578Y-101542095D01*
X122413052Y-101504927D01*
X122300132Y-101444570D01*
X122201157Y-101363343D01*
X122119930Y-101264368D01*
X122059573Y-101151448D01*
X122022405Y-101028922D01*
X122009855Y-100901500D01*
X122022405Y-100774078D01*
X122059573Y-100651552D01*
X122119930Y-100538632D01*
X122201157Y-100439657D01*
X122300132Y-100358430D01*
X122413052Y-100298073D01*
X122535578Y-100260905D01*
X122631068Y-100251500D01*
X123494932Y-100251500D01*
X123590422Y-100260905D01*
G37*
G36*
X98140422Y-100260905D02*
G01*
X98262948Y-100298073D01*
X98375868Y-100358430D01*
X98474843Y-100439657D01*
X98556070Y-100538632D01*
X98616427Y-100651552D01*
X98653595Y-100774078D01*
X98666145Y-100901500D01*
X98653595Y-101028922D01*
X98616427Y-101151448D01*
X98556070Y-101264368D01*
X98474843Y-101363343D01*
X98375868Y-101444570D01*
X98262948Y-101504927D01*
X98140422Y-101542095D01*
X98044932Y-101551500D01*
X97181068Y-101551500D01*
X97085578Y-101542095D01*
X96963052Y-101504927D01*
X96850132Y-101444570D01*
X96751157Y-101363343D01*
X96669930Y-101264368D01*
X96609573Y-101151448D01*
X96572405Y-101028922D01*
X96559855Y-100901500D01*
X96572405Y-100774078D01*
X96609573Y-100651552D01*
X96669930Y-100538632D01*
X96751157Y-100439657D01*
X96850132Y-100358430D01*
X96963052Y-100298073D01*
X97085578Y-100260905D01*
X97181068Y-100251500D01*
X98044932Y-100251500D01*
X98140422Y-100260905D01*
G37*
G36*
X123590422Y-97720905D02*
G01*
X123712948Y-97758073D01*
X123825868Y-97818430D01*
X123924843Y-97899657D01*
X124006070Y-97998632D01*
X124066427Y-98111552D01*
X124103595Y-98234078D01*
X124116145Y-98361500D01*
X124103595Y-98488922D01*
X124066427Y-98611448D01*
X124006070Y-98724368D01*
X123924843Y-98823343D01*
X123825868Y-98904570D01*
X123712948Y-98964927D01*
X123590422Y-99002095D01*
X123494932Y-99011500D01*
X122631068Y-99011500D01*
X122535578Y-99002095D01*
X122413052Y-98964927D01*
X122300132Y-98904570D01*
X122201157Y-98823343D01*
X122119930Y-98724368D01*
X122059573Y-98611448D01*
X122022405Y-98488922D01*
X122009855Y-98361500D01*
X122022405Y-98234078D01*
X122059573Y-98111552D01*
X122119930Y-97998632D01*
X122201157Y-97899657D01*
X122300132Y-97818430D01*
X122413052Y-97758073D01*
X122535578Y-97720905D01*
X122631068Y-97711500D01*
X123494932Y-97711500D01*
X123590422Y-97720905D01*
G37*
G36*
X98140422Y-97720905D02*
G01*
X98262948Y-97758073D01*
X98375868Y-97818430D01*
X98474843Y-97899657D01*
X98556070Y-97998632D01*
X98616427Y-98111552D01*
X98653595Y-98234078D01*
X98666145Y-98361500D01*
X98653595Y-98488922D01*
X98616427Y-98611448D01*
X98556070Y-98724368D01*
X98474843Y-98823343D01*
X98375868Y-98904570D01*
X98262948Y-98964927D01*
X98140422Y-99002095D01*
X98044932Y-99011500D01*
X97181068Y-99011500D01*
X97085578Y-99002095D01*
X96963052Y-98964927D01*
X96850132Y-98904570D01*
X96751157Y-98823343D01*
X96669930Y-98724368D01*
X96609573Y-98611448D01*
X96572405Y-98488922D01*
X96559855Y-98361500D01*
X96572405Y-98234078D01*
X96609573Y-98111552D01*
X96669930Y-97998632D01*
X96751157Y-97899657D01*
X96850132Y-97818430D01*
X96963052Y-97758073D01*
X97085578Y-97720905D01*
X97181068Y-97711500D01*
X98044932Y-97711500D01*
X98140422Y-97720905D01*
G37*
G36*
X95600422Y-97720905D02*
G01*
X95722948Y-97758073D01*
X95835868Y-97818430D01*
X95934843Y-97899657D01*
X96016070Y-97998632D01*
X96076427Y-98111552D01*
X96113595Y-98234078D01*
X96126145Y-98361500D01*
X96113595Y-98488922D01*
X96076427Y-98611448D01*
X96016070Y-98724368D01*
X95934843Y-98823343D01*
X95835868Y-98904570D01*
X95722948Y-98964927D01*
X95600422Y-99002095D01*
X95504932Y-99011500D01*
X94641068Y-99011500D01*
X94545578Y-99002095D01*
X94423052Y-98964927D01*
X94310132Y-98904570D01*
X94211157Y-98823343D01*
X94129930Y-98724368D01*
X94069573Y-98611448D01*
X94032405Y-98488922D01*
X94019855Y-98361500D01*
X94032405Y-98234078D01*
X94069573Y-98111552D01*
X94129930Y-97998632D01*
X94211157Y-97899657D01*
X94310132Y-97818430D01*
X94423052Y-97758073D01*
X94545578Y-97720905D01*
X94641068Y-97711500D01*
X95504932Y-97711500D01*
X95600422Y-97720905D01*
G37*
G36*
X126180422Y-97720905D02*
G01*
X126302948Y-97758073D01*
X126415868Y-97818430D01*
X126514843Y-97899657D01*
X126596070Y-97998632D01*
X126656427Y-98111552D01*
X126693595Y-98234078D01*
X126706145Y-98361500D01*
X126693595Y-98488922D01*
X126656427Y-98611448D01*
X126596070Y-98724368D01*
X126514843Y-98823343D01*
X126415868Y-98904570D01*
X126302948Y-98964927D01*
X126180422Y-99002095D01*
X126084932Y-99011500D01*
X125221068Y-99011500D01*
X125125578Y-99002095D01*
X125003052Y-98964927D01*
X124890132Y-98904570D01*
X124791157Y-98823343D01*
X124709930Y-98724368D01*
X124649573Y-98611448D01*
X124612405Y-98488922D01*
X124599855Y-98361500D01*
X124612405Y-98234078D01*
X124649573Y-98111552D01*
X124709930Y-97998632D01*
X124791157Y-97899657D01*
X124890132Y-97818430D01*
X125003052Y-97758073D01*
X125125578Y-97720905D01*
X125221068Y-97711500D01*
X126084932Y-97711500D01*
X126180422Y-97720905D01*
G37*
G36*
X151221000Y-98683300D02*
G01*
X146721000Y-98683300D01*
X146721000Y-96583300D01*
X151221000Y-96583300D01*
X151221000Y-98683300D01*
G37*
G36*
X139503000Y-96748500D02*
G01*
X137103000Y-96748500D01*
X137103000Y-95148500D01*
X139503000Y-95148500D01*
X139503000Y-96748500D01*
G37*
G36*
X95600422Y-95180905D02*
G01*
X95722948Y-95218073D01*
X95835868Y-95278430D01*
X95934843Y-95359657D01*
X96016070Y-95458632D01*
X96076427Y-95571552D01*
X96113595Y-95694078D01*
X96126145Y-95821500D01*
X96113595Y-95948922D01*
X96076427Y-96071448D01*
X96016070Y-96184368D01*
X95934843Y-96283343D01*
X95835868Y-96364570D01*
X95722948Y-96424927D01*
X95600422Y-96462095D01*
X95504932Y-96471500D01*
X94641068Y-96471500D01*
X94545578Y-96462095D01*
X94423052Y-96424927D01*
X94310132Y-96364570D01*
X94211157Y-96283343D01*
X94129930Y-96184368D01*
X94069573Y-96071448D01*
X94032405Y-95948922D01*
X94019855Y-95821500D01*
X94032405Y-95694078D01*
X94069573Y-95571552D01*
X94129930Y-95458632D01*
X94211157Y-95359657D01*
X94310132Y-95278430D01*
X94423052Y-95218073D01*
X94545578Y-95180905D01*
X94641068Y-95171500D01*
X95504932Y-95171500D01*
X95600422Y-95180905D01*
G37*
G36*
X126180422Y-95180905D02*
G01*
X126302948Y-95218073D01*
X126415868Y-95278430D01*
X126514843Y-95359657D01*
X126596070Y-95458632D01*
X126656427Y-95571552D01*
X126693595Y-95694078D01*
X126706145Y-95821500D01*
X126693595Y-95948922D01*
X126656427Y-96071448D01*
X126596070Y-96184368D01*
X126514843Y-96283343D01*
X126415868Y-96364570D01*
X126302948Y-96424927D01*
X126180422Y-96462095D01*
X126084932Y-96471500D01*
X125221068Y-96471500D01*
X125125578Y-96462095D01*
X125003052Y-96424927D01*
X124890132Y-96364570D01*
X124791157Y-96283343D01*
X124709930Y-96184368D01*
X124649573Y-96071448D01*
X124612405Y-95948922D01*
X124599855Y-95821500D01*
X124612405Y-95694078D01*
X124649573Y-95571552D01*
X124709930Y-95458632D01*
X124791157Y-95359657D01*
X124890132Y-95278430D01*
X125003052Y-95218073D01*
X125125578Y-95180905D01*
X125221068Y-95171500D01*
X126084932Y-95171500D01*
X126180422Y-95180905D01*
G37*
G36*
X98140422Y-95180905D02*
G01*
X98262948Y-95218073D01*
X98375868Y-95278430D01*
X98474843Y-95359657D01*
X98556070Y-95458632D01*
X98616427Y-95571552D01*
X98653595Y-95694078D01*
X98666145Y-95821500D01*
X98653595Y-95948922D01*
X98616427Y-96071448D01*
X98556070Y-96184368D01*
X98474843Y-96283343D01*
X98375868Y-96364570D01*
X98262948Y-96424927D01*
X98140422Y-96462095D01*
X98044932Y-96471500D01*
X97181068Y-96471500D01*
X97085578Y-96462095D01*
X96963052Y-96424927D01*
X96850132Y-96364570D01*
X96751157Y-96283343D01*
X96669930Y-96184368D01*
X96609573Y-96071448D01*
X96572405Y-95948922D01*
X96559855Y-95821500D01*
X96572405Y-95694078D01*
X96609573Y-95571552D01*
X96669930Y-95458632D01*
X96751157Y-95359657D01*
X96850132Y-95278430D01*
X96963052Y-95218073D01*
X97085578Y-95180905D01*
X97181068Y-95171500D01*
X98044932Y-95171500D01*
X98140422Y-95180905D01*
G37*
G36*
X123590422Y-95180905D02*
G01*
X123712948Y-95218073D01*
X123825868Y-95278430D01*
X123924843Y-95359657D01*
X124006070Y-95458632D01*
X124066427Y-95571552D01*
X124103595Y-95694078D01*
X124116145Y-95821500D01*
X124103595Y-95948922D01*
X124066427Y-96071448D01*
X124006070Y-96184368D01*
X123924843Y-96283343D01*
X123825868Y-96364570D01*
X123712948Y-96424927D01*
X123590422Y-96462095D01*
X123494932Y-96471500D01*
X122631068Y-96471500D01*
X122535578Y-96462095D01*
X122413052Y-96424927D01*
X122300132Y-96364570D01*
X122201157Y-96283343D01*
X122119930Y-96184368D01*
X122059573Y-96071448D01*
X122022405Y-95948922D01*
X122009855Y-95821500D01*
X122022405Y-95694078D01*
X122059573Y-95571552D01*
X122119930Y-95458632D01*
X122201157Y-95359657D01*
X122300132Y-95278430D01*
X122413052Y-95218073D01*
X122535578Y-95180905D01*
X122631068Y-95171500D01*
X123494932Y-95171500D01*
X123590422Y-95180905D01*
G37*
G36*
X179700484Y-93644365D02*
G01*
X179844487Y-93673009D01*
X180010752Y-93741878D01*
X180160386Y-93841860D01*
X180287640Y-93969114D01*
X180387622Y-94118748D01*
X180456491Y-94285013D01*
X180491600Y-94461518D01*
X180491600Y-94641482D01*
X180456491Y-94817987D01*
X180387622Y-94984252D01*
X180287640Y-95133886D01*
X180160386Y-95261140D01*
X180010752Y-95361122D01*
X179844487Y-95429991D01*
X179726817Y-95453397D01*
X179667983Y-95465100D01*
X179488017Y-95465100D01*
X179429183Y-95453397D01*
X179311513Y-95429991D01*
X179145248Y-95361122D01*
X178995614Y-95261140D01*
X178868360Y-95133886D01*
X178768378Y-94984252D01*
X178699509Y-94817987D01*
X178664400Y-94641482D01*
X178664400Y-94461518D01*
X178699509Y-94285013D01*
X178768378Y-94118748D01*
X178868360Y-93969114D01*
X178995614Y-93841860D01*
X179145248Y-93741878D01*
X179311513Y-93673009D01*
X179455516Y-93644365D01*
X179488017Y-93637900D01*
X179667983Y-93637900D01*
X179700484Y-93644365D01*
G37*
G36*
X177160484Y-93644365D02*
G01*
X177304487Y-93673009D01*
X177470752Y-93741878D01*
X177620386Y-93841860D01*
X177747640Y-93969114D01*
X177847622Y-94118748D01*
X177916491Y-94285013D01*
X177951600Y-94461518D01*
X177951600Y-94641482D01*
X177916491Y-94817987D01*
X177847622Y-94984252D01*
X177747640Y-95133886D01*
X177620386Y-95261140D01*
X177470752Y-95361122D01*
X177304487Y-95429991D01*
X177186817Y-95453397D01*
X177127983Y-95465100D01*
X176948017Y-95465100D01*
X176889183Y-95453397D01*
X176771513Y-95429991D01*
X176605248Y-95361122D01*
X176455614Y-95261140D01*
X176328360Y-95133886D01*
X176228378Y-94984252D01*
X176159509Y-94817987D01*
X176124400Y-94641482D01*
X176124400Y-94461518D01*
X176159509Y-94285013D01*
X176228378Y-94118748D01*
X176328360Y-93969114D01*
X176455614Y-93841860D01*
X176605248Y-93741878D01*
X176771513Y-93673009D01*
X176915516Y-93644365D01*
X176948017Y-93637900D01*
X177127983Y-93637900D01*
X177160484Y-93644365D01*
G37*
G36*
X182240484Y-93644365D02*
G01*
X182384487Y-93673009D01*
X182550752Y-93741878D01*
X182700386Y-93841860D01*
X182827640Y-93969114D01*
X182927622Y-94118748D01*
X182996491Y-94285013D01*
X183031600Y-94461518D01*
X183031600Y-94641482D01*
X182996491Y-94817987D01*
X182927622Y-94984252D01*
X182827640Y-95133886D01*
X182700386Y-95261140D01*
X182550752Y-95361122D01*
X182384487Y-95429991D01*
X182266817Y-95453397D01*
X182207983Y-95465100D01*
X182028017Y-95465100D01*
X181969183Y-95453397D01*
X181851513Y-95429991D01*
X181685248Y-95361122D01*
X181535614Y-95261140D01*
X181408360Y-95133886D01*
X181308378Y-94984252D01*
X181239509Y-94817987D01*
X181204400Y-94641482D01*
X181204400Y-94461518D01*
X181239509Y-94285013D01*
X181308378Y-94118748D01*
X181408360Y-93969114D01*
X181535614Y-93841860D01*
X181685248Y-93741878D01*
X181851513Y-93673009D01*
X181995516Y-93644365D01*
X182028017Y-93637900D01*
X182207983Y-93637900D01*
X182240484Y-93644365D01*
G37*
G36*
X184780484Y-93644365D02*
G01*
X184924487Y-93673009D01*
X185090752Y-93741878D01*
X185240386Y-93841860D01*
X185367640Y-93969114D01*
X185467622Y-94118748D01*
X185536491Y-94285013D01*
X185571600Y-94461518D01*
X185571600Y-94641482D01*
X185536491Y-94817987D01*
X185467622Y-94984252D01*
X185367640Y-95133886D01*
X185240386Y-95261140D01*
X185090752Y-95361122D01*
X184924487Y-95429991D01*
X184806817Y-95453397D01*
X184747983Y-95465100D01*
X184568017Y-95465100D01*
X184509183Y-95453397D01*
X184391513Y-95429991D01*
X184225248Y-95361122D01*
X184075614Y-95261140D01*
X183948360Y-95133886D01*
X183848378Y-94984252D01*
X183779509Y-94817987D01*
X183744400Y-94641482D01*
X183744400Y-94461518D01*
X183779509Y-94285013D01*
X183848378Y-94118748D01*
X183948360Y-93969114D01*
X184075614Y-93841860D01*
X184225248Y-93741878D01*
X184391513Y-93673009D01*
X184535516Y-93644365D01*
X184568017Y-93637900D01*
X184747983Y-93637900D01*
X184780484Y-93644365D01*
G37*
G36*
X187320484Y-93644365D02*
G01*
X187464487Y-93673009D01*
X187630752Y-93741878D01*
X187780386Y-93841860D01*
X187907640Y-93969114D01*
X188007622Y-94118748D01*
X188076491Y-94285013D01*
X188111600Y-94461518D01*
X188111600Y-94641482D01*
X188076491Y-94817987D01*
X188007622Y-94984252D01*
X187907640Y-95133886D01*
X187780386Y-95261140D01*
X187630752Y-95361122D01*
X187464487Y-95429991D01*
X187346817Y-95453397D01*
X187287983Y-95465100D01*
X187108017Y-95465100D01*
X187049183Y-95453397D01*
X186931513Y-95429991D01*
X186765248Y-95361122D01*
X186615614Y-95261140D01*
X186488360Y-95133886D01*
X186388378Y-94984252D01*
X186319509Y-94817987D01*
X186284400Y-94641482D01*
X186284400Y-94461518D01*
X186319509Y-94285013D01*
X186388378Y-94118748D01*
X186488360Y-93969114D01*
X186615614Y-93841860D01*
X186765248Y-93741878D01*
X186931513Y-93673009D01*
X187075516Y-93644365D01*
X187108017Y-93637900D01*
X187287983Y-93637900D01*
X187320484Y-93644365D01*
G37*
G36*
X138859827Y-92620076D02*
G01*
X139010629Y-92665821D01*
X139149605Y-92740105D01*
X139271422Y-92840078D01*
X139371395Y-92961895D01*
X139445679Y-93100871D01*
X139491424Y-93251673D01*
X139506870Y-93408500D01*
X139491424Y-93565327D01*
X139445679Y-93716129D01*
X139371395Y-93855105D01*
X139271422Y-93976922D01*
X139149605Y-94076895D01*
X139010629Y-94151179D01*
X138859827Y-94196924D01*
X138742295Y-94208500D01*
X137863705Y-94208500D01*
X137746173Y-94196924D01*
X137595371Y-94151179D01*
X137456395Y-94076895D01*
X137334578Y-93976922D01*
X137234605Y-93855105D01*
X137160321Y-93716129D01*
X137114576Y-93565327D01*
X137099130Y-93408500D01*
X137114576Y-93251673D01*
X137160321Y-93100871D01*
X137234605Y-92961895D01*
X137334578Y-92840078D01*
X137456395Y-92740105D01*
X137595371Y-92665821D01*
X137746173Y-92620076D01*
X137863705Y-92608500D01*
X138742295Y-92608500D01*
X138859827Y-92620076D01*
G37*
G36*
X98140422Y-92640905D02*
G01*
X98262948Y-92678073D01*
X98375868Y-92738430D01*
X98474843Y-92819657D01*
X98556070Y-92918632D01*
X98616427Y-93031552D01*
X98653595Y-93154078D01*
X98666145Y-93281500D01*
X98653595Y-93408922D01*
X98616427Y-93531448D01*
X98556070Y-93644368D01*
X98474843Y-93743343D01*
X98375868Y-93824570D01*
X98262948Y-93884927D01*
X98140422Y-93922095D01*
X98044932Y-93931500D01*
X97181068Y-93931500D01*
X97085578Y-93922095D01*
X96963052Y-93884927D01*
X96850132Y-93824570D01*
X96751157Y-93743343D01*
X96669930Y-93644368D01*
X96609573Y-93531448D01*
X96572405Y-93408922D01*
X96559855Y-93281500D01*
X96572405Y-93154078D01*
X96609573Y-93031552D01*
X96669930Y-92918632D01*
X96751157Y-92819657D01*
X96850132Y-92738430D01*
X96963052Y-92678073D01*
X97085578Y-92640905D01*
X97181068Y-92631500D01*
X98044932Y-92631500D01*
X98140422Y-92640905D01*
G37*
G36*
X126180422Y-92640905D02*
G01*
X126302948Y-92678073D01*
X126415868Y-92738430D01*
X126514843Y-92819657D01*
X126596070Y-92918632D01*
X126656427Y-93031552D01*
X126693595Y-93154078D01*
X126706145Y-93281500D01*
X126693595Y-93408922D01*
X126656427Y-93531448D01*
X126596070Y-93644368D01*
X126514843Y-93743343D01*
X126415868Y-93824570D01*
X126302948Y-93884927D01*
X126180422Y-93922095D01*
X126084932Y-93931500D01*
X125221068Y-93931500D01*
X125125578Y-93922095D01*
X125003052Y-93884927D01*
X124890132Y-93824570D01*
X124791157Y-93743343D01*
X124709930Y-93644368D01*
X124649573Y-93531448D01*
X124612405Y-93408922D01*
X124599855Y-93281500D01*
X124612405Y-93154078D01*
X124649573Y-93031552D01*
X124709930Y-92918632D01*
X124791157Y-92819657D01*
X124890132Y-92738430D01*
X125003052Y-92678073D01*
X125125578Y-92640905D01*
X125221068Y-92631500D01*
X126084932Y-92631500D01*
X126180422Y-92640905D01*
G37*
G36*
X123590422Y-92640905D02*
G01*
X123712948Y-92678073D01*
X123825868Y-92738430D01*
X123924843Y-92819657D01*
X124006070Y-92918632D01*
X124066427Y-93031552D01*
X124103595Y-93154078D01*
X124116145Y-93281500D01*
X124103595Y-93408922D01*
X124066427Y-93531448D01*
X124006070Y-93644368D01*
X123924843Y-93743343D01*
X123825868Y-93824570D01*
X123712948Y-93884927D01*
X123590422Y-93922095D01*
X123494932Y-93931500D01*
X122631068Y-93931500D01*
X122535578Y-93922095D01*
X122413052Y-93884927D01*
X122300132Y-93824570D01*
X122201157Y-93743343D01*
X122119930Y-93644368D01*
X122059573Y-93531448D01*
X122022405Y-93408922D01*
X122009855Y-93281500D01*
X122022405Y-93154078D01*
X122059573Y-93031552D01*
X122119930Y-92918632D01*
X122201157Y-92819657D01*
X122300132Y-92738430D01*
X122413052Y-92678073D01*
X122535578Y-92640905D01*
X122631068Y-92631500D01*
X123494932Y-92631500D01*
X123590422Y-92640905D01*
G37*
G36*
X95600422Y-92640905D02*
G01*
X95722948Y-92678073D01*
X95835868Y-92738430D01*
X95934843Y-92819657D01*
X96016070Y-92918632D01*
X96076427Y-93031552D01*
X96113595Y-93154078D01*
X96126145Y-93281500D01*
X96113595Y-93408922D01*
X96076427Y-93531448D01*
X96016070Y-93644368D01*
X95934843Y-93743343D01*
X95835868Y-93824570D01*
X95722948Y-93884927D01*
X95600422Y-93922095D01*
X95504932Y-93931500D01*
X94641068Y-93931500D01*
X94545578Y-93922095D01*
X94423052Y-93884927D01*
X94310132Y-93824570D01*
X94211157Y-93743343D01*
X94129930Y-93644368D01*
X94069573Y-93531448D01*
X94032405Y-93408922D01*
X94019855Y-93281500D01*
X94032405Y-93154078D01*
X94069573Y-93031552D01*
X94129930Y-92918632D01*
X94211157Y-92819657D01*
X94310132Y-92738430D01*
X94423052Y-92678073D01*
X94545578Y-92640905D01*
X94641068Y-92631500D01*
X95504932Y-92631500D01*
X95600422Y-92640905D01*
G37*
G36*
X177160484Y-91104365D02*
G01*
X177304487Y-91133009D01*
X177470752Y-91201878D01*
X177620386Y-91301860D01*
X177747640Y-91429114D01*
X177847622Y-91578748D01*
X177916491Y-91745013D01*
X177951600Y-91921518D01*
X177951600Y-92101482D01*
X177916491Y-92277987D01*
X177847622Y-92444252D01*
X177747640Y-92593886D01*
X177620386Y-92721140D01*
X177470752Y-92821122D01*
X177304487Y-92889991D01*
X177186817Y-92913397D01*
X177127983Y-92925100D01*
X176948017Y-92925100D01*
X176889183Y-92913397D01*
X176771513Y-92889991D01*
X176605248Y-92821122D01*
X176455614Y-92721140D01*
X176328360Y-92593886D01*
X176228378Y-92444252D01*
X176159509Y-92277987D01*
X176124400Y-92101482D01*
X176124400Y-91921518D01*
X176159509Y-91745013D01*
X176228378Y-91578748D01*
X176328360Y-91429114D01*
X176455614Y-91301860D01*
X176605248Y-91201878D01*
X176771513Y-91133009D01*
X176915516Y-91104365D01*
X176948017Y-91097900D01*
X177127983Y-91097900D01*
X177160484Y-91104365D01*
G37*
G36*
X179700484Y-91104365D02*
G01*
X179844487Y-91133009D01*
X180010752Y-91201878D01*
X180160386Y-91301860D01*
X180287640Y-91429114D01*
X180387622Y-91578748D01*
X180456491Y-91745013D01*
X180491600Y-91921518D01*
X180491600Y-92101482D01*
X180456491Y-92277987D01*
X180387622Y-92444252D01*
X180287640Y-92593886D01*
X180160386Y-92721140D01*
X180010752Y-92821122D01*
X179844487Y-92889991D01*
X179726817Y-92913397D01*
X179667983Y-92925100D01*
X179488017Y-92925100D01*
X179429183Y-92913397D01*
X179311513Y-92889991D01*
X179145248Y-92821122D01*
X178995614Y-92721140D01*
X178868360Y-92593886D01*
X178768378Y-92444252D01*
X178699509Y-92277987D01*
X178664400Y-92101482D01*
X178664400Y-91921518D01*
X178699509Y-91745013D01*
X178768378Y-91578748D01*
X178868360Y-91429114D01*
X178995614Y-91301860D01*
X179145248Y-91201878D01*
X179311513Y-91133009D01*
X179455516Y-91104365D01*
X179488017Y-91097900D01*
X179667983Y-91097900D01*
X179700484Y-91104365D01*
G37*
G36*
X184780484Y-91104365D02*
G01*
X184924487Y-91133009D01*
X185090752Y-91201878D01*
X185240386Y-91301860D01*
X185367640Y-91429114D01*
X185467622Y-91578748D01*
X185536491Y-91745013D01*
X185571600Y-91921518D01*
X185571600Y-92101482D01*
X185536491Y-92277987D01*
X185467622Y-92444252D01*
X185367640Y-92593886D01*
X185240386Y-92721140D01*
X185090752Y-92821122D01*
X184924487Y-92889991D01*
X184806817Y-92913397D01*
X184747983Y-92925100D01*
X184568017Y-92925100D01*
X184509183Y-92913397D01*
X184391513Y-92889991D01*
X184225248Y-92821122D01*
X184075614Y-92721140D01*
X183948360Y-92593886D01*
X183848378Y-92444252D01*
X183779509Y-92277987D01*
X183744400Y-92101482D01*
X183744400Y-91921518D01*
X183779509Y-91745013D01*
X183848378Y-91578748D01*
X183948360Y-91429114D01*
X184075614Y-91301860D01*
X184225248Y-91201878D01*
X184391513Y-91133009D01*
X184535516Y-91104365D01*
X184568017Y-91097900D01*
X184747983Y-91097900D01*
X184780484Y-91104365D01*
G37*
G36*
X182240484Y-91104365D02*
G01*
X182384487Y-91133009D01*
X182550752Y-91201878D01*
X182700386Y-91301860D01*
X182827640Y-91429114D01*
X182927622Y-91578748D01*
X182996491Y-91745013D01*
X183031600Y-91921518D01*
X183031600Y-92101482D01*
X182996491Y-92277987D01*
X182927622Y-92444252D01*
X182827640Y-92593886D01*
X182700386Y-92721140D01*
X182550752Y-92821122D01*
X182384487Y-92889991D01*
X182266817Y-92913397D01*
X182207983Y-92925100D01*
X182028017Y-92925100D01*
X181969183Y-92913397D01*
X181851513Y-92889991D01*
X181685248Y-92821122D01*
X181535614Y-92721140D01*
X181408360Y-92593886D01*
X181308378Y-92444252D01*
X181239509Y-92277987D01*
X181204400Y-92101482D01*
X181204400Y-91921518D01*
X181239509Y-91745013D01*
X181308378Y-91578748D01*
X181408360Y-91429114D01*
X181535614Y-91301860D01*
X181685248Y-91201878D01*
X181851513Y-91133009D01*
X181995516Y-91104365D01*
X182028017Y-91097900D01*
X182207983Y-91097900D01*
X182240484Y-91104365D01*
G37*
G36*
X188111600Y-92925100D02*
G01*
X186284400Y-92925100D01*
X186284400Y-91097900D01*
X188111600Y-91097900D01*
X188111600Y-92925100D01*
G37*
G36*
X145521000Y-92683300D02*
G01*
X143421000Y-92683300D01*
X143421000Y-88583300D01*
X145521000Y-88583300D01*
X145521000Y-92683300D01*
G37*
G36*
X154521000Y-92683300D02*
G01*
X152421000Y-92683300D01*
X152421000Y-88583300D01*
X154521000Y-88583300D01*
X154521000Y-92683300D01*
G37*
G36*
X150871000Y-92683300D02*
G01*
X147071000Y-92683300D01*
X147071000Y-90583300D01*
X150871000Y-90583300D01*
X150871000Y-92683300D01*
G37*
G36*
X90650295Y-88104509D02*
G01*
X90650298Y-88104510D01*
X90650297Y-88104510D01*
X91029197Y-88261455D01*
X91370198Y-88489305D01*
X91660195Y-88779302D01*
X91888045Y-89120303D01*
X91937164Y-89238888D01*
X92044991Y-89499205D01*
X92125000Y-89901439D01*
X92125000Y-90311561D01*
X92044991Y-90713795D01*
X92044990Y-90713797D01*
X91888045Y-91092697D01*
X91660195Y-91433698D01*
X91370198Y-91723695D01*
X91029197Y-91951545D01*
X90715305Y-92081563D01*
X90650295Y-92108491D01*
X90248061Y-92188500D01*
X89837939Y-92188500D01*
X89435705Y-92108491D01*
X89370695Y-92081563D01*
X89056803Y-91951545D01*
X88715802Y-91723695D01*
X88425805Y-91433698D01*
X88197955Y-91092697D01*
X88041010Y-90713797D01*
X88041009Y-90713795D01*
X87961000Y-90311561D01*
X87961000Y-89901439D01*
X88041009Y-89499205D01*
X88148836Y-89238888D01*
X88197955Y-89120303D01*
X88425805Y-88779302D01*
X88715802Y-88489305D01*
X89056803Y-88261455D01*
X89435703Y-88104510D01*
X89435702Y-88104510D01*
X89435705Y-88104509D01*
X89837939Y-88024500D01*
X90248061Y-88024500D01*
X90650295Y-88104509D01*
G37*
G36*
X196695295Y-88104509D02*
G01*
X196695298Y-88104510D01*
X196695297Y-88104510D01*
X197074197Y-88261455D01*
X197415198Y-88489305D01*
X197705195Y-88779302D01*
X197933045Y-89120303D01*
X197982164Y-89238888D01*
X198089991Y-89499205D01*
X198170000Y-89901439D01*
X198170000Y-90311561D01*
X198089991Y-90713795D01*
X198089990Y-90713797D01*
X197933045Y-91092697D01*
X197705195Y-91433698D01*
X197415198Y-91723695D01*
X197074197Y-91951545D01*
X196760305Y-92081563D01*
X196695295Y-92108491D01*
X196293061Y-92188500D01*
X195882939Y-92188500D01*
X195480705Y-92108491D01*
X195415695Y-92081563D01*
X195101803Y-91951545D01*
X194760802Y-91723695D01*
X194470805Y-91433698D01*
X194242955Y-91092697D01*
X194086010Y-90713797D01*
X194086009Y-90713795D01*
X194006000Y-90311561D01*
X194006000Y-89901439D01*
X194086009Y-89499205D01*
X194193836Y-89238888D01*
X194242955Y-89120303D01*
X194470805Y-88779302D01*
X194760802Y-88489305D01*
X195101803Y-88261455D01*
X195480703Y-88104510D01*
X195480702Y-88104510D01*
X195480705Y-88104509D01*
X195882939Y-88024500D01*
X196293061Y-88024500D01*
X196695295Y-88104509D01*
G37*
G36*
X138859827Y-90080076D02*
G01*
X139010629Y-90125821D01*
X139149605Y-90200105D01*
X139271422Y-90300078D01*
X139371395Y-90421895D01*
X139445679Y-90560871D01*
X139491424Y-90711673D01*
X139506870Y-90868500D01*
X139491424Y-91025327D01*
X139445679Y-91176129D01*
X139371395Y-91315105D01*
X139271422Y-91436922D01*
X139149605Y-91536895D01*
X139010629Y-91611179D01*
X138859827Y-91656924D01*
X138742295Y-91668500D01*
X137863705Y-91668500D01*
X137746173Y-91656924D01*
X137595371Y-91611179D01*
X137456395Y-91536895D01*
X137334578Y-91436922D01*
X137234605Y-91315105D01*
X137160321Y-91176129D01*
X137114576Y-91025327D01*
X137099130Y-90868500D01*
X137114576Y-90711673D01*
X137160321Y-90560871D01*
X137234605Y-90421895D01*
X137334578Y-90300078D01*
X137456395Y-90200105D01*
X137595371Y-90125821D01*
X137746173Y-90080076D01*
X137863705Y-90068500D01*
X138742295Y-90068500D01*
X138859827Y-90080076D01*
G37*
G36*
X98140422Y-90100905D02*
G01*
X98262948Y-90138073D01*
X98375868Y-90198430D01*
X98474843Y-90279657D01*
X98556070Y-90378632D01*
X98616427Y-90491552D01*
X98653595Y-90614078D01*
X98666145Y-90741500D01*
X98653595Y-90868922D01*
X98616427Y-90991448D01*
X98556070Y-91104368D01*
X98474843Y-91203343D01*
X98375868Y-91284570D01*
X98262948Y-91344927D01*
X98140422Y-91382095D01*
X98044932Y-91391500D01*
X97181068Y-91391500D01*
X97085578Y-91382095D01*
X96963052Y-91344927D01*
X96850132Y-91284570D01*
X96751157Y-91203343D01*
X96669930Y-91104368D01*
X96609573Y-90991448D01*
X96572405Y-90868922D01*
X96559855Y-90741500D01*
X96572405Y-90614078D01*
X96609573Y-90491552D01*
X96669930Y-90378632D01*
X96751157Y-90279657D01*
X96850132Y-90198430D01*
X96963052Y-90138073D01*
X97085578Y-90100905D01*
X97181068Y-90091500D01*
X98044932Y-90091500D01*
X98140422Y-90100905D01*
G37*
G36*
X95600422Y-90100905D02*
G01*
X95722948Y-90138073D01*
X95835868Y-90198430D01*
X95934843Y-90279657D01*
X96016070Y-90378632D01*
X96076427Y-90491552D01*
X96113595Y-90614078D01*
X96126145Y-90741500D01*
X96113595Y-90868922D01*
X96076427Y-90991448D01*
X96016070Y-91104368D01*
X95934843Y-91203343D01*
X95835868Y-91284570D01*
X95722948Y-91344927D01*
X95600422Y-91382095D01*
X95504932Y-91391500D01*
X94641068Y-91391500D01*
X94545578Y-91382095D01*
X94423052Y-91344927D01*
X94310132Y-91284570D01*
X94211157Y-91203343D01*
X94129930Y-91104368D01*
X94069573Y-90991448D01*
X94032405Y-90868922D01*
X94019855Y-90741500D01*
X94032405Y-90614078D01*
X94069573Y-90491552D01*
X94129930Y-90378632D01*
X94211157Y-90279657D01*
X94310132Y-90198430D01*
X94423052Y-90138073D01*
X94545578Y-90100905D01*
X94641068Y-90091500D01*
X95504932Y-90091500D01*
X95600422Y-90100905D01*
G37*
G36*
X126180422Y-90100905D02*
G01*
X126302948Y-90138073D01*
X126415868Y-90198430D01*
X126514843Y-90279657D01*
X126596070Y-90378632D01*
X126656427Y-90491552D01*
X126693595Y-90614078D01*
X126706145Y-90741500D01*
X126693595Y-90868922D01*
X126656427Y-90991448D01*
X126596070Y-91104368D01*
X126514843Y-91203343D01*
X126415868Y-91284570D01*
X126302948Y-91344927D01*
X126180422Y-91382095D01*
X126084932Y-91391500D01*
X125221068Y-91391500D01*
X125125578Y-91382095D01*
X125003052Y-91344927D01*
X124890132Y-91284570D01*
X124791157Y-91203343D01*
X124709930Y-91104368D01*
X124649573Y-90991448D01*
X124612405Y-90868922D01*
X124599855Y-90741500D01*
X124612405Y-90614078D01*
X124649573Y-90491552D01*
X124709930Y-90378632D01*
X124791157Y-90279657D01*
X124890132Y-90198430D01*
X125003052Y-90138073D01*
X125125578Y-90100905D01*
X125221068Y-90091500D01*
X126084932Y-90091500D01*
X126180422Y-90100905D01*
G37*
G36*
X123590422Y-90100905D02*
G01*
X123712948Y-90138073D01*
X123825868Y-90198430D01*
X123924843Y-90279657D01*
X124006070Y-90378632D01*
X124066427Y-90491552D01*
X124103595Y-90614078D01*
X124116145Y-90741500D01*
X124103595Y-90868922D01*
X124066427Y-90991448D01*
X124006070Y-91104368D01*
X123924843Y-91203343D01*
X123825868Y-91284570D01*
X123712948Y-91344927D01*
X123590422Y-91382095D01*
X123494932Y-91391500D01*
X122631068Y-91391500D01*
X122535578Y-91382095D01*
X122413052Y-91344927D01*
X122300132Y-91284570D01*
X122201157Y-91203343D01*
X122119930Y-91104368D01*
X122059573Y-90991448D01*
X122022405Y-90868922D01*
X122009855Y-90741500D01*
X122022405Y-90614078D01*
X122059573Y-90491552D01*
X122119930Y-90378632D01*
X122201157Y-90279657D01*
X122300132Y-90198430D01*
X122413052Y-90138073D01*
X122535578Y-90100905D01*
X122631068Y-90091500D01*
X123494932Y-90091500D01*
X123590422Y-90100905D01*
G37*
G36*
X149248103Y-87719807D02*
G01*
X149420992Y-87791420D01*
X149420994Y-87791421D01*
X149576590Y-87895387D01*
X149708913Y-88027710D01*
X149708914Y-88027712D01*
X149812880Y-88183308D01*
X149884493Y-88356197D01*
X149921000Y-88539732D01*
X149921000Y-88726868D01*
X149884493Y-88910403D01*
X149884492Y-88910405D01*
X149812879Y-89083294D01*
X149708913Y-89238890D01*
X149576590Y-89371213D01*
X149420994Y-89475179D01*
X149420993Y-89475180D01*
X149420992Y-89475180D01*
X149248103Y-89546793D01*
X149064568Y-89583300D01*
X148877432Y-89583300D01*
X148693897Y-89546793D01*
X148521008Y-89475180D01*
X148521007Y-89475180D01*
X148521006Y-89475179D01*
X148365410Y-89371213D01*
X148233087Y-89238890D01*
X148129121Y-89083294D01*
X148057508Y-88910405D01*
X148057507Y-88910403D01*
X148021000Y-88726868D01*
X148021000Y-88539732D01*
X148057507Y-88356197D01*
X148129120Y-88183308D01*
X148233086Y-88027712D01*
X148233087Y-88027710D01*
X148365410Y-87895387D01*
X148521006Y-87791421D01*
X148521008Y-87791420D01*
X148693897Y-87719807D01*
X148877432Y-87683300D01*
X149064568Y-87683300D01*
X149248103Y-87719807D01*
G37*
G36*
X98140422Y-87560905D02*
G01*
X98262948Y-87598073D01*
X98375868Y-87658430D01*
X98474843Y-87739657D01*
X98556070Y-87838632D01*
X98616427Y-87951552D01*
X98653595Y-88074078D01*
X98666145Y-88201500D01*
X98653595Y-88328922D01*
X98616427Y-88451448D01*
X98556070Y-88564368D01*
X98474843Y-88663343D01*
X98375868Y-88744570D01*
X98262948Y-88804927D01*
X98140422Y-88842095D01*
X98044932Y-88851500D01*
X97181068Y-88851500D01*
X97085578Y-88842095D01*
X96963052Y-88804927D01*
X96850132Y-88744570D01*
X96751157Y-88663343D01*
X96669930Y-88564368D01*
X96609573Y-88451448D01*
X96572405Y-88328922D01*
X96559855Y-88201500D01*
X96572405Y-88074078D01*
X96609573Y-87951552D01*
X96669930Y-87838632D01*
X96751157Y-87739657D01*
X96850132Y-87658430D01*
X96963052Y-87598073D01*
X97085578Y-87560905D01*
X97181068Y-87551500D01*
X98044932Y-87551500D01*
X98140422Y-87560905D01*
G37*
G36*
X123590422Y-87560905D02*
G01*
X123712948Y-87598073D01*
X123825868Y-87658430D01*
X123924843Y-87739657D01*
X124006070Y-87838632D01*
X124066427Y-87951552D01*
X124103595Y-88074078D01*
X124116145Y-88201500D01*
X124103595Y-88328922D01*
X124066427Y-88451448D01*
X124006070Y-88564368D01*
X123924843Y-88663343D01*
X123825868Y-88744570D01*
X123712948Y-88804927D01*
X123590422Y-88842095D01*
X123494932Y-88851500D01*
X122631068Y-88851500D01*
X122535578Y-88842095D01*
X122413052Y-88804927D01*
X122300132Y-88744570D01*
X122201157Y-88663343D01*
X122119930Y-88564368D01*
X122059573Y-88451448D01*
X122022405Y-88328922D01*
X122009855Y-88201500D01*
X122022405Y-88074078D01*
X122059573Y-87951552D01*
X122119930Y-87838632D01*
X122201157Y-87739657D01*
X122300132Y-87658430D01*
X122413052Y-87598073D01*
X122535578Y-87560905D01*
X122631068Y-87551500D01*
X123494932Y-87551500D01*
X123590422Y-87560905D01*
G37*
G36*
X126180422Y-87560905D02*
G01*
X126302948Y-87598073D01*
X126415868Y-87658430D01*
X126514843Y-87739657D01*
X126596070Y-87838632D01*
X126656427Y-87951552D01*
X126693595Y-88074078D01*
X126706145Y-88201500D01*
X126693595Y-88328922D01*
X126656427Y-88451448D01*
X126596070Y-88564368D01*
X126514843Y-88663343D01*
X126415868Y-88744570D01*
X126302948Y-88804927D01*
X126180422Y-88842095D01*
X126084932Y-88851500D01*
X125221068Y-88851500D01*
X125125578Y-88842095D01*
X125003052Y-88804927D01*
X124890132Y-88744570D01*
X124791157Y-88663343D01*
X124709930Y-88564368D01*
X124649573Y-88451448D01*
X124612405Y-88328922D01*
X124599855Y-88201500D01*
X124612405Y-88074078D01*
X124649573Y-87951552D01*
X124709930Y-87838632D01*
X124791157Y-87739657D01*
X124890132Y-87658430D01*
X125003052Y-87598073D01*
X125125578Y-87560905D01*
X125221068Y-87551500D01*
X126084932Y-87551500D01*
X126180422Y-87560905D01*
G37*
G36*
X95600422Y-87560905D02*
G01*
X95722948Y-87598073D01*
X95835868Y-87658430D01*
X95934843Y-87739657D01*
X96016070Y-87838632D01*
X96076427Y-87951552D01*
X96113595Y-88074078D01*
X96126145Y-88201500D01*
X96113595Y-88328922D01*
X96076427Y-88451448D01*
X96016070Y-88564368D01*
X95934843Y-88663343D01*
X95835868Y-88744570D01*
X95722948Y-88804927D01*
X95600422Y-88842095D01*
X95504932Y-88851500D01*
X94641068Y-88851500D01*
X94545578Y-88842095D01*
X94423052Y-88804927D01*
X94310132Y-88744570D01*
X94211157Y-88663343D01*
X94129930Y-88564368D01*
X94069573Y-88451448D01*
X94032405Y-88328922D01*
X94019855Y-88201500D01*
X94032405Y-88074078D01*
X94069573Y-87951552D01*
X94129930Y-87838632D01*
X94211157Y-87739657D01*
X94310132Y-87658430D01*
X94423052Y-87598073D01*
X94545578Y-87560905D01*
X94641068Y-87551500D01*
X95504932Y-87551500D01*
X95600422Y-87560905D01*
G37*
M02*
