G04 #@! TF.FileFunction,Soldermask,Top*
%FSLAX46Y46*%
G04 Gerber Fmt 4.6, Leading zero omitted, Abs format (unit mm)*
G04 Created by KiCad (PCBNEW 4.0.6) date 06/27/17 09:44:02*
%MOMM*%
%LPD*%
G01*
G04 APERTURE LIST*
%ADD10C,0.100000*%
G04 APERTURE END LIST*
D10*
G36*
X90261681Y-140730885D02*
X90661645Y-140812986D01*
X91038040Y-140971208D01*
X91376539Y-141199527D01*
X91664244Y-141489249D01*
X91890195Y-141829331D01*
X92045785Y-142206822D01*
X92125024Y-142607006D01*
X92125024Y-142607020D01*
X92125089Y-142607349D01*
X92118577Y-143073706D01*
X92118501Y-143074040D01*
X92118501Y-143074052D01*
X92028122Y-143471860D01*
X91862050Y-143844864D01*
X91626693Y-144178504D01*
X91331007Y-144460081D01*
X90986271Y-144678857D01*
X90605600Y-144826511D01*
X90203504Y-144897410D01*
X89795292Y-144888860D01*
X89396509Y-144801182D01*
X89022360Y-144637720D01*
X88687084Y-144404697D01*
X88403452Y-144110987D01*
X88182274Y-143767786D01*
X88031968Y-143388156D01*
X87958260Y-142986557D01*
X87963962Y-142578297D01*
X88048851Y-142178921D01*
X88209700Y-141803634D01*
X88440377Y-141466740D01*
X88732099Y-141181064D01*
X89073749Y-140957494D01*
X89452320Y-140804541D01*
X89853386Y-140728034D01*
X90261681Y-140730885D01*
X90261681Y-140730885D01*
G37*
G36*
X196306681Y-140730885D02*
X196706645Y-140812986D01*
X197083040Y-140971208D01*
X197421539Y-141199527D01*
X197709244Y-141489249D01*
X197935195Y-141829331D01*
X198090785Y-142206822D01*
X198170024Y-142607006D01*
X198170024Y-142607020D01*
X198170089Y-142607349D01*
X198163577Y-143073706D01*
X198163501Y-143074040D01*
X198163501Y-143074052D01*
X198073122Y-143471860D01*
X197907050Y-143844864D01*
X197671693Y-144178504D01*
X197376007Y-144460081D01*
X197031271Y-144678857D01*
X196650600Y-144826511D01*
X196248504Y-144897410D01*
X195840292Y-144888860D01*
X195441509Y-144801182D01*
X195067360Y-144637720D01*
X194732084Y-144404697D01*
X194448452Y-144110987D01*
X194227274Y-143767786D01*
X194076968Y-143388156D01*
X194003260Y-142986557D01*
X194008962Y-142578297D01*
X194093851Y-142178921D01*
X194254700Y-141803634D01*
X194485377Y-141466740D01*
X194777099Y-141181064D01*
X195118749Y-140957494D01*
X195497320Y-140804541D01*
X195898386Y-140728034D01*
X196306681Y-140730885D01*
X196306681Y-140730885D01*
G37*
G36*
X169427600Y-143517100D02*
X167327600Y-143517100D01*
X167327600Y-142817100D01*
X169427600Y-142817100D01*
X169427600Y-143517100D01*
X169427600Y-143517100D01*
G37*
G36*
X160027600Y-143517100D02*
X157927600Y-143517100D01*
X157927600Y-142817100D01*
X160027600Y-142817100D01*
X160027600Y-143517100D01*
X160027600Y-143517100D01*
G37*
G36*
X160027600Y-142247100D02*
X157927600Y-142247100D01*
X157927600Y-141547100D01*
X160027600Y-141547100D01*
X160027600Y-142247100D01*
X160027600Y-142247100D01*
G37*
G36*
X169427600Y-142247100D02*
X167327600Y-142247100D01*
X167327600Y-141547100D01*
X169427600Y-141547100D01*
X169427600Y-142247100D01*
X169427600Y-142247100D01*
G37*
G36*
X160027600Y-140977100D02*
X157927600Y-140977100D01*
X157927600Y-140277100D01*
X160027600Y-140277100D01*
X160027600Y-140977100D01*
X160027600Y-140977100D01*
G37*
G36*
X169427600Y-140977100D02*
X167327600Y-140977100D01*
X167327600Y-140277100D01*
X169427600Y-140277100D01*
X169427600Y-140977100D01*
X169427600Y-140977100D01*
G37*
G36*
X149285219Y-137074410D02*
X149285233Y-137074414D01*
X149285268Y-137074418D01*
X149435350Y-137120876D01*
X149573550Y-137195601D01*
X149694604Y-137295745D01*
X149793902Y-137417496D01*
X149867660Y-137556214D01*
X149913069Y-137706617D01*
X149928400Y-137862976D01*
X149928400Y-139378024D01*
X149928322Y-139389264D01*
X149910809Y-139545393D01*
X149863304Y-139695147D01*
X149787616Y-139832822D01*
X149686629Y-139953175D01*
X149564188Y-140051619D01*
X149424958Y-140124407D01*
X149274242Y-140168765D01*
X149274212Y-140168768D01*
X149274194Y-140168773D01*
X149117782Y-140183007D01*
X148961581Y-140166590D01*
X148961567Y-140166586D01*
X148961532Y-140166582D01*
X148811450Y-140120124D01*
X148673250Y-140045399D01*
X148552196Y-139945255D01*
X148452898Y-139823504D01*
X148379140Y-139684786D01*
X148333731Y-139534383D01*
X148318400Y-139378024D01*
X148318400Y-137862976D01*
X148318478Y-137851736D01*
X148335991Y-137695607D01*
X148383496Y-137545853D01*
X148459184Y-137408178D01*
X148560171Y-137287825D01*
X148682612Y-137189381D01*
X148821842Y-137116593D01*
X148972558Y-137072235D01*
X148972588Y-137072232D01*
X148972606Y-137072227D01*
X149129018Y-137057993D01*
X149285219Y-137074410D01*
X149285219Y-137074410D01*
G37*
G36*
X151825219Y-137074410D02*
X151825233Y-137074414D01*
X151825268Y-137074418D01*
X151975350Y-137120876D01*
X152113550Y-137195601D01*
X152234604Y-137295745D01*
X152333902Y-137417496D01*
X152407660Y-137556214D01*
X152453069Y-137706617D01*
X152468400Y-137862976D01*
X152468400Y-139378024D01*
X152468322Y-139389264D01*
X152450809Y-139545393D01*
X152403304Y-139695147D01*
X152327616Y-139832822D01*
X152226629Y-139953175D01*
X152104188Y-140051619D01*
X151964958Y-140124407D01*
X151814242Y-140168765D01*
X151814212Y-140168768D01*
X151814194Y-140168773D01*
X151657782Y-140183007D01*
X151501581Y-140166590D01*
X151501567Y-140166586D01*
X151501532Y-140166582D01*
X151351450Y-140120124D01*
X151213250Y-140045399D01*
X151092196Y-139945255D01*
X150992898Y-139823504D01*
X150919140Y-139684786D01*
X150873731Y-139534383D01*
X150858400Y-139378024D01*
X150858400Y-137862976D01*
X150858478Y-137851736D01*
X150875991Y-137695607D01*
X150923496Y-137545853D01*
X150999184Y-137408178D01*
X151100171Y-137287825D01*
X151222612Y-137189381D01*
X151361842Y-137116593D01*
X151512558Y-137072235D01*
X151512588Y-137072232D01*
X151512606Y-137072227D01*
X151669018Y-137057993D01*
X151825219Y-137074410D01*
X151825219Y-137074410D01*
G37*
G36*
X182129596Y-138087950D02*
X182135177Y-138087989D01*
X182312369Y-138107864D01*
X182482326Y-138161778D01*
X182638575Y-138247676D01*
X182775163Y-138362288D01*
X182886889Y-138501246D01*
X182969496Y-138659259D01*
X183019839Y-138830308D01*
X183019843Y-138830347D01*
X183019845Y-138830355D01*
X183036001Y-139007876D01*
X183017368Y-139185155D01*
X183017365Y-139185164D01*
X183017361Y-139185205D01*
X182964635Y-139355534D01*
X182879830Y-139512379D01*
X182766175Y-139649764D01*
X182628000Y-139762457D01*
X182470567Y-139846165D01*
X182299874Y-139897701D01*
X182122421Y-139915100D01*
X182113544Y-139915100D01*
X182106404Y-139915050D01*
X182100823Y-139915011D01*
X181923631Y-139895136D01*
X181753674Y-139841222D01*
X181597425Y-139755324D01*
X181460837Y-139640712D01*
X181349111Y-139501754D01*
X181266504Y-139343741D01*
X181216161Y-139172692D01*
X181216157Y-139172653D01*
X181216155Y-139172645D01*
X181199999Y-138995124D01*
X181218632Y-138817845D01*
X181218635Y-138817836D01*
X181218639Y-138817795D01*
X181271365Y-138647466D01*
X181356170Y-138490621D01*
X181469825Y-138353236D01*
X181608000Y-138240543D01*
X181765433Y-138156835D01*
X181936126Y-138105299D01*
X182113579Y-138087900D01*
X182122456Y-138087900D01*
X182129596Y-138087950D01*
X182129596Y-138087950D01*
G37*
G36*
X187209596Y-138087950D02*
X187215177Y-138087989D01*
X187392369Y-138107864D01*
X187562326Y-138161778D01*
X187718575Y-138247676D01*
X187855163Y-138362288D01*
X187966889Y-138501246D01*
X188049496Y-138659259D01*
X188099839Y-138830308D01*
X188099843Y-138830347D01*
X188099845Y-138830355D01*
X188116001Y-139007876D01*
X188097368Y-139185155D01*
X188097365Y-139185164D01*
X188097361Y-139185205D01*
X188044635Y-139355534D01*
X187959830Y-139512379D01*
X187846175Y-139649764D01*
X187708000Y-139762457D01*
X187550567Y-139846165D01*
X187379874Y-139897701D01*
X187202421Y-139915100D01*
X187193544Y-139915100D01*
X187186404Y-139915050D01*
X187180823Y-139915011D01*
X187003631Y-139895136D01*
X186833674Y-139841222D01*
X186677425Y-139755324D01*
X186540837Y-139640712D01*
X186429111Y-139501754D01*
X186346504Y-139343741D01*
X186296161Y-139172692D01*
X186296157Y-139172653D01*
X186296155Y-139172645D01*
X186279999Y-138995124D01*
X186298632Y-138817845D01*
X186298635Y-138817836D01*
X186298639Y-138817795D01*
X186351365Y-138647466D01*
X186436170Y-138490621D01*
X186549825Y-138353236D01*
X186688000Y-138240543D01*
X186845433Y-138156835D01*
X187016126Y-138105299D01*
X187193579Y-138087900D01*
X187202456Y-138087900D01*
X187209596Y-138087950D01*
X187209596Y-138087950D01*
G37*
G36*
X184669596Y-138087950D02*
X184675177Y-138087989D01*
X184852369Y-138107864D01*
X185022326Y-138161778D01*
X185178575Y-138247676D01*
X185315163Y-138362288D01*
X185426889Y-138501246D01*
X185509496Y-138659259D01*
X185559839Y-138830308D01*
X185559843Y-138830347D01*
X185559845Y-138830355D01*
X185576001Y-139007876D01*
X185557368Y-139185155D01*
X185557365Y-139185164D01*
X185557361Y-139185205D01*
X185504635Y-139355534D01*
X185419830Y-139512379D01*
X185306175Y-139649764D01*
X185168000Y-139762457D01*
X185010567Y-139846165D01*
X184839874Y-139897701D01*
X184662421Y-139915100D01*
X184653544Y-139915100D01*
X184646404Y-139915050D01*
X184640823Y-139915011D01*
X184463631Y-139895136D01*
X184293674Y-139841222D01*
X184137425Y-139755324D01*
X184000837Y-139640712D01*
X183889111Y-139501754D01*
X183806504Y-139343741D01*
X183756161Y-139172692D01*
X183756157Y-139172653D01*
X183756155Y-139172645D01*
X183739999Y-138995124D01*
X183758632Y-138817845D01*
X183758635Y-138817836D01*
X183758639Y-138817795D01*
X183811365Y-138647466D01*
X183896170Y-138490621D01*
X184009825Y-138353236D01*
X184148000Y-138240543D01*
X184305433Y-138156835D01*
X184476126Y-138105299D01*
X184653579Y-138087900D01*
X184662456Y-138087900D01*
X184669596Y-138087950D01*
X184669596Y-138087950D01*
G37*
G36*
X179589596Y-138087950D02*
X179595177Y-138087989D01*
X179772369Y-138107864D01*
X179942326Y-138161778D01*
X180098575Y-138247676D01*
X180235163Y-138362288D01*
X180346889Y-138501246D01*
X180429496Y-138659259D01*
X180479839Y-138830308D01*
X180479843Y-138830347D01*
X180479845Y-138830355D01*
X180496001Y-139007876D01*
X180477368Y-139185155D01*
X180477365Y-139185164D01*
X180477361Y-139185205D01*
X180424635Y-139355534D01*
X180339830Y-139512379D01*
X180226175Y-139649764D01*
X180088000Y-139762457D01*
X179930567Y-139846165D01*
X179759874Y-139897701D01*
X179582421Y-139915100D01*
X179573544Y-139915100D01*
X179566404Y-139915050D01*
X179560823Y-139915011D01*
X179383631Y-139895136D01*
X179213674Y-139841222D01*
X179057425Y-139755324D01*
X178920837Y-139640712D01*
X178809111Y-139501754D01*
X178726504Y-139343741D01*
X178676161Y-139172692D01*
X178676157Y-139172653D01*
X178676155Y-139172645D01*
X178659999Y-138995124D01*
X178678632Y-138817845D01*
X178678635Y-138817836D01*
X178678639Y-138817795D01*
X178731365Y-138647466D01*
X178816170Y-138490621D01*
X178929825Y-138353236D01*
X179068000Y-138240543D01*
X179225433Y-138156835D01*
X179396126Y-138105299D01*
X179573579Y-138087900D01*
X179582456Y-138087900D01*
X179589596Y-138087950D01*
X179589596Y-138087950D01*
G37*
G36*
X177049596Y-138087950D02*
X177055177Y-138087989D01*
X177232369Y-138107864D01*
X177402326Y-138161778D01*
X177558575Y-138247676D01*
X177695163Y-138362288D01*
X177806889Y-138501246D01*
X177889496Y-138659259D01*
X177939839Y-138830308D01*
X177939843Y-138830347D01*
X177939845Y-138830355D01*
X177956001Y-139007876D01*
X177937368Y-139185155D01*
X177937365Y-139185164D01*
X177937361Y-139185205D01*
X177884635Y-139355534D01*
X177799830Y-139512379D01*
X177686175Y-139649764D01*
X177548000Y-139762457D01*
X177390567Y-139846165D01*
X177219874Y-139897701D01*
X177042421Y-139915100D01*
X177033544Y-139915100D01*
X177026404Y-139915050D01*
X177020823Y-139915011D01*
X176843631Y-139895136D01*
X176673674Y-139841222D01*
X176517425Y-139755324D01*
X176380837Y-139640712D01*
X176269111Y-139501754D01*
X176186504Y-139343741D01*
X176136161Y-139172692D01*
X176136157Y-139172653D01*
X176136155Y-139172645D01*
X176119999Y-138995124D01*
X176138632Y-138817845D01*
X176138635Y-138817836D01*
X176138639Y-138817795D01*
X176191365Y-138647466D01*
X176276170Y-138490621D01*
X176389825Y-138353236D01*
X176528000Y-138240543D01*
X176685433Y-138156835D01*
X176856126Y-138105299D01*
X177033579Y-138087900D01*
X177042456Y-138087900D01*
X177049596Y-138087950D01*
X177049596Y-138087950D01*
G37*
G36*
X169427600Y-139707100D02*
X167327600Y-139707100D01*
X167327600Y-139007100D01*
X169427600Y-139007100D01*
X169427600Y-139707100D01*
X169427600Y-139707100D01*
G37*
G36*
X160027600Y-139707100D02*
X157927600Y-139707100D01*
X157927600Y-139007100D01*
X160027600Y-139007100D01*
X160027600Y-139707100D01*
X160027600Y-139707100D01*
G37*
G36*
X140960422Y-137734521D02*
X140960427Y-137734522D01*
X140960470Y-137734527D01*
X141128264Y-137786468D01*
X141282774Y-137870011D01*
X141418114Y-137981974D01*
X141529129Y-138118093D01*
X141611591Y-138273182D01*
X141662360Y-138441334D01*
X141679500Y-138616145D01*
X141679500Y-138624855D01*
X141679412Y-138637421D01*
X141659833Y-138811976D01*
X141606722Y-138979403D01*
X141522102Y-139133325D01*
X141409197Y-139267880D01*
X141272307Y-139377943D01*
X141116646Y-139459320D01*
X140948143Y-139508914D01*
X140948109Y-139508917D01*
X140948096Y-139508921D01*
X140773220Y-139524836D01*
X140598578Y-139506479D01*
X140598573Y-139506478D01*
X140598530Y-139506473D01*
X140430736Y-139454532D01*
X140276226Y-139370989D01*
X140140886Y-139259026D01*
X140029871Y-139122907D01*
X139947409Y-138967818D01*
X139896640Y-138799666D01*
X139879500Y-138624855D01*
X139879500Y-138616145D01*
X139879588Y-138603579D01*
X139899167Y-138429024D01*
X139952278Y-138261597D01*
X140036898Y-138107675D01*
X140149803Y-137973120D01*
X140286693Y-137863057D01*
X140442354Y-137781680D01*
X140610857Y-137732086D01*
X140610891Y-137732083D01*
X140610904Y-137732079D01*
X140785780Y-137716164D01*
X140960422Y-137734521D01*
X140960422Y-137734521D01*
G37*
G36*
X138420422Y-137734521D02*
X138420427Y-137734522D01*
X138420470Y-137734527D01*
X138588264Y-137786468D01*
X138742774Y-137870011D01*
X138878114Y-137981974D01*
X138989129Y-138118093D01*
X139071591Y-138273182D01*
X139122360Y-138441334D01*
X139139500Y-138616145D01*
X139139500Y-138624855D01*
X139139412Y-138637421D01*
X139119833Y-138811976D01*
X139066722Y-138979403D01*
X138982102Y-139133325D01*
X138869197Y-139267880D01*
X138732307Y-139377943D01*
X138576646Y-139459320D01*
X138408143Y-139508914D01*
X138408109Y-139508917D01*
X138408096Y-139508921D01*
X138233220Y-139524836D01*
X138058578Y-139506479D01*
X138058573Y-139506478D01*
X138058530Y-139506473D01*
X137890736Y-139454532D01*
X137736226Y-139370989D01*
X137600886Y-139259026D01*
X137489871Y-139122907D01*
X137407409Y-138967818D01*
X137356640Y-138799666D01*
X137339500Y-138624855D01*
X137339500Y-138616145D01*
X137339588Y-138603579D01*
X137359167Y-138429024D01*
X137412278Y-138261597D01*
X137496898Y-138107675D01*
X137609803Y-137973120D01*
X137746693Y-137863057D01*
X137902354Y-137781680D01*
X138070857Y-137732086D01*
X138070891Y-137732083D01*
X138070904Y-137732079D01*
X138245780Y-137716164D01*
X138420422Y-137734521D01*
X138420422Y-137734521D01*
G37*
G36*
X143500422Y-137734521D02*
X143500427Y-137734522D01*
X143500470Y-137734527D01*
X143668264Y-137786468D01*
X143822774Y-137870011D01*
X143958114Y-137981974D01*
X144069129Y-138118093D01*
X144151591Y-138273182D01*
X144202360Y-138441334D01*
X144219500Y-138616145D01*
X144219500Y-138624855D01*
X144219412Y-138637421D01*
X144199833Y-138811976D01*
X144146722Y-138979403D01*
X144062102Y-139133325D01*
X143949197Y-139267880D01*
X143812307Y-139377943D01*
X143656646Y-139459320D01*
X143488143Y-139508914D01*
X143488109Y-139508917D01*
X143488096Y-139508921D01*
X143313220Y-139524836D01*
X143138578Y-139506479D01*
X143138573Y-139506478D01*
X143138530Y-139506473D01*
X142970736Y-139454532D01*
X142816226Y-139370989D01*
X142680886Y-139259026D01*
X142569871Y-139122907D01*
X142487409Y-138967818D01*
X142436640Y-138799666D01*
X142419500Y-138624855D01*
X142419500Y-138616145D01*
X142419588Y-138603579D01*
X142439167Y-138429024D01*
X142492278Y-138261597D01*
X142576898Y-138107675D01*
X142689803Y-137973120D01*
X142826693Y-137863057D01*
X142982354Y-137781680D01*
X143150857Y-137732086D01*
X143150891Y-137732083D01*
X143150904Y-137732079D01*
X143325780Y-137716164D01*
X143500422Y-137734521D01*
X143500422Y-137734521D01*
G37*
G36*
X136599500Y-139520500D02*
X134799500Y-139520500D01*
X134799500Y-137720500D01*
X136599500Y-137720500D01*
X136599500Y-139520500D01*
X136599500Y-139520500D01*
G37*
G36*
X169427600Y-138437100D02*
X167327600Y-138437100D01*
X167327600Y-137737100D01*
X169427600Y-137737100D01*
X169427600Y-138437100D01*
X169427600Y-138437100D01*
G37*
G36*
X160027600Y-138437100D02*
X157927600Y-138437100D01*
X157927600Y-137737100D01*
X160027600Y-137737100D01*
X160027600Y-138437100D01*
X160027600Y-138437100D01*
G37*
G36*
X188111600Y-137375100D02*
X186284400Y-137375100D01*
X186284400Y-135547900D01*
X188111600Y-135547900D01*
X188111600Y-137375100D01*
X188111600Y-137375100D01*
G37*
G36*
X184669596Y-135547950D02*
X184675177Y-135547989D01*
X184852369Y-135567864D01*
X185022326Y-135621778D01*
X185178575Y-135707676D01*
X185315163Y-135822288D01*
X185426889Y-135961246D01*
X185509496Y-136119259D01*
X185559839Y-136290308D01*
X185559843Y-136290347D01*
X185559845Y-136290355D01*
X185576001Y-136467876D01*
X185557368Y-136645155D01*
X185557365Y-136645164D01*
X185557361Y-136645205D01*
X185504635Y-136815534D01*
X185419830Y-136972379D01*
X185306175Y-137109764D01*
X185168000Y-137222457D01*
X185010567Y-137306165D01*
X184839874Y-137357701D01*
X184662421Y-137375100D01*
X184653544Y-137375100D01*
X184646404Y-137375050D01*
X184640823Y-137375011D01*
X184463631Y-137355136D01*
X184293674Y-137301222D01*
X184137425Y-137215324D01*
X184000837Y-137100712D01*
X183889111Y-136961754D01*
X183806504Y-136803741D01*
X183756161Y-136632692D01*
X183756157Y-136632653D01*
X183756155Y-136632645D01*
X183739999Y-136455124D01*
X183758632Y-136277845D01*
X183758635Y-136277836D01*
X183758639Y-136277795D01*
X183811365Y-136107466D01*
X183896170Y-135950621D01*
X184009825Y-135813236D01*
X184148000Y-135700543D01*
X184305433Y-135616835D01*
X184476126Y-135565299D01*
X184653579Y-135547900D01*
X184662456Y-135547900D01*
X184669596Y-135547950D01*
X184669596Y-135547950D01*
G37*
G36*
X182129596Y-135547950D02*
X182135177Y-135547989D01*
X182312369Y-135567864D01*
X182482326Y-135621778D01*
X182638575Y-135707676D01*
X182775163Y-135822288D01*
X182886889Y-135961246D01*
X182969496Y-136119259D01*
X183019839Y-136290308D01*
X183019843Y-136290347D01*
X183019845Y-136290355D01*
X183036001Y-136467876D01*
X183017368Y-136645155D01*
X183017365Y-136645164D01*
X183017361Y-136645205D01*
X182964635Y-136815534D01*
X182879830Y-136972379D01*
X182766175Y-137109764D01*
X182628000Y-137222457D01*
X182470567Y-137306165D01*
X182299874Y-137357701D01*
X182122421Y-137375100D01*
X182113544Y-137375100D01*
X182106404Y-137375050D01*
X182100823Y-137375011D01*
X181923631Y-137355136D01*
X181753674Y-137301222D01*
X181597425Y-137215324D01*
X181460837Y-137100712D01*
X181349111Y-136961754D01*
X181266504Y-136803741D01*
X181216161Y-136632692D01*
X181216157Y-136632653D01*
X181216155Y-136632645D01*
X181199999Y-136455124D01*
X181218632Y-136277845D01*
X181218635Y-136277836D01*
X181218639Y-136277795D01*
X181271365Y-136107466D01*
X181356170Y-135950621D01*
X181469825Y-135813236D01*
X181608000Y-135700543D01*
X181765433Y-135616835D01*
X181936126Y-135565299D01*
X182113579Y-135547900D01*
X182122456Y-135547900D01*
X182129596Y-135547950D01*
X182129596Y-135547950D01*
G37*
G36*
X179589596Y-135547950D02*
X179595177Y-135547989D01*
X179772369Y-135567864D01*
X179942326Y-135621778D01*
X180098575Y-135707676D01*
X180235163Y-135822288D01*
X180346889Y-135961246D01*
X180429496Y-136119259D01*
X180479839Y-136290308D01*
X180479843Y-136290347D01*
X180479845Y-136290355D01*
X180496001Y-136467876D01*
X180477368Y-136645155D01*
X180477365Y-136645164D01*
X180477361Y-136645205D01*
X180424635Y-136815534D01*
X180339830Y-136972379D01*
X180226175Y-137109764D01*
X180088000Y-137222457D01*
X179930567Y-137306165D01*
X179759874Y-137357701D01*
X179582421Y-137375100D01*
X179573544Y-137375100D01*
X179566404Y-137375050D01*
X179560823Y-137375011D01*
X179383631Y-137355136D01*
X179213674Y-137301222D01*
X179057425Y-137215324D01*
X178920837Y-137100712D01*
X178809111Y-136961754D01*
X178726504Y-136803741D01*
X178676161Y-136632692D01*
X178676157Y-136632653D01*
X178676155Y-136632645D01*
X178659999Y-136455124D01*
X178678632Y-136277845D01*
X178678635Y-136277836D01*
X178678639Y-136277795D01*
X178731365Y-136107466D01*
X178816170Y-135950621D01*
X178929825Y-135813236D01*
X179068000Y-135700543D01*
X179225433Y-135616835D01*
X179396126Y-135565299D01*
X179573579Y-135547900D01*
X179582456Y-135547900D01*
X179589596Y-135547950D01*
X179589596Y-135547950D01*
G37*
G36*
X177049596Y-135547950D02*
X177055177Y-135547989D01*
X177232369Y-135567864D01*
X177402326Y-135621778D01*
X177558575Y-135707676D01*
X177695163Y-135822288D01*
X177806889Y-135961246D01*
X177889496Y-136119259D01*
X177939839Y-136290308D01*
X177939843Y-136290347D01*
X177939845Y-136290355D01*
X177956001Y-136467876D01*
X177937368Y-136645155D01*
X177937365Y-136645164D01*
X177937361Y-136645205D01*
X177884635Y-136815534D01*
X177799830Y-136972379D01*
X177686175Y-137109764D01*
X177548000Y-137222457D01*
X177390567Y-137306165D01*
X177219874Y-137357701D01*
X177042421Y-137375100D01*
X177033544Y-137375100D01*
X177026404Y-137375050D01*
X177020823Y-137375011D01*
X176843631Y-137355136D01*
X176673674Y-137301222D01*
X176517425Y-137215324D01*
X176380837Y-137100712D01*
X176269111Y-136961754D01*
X176186504Y-136803741D01*
X176136161Y-136632692D01*
X176136157Y-136632653D01*
X176136155Y-136632645D01*
X176119999Y-136455124D01*
X176138632Y-136277845D01*
X176138635Y-136277836D01*
X176138639Y-136277795D01*
X176191365Y-136107466D01*
X176276170Y-135950621D01*
X176389825Y-135813236D01*
X176528000Y-135700543D01*
X176685433Y-135616835D01*
X176856126Y-135565299D01*
X177033579Y-135547900D01*
X177042456Y-135547900D01*
X177049596Y-135547950D01*
X177049596Y-135547950D01*
G37*
G36*
X169427600Y-137167100D02*
X167327600Y-137167100D01*
X167327600Y-136467100D01*
X169427600Y-136467100D01*
X169427600Y-137167100D01*
X169427600Y-137167100D01*
G37*
G36*
X160027600Y-137167100D02*
X157927600Y-137167100D01*
X157927600Y-136467100D01*
X160027600Y-136467100D01*
X160027600Y-137167100D01*
X160027600Y-137167100D01*
G37*
G36*
X169427600Y-135897100D02*
X167327600Y-135897100D01*
X167327600Y-135197100D01*
X169427600Y-135197100D01*
X169427600Y-135897100D01*
X169427600Y-135897100D01*
G37*
G36*
X160027600Y-135897100D02*
X157927600Y-135897100D01*
X157927600Y-135197100D01*
X160027600Y-135197100D01*
X160027600Y-135897100D01*
X160027600Y-135897100D01*
G37*
G36*
X169427600Y-134627100D02*
X167327600Y-134627100D01*
X167327600Y-133927100D01*
X169427600Y-133927100D01*
X169427600Y-134627100D01*
X169427600Y-134627100D01*
G37*
G36*
X160027600Y-134627100D02*
X157927600Y-134627100D01*
X157927600Y-133927100D01*
X160027600Y-133927100D01*
X160027600Y-134627100D01*
X160027600Y-134627100D01*
G37*
G36*
X98023972Y-133271541D02*
X98027156Y-133271563D01*
X98153224Y-133285704D01*
X98274143Y-133324062D01*
X98385310Y-133385176D01*
X98482488Y-133466719D01*
X98561978Y-133565584D01*
X98620751Y-133678006D01*
X98656568Y-133799702D01*
X98656572Y-133799741D01*
X98656574Y-133799749D01*
X98668067Y-133926036D01*
X98654812Y-134052151D01*
X98654809Y-134052160D01*
X98654805Y-134052201D01*
X98617292Y-134173385D01*
X98556955Y-134284975D01*
X98476093Y-134382721D01*
X98377786Y-134462899D01*
X98265777Y-134522455D01*
X98144333Y-134559121D01*
X98018081Y-134571500D01*
X97207882Y-134571500D01*
X97202028Y-134571459D01*
X97198844Y-134571437D01*
X97072776Y-134557296D01*
X96951857Y-134518938D01*
X96840690Y-134457824D01*
X96743512Y-134376281D01*
X96664022Y-134277416D01*
X96605249Y-134164994D01*
X96569432Y-134043298D01*
X96569428Y-134043259D01*
X96569426Y-134043251D01*
X96557933Y-133916964D01*
X96571188Y-133790849D01*
X96571191Y-133790840D01*
X96571195Y-133790799D01*
X96608708Y-133669615D01*
X96669045Y-133558025D01*
X96749907Y-133460279D01*
X96848214Y-133380101D01*
X96960223Y-133320545D01*
X97081667Y-133283879D01*
X97207919Y-133271500D01*
X98018118Y-133271500D01*
X98023972Y-133271541D01*
X98023972Y-133271541D01*
G37*
G36*
X123473972Y-133271541D02*
X123477156Y-133271563D01*
X123603224Y-133285704D01*
X123724143Y-133324062D01*
X123835310Y-133385176D01*
X123932488Y-133466719D01*
X124011978Y-133565584D01*
X124070751Y-133678006D01*
X124106568Y-133799702D01*
X124106572Y-133799741D01*
X124106574Y-133799749D01*
X124118067Y-133926036D01*
X124104812Y-134052151D01*
X124104809Y-134052160D01*
X124104805Y-134052201D01*
X124067292Y-134173385D01*
X124006955Y-134284975D01*
X123926093Y-134382721D01*
X123827786Y-134462899D01*
X123715777Y-134522455D01*
X123594333Y-134559121D01*
X123468081Y-134571500D01*
X122657882Y-134571500D01*
X122652028Y-134571459D01*
X122648844Y-134571437D01*
X122522776Y-134557296D01*
X122401857Y-134518938D01*
X122290690Y-134457824D01*
X122193512Y-134376281D01*
X122114022Y-134277416D01*
X122055249Y-134164994D01*
X122019432Y-134043298D01*
X122019428Y-134043259D01*
X122019426Y-134043251D01*
X122007933Y-133916964D01*
X122021188Y-133790849D01*
X122021191Y-133790840D01*
X122021195Y-133790799D01*
X122058708Y-133669615D01*
X122119045Y-133558025D01*
X122199907Y-133460279D01*
X122298214Y-133380101D01*
X122410223Y-133320545D01*
X122531667Y-133283879D01*
X122657919Y-133271500D01*
X123468118Y-133271500D01*
X123473972Y-133271541D01*
X123473972Y-133271541D01*
G37*
G36*
X95483972Y-133271541D02*
X95487156Y-133271563D01*
X95613224Y-133285704D01*
X95734143Y-133324062D01*
X95845310Y-133385176D01*
X95942488Y-133466719D01*
X96021978Y-133565584D01*
X96080751Y-133678006D01*
X96116568Y-133799702D01*
X96116572Y-133799741D01*
X96116574Y-133799749D01*
X96128067Y-133926036D01*
X96114812Y-134052151D01*
X96114809Y-134052160D01*
X96114805Y-134052201D01*
X96077292Y-134173385D01*
X96016955Y-134284975D01*
X95936093Y-134382721D01*
X95837786Y-134462899D01*
X95725777Y-134522455D01*
X95604333Y-134559121D01*
X95478081Y-134571500D01*
X94667882Y-134571500D01*
X94662028Y-134571459D01*
X94658844Y-134571437D01*
X94532776Y-134557296D01*
X94411857Y-134518938D01*
X94300690Y-134457824D01*
X94203512Y-134376281D01*
X94124022Y-134277416D01*
X94065249Y-134164994D01*
X94029432Y-134043298D01*
X94029428Y-134043259D01*
X94029426Y-134043251D01*
X94017933Y-133916964D01*
X94031188Y-133790849D01*
X94031191Y-133790840D01*
X94031195Y-133790799D01*
X94068708Y-133669615D01*
X94129045Y-133558025D01*
X94209907Y-133460279D01*
X94308214Y-133380101D01*
X94420223Y-133320545D01*
X94541667Y-133283879D01*
X94667919Y-133271500D01*
X95478118Y-133271500D01*
X95483972Y-133271541D01*
X95483972Y-133271541D01*
G37*
G36*
X126063972Y-133271541D02*
X126067156Y-133271563D01*
X126193224Y-133285704D01*
X126314143Y-133324062D01*
X126425310Y-133385176D01*
X126522488Y-133466719D01*
X126601978Y-133565584D01*
X126660751Y-133678006D01*
X126696568Y-133799702D01*
X126696572Y-133799741D01*
X126696574Y-133799749D01*
X126708067Y-133926036D01*
X126694812Y-134052151D01*
X126694809Y-134052160D01*
X126694805Y-134052201D01*
X126657292Y-134173385D01*
X126596955Y-134284975D01*
X126516093Y-134382721D01*
X126417786Y-134462899D01*
X126305777Y-134522455D01*
X126184333Y-134559121D01*
X126058081Y-134571500D01*
X125247882Y-134571500D01*
X125242028Y-134571459D01*
X125238844Y-134571437D01*
X125112776Y-134557296D01*
X124991857Y-134518938D01*
X124880690Y-134457824D01*
X124783512Y-134376281D01*
X124704022Y-134277416D01*
X124645249Y-134164994D01*
X124609432Y-134043298D01*
X124609428Y-134043259D01*
X124609426Y-134043251D01*
X124597933Y-133916964D01*
X124611188Y-133790849D01*
X124611191Y-133790840D01*
X124611195Y-133790799D01*
X124648708Y-133669615D01*
X124709045Y-133558025D01*
X124789907Y-133460279D01*
X124888214Y-133380101D01*
X125000223Y-133320545D01*
X125121667Y-133283879D01*
X125247919Y-133271500D01*
X126058118Y-133271500D01*
X126063972Y-133271541D01*
X126063972Y-133271541D01*
G37*
G36*
X169427600Y-133357100D02*
X167327600Y-133357100D01*
X167327600Y-132657100D01*
X169427600Y-132657100D01*
X169427600Y-133357100D01*
X169427600Y-133357100D01*
G37*
G36*
X160027600Y-133357100D02*
X157927600Y-133357100D01*
X157927600Y-132657100D01*
X160027600Y-132657100D01*
X160027600Y-133357100D01*
X160027600Y-133357100D01*
G37*
G36*
X126063972Y-130731541D02*
X126067156Y-130731563D01*
X126193224Y-130745704D01*
X126314143Y-130784062D01*
X126425310Y-130845176D01*
X126522488Y-130926719D01*
X126601978Y-131025584D01*
X126660751Y-131138006D01*
X126696568Y-131259702D01*
X126696572Y-131259741D01*
X126696574Y-131259749D01*
X126708067Y-131386036D01*
X126694812Y-131512151D01*
X126694809Y-131512160D01*
X126694805Y-131512201D01*
X126657292Y-131633385D01*
X126596955Y-131744975D01*
X126516093Y-131842721D01*
X126417786Y-131922899D01*
X126305777Y-131982455D01*
X126184333Y-132019121D01*
X126058081Y-132031500D01*
X125247882Y-132031500D01*
X125242028Y-132031459D01*
X125238844Y-132031437D01*
X125112776Y-132017296D01*
X124991857Y-131978938D01*
X124880690Y-131917824D01*
X124783512Y-131836281D01*
X124704022Y-131737416D01*
X124645249Y-131624994D01*
X124609432Y-131503298D01*
X124609428Y-131503259D01*
X124609426Y-131503251D01*
X124597933Y-131376964D01*
X124611188Y-131250849D01*
X124611191Y-131250840D01*
X124611195Y-131250799D01*
X124648708Y-131129615D01*
X124709045Y-131018025D01*
X124789907Y-130920279D01*
X124888214Y-130840101D01*
X125000223Y-130780545D01*
X125121667Y-130743879D01*
X125247919Y-130731500D01*
X126058118Y-130731500D01*
X126063972Y-130731541D01*
X126063972Y-130731541D01*
G37*
G36*
X123473972Y-130731541D02*
X123477156Y-130731563D01*
X123603224Y-130745704D01*
X123724143Y-130784062D01*
X123835310Y-130845176D01*
X123932488Y-130926719D01*
X124011978Y-131025584D01*
X124070751Y-131138006D01*
X124106568Y-131259702D01*
X124106572Y-131259741D01*
X124106574Y-131259749D01*
X124118067Y-131386036D01*
X124104812Y-131512151D01*
X124104809Y-131512160D01*
X124104805Y-131512201D01*
X124067292Y-131633385D01*
X124006955Y-131744975D01*
X123926093Y-131842721D01*
X123827786Y-131922899D01*
X123715777Y-131982455D01*
X123594333Y-132019121D01*
X123468081Y-132031500D01*
X122657882Y-132031500D01*
X122652028Y-132031459D01*
X122648844Y-132031437D01*
X122522776Y-132017296D01*
X122401857Y-131978938D01*
X122290690Y-131917824D01*
X122193512Y-131836281D01*
X122114022Y-131737416D01*
X122055249Y-131624994D01*
X122019432Y-131503298D01*
X122019428Y-131503259D01*
X122019426Y-131503251D01*
X122007933Y-131376964D01*
X122021188Y-131250849D01*
X122021191Y-131250840D01*
X122021195Y-131250799D01*
X122058708Y-131129615D01*
X122119045Y-131018025D01*
X122199907Y-130920279D01*
X122298214Y-130840101D01*
X122410223Y-130780545D01*
X122531667Y-130743879D01*
X122657919Y-130731500D01*
X123468118Y-130731500D01*
X123473972Y-130731541D01*
X123473972Y-130731541D01*
G37*
G36*
X98023972Y-130731541D02*
X98027156Y-130731563D01*
X98153224Y-130745704D01*
X98274143Y-130784062D01*
X98385310Y-130845176D01*
X98482488Y-130926719D01*
X98561978Y-131025584D01*
X98620751Y-131138006D01*
X98656568Y-131259702D01*
X98656572Y-131259741D01*
X98656574Y-131259749D01*
X98668067Y-131386036D01*
X98654812Y-131512151D01*
X98654809Y-131512160D01*
X98654805Y-131512201D01*
X98617292Y-131633385D01*
X98556955Y-131744975D01*
X98476093Y-131842721D01*
X98377786Y-131922899D01*
X98265777Y-131982455D01*
X98144333Y-132019121D01*
X98018081Y-132031500D01*
X97207882Y-132031500D01*
X97202028Y-132031459D01*
X97198844Y-132031437D01*
X97072776Y-132017296D01*
X96951857Y-131978938D01*
X96840690Y-131917824D01*
X96743512Y-131836281D01*
X96664022Y-131737416D01*
X96605249Y-131624994D01*
X96569432Y-131503298D01*
X96569428Y-131503259D01*
X96569426Y-131503251D01*
X96557933Y-131376964D01*
X96571188Y-131250849D01*
X96571191Y-131250840D01*
X96571195Y-131250799D01*
X96608708Y-131129615D01*
X96669045Y-131018025D01*
X96749907Y-130920279D01*
X96848214Y-130840101D01*
X96960223Y-130780545D01*
X97081667Y-130743879D01*
X97207919Y-130731500D01*
X98018118Y-130731500D01*
X98023972Y-130731541D01*
X98023972Y-130731541D01*
G37*
G36*
X95483972Y-130731541D02*
X95487156Y-130731563D01*
X95613224Y-130745704D01*
X95734143Y-130784062D01*
X95845310Y-130845176D01*
X95942488Y-130926719D01*
X96021978Y-131025584D01*
X96080751Y-131138006D01*
X96116568Y-131259702D01*
X96116572Y-131259741D01*
X96116574Y-131259749D01*
X96128067Y-131386036D01*
X96114812Y-131512151D01*
X96114809Y-131512160D01*
X96114805Y-131512201D01*
X96077292Y-131633385D01*
X96016955Y-131744975D01*
X95936093Y-131842721D01*
X95837786Y-131922899D01*
X95725777Y-131982455D01*
X95604333Y-132019121D01*
X95478081Y-132031500D01*
X94667882Y-132031500D01*
X94662028Y-132031459D01*
X94658844Y-132031437D01*
X94532776Y-132017296D01*
X94411857Y-131978938D01*
X94300690Y-131917824D01*
X94203512Y-131836281D01*
X94124022Y-131737416D01*
X94065249Y-131624994D01*
X94029432Y-131503298D01*
X94029428Y-131503259D01*
X94029426Y-131503251D01*
X94017933Y-131376964D01*
X94031188Y-131250849D01*
X94031191Y-131250840D01*
X94031195Y-131250799D01*
X94068708Y-131129615D01*
X94129045Y-131018025D01*
X94209907Y-130920279D01*
X94308214Y-130840101D01*
X94420223Y-130780545D01*
X94541667Y-130743879D01*
X94667919Y-130731500D01*
X95478118Y-130731500D01*
X95483972Y-130731541D01*
X95483972Y-130731541D01*
G37*
G36*
X149336019Y-127625610D02*
X149336033Y-127625614D01*
X149336068Y-127625618D01*
X149486150Y-127672076D01*
X149624350Y-127746801D01*
X149745404Y-127846945D01*
X149844702Y-127968696D01*
X149918460Y-128107414D01*
X149963869Y-128257817D01*
X149979200Y-128414176D01*
X149979200Y-129929224D01*
X149979122Y-129940464D01*
X149961609Y-130096593D01*
X149914104Y-130246347D01*
X149838416Y-130384022D01*
X149737429Y-130504375D01*
X149614988Y-130602819D01*
X149475758Y-130675607D01*
X149325042Y-130719965D01*
X149325012Y-130719968D01*
X149324994Y-130719973D01*
X149168582Y-130734207D01*
X149012381Y-130717790D01*
X149012367Y-130717786D01*
X149012332Y-130717782D01*
X148862250Y-130671324D01*
X148724050Y-130596599D01*
X148602996Y-130496455D01*
X148503698Y-130374704D01*
X148429940Y-130235986D01*
X148384531Y-130085583D01*
X148369200Y-129929224D01*
X148369200Y-128414176D01*
X148369278Y-128402936D01*
X148386791Y-128246807D01*
X148434296Y-128097053D01*
X148509984Y-127959378D01*
X148610971Y-127839025D01*
X148733412Y-127740581D01*
X148872642Y-127667793D01*
X149023358Y-127623435D01*
X149023388Y-127623432D01*
X149023406Y-127623427D01*
X149179818Y-127609193D01*
X149336019Y-127625610D01*
X149336019Y-127625610D01*
G37*
G36*
X151876019Y-127625610D02*
X151876033Y-127625614D01*
X151876068Y-127625618D01*
X152026150Y-127672076D01*
X152164350Y-127746801D01*
X152285404Y-127846945D01*
X152384702Y-127968696D01*
X152458460Y-128107414D01*
X152503869Y-128257817D01*
X152519200Y-128414176D01*
X152519200Y-129929224D01*
X152519122Y-129940464D01*
X152501609Y-130096593D01*
X152454104Y-130246347D01*
X152378416Y-130384022D01*
X152277429Y-130504375D01*
X152154988Y-130602819D01*
X152015758Y-130675607D01*
X151865042Y-130719965D01*
X151865012Y-130719968D01*
X151864994Y-130719973D01*
X151708582Y-130734207D01*
X151552381Y-130717790D01*
X151552367Y-130717786D01*
X151552332Y-130717782D01*
X151402250Y-130671324D01*
X151264050Y-130596599D01*
X151142996Y-130496455D01*
X151043698Y-130374704D01*
X150969940Y-130235986D01*
X150924531Y-130085583D01*
X150909200Y-129929224D01*
X150909200Y-128414176D01*
X150909278Y-128402936D01*
X150926791Y-128246807D01*
X150974296Y-128097053D01*
X151049984Y-127959378D01*
X151150971Y-127839025D01*
X151273412Y-127740581D01*
X151412642Y-127667793D01*
X151563358Y-127623435D01*
X151563388Y-127623432D01*
X151563406Y-127623427D01*
X151719818Y-127609193D01*
X151876019Y-127625610D01*
X151876019Y-127625610D01*
G37*
G36*
X138420422Y-128844521D02*
X138420427Y-128844522D01*
X138420470Y-128844527D01*
X138588264Y-128896468D01*
X138742774Y-128980011D01*
X138878114Y-129091974D01*
X138989129Y-129228093D01*
X139071591Y-129383182D01*
X139122360Y-129551334D01*
X139139500Y-129726145D01*
X139139500Y-129734855D01*
X139139412Y-129747421D01*
X139119833Y-129921976D01*
X139066722Y-130089403D01*
X138982102Y-130243325D01*
X138869197Y-130377880D01*
X138732307Y-130487943D01*
X138576646Y-130569320D01*
X138408143Y-130618914D01*
X138408109Y-130618917D01*
X138408096Y-130618921D01*
X138233220Y-130634836D01*
X138058578Y-130616479D01*
X138058573Y-130616478D01*
X138058530Y-130616473D01*
X137890736Y-130564532D01*
X137736226Y-130480989D01*
X137600886Y-130369026D01*
X137489871Y-130232907D01*
X137407409Y-130077818D01*
X137356640Y-129909666D01*
X137339500Y-129734855D01*
X137339500Y-129726145D01*
X137339588Y-129713579D01*
X137359167Y-129539024D01*
X137412278Y-129371597D01*
X137496898Y-129217675D01*
X137609803Y-129083120D01*
X137746693Y-128973057D01*
X137902354Y-128891680D01*
X138070857Y-128842086D01*
X138070891Y-128842083D01*
X138070904Y-128842079D01*
X138245780Y-128826164D01*
X138420422Y-128844521D01*
X138420422Y-128844521D01*
G37*
G36*
X140960422Y-128844521D02*
X140960427Y-128844522D01*
X140960470Y-128844527D01*
X141128264Y-128896468D01*
X141282774Y-128980011D01*
X141418114Y-129091974D01*
X141529129Y-129228093D01*
X141611591Y-129383182D01*
X141662360Y-129551334D01*
X141679500Y-129726145D01*
X141679500Y-129734855D01*
X141679412Y-129747421D01*
X141659833Y-129921976D01*
X141606722Y-130089403D01*
X141522102Y-130243325D01*
X141409197Y-130377880D01*
X141272307Y-130487943D01*
X141116646Y-130569320D01*
X140948143Y-130618914D01*
X140948109Y-130618917D01*
X140948096Y-130618921D01*
X140773220Y-130634836D01*
X140598578Y-130616479D01*
X140598573Y-130616478D01*
X140598530Y-130616473D01*
X140430736Y-130564532D01*
X140276226Y-130480989D01*
X140140886Y-130369026D01*
X140029871Y-130232907D01*
X139947409Y-130077818D01*
X139896640Y-129909666D01*
X139879500Y-129734855D01*
X139879500Y-129726145D01*
X139879588Y-129713579D01*
X139899167Y-129539024D01*
X139952278Y-129371597D01*
X140036898Y-129217675D01*
X140149803Y-129083120D01*
X140286693Y-128973057D01*
X140442354Y-128891680D01*
X140610857Y-128842086D01*
X140610891Y-128842083D01*
X140610904Y-128842079D01*
X140785780Y-128826164D01*
X140960422Y-128844521D01*
X140960422Y-128844521D01*
G37*
G36*
X143500422Y-128844521D02*
X143500427Y-128844522D01*
X143500470Y-128844527D01*
X143668264Y-128896468D01*
X143822774Y-128980011D01*
X143958114Y-129091974D01*
X144069129Y-129228093D01*
X144151591Y-129383182D01*
X144202360Y-129551334D01*
X144219500Y-129726145D01*
X144219500Y-129734855D01*
X144219412Y-129747421D01*
X144199833Y-129921976D01*
X144146722Y-130089403D01*
X144062102Y-130243325D01*
X143949197Y-130377880D01*
X143812307Y-130487943D01*
X143656646Y-130569320D01*
X143488143Y-130618914D01*
X143488109Y-130618917D01*
X143488096Y-130618921D01*
X143313220Y-130634836D01*
X143138578Y-130616479D01*
X143138573Y-130616478D01*
X143138530Y-130616473D01*
X142970736Y-130564532D01*
X142816226Y-130480989D01*
X142680886Y-130369026D01*
X142569871Y-130232907D01*
X142487409Y-130077818D01*
X142436640Y-129909666D01*
X142419500Y-129734855D01*
X142419500Y-129726145D01*
X142419588Y-129713579D01*
X142439167Y-129539024D01*
X142492278Y-129371597D01*
X142576898Y-129217675D01*
X142689803Y-129083120D01*
X142826693Y-128973057D01*
X142982354Y-128891680D01*
X143150857Y-128842086D01*
X143150891Y-128842083D01*
X143150904Y-128842079D01*
X143325780Y-128826164D01*
X143500422Y-128844521D01*
X143500422Y-128844521D01*
G37*
G36*
X136599500Y-130630500D02*
X134799500Y-130630500D01*
X134799500Y-128830500D01*
X136599500Y-128830500D01*
X136599500Y-130630500D01*
X136599500Y-130630500D01*
G37*
G36*
X126063972Y-128191541D02*
X126067156Y-128191563D01*
X126193224Y-128205704D01*
X126314143Y-128244062D01*
X126425310Y-128305176D01*
X126522488Y-128386719D01*
X126601978Y-128485584D01*
X126660751Y-128598006D01*
X126696568Y-128719702D01*
X126696572Y-128719741D01*
X126696574Y-128719749D01*
X126708067Y-128846036D01*
X126694812Y-128972151D01*
X126694809Y-128972160D01*
X126694805Y-128972201D01*
X126657292Y-129093385D01*
X126596955Y-129204975D01*
X126516093Y-129302721D01*
X126417786Y-129382899D01*
X126305777Y-129442455D01*
X126184333Y-129479121D01*
X126058081Y-129491500D01*
X125247882Y-129491500D01*
X125242028Y-129491459D01*
X125238844Y-129491437D01*
X125112776Y-129477296D01*
X124991857Y-129438938D01*
X124880690Y-129377824D01*
X124783512Y-129296281D01*
X124704022Y-129197416D01*
X124645249Y-129084994D01*
X124609432Y-128963298D01*
X124609428Y-128963259D01*
X124609426Y-128963251D01*
X124597933Y-128836964D01*
X124611188Y-128710849D01*
X124611191Y-128710840D01*
X124611195Y-128710799D01*
X124648708Y-128589615D01*
X124709045Y-128478025D01*
X124789907Y-128380279D01*
X124888214Y-128300101D01*
X125000223Y-128240545D01*
X125121667Y-128203879D01*
X125247919Y-128191500D01*
X126058118Y-128191500D01*
X126063972Y-128191541D01*
X126063972Y-128191541D01*
G37*
G36*
X123473972Y-128191541D02*
X123477156Y-128191563D01*
X123603224Y-128205704D01*
X123724143Y-128244062D01*
X123835310Y-128305176D01*
X123932488Y-128386719D01*
X124011978Y-128485584D01*
X124070751Y-128598006D01*
X124106568Y-128719702D01*
X124106572Y-128719741D01*
X124106574Y-128719749D01*
X124118067Y-128846036D01*
X124104812Y-128972151D01*
X124104809Y-128972160D01*
X124104805Y-128972201D01*
X124067292Y-129093385D01*
X124006955Y-129204975D01*
X123926093Y-129302721D01*
X123827786Y-129382899D01*
X123715777Y-129442455D01*
X123594333Y-129479121D01*
X123468081Y-129491500D01*
X122657882Y-129491500D01*
X122652028Y-129491459D01*
X122648844Y-129491437D01*
X122522776Y-129477296D01*
X122401857Y-129438938D01*
X122290690Y-129377824D01*
X122193512Y-129296281D01*
X122114022Y-129197416D01*
X122055249Y-129084994D01*
X122019432Y-128963298D01*
X122019428Y-128963259D01*
X122019426Y-128963251D01*
X122007933Y-128836964D01*
X122021188Y-128710849D01*
X122021191Y-128710840D01*
X122021195Y-128710799D01*
X122058708Y-128589615D01*
X122119045Y-128478025D01*
X122199907Y-128380279D01*
X122298214Y-128300101D01*
X122410223Y-128240545D01*
X122531667Y-128203879D01*
X122657919Y-128191500D01*
X123468118Y-128191500D01*
X123473972Y-128191541D01*
X123473972Y-128191541D01*
G37*
G36*
X98023972Y-128191541D02*
X98027156Y-128191563D01*
X98153224Y-128205704D01*
X98274143Y-128244062D01*
X98385310Y-128305176D01*
X98482488Y-128386719D01*
X98561978Y-128485584D01*
X98620751Y-128598006D01*
X98656568Y-128719702D01*
X98656572Y-128719741D01*
X98656574Y-128719749D01*
X98668067Y-128846036D01*
X98654812Y-128972151D01*
X98654809Y-128972160D01*
X98654805Y-128972201D01*
X98617292Y-129093385D01*
X98556955Y-129204975D01*
X98476093Y-129302721D01*
X98377786Y-129382899D01*
X98265777Y-129442455D01*
X98144333Y-129479121D01*
X98018081Y-129491500D01*
X97207882Y-129491500D01*
X97202028Y-129491459D01*
X97198844Y-129491437D01*
X97072776Y-129477296D01*
X96951857Y-129438938D01*
X96840690Y-129377824D01*
X96743512Y-129296281D01*
X96664022Y-129197416D01*
X96605249Y-129084994D01*
X96569432Y-128963298D01*
X96569428Y-128963259D01*
X96569426Y-128963251D01*
X96557933Y-128836964D01*
X96571188Y-128710849D01*
X96571191Y-128710840D01*
X96571195Y-128710799D01*
X96608708Y-128589615D01*
X96669045Y-128478025D01*
X96749907Y-128380279D01*
X96848214Y-128300101D01*
X96960223Y-128240545D01*
X97081667Y-128203879D01*
X97207919Y-128191500D01*
X98018118Y-128191500D01*
X98023972Y-128191541D01*
X98023972Y-128191541D01*
G37*
G36*
X95483972Y-128191541D02*
X95487156Y-128191563D01*
X95613224Y-128205704D01*
X95734143Y-128244062D01*
X95845310Y-128305176D01*
X95942488Y-128386719D01*
X96021978Y-128485584D01*
X96080751Y-128598006D01*
X96116568Y-128719702D01*
X96116572Y-128719741D01*
X96116574Y-128719749D01*
X96128067Y-128846036D01*
X96114812Y-128972151D01*
X96114809Y-128972160D01*
X96114805Y-128972201D01*
X96077292Y-129093385D01*
X96016955Y-129204975D01*
X95936093Y-129302721D01*
X95837786Y-129382899D01*
X95725777Y-129442455D01*
X95604333Y-129479121D01*
X95478081Y-129491500D01*
X94667882Y-129491500D01*
X94662028Y-129491459D01*
X94658844Y-129491437D01*
X94532776Y-129477296D01*
X94411857Y-129438938D01*
X94300690Y-129377824D01*
X94203512Y-129296281D01*
X94124022Y-129197416D01*
X94065249Y-129084994D01*
X94029432Y-128963298D01*
X94029428Y-128963259D01*
X94029426Y-128963251D01*
X94017933Y-128836964D01*
X94031188Y-128710849D01*
X94031191Y-128710840D01*
X94031195Y-128710799D01*
X94068708Y-128589615D01*
X94129045Y-128478025D01*
X94209907Y-128380279D01*
X94308214Y-128300101D01*
X94420223Y-128240545D01*
X94541667Y-128203879D01*
X94667919Y-128191500D01*
X95478118Y-128191500D01*
X95483972Y-128191541D01*
X95483972Y-128191541D01*
G37*
G36*
X169300600Y-128302500D02*
X167200600Y-128302500D01*
X167200600Y-127602500D01*
X169300600Y-127602500D01*
X169300600Y-128302500D01*
X169300600Y-128302500D01*
G37*
G36*
X159900600Y-128302500D02*
X157800600Y-128302500D01*
X157800600Y-127602500D01*
X159900600Y-127602500D01*
X159900600Y-128302500D01*
X159900600Y-128302500D01*
G37*
G36*
X159900600Y-127032500D02*
X157800600Y-127032500D01*
X157800600Y-126332500D01*
X159900600Y-126332500D01*
X159900600Y-127032500D01*
X159900600Y-127032500D01*
G37*
G36*
X169300600Y-127032500D02*
X167200600Y-127032500D01*
X167200600Y-126332500D01*
X169300600Y-126332500D01*
X169300600Y-127032500D01*
X169300600Y-127032500D01*
G37*
G36*
X123473972Y-125651541D02*
X123477156Y-125651563D01*
X123603224Y-125665704D01*
X123724143Y-125704062D01*
X123835310Y-125765176D01*
X123932488Y-125846719D01*
X124011978Y-125945584D01*
X124070751Y-126058006D01*
X124106568Y-126179702D01*
X124106572Y-126179741D01*
X124106574Y-126179749D01*
X124118067Y-126306036D01*
X124104812Y-126432151D01*
X124104809Y-126432160D01*
X124104805Y-126432201D01*
X124067292Y-126553385D01*
X124006955Y-126664975D01*
X123926093Y-126762721D01*
X123827786Y-126842899D01*
X123715777Y-126902455D01*
X123594333Y-126939121D01*
X123468081Y-126951500D01*
X122657882Y-126951500D01*
X122652028Y-126951459D01*
X122648844Y-126951437D01*
X122522776Y-126937296D01*
X122401857Y-126898938D01*
X122290690Y-126837824D01*
X122193512Y-126756281D01*
X122114022Y-126657416D01*
X122055249Y-126544994D01*
X122019432Y-126423298D01*
X122019428Y-126423259D01*
X122019426Y-126423251D01*
X122007933Y-126296964D01*
X122021188Y-126170849D01*
X122021191Y-126170840D01*
X122021195Y-126170799D01*
X122058708Y-126049615D01*
X122119045Y-125938025D01*
X122199907Y-125840279D01*
X122298214Y-125760101D01*
X122410223Y-125700545D01*
X122531667Y-125663879D01*
X122657919Y-125651500D01*
X123468118Y-125651500D01*
X123473972Y-125651541D01*
X123473972Y-125651541D01*
G37*
G36*
X98023972Y-125651541D02*
X98027156Y-125651563D01*
X98153224Y-125665704D01*
X98274143Y-125704062D01*
X98385310Y-125765176D01*
X98482488Y-125846719D01*
X98561978Y-125945584D01*
X98620751Y-126058006D01*
X98656568Y-126179702D01*
X98656572Y-126179741D01*
X98656574Y-126179749D01*
X98668067Y-126306036D01*
X98654812Y-126432151D01*
X98654809Y-126432160D01*
X98654805Y-126432201D01*
X98617292Y-126553385D01*
X98556955Y-126664975D01*
X98476093Y-126762721D01*
X98377786Y-126842899D01*
X98265777Y-126902455D01*
X98144333Y-126939121D01*
X98018081Y-126951500D01*
X97207882Y-126951500D01*
X97202028Y-126951459D01*
X97198844Y-126951437D01*
X97072776Y-126937296D01*
X96951857Y-126898938D01*
X96840690Y-126837824D01*
X96743512Y-126756281D01*
X96664022Y-126657416D01*
X96605249Y-126544994D01*
X96569432Y-126423298D01*
X96569428Y-126423259D01*
X96569426Y-126423251D01*
X96557933Y-126296964D01*
X96571188Y-126170849D01*
X96571191Y-126170840D01*
X96571195Y-126170799D01*
X96608708Y-126049615D01*
X96669045Y-125938025D01*
X96749907Y-125840279D01*
X96848214Y-125760101D01*
X96960223Y-125700545D01*
X97081667Y-125663879D01*
X97207919Y-125651500D01*
X98018118Y-125651500D01*
X98023972Y-125651541D01*
X98023972Y-125651541D01*
G37*
G36*
X95483972Y-125651541D02*
X95487156Y-125651563D01*
X95613224Y-125665704D01*
X95734143Y-125704062D01*
X95845310Y-125765176D01*
X95942488Y-125846719D01*
X96021978Y-125945584D01*
X96080751Y-126058006D01*
X96116568Y-126179702D01*
X96116572Y-126179741D01*
X96116574Y-126179749D01*
X96128067Y-126306036D01*
X96114812Y-126432151D01*
X96114809Y-126432160D01*
X96114805Y-126432201D01*
X96077292Y-126553385D01*
X96016955Y-126664975D01*
X95936093Y-126762721D01*
X95837786Y-126842899D01*
X95725777Y-126902455D01*
X95604333Y-126939121D01*
X95478081Y-126951500D01*
X94667882Y-126951500D01*
X94662028Y-126951459D01*
X94658844Y-126951437D01*
X94532776Y-126937296D01*
X94411857Y-126898938D01*
X94300690Y-126837824D01*
X94203512Y-126756281D01*
X94124022Y-126657416D01*
X94065249Y-126544994D01*
X94029432Y-126423298D01*
X94029428Y-126423259D01*
X94029426Y-126423251D01*
X94017933Y-126296964D01*
X94031188Y-126170849D01*
X94031191Y-126170840D01*
X94031195Y-126170799D01*
X94068708Y-126049615D01*
X94129045Y-125938025D01*
X94209907Y-125840279D01*
X94308214Y-125760101D01*
X94420223Y-125700545D01*
X94541667Y-125663879D01*
X94667919Y-125651500D01*
X95478118Y-125651500D01*
X95483972Y-125651541D01*
X95483972Y-125651541D01*
G37*
G36*
X126063972Y-125651541D02*
X126067156Y-125651563D01*
X126193224Y-125665704D01*
X126314143Y-125704062D01*
X126425310Y-125765176D01*
X126522488Y-125846719D01*
X126601978Y-125945584D01*
X126660751Y-126058006D01*
X126696568Y-126179702D01*
X126696572Y-126179741D01*
X126696574Y-126179749D01*
X126708067Y-126306036D01*
X126694812Y-126432151D01*
X126694809Y-126432160D01*
X126694805Y-126432201D01*
X126657292Y-126553385D01*
X126596955Y-126664975D01*
X126516093Y-126762721D01*
X126417786Y-126842899D01*
X126305777Y-126902455D01*
X126184333Y-126939121D01*
X126058081Y-126951500D01*
X125247882Y-126951500D01*
X125242028Y-126951459D01*
X125238844Y-126951437D01*
X125112776Y-126937296D01*
X124991857Y-126898938D01*
X124880690Y-126837824D01*
X124783512Y-126756281D01*
X124704022Y-126657416D01*
X124645249Y-126544994D01*
X124609432Y-126423298D01*
X124609428Y-126423259D01*
X124609426Y-126423251D01*
X124597933Y-126296964D01*
X124611188Y-126170849D01*
X124611191Y-126170840D01*
X124611195Y-126170799D01*
X124648708Y-126049615D01*
X124709045Y-125938025D01*
X124789907Y-125840279D01*
X124888214Y-125760101D01*
X125000223Y-125700545D01*
X125121667Y-125663879D01*
X125247919Y-125651500D01*
X126058118Y-125651500D01*
X126063972Y-125651541D01*
X126063972Y-125651541D01*
G37*
G36*
X159900600Y-125762500D02*
X157800600Y-125762500D01*
X157800600Y-125062500D01*
X159900600Y-125062500D01*
X159900600Y-125762500D01*
X159900600Y-125762500D01*
G37*
G36*
X169300600Y-125762500D02*
X167200600Y-125762500D01*
X167200600Y-125062500D01*
X169300600Y-125062500D01*
X169300600Y-125762500D01*
X169300600Y-125762500D01*
G37*
G36*
X177049596Y-122847950D02*
X177055177Y-122847989D01*
X177232369Y-122867864D01*
X177402326Y-122921778D01*
X177558575Y-123007676D01*
X177695163Y-123122288D01*
X177806889Y-123261246D01*
X177889496Y-123419259D01*
X177939839Y-123590308D01*
X177939843Y-123590347D01*
X177939845Y-123590355D01*
X177956001Y-123767876D01*
X177937368Y-123945155D01*
X177937365Y-123945164D01*
X177937361Y-123945205D01*
X177884635Y-124115534D01*
X177799830Y-124272379D01*
X177686175Y-124409764D01*
X177548000Y-124522457D01*
X177390567Y-124606165D01*
X177219874Y-124657701D01*
X177042421Y-124675100D01*
X177033544Y-124675100D01*
X177026404Y-124675050D01*
X177020823Y-124675011D01*
X176843631Y-124655136D01*
X176673674Y-124601222D01*
X176517425Y-124515324D01*
X176380837Y-124400712D01*
X176269111Y-124261754D01*
X176186504Y-124103741D01*
X176136161Y-123932692D01*
X176136157Y-123932653D01*
X176136155Y-123932645D01*
X176119999Y-123755124D01*
X176138632Y-123577845D01*
X176138635Y-123577836D01*
X176138639Y-123577795D01*
X176191365Y-123407466D01*
X176276170Y-123250621D01*
X176389825Y-123113236D01*
X176528000Y-123000543D01*
X176685433Y-122916835D01*
X176856126Y-122865299D01*
X177033579Y-122847900D01*
X177042456Y-122847900D01*
X177049596Y-122847950D01*
X177049596Y-122847950D01*
G37*
G36*
X179589596Y-122847950D02*
X179595177Y-122847989D01*
X179772369Y-122867864D01*
X179942326Y-122921778D01*
X180098575Y-123007676D01*
X180235163Y-123122288D01*
X180346889Y-123261246D01*
X180429496Y-123419259D01*
X180479839Y-123590308D01*
X180479843Y-123590347D01*
X180479845Y-123590355D01*
X180496001Y-123767876D01*
X180477368Y-123945155D01*
X180477365Y-123945164D01*
X180477361Y-123945205D01*
X180424635Y-124115534D01*
X180339830Y-124272379D01*
X180226175Y-124409764D01*
X180088000Y-124522457D01*
X179930567Y-124606165D01*
X179759874Y-124657701D01*
X179582421Y-124675100D01*
X179573544Y-124675100D01*
X179566404Y-124675050D01*
X179560823Y-124675011D01*
X179383631Y-124655136D01*
X179213674Y-124601222D01*
X179057425Y-124515324D01*
X178920837Y-124400712D01*
X178809111Y-124261754D01*
X178726504Y-124103741D01*
X178676161Y-123932692D01*
X178676157Y-123932653D01*
X178676155Y-123932645D01*
X178659999Y-123755124D01*
X178678632Y-123577845D01*
X178678635Y-123577836D01*
X178678639Y-123577795D01*
X178731365Y-123407466D01*
X178816170Y-123250621D01*
X178929825Y-123113236D01*
X179068000Y-123000543D01*
X179225433Y-122916835D01*
X179396126Y-122865299D01*
X179573579Y-122847900D01*
X179582456Y-122847900D01*
X179589596Y-122847950D01*
X179589596Y-122847950D01*
G37*
G36*
X182129596Y-122847950D02*
X182135177Y-122847989D01*
X182312369Y-122867864D01*
X182482326Y-122921778D01*
X182638575Y-123007676D01*
X182775163Y-123122288D01*
X182886889Y-123261246D01*
X182969496Y-123419259D01*
X183019839Y-123590308D01*
X183019843Y-123590347D01*
X183019845Y-123590355D01*
X183036001Y-123767876D01*
X183017368Y-123945155D01*
X183017365Y-123945164D01*
X183017361Y-123945205D01*
X182964635Y-124115534D01*
X182879830Y-124272379D01*
X182766175Y-124409764D01*
X182628000Y-124522457D01*
X182470567Y-124606165D01*
X182299874Y-124657701D01*
X182122421Y-124675100D01*
X182113544Y-124675100D01*
X182106404Y-124675050D01*
X182100823Y-124675011D01*
X181923631Y-124655136D01*
X181753674Y-124601222D01*
X181597425Y-124515324D01*
X181460837Y-124400712D01*
X181349111Y-124261754D01*
X181266504Y-124103741D01*
X181216161Y-123932692D01*
X181216157Y-123932653D01*
X181216155Y-123932645D01*
X181199999Y-123755124D01*
X181218632Y-123577845D01*
X181218635Y-123577836D01*
X181218639Y-123577795D01*
X181271365Y-123407466D01*
X181356170Y-123250621D01*
X181469825Y-123113236D01*
X181608000Y-123000543D01*
X181765433Y-122916835D01*
X181936126Y-122865299D01*
X182113579Y-122847900D01*
X182122456Y-122847900D01*
X182129596Y-122847950D01*
X182129596Y-122847950D01*
G37*
G36*
X187209596Y-122847950D02*
X187215177Y-122847989D01*
X187392369Y-122867864D01*
X187562326Y-122921778D01*
X187718575Y-123007676D01*
X187855163Y-123122288D01*
X187966889Y-123261246D01*
X188049496Y-123419259D01*
X188099839Y-123590308D01*
X188099843Y-123590347D01*
X188099845Y-123590355D01*
X188116001Y-123767876D01*
X188097368Y-123945155D01*
X188097365Y-123945164D01*
X188097361Y-123945205D01*
X188044635Y-124115534D01*
X187959830Y-124272379D01*
X187846175Y-124409764D01*
X187708000Y-124522457D01*
X187550567Y-124606165D01*
X187379874Y-124657701D01*
X187202421Y-124675100D01*
X187193544Y-124675100D01*
X187186404Y-124675050D01*
X187180823Y-124675011D01*
X187003631Y-124655136D01*
X186833674Y-124601222D01*
X186677425Y-124515324D01*
X186540837Y-124400712D01*
X186429111Y-124261754D01*
X186346504Y-124103741D01*
X186296161Y-123932692D01*
X186296157Y-123932653D01*
X186296155Y-123932645D01*
X186279999Y-123755124D01*
X186298632Y-123577845D01*
X186298635Y-123577836D01*
X186298639Y-123577795D01*
X186351365Y-123407466D01*
X186436170Y-123250621D01*
X186549825Y-123113236D01*
X186688000Y-123000543D01*
X186845433Y-122916835D01*
X187016126Y-122865299D01*
X187193579Y-122847900D01*
X187202456Y-122847900D01*
X187209596Y-122847950D01*
X187209596Y-122847950D01*
G37*
G36*
X184669596Y-122847950D02*
X184675177Y-122847989D01*
X184852369Y-122867864D01*
X185022326Y-122921778D01*
X185178575Y-123007676D01*
X185315163Y-123122288D01*
X185426889Y-123261246D01*
X185509496Y-123419259D01*
X185559839Y-123590308D01*
X185559843Y-123590347D01*
X185559845Y-123590355D01*
X185576001Y-123767876D01*
X185557368Y-123945155D01*
X185557365Y-123945164D01*
X185557361Y-123945205D01*
X185504635Y-124115534D01*
X185419830Y-124272379D01*
X185306175Y-124409764D01*
X185168000Y-124522457D01*
X185010567Y-124606165D01*
X184839874Y-124657701D01*
X184662421Y-124675100D01*
X184653544Y-124675100D01*
X184646404Y-124675050D01*
X184640823Y-124675011D01*
X184463631Y-124655136D01*
X184293674Y-124601222D01*
X184137425Y-124515324D01*
X184000837Y-124400712D01*
X183889111Y-124261754D01*
X183806504Y-124103741D01*
X183756161Y-123932692D01*
X183756157Y-123932653D01*
X183756155Y-123932645D01*
X183739999Y-123755124D01*
X183758632Y-123577845D01*
X183758635Y-123577836D01*
X183758639Y-123577795D01*
X183811365Y-123407466D01*
X183896170Y-123250621D01*
X184009825Y-123113236D01*
X184148000Y-123000543D01*
X184305433Y-122916835D01*
X184476126Y-122865299D01*
X184653579Y-122847900D01*
X184662456Y-122847900D01*
X184669596Y-122847950D01*
X184669596Y-122847950D01*
G37*
G36*
X159900600Y-124492500D02*
X157800600Y-124492500D01*
X157800600Y-123792500D01*
X159900600Y-123792500D01*
X159900600Y-124492500D01*
X159900600Y-124492500D01*
G37*
G36*
X169300600Y-124492500D02*
X167200600Y-124492500D01*
X167200600Y-123792500D01*
X169300600Y-123792500D01*
X169300600Y-124492500D01*
X169300600Y-124492500D01*
G37*
G36*
X95483972Y-123111541D02*
X95487156Y-123111563D01*
X95613224Y-123125704D01*
X95734143Y-123164062D01*
X95845310Y-123225176D01*
X95942488Y-123306719D01*
X96021978Y-123405584D01*
X96080751Y-123518006D01*
X96116568Y-123639702D01*
X96116572Y-123639741D01*
X96116574Y-123639749D01*
X96128067Y-123766036D01*
X96114812Y-123892151D01*
X96114809Y-123892160D01*
X96114805Y-123892201D01*
X96077292Y-124013385D01*
X96016955Y-124124975D01*
X95936093Y-124222721D01*
X95837786Y-124302899D01*
X95725777Y-124362455D01*
X95604333Y-124399121D01*
X95478081Y-124411500D01*
X94667882Y-124411500D01*
X94662028Y-124411459D01*
X94658844Y-124411437D01*
X94532776Y-124397296D01*
X94411857Y-124358938D01*
X94300690Y-124297824D01*
X94203512Y-124216281D01*
X94124022Y-124117416D01*
X94065249Y-124004994D01*
X94029432Y-123883298D01*
X94029428Y-123883259D01*
X94029426Y-123883251D01*
X94017933Y-123756964D01*
X94031188Y-123630849D01*
X94031191Y-123630840D01*
X94031195Y-123630799D01*
X94068708Y-123509615D01*
X94129045Y-123398025D01*
X94209907Y-123300279D01*
X94308214Y-123220101D01*
X94420223Y-123160545D01*
X94541667Y-123123879D01*
X94667919Y-123111500D01*
X95478118Y-123111500D01*
X95483972Y-123111541D01*
X95483972Y-123111541D01*
G37*
G36*
X123473972Y-123111541D02*
X123477156Y-123111563D01*
X123603224Y-123125704D01*
X123724143Y-123164062D01*
X123835310Y-123225176D01*
X123932488Y-123306719D01*
X124011978Y-123405584D01*
X124070751Y-123518006D01*
X124106568Y-123639702D01*
X124106572Y-123639741D01*
X124106574Y-123639749D01*
X124118067Y-123766036D01*
X124104812Y-123892151D01*
X124104809Y-123892160D01*
X124104805Y-123892201D01*
X124067292Y-124013385D01*
X124006955Y-124124975D01*
X123926093Y-124222721D01*
X123827786Y-124302899D01*
X123715777Y-124362455D01*
X123594333Y-124399121D01*
X123468081Y-124411500D01*
X122657882Y-124411500D01*
X122652028Y-124411459D01*
X122648844Y-124411437D01*
X122522776Y-124397296D01*
X122401857Y-124358938D01*
X122290690Y-124297824D01*
X122193512Y-124216281D01*
X122114022Y-124117416D01*
X122055249Y-124004994D01*
X122019432Y-123883298D01*
X122019428Y-123883259D01*
X122019426Y-123883251D01*
X122007933Y-123756964D01*
X122021188Y-123630849D01*
X122021191Y-123630840D01*
X122021195Y-123630799D01*
X122058708Y-123509615D01*
X122119045Y-123398025D01*
X122199907Y-123300279D01*
X122298214Y-123220101D01*
X122410223Y-123160545D01*
X122531667Y-123123879D01*
X122657919Y-123111500D01*
X123468118Y-123111500D01*
X123473972Y-123111541D01*
X123473972Y-123111541D01*
G37*
G36*
X126063972Y-123111541D02*
X126067156Y-123111563D01*
X126193224Y-123125704D01*
X126314143Y-123164062D01*
X126425310Y-123225176D01*
X126522488Y-123306719D01*
X126601978Y-123405584D01*
X126660751Y-123518006D01*
X126696568Y-123639702D01*
X126696572Y-123639741D01*
X126696574Y-123639749D01*
X126708067Y-123766036D01*
X126694812Y-123892151D01*
X126694809Y-123892160D01*
X126694805Y-123892201D01*
X126657292Y-124013385D01*
X126596955Y-124124975D01*
X126516093Y-124222721D01*
X126417786Y-124302899D01*
X126305777Y-124362455D01*
X126184333Y-124399121D01*
X126058081Y-124411500D01*
X125247882Y-124411500D01*
X125242028Y-124411459D01*
X125238844Y-124411437D01*
X125112776Y-124397296D01*
X124991857Y-124358938D01*
X124880690Y-124297824D01*
X124783512Y-124216281D01*
X124704022Y-124117416D01*
X124645249Y-124004994D01*
X124609432Y-123883298D01*
X124609428Y-123883259D01*
X124609426Y-123883251D01*
X124597933Y-123756964D01*
X124611188Y-123630849D01*
X124611191Y-123630840D01*
X124611195Y-123630799D01*
X124648708Y-123509615D01*
X124709045Y-123398025D01*
X124789907Y-123300279D01*
X124888214Y-123220101D01*
X125000223Y-123160545D01*
X125121667Y-123123879D01*
X125247919Y-123111500D01*
X126058118Y-123111500D01*
X126063972Y-123111541D01*
X126063972Y-123111541D01*
G37*
G36*
X98023972Y-123111541D02*
X98027156Y-123111563D01*
X98153224Y-123125704D01*
X98274143Y-123164062D01*
X98385310Y-123225176D01*
X98482488Y-123306719D01*
X98561978Y-123405584D01*
X98620751Y-123518006D01*
X98656568Y-123639702D01*
X98656572Y-123639741D01*
X98656574Y-123639749D01*
X98668067Y-123766036D01*
X98654812Y-123892151D01*
X98654809Y-123892160D01*
X98654805Y-123892201D01*
X98617292Y-124013385D01*
X98556955Y-124124975D01*
X98476093Y-124222721D01*
X98377786Y-124302899D01*
X98265777Y-124362455D01*
X98144333Y-124399121D01*
X98018081Y-124411500D01*
X97207882Y-124411500D01*
X97202028Y-124411459D01*
X97198844Y-124411437D01*
X97072776Y-124397296D01*
X96951857Y-124358938D01*
X96840690Y-124297824D01*
X96743512Y-124216281D01*
X96664022Y-124117416D01*
X96605249Y-124004994D01*
X96569432Y-123883298D01*
X96569428Y-123883259D01*
X96569426Y-123883251D01*
X96557933Y-123756964D01*
X96571188Y-123630849D01*
X96571191Y-123630840D01*
X96571195Y-123630799D01*
X96608708Y-123509615D01*
X96669045Y-123398025D01*
X96749907Y-123300279D01*
X96848214Y-123220101D01*
X96960223Y-123160545D01*
X97081667Y-123123879D01*
X97207919Y-123111500D01*
X98018118Y-123111500D01*
X98023972Y-123111541D01*
X98023972Y-123111541D01*
G37*
G36*
X159900600Y-123222500D02*
X157800600Y-123222500D01*
X157800600Y-122522500D01*
X159900600Y-122522500D01*
X159900600Y-123222500D01*
X159900600Y-123222500D01*
G37*
G36*
X169300600Y-123222500D02*
X167200600Y-123222500D01*
X167200600Y-122522500D01*
X169300600Y-122522500D01*
X169300600Y-123222500D01*
X169300600Y-123222500D01*
G37*
G36*
X177049596Y-120307950D02*
X177055177Y-120307989D01*
X177232369Y-120327864D01*
X177402326Y-120381778D01*
X177558575Y-120467676D01*
X177695163Y-120582288D01*
X177806889Y-120721246D01*
X177889496Y-120879259D01*
X177939839Y-121050308D01*
X177939843Y-121050347D01*
X177939845Y-121050355D01*
X177956001Y-121227876D01*
X177937368Y-121405155D01*
X177937365Y-121405164D01*
X177937361Y-121405205D01*
X177884635Y-121575534D01*
X177799830Y-121732379D01*
X177686175Y-121869764D01*
X177548000Y-121982457D01*
X177390567Y-122066165D01*
X177219874Y-122117701D01*
X177042421Y-122135100D01*
X177033544Y-122135100D01*
X177026404Y-122135050D01*
X177020823Y-122135011D01*
X176843631Y-122115136D01*
X176673674Y-122061222D01*
X176517425Y-121975324D01*
X176380837Y-121860712D01*
X176269111Y-121721754D01*
X176186504Y-121563741D01*
X176136161Y-121392692D01*
X176136157Y-121392653D01*
X176136155Y-121392645D01*
X176119999Y-121215124D01*
X176138632Y-121037845D01*
X176138635Y-121037836D01*
X176138639Y-121037795D01*
X176191365Y-120867466D01*
X176276170Y-120710621D01*
X176389825Y-120573236D01*
X176528000Y-120460543D01*
X176685433Y-120376835D01*
X176856126Y-120325299D01*
X177033579Y-120307900D01*
X177042456Y-120307900D01*
X177049596Y-120307950D01*
X177049596Y-120307950D01*
G37*
G36*
X179589596Y-120307950D02*
X179595177Y-120307989D01*
X179772369Y-120327864D01*
X179942326Y-120381778D01*
X180098575Y-120467676D01*
X180235163Y-120582288D01*
X180346889Y-120721246D01*
X180429496Y-120879259D01*
X180479839Y-121050308D01*
X180479843Y-121050347D01*
X180479845Y-121050355D01*
X180496001Y-121227876D01*
X180477368Y-121405155D01*
X180477365Y-121405164D01*
X180477361Y-121405205D01*
X180424635Y-121575534D01*
X180339830Y-121732379D01*
X180226175Y-121869764D01*
X180088000Y-121982457D01*
X179930567Y-122066165D01*
X179759874Y-122117701D01*
X179582421Y-122135100D01*
X179573544Y-122135100D01*
X179566404Y-122135050D01*
X179560823Y-122135011D01*
X179383631Y-122115136D01*
X179213674Y-122061222D01*
X179057425Y-121975324D01*
X178920837Y-121860712D01*
X178809111Y-121721754D01*
X178726504Y-121563741D01*
X178676161Y-121392692D01*
X178676157Y-121392653D01*
X178676155Y-121392645D01*
X178659999Y-121215124D01*
X178678632Y-121037845D01*
X178678635Y-121037836D01*
X178678639Y-121037795D01*
X178731365Y-120867466D01*
X178816170Y-120710621D01*
X178929825Y-120573236D01*
X179068000Y-120460543D01*
X179225433Y-120376835D01*
X179396126Y-120325299D01*
X179573579Y-120307900D01*
X179582456Y-120307900D01*
X179589596Y-120307950D01*
X179589596Y-120307950D01*
G37*
G36*
X182129596Y-120307950D02*
X182135177Y-120307989D01*
X182312369Y-120327864D01*
X182482326Y-120381778D01*
X182638575Y-120467676D01*
X182775163Y-120582288D01*
X182886889Y-120721246D01*
X182969496Y-120879259D01*
X183019839Y-121050308D01*
X183019843Y-121050347D01*
X183019845Y-121050355D01*
X183036001Y-121227876D01*
X183017368Y-121405155D01*
X183017365Y-121405164D01*
X183017361Y-121405205D01*
X182964635Y-121575534D01*
X182879830Y-121732379D01*
X182766175Y-121869764D01*
X182628000Y-121982457D01*
X182470567Y-122066165D01*
X182299874Y-122117701D01*
X182122421Y-122135100D01*
X182113544Y-122135100D01*
X182106404Y-122135050D01*
X182100823Y-122135011D01*
X181923631Y-122115136D01*
X181753674Y-122061222D01*
X181597425Y-121975324D01*
X181460837Y-121860712D01*
X181349111Y-121721754D01*
X181266504Y-121563741D01*
X181216161Y-121392692D01*
X181216157Y-121392653D01*
X181216155Y-121392645D01*
X181199999Y-121215124D01*
X181218632Y-121037845D01*
X181218635Y-121037836D01*
X181218639Y-121037795D01*
X181271365Y-120867466D01*
X181356170Y-120710621D01*
X181469825Y-120573236D01*
X181608000Y-120460543D01*
X181765433Y-120376835D01*
X181936126Y-120325299D01*
X182113579Y-120307900D01*
X182122456Y-120307900D01*
X182129596Y-120307950D01*
X182129596Y-120307950D01*
G37*
G36*
X184669596Y-120307950D02*
X184675177Y-120307989D01*
X184852369Y-120327864D01*
X185022326Y-120381778D01*
X185178575Y-120467676D01*
X185315163Y-120582288D01*
X185426889Y-120721246D01*
X185509496Y-120879259D01*
X185559839Y-121050308D01*
X185559843Y-121050347D01*
X185559845Y-121050355D01*
X185576001Y-121227876D01*
X185557368Y-121405155D01*
X185557365Y-121405164D01*
X185557361Y-121405205D01*
X185504635Y-121575534D01*
X185419830Y-121732379D01*
X185306175Y-121869764D01*
X185168000Y-121982457D01*
X185010567Y-122066165D01*
X184839874Y-122117701D01*
X184662421Y-122135100D01*
X184653544Y-122135100D01*
X184646404Y-122135050D01*
X184640823Y-122135011D01*
X184463631Y-122115136D01*
X184293674Y-122061222D01*
X184137425Y-121975324D01*
X184000837Y-121860712D01*
X183889111Y-121721754D01*
X183806504Y-121563741D01*
X183756161Y-121392692D01*
X183756157Y-121392653D01*
X183756155Y-121392645D01*
X183739999Y-121215124D01*
X183758632Y-121037845D01*
X183758635Y-121037836D01*
X183758639Y-121037795D01*
X183811365Y-120867466D01*
X183896170Y-120710621D01*
X184009825Y-120573236D01*
X184148000Y-120460543D01*
X184305433Y-120376835D01*
X184476126Y-120325299D01*
X184653579Y-120307900D01*
X184662456Y-120307900D01*
X184669596Y-120307950D01*
X184669596Y-120307950D01*
G37*
G36*
X188111600Y-122135100D02*
X186284400Y-122135100D01*
X186284400Y-120307900D01*
X188111600Y-120307900D01*
X188111600Y-122135100D01*
X188111600Y-122135100D01*
G37*
G36*
X169300600Y-121952500D02*
X167200600Y-121952500D01*
X167200600Y-121252500D01*
X169300600Y-121252500D01*
X169300600Y-121952500D01*
X169300600Y-121952500D01*
G37*
G36*
X159900600Y-121952500D02*
X157800600Y-121952500D01*
X157800600Y-121252500D01*
X159900600Y-121252500D01*
X159900600Y-121952500D01*
X159900600Y-121952500D01*
G37*
G36*
X95483972Y-120571541D02*
X95487156Y-120571563D01*
X95613224Y-120585704D01*
X95734143Y-120624062D01*
X95845310Y-120685176D01*
X95942488Y-120766719D01*
X96021978Y-120865584D01*
X96080751Y-120978006D01*
X96116568Y-121099702D01*
X96116572Y-121099741D01*
X96116574Y-121099749D01*
X96128067Y-121226036D01*
X96114812Y-121352151D01*
X96114809Y-121352160D01*
X96114805Y-121352201D01*
X96077292Y-121473385D01*
X96016955Y-121584975D01*
X95936093Y-121682721D01*
X95837786Y-121762899D01*
X95725777Y-121822455D01*
X95604333Y-121859121D01*
X95478081Y-121871500D01*
X94667882Y-121871500D01*
X94662028Y-121871459D01*
X94658844Y-121871437D01*
X94532776Y-121857296D01*
X94411857Y-121818938D01*
X94300690Y-121757824D01*
X94203512Y-121676281D01*
X94124022Y-121577416D01*
X94065249Y-121464994D01*
X94029432Y-121343298D01*
X94029428Y-121343259D01*
X94029426Y-121343251D01*
X94017933Y-121216964D01*
X94031188Y-121090849D01*
X94031191Y-121090840D01*
X94031195Y-121090799D01*
X94068708Y-120969615D01*
X94129045Y-120858025D01*
X94209907Y-120760279D01*
X94308214Y-120680101D01*
X94420223Y-120620545D01*
X94541667Y-120583879D01*
X94667919Y-120571500D01*
X95478118Y-120571500D01*
X95483972Y-120571541D01*
X95483972Y-120571541D01*
G37*
G36*
X98023972Y-120571541D02*
X98027156Y-120571563D01*
X98153224Y-120585704D01*
X98274143Y-120624062D01*
X98385310Y-120685176D01*
X98482488Y-120766719D01*
X98561978Y-120865584D01*
X98620751Y-120978006D01*
X98656568Y-121099702D01*
X98656572Y-121099741D01*
X98656574Y-121099749D01*
X98668067Y-121226036D01*
X98654812Y-121352151D01*
X98654809Y-121352160D01*
X98654805Y-121352201D01*
X98617292Y-121473385D01*
X98556955Y-121584975D01*
X98476093Y-121682721D01*
X98377786Y-121762899D01*
X98265777Y-121822455D01*
X98144333Y-121859121D01*
X98018081Y-121871500D01*
X97207882Y-121871500D01*
X97202028Y-121871459D01*
X97198844Y-121871437D01*
X97072776Y-121857296D01*
X96951857Y-121818938D01*
X96840690Y-121757824D01*
X96743512Y-121676281D01*
X96664022Y-121577416D01*
X96605249Y-121464994D01*
X96569432Y-121343298D01*
X96569428Y-121343259D01*
X96569426Y-121343251D01*
X96557933Y-121216964D01*
X96571188Y-121090849D01*
X96571191Y-121090840D01*
X96571195Y-121090799D01*
X96608708Y-120969615D01*
X96669045Y-120858025D01*
X96749907Y-120760279D01*
X96848214Y-120680101D01*
X96960223Y-120620545D01*
X97081667Y-120583879D01*
X97207919Y-120571500D01*
X98018118Y-120571500D01*
X98023972Y-120571541D01*
X98023972Y-120571541D01*
G37*
G36*
X123473972Y-120571541D02*
X123477156Y-120571563D01*
X123603224Y-120585704D01*
X123724143Y-120624062D01*
X123835310Y-120685176D01*
X123932488Y-120766719D01*
X124011978Y-120865584D01*
X124070751Y-120978006D01*
X124106568Y-121099702D01*
X124106572Y-121099741D01*
X124106574Y-121099749D01*
X124118067Y-121226036D01*
X124104812Y-121352151D01*
X124104809Y-121352160D01*
X124104805Y-121352201D01*
X124067292Y-121473385D01*
X124006955Y-121584975D01*
X123926093Y-121682721D01*
X123827786Y-121762899D01*
X123715777Y-121822455D01*
X123594333Y-121859121D01*
X123468081Y-121871500D01*
X122657882Y-121871500D01*
X122652028Y-121871459D01*
X122648844Y-121871437D01*
X122522776Y-121857296D01*
X122401857Y-121818938D01*
X122290690Y-121757824D01*
X122193512Y-121676281D01*
X122114022Y-121577416D01*
X122055249Y-121464994D01*
X122019432Y-121343298D01*
X122019428Y-121343259D01*
X122019426Y-121343251D01*
X122007933Y-121216964D01*
X122021188Y-121090849D01*
X122021191Y-121090840D01*
X122021195Y-121090799D01*
X122058708Y-120969615D01*
X122119045Y-120858025D01*
X122199907Y-120760279D01*
X122298214Y-120680101D01*
X122410223Y-120620545D01*
X122531667Y-120583879D01*
X122657919Y-120571500D01*
X123468118Y-120571500D01*
X123473972Y-120571541D01*
X123473972Y-120571541D01*
G37*
G36*
X126063972Y-120571541D02*
X126067156Y-120571563D01*
X126193224Y-120585704D01*
X126314143Y-120624062D01*
X126425310Y-120685176D01*
X126522488Y-120766719D01*
X126601978Y-120865584D01*
X126660751Y-120978006D01*
X126696568Y-121099702D01*
X126696572Y-121099741D01*
X126696574Y-121099749D01*
X126708067Y-121226036D01*
X126694812Y-121352151D01*
X126694809Y-121352160D01*
X126694805Y-121352201D01*
X126657292Y-121473385D01*
X126596955Y-121584975D01*
X126516093Y-121682721D01*
X126417786Y-121762899D01*
X126305777Y-121822455D01*
X126184333Y-121859121D01*
X126058081Y-121871500D01*
X125247882Y-121871500D01*
X125242028Y-121871459D01*
X125238844Y-121871437D01*
X125112776Y-121857296D01*
X124991857Y-121818938D01*
X124880690Y-121757824D01*
X124783512Y-121676281D01*
X124704022Y-121577416D01*
X124645249Y-121464994D01*
X124609432Y-121343298D01*
X124609428Y-121343259D01*
X124609426Y-121343251D01*
X124597933Y-121216964D01*
X124611188Y-121090849D01*
X124611191Y-121090840D01*
X124611195Y-121090799D01*
X124648708Y-120969615D01*
X124709045Y-120858025D01*
X124789907Y-120760279D01*
X124888214Y-120680101D01*
X125000223Y-120620545D01*
X125121667Y-120583879D01*
X125247919Y-120571500D01*
X126058118Y-120571500D01*
X126063972Y-120571541D01*
X126063972Y-120571541D01*
G37*
G36*
X138483922Y-119764021D02*
X138483927Y-119764022D01*
X138483970Y-119764027D01*
X138651764Y-119815968D01*
X138806274Y-119899511D01*
X138941614Y-120011474D01*
X139052629Y-120147593D01*
X139135091Y-120302682D01*
X139185860Y-120470834D01*
X139203000Y-120645645D01*
X139203000Y-120654355D01*
X139202912Y-120666921D01*
X139183333Y-120841476D01*
X139130222Y-121008903D01*
X139045602Y-121162825D01*
X138932697Y-121297380D01*
X138795807Y-121407443D01*
X138640146Y-121488820D01*
X138471643Y-121538414D01*
X138471609Y-121538417D01*
X138471596Y-121538421D01*
X138296720Y-121554336D01*
X138122078Y-121535979D01*
X138122073Y-121535978D01*
X138122030Y-121535973D01*
X137954236Y-121484032D01*
X137799726Y-121400489D01*
X137664386Y-121288526D01*
X137553371Y-121152407D01*
X137470909Y-120997318D01*
X137420140Y-120829166D01*
X137403000Y-120654355D01*
X137403000Y-120645645D01*
X137403088Y-120633079D01*
X137422667Y-120458524D01*
X137475778Y-120291097D01*
X137560398Y-120137175D01*
X137673303Y-120002620D01*
X137810193Y-119892557D01*
X137965854Y-119811180D01*
X138134357Y-119761586D01*
X138134391Y-119761583D01*
X138134404Y-119761579D01*
X138309280Y-119745664D01*
X138483922Y-119764021D01*
X138483922Y-119764021D01*
G37*
G36*
X143563922Y-119764021D02*
X143563927Y-119764022D01*
X143563970Y-119764027D01*
X143731764Y-119815968D01*
X143886274Y-119899511D01*
X144021614Y-120011474D01*
X144132629Y-120147593D01*
X144215091Y-120302682D01*
X144265860Y-120470834D01*
X144283000Y-120645645D01*
X144283000Y-120654355D01*
X144282912Y-120666921D01*
X144263333Y-120841476D01*
X144210222Y-121008903D01*
X144125602Y-121162825D01*
X144012697Y-121297380D01*
X143875807Y-121407443D01*
X143720146Y-121488820D01*
X143551643Y-121538414D01*
X143551609Y-121538417D01*
X143551596Y-121538421D01*
X143376720Y-121554336D01*
X143202078Y-121535979D01*
X143202073Y-121535978D01*
X143202030Y-121535973D01*
X143034236Y-121484032D01*
X142879726Y-121400489D01*
X142744386Y-121288526D01*
X142633371Y-121152407D01*
X142550909Y-120997318D01*
X142500140Y-120829166D01*
X142483000Y-120654355D01*
X142483000Y-120645645D01*
X142483088Y-120633079D01*
X142502667Y-120458524D01*
X142555778Y-120291097D01*
X142640398Y-120137175D01*
X142753303Y-120002620D01*
X142890193Y-119892557D01*
X143045854Y-119811180D01*
X143214357Y-119761586D01*
X143214391Y-119761583D01*
X143214404Y-119761579D01*
X143389280Y-119745664D01*
X143563922Y-119764021D01*
X143563922Y-119764021D01*
G37*
G36*
X141023922Y-119764021D02*
X141023927Y-119764022D01*
X141023970Y-119764027D01*
X141191764Y-119815968D01*
X141346274Y-119899511D01*
X141481614Y-120011474D01*
X141592629Y-120147593D01*
X141675091Y-120302682D01*
X141725860Y-120470834D01*
X141743000Y-120645645D01*
X141743000Y-120654355D01*
X141742912Y-120666921D01*
X141723333Y-120841476D01*
X141670222Y-121008903D01*
X141585602Y-121162825D01*
X141472697Y-121297380D01*
X141335807Y-121407443D01*
X141180146Y-121488820D01*
X141011643Y-121538414D01*
X141011609Y-121538417D01*
X141011596Y-121538421D01*
X140836720Y-121554336D01*
X140662078Y-121535979D01*
X140662073Y-121535978D01*
X140662030Y-121535973D01*
X140494236Y-121484032D01*
X140339726Y-121400489D01*
X140204386Y-121288526D01*
X140093371Y-121152407D01*
X140010909Y-120997318D01*
X139960140Y-120829166D01*
X139943000Y-120654355D01*
X139943000Y-120645645D01*
X139943088Y-120633079D01*
X139962667Y-120458524D01*
X140015778Y-120291097D01*
X140100398Y-120137175D01*
X140213303Y-120002620D01*
X140350193Y-119892557D01*
X140505854Y-119811180D01*
X140674357Y-119761586D01*
X140674391Y-119761583D01*
X140674404Y-119761579D01*
X140849280Y-119745664D01*
X141023922Y-119764021D01*
X141023922Y-119764021D01*
G37*
G36*
X136663000Y-121550000D02*
X134863000Y-121550000D01*
X134863000Y-119750000D01*
X136663000Y-119750000D01*
X136663000Y-121550000D01*
X136663000Y-121550000D01*
G37*
G36*
X159900600Y-120682500D02*
X157800600Y-120682500D01*
X157800600Y-119982500D01*
X159900600Y-119982500D01*
X159900600Y-120682500D01*
X159900600Y-120682500D01*
G37*
G36*
X169300600Y-120682500D02*
X167200600Y-120682500D01*
X167200600Y-119982500D01*
X169300600Y-119982500D01*
X169300600Y-120682500D01*
X169300600Y-120682500D01*
G37*
G36*
X169300600Y-119412500D02*
X167200600Y-119412500D01*
X167200600Y-118712500D01*
X169300600Y-118712500D01*
X169300600Y-119412500D01*
X169300600Y-119412500D01*
G37*
G36*
X159900600Y-119412500D02*
X157800600Y-119412500D01*
X157800600Y-118712500D01*
X159900600Y-118712500D01*
X159900600Y-119412500D01*
X159900600Y-119412500D01*
G37*
G36*
X126063972Y-118031541D02*
X126067156Y-118031563D01*
X126193224Y-118045704D01*
X126314143Y-118084062D01*
X126425310Y-118145176D01*
X126522488Y-118226719D01*
X126601978Y-118325584D01*
X126660751Y-118438006D01*
X126696568Y-118559702D01*
X126696572Y-118559741D01*
X126696574Y-118559749D01*
X126708067Y-118686036D01*
X126694812Y-118812151D01*
X126694809Y-118812160D01*
X126694805Y-118812201D01*
X126657292Y-118933385D01*
X126596955Y-119044975D01*
X126516093Y-119142721D01*
X126417786Y-119222899D01*
X126305777Y-119282455D01*
X126184333Y-119319121D01*
X126058081Y-119331500D01*
X125247882Y-119331500D01*
X125242028Y-119331459D01*
X125238844Y-119331437D01*
X125112776Y-119317296D01*
X124991857Y-119278938D01*
X124880690Y-119217824D01*
X124783512Y-119136281D01*
X124704022Y-119037416D01*
X124645249Y-118924994D01*
X124609432Y-118803298D01*
X124609428Y-118803259D01*
X124609426Y-118803251D01*
X124597933Y-118676964D01*
X124611188Y-118550849D01*
X124611191Y-118550840D01*
X124611195Y-118550799D01*
X124648708Y-118429615D01*
X124709045Y-118318025D01*
X124789907Y-118220279D01*
X124888214Y-118140101D01*
X125000223Y-118080545D01*
X125121667Y-118043879D01*
X125247919Y-118031500D01*
X126058118Y-118031500D01*
X126063972Y-118031541D01*
X126063972Y-118031541D01*
G37*
G36*
X95483972Y-118031541D02*
X95487156Y-118031563D01*
X95613224Y-118045704D01*
X95734143Y-118084062D01*
X95845310Y-118145176D01*
X95942488Y-118226719D01*
X96021978Y-118325584D01*
X96080751Y-118438006D01*
X96116568Y-118559702D01*
X96116572Y-118559741D01*
X96116574Y-118559749D01*
X96128067Y-118686036D01*
X96114812Y-118812151D01*
X96114809Y-118812160D01*
X96114805Y-118812201D01*
X96077292Y-118933385D01*
X96016955Y-119044975D01*
X95936093Y-119142721D01*
X95837786Y-119222899D01*
X95725777Y-119282455D01*
X95604333Y-119319121D01*
X95478081Y-119331500D01*
X94667882Y-119331500D01*
X94662028Y-119331459D01*
X94658844Y-119331437D01*
X94532776Y-119317296D01*
X94411857Y-119278938D01*
X94300690Y-119217824D01*
X94203512Y-119136281D01*
X94124022Y-119037416D01*
X94065249Y-118924994D01*
X94029432Y-118803298D01*
X94029428Y-118803259D01*
X94029426Y-118803251D01*
X94017933Y-118676964D01*
X94031188Y-118550849D01*
X94031191Y-118550840D01*
X94031195Y-118550799D01*
X94068708Y-118429615D01*
X94129045Y-118318025D01*
X94209907Y-118220279D01*
X94308214Y-118140101D01*
X94420223Y-118080545D01*
X94541667Y-118043879D01*
X94667919Y-118031500D01*
X95478118Y-118031500D01*
X95483972Y-118031541D01*
X95483972Y-118031541D01*
G37*
G36*
X98023972Y-118031541D02*
X98027156Y-118031563D01*
X98153224Y-118045704D01*
X98274143Y-118084062D01*
X98385310Y-118145176D01*
X98482488Y-118226719D01*
X98561978Y-118325584D01*
X98620751Y-118438006D01*
X98656568Y-118559702D01*
X98656572Y-118559741D01*
X98656574Y-118559749D01*
X98668067Y-118686036D01*
X98654812Y-118812151D01*
X98654809Y-118812160D01*
X98654805Y-118812201D01*
X98617292Y-118933385D01*
X98556955Y-119044975D01*
X98476093Y-119142721D01*
X98377786Y-119222899D01*
X98265777Y-119282455D01*
X98144333Y-119319121D01*
X98018081Y-119331500D01*
X97207882Y-119331500D01*
X97202028Y-119331459D01*
X97198844Y-119331437D01*
X97072776Y-119317296D01*
X96951857Y-119278938D01*
X96840690Y-119217824D01*
X96743512Y-119136281D01*
X96664022Y-119037416D01*
X96605249Y-118924994D01*
X96569432Y-118803298D01*
X96569428Y-118803259D01*
X96569426Y-118803251D01*
X96557933Y-118676964D01*
X96571188Y-118550849D01*
X96571191Y-118550840D01*
X96571195Y-118550799D01*
X96608708Y-118429615D01*
X96669045Y-118318025D01*
X96749907Y-118220279D01*
X96848214Y-118140101D01*
X96960223Y-118080545D01*
X97081667Y-118043879D01*
X97207919Y-118031500D01*
X98018118Y-118031500D01*
X98023972Y-118031541D01*
X98023972Y-118031541D01*
G37*
G36*
X123473972Y-118031541D02*
X123477156Y-118031563D01*
X123603224Y-118045704D01*
X123724143Y-118084062D01*
X123835310Y-118145176D01*
X123932488Y-118226719D01*
X124011978Y-118325584D01*
X124070751Y-118438006D01*
X124106568Y-118559702D01*
X124106572Y-118559741D01*
X124106574Y-118559749D01*
X124118067Y-118686036D01*
X124104812Y-118812151D01*
X124104809Y-118812160D01*
X124104805Y-118812201D01*
X124067292Y-118933385D01*
X124006955Y-119044975D01*
X123926093Y-119142721D01*
X123827786Y-119222899D01*
X123715777Y-119282455D01*
X123594333Y-119319121D01*
X123468081Y-119331500D01*
X122657882Y-119331500D01*
X122652028Y-119331459D01*
X122648844Y-119331437D01*
X122522776Y-119317296D01*
X122401857Y-119278938D01*
X122290690Y-119217824D01*
X122193512Y-119136281D01*
X122114022Y-119037416D01*
X122055249Y-118924994D01*
X122019432Y-118803298D01*
X122019428Y-118803259D01*
X122019426Y-118803251D01*
X122007933Y-118676964D01*
X122021188Y-118550849D01*
X122021191Y-118550840D01*
X122021195Y-118550799D01*
X122058708Y-118429615D01*
X122119045Y-118318025D01*
X122199907Y-118220279D01*
X122298214Y-118140101D01*
X122410223Y-118080545D01*
X122531667Y-118043879D01*
X122657919Y-118031500D01*
X123468118Y-118031500D01*
X123473972Y-118031541D01*
X123473972Y-118031541D01*
G37*
G36*
X159900600Y-118142500D02*
X157800600Y-118142500D01*
X157800600Y-117442500D01*
X159900600Y-117442500D01*
X159900600Y-118142500D01*
X159900600Y-118142500D01*
G37*
G36*
X169300600Y-118142500D02*
X167200600Y-118142500D01*
X167200600Y-117442500D01*
X169300600Y-117442500D01*
X169300600Y-118142500D01*
X169300600Y-118142500D01*
G37*
G36*
X95483972Y-115491541D02*
X95487156Y-115491563D01*
X95613224Y-115505704D01*
X95734143Y-115544062D01*
X95845310Y-115605176D01*
X95942488Y-115686719D01*
X96021978Y-115785584D01*
X96080751Y-115898006D01*
X96116568Y-116019702D01*
X96116572Y-116019741D01*
X96116574Y-116019749D01*
X96128067Y-116146036D01*
X96114812Y-116272151D01*
X96114809Y-116272160D01*
X96114805Y-116272201D01*
X96077292Y-116393385D01*
X96016955Y-116504975D01*
X95936093Y-116602721D01*
X95837786Y-116682899D01*
X95725777Y-116742455D01*
X95604333Y-116779121D01*
X95478081Y-116791500D01*
X94667882Y-116791500D01*
X94662028Y-116791459D01*
X94658844Y-116791437D01*
X94532776Y-116777296D01*
X94411857Y-116738938D01*
X94300690Y-116677824D01*
X94203512Y-116596281D01*
X94124022Y-116497416D01*
X94065249Y-116384994D01*
X94029432Y-116263298D01*
X94029428Y-116263259D01*
X94029426Y-116263251D01*
X94017933Y-116136964D01*
X94031188Y-116010849D01*
X94031191Y-116010840D01*
X94031195Y-116010799D01*
X94068708Y-115889615D01*
X94129045Y-115778025D01*
X94209907Y-115680279D01*
X94308214Y-115600101D01*
X94420223Y-115540545D01*
X94541667Y-115503879D01*
X94667919Y-115491500D01*
X95478118Y-115491500D01*
X95483972Y-115491541D01*
X95483972Y-115491541D01*
G37*
G36*
X123473972Y-115491541D02*
X123477156Y-115491563D01*
X123603224Y-115505704D01*
X123724143Y-115544062D01*
X123835310Y-115605176D01*
X123932488Y-115686719D01*
X124011978Y-115785584D01*
X124070751Y-115898006D01*
X124106568Y-116019702D01*
X124106572Y-116019741D01*
X124106574Y-116019749D01*
X124118067Y-116146036D01*
X124104812Y-116272151D01*
X124104809Y-116272160D01*
X124104805Y-116272201D01*
X124067292Y-116393385D01*
X124006955Y-116504975D01*
X123926093Y-116602721D01*
X123827786Y-116682899D01*
X123715777Y-116742455D01*
X123594333Y-116779121D01*
X123468081Y-116791500D01*
X122657882Y-116791500D01*
X122652028Y-116791459D01*
X122648844Y-116791437D01*
X122522776Y-116777296D01*
X122401857Y-116738938D01*
X122290690Y-116677824D01*
X122193512Y-116596281D01*
X122114022Y-116497416D01*
X122055249Y-116384994D01*
X122019432Y-116263298D01*
X122019428Y-116263259D01*
X122019426Y-116263251D01*
X122007933Y-116136964D01*
X122021188Y-116010849D01*
X122021191Y-116010840D01*
X122021195Y-116010799D01*
X122058708Y-115889615D01*
X122119045Y-115778025D01*
X122199907Y-115680279D01*
X122298214Y-115600101D01*
X122410223Y-115540545D01*
X122531667Y-115503879D01*
X122657919Y-115491500D01*
X123468118Y-115491500D01*
X123473972Y-115491541D01*
X123473972Y-115491541D01*
G37*
G36*
X126063972Y-115491541D02*
X126067156Y-115491563D01*
X126193224Y-115505704D01*
X126314143Y-115544062D01*
X126425310Y-115605176D01*
X126522488Y-115686719D01*
X126601978Y-115785584D01*
X126660751Y-115898006D01*
X126696568Y-116019702D01*
X126696572Y-116019741D01*
X126696574Y-116019749D01*
X126708067Y-116146036D01*
X126694812Y-116272151D01*
X126694809Y-116272160D01*
X126694805Y-116272201D01*
X126657292Y-116393385D01*
X126596955Y-116504975D01*
X126516093Y-116602721D01*
X126417786Y-116682899D01*
X126305777Y-116742455D01*
X126184333Y-116779121D01*
X126058081Y-116791500D01*
X125247882Y-116791500D01*
X125242028Y-116791459D01*
X125238844Y-116791437D01*
X125112776Y-116777296D01*
X124991857Y-116738938D01*
X124880690Y-116677824D01*
X124783512Y-116596281D01*
X124704022Y-116497416D01*
X124645249Y-116384994D01*
X124609432Y-116263298D01*
X124609428Y-116263259D01*
X124609426Y-116263251D01*
X124597933Y-116136964D01*
X124611188Y-116010849D01*
X124611191Y-116010840D01*
X124611195Y-116010799D01*
X124648708Y-115889615D01*
X124709045Y-115778025D01*
X124789907Y-115680279D01*
X124888214Y-115600101D01*
X125000223Y-115540545D01*
X125121667Y-115503879D01*
X125247919Y-115491500D01*
X126058118Y-115491500D01*
X126063972Y-115491541D01*
X126063972Y-115491541D01*
G37*
G36*
X98023972Y-115491541D02*
X98027156Y-115491563D01*
X98153224Y-115505704D01*
X98274143Y-115544062D01*
X98385310Y-115605176D01*
X98482488Y-115686719D01*
X98561978Y-115785584D01*
X98620751Y-115898006D01*
X98656568Y-116019702D01*
X98656572Y-116019741D01*
X98656574Y-116019749D01*
X98668067Y-116146036D01*
X98654812Y-116272151D01*
X98654809Y-116272160D01*
X98654805Y-116272201D01*
X98617292Y-116393385D01*
X98556955Y-116504975D01*
X98476093Y-116602721D01*
X98377786Y-116682899D01*
X98265777Y-116742455D01*
X98144333Y-116779121D01*
X98018081Y-116791500D01*
X97207882Y-116791500D01*
X97202028Y-116791459D01*
X97198844Y-116791437D01*
X97072776Y-116777296D01*
X96951857Y-116738938D01*
X96840690Y-116677824D01*
X96743512Y-116596281D01*
X96664022Y-116497416D01*
X96605249Y-116384994D01*
X96569432Y-116263298D01*
X96569428Y-116263259D01*
X96569426Y-116263251D01*
X96557933Y-116136964D01*
X96571188Y-116010849D01*
X96571191Y-116010840D01*
X96571195Y-116010799D01*
X96608708Y-115889615D01*
X96669045Y-115778025D01*
X96749907Y-115680279D01*
X96848214Y-115600101D01*
X96960223Y-115540545D01*
X97081667Y-115503879D01*
X97207919Y-115491500D01*
X98018118Y-115491500D01*
X98023972Y-115491541D01*
X98023972Y-115491541D01*
G37*
G36*
X146040500Y-116179000D02*
X145655500Y-116179000D01*
X145655500Y-114079000D01*
X146040500Y-114079000D01*
X146040500Y-116179000D01*
X146040500Y-116179000D01*
G37*
G36*
X156040500Y-116179000D02*
X155655500Y-116179000D01*
X155655500Y-114079000D01*
X156040500Y-114079000D01*
X156040500Y-116179000D01*
X156040500Y-116179000D01*
G37*
G36*
X155540500Y-116179000D02*
X155155500Y-116179000D01*
X155155500Y-114079000D01*
X155540500Y-114079000D01*
X155540500Y-116179000D01*
X155540500Y-116179000D01*
G37*
G36*
X155040500Y-116179000D02*
X154655500Y-116179000D01*
X154655500Y-114079000D01*
X155040500Y-114079000D01*
X155040500Y-116179000D01*
X155040500Y-116179000D01*
G37*
G36*
X150540500Y-116179000D02*
X150155500Y-116179000D01*
X150155500Y-114079000D01*
X150540500Y-114079000D01*
X150540500Y-116179000D01*
X150540500Y-116179000D01*
G37*
G36*
X150040500Y-116179000D02*
X149655500Y-116179000D01*
X149655500Y-114079000D01*
X150040500Y-114079000D01*
X150040500Y-116179000D01*
X150040500Y-116179000D01*
G37*
G36*
X149540500Y-116179000D02*
X149155500Y-116179000D01*
X149155500Y-114079000D01*
X149540500Y-114079000D01*
X149540500Y-116179000D01*
X149540500Y-116179000D01*
G37*
G36*
X149040500Y-116179000D02*
X148655500Y-116179000D01*
X148655500Y-114079000D01*
X149040500Y-114079000D01*
X149040500Y-116179000D01*
X149040500Y-116179000D01*
G37*
G36*
X148540500Y-116179000D02*
X148155500Y-116179000D01*
X148155500Y-114079000D01*
X148540500Y-114079000D01*
X148540500Y-116179000D01*
X148540500Y-116179000D01*
G37*
G36*
X148040500Y-116179000D02*
X147655500Y-116179000D01*
X147655500Y-114079000D01*
X148040500Y-114079000D01*
X148040500Y-116179000D01*
X148040500Y-116179000D01*
G37*
G36*
X147540500Y-116179000D02*
X147155500Y-116179000D01*
X147155500Y-114079000D01*
X147540500Y-114079000D01*
X147540500Y-116179000D01*
X147540500Y-116179000D01*
G37*
G36*
X147040500Y-116179000D02*
X146655500Y-116179000D01*
X146655500Y-114079000D01*
X147040500Y-114079000D01*
X147040500Y-116179000D01*
X147040500Y-116179000D01*
G37*
G36*
X151040500Y-116179000D02*
X150655500Y-116179000D01*
X150655500Y-114079000D01*
X151040500Y-114079000D01*
X151040500Y-116179000D01*
X151040500Y-116179000D01*
G37*
G36*
X145540500Y-116179000D02*
X145155500Y-116179000D01*
X145155500Y-114079000D01*
X145540500Y-114079000D01*
X145540500Y-116179000D01*
X145540500Y-116179000D01*
G37*
G36*
X144540500Y-116179000D02*
X144155500Y-116179000D01*
X144155500Y-114079000D01*
X144540500Y-114079000D01*
X144540500Y-116179000D01*
X144540500Y-116179000D01*
G37*
G36*
X154540500Y-116179000D02*
X154155500Y-116179000D01*
X154155500Y-114079000D01*
X154540500Y-114079000D01*
X154540500Y-116179000D01*
X154540500Y-116179000D01*
G37*
G36*
X154040500Y-116179000D02*
X153655500Y-116179000D01*
X153655500Y-114079000D01*
X154040500Y-114079000D01*
X154040500Y-116179000D01*
X154040500Y-116179000D01*
G37*
G36*
X153540500Y-116179000D02*
X153155500Y-116179000D01*
X153155500Y-114079000D01*
X153540500Y-114079000D01*
X153540500Y-116179000D01*
X153540500Y-116179000D01*
G37*
G36*
X153040500Y-116179000D02*
X152655500Y-116179000D01*
X152655500Y-114079000D01*
X153040500Y-114079000D01*
X153040500Y-116179000D01*
X153040500Y-116179000D01*
G37*
G36*
X152540500Y-116179000D02*
X152155500Y-116179000D01*
X152155500Y-114079000D01*
X152540500Y-114079000D01*
X152540500Y-116179000D01*
X152540500Y-116179000D01*
G37*
G36*
X152040500Y-116179000D02*
X151655500Y-116179000D01*
X151655500Y-114079000D01*
X152040500Y-114079000D01*
X152040500Y-116179000D01*
X152040500Y-116179000D01*
G37*
G36*
X151540500Y-116179000D02*
X151155500Y-116179000D01*
X151155500Y-114079000D01*
X151540500Y-114079000D01*
X151540500Y-116179000D01*
X151540500Y-116179000D01*
G37*
G36*
X142540500Y-116179000D02*
X142155500Y-116179000D01*
X142155500Y-114079000D01*
X142540500Y-114079000D01*
X142540500Y-116179000D01*
X142540500Y-116179000D01*
G37*
G36*
X143040500Y-116179000D02*
X142655500Y-116179000D01*
X142655500Y-114079000D01*
X143040500Y-114079000D01*
X143040500Y-116179000D01*
X143040500Y-116179000D01*
G37*
G36*
X144040500Y-116179000D02*
X143655500Y-116179000D01*
X143655500Y-114079000D01*
X144040500Y-114079000D01*
X144040500Y-116179000D01*
X144040500Y-116179000D01*
G37*
G36*
X143540500Y-116179000D02*
X143155500Y-116179000D01*
X143155500Y-114079000D01*
X143540500Y-114079000D01*
X143540500Y-116179000D01*
X143540500Y-116179000D01*
G37*
G36*
X146540500Y-116179000D02*
X146155500Y-116179000D01*
X146155500Y-114079000D01*
X146540500Y-114079000D01*
X146540500Y-116179000D01*
X146540500Y-116179000D01*
G37*
G36*
X145040500Y-116179000D02*
X144655500Y-116179000D01*
X144655500Y-114079000D01*
X145040500Y-114079000D01*
X145040500Y-116179000D01*
X145040500Y-116179000D01*
G37*
G36*
X130611500Y-116177000D02*
X129611500Y-116177000D01*
X129611500Y-114877000D01*
X130611500Y-114877000D01*
X130611500Y-116177000D01*
X130611500Y-116177000D01*
G37*
G36*
X133151500Y-116177000D02*
X132151500Y-116177000D01*
X132151500Y-114877000D01*
X133151500Y-114877000D01*
X133151500Y-116177000D01*
X133151500Y-116177000D01*
G37*
G36*
X138216881Y-110428685D02*
X138616845Y-110510786D01*
X138993240Y-110669008D01*
X139331739Y-110897327D01*
X139619444Y-111187049D01*
X139845395Y-111527131D01*
X140000985Y-111904622D01*
X140080224Y-112304806D01*
X140080224Y-112304820D01*
X140080289Y-112305149D01*
X140073777Y-112771506D01*
X140073701Y-112771840D01*
X140073701Y-112771852D01*
X139983322Y-113169660D01*
X139817250Y-113542664D01*
X139581893Y-113876304D01*
X139286207Y-114157881D01*
X138941471Y-114376657D01*
X138560800Y-114524311D01*
X138158704Y-114595210D01*
X137750492Y-114586660D01*
X137351709Y-114498982D01*
X136977560Y-114335520D01*
X136642284Y-114102497D01*
X136358652Y-113808787D01*
X136137474Y-113465586D01*
X135987168Y-113085956D01*
X135913460Y-112684357D01*
X135919162Y-112276097D01*
X136004051Y-111876721D01*
X136164900Y-111501434D01*
X136395577Y-111164540D01*
X136687299Y-110878864D01*
X137028949Y-110655294D01*
X137407520Y-110502341D01*
X137808586Y-110425834D01*
X138216881Y-110428685D01*
X138216881Y-110428685D01*
G37*
G36*
X123473972Y-112951541D02*
X123477156Y-112951563D01*
X123603224Y-112965704D01*
X123724143Y-113004062D01*
X123835310Y-113065176D01*
X123932488Y-113146719D01*
X124011978Y-113245584D01*
X124070751Y-113358006D01*
X124106568Y-113479702D01*
X124106572Y-113479741D01*
X124106574Y-113479749D01*
X124118067Y-113606036D01*
X124104812Y-113732151D01*
X124104809Y-113732160D01*
X124104805Y-113732201D01*
X124067292Y-113853385D01*
X124006955Y-113964975D01*
X123926093Y-114062721D01*
X123827786Y-114142899D01*
X123715777Y-114202455D01*
X123594333Y-114239121D01*
X123468081Y-114251500D01*
X122657882Y-114251500D01*
X122652028Y-114251459D01*
X122648844Y-114251437D01*
X122522776Y-114237296D01*
X122401857Y-114198938D01*
X122290690Y-114137824D01*
X122193512Y-114056281D01*
X122114022Y-113957416D01*
X122055249Y-113844994D01*
X122019432Y-113723298D01*
X122019428Y-113723259D01*
X122019426Y-113723251D01*
X122007933Y-113596964D01*
X122021188Y-113470849D01*
X122021191Y-113470840D01*
X122021195Y-113470799D01*
X122058708Y-113349615D01*
X122119045Y-113238025D01*
X122199907Y-113140279D01*
X122298214Y-113060101D01*
X122410223Y-113000545D01*
X122531667Y-112963879D01*
X122657919Y-112951500D01*
X123468118Y-112951500D01*
X123473972Y-112951541D01*
X123473972Y-112951541D01*
G37*
G36*
X126063972Y-112951541D02*
X126067156Y-112951563D01*
X126193224Y-112965704D01*
X126314143Y-113004062D01*
X126425310Y-113065176D01*
X126522488Y-113146719D01*
X126601978Y-113245584D01*
X126660751Y-113358006D01*
X126696568Y-113479702D01*
X126696572Y-113479741D01*
X126696574Y-113479749D01*
X126708067Y-113606036D01*
X126694812Y-113732151D01*
X126694809Y-113732160D01*
X126694805Y-113732201D01*
X126657292Y-113853385D01*
X126596955Y-113964975D01*
X126516093Y-114062721D01*
X126417786Y-114142899D01*
X126305777Y-114202455D01*
X126184333Y-114239121D01*
X126058081Y-114251500D01*
X125247882Y-114251500D01*
X125242028Y-114251459D01*
X125238844Y-114251437D01*
X125112776Y-114237296D01*
X124991857Y-114198938D01*
X124880690Y-114137824D01*
X124783512Y-114056281D01*
X124704022Y-113957416D01*
X124645249Y-113844994D01*
X124609432Y-113723298D01*
X124609428Y-113723259D01*
X124609426Y-113723251D01*
X124597933Y-113596964D01*
X124611188Y-113470849D01*
X124611191Y-113470840D01*
X124611195Y-113470799D01*
X124648708Y-113349615D01*
X124709045Y-113238025D01*
X124789907Y-113140279D01*
X124888214Y-113060101D01*
X125000223Y-113000545D01*
X125121667Y-112963879D01*
X125247919Y-112951500D01*
X126058118Y-112951500D01*
X126063972Y-112951541D01*
X126063972Y-112951541D01*
G37*
G36*
X98023972Y-112951541D02*
X98027156Y-112951563D01*
X98153224Y-112965704D01*
X98274143Y-113004062D01*
X98385310Y-113065176D01*
X98482488Y-113146719D01*
X98561978Y-113245584D01*
X98620751Y-113358006D01*
X98656568Y-113479702D01*
X98656572Y-113479741D01*
X98656574Y-113479749D01*
X98668067Y-113606036D01*
X98654812Y-113732151D01*
X98654809Y-113732160D01*
X98654805Y-113732201D01*
X98617292Y-113853385D01*
X98556955Y-113964975D01*
X98476093Y-114062721D01*
X98377786Y-114142899D01*
X98265777Y-114202455D01*
X98144333Y-114239121D01*
X98018081Y-114251500D01*
X97207882Y-114251500D01*
X97202028Y-114251459D01*
X97198844Y-114251437D01*
X97072776Y-114237296D01*
X96951857Y-114198938D01*
X96840690Y-114137824D01*
X96743512Y-114056281D01*
X96664022Y-113957416D01*
X96605249Y-113844994D01*
X96569432Y-113723298D01*
X96569428Y-113723259D01*
X96569426Y-113723251D01*
X96557933Y-113596964D01*
X96571188Y-113470849D01*
X96571191Y-113470840D01*
X96571195Y-113470799D01*
X96608708Y-113349615D01*
X96669045Y-113238025D01*
X96749907Y-113140279D01*
X96848214Y-113060101D01*
X96960223Y-113000545D01*
X97081667Y-112963879D01*
X97207919Y-112951500D01*
X98018118Y-112951500D01*
X98023972Y-112951541D01*
X98023972Y-112951541D01*
G37*
G36*
X95483972Y-112951541D02*
X95487156Y-112951563D01*
X95613224Y-112965704D01*
X95734143Y-113004062D01*
X95845310Y-113065176D01*
X95942488Y-113146719D01*
X96021978Y-113245584D01*
X96080751Y-113358006D01*
X96116568Y-113479702D01*
X96116572Y-113479741D01*
X96116574Y-113479749D01*
X96128067Y-113606036D01*
X96114812Y-113732151D01*
X96114809Y-113732160D01*
X96114805Y-113732201D01*
X96077292Y-113853385D01*
X96016955Y-113964975D01*
X95936093Y-114062721D01*
X95837786Y-114142899D01*
X95725777Y-114202455D01*
X95604333Y-114239121D01*
X95478081Y-114251500D01*
X94667882Y-114251500D01*
X94662028Y-114251459D01*
X94658844Y-114251437D01*
X94532776Y-114237296D01*
X94411857Y-114198938D01*
X94300690Y-114137824D01*
X94203512Y-114056281D01*
X94124022Y-113957416D01*
X94065249Y-113844994D01*
X94029432Y-113723298D01*
X94029428Y-113723259D01*
X94029426Y-113723251D01*
X94017933Y-113596964D01*
X94031188Y-113470849D01*
X94031191Y-113470840D01*
X94031195Y-113470799D01*
X94068708Y-113349615D01*
X94129045Y-113238025D01*
X94209907Y-113140279D01*
X94308214Y-113060101D01*
X94420223Y-113000545D01*
X94541667Y-112963879D01*
X94667919Y-112951500D01*
X95478118Y-112951500D01*
X95483972Y-112951541D01*
X95483972Y-112951541D01*
G37*
G36*
X159875200Y-114053100D02*
X157775200Y-114053100D01*
X157775200Y-113353100D01*
X159875200Y-113353100D01*
X159875200Y-114053100D01*
X159875200Y-114053100D01*
G37*
G36*
X169275200Y-114053100D02*
X167175200Y-114053100D01*
X167175200Y-113353100D01*
X169275200Y-113353100D01*
X169275200Y-114053100D01*
X169275200Y-114053100D01*
G37*
G36*
X130611500Y-113977000D02*
X129611500Y-113977000D01*
X129611500Y-112677000D01*
X130611500Y-112677000D01*
X130611500Y-113977000D01*
X130611500Y-113977000D01*
G37*
G36*
X133151500Y-113977000D02*
X132151500Y-113977000D01*
X132151500Y-112677000D01*
X133151500Y-112677000D01*
X133151500Y-113977000D01*
X133151500Y-113977000D01*
G37*
G36*
X169275200Y-112783100D02*
X167175200Y-112783100D01*
X167175200Y-112083100D01*
X169275200Y-112083100D01*
X169275200Y-112783100D01*
X169275200Y-112783100D01*
G37*
G36*
X159875200Y-112783100D02*
X157775200Y-112783100D01*
X157775200Y-112083100D01*
X159875200Y-112083100D01*
X159875200Y-112783100D01*
X159875200Y-112783100D01*
G37*
G36*
X95483972Y-110411541D02*
X95487156Y-110411563D01*
X95613224Y-110425704D01*
X95734143Y-110464062D01*
X95845310Y-110525176D01*
X95942488Y-110606719D01*
X96021978Y-110705584D01*
X96080751Y-110818006D01*
X96116568Y-110939702D01*
X96116572Y-110939741D01*
X96116574Y-110939749D01*
X96128067Y-111066036D01*
X96114812Y-111192151D01*
X96114809Y-111192160D01*
X96114805Y-111192201D01*
X96077292Y-111313385D01*
X96016955Y-111424975D01*
X95936093Y-111522721D01*
X95837786Y-111602899D01*
X95725777Y-111662455D01*
X95604333Y-111699121D01*
X95478081Y-111711500D01*
X94667882Y-111711500D01*
X94662028Y-111711459D01*
X94658844Y-111711437D01*
X94532776Y-111697296D01*
X94411857Y-111658938D01*
X94300690Y-111597824D01*
X94203512Y-111516281D01*
X94124022Y-111417416D01*
X94065249Y-111304994D01*
X94029432Y-111183298D01*
X94029428Y-111183259D01*
X94029426Y-111183251D01*
X94017933Y-111056964D01*
X94031188Y-110930849D01*
X94031191Y-110930840D01*
X94031195Y-110930799D01*
X94068708Y-110809615D01*
X94129045Y-110698025D01*
X94209907Y-110600279D01*
X94308214Y-110520101D01*
X94420223Y-110460545D01*
X94541667Y-110423879D01*
X94667919Y-110411500D01*
X95478118Y-110411500D01*
X95483972Y-110411541D01*
X95483972Y-110411541D01*
G37*
G36*
X126063972Y-110411541D02*
X126067156Y-110411563D01*
X126193224Y-110425704D01*
X126314143Y-110464062D01*
X126425310Y-110525176D01*
X126522488Y-110606719D01*
X126601978Y-110705584D01*
X126660751Y-110818006D01*
X126696568Y-110939702D01*
X126696572Y-110939741D01*
X126696574Y-110939749D01*
X126708067Y-111066036D01*
X126694812Y-111192151D01*
X126694809Y-111192160D01*
X126694805Y-111192201D01*
X126657292Y-111313385D01*
X126596955Y-111424975D01*
X126516093Y-111522721D01*
X126417786Y-111602899D01*
X126305777Y-111662455D01*
X126184333Y-111699121D01*
X126058081Y-111711500D01*
X125247882Y-111711500D01*
X125242028Y-111711459D01*
X125238844Y-111711437D01*
X125112776Y-111697296D01*
X124991857Y-111658938D01*
X124880690Y-111597824D01*
X124783512Y-111516281D01*
X124704022Y-111417416D01*
X124645249Y-111304994D01*
X124609432Y-111183298D01*
X124609428Y-111183259D01*
X124609426Y-111183251D01*
X124597933Y-111056964D01*
X124611188Y-110930849D01*
X124611191Y-110930840D01*
X124611195Y-110930799D01*
X124648708Y-110809615D01*
X124709045Y-110698025D01*
X124789907Y-110600279D01*
X124888214Y-110520101D01*
X125000223Y-110460545D01*
X125121667Y-110423879D01*
X125247919Y-110411500D01*
X126058118Y-110411500D01*
X126063972Y-110411541D01*
X126063972Y-110411541D01*
G37*
G36*
X123473972Y-110411541D02*
X123477156Y-110411563D01*
X123603224Y-110425704D01*
X123724143Y-110464062D01*
X123835310Y-110525176D01*
X123932488Y-110606719D01*
X124011978Y-110705584D01*
X124070751Y-110818006D01*
X124106568Y-110939702D01*
X124106572Y-110939741D01*
X124106574Y-110939749D01*
X124118067Y-111066036D01*
X124104812Y-111192151D01*
X124104809Y-111192160D01*
X124104805Y-111192201D01*
X124067292Y-111313385D01*
X124006955Y-111424975D01*
X123926093Y-111522721D01*
X123827786Y-111602899D01*
X123715777Y-111662455D01*
X123594333Y-111699121D01*
X123468081Y-111711500D01*
X122657882Y-111711500D01*
X122652028Y-111711459D01*
X122648844Y-111711437D01*
X122522776Y-111697296D01*
X122401857Y-111658938D01*
X122290690Y-111597824D01*
X122193512Y-111516281D01*
X122114022Y-111417416D01*
X122055249Y-111304994D01*
X122019432Y-111183298D01*
X122019428Y-111183259D01*
X122019426Y-111183251D01*
X122007933Y-111056964D01*
X122021188Y-110930849D01*
X122021191Y-110930840D01*
X122021195Y-110930799D01*
X122058708Y-110809615D01*
X122119045Y-110698025D01*
X122199907Y-110600279D01*
X122298214Y-110520101D01*
X122410223Y-110460545D01*
X122531667Y-110423879D01*
X122657919Y-110411500D01*
X123468118Y-110411500D01*
X123473972Y-110411541D01*
X123473972Y-110411541D01*
G37*
G36*
X98023972Y-110411541D02*
X98027156Y-110411563D01*
X98153224Y-110425704D01*
X98274143Y-110464062D01*
X98385310Y-110525176D01*
X98482488Y-110606719D01*
X98561978Y-110705584D01*
X98620751Y-110818006D01*
X98656568Y-110939702D01*
X98656572Y-110939741D01*
X98656574Y-110939749D01*
X98668067Y-111066036D01*
X98654812Y-111192151D01*
X98654809Y-111192160D01*
X98654805Y-111192201D01*
X98617292Y-111313385D01*
X98556955Y-111424975D01*
X98476093Y-111522721D01*
X98377786Y-111602899D01*
X98265777Y-111662455D01*
X98144333Y-111699121D01*
X98018081Y-111711500D01*
X97207882Y-111711500D01*
X97202028Y-111711459D01*
X97198844Y-111711437D01*
X97072776Y-111697296D01*
X96951857Y-111658938D01*
X96840690Y-111597824D01*
X96743512Y-111516281D01*
X96664022Y-111417416D01*
X96605249Y-111304994D01*
X96569432Y-111183298D01*
X96569428Y-111183259D01*
X96569426Y-111183251D01*
X96557933Y-111056964D01*
X96571188Y-110930849D01*
X96571191Y-110930840D01*
X96571195Y-110930799D01*
X96608708Y-110809615D01*
X96669045Y-110698025D01*
X96749907Y-110600279D01*
X96848214Y-110520101D01*
X96960223Y-110460545D01*
X97081667Y-110423879D01*
X97207919Y-110411500D01*
X98018118Y-110411500D01*
X98023972Y-110411541D01*
X98023972Y-110411541D01*
G37*
G36*
X159875200Y-111513100D02*
X157775200Y-111513100D01*
X157775200Y-110813100D01*
X159875200Y-110813100D01*
X159875200Y-111513100D01*
X159875200Y-111513100D01*
G37*
G36*
X169275200Y-111513100D02*
X167175200Y-111513100D01*
X167175200Y-110813100D01*
X169275200Y-110813100D01*
X169275200Y-111513100D01*
X169275200Y-111513100D01*
G37*
G36*
X159875200Y-110243100D02*
X157775200Y-110243100D01*
X157775200Y-109543100D01*
X159875200Y-109543100D01*
X159875200Y-110243100D01*
X159875200Y-110243100D01*
G37*
G36*
X169275200Y-110243100D02*
X167175200Y-110243100D01*
X167175200Y-109543100D01*
X169275200Y-109543100D01*
X169275200Y-110243100D01*
X169275200Y-110243100D01*
G37*
G36*
X182129596Y-108242950D02*
X182135177Y-108242989D01*
X182312369Y-108262864D01*
X182482326Y-108316778D01*
X182638575Y-108402676D01*
X182775163Y-108517288D01*
X182886889Y-108656246D01*
X182969496Y-108814259D01*
X183019839Y-108985308D01*
X183019843Y-108985347D01*
X183019845Y-108985355D01*
X183036001Y-109162876D01*
X183017368Y-109340155D01*
X183017365Y-109340164D01*
X183017361Y-109340205D01*
X182964635Y-109510534D01*
X182879830Y-109667379D01*
X182766175Y-109804764D01*
X182628000Y-109917457D01*
X182470567Y-110001165D01*
X182299874Y-110052701D01*
X182122421Y-110070100D01*
X182113544Y-110070100D01*
X182106404Y-110070050D01*
X182100823Y-110070011D01*
X181923631Y-110050136D01*
X181753674Y-109996222D01*
X181597425Y-109910324D01*
X181460837Y-109795712D01*
X181349111Y-109656754D01*
X181266504Y-109498741D01*
X181216161Y-109327692D01*
X181216157Y-109327653D01*
X181216155Y-109327645D01*
X181199999Y-109150124D01*
X181218632Y-108972845D01*
X181218635Y-108972836D01*
X181218639Y-108972795D01*
X181271365Y-108802466D01*
X181356170Y-108645621D01*
X181469825Y-108508236D01*
X181608000Y-108395543D01*
X181765433Y-108311835D01*
X181936126Y-108260299D01*
X182113579Y-108242900D01*
X182122456Y-108242900D01*
X182129596Y-108242950D01*
X182129596Y-108242950D01*
G37*
G36*
X177049596Y-108242950D02*
X177055177Y-108242989D01*
X177232369Y-108262864D01*
X177402326Y-108316778D01*
X177558575Y-108402676D01*
X177695163Y-108517288D01*
X177806889Y-108656246D01*
X177889496Y-108814259D01*
X177939839Y-108985308D01*
X177939843Y-108985347D01*
X177939845Y-108985355D01*
X177956001Y-109162876D01*
X177937368Y-109340155D01*
X177937365Y-109340164D01*
X177937361Y-109340205D01*
X177884635Y-109510534D01*
X177799830Y-109667379D01*
X177686175Y-109804764D01*
X177548000Y-109917457D01*
X177390567Y-110001165D01*
X177219874Y-110052701D01*
X177042421Y-110070100D01*
X177033544Y-110070100D01*
X177026404Y-110070050D01*
X177020823Y-110070011D01*
X176843631Y-110050136D01*
X176673674Y-109996222D01*
X176517425Y-109910324D01*
X176380837Y-109795712D01*
X176269111Y-109656754D01*
X176186504Y-109498741D01*
X176136161Y-109327692D01*
X176136157Y-109327653D01*
X176136155Y-109327645D01*
X176119999Y-109150124D01*
X176138632Y-108972845D01*
X176138635Y-108972836D01*
X176138639Y-108972795D01*
X176191365Y-108802466D01*
X176276170Y-108645621D01*
X176389825Y-108508236D01*
X176528000Y-108395543D01*
X176685433Y-108311835D01*
X176856126Y-108260299D01*
X177033579Y-108242900D01*
X177042456Y-108242900D01*
X177049596Y-108242950D01*
X177049596Y-108242950D01*
G37*
G36*
X179589596Y-108242950D02*
X179595177Y-108242989D01*
X179772369Y-108262864D01*
X179942326Y-108316778D01*
X180098575Y-108402676D01*
X180235163Y-108517288D01*
X180346889Y-108656246D01*
X180429496Y-108814259D01*
X180479839Y-108985308D01*
X180479843Y-108985347D01*
X180479845Y-108985355D01*
X180496001Y-109162876D01*
X180477368Y-109340155D01*
X180477365Y-109340164D01*
X180477361Y-109340205D01*
X180424635Y-109510534D01*
X180339830Y-109667379D01*
X180226175Y-109804764D01*
X180088000Y-109917457D01*
X179930567Y-110001165D01*
X179759874Y-110052701D01*
X179582421Y-110070100D01*
X179573544Y-110070100D01*
X179566404Y-110070050D01*
X179560823Y-110070011D01*
X179383631Y-110050136D01*
X179213674Y-109996222D01*
X179057425Y-109910324D01*
X178920837Y-109795712D01*
X178809111Y-109656754D01*
X178726504Y-109498741D01*
X178676161Y-109327692D01*
X178676157Y-109327653D01*
X178676155Y-109327645D01*
X178659999Y-109150124D01*
X178678632Y-108972845D01*
X178678635Y-108972836D01*
X178678639Y-108972795D01*
X178731365Y-108802466D01*
X178816170Y-108645621D01*
X178929825Y-108508236D01*
X179068000Y-108395543D01*
X179225433Y-108311835D01*
X179396126Y-108260299D01*
X179573579Y-108242900D01*
X179582456Y-108242900D01*
X179589596Y-108242950D01*
X179589596Y-108242950D01*
G37*
G36*
X187209596Y-108242950D02*
X187215177Y-108242989D01*
X187392369Y-108262864D01*
X187562326Y-108316778D01*
X187718575Y-108402676D01*
X187855163Y-108517288D01*
X187966889Y-108656246D01*
X188049496Y-108814259D01*
X188099839Y-108985308D01*
X188099843Y-108985347D01*
X188099845Y-108985355D01*
X188116001Y-109162876D01*
X188097368Y-109340155D01*
X188097365Y-109340164D01*
X188097361Y-109340205D01*
X188044635Y-109510534D01*
X187959830Y-109667379D01*
X187846175Y-109804764D01*
X187708000Y-109917457D01*
X187550567Y-110001165D01*
X187379874Y-110052701D01*
X187202421Y-110070100D01*
X187193544Y-110070100D01*
X187186404Y-110070050D01*
X187180823Y-110070011D01*
X187003631Y-110050136D01*
X186833674Y-109996222D01*
X186677425Y-109910324D01*
X186540837Y-109795712D01*
X186429111Y-109656754D01*
X186346504Y-109498741D01*
X186296161Y-109327692D01*
X186296157Y-109327653D01*
X186296155Y-109327645D01*
X186279999Y-109150124D01*
X186298632Y-108972845D01*
X186298635Y-108972836D01*
X186298639Y-108972795D01*
X186351365Y-108802466D01*
X186436170Y-108645621D01*
X186549825Y-108508236D01*
X186688000Y-108395543D01*
X186845433Y-108311835D01*
X187016126Y-108260299D01*
X187193579Y-108242900D01*
X187202456Y-108242900D01*
X187209596Y-108242950D01*
X187209596Y-108242950D01*
G37*
G36*
X184669596Y-108242950D02*
X184675177Y-108242989D01*
X184852369Y-108262864D01*
X185022326Y-108316778D01*
X185178575Y-108402676D01*
X185315163Y-108517288D01*
X185426889Y-108656246D01*
X185509496Y-108814259D01*
X185559839Y-108985308D01*
X185559843Y-108985347D01*
X185559845Y-108985355D01*
X185576001Y-109162876D01*
X185557368Y-109340155D01*
X185557365Y-109340164D01*
X185557361Y-109340205D01*
X185504635Y-109510534D01*
X185419830Y-109667379D01*
X185306175Y-109804764D01*
X185168000Y-109917457D01*
X185010567Y-110001165D01*
X184839874Y-110052701D01*
X184662421Y-110070100D01*
X184653544Y-110070100D01*
X184646404Y-110070050D01*
X184640823Y-110070011D01*
X184463631Y-110050136D01*
X184293674Y-109996222D01*
X184137425Y-109910324D01*
X184000837Y-109795712D01*
X183889111Y-109656754D01*
X183806504Y-109498741D01*
X183756161Y-109327692D01*
X183756157Y-109327653D01*
X183756155Y-109327645D01*
X183739999Y-109150124D01*
X183758632Y-108972845D01*
X183758635Y-108972836D01*
X183758639Y-108972795D01*
X183811365Y-108802466D01*
X183896170Y-108645621D01*
X184009825Y-108508236D01*
X184148000Y-108395543D01*
X184305433Y-108311835D01*
X184476126Y-108260299D01*
X184653579Y-108242900D01*
X184662456Y-108242900D01*
X184669596Y-108242950D01*
X184669596Y-108242950D01*
G37*
G36*
X126063972Y-107871541D02*
X126067156Y-107871563D01*
X126193224Y-107885704D01*
X126314143Y-107924062D01*
X126425310Y-107985176D01*
X126522488Y-108066719D01*
X126601978Y-108165584D01*
X126660751Y-108278006D01*
X126696568Y-108399702D01*
X126696572Y-108399741D01*
X126696574Y-108399749D01*
X126708067Y-108526036D01*
X126694812Y-108652151D01*
X126694809Y-108652160D01*
X126694805Y-108652201D01*
X126657292Y-108773385D01*
X126596955Y-108884975D01*
X126516093Y-108982721D01*
X126417786Y-109062899D01*
X126305777Y-109122455D01*
X126184333Y-109159121D01*
X126058081Y-109171500D01*
X125247882Y-109171500D01*
X125242028Y-109171459D01*
X125238844Y-109171437D01*
X125112776Y-109157296D01*
X124991857Y-109118938D01*
X124880690Y-109057824D01*
X124783512Y-108976281D01*
X124704022Y-108877416D01*
X124645249Y-108764994D01*
X124609432Y-108643298D01*
X124609428Y-108643259D01*
X124609426Y-108643251D01*
X124597933Y-108516964D01*
X124611188Y-108390849D01*
X124611191Y-108390840D01*
X124611195Y-108390799D01*
X124648708Y-108269615D01*
X124709045Y-108158025D01*
X124789907Y-108060279D01*
X124888214Y-107980101D01*
X125000223Y-107920545D01*
X125121667Y-107883879D01*
X125247919Y-107871500D01*
X126058118Y-107871500D01*
X126063972Y-107871541D01*
X126063972Y-107871541D01*
G37*
G36*
X123473972Y-107871541D02*
X123477156Y-107871563D01*
X123603224Y-107885704D01*
X123724143Y-107924062D01*
X123835310Y-107985176D01*
X123932488Y-108066719D01*
X124011978Y-108165584D01*
X124070751Y-108278006D01*
X124106568Y-108399702D01*
X124106572Y-108399741D01*
X124106574Y-108399749D01*
X124118067Y-108526036D01*
X124104812Y-108652151D01*
X124104809Y-108652160D01*
X124104805Y-108652201D01*
X124067292Y-108773385D01*
X124006955Y-108884975D01*
X123926093Y-108982721D01*
X123827786Y-109062899D01*
X123715777Y-109122455D01*
X123594333Y-109159121D01*
X123468081Y-109171500D01*
X122657882Y-109171500D01*
X122652028Y-109171459D01*
X122648844Y-109171437D01*
X122522776Y-109157296D01*
X122401857Y-109118938D01*
X122290690Y-109057824D01*
X122193512Y-108976281D01*
X122114022Y-108877416D01*
X122055249Y-108764994D01*
X122019432Y-108643298D01*
X122019428Y-108643259D01*
X122019426Y-108643251D01*
X122007933Y-108516964D01*
X122021188Y-108390849D01*
X122021191Y-108390840D01*
X122021195Y-108390799D01*
X122058708Y-108269615D01*
X122119045Y-108158025D01*
X122199907Y-108060279D01*
X122298214Y-107980101D01*
X122410223Y-107920545D01*
X122531667Y-107883879D01*
X122657919Y-107871500D01*
X123468118Y-107871500D01*
X123473972Y-107871541D01*
X123473972Y-107871541D01*
G37*
G36*
X95483972Y-107871541D02*
X95487156Y-107871563D01*
X95613224Y-107885704D01*
X95734143Y-107924062D01*
X95845310Y-107985176D01*
X95942488Y-108066719D01*
X96021978Y-108165584D01*
X96080751Y-108278006D01*
X96116568Y-108399702D01*
X96116572Y-108399741D01*
X96116574Y-108399749D01*
X96128067Y-108526036D01*
X96114812Y-108652151D01*
X96114809Y-108652160D01*
X96114805Y-108652201D01*
X96077292Y-108773385D01*
X96016955Y-108884975D01*
X95936093Y-108982721D01*
X95837786Y-109062899D01*
X95725777Y-109122455D01*
X95604333Y-109159121D01*
X95478081Y-109171500D01*
X94667882Y-109171500D01*
X94662028Y-109171459D01*
X94658844Y-109171437D01*
X94532776Y-109157296D01*
X94411857Y-109118938D01*
X94300690Y-109057824D01*
X94203512Y-108976281D01*
X94124022Y-108877416D01*
X94065249Y-108764994D01*
X94029432Y-108643298D01*
X94029428Y-108643259D01*
X94029426Y-108643251D01*
X94017933Y-108516964D01*
X94031188Y-108390849D01*
X94031191Y-108390840D01*
X94031195Y-108390799D01*
X94068708Y-108269615D01*
X94129045Y-108158025D01*
X94209907Y-108060279D01*
X94308214Y-107980101D01*
X94420223Y-107920545D01*
X94541667Y-107883879D01*
X94667919Y-107871500D01*
X95478118Y-107871500D01*
X95483972Y-107871541D01*
X95483972Y-107871541D01*
G37*
G36*
X98023972Y-107871541D02*
X98027156Y-107871563D01*
X98153224Y-107885704D01*
X98274143Y-107924062D01*
X98385310Y-107985176D01*
X98482488Y-108066719D01*
X98561978Y-108165584D01*
X98620751Y-108278006D01*
X98656568Y-108399702D01*
X98656572Y-108399741D01*
X98656574Y-108399749D01*
X98668067Y-108526036D01*
X98654812Y-108652151D01*
X98654809Y-108652160D01*
X98654805Y-108652201D01*
X98617292Y-108773385D01*
X98556955Y-108884975D01*
X98476093Y-108982721D01*
X98377786Y-109062899D01*
X98265777Y-109122455D01*
X98144333Y-109159121D01*
X98018081Y-109171500D01*
X97207882Y-109171500D01*
X97202028Y-109171459D01*
X97198844Y-109171437D01*
X97072776Y-109157296D01*
X96951857Y-109118938D01*
X96840690Y-109057824D01*
X96743512Y-108976281D01*
X96664022Y-108877416D01*
X96605249Y-108764994D01*
X96569432Y-108643298D01*
X96569428Y-108643259D01*
X96569426Y-108643251D01*
X96557933Y-108516964D01*
X96571188Y-108390849D01*
X96571191Y-108390840D01*
X96571195Y-108390799D01*
X96608708Y-108269615D01*
X96669045Y-108158025D01*
X96749907Y-108060279D01*
X96848214Y-107980101D01*
X96960223Y-107920545D01*
X97081667Y-107883879D01*
X97207919Y-107871500D01*
X98018118Y-107871500D01*
X98023972Y-107871541D01*
X98023972Y-107871541D01*
G37*
G36*
X159875200Y-108973100D02*
X157775200Y-108973100D01*
X157775200Y-108273100D01*
X159875200Y-108273100D01*
X159875200Y-108973100D01*
X159875200Y-108973100D01*
G37*
G36*
X169275200Y-108973100D02*
X167175200Y-108973100D01*
X167175200Y-108273100D01*
X169275200Y-108273100D01*
X169275200Y-108973100D01*
X169275200Y-108973100D01*
G37*
G36*
X154040500Y-108679000D02*
X153655500Y-108679000D01*
X153655500Y-106579000D01*
X154040500Y-106579000D01*
X154040500Y-108679000D01*
X154040500Y-108679000D01*
G37*
G36*
X154540500Y-108679000D02*
X154155500Y-108679000D01*
X154155500Y-106579000D01*
X154540500Y-106579000D01*
X154540500Y-108679000D01*
X154540500Y-108679000D01*
G37*
G36*
X145040500Y-108679000D02*
X144655500Y-108679000D01*
X144655500Y-106579000D01*
X145040500Y-106579000D01*
X145040500Y-108679000D01*
X145040500Y-108679000D01*
G37*
G36*
X156040500Y-108679000D02*
X155655500Y-108679000D01*
X155655500Y-106579000D01*
X156040500Y-106579000D01*
X156040500Y-108679000D01*
X156040500Y-108679000D01*
G37*
G36*
X155040500Y-108679000D02*
X154655500Y-108679000D01*
X154655500Y-106579000D01*
X155040500Y-106579000D01*
X155040500Y-108679000D01*
X155040500Y-108679000D01*
G37*
G36*
X147540500Y-108679000D02*
X147155500Y-108679000D01*
X147155500Y-106579000D01*
X147540500Y-106579000D01*
X147540500Y-108679000D01*
X147540500Y-108679000D01*
G37*
G36*
X143040500Y-108679000D02*
X142655500Y-108679000D01*
X142655500Y-106579000D01*
X143040500Y-106579000D01*
X143040500Y-108679000D01*
X143040500Y-108679000D01*
G37*
G36*
X146540500Y-108679000D02*
X146155500Y-108679000D01*
X146155500Y-106579000D01*
X146540500Y-106579000D01*
X146540500Y-108679000D01*
X146540500Y-108679000D01*
G37*
G36*
X146040500Y-108679000D02*
X145655500Y-108679000D01*
X145655500Y-106579000D01*
X146040500Y-106579000D01*
X146040500Y-108679000D01*
X146040500Y-108679000D01*
G37*
G36*
X142540500Y-108679000D02*
X142155500Y-108679000D01*
X142155500Y-106579000D01*
X142540500Y-106579000D01*
X142540500Y-108679000D01*
X142540500Y-108679000D01*
G37*
G36*
X143540500Y-108679000D02*
X143155500Y-108679000D01*
X143155500Y-106579000D01*
X143540500Y-106579000D01*
X143540500Y-108679000D01*
X143540500Y-108679000D01*
G37*
G36*
X144040500Y-108679000D02*
X143655500Y-108679000D01*
X143655500Y-106579000D01*
X144040500Y-106579000D01*
X144040500Y-108679000D01*
X144040500Y-108679000D01*
G37*
G36*
X144540500Y-108679000D02*
X144155500Y-108679000D01*
X144155500Y-106579000D01*
X144540500Y-106579000D01*
X144540500Y-108679000D01*
X144540500Y-108679000D01*
G37*
G36*
X145540500Y-108679000D02*
X145155500Y-108679000D01*
X145155500Y-106579000D01*
X145540500Y-106579000D01*
X145540500Y-108679000D01*
X145540500Y-108679000D01*
G37*
G36*
X153040500Y-108679000D02*
X152655500Y-108679000D01*
X152655500Y-106579000D01*
X153040500Y-106579000D01*
X153040500Y-108679000D01*
X153040500Y-108679000D01*
G37*
G36*
X152540500Y-108679000D02*
X152155500Y-108679000D01*
X152155500Y-106579000D01*
X152540500Y-106579000D01*
X152540500Y-108679000D01*
X152540500Y-108679000D01*
G37*
G36*
X152040500Y-108679000D02*
X151655500Y-108679000D01*
X151655500Y-106579000D01*
X152040500Y-106579000D01*
X152040500Y-108679000D01*
X152040500Y-108679000D01*
G37*
G36*
X151540500Y-108679000D02*
X151155500Y-108679000D01*
X151155500Y-106579000D01*
X151540500Y-106579000D01*
X151540500Y-108679000D01*
X151540500Y-108679000D01*
G37*
G36*
X155540500Y-108679000D02*
X155155500Y-108679000D01*
X155155500Y-106579000D01*
X155540500Y-106579000D01*
X155540500Y-108679000D01*
X155540500Y-108679000D01*
G37*
G36*
X148040500Y-108679000D02*
X147655500Y-108679000D01*
X147655500Y-106579000D01*
X148040500Y-106579000D01*
X148040500Y-108679000D01*
X148040500Y-108679000D01*
G37*
G36*
X148540500Y-108679000D02*
X148155500Y-108679000D01*
X148155500Y-106579000D01*
X148540500Y-106579000D01*
X148540500Y-108679000D01*
X148540500Y-108679000D01*
G37*
G36*
X149040500Y-108679000D02*
X148655500Y-108679000D01*
X148655500Y-106579000D01*
X149040500Y-106579000D01*
X149040500Y-108679000D01*
X149040500Y-108679000D01*
G37*
G36*
X149540500Y-108679000D02*
X149155500Y-108679000D01*
X149155500Y-106579000D01*
X149540500Y-106579000D01*
X149540500Y-108679000D01*
X149540500Y-108679000D01*
G37*
G36*
X150040500Y-108679000D02*
X149655500Y-108679000D01*
X149655500Y-106579000D01*
X150040500Y-106579000D01*
X150040500Y-108679000D01*
X150040500Y-108679000D01*
G37*
G36*
X151040500Y-108679000D02*
X150655500Y-108679000D01*
X150655500Y-106579000D01*
X151040500Y-106579000D01*
X151040500Y-108679000D01*
X151040500Y-108679000D01*
G37*
G36*
X147040500Y-108679000D02*
X146655500Y-108679000D01*
X146655500Y-106579000D01*
X147040500Y-106579000D01*
X147040500Y-108679000D01*
X147040500Y-108679000D01*
G37*
G36*
X150540500Y-108679000D02*
X150155500Y-108679000D01*
X150155500Y-106579000D01*
X150540500Y-106579000D01*
X150540500Y-108679000D01*
X150540500Y-108679000D01*
G37*
G36*
X153540500Y-108679000D02*
X153155500Y-108679000D01*
X153155500Y-106579000D01*
X153540500Y-106579000D01*
X153540500Y-108679000D01*
X153540500Y-108679000D01*
G37*
G36*
X159875200Y-107703100D02*
X157775200Y-107703100D01*
X157775200Y-107003100D01*
X159875200Y-107003100D01*
X159875200Y-107703100D01*
X159875200Y-107703100D01*
G37*
G36*
X169275200Y-107703100D02*
X167175200Y-107703100D01*
X167175200Y-107003100D01*
X169275200Y-107003100D01*
X169275200Y-107703100D01*
X169275200Y-107703100D01*
G37*
G36*
X179589596Y-105702950D02*
X179595177Y-105702989D01*
X179772369Y-105722864D01*
X179942326Y-105776778D01*
X180098575Y-105862676D01*
X180235163Y-105977288D01*
X180346889Y-106116246D01*
X180429496Y-106274259D01*
X180479839Y-106445308D01*
X180479843Y-106445347D01*
X180479845Y-106445355D01*
X180496001Y-106622876D01*
X180477368Y-106800155D01*
X180477365Y-106800164D01*
X180477361Y-106800205D01*
X180424635Y-106970534D01*
X180339830Y-107127379D01*
X180226175Y-107264764D01*
X180088000Y-107377457D01*
X179930567Y-107461165D01*
X179759874Y-107512701D01*
X179582421Y-107530100D01*
X179573544Y-107530100D01*
X179566404Y-107530050D01*
X179560823Y-107530011D01*
X179383631Y-107510136D01*
X179213674Y-107456222D01*
X179057425Y-107370324D01*
X178920837Y-107255712D01*
X178809111Y-107116754D01*
X178726504Y-106958741D01*
X178676161Y-106787692D01*
X178676157Y-106787653D01*
X178676155Y-106787645D01*
X178659999Y-106610124D01*
X178678632Y-106432845D01*
X178678635Y-106432836D01*
X178678639Y-106432795D01*
X178731365Y-106262466D01*
X178816170Y-106105621D01*
X178929825Y-105968236D01*
X179068000Y-105855543D01*
X179225433Y-105771835D01*
X179396126Y-105720299D01*
X179573579Y-105702900D01*
X179582456Y-105702900D01*
X179589596Y-105702950D01*
X179589596Y-105702950D01*
G37*
G36*
X177049596Y-105702950D02*
X177055177Y-105702989D01*
X177232369Y-105722864D01*
X177402326Y-105776778D01*
X177558575Y-105862676D01*
X177695163Y-105977288D01*
X177806889Y-106116246D01*
X177889496Y-106274259D01*
X177939839Y-106445308D01*
X177939843Y-106445347D01*
X177939845Y-106445355D01*
X177956001Y-106622876D01*
X177937368Y-106800155D01*
X177937365Y-106800164D01*
X177937361Y-106800205D01*
X177884635Y-106970534D01*
X177799830Y-107127379D01*
X177686175Y-107264764D01*
X177548000Y-107377457D01*
X177390567Y-107461165D01*
X177219874Y-107512701D01*
X177042421Y-107530100D01*
X177033544Y-107530100D01*
X177026404Y-107530050D01*
X177020823Y-107530011D01*
X176843631Y-107510136D01*
X176673674Y-107456222D01*
X176517425Y-107370324D01*
X176380837Y-107255712D01*
X176269111Y-107116754D01*
X176186504Y-106958741D01*
X176136161Y-106787692D01*
X176136157Y-106787653D01*
X176136155Y-106787645D01*
X176119999Y-106610124D01*
X176138632Y-106432845D01*
X176138635Y-106432836D01*
X176138639Y-106432795D01*
X176191365Y-106262466D01*
X176276170Y-106105621D01*
X176389825Y-105968236D01*
X176528000Y-105855543D01*
X176685433Y-105771835D01*
X176856126Y-105720299D01*
X177033579Y-105702900D01*
X177042456Y-105702900D01*
X177049596Y-105702950D01*
X177049596Y-105702950D01*
G37*
G36*
X184669596Y-105702950D02*
X184675177Y-105702989D01*
X184852369Y-105722864D01*
X185022326Y-105776778D01*
X185178575Y-105862676D01*
X185315163Y-105977288D01*
X185426889Y-106116246D01*
X185509496Y-106274259D01*
X185559839Y-106445308D01*
X185559843Y-106445347D01*
X185559845Y-106445355D01*
X185576001Y-106622876D01*
X185557368Y-106800155D01*
X185557365Y-106800164D01*
X185557361Y-106800205D01*
X185504635Y-106970534D01*
X185419830Y-107127379D01*
X185306175Y-107264764D01*
X185168000Y-107377457D01*
X185010567Y-107461165D01*
X184839874Y-107512701D01*
X184662421Y-107530100D01*
X184653544Y-107530100D01*
X184646404Y-107530050D01*
X184640823Y-107530011D01*
X184463631Y-107510136D01*
X184293674Y-107456222D01*
X184137425Y-107370324D01*
X184000837Y-107255712D01*
X183889111Y-107116754D01*
X183806504Y-106958741D01*
X183756161Y-106787692D01*
X183756157Y-106787653D01*
X183756155Y-106787645D01*
X183739999Y-106610124D01*
X183758632Y-106432845D01*
X183758635Y-106432836D01*
X183758639Y-106432795D01*
X183811365Y-106262466D01*
X183896170Y-106105621D01*
X184009825Y-105968236D01*
X184148000Y-105855543D01*
X184305433Y-105771835D01*
X184476126Y-105720299D01*
X184653579Y-105702900D01*
X184662456Y-105702900D01*
X184669596Y-105702950D01*
X184669596Y-105702950D01*
G37*
G36*
X182129596Y-105702950D02*
X182135177Y-105702989D01*
X182312369Y-105722864D01*
X182482326Y-105776778D01*
X182638575Y-105862676D01*
X182775163Y-105977288D01*
X182886889Y-106116246D01*
X182969496Y-106274259D01*
X183019839Y-106445308D01*
X183019843Y-106445347D01*
X183019845Y-106445355D01*
X183036001Y-106622876D01*
X183017368Y-106800155D01*
X183017365Y-106800164D01*
X183017361Y-106800205D01*
X182964635Y-106970534D01*
X182879830Y-107127379D01*
X182766175Y-107264764D01*
X182628000Y-107377457D01*
X182470567Y-107461165D01*
X182299874Y-107512701D01*
X182122421Y-107530100D01*
X182113544Y-107530100D01*
X182106404Y-107530050D01*
X182100823Y-107530011D01*
X181923631Y-107510136D01*
X181753674Y-107456222D01*
X181597425Y-107370324D01*
X181460837Y-107255712D01*
X181349111Y-107116754D01*
X181266504Y-106958741D01*
X181216161Y-106787692D01*
X181216157Y-106787653D01*
X181216155Y-106787645D01*
X181199999Y-106610124D01*
X181218632Y-106432845D01*
X181218635Y-106432836D01*
X181218639Y-106432795D01*
X181271365Y-106262466D01*
X181356170Y-106105621D01*
X181469825Y-105968236D01*
X181608000Y-105855543D01*
X181765433Y-105771835D01*
X181936126Y-105720299D01*
X182113579Y-105702900D01*
X182122456Y-105702900D01*
X182129596Y-105702950D01*
X182129596Y-105702950D01*
G37*
G36*
X188111600Y-107530100D02*
X186284400Y-107530100D01*
X186284400Y-105702900D01*
X188111600Y-105702900D01*
X188111600Y-107530100D01*
X188111600Y-107530100D01*
G37*
G36*
X123473972Y-105331541D02*
X123477156Y-105331563D01*
X123603224Y-105345704D01*
X123724143Y-105384062D01*
X123835310Y-105445176D01*
X123932488Y-105526719D01*
X124011978Y-105625584D01*
X124070751Y-105738006D01*
X124106568Y-105859702D01*
X124106572Y-105859741D01*
X124106574Y-105859749D01*
X124118067Y-105986036D01*
X124104812Y-106112151D01*
X124104809Y-106112160D01*
X124104805Y-106112201D01*
X124067292Y-106233385D01*
X124006955Y-106344975D01*
X123926093Y-106442721D01*
X123827786Y-106522899D01*
X123715777Y-106582455D01*
X123594333Y-106619121D01*
X123468081Y-106631500D01*
X122657882Y-106631500D01*
X122652028Y-106631459D01*
X122648844Y-106631437D01*
X122522776Y-106617296D01*
X122401857Y-106578938D01*
X122290690Y-106517824D01*
X122193512Y-106436281D01*
X122114022Y-106337416D01*
X122055249Y-106224994D01*
X122019432Y-106103298D01*
X122019428Y-106103259D01*
X122019426Y-106103251D01*
X122007933Y-105976964D01*
X122021188Y-105850849D01*
X122021191Y-105850840D01*
X122021195Y-105850799D01*
X122058708Y-105729615D01*
X122119045Y-105618025D01*
X122199907Y-105520279D01*
X122298214Y-105440101D01*
X122410223Y-105380545D01*
X122531667Y-105343879D01*
X122657919Y-105331500D01*
X123468118Y-105331500D01*
X123473972Y-105331541D01*
X123473972Y-105331541D01*
G37*
G36*
X126063972Y-105331541D02*
X126067156Y-105331563D01*
X126193224Y-105345704D01*
X126314143Y-105384062D01*
X126425310Y-105445176D01*
X126522488Y-105526719D01*
X126601978Y-105625584D01*
X126660751Y-105738006D01*
X126696568Y-105859702D01*
X126696572Y-105859741D01*
X126696574Y-105859749D01*
X126708067Y-105986036D01*
X126694812Y-106112151D01*
X126694809Y-106112160D01*
X126694805Y-106112201D01*
X126657292Y-106233385D01*
X126596955Y-106344975D01*
X126516093Y-106442721D01*
X126417786Y-106522899D01*
X126305777Y-106582455D01*
X126184333Y-106619121D01*
X126058081Y-106631500D01*
X125247882Y-106631500D01*
X125242028Y-106631459D01*
X125238844Y-106631437D01*
X125112776Y-106617296D01*
X124991857Y-106578938D01*
X124880690Y-106517824D01*
X124783512Y-106436281D01*
X124704022Y-106337416D01*
X124645249Y-106224994D01*
X124609432Y-106103298D01*
X124609428Y-106103259D01*
X124609426Y-106103251D01*
X124597933Y-105976964D01*
X124611188Y-105850849D01*
X124611191Y-105850840D01*
X124611195Y-105850799D01*
X124648708Y-105729615D01*
X124709045Y-105618025D01*
X124789907Y-105520279D01*
X124888214Y-105440101D01*
X125000223Y-105380545D01*
X125121667Y-105343879D01*
X125247919Y-105331500D01*
X126058118Y-105331500D01*
X126063972Y-105331541D01*
X126063972Y-105331541D01*
G37*
G36*
X95483972Y-105331541D02*
X95487156Y-105331563D01*
X95613224Y-105345704D01*
X95734143Y-105384062D01*
X95845310Y-105445176D01*
X95942488Y-105526719D01*
X96021978Y-105625584D01*
X96080751Y-105738006D01*
X96116568Y-105859702D01*
X96116572Y-105859741D01*
X96116574Y-105859749D01*
X96128067Y-105986036D01*
X96114812Y-106112151D01*
X96114809Y-106112160D01*
X96114805Y-106112201D01*
X96077292Y-106233385D01*
X96016955Y-106344975D01*
X95936093Y-106442721D01*
X95837786Y-106522899D01*
X95725777Y-106582455D01*
X95604333Y-106619121D01*
X95478081Y-106631500D01*
X94667882Y-106631500D01*
X94662028Y-106631459D01*
X94658844Y-106631437D01*
X94532776Y-106617296D01*
X94411857Y-106578938D01*
X94300690Y-106517824D01*
X94203512Y-106436281D01*
X94124022Y-106337416D01*
X94065249Y-106224994D01*
X94029432Y-106103298D01*
X94029428Y-106103259D01*
X94029426Y-106103251D01*
X94017933Y-105976964D01*
X94031188Y-105850849D01*
X94031191Y-105850840D01*
X94031195Y-105850799D01*
X94068708Y-105729615D01*
X94129045Y-105618025D01*
X94209907Y-105520279D01*
X94308214Y-105440101D01*
X94420223Y-105380545D01*
X94541667Y-105343879D01*
X94667919Y-105331500D01*
X95478118Y-105331500D01*
X95483972Y-105331541D01*
X95483972Y-105331541D01*
G37*
G36*
X98023972Y-105331541D02*
X98027156Y-105331563D01*
X98153224Y-105345704D01*
X98274143Y-105384062D01*
X98385310Y-105445176D01*
X98482488Y-105526719D01*
X98561978Y-105625584D01*
X98620751Y-105738006D01*
X98656568Y-105859702D01*
X98656572Y-105859741D01*
X98656574Y-105859749D01*
X98668067Y-105986036D01*
X98654812Y-106112151D01*
X98654809Y-106112160D01*
X98654805Y-106112201D01*
X98617292Y-106233385D01*
X98556955Y-106344975D01*
X98476093Y-106442721D01*
X98377786Y-106522899D01*
X98265777Y-106582455D01*
X98144333Y-106619121D01*
X98018081Y-106631500D01*
X97207882Y-106631500D01*
X97202028Y-106631459D01*
X97198844Y-106631437D01*
X97072776Y-106617296D01*
X96951857Y-106578938D01*
X96840690Y-106517824D01*
X96743512Y-106436281D01*
X96664022Y-106337416D01*
X96605249Y-106224994D01*
X96569432Y-106103298D01*
X96569428Y-106103259D01*
X96569426Y-106103251D01*
X96557933Y-105976964D01*
X96571188Y-105850849D01*
X96571191Y-105850840D01*
X96571195Y-105850799D01*
X96608708Y-105729615D01*
X96669045Y-105618025D01*
X96749907Y-105520279D01*
X96848214Y-105440101D01*
X96960223Y-105380545D01*
X97081667Y-105343879D01*
X97207919Y-105331500D01*
X98018118Y-105331500D01*
X98023972Y-105331541D01*
X98023972Y-105331541D01*
G37*
G36*
X159875200Y-106433100D02*
X157775200Y-106433100D01*
X157775200Y-105733100D01*
X159875200Y-105733100D01*
X159875200Y-106433100D01*
X159875200Y-106433100D01*
G37*
G36*
X169275200Y-106433100D02*
X167175200Y-106433100D01*
X167175200Y-105733100D01*
X169275200Y-105733100D01*
X169275200Y-106433100D01*
X169275200Y-106433100D01*
G37*
G36*
X134083319Y-103292410D02*
X134083333Y-103292414D01*
X134083368Y-103292418D01*
X134233450Y-103338876D01*
X134371650Y-103413601D01*
X134492704Y-103513745D01*
X134592002Y-103635496D01*
X134665760Y-103774214D01*
X134711169Y-103924617D01*
X134726500Y-104080976D01*
X134726500Y-105596024D01*
X134726422Y-105607264D01*
X134708909Y-105763393D01*
X134661404Y-105913147D01*
X134585716Y-106050822D01*
X134484729Y-106171175D01*
X134362288Y-106269619D01*
X134223058Y-106342407D01*
X134072342Y-106386765D01*
X134072312Y-106386768D01*
X134072294Y-106386773D01*
X133915882Y-106401007D01*
X133759681Y-106384590D01*
X133759667Y-106384586D01*
X133759632Y-106384582D01*
X133609550Y-106338124D01*
X133471350Y-106263399D01*
X133350296Y-106163255D01*
X133250998Y-106041504D01*
X133177240Y-105902786D01*
X133131831Y-105752383D01*
X133116500Y-105596024D01*
X133116500Y-104080976D01*
X133116526Y-104077296D01*
X133116564Y-104071760D01*
X133116578Y-104069736D01*
X133134091Y-103913607D01*
X133181596Y-103763853D01*
X133257284Y-103626178D01*
X133358271Y-103505825D01*
X133480712Y-103407381D01*
X133619942Y-103334593D01*
X133770658Y-103290235D01*
X133770688Y-103290232D01*
X133770706Y-103290227D01*
X133927118Y-103275993D01*
X134083319Y-103292410D01*
X134083319Y-103292410D01*
G37*
G36*
X139163319Y-103292410D02*
X139163333Y-103292414D01*
X139163368Y-103292418D01*
X139313450Y-103338876D01*
X139451650Y-103413601D01*
X139572704Y-103513745D01*
X139672002Y-103635496D01*
X139745760Y-103774214D01*
X139791169Y-103924617D01*
X139806500Y-104080976D01*
X139806500Y-105596024D01*
X139806422Y-105607264D01*
X139788909Y-105763393D01*
X139741404Y-105913147D01*
X139665716Y-106050822D01*
X139564729Y-106171175D01*
X139442288Y-106269619D01*
X139303058Y-106342407D01*
X139152342Y-106386765D01*
X139152312Y-106386768D01*
X139152294Y-106386773D01*
X138995882Y-106401007D01*
X138839681Y-106384590D01*
X138839667Y-106384586D01*
X138839632Y-106384582D01*
X138689550Y-106338124D01*
X138551350Y-106263399D01*
X138430296Y-106163255D01*
X138330998Y-106041504D01*
X138257240Y-105902786D01*
X138211831Y-105752383D01*
X138196500Y-105596024D01*
X138196500Y-104080976D01*
X138196526Y-104077296D01*
X138196564Y-104071760D01*
X138196578Y-104069736D01*
X138214091Y-103913607D01*
X138261596Y-103763853D01*
X138337284Y-103626178D01*
X138438271Y-103505825D01*
X138560712Y-103407381D01*
X138699942Y-103334593D01*
X138850658Y-103290235D01*
X138850688Y-103290232D01*
X138850706Y-103290227D01*
X139007118Y-103275993D01*
X139163319Y-103292410D01*
X139163319Y-103292410D01*
G37*
G36*
X136623319Y-103292410D02*
X136623333Y-103292414D01*
X136623368Y-103292418D01*
X136773450Y-103338876D01*
X136911650Y-103413601D01*
X137032704Y-103513745D01*
X137132002Y-103635496D01*
X137205760Y-103774214D01*
X137251169Y-103924617D01*
X137266500Y-104080976D01*
X137266500Y-105596024D01*
X137266422Y-105607264D01*
X137248909Y-105763393D01*
X137201404Y-105913147D01*
X137125716Y-106050822D01*
X137024729Y-106171175D01*
X136902288Y-106269619D01*
X136763058Y-106342407D01*
X136612342Y-106386765D01*
X136612312Y-106386768D01*
X136612294Y-106386773D01*
X136455882Y-106401007D01*
X136299681Y-106384590D01*
X136299667Y-106384586D01*
X136299632Y-106384582D01*
X136149550Y-106338124D01*
X136011350Y-106263399D01*
X135890296Y-106163255D01*
X135790998Y-106041504D01*
X135717240Y-105902786D01*
X135671831Y-105752383D01*
X135656500Y-105596024D01*
X135656500Y-104080976D01*
X135656526Y-104077296D01*
X135656564Y-104071760D01*
X135656578Y-104069736D01*
X135674091Y-103913607D01*
X135721596Y-103763853D01*
X135797284Y-103626178D01*
X135898271Y-103505825D01*
X136020712Y-103407381D01*
X136159942Y-103334593D01*
X136310658Y-103290235D01*
X136310688Y-103290232D01*
X136310706Y-103290227D01*
X136467118Y-103275993D01*
X136623319Y-103292410D01*
X136623319Y-103292410D01*
G37*
G36*
X159875200Y-105163100D02*
X157775200Y-105163100D01*
X157775200Y-104463100D01*
X159875200Y-104463100D01*
X159875200Y-105163100D01*
X159875200Y-105163100D01*
G37*
G36*
X169275200Y-105163100D02*
X167175200Y-105163100D01*
X167175200Y-104463100D01*
X169275200Y-104463100D01*
X169275200Y-105163100D01*
X169275200Y-105163100D01*
G37*
G36*
X126063972Y-102791541D02*
X126067156Y-102791563D01*
X126193224Y-102805704D01*
X126314143Y-102844062D01*
X126425310Y-102905176D01*
X126522488Y-102986719D01*
X126601978Y-103085584D01*
X126660751Y-103198006D01*
X126696568Y-103319702D01*
X126696572Y-103319741D01*
X126696574Y-103319749D01*
X126708067Y-103446036D01*
X126694812Y-103572151D01*
X126694809Y-103572160D01*
X126694805Y-103572201D01*
X126657292Y-103693385D01*
X126596955Y-103804975D01*
X126516093Y-103902721D01*
X126417786Y-103982899D01*
X126305777Y-104042455D01*
X126184333Y-104079121D01*
X126058081Y-104091500D01*
X125247882Y-104091500D01*
X125242028Y-104091459D01*
X125238844Y-104091437D01*
X125112776Y-104077296D01*
X124991857Y-104038938D01*
X124880690Y-103977824D01*
X124783512Y-103896281D01*
X124704022Y-103797416D01*
X124645249Y-103684994D01*
X124609432Y-103563298D01*
X124609428Y-103563259D01*
X124609426Y-103563251D01*
X124597933Y-103436964D01*
X124611188Y-103310849D01*
X124611191Y-103310840D01*
X124611195Y-103310799D01*
X124648708Y-103189615D01*
X124709045Y-103078025D01*
X124789907Y-102980279D01*
X124888214Y-102900101D01*
X125000223Y-102840545D01*
X125121667Y-102803879D01*
X125247919Y-102791500D01*
X126058118Y-102791500D01*
X126063972Y-102791541D01*
X126063972Y-102791541D01*
G37*
G36*
X123473972Y-102791541D02*
X123477156Y-102791563D01*
X123603224Y-102805704D01*
X123724143Y-102844062D01*
X123835310Y-102905176D01*
X123932488Y-102986719D01*
X124011978Y-103085584D01*
X124070751Y-103198006D01*
X124106568Y-103319702D01*
X124106572Y-103319741D01*
X124106574Y-103319749D01*
X124118067Y-103446036D01*
X124104812Y-103572151D01*
X124104809Y-103572160D01*
X124104805Y-103572201D01*
X124067292Y-103693385D01*
X124006955Y-103804975D01*
X123926093Y-103902721D01*
X123827786Y-103982899D01*
X123715777Y-104042455D01*
X123594333Y-104079121D01*
X123468081Y-104091500D01*
X122657882Y-104091500D01*
X122652028Y-104091459D01*
X122648844Y-104091437D01*
X122522776Y-104077296D01*
X122401857Y-104038938D01*
X122290690Y-103977824D01*
X122193512Y-103896281D01*
X122114022Y-103797416D01*
X122055249Y-103684994D01*
X122019432Y-103563298D01*
X122019428Y-103563259D01*
X122019426Y-103563251D01*
X122007933Y-103436964D01*
X122021188Y-103310849D01*
X122021191Y-103310840D01*
X122021195Y-103310799D01*
X122058708Y-103189615D01*
X122119045Y-103078025D01*
X122199907Y-102980279D01*
X122298214Y-102900101D01*
X122410223Y-102840545D01*
X122531667Y-102803879D01*
X122657919Y-102791500D01*
X123468118Y-102791500D01*
X123473972Y-102791541D01*
X123473972Y-102791541D01*
G37*
G36*
X95483972Y-102791541D02*
X95487156Y-102791563D01*
X95613224Y-102805704D01*
X95734143Y-102844062D01*
X95845310Y-102905176D01*
X95942488Y-102986719D01*
X96021978Y-103085584D01*
X96080751Y-103198006D01*
X96116568Y-103319702D01*
X96116572Y-103319741D01*
X96116574Y-103319749D01*
X96128067Y-103446036D01*
X96114812Y-103572151D01*
X96114809Y-103572160D01*
X96114805Y-103572201D01*
X96077292Y-103693385D01*
X96016955Y-103804975D01*
X95936093Y-103902721D01*
X95837786Y-103982899D01*
X95725777Y-104042455D01*
X95604333Y-104079121D01*
X95478081Y-104091500D01*
X94667882Y-104091500D01*
X94662028Y-104091459D01*
X94658844Y-104091437D01*
X94532776Y-104077296D01*
X94411857Y-104038938D01*
X94300690Y-103977824D01*
X94203512Y-103896281D01*
X94124022Y-103797416D01*
X94065249Y-103684994D01*
X94029432Y-103563298D01*
X94029428Y-103563259D01*
X94029426Y-103563251D01*
X94017933Y-103436964D01*
X94031188Y-103310849D01*
X94031191Y-103310840D01*
X94031195Y-103310799D01*
X94068708Y-103189615D01*
X94129045Y-103078025D01*
X94209907Y-102980279D01*
X94308214Y-102900101D01*
X94420223Y-102840545D01*
X94541667Y-102803879D01*
X94667919Y-102791500D01*
X95478118Y-102791500D01*
X95483972Y-102791541D01*
X95483972Y-102791541D01*
G37*
G36*
X98023972Y-102791541D02*
X98027156Y-102791563D01*
X98153224Y-102805704D01*
X98274143Y-102844062D01*
X98385310Y-102905176D01*
X98482488Y-102986719D01*
X98561978Y-103085584D01*
X98620751Y-103198006D01*
X98656568Y-103319702D01*
X98656572Y-103319741D01*
X98656574Y-103319749D01*
X98668067Y-103446036D01*
X98654812Y-103572151D01*
X98654809Y-103572160D01*
X98654805Y-103572201D01*
X98617292Y-103693385D01*
X98556955Y-103804975D01*
X98476093Y-103902721D01*
X98377786Y-103982899D01*
X98265777Y-104042455D01*
X98144333Y-104079121D01*
X98018081Y-104091500D01*
X97207882Y-104091500D01*
X97202028Y-104091459D01*
X97198844Y-104091437D01*
X97072776Y-104077296D01*
X96951857Y-104038938D01*
X96840690Y-103977824D01*
X96743512Y-103896281D01*
X96664022Y-103797416D01*
X96605249Y-103684994D01*
X96569432Y-103563298D01*
X96569428Y-103563259D01*
X96569426Y-103563251D01*
X96557933Y-103436964D01*
X96571188Y-103310849D01*
X96571191Y-103310840D01*
X96571195Y-103310799D01*
X96608708Y-103189615D01*
X96669045Y-103078025D01*
X96749907Y-102980279D01*
X96848214Y-102900101D01*
X96960223Y-102840545D01*
X97081667Y-102803879D01*
X97207919Y-102791500D01*
X98018118Y-102791500D01*
X98023972Y-102791541D01*
X98023972Y-102791541D01*
G37*
G36*
X169275200Y-103893100D02*
X167175200Y-103893100D01*
X167175200Y-103193100D01*
X169275200Y-103193100D01*
X169275200Y-103893100D01*
X169275200Y-103893100D01*
G37*
G36*
X159875200Y-103893100D02*
X157775200Y-103893100D01*
X157775200Y-103193100D01*
X159875200Y-103193100D01*
X159875200Y-103893100D01*
X159875200Y-103893100D01*
G37*
G36*
X126063972Y-100251541D02*
X126067156Y-100251563D01*
X126193224Y-100265704D01*
X126314143Y-100304062D01*
X126425310Y-100365176D01*
X126522488Y-100446719D01*
X126601978Y-100545584D01*
X126660751Y-100658006D01*
X126696568Y-100779702D01*
X126696572Y-100779741D01*
X126696574Y-100779749D01*
X126708067Y-100906036D01*
X126694812Y-101032151D01*
X126694809Y-101032160D01*
X126694805Y-101032201D01*
X126657292Y-101153385D01*
X126596955Y-101264975D01*
X126516093Y-101362721D01*
X126417786Y-101442899D01*
X126305777Y-101502455D01*
X126184333Y-101539121D01*
X126058081Y-101551500D01*
X125247882Y-101551500D01*
X125242028Y-101551459D01*
X125238844Y-101551437D01*
X125112776Y-101537296D01*
X124991857Y-101498938D01*
X124880690Y-101437824D01*
X124783512Y-101356281D01*
X124704022Y-101257416D01*
X124645249Y-101144994D01*
X124609432Y-101023298D01*
X124609428Y-101023259D01*
X124609426Y-101023251D01*
X124597933Y-100896964D01*
X124611188Y-100770849D01*
X124611191Y-100770840D01*
X124611195Y-100770799D01*
X124648708Y-100649615D01*
X124709045Y-100538025D01*
X124789907Y-100440279D01*
X124888214Y-100360101D01*
X125000223Y-100300545D01*
X125121667Y-100263879D01*
X125247919Y-100251500D01*
X126058118Y-100251500D01*
X126063972Y-100251541D01*
X126063972Y-100251541D01*
G37*
G36*
X123473972Y-100251541D02*
X123477156Y-100251563D01*
X123603224Y-100265704D01*
X123724143Y-100304062D01*
X123835310Y-100365176D01*
X123932488Y-100446719D01*
X124011978Y-100545584D01*
X124070751Y-100658006D01*
X124106568Y-100779702D01*
X124106572Y-100779741D01*
X124106574Y-100779749D01*
X124118067Y-100906036D01*
X124104812Y-101032151D01*
X124104809Y-101032160D01*
X124104805Y-101032201D01*
X124067292Y-101153385D01*
X124006955Y-101264975D01*
X123926093Y-101362721D01*
X123827786Y-101442899D01*
X123715777Y-101502455D01*
X123594333Y-101539121D01*
X123468081Y-101551500D01*
X122657882Y-101551500D01*
X122652028Y-101551459D01*
X122648844Y-101551437D01*
X122522776Y-101537296D01*
X122401857Y-101498938D01*
X122290690Y-101437824D01*
X122193512Y-101356281D01*
X122114022Y-101257416D01*
X122055249Y-101144994D01*
X122019432Y-101023298D01*
X122019428Y-101023259D01*
X122019426Y-101023251D01*
X122007933Y-100896964D01*
X122021188Y-100770849D01*
X122021191Y-100770840D01*
X122021195Y-100770799D01*
X122058708Y-100649615D01*
X122119045Y-100538025D01*
X122199907Y-100440279D01*
X122298214Y-100360101D01*
X122410223Y-100300545D01*
X122531667Y-100263879D01*
X122657919Y-100251500D01*
X123468118Y-100251500D01*
X123473972Y-100251541D01*
X123473972Y-100251541D01*
G37*
G36*
X98023972Y-100251541D02*
X98027156Y-100251563D01*
X98153224Y-100265704D01*
X98274143Y-100304062D01*
X98385310Y-100365176D01*
X98482488Y-100446719D01*
X98561978Y-100545584D01*
X98620751Y-100658006D01*
X98656568Y-100779702D01*
X98656572Y-100779741D01*
X98656574Y-100779749D01*
X98668067Y-100906036D01*
X98654812Y-101032151D01*
X98654809Y-101032160D01*
X98654805Y-101032201D01*
X98617292Y-101153385D01*
X98556955Y-101264975D01*
X98476093Y-101362721D01*
X98377786Y-101442899D01*
X98265777Y-101502455D01*
X98144333Y-101539121D01*
X98018081Y-101551500D01*
X97207882Y-101551500D01*
X97202028Y-101551459D01*
X97198844Y-101551437D01*
X97072776Y-101537296D01*
X96951857Y-101498938D01*
X96840690Y-101437824D01*
X96743512Y-101356281D01*
X96664022Y-101257416D01*
X96605249Y-101144994D01*
X96569432Y-101023298D01*
X96569428Y-101023259D01*
X96569426Y-101023251D01*
X96557933Y-100896964D01*
X96571188Y-100770849D01*
X96571191Y-100770840D01*
X96571195Y-100770799D01*
X96608708Y-100649615D01*
X96669045Y-100538025D01*
X96749907Y-100440279D01*
X96848214Y-100360101D01*
X96960223Y-100300545D01*
X97081667Y-100263879D01*
X97207919Y-100251500D01*
X98018118Y-100251500D01*
X98023972Y-100251541D01*
X98023972Y-100251541D01*
G37*
G36*
X95483972Y-100251541D02*
X95487156Y-100251563D01*
X95613224Y-100265704D01*
X95734143Y-100304062D01*
X95845310Y-100365176D01*
X95942488Y-100446719D01*
X96021978Y-100545584D01*
X96080751Y-100658006D01*
X96116568Y-100779702D01*
X96116572Y-100779741D01*
X96116574Y-100779749D01*
X96128067Y-100906036D01*
X96114812Y-101032151D01*
X96114809Y-101032160D01*
X96114805Y-101032201D01*
X96077292Y-101153385D01*
X96016955Y-101264975D01*
X95936093Y-101362721D01*
X95837786Y-101442899D01*
X95725777Y-101502455D01*
X95604333Y-101539121D01*
X95478081Y-101551500D01*
X94667882Y-101551500D01*
X94662028Y-101551459D01*
X94658844Y-101551437D01*
X94532776Y-101537296D01*
X94411857Y-101498938D01*
X94300690Y-101437824D01*
X94203512Y-101356281D01*
X94124022Y-101257416D01*
X94065249Y-101144994D01*
X94029432Y-101023298D01*
X94029428Y-101023259D01*
X94029426Y-101023251D01*
X94017933Y-100896964D01*
X94031188Y-100770849D01*
X94031191Y-100770840D01*
X94031195Y-100770799D01*
X94068708Y-100649615D01*
X94129045Y-100538025D01*
X94209907Y-100440279D01*
X94308214Y-100360101D01*
X94420223Y-100300545D01*
X94541667Y-100263879D01*
X94667919Y-100251500D01*
X95478118Y-100251500D01*
X95483972Y-100251541D01*
X95483972Y-100251541D01*
G37*
G36*
X169300600Y-99473500D02*
X167200600Y-99473500D01*
X167200600Y-98773500D01*
X169300600Y-98773500D01*
X169300600Y-99473500D01*
X169300600Y-99473500D01*
G37*
G36*
X159900600Y-99473500D02*
X157800600Y-99473500D01*
X157800600Y-98773500D01*
X159900600Y-98773500D01*
X159900600Y-99473500D01*
X159900600Y-99473500D01*
G37*
G36*
X123473972Y-97711541D02*
X123477156Y-97711563D01*
X123603224Y-97725704D01*
X123724143Y-97764062D01*
X123835310Y-97825176D01*
X123932488Y-97906719D01*
X124011978Y-98005584D01*
X124070751Y-98118006D01*
X124106568Y-98239702D01*
X124106572Y-98239741D01*
X124106574Y-98239749D01*
X124118067Y-98366036D01*
X124104812Y-98492151D01*
X124104809Y-98492160D01*
X124104805Y-98492201D01*
X124067292Y-98613385D01*
X124006955Y-98724975D01*
X123926093Y-98822721D01*
X123827786Y-98902899D01*
X123715777Y-98962455D01*
X123594333Y-98999121D01*
X123468081Y-99011500D01*
X122657882Y-99011500D01*
X122652028Y-99011459D01*
X122648844Y-99011437D01*
X122522776Y-98997296D01*
X122401857Y-98958938D01*
X122290690Y-98897824D01*
X122193512Y-98816281D01*
X122114022Y-98717416D01*
X122055249Y-98604994D01*
X122019432Y-98483298D01*
X122019428Y-98483259D01*
X122019426Y-98483251D01*
X122007933Y-98356964D01*
X122021188Y-98230849D01*
X122021191Y-98230840D01*
X122021195Y-98230799D01*
X122058708Y-98109615D01*
X122119045Y-97998025D01*
X122199907Y-97900279D01*
X122298214Y-97820101D01*
X122410223Y-97760545D01*
X122531667Y-97723879D01*
X122657919Y-97711500D01*
X123468118Y-97711500D01*
X123473972Y-97711541D01*
X123473972Y-97711541D01*
G37*
G36*
X126063972Y-97711541D02*
X126067156Y-97711563D01*
X126193224Y-97725704D01*
X126314143Y-97764062D01*
X126425310Y-97825176D01*
X126522488Y-97906719D01*
X126601978Y-98005584D01*
X126660751Y-98118006D01*
X126696568Y-98239702D01*
X126696572Y-98239741D01*
X126696574Y-98239749D01*
X126708067Y-98366036D01*
X126694812Y-98492151D01*
X126694809Y-98492160D01*
X126694805Y-98492201D01*
X126657292Y-98613385D01*
X126596955Y-98724975D01*
X126516093Y-98822721D01*
X126417786Y-98902899D01*
X126305777Y-98962455D01*
X126184333Y-98999121D01*
X126058081Y-99011500D01*
X125247882Y-99011500D01*
X125242028Y-99011459D01*
X125238844Y-99011437D01*
X125112776Y-98997296D01*
X124991857Y-98958938D01*
X124880690Y-98897824D01*
X124783512Y-98816281D01*
X124704022Y-98717416D01*
X124645249Y-98604994D01*
X124609432Y-98483298D01*
X124609428Y-98483259D01*
X124609426Y-98483251D01*
X124597933Y-98356964D01*
X124611188Y-98230849D01*
X124611191Y-98230840D01*
X124611195Y-98230799D01*
X124648708Y-98109615D01*
X124709045Y-97998025D01*
X124789907Y-97900279D01*
X124888214Y-97820101D01*
X125000223Y-97760545D01*
X125121667Y-97723879D01*
X125247919Y-97711500D01*
X126058118Y-97711500D01*
X126063972Y-97711541D01*
X126063972Y-97711541D01*
G37*
G36*
X95483972Y-97711541D02*
X95487156Y-97711563D01*
X95613224Y-97725704D01*
X95734143Y-97764062D01*
X95845310Y-97825176D01*
X95942488Y-97906719D01*
X96021978Y-98005584D01*
X96080751Y-98118006D01*
X96116568Y-98239702D01*
X96116572Y-98239741D01*
X96116574Y-98239749D01*
X96128067Y-98366036D01*
X96114812Y-98492151D01*
X96114809Y-98492160D01*
X96114805Y-98492201D01*
X96077292Y-98613385D01*
X96016955Y-98724975D01*
X95936093Y-98822721D01*
X95837786Y-98902899D01*
X95725777Y-98962455D01*
X95604333Y-98999121D01*
X95478081Y-99011500D01*
X94667882Y-99011500D01*
X94662028Y-99011459D01*
X94658844Y-99011437D01*
X94532776Y-98997296D01*
X94411857Y-98958938D01*
X94300690Y-98897824D01*
X94203512Y-98816281D01*
X94124022Y-98717416D01*
X94065249Y-98604994D01*
X94029432Y-98483298D01*
X94029428Y-98483259D01*
X94029426Y-98483251D01*
X94017933Y-98356964D01*
X94031188Y-98230849D01*
X94031191Y-98230840D01*
X94031195Y-98230799D01*
X94068708Y-98109615D01*
X94129045Y-97998025D01*
X94209907Y-97900279D01*
X94308214Y-97820101D01*
X94420223Y-97760545D01*
X94541667Y-97723879D01*
X94667919Y-97711500D01*
X95478118Y-97711500D01*
X95483972Y-97711541D01*
X95483972Y-97711541D01*
G37*
G36*
X98023972Y-97711541D02*
X98027156Y-97711563D01*
X98153224Y-97725704D01*
X98274143Y-97764062D01*
X98385310Y-97825176D01*
X98482488Y-97906719D01*
X98561978Y-98005584D01*
X98620751Y-98118006D01*
X98656568Y-98239702D01*
X98656572Y-98239741D01*
X98656574Y-98239749D01*
X98668067Y-98366036D01*
X98654812Y-98492151D01*
X98654809Y-98492160D01*
X98654805Y-98492201D01*
X98617292Y-98613385D01*
X98556955Y-98724975D01*
X98476093Y-98822721D01*
X98377786Y-98902899D01*
X98265777Y-98962455D01*
X98144333Y-98999121D01*
X98018081Y-99011500D01*
X97207882Y-99011500D01*
X97202028Y-99011459D01*
X97198844Y-99011437D01*
X97072776Y-98997296D01*
X96951857Y-98958938D01*
X96840690Y-98897824D01*
X96743512Y-98816281D01*
X96664022Y-98717416D01*
X96605249Y-98604994D01*
X96569432Y-98483298D01*
X96569428Y-98483259D01*
X96569426Y-98483251D01*
X96557933Y-98356964D01*
X96571188Y-98230849D01*
X96571191Y-98230840D01*
X96571195Y-98230799D01*
X96608708Y-98109615D01*
X96669045Y-97998025D01*
X96749907Y-97900279D01*
X96848214Y-97820101D01*
X96960223Y-97760545D01*
X97081667Y-97723879D01*
X97207919Y-97711500D01*
X98018118Y-97711500D01*
X98023972Y-97711541D01*
X98023972Y-97711541D01*
G37*
G36*
X151221000Y-98680500D02*
X146721000Y-98680500D01*
X146721000Y-96580500D01*
X151221000Y-96580500D01*
X151221000Y-98680500D01*
X151221000Y-98680500D01*
G37*
G36*
X159900600Y-98203500D02*
X157800600Y-98203500D01*
X157800600Y-97503500D01*
X159900600Y-97503500D01*
X159900600Y-98203500D01*
X159900600Y-98203500D01*
G37*
G36*
X169300600Y-98203500D02*
X167200600Y-98203500D01*
X167200600Y-97503500D01*
X169300600Y-97503500D01*
X169300600Y-98203500D01*
X169300600Y-98203500D01*
G37*
G36*
X138444676Y-95009558D02*
X138451271Y-95009604D01*
X138658021Y-95032795D01*
X138856329Y-95095702D01*
X139038642Y-95195929D01*
X139198015Y-95329659D01*
X139328378Y-95491798D01*
X139424765Y-95676169D01*
X139483505Y-95875752D01*
X139483507Y-95875779D01*
X139483513Y-95875798D01*
X139502364Y-96082940D01*
X139480622Y-96289800D01*
X139480618Y-96289814D01*
X139480614Y-96289849D01*
X139419093Y-96488592D01*
X139320141Y-96671600D01*
X139187527Y-96831902D01*
X139026302Y-96963394D01*
X138842608Y-97061066D01*
X138643441Y-97121198D01*
X138436387Y-97141500D01*
X137915578Y-97141500D01*
X137907324Y-97141442D01*
X137900729Y-97141396D01*
X137693979Y-97118205D01*
X137495671Y-97055298D01*
X137313358Y-96955071D01*
X137153985Y-96821341D01*
X137023622Y-96659202D01*
X136927235Y-96474831D01*
X136868495Y-96275248D01*
X136868493Y-96275221D01*
X136868487Y-96275202D01*
X136849636Y-96068060D01*
X136871378Y-95861200D01*
X136871382Y-95861186D01*
X136871386Y-95861151D01*
X136932907Y-95662408D01*
X137031859Y-95479400D01*
X137164473Y-95319098D01*
X137325698Y-95187606D01*
X137509392Y-95089934D01*
X137708559Y-95029802D01*
X137915613Y-95009500D01*
X138436422Y-95009500D01*
X138444676Y-95009558D01*
X138444676Y-95009558D01*
G37*
G36*
X159900600Y-96933500D02*
X157800600Y-96933500D01*
X157800600Y-96233500D01*
X159900600Y-96233500D01*
X159900600Y-96933500D01*
X159900600Y-96933500D01*
G37*
G36*
X169300600Y-96933500D02*
X167200600Y-96933500D01*
X167200600Y-96233500D01*
X169300600Y-96233500D01*
X169300600Y-96933500D01*
X169300600Y-96933500D01*
G37*
G36*
X95483972Y-95171541D02*
X95487156Y-95171563D01*
X95613224Y-95185704D01*
X95734143Y-95224062D01*
X95845310Y-95285176D01*
X95942488Y-95366719D01*
X96021978Y-95465584D01*
X96080751Y-95578006D01*
X96116568Y-95699702D01*
X96116572Y-95699741D01*
X96116574Y-95699749D01*
X96128067Y-95826036D01*
X96114812Y-95952151D01*
X96114809Y-95952160D01*
X96114805Y-95952201D01*
X96077292Y-96073385D01*
X96016955Y-96184975D01*
X95936093Y-96282721D01*
X95837786Y-96362899D01*
X95725777Y-96422455D01*
X95604333Y-96459121D01*
X95478081Y-96471500D01*
X94667882Y-96471500D01*
X94662028Y-96471459D01*
X94658844Y-96471437D01*
X94532776Y-96457296D01*
X94411857Y-96418938D01*
X94300690Y-96357824D01*
X94203512Y-96276281D01*
X94124022Y-96177416D01*
X94065249Y-96064994D01*
X94029432Y-95943298D01*
X94029428Y-95943259D01*
X94029426Y-95943251D01*
X94017933Y-95816964D01*
X94031188Y-95690849D01*
X94031191Y-95690840D01*
X94031195Y-95690799D01*
X94068708Y-95569615D01*
X94129045Y-95458025D01*
X94209907Y-95360279D01*
X94308214Y-95280101D01*
X94420223Y-95220545D01*
X94541667Y-95183879D01*
X94667919Y-95171500D01*
X95478118Y-95171500D01*
X95483972Y-95171541D01*
X95483972Y-95171541D01*
G37*
G36*
X98023972Y-95171541D02*
X98027156Y-95171563D01*
X98153224Y-95185704D01*
X98274143Y-95224062D01*
X98385310Y-95285176D01*
X98482488Y-95366719D01*
X98561978Y-95465584D01*
X98620751Y-95578006D01*
X98656568Y-95699702D01*
X98656572Y-95699741D01*
X98656574Y-95699749D01*
X98668067Y-95826036D01*
X98654812Y-95952151D01*
X98654809Y-95952160D01*
X98654805Y-95952201D01*
X98617292Y-96073385D01*
X98556955Y-96184975D01*
X98476093Y-96282721D01*
X98377786Y-96362899D01*
X98265777Y-96422455D01*
X98144333Y-96459121D01*
X98018081Y-96471500D01*
X97207882Y-96471500D01*
X97202028Y-96471459D01*
X97198844Y-96471437D01*
X97072776Y-96457296D01*
X96951857Y-96418938D01*
X96840690Y-96357824D01*
X96743512Y-96276281D01*
X96664022Y-96177416D01*
X96605249Y-96064994D01*
X96569432Y-95943298D01*
X96569428Y-95943259D01*
X96569426Y-95943251D01*
X96557933Y-95816964D01*
X96571188Y-95690849D01*
X96571191Y-95690840D01*
X96571195Y-95690799D01*
X96608708Y-95569615D01*
X96669045Y-95458025D01*
X96749907Y-95360279D01*
X96848214Y-95280101D01*
X96960223Y-95220545D01*
X97081667Y-95183879D01*
X97207919Y-95171500D01*
X98018118Y-95171500D01*
X98023972Y-95171541D01*
X98023972Y-95171541D01*
G37*
G36*
X123473972Y-95171541D02*
X123477156Y-95171563D01*
X123603224Y-95185704D01*
X123724143Y-95224062D01*
X123835310Y-95285176D01*
X123932488Y-95366719D01*
X124011978Y-95465584D01*
X124070751Y-95578006D01*
X124106568Y-95699702D01*
X124106572Y-95699741D01*
X124106574Y-95699749D01*
X124118067Y-95826036D01*
X124104812Y-95952151D01*
X124104809Y-95952160D01*
X124104805Y-95952201D01*
X124067292Y-96073385D01*
X124006955Y-96184975D01*
X123926093Y-96282721D01*
X123827786Y-96362899D01*
X123715777Y-96422455D01*
X123594333Y-96459121D01*
X123468081Y-96471500D01*
X122657882Y-96471500D01*
X122652028Y-96471459D01*
X122648844Y-96471437D01*
X122522776Y-96457296D01*
X122401857Y-96418938D01*
X122290690Y-96357824D01*
X122193512Y-96276281D01*
X122114022Y-96177416D01*
X122055249Y-96064994D01*
X122019432Y-95943298D01*
X122019428Y-95943259D01*
X122019426Y-95943251D01*
X122007933Y-95816964D01*
X122021188Y-95690849D01*
X122021191Y-95690840D01*
X122021195Y-95690799D01*
X122058708Y-95569615D01*
X122119045Y-95458025D01*
X122199907Y-95360279D01*
X122298214Y-95280101D01*
X122410223Y-95220545D01*
X122531667Y-95183879D01*
X122657919Y-95171500D01*
X123468118Y-95171500D01*
X123473972Y-95171541D01*
X123473972Y-95171541D01*
G37*
G36*
X126063972Y-95171541D02*
X126067156Y-95171563D01*
X126193224Y-95185704D01*
X126314143Y-95224062D01*
X126425310Y-95285176D01*
X126522488Y-95366719D01*
X126601978Y-95465584D01*
X126660751Y-95578006D01*
X126696568Y-95699702D01*
X126696572Y-95699741D01*
X126696574Y-95699749D01*
X126708067Y-95826036D01*
X126694812Y-95952151D01*
X126694809Y-95952160D01*
X126694805Y-95952201D01*
X126657292Y-96073385D01*
X126596955Y-96184975D01*
X126516093Y-96282721D01*
X126417786Y-96362899D01*
X126305777Y-96422455D01*
X126184333Y-96459121D01*
X126058081Y-96471500D01*
X125247882Y-96471500D01*
X125242028Y-96471459D01*
X125238844Y-96471437D01*
X125112776Y-96457296D01*
X124991857Y-96418938D01*
X124880690Y-96357824D01*
X124783512Y-96276281D01*
X124704022Y-96177416D01*
X124645249Y-96064994D01*
X124609432Y-95943298D01*
X124609428Y-95943259D01*
X124609426Y-95943251D01*
X124597933Y-95816964D01*
X124611188Y-95690849D01*
X124611191Y-95690840D01*
X124611195Y-95690799D01*
X124648708Y-95569615D01*
X124709045Y-95458025D01*
X124789907Y-95360279D01*
X124888214Y-95280101D01*
X125000223Y-95220545D01*
X125121667Y-95183879D01*
X125247919Y-95171500D01*
X126058118Y-95171500D01*
X126063972Y-95171541D01*
X126063972Y-95171541D01*
G37*
G36*
X169300600Y-95663500D02*
X167200600Y-95663500D01*
X167200600Y-94963500D01*
X169300600Y-94963500D01*
X169300600Y-95663500D01*
X169300600Y-95663500D01*
G37*
G36*
X159900600Y-95663500D02*
X157800600Y-95663500D01*
X157800600Y-94963500D01*
X159900600Y-94963500D01*
X159900600Y-95663500D01*
X159900600Y-95663500D01*
G37*
G36*
X177049596Y-93637950D02*
X177055177Y-93637989D01*
X177232369Y-93657864D01*
X177402326Y-93711778D01*
X177558575Y-93797676D01*
X177695163Y-93912288D01*
X177806889Y-94051246D01*
X177889496Y-94209259D01*
X177939839Y-94380308D01*
X177939843Y-94380347D01*
X177939845Y-94380355D01*
X177956001Y-94557876D01*
X177937368Y-94735155D01*
X177937365Y-94735164D01*
X177937361Y-94735205D01*
X177884635Y-94905534D01*
X177799830Y-95062379D01*
X177686175Y-95199764D01*
X177548000Y-95312457D01*
X177390567Y-95396165D01*
X177219874Y-95447701D01*
X177042421Y-95465100D01*
X177033544Y-95465100D01*
X177026404Y-95465050D01*
X177020823Y-95465011D01*
X176843631Y-95445136D01*
X176673674Y-95391222D01*
X176517425Y-95305324D01*
X176380837Y-95190712D01*
X176269111Y-95051754D01*
X176186504Y-94893741D01*
X176136161Y-94722692D01*
X176136157Y-94722653D01*
X176136155Y-94722645D01*
X176119999Y-94545124D01*
X176138632Y-94367845D01*
X176138635Y-94367836D01*
X176138639Y-94367795D01*
X176191365Y-94197466D01*
X176276170Y-94040621D01*
X176389825Y-93903236D01*
X176528000Y-93790543D01*
X176685433Y-93706835D01*
X176856126Y-93655299D01*
X177033579Y-93637900D01*
X177042456Y-93637900D01*
X177049596Y-93637950D01*
X177049596Y-93637950D01*
G37*
G36*
X179589596Y-93637950D02*
X179595177Y-93637989D01*
X179772369Y-93657864D01*
X179942326Y-93711778D01*
X180098575Y-93797676D01*
X180235163Y-93912288D01*
X180346889Y-94051246D01*
X180429496Y-94209259D01*
X180479839Y-94380308D01*
X180479843Y-94380347D01*
X180479845Y-94380355D01*
X180496001Y-94557876D01*
X180477368Y-94735155D01*
X180477365Y-94735164D01*
X180477361Y-94735205D01*
X180424635Y-94905534D01*
X180339830Y-95062379D01*
X180226175Y-95199764D01*
X180088000Y-95312457D01*
X179930567Y-95396165D01*
X179759874Y-95447701D01*
X179582421Y-95465100D01*
X179573544Y-95465100D01*
X179566404Y-95465050D01*
X179560823Y-95465011D01*
X179383631Y-95445136D01*
X179213674Y-95391222D01*
X179057425Y-95305324D01*
X178920837Y-95190712D01*
X178809111Y-95051754D01*
X178726504Y-94893741D01*
X178676161Y-94722692D01*
X178676157Y-94722653D01*
X178676155Y-94722645D01*
X178659999Y-94545124D01*
X178678632Y-94367845D01*
X178678635Y-94367836D01*
X178678639Y-94367795D01*
X178731365Y-94197466D01*
X178816170Y-94040621D01*
X178929825Y-93903236D01*
X179068000Y-93790543D01*
X179225433Y-93706835D01*
X179396126Y-93655299D01*
X179573579Y-93637900D01*
X179582456Y-93637900D01*
X179589596Y-93637950D01*
X179589596Y-93637950D01*
G37*
G36*
X184669596Y-93637950D02*
X184675177Y-93637989D01*
X184852369Y-93657864D01*
X185022326Y-93711778D01*
X185178575Y-93797676D01*
X185315163Y-93912288D01*
X185426889Y-94051246D01*
X185509496Y-94209259D01*
X185559839Y-94380308D01*
X185559843Y-94380347D01*
X185559845Y-94380355D01*
X185576001Y-94557876D01*
X185557368Y-94735155D01*
X185557365Y-94735164D01*
X185557361Y-94735205D01*
X185504635Y-94905534D01*
X185419830Y-95062379D01*
X185306175Y-95199764D01*
X185168000Y-95312457D01*
X185010567Y-95396165D01*
X184839874Y-95447701D01*
X184662421Y-95465100D01*
X184653544Y-95465100D01*
X184646404Y-95465050D01*
X184640823Y-95465011D01*
X184463631Y-95445136D01*
X184293674Y-95391222D01*
X184137425Y-95305324D01*
X184000837Y-95190712D01*
X183889111Y-95051754D01*
X183806504Y-94893741D01*
X183756161Y-94722692D01*
X183756157Y-94722653D01*
X183756155Y-94722645D01*
X183739999Y-94545124D01*
X183758632Y-94367845D01*
X183758635Y-94367836D01*
X183758639Y-94367795D01*
X183811365Y-94197466D01*
X183896170Y-94040621D01*
X184009825Y-93903236D01*
X184148000Y-93790543D01*
X184305433Y-93706835D01*
X184476126Y-93655299D01*
X184653579Y-93637900D01*
X184662456Y-93637900D01*
X184669596Y-93637950D01*
X184669596Y-93637950D01*
G37*
G36*
X182129596Y-93637950D02*
X182135177Y-93637989D01*
X182312369Y-93657864D01*
X182482326Y-93711778D01*
X182638575Y-93797676D01*
X182775163Y-93912288D01*
X182886889Y-94051246D01*
X182969496Y-94209259D01*
X183019839Y-94380308D01*
X183019843Y-94380347D01*
X183019845Y-94380355D01*
X183036001Y-94557876D01*
X183017368Y-94735155D01*
X183017365Y-94735164D01*
X183017361Y-94735205D01*
X182964635Y-94905534D01*
X182879830Y-95062379D01*
X182766175Y-95199764D01*
X182628000Y-95312457D01*
X182470567Y-95396165D01*
X182299874Y-95447701D01*
X182122421Y-95465100D01*
X182113544Y-95465100D01*
X182106404Y-95465050D01*
X182100823Y-95465011D01*
X181923631Y-95445136D01*
X181753674Y-95391222D01*
X181597425Y-95305324D01*
X181460837Y-95190712D01*
X181349111Y-95051754D01*
X181266504Y-94893741D01*
X181216161Y-94722692D01*
X181216157Y-94722653D01*
X181216155Y-94722645D01*
X181199999Y-94545124D01*
X181218632Y-94367845D01*
X181218635Y-94367836D01*
X181218639Y-94367795D01*
X181271365Y-94197466D01*
X181356170Y-94040621D01*
X181469825Y-93903236D01*
X181608000Y-93790543D01*
X181765433Y-93706835D01*
X181936126Y-93655299D01*
X182113579Y-93637900D01*
X182122456Y-93637900D01*
X182129596Y-93637950D01*
X182129596Y-93637950D01*
G37*
G36*
X187209596Y-93637950D02*
X187215177Y-93637989D01*
X187392369Y-93657864D01*
X187562326Y-93711778D01*
X187718575Y-93797676D01*
X187855163Y-93912288D01*
X187966889Y-94051246D01*
X188049496Y-94209259D01*
X188099839Y-94380308D01*
X188099843Y-94380347D01*
X188099845Y-94380355D01*
X188116001Y-94557876D01*
X188097368Y-94735155D01*
X188097365Y-94735164D01*
X188097361Y-94735205D01*
X188044635Y-94905534D01*
X187959830Y-95062379D01*
X187846175Y-95199764D01*
X187708000Y-95312457D01*
X187550567Y-95396165D01*
X187379874Y-95447701D01*
X187202421Y-95465100D01*
X187193544Y-95465100D01*
X187186404Y-95465050D01*
X187180823Y-95465011D01*
X187003631Y-95445136D01*
X186833674Y-95391222D01*
X186677425Y-95305324D01*
X186540837Y-95190712D01*
X186429111Y-95051754D01*
X186346504Y-94893741D01*
X186296161Y-94722692D01*
X186296157Y-94722653D01*
X186296155Y-94722645D01*
X186279999Y-94545124D01*
X186298632Y-94367845D01*
X186298635Y-94367836D01*
X186298639Y-94367795D01*
X186351365Y-94197466D01*
X186436170Y-94040621D01*
X186549825Y-93903236D01*
X186688000Y-93790543D01*
X186845433Y-93706835D01*
X187016126Y-93655299D01*
X187193579Y-93637900D01*
X187202456Y-93637900D01*
X187209596Y-93637950D01*
X187209596Y-93637950D01*
G37*
G36*
X138444676Y-92469558D02*
X138451271Y-92469604D01*
X138658021Y-92492795D01*
X138856329Y-92555702D01*
X139038642Y-92655929D01*
X139198015Y-92789659D01*
X139328378Y-92951798D01*
X139424765Y-93136169D01*
X139483505Y-93335752D01*
X139483507Y-93335779D01*
X139483513Y-93335798D01*
X139502364Y-93542940D01*
X139480622Y-93749800D01*
X139480618Y-93749814D01*
X139480614Y-93749849D01*
X139419093Y-93948592D01*
X139320141Y-94131600D01*
X139187527Y-94291902D01*
X139026302Y-94423394D01*
X138842608Y-94521066D01*
X138643441Y-94581198D01*
X138436387Y-94601500D01*
X137915578Y-94601500D01*
X137907324Y-94601442D01*
X137900729Y-94601396D01*
X137693979Y-94578205D01*
X137495671Y-94515298D01*
X137313358Y-94415071D01*
X137153985Y-94281341D01*
X137023622Y-94119202D01*
X136927235Y-93934831D01*
X136868495Y-93735248D01*
X136868493Y-93735221D01*
X136868487Y-93735202D01*
X136849636Y-93528060D01*
X136871378Y-93321200D01*
X136871382Y-93321186D01*
X136871386Y-93321151D01*
X136932907Y-93122408D01*
X137031859Y-92939400D01*
X137164473Y-92779098D01*
X137325698Y-92647606D01*
X137509392Y-92549934D01*
X137708559Y-92489802D01*
X137915613Y-92469500D01*
X138436422Y-92469500D01*
X138444676Y-92469558D01*
X138444676Y-92469558D01*
G37*
G36*
X169300600Y-94393500D02*
X167200600Y-94393500D01*
X167200600Y-93693500D01*
X169300600Y-93693500D01*
X169300600Y-94393500D01*
X169300600Y-94393500D01*
G37*
G36*
X159900600Y-94393500D02*
X157800600Y-94393500D01*
X157800600Y-93693500D01*
X159900600Y-93693500D01*
X159900600Y-94393500D01*
X159900600Y-94393500D01*
G37*
G36*
X126063972Y-92631541D02*
X126067156Y-92631563D01*
X126193224Y-92645704D01*
X126314143Y-92684062D01*
X126425310Y-92745176D01*
X126522488Y-92826719D01*
X126601978Y-92925584D01*
X126660751Y-93038006D01*
X126696568Y-93159702D01*
X126696572Y-93159741D01*
X126696574Y-93159749D01*
X126708067Y-93286036D01*
X126694812Y-93412151D01*
X126694809Y-93412160D01*
X126694805Y-93412201D01*
X126657292Y-93533385D01*
X126596955Y-93644975D01*
X126516093Y-93742721D01*
X126417786Y-93822899D01*
X126305777Y-93882455D01*
X126184333Y-93919121D01*
X126058081Y-93931500D01*
X125247882Y-93931500D01*
X125242028Y-93931459D01*
X125238844Y-93931437D01*
X125112776Y-93917296D01*
X124991857Y-93878938D01*
X124880690Y-93817824D01*
X124783512Y-93736281D01*
X124704022Y-93637416D01*
X124645249Y-93524994D01*
X124609432Y-93403298D01*
X124609428Y-93403259D01*
X124609426Y-93403251D01*
X124597933Y-93276964D01*
X124611188Y-93150849D01*
X124611191Y-93150840D01*
X124611195Y-93150799D01*
X124648708Y-93029615D01*
X124709045Y-92918025D01*
X124789907Y-92820279D01*
X124888214Y-92740101D01*
X125000223Y-92680545D01*
X125121667Y-92643879D01*
X125247919Y-92631500D01*
X126058118Y-92631500D01*
X126063972Y-92631541D01*
X126063972Y-92631541D01*
G37*
G36*
X123473972Y-92631541D02*
X123477156Y-92631563D01*
X123603224Y-92645704D01*
X123724143Y-92684062D01*
X123835310Y-92745176D01*
X123932488Y-92826719D01*
X124011978Y-92925584D01*
X124070751Y-93038006D01*
X124106568Y-93159702D01*
X124106572Y-93159741D01*
X124106574Y-93159749D01*
X124118067Y-93286036D01*
X124104812Y-93412151D01*
X124104809Y-93412160D01*
X124104805Y-93412201D01*
X124067292Y-93533385D01*
X124006955Y-93644975D01*
X123926093Y-93742721D01*
X123827786Y-93822899D01*
X123715777Y-93882455D01*
X123594333Y-93919121D01*
X123468081Y-93931500D01*
X122657882Y-93931500D01*
X122652028Y-93931459D01*
X122648844Y-93931437D01*
X122522776Y-93917296D01*
X122401857Y-93878938D01*
X122290690Y-93817824D01*
X122193512Y-93736281D01*
X122114022Y-93637416D01*
X122055249Y-93524994D01*
X122019432Y-93403298D01*
X122019428Y-93403259D01*
X122019426Y-93403251D01*
X122007933Y-93276964D01*
X122021188Y-93150849D01*
X122021191Y-93150840D01*
X122021195Y-93150799D01*
X122058708Y-93029615D01*
X122119045Y-92918025D01*
X122199907Y-92820279D01*
X122298214Y-92740101D01*
X122410223Y-92680545D01*
X122531667Y-92643879D01*
X122657919Y-92631500D01*
X123468118Y-92631500D01*
X123473972Y-92631541D01*
X123473972Y-92631541D01*
G37*
G36*
X98023972Y-92631541D02*
X98027156Y-92631563D01*
X98153224Y-92645704D01*
X98274143Y-92684062D01*
X98385310Y-92745176D01*
X98482488Y-92826719D01*
X98561978Y-92925584D01*
X98620751Y-93038006D01*
X98656568Y-93159702D01*
X98656572Y-93159741D01*
X98656574Y-93159749D01*
X98668067Y-93286036D01*
X98654812Y-93412151D01*
X98654809Y-93412160D01*
X98654805Y-93412201D01*
X98617292Y-93533385D01*
X98556955Y-93644975D01*
X98476093Y-93742721D01*
X98377786Y-93822899D01*
X98265777Y-93882455D01*
X98144333Y-93919121D01*
X98018081Y-93931500D01*
X97207882Y-93931500D01*
X97202028Y-93931459D01*
X97198844Y-93931437D01*
X97072776Y-93917296D01*
X96951857Y-93878938D01*
X96840690Y-93817824D01*
X96743512Y-93736281D01*
X96664022Y-93637416D01*
X96605249Y-93524994D01*
X96569432Y-93403298D01*
X96569428Y-93403259D01*
X96569426Y-93403251D01*
X96557933Y-93276964D01*
X96571188Y-93150849D01*
X96571191Y-93150840D01*
X96571195Y-93150799D01*
X96608708Y-93029615D01*
X96669045Y-92918025D01*
X96749907Y-92820279D01*
X96848214Y-92740101D01*
X96960223Y-92680545D01*
X97081667Y-92643879D01*
X97207919Y-92631500D01*
X98018118Y-92631500D01*
X98023972Y-92631541D01*
X98023972Y-92631541D01*
G37*
G36*
X95483972Y-92631541D02*
X95487156Y-92631563D01*
X95613224Y-92645704D01*
X95734143Y-92684062D01*
X95845310Y-92745176D01*
X95942488Y-92826719D01*
X96021978Y-92925584D01*
X96080751Y-93038006D01*
X96116568Y-93159702D01*
X96116572Y-93159741D01*
X96116574Y-93159749D01*
X96128067Y-93286036D01*
X96114812Y-93412151D01*
X96114809Y-93412160D01*
X96114805Y-93412201D01*
X96077292Y-93533385D01*
X96016955Y-93644975D01*
X95936093Y-93742721D01*
X95837786Y-93822899D01*
X95725777Y-93882455D01*
X95604333Y-93919121D01*
X95478081Y-93931500D01*
X94667882Y-93931500D01*
X94662028Y-93931459D01*
X94658844Y-93931437D01*
X94532776Y-93917296D01*
X94411857Y-93878938D01*
X94300690Y-93817824D01*
X94203512Y-93736281D01*
X94124022Y-93637416D01*
X94065249Y-93524994D01*
X94029432Y-93403298D01*
X94029428Y-93403259D01*
X94029426Y-93403251D01*
X94017933Y-93276964D01*
X94031188Y-93150849D01*
X94031191Y-93150840D01*
X94031195Y-93150799D01*
X94068708Y-93029615D01*
X94129045Y-92918025D01*
X94209907Y-92820279D01*
X94308214Y-92740101D01*
X94420223Y-92680545D01*
X94541667Y-92643879D01*
X94667919Y-92631500D01*
X95478118Y-92631500D01*
X95483972Y-92631541D01*
X95483972Y-92631541D01*
G37*
G36*
X169300600Y-93123500D02*
X167200600Y-93123500D01*
X167200600Y-92423500D01*
X169300600Y-92423500D01*
X169300600Y-93123500D01*
X169300600Y-93123500D01*
G37*
G36*
X159900600Y-93123500D02*
X157800600Y-93123500D01*
X157800600Y-92423500D01*
X159900600Y-92423500D01*
X159900600Y-93123500D01*
X159900600Y-93123500D01*
G37*
G36*
X188111600Y-92925100D02*
X186284400Y-92925100D01*
X186284400Y-91097900D01*
X188111600Y-91097900D01*
X188111600Y-92925100D01*
X188111600Y-92925100D01*
G37*
G36*
X184669596Y-91097950D02*
X184675177Y-91097989D01*
X184852369Y-91117864D01*
X185022326Y-91171778D01*
X185178575Y-91257676D01*
X185315163Y-91372288D01*
X185426889Y-91511246D01*
X185509496Y-91669259D01*
X185559839Y-91840308D01*
X185559843Y-91840347D01*
X185559845Y-91840355D01*
X185576001Y-92017876D01*
X185557368Y-92195155D01*
X185557365Y-92195164D01*
X185557361Y-92195205D01*
X185504635Y-92365534D01*
X185419830Y-92522379D01*
X185306175Y-92659764D01*
X185168000Y-92772457D01*
X185010567Y-92856165D01*
X184839874Y-92907701D01*
X184662421Y-92925100D01*
X184653544Y-92925100D01*
X184646404Y-92925050D01*
X184640823Y-92925011D01*
X184463631Y-92905136D01*
X184293674Y-92851222D01*
X184137425Y-92765324D01*
X184000837Y-92650712D01*
X183889111Y-92511754D01*
X183806504Y-92353741D01*
X183756161Y-92182692D01*
X183756157Y-92182653D01*
X183756155Y-92182645D01*
X183739999Y-92005124D01*
X183758632Y-91827845D01*
X183758635Y-91827836D01*
X183758639Y-91827795D01*
X183811365Y-91657466D01*
X183896170Y-91500621D01*
X184009825Y-91363236D01*
X184148000Y-91250543D01*
X184305433Y-91166835D01*
X184476126Y-91115299D01*
X184653579Y-91097900D01*
X184662456Y-91097900D01*
X184669596Y-91097950D01*
X184669596Y-91097950D01*
G37*
G36*
X182129596Y-91097950D02*
X182135177Y-91097989D01*
X182312369Y-91117864D01*
X182482326Y-91171778D01*
X182638575Y-91257676D01*
X182775163Y-91372288D01*
X182886889Y-91511246D01*
X182969496Y-91669259D01*
X183019839Y-91840308D01*
X183019843Y-91840347D01*
X183019845Y-91840355D01*
X183036001Y-92017876D01*
X183017368Y-92195155D01*
X183017365Y-92195164D01*
X183017361Y-92195205D01*
X182964635Y-92365534D01*
X182879830Y-92522379D01*
X182766175Y-92659764D01*
X182628000Y-92772457D01*
X182470567Y-92856165D01*
X182299874Y-92907701D01*
X182122421Y-92925100D01*
X182113544Y-92925100D01*
X182106404Y-92925050D01*
X182100823Y-92925011D01*
X181923631Y-92905136D01*
X181753674Y-92851222D01*
X181597425Y-92765324D01*
X181460837Y-92650712D01*
X181349111Y-92511754D01*
X181266504Y-92353741D01*
X181216161Y-92182692D01*
X181216157Y-92182653D01*
X181216155Y-92182645D01*
X181199999Y-92005124D01*
X181218632Y-91827845D01*
X181218635Y-91827836D01*
X181218639Y-91827795D01*
X181271365Y-91657466D01*
X181356170Y-91500621D01*
X181469825Y-91363236D01*
X181608000Y-91250543D01*
X181765433Y-91166835D01*
X181936126Y-91115299D01*
X182113579Y-91097900D01*
X182122456Y-91097900D01*
X182129596Y-91097950D01*
X182129596Y-91097950D01*
G37*
G36*
X179589596Y-91097950D02*
X179595177Y-91097989D01*
X179772369Y-91117864D01*
X179942326Y-91171778D01*
X180098575Y-91257676D01*
X180235163Y-91372288D01*
X180346889Y-91511246D01*
X180429496Y-91669259D01*
X180479839Y-91840308D01*
X180479843Y-91840347D01*
X180479845Y-91840355D01*
X180496001Y-92017876D01*
X180477368Y-92195155D01*
X180477365Y-92195164D01*
X180477361Y-92195205D01*
X180424635Y-92365534D01*
X180339830Y-92522379D01*
X180226175Y-92659764D01*
X180088000Y-92772457D01*
X179930567Y-92856165D01*
X179759874Y-92907701D01*
X179582421Y-92925100D01*
X179573544Y-92925100D01*
X179566404Y-92925050D01*
X179560823Y-92925011D01*
X179383631Y-92905136D01*
X179213674Y-92851222D01*
X179057425Y-92765324D01*
X178920837Y-92650712D01*
X178809111Y-92511754D01*
X178726504Y-92353741D01*
X178676161Y-92182692D01*
X178676157Y-92182653D01*
X178676155Y-92182645D01*
X178659999Y-92005124D01*
X178678632Y-91827845D01*
X178678635Y-91827836D01*
X178678639Y-91827795D01*
X178731365Y-91657466D01*
X178816170Y-91500621D01*
X178929825Y-91363236D01*
X179068000Y-91250543D01*
X179225433Y-91166835D01*
X179396126Y-91115299D01*
X179573579Y-91097900D01*
X179582456Y-91097900D01*
X179589596Y-91097950D01*
X179589596Y-91097950D01*
G37*
G36*
X177049596Y-91097950D02*
X177055177Y-91097989D01*
X177232369Y-91117864D01*
X177402326Y-91171778D01*
X177558575Y-91257676D01*
X177695163Y-91372288D01*
X177806889Y-91511246D01*
X177889496Y-91669259D01*
X177939839Y-91840308D01*
X177939843Y-91840347D01*
X177939845Y-91840355D01*
X177956001Y-92017876D01*
X177937368Y-92195155D01*
X177937365Y-92195164D01*
X177937361Y-92195205D01*
X177884635Y-92365534D01*
X177799830Y-92522379D01*
X177686175Y-92659764D01*
X177548000Y-92772457D01*
X177390567Y-92856165D01*
X177219874Y-92907701D01*
X177042421Y-92925100D01*
X177033544Y-92925100D01*
X177026404Y-92925050D01*
X177020823Y-92925011D01*
X176843631Y-92905136D01*
X176673674Y-92851222D01*
X176517425Y-92765324D01*
X176380837Y-92650712D01*
X176269111Y-92511754D01*
X176186504Y-92353741D01*
X176136161Y-92182692D01*
X176136157Y-92182653D01*
X176136155Y-92182645D01*
X176119999Y-92005124D01*
X176138632Y-91827845D01*
X176138635Y-91827836D01*
X176138639Y-91827795D01*
X176191365Y-91657466D01*
X176276170Y-91500621D01*
X176389825Y-91363236D01*
X176528000Y-91250543D01*
X176685433Y-91166835D01*
X176856126Y-91115299D01*
X177033579Y-91097900D01*
X177042456Y-91097900D01*
X177049596Y-91097950D01*
X177049596Y-91097950D01*
G37*
G36*
X145521000Y-92680500D02*
X143421000Y-92680500D01*
X143421000Y-88580500D01*
X145521000Y-88580500D01*
X145521000Y-92680500D01*
X145521000Y-92680500D01*
G37*
G36*
X154521000Y-92680500D02*
X152421000Y-92680500D01*
X152421000Y-88580500D01*
X154521000Y-88580500D01*
X154521000Y-92680500D01*
X154521000Y-92680500D01*
G37*
G36*
X150871000Y-92680500D02*
X147071000Y-92680500D01*
X147071000Y-90580500D01*
X150871000Y-90580500D01*
X150871000Y-92680500D01*
X150871000Y-92680500D01*
G37*
G36*
X90261681Y-88025885D02*
X90661645Y-88107986D01*
X91038040Y-88266208D01*
X91376539Y-88494527D01*
X91664244Y-88784249D01*
X91890195Y-89124331D01*
X92045785Y-89501822D01*
X92125024Y-89902006D01*
X92125024Y-89902020D01*
X92125089Y-89902349D01*
X92118577Y-90368706D01*
X92118501Y-90369040D01*
X92118501Y-90369052D01*
X92028122Y-90766860D01*
X91862050Y-91139864D01*
X91626693Y-91473504D01*
X91331007Y-91755081D01*
X90986271Y-91973857D01*
X90605600Y-92121511D01*
X90203504Y-92192410D01*
X89795292Y-92183860D01*
X89396509Y-92096182D01*
X89022360Y-91932720D01*
X88687084Y-91699697D01*
X88403452Y-91405987D01*
X88182274Y-91062786D01*
X88031968Y-90683156D01*
X87958260Y-90281557D01*
X87963962Y-89873297D01*
X88048851Y-89473921D01*
X88209700Y-89098634D01*
X88440377Y-88761740D01*
X88732099Y-88476064D01*
X89073749Y-88252494D01*
X89452320Y-88099541D01*
X89853386Y-88023034D01*
X90261681Y-88025885D01*
X90261681Y-88025885D01*
G37*
G36*
X196306681Y-88025885D02*
X196706645Y-88107986D01*
X197083040Y-88266208D01*
X197421539Y-88494527D01*
X197709244Y-88784249D01*
X197935195Y-89124331D01*
X198090785Y-89501822D01*
X198170024Y-89902006D01*
X198170024Y-89902020D01*
X198170089Y-89902349D01*
X198163577Y-90368706D01*
X198163501Y-90369040D01*
X198163501Y-90369052D01*
X198073122Y-90766860D01*
X197907050Y-91139864D01*
X197671693Y-91473504D01*
X197376007Y-91755081D01*
X197031271Y-91973857D01*
X196650600Y-92121511D01*
X196248504Y-92192410D01*
X195840292Y-92183860D01*
X195441509Y-92096182D01*
X195067360Y-91932720D01*
X194732084Y-91699697D01*
X194448452Y-91405987D01*
X194227274Y-91062786D01*
X194076968Y-90683156D01*
X194003260Y-90281557D01*
X194008962Y-89873297D01*
X194093851Y-89473921D01*
X194254700Y-89098634D01*
X194485377Y-88761740D01*
X194777099Y-88476064D01*
X195118749Y-88252494D01*
X195497320Y-88099541D01*
X195898386Y-88023034D01*
X196306681Y-88025885D01*
X196306681Y-88025885D01*
G37*
G36*
X138444676Y-89929558D02*
X138451271Y-89929604D01*
X138658021Y-89952795D01*
X138856329Y-90015702D01*
X139038642Y-90115929D01*
X139198015Y-90249659D01*
X139328378Y-90411798D01*
X139424765Y-90596169D01*
X139483505Y-90795752D01*
X139483507Y-90795779D01*
X139483513Y-90795798D01*
X139502364Y-91002940D01*
X139480622Y-91209800D01*
X139480618Y-91209814D01*
X139480614Y-91209849D01*
X139419093Y-91408592D01*
X139320141Y-91591600D01*
X139187527Y-91751902D01*
X139026302Y-91883394D01*
X138842608Y-91981066D01*
X138643441Y-92041198D01*
X138436387Y-92061500D01*
X137915578Y-92061500D01*
X137907324Y-92061442D01*
X137900729Y-92061396D01*
X137693979Y-92038205D01*
X137495671Y-91975298D01*
X137313358Y-91875071D01*
X137153985Y-91741341D01*
X137023622Y-91579202D01*
X136927235Y-91394831D01*
X136868495Y-91195248D01*
X136868493Y-91195221D01*
X136868487Y-91195202D01*
X136849636Y-90988060D01*
X136871378Y-90781200D01*
X136871382Y-90781186D01*
X136871386Y-90781151D01*
X136932907Y-90582408D01*
X137031859Y-90399400D01*
X137164473Y-90239098D01*
X137325698Y-90107606D01*
X137509392Y-90009934D01*
X137708559Y-89949802D01*
X137915613Y-89929500D01*
X138436422Y-89929500D01*
X138444676Y-89929558D01*
X138444676Y-89929558D01*
G37*
G36*
X159900600Y-91853500D02*
X157800600Y-91853500D01*
X157800600Y-91153500D01*
X159900600Y-91153500D01*
X159900600Y-91853500D01*
X159900600Y-91853500D01*
G37*
G36*
X169300600Y-91853500D02*
X167200600Y-91853500D01*
X167200600Y-91153500D01*
X169300600Y-91153500D01*
X169300600Y-91853500D01*
X169300600Y-91853500D01*
G37*
G36*
X126063972Y-90091541D02*
X126067156Y-90091563D01*
X126193224Y-90105704D01*
X126314143Y-90144062D01*
X126425310Y-90205176D01*
X126522488Y-90286719D01*
X126601978Y-90385584D01*
X126660751Y-90498006D01*
X126696568Y-90619702D01*
X126696572Y-90619741D01*
X126696574Y-90619749D01*
X126708067Y-90746036D01*
X126694812Y-90872151D01*
X126694809Y-90872160D01*
X126694805Y-90872201D01*
X126657292Y-90993385D01*
X126596955Y-91104975D01*
X126516093Y-91202721D01*
X126417786Y-91282899D01*
X126305777Y-91342455D01*
X126184333Y-91379121D01*
X126058081Y-91391500D01*
X125247882Y-91391500D01*
X125242028Y-91391459D01*
X125238844Y-91391437D01*
X125112776Y-91377296D01*
X124991857Y-91338938D01*
X124880690Y-91277824D01*
X124783512Y-91196281D01*
X124704022Y-91097416D01*
X124645249Y-90984994D01*
X124609432Y-90863298D01*
X124609428Y-90863259D01*
X124609426Y-90863251D01*
X124597933Y-90736964D01*
X124611188Y-90610849D01*
X124611191Y-90610840D01*
X124611195Y-90610799D01*
X124648708Y-90489615D01*
X124709045Y-90378025D01*
X124789907Y-90280279D01*
X124888214Y-90200101D01*
X125000223Y-90140545D01*
X125121667Y-90103879D01*
X125247919Y-90091500D01*
X126058118Y-90091500D01*
X126063972Y-90091541D01*
X126063972Y-90091541D01*
G37*
G36*
X98023972Y-90091541D02*
X98027156Y-90091563D01*
X98153224Y-90105704D01*
X98274143Y-90144062D01*
X98385310Y-90205176D01*
X98482488Y-90286719D01*
X98561978Y-90385584D01*
X98620751Y-90498006D01*
X98656568Y-90619702D01*
X98656572Y-90619741D01*
X98656574Y-90619749D01*
X98668067Y-90746036D01*
X98654812Y-90872151D01*
X98654809Y-90872160D01*
X98654805Y-90872201D01*
X98617292Y-90993385D01*
X98556955Y-91104975D01*
X98476093Y-91202721D01*
X98377786Y-91282899D01*
X98265777Y-91342455D01*
X98144333Y-91379121D01*
X98018081Y-91391500D01*
X97207882Y-91391500D01*
X97202028Y-91391459D01*
X97198844Y-91391437D01*
X97072776Y-91377296D01*
X96951857Y-91338938D01*
X96840690Y-91277824D01*
X96743512Y-91196281D01*
X96664022Y-91097416D01*
X96605249Y-90984994D01*
X96569432Y-90863298D01*
X96569428Y-90863259D01*
X96569426Y-90863251D01*
X96557933Y-90736964D01*
X96571188Y-90610849D01*
X96571191Y-90610840D01*
X96571195Y-90610799D01*
X96608708Y-90489615D01*
X96669045Y-90378025D01*
X96749907Y-90280279D01*
X96848214Y-90200101D01*
X96960223Y-90140545D01*
X97081667Y-90103879D01*
X97207919Y-90091500D01*
X98018118Y-90091500D01*
X98023972Y-90091541D01*
X98023972Y-90091541D01*
G37*
G36*
X123473972Y-90091541D02*
X123477156Y-90091563D01*
X123603224Y-90105704D01*
X123724143Y-90144062D01*
X123835310Y-90205176D01*
X123932488Y-90286719D01*
X124011978Y-90385584D01*
X124070751Y-90498006D01*
X124106568Y-90619702D01*
X124106572Y-90619741D01*
X124106574Y-90619749D01*
X124118067Y-90746036D01*
X124104812Y-90872151D01*
X124104809Y-90872160D01*
X124104805Y-90872201D01*
X124067292Y-90993385D01*
X124006955Y-91104975D01*
X123926093Y-91202721D01*
X123827786Y-91282899D01*
X123715777Y-91342455D01*
X123594333Y-91379121D01*
X123468081Y-91391500D01*
X122657882Y-91391500D01*
X122652028Y-91391459D01*
X122648844Y-91391437D01*
X122522776Y-91377296D01*
X122401857Y-91338938D01*
X122290690Y-91277824D01*
X122193512Y-91196281D01*
X122114022Y-91097416D01*
X122055249Y-90984994D01*
X122019432Y-90863298D01*
X122019428Y-90863259D01*
X122019426Y-90863251D01*
X122007933Y-90736964D01*
X122021188Y-90610849D01*
X122021191Y-90610840D01*
X122021195Y-90610799D01*
X122058708Y-90489615D01*
X122119045Y-90378025D01*
X122199907Y-90280279D01*
X122298214Y-90200101D01*
X122410223Y-90140545D01*
X122531667Y-90103879D01*
X122657919Y-90091500D01*
X123468118Y-90091500D01*
X123473972Y-90091541D01*
X123473972Y-90091541D01*
G37*
G36*
X95483972Y-90091541D02*
X95487156Y-90091563D01*
X95613224Y-90105704D01*
X95734143Y-90144062D01*
X95845310Y-90205176D01*
X95942488Y-90286719D01*
X96021978Y-90385584D01*
X96080751Y-90498006D01*
X96116568Y-90619702D01*
X96116572Y-90619741D01*
X96116574Y-90619749D01*
X96128067Y-90746036D01*
X96114812Y-90872151D01*
X96114809Y-90872160D01*
X96114805Y-90872201D01*
X96077292Y-90993385D01*
X96016955Y-91104975D01*
X95936093Y-91202721D01*
X95837786Y-91282899D01*
X95725777Y-91342455D01*
X95604333Y-91379121D01*
X95478081Y-91391500D01*
X94667882Y-91391500D01*
X94662028Y-91391459D01*
X94658844Y-91391437D01*
X94532776Y-91377296D01*
X94411857Y-91338938D01*
X94300690Y-91277824D01*
X94203512Y-91196281D01*
X94124022Y-91097416D01*
X94065249Y-90984994D01*
X94029432Y-90863298D01*
X94029428Y-90863259D01*
X94029426Y-90863251D01*
X94017933Y-90736964D01*
X94031188Y-90610849D01*
X94031191Y-90610840D01*
X94031195Y-90610799D01*
X94068708Y-90489615D01*
X94129045Y-90378025D01*
X94209907Y-90280279D01*
X94308214Y-90200101D01*
X94420223Y-90140545D01*
X94541667Y-90103879D01*
X94667919Y-90091500D01*
X95478118Y-90091500D01*
X95483972Y-90091541D01*
X95483972Y-90091541D01*
G37*
G36*
X159900600Y-90583500D02*
X157800600Y-90583500D01*
X157800600Y-89883500D01*
X159900600Y-89883500D01*
X159900600Y-90583500D01*
X159900600Y-90583500D01*
G37*
G36*
X169300600Y-90583500D02*
X167200600Y-90583500D01*
X167200600Y-89883500D01*
X169300600Y-89883500D01*
X169300600Y-90583500D01*
X169300600Y-90583500D01*
G37*
G36*
X149070782Y-87681131D02*
X149253284Y-87718593D01*
X149425029Y-87790788D01*
X149579483Y-87894968D01*
X149710762Y-88027167D01*
X149813862Y-88182344D01*
X149884856Y-88354589D01*
X149920975Y-88537004D01*
X149920975Y-88537014D01*
X149921041Y-88537348D01*
X149918070Y-88750143D01*
X149917994Y-88750477D01*
X149917994Y-88750489D01*
X149876798Y-88931816D01*
X149801019Y-89102016D01*
X149693628Y-89254254D01*
X149558707Y-89382737D01*
X149401408Y-89482561D01*
X149227710Y-89549935D01*
X149044238Y-89582285D01*
X148857974Y-89578384D01*
X148676011Y-89538377D01*
X148505289Y-89463790D01*
X148352306Y-89357464D01*
X148222885Y-89223446D01*
X148121965Y-89066848D01*
X148053381Y-88893625D01*
X148019748Y-88710376D01*
X148022350Y-88524091D01*
X148061084Y-88341860D01*
X148134479Y-88170618D01*
X148239735Y-88016896D01*
X148372846Y-87886543D01*
X148528738Y-87784530D01*
X148701477Y-87714739D01*
X148884479Y-87679830D01*
X149070782Y-87681131D01*
X149070782Y-87681131D01*
G37*
G36*
X159900600Y-89313500D02*
X157800600Y-89313500D01*
X157800600Y-88613500D01*
X159900600Y-88613500D01*
X159900600Y-89313500D01*
X159900600Y-89313500D01*
G37*
G36*
X169300600Y-89313500D02*
X167200600Y-89313500D01*
X167200600Y-88613500D01*
X169300600Y-88613500D01*
X169300600Y-89313500D01*
X169300600Y-89313500D01*
G37*
G36*
X95483972Y-87551541D02*
X95487156Y-87551563D01*
X95613224Y-87565704D01*
X95734143Y-87604062D01*
X95845310Y-87665176D01*
X95942488Y-87746719D01*
X96021978Y-87845584D01*
X96080751Y-87958006D01*
X96116568Y-88079702D01*
X96116572Y-88079741D01*
X96116574Y-88079749D01*
X96128067Y-88206036D01*
X96114812Y-88332151D01*
X96114809Y-88332160D01*
X96114805Y-88332201D01*
X96077292Y-88453385D01*
X96016955Y-88564975D01*
X95936093Y-88662721D01*
X95837786Y-88742899D01*
X95725777Y-88802455D01*
X95604333Y-88839121D01*
X95478081Y-88851500D01*
X94667882Y-88851500D01*
X94662028Y-88851459D01*
X94658844Y-88851437D01*
X94532776Y-88837296D01*
X94411857Y-88798938D01*
X94300690Y-88737824D01*
X94203512Y-88656281D01*
X94124022Y-88557416D01*
X94065249Y-88444994D01*
X94029432Y-88323298D01*
X94029428Y-88323259D01*
X94029426Y-88323251D01*
X94017933Y-88196964D01*
X94031188Y-88070849D01*
X94031191Y-88070840D01*
X94031195Y-88070799D01*
X94068708Y-87949615D01*
X94129045Y-87838025D01*
X94209907Y-87740279D01*
X94308214Y-87660101D01*
X94420223Y-87600545D01*
X94541667Y-87563879D01*
X94667919Y-87551500D01*
X95478118Y-87551500D01*
X95483972Y-87551541D01*
X95483972Y-87551541D01*
G37*
G36*
X126063972Y-87551541D02*
X126067156Y-87551563D01*
X126193224Y-87565704D01*
X126314143Y-87604062D01*
X126425310Y-87665176D01*
X126522488Y-87746719D01*
X126601978Y-87845584D01*
X126660751Y-87958006D01*
X126696568Y-88079702D01*
X126696572Y-88079741D01*
X126696574Y-88079749D01*
X126708067Y-88206036D01*
X126694812Y-88332151D01*
X126694809Y-88332160D01*
X126694805Y-88332201D01*
X126657292Y-88453385D01*
X126596955Y-88564975D01*
X126516093Y-88662721D01*
X126417786Y-88742899D01*
X126305777Y-88802455D01*
X126184333Y-88839121D01*
X126058081Y-88851500D01*
X125247882Y-88851500D01*
X125242028Y-88851459D01*
X125238844Y-88851437D01*
X125112776Y-88837296D01*
X124991857Y-88798938D01*
X124880690Y-88737824D01*
X124783512Y-88656281D01*
X124704022Y-88557416D01*
X124645249Y-88444994D01*
X124609432Y-88323298D01*
X124609428Y-88323259D01*
X124609426Y-88323251D01*
X124597933Y-88196964D01*
X124611188Y-88070849D01*
X124611191Y-88070840D01*
X124611195Y-88070799D01*
X124648708Y-87949615D01*
X124709045Y-87838025D01*
X124789907Y-87740279D01*
X124888214Y-87660101D01*
X125000223Y-87600545D01*
X125121667Y-87563879D01*
X125247919Y-87551500D01*
X126058118Y-87551500D01*
X126063972Y-87551541D01*
X126063972Y-87551541D01*
G37*
G36*
X98023972Y-87551541D02*
X98027156Y-87551563D01*
X98153224Y-87565704D01*
X98274143Y-87604062D01*
X98385310Y-87665176D01*
X98482488Y-87746719D01*
X98561978Y-87845584D01*
X98620751Y-87958006D01*
X98656568Y-88079702D01*
X98656572Y-88079741D01*
X98656574Y-88079749D01*
X98668067Y-88206036D01*
X98654812Y-88332151D01*
X98654809Y-88332160D01*
X98654805Y-88332201D01*
X98617292Y-88453385D01*
X98556955Y-88564975D01*
X98476093Y-88662721D01*
X98377786Y-88742899D01*
X98265777Y-88802455D01*
X98144333Y-88839121D01*
X98018081Y-88851500D01*
X97207882Y-88851500D01*
X97202028Y-88851459D01*
X97198844Y-88851437D01*
X97072776Y-88837296D01*
X96951857Y-88798938D01*
X96840690Y-88737824D01*
X96743512Y-88656281D01*
X96664022Y-88557416D01*
X96605249Y-88444994D01*
X96569432Y-88323298D01*
X96569428Y-88323259D01*
X96569426Y-88323251D01*
X96557933Y-88196964D01*
X96571188Y-88070849D01*
X96571191Y-88070840D01*
X96571195Y-88070799D01*
X96608708Y-87949615D01*
X96669045Y-87838025D01*
X96749907Y-87740279D01*
X96848214Y-87660101D01*
X96960223Y-87600545D01*
X97081667Y-87563879D01*
X97207919Y-87551500D01*
X98018118Y-87551500D01*
X98023972Y-87551541D01*
X98023972Y-87551541D01*
G37*
G36*
X123473972Y-87551541D02*
X123477156Y-87551563D01*
X123603224Y-87565704D01*
X123724143Y-87604062D01*
X123835310Y-87665176D01*
X123932488Y-87746719D01*
X124011978Y-87845584D01*
X124070751Y-87958006D01*
X124106568Y-88079702D01*
X124106572Y-88079741D01*
X124106574Y-88079749D01*
X124118067Y-88206036D01*
X124104812Y-88332151D01*
X124104809Y-88332160D01*
X124104805Y-88332201D01*
X124067292Y-88453385D01*
X124006955Y-88564975D01*
X123926093Y-88662721D01*
X123827786Y-88742899D01*
X123715777Y-88802455D01*
X123594333Y-88839121D01*
X123468081Y-88851500D01*
X122657882Y-88851500D01*
X122652028Y-88851459D01*
X122648844Y-88851437D01*
X122522776Y-88837296D01*
X122401857Y-88798938D01*
X122290690Y-88737824D01*
X122193512Y-88656281D01*
X122114022Y-88557416D01*
X122055249Y-88444994D01*
X122019432Y-88323298D01*
X122019428Y-88323259D01*
X122019426Y-88323251D01*
X122007933Y-88196964D01*
X122021188Y-88070849D01*
X122021191Y-88070840D01*
X122021195Y-88070799D01*
X122058708Y-87949615D01*
X122119045Y-87838025D01*
X122199907Y-87740279D01*
X122298214Y-87660101D01*
X122410223Y-87600545D01*
X122531667Y-87563879D01*
X122657919Y-87551500D01*
X123468118Y-87551500D01*
X123473972Y-87551541D01*
X123473972Y-87551541D01*
G37*
M02*
