G04 #@! TF.FileFunction,Copper,L2,Bot,Signal*
%FSLAX46Y46*%
G04 Gerber Fmt 4.6, Leading zero omitted, Abs format (unit mm)*
G04 Created by KiCad (PCBNEW 4.0.6) date 06/27/17 09:44:02*
%MOMM*%
%LPD*%
G01*
G04 APERTURE LIST*
%ADD10C,0.100000*%
%ADD11O,2.540000X2.032000*%
%ADD12O,1.510000X3.010000*%
%ADD13R,4.400000X2.000000*%
%ADD14R,3.700000X2.000000*%
%ADD15R,2.000000X4.000000*%
%ADD16C,4.064000*%
%ADD17R,0.600000X1.500000*%
%ADD18R,1.700000X1.700000*%
%ADD19O,1.700000X1.700000*%
%ADD20R,0.600000X2.000000*%
%ADD21R,1.200000X0.900000*%
%ADD22R,1.200000X0.750000*%
%ADD23O,2.000000X1.200000*%
%ADD24R,1.727200X1.727200*%
%ADD25O,1.727200X1.727200*%
%ADD26C,0.762000*%
%ADD27C,0.152400*%
%ADD28C,1.524000*%
%ADD29C,0.381000*%
%ADD30C,0.254000*%
G04 APERTURE END LIST*
D10*
D11*
X138176000Y-93535500D03*
X138176000Y-96075500D03*
X138176000Y-90995500D03*
D12*
X139001500Y-104838500D03*
X136461500Y-104838500D03*
X133921500Y-104838500D03*
D13*
X148971000Y-97630500D03*
D14*
X148971000Y-91630500D03*
D15*
X153471000Y-90630500D03*
X144471000Y-90630500D03*
D16*
X196088000Y-90106500D03*
X90043000Y-90106500D03*
X90043000Y-142811500D03*
X196088000Y-142811500D03*
X137998200Y-112509300D03*
D17*
X107505500Y-109758500D03*
X108775500Y-109758500D03*
X110045500Y-109758500D03*
X111315500Y-109758500D03*
X112585500Y-109758500D03*
X113855500Y-109758500D03*
X115125500Y-109758500D03*
X115125500Y-115158500D03*
X113855500Y-115158500D03*
X112585500Y-115158500D03*
X111315500Y-115158500D03*
X110045500Y-115158500D03*
X108775500Y-115158500D03*
X107505500Y-115158500D03*
D18*
X135763000Y-120650000D03*
D19*
X138303000Y-120650000D03*
X140843000Y-120650000D03*
X143383000Y-120650000D03*
D18*
X135699500Y-129730500D03*
D19*
X138239500Y-129730500D03*
X140779500Y-129730500D03*
X143319500Y-129730500D03*
D18*
X135699500Y-138620500D03*
D19*
X138239500Y-138620500D03*
X140779500Y-138620500D03*
X143319500Y-138620500D03*
D20*
X148971000Y-116140500D03*
X150241000Y-116140500D03*
X151511000Y-116140500D03*
X152781000Y-116140500D03*
X154051000Y-116140500D03*
X155321000Y-116140500D03*
X156591000Y-116140500D03*
X157861000Y-116140500D03*
X159131000Y-116140500D03*
X159131000Y-125540500D03*
X157861000Y-125540500D03*
X156591000Y-125540500D03*
X155321000Y-125540500D03*
X154051000Y-125540500D03*
X152781000Y-125540500D03*
X151511000Y-125540500D03*
X150241000Y-125540500D03*
X148971000Y-125540500D03*
D21*
X131592500Y-126111000D03*
X129392500Y-126111000D03*
X129392500Y-124142500D03*
X131592500Y-124142500D03*
X131529000Y-132842000D03*
X129329000Y-132842000D03*
X129329000Y-130873500D03*
X131529000Y-130873500D03*
X131529000Y-137223500D03*
X129329000Y-137223500D03*
X129329000Y-135128000D03*
X131529000Y-135128000D03*
X115717500Y-120142000D03*
X113517500Y-120142000D03*
X114447500Y-105854500D03*
X112247500Y-105854500D03*
X106723000Y-105854500D03*
X108923000Y-105854500D03*
X115717500Y-122491500D03*
X113517500Y-122491500D03*
X114447500Y-104076500D03*
X112247500Y-104076500D03*
X106723000Y-104076500D03*
X108923000Y-104076500D03*
X108501000Y-122491500D03*
X110701000Y-122491500D03*
D22*
X110487500Y-120078500D03*
X108587500Y-120078500D03*
D23*
X125653000Y-88201500D03*
X125653000Y-90741500D03*
X125653000Y-93281500D03*
X125653000Y-95821500D03*
X125653000Y-98361500D03*
X125653000Y-100901500D03*
X125653000Y-103441500D03*
X125653000Y-105981500D03*
X125653000Y-108521500D03*
X125653000Y-111061500D03*
X125653000Y-113601500D03*
X125653000Y-116141500D03*
X125653000Y-118681500D03*
X125653000Y-121221500D03*
X125653000Y-123761500D03*
X125653000Y-126301500D03*
X125653000Y-128841500D03*
X125653000Y-131381500D03*
X125653000Y-133921500D03*
X95073000Y-88201500D03*
X95073000Y-90741500D03*
X95073000Y-93281500D03*
X95073000Y-95821500D03*
X95073000Y-98361500D03*
X95073000Y-100901500D03*
X95073000Y-103441500D03*
X95073000Y-105981500D03*
X95073000Y-108521500D03*
X95073000Y-111061500D03*
X95073000Y-113601500D03*
X95073000Y-116141500D03*
X95073000Y-118681500D03*
X95073000Y-121221500D03*
X95073000Y-123761500D03*
X95073000Y-126301500D03*
X95073000Y-128841500D03*
X95073000Y-131381500D03*
X95073000Y-133921500D03*
X97613000Y-133921500D03*
X123063000Y-133921500D03*
X97613000Y-131381500D03*
X123063000Y-131381500D03*
X97613000Y-128841500D03*
X123063000Y-128841500D03*
X97613000Y-126301500D03*
X123063000Y-126301500D03*
X97613000Y-123761500D03*
X123063000Y-123761500D03*
X97613000Y-121221500D03*
X123063000Y-121221500D03*
X97613000Y-118681500D03*
X123063000Y-118681500D03*
X97613000Y-116141500D03*
X123063000Y-116141500D03*
X97613000Y-113601500D03*
X123063000Y-113601500D03*
X97613000Y-111061500D03*
X123063000Y-111061500D03*
X97613000Y-108521500D03*
X123063000Y-108521500D03*
X97613000Y-105981500D03*
X123063000Y-105981500D03*
X97613000Y-103441500D03*
X123063000Y-103441500D03*
X97613000Y-100901500D03*
X123063000Y-100901500D03*
X97613000Y-98361500D03*
X123063000Y-98361500D03*
X97613000Y-95821500D03*
X123063000Y-95821500D03*
X97613000Y-93281500D03*
X123063000Y-93281500D03*
X97613000Y-90741500D03*
X123063000Y-90741500D03*
X97613000Y-88201500D03*
X123063000Y-88201500D03*
D24*
X187198000Y-136461500D03*
D25*
X187198000Y-139001500D03*
X184658000Y-136461500D03*
X184658000Y-139001500D03*
X182118000Y-136461500D03*
X182118000Y-139001500D03*
X179578000Y-136461500D03*
X179578000Y-139001500D03*
X177038000Y-136461500D03*
X177038000Y-139001500D03*
D24*
X187198000Y-121221500D03*
D25*
X187198000Y-123761500D03*
X184658000Y-121221500D03*
X184658000Y-123761500D03*
X182118000Y-121221500D03*
X182118000Y-123761500D03*
X179578000Y-121221500D03*
X179578000Y-123761500D03*
X177038000Y-121221500D03*
X177038000Y-123761500D03*
D24*
X187198000Y-106616500D03*
D25*
X187198000Y-109156500D03*
X184658000Y-106616500D03*
X184658000Y-109156500D03*
X182118000Y-106616500D03*
X182118000Y-109156500D03*
X179578000Y-106616500D03*
X179578000Y-109156500D03*
X177038000Y-106616500D03*
X177038000Y-109156500D03*
D24*
X187198000Y-92011500D03*
D25*
X187198000Y-94551500D03*
X184658000Y-92011500D03*
X184658000Y-94551500D03*
X182118000Y-92011500D03*
X182118000Y-94551500D03*
X179578000Y-92011500D03*
X179578000Y-94551500D03*
X177038000Y-92011500D03*
X177038000Y-94551500D03*
D12*
X149123400Y-138620500D03*
X151663400Y-138620500D03*
X149174200Y-129171700D03*
X151714200Y-129171700D03*
D26*
X145859500Y-113284000D03*
X144843500Y-109283500D03*
X156908500Y-107759500D03*
X161417000Y-115062000D03*
X161607500Y-141986000D03*
X158877000Y-129476500D03*
X158877000Y-100647500D03*
X110807500Y-101981000D03*
X138874500Y-101155500D03*
X136080500Y-100203000D03*
X147320000Y-105854500D03*
X147320000Y-110109000D03*
X143510000Y-112585500D03*
X141541500Y-117475000D03*
X164084000Y-101536500D03*
X161607500Y-125476000D03*
X104648000Y-107251500D03*
X117856000Y-109791500D03*
X128841500Y-128016000D03*
X112077500Y-124714000D03*
X153797000Y-109982000D03*
X156273500Y-109982000D03*
X153543000Y-111125000D03*
X155638500Y-111188500D03*
X152844500Y-112395000D03*
X156146500Y-112395000D03*
D27*
X112585500Y-115158500D02*
X112585500Y-116967000D01*
X110487500Y-119065000D02*
X110487500Y-120078500D01*
X112585500Y-116967000D02*
X110487500Y-119065000D01*
X108501000Y-122491500D02*
X108501000Y-122065000D01*
X108501000Y-122065000D02*
X110487500Y-120078500D01*
X111379000Y-107886500D02*
X111379000Y-109728000D01*
X111379000Y-109728000D02*
X111442500Y-109791500D01*
X111379000Y-107886500D02*
X110553500Y-107061000D01*
X110553500Y-102235000D02*
X110807500Y-101981000D01*
X110553500Y-107061000D02*
X110553500Y-102235000D01*
X139192000Y-101155500D02*
X138874500Y-101155500D01*
X151511000Y-116140500D02*
X152781000Y-116140500D01*
X150241000Y-116140500D02*
X151511000Y-116140500D01*
X148971000Y-116140500D02*
X150241000Y-116140500D01*
X148844000Y-113855500D02*
X148844000Y-116013500D01*
X148844000Y-116013500D02*
X148971000Y-116140500D01*
X148844000Y-105092500D02*
X148844000Y-109093000D01*
X148844000Y-109093000D02*
X148844000Y-113855500D01*
X142430500Y-104394000D02*
X148145500Y-104394000D01*
X148145500Y-104394000D02*
X148844000Y-105092500D01*
X142430500Y-104394000D02*
X139192000Y-101155500D01*
X156591000Y-116140500D02*
X157861000Y-116140500D01*
X155321000Y-116140500D02*
X156591000Y-116140500D01*
X154051000Y-116140500D02*
X155321000Y-116140500D01*
X150050500Y-113982500D02*
X153733500Y-113982500D01*
X154051000Y-114300000D02*
X154051000Y-116140500D01*
X153733500Y-113982500D02*
X154051000Y-114300000D01*
X149352000Y-113284000D02*
X149352000Y-104902000D01*
X150050500Y-113982500D02*
X149352000Y-113284000D01*
X143033750Y-103981250D02*
X148431250Y-103981250D01*
X143033750Y-103981250D02*
X139255500Y-100203000D01*
X148431250Y-103981250D02*
X149352000Y-104902000D01*
X139255500Y-100203000D02*
X136080500Y-100203000D01*
X129392500Y-124142500D02*
X126034000Y-124142500D01*
X126034000Y-124142500D02*
X125653000Y-123761500D01*
X129392500Y-124142500D02*
X129392500Y-126111000D01*
X129329000Y-135128000D02*
X129329000Y-137223500D01*
X129329000Y-135128000D02*
X129095500Y-135128000D01*
X129095500Y-135128000D02*
X127444500Y-133477000D01*
X127444500Y-133477000D02*
X127444500Y-130633000D01*
X127444500Y-130633000D02*
X125653000Y-128841500D01*
X129329000Y-130873500D02*
X129286000Y-130873500D01*
X129286000Y-130873500D02*
X127444500Y-129032000D01*
X127444500Y-129032000D02*
X127444500Y-128093000D01*
X127444500Y-128093000D02*
X125653000Y-126301500D01*
X129329000Y-130873500D02*
X129329000Y-132842000D01*
X147320000Y-105854500D02*
X147320000Y-105791000D01*
X147320000Y-105791000D02*
X147320000Y-110109000D01*
X143510000Y-115506500D02*
X143510000Y-112585500D01*
X141541500Y-117475000D02*
X143510000Y-115506500D01*
D28*
X148971000Y-97630500D02*
X160178000Y-97630500D01*
X160178000Y-97630500D02*
X164084000Y-101536500D01*
D29*
X159195500Y-125476000D02*
X161607500Y-125476000D01*
X159195500Y-125476000D02*
X159131000Y-125540500D01*
X133921500Y-118745000D02*
X133921500Y-118808500D01*
X133921500Y-118808500D02*
X135763000Y-120650000D01*
X133921500Y-104838500D02*
X133921500Y-118745000D01*
X133921500Y-118745000D02*
X135763000Y-120586500D01*
X148971000Y-125540500D02*
X148144500Y-125540500D01*
X151663400Y-135915400D02*
X151663400Y-138620500D01*
X147129500Y-131381500D02*
X151663400Y-135915400D01*
X147129500Y-126555500D02*
X147129500Y-131381500D01*
X148144500Y-125540500D02*
X147129500Y-126555500D01*
X150241000Y-125540500D02*
X148971000Y-125540500D01*
X151511000Y-125540500D02*
X150241000Y-125540500D01*
X152781000Y-125540500D02*
X151511000Y-125540500D01*
X154051000Y-125540500D02*
X154051000Y-128460500D01*
X153339800Y-129171700D02*
X151714200Y-129171700D01*
X154051000Y-128460500D02*
X153339800Y-129171700D01*
X155321000Y-125540500D02*
X154051000Y-125540500D01*
X156591000Y-125540500D02*
X155321000Y-125540500D01*
X157861000Y-125540500D02*
X156591000Y-125540500D01*
D27*
X106723000Y-105854500D02*
X106723000Y-107802500D01*
X107505500Y-108585000D02*
X107505500Y-109758500D01*
X106723000Y-107802500D02*
X107505500Y-108585000D01*
X106723000Y-105854500D02*
X106045000Y-105854500D01*
X106045000Y-105854500D02*
X104648000Y-107251500D01*
X140779500Y-138620500D02*
X140779500Y-136779000D01*
X139128500Y-135128000D02*
X136080500Y-135128000D01*
X140779500Y-136779000D02*
X139128500Y-135128000D01*
X136080500Y-135128000D02*
X131529000Y-135128000D01*
X115252500Y-109791500D02*
X115252500Y-106659500D01*
X117856000Y-109791500D02*
X115252500Y-109791500D01*
X115252500Y-106659500D02*
X114447500Y-105854500D01*
X138239500Y-129159000D02*
X137096500Y-128016000D01*
X137096500Y-128016000D02*
X128841500Y-128016000D01*
X138239500Y-129730500D02*
X138239500Y-129159000D01*
X140779500Y-129730500D02*
X140779500Y-130810000D01*
X140779500Y-130810000D02*
X140493750Y-131095750D01*
X140493750Y-130016250D02*
X140779500Y-129730500D01*
X139382500Y-132207000D02*
X140493750Y-131095750D01*
X132842000Y-130873500D02*
X131529000Y-130873500D01*
X134175500Y-132207000D02*
X132842000Y-130873500D01*
X139382500Y-132207000D02*
X134175500Y-132207000D01*
X140589000Y-129857500D02*
X140716000Y-129730500D01*
X119761000Y-116141500D02*
X121031000Y-117411500D01*
X115125500Y-115158500D02*
X118778000Y-115158500D01*
X118778000Y-115158500D02*
X119761000Y-116141500D01*
X115125500Y-115158500D02*
X115125500Y-117919500D01*
X115717500Y-118511500D02*
X115717500Y-120142000D01*
X115125500Y-117919500D02*
X115717500Y-118511500D01*
X137477500Y-122618500D02*
X137922000Y-122618500D01*
X129540000Y-117411500D02*
X121031000Y-117411500D01*
X134747000Y-122618500D02*
X129540000Y-117411500D01*
X137477500Y-122618500D02*
X134747000Y-122618500D01*
X138303000Y-122237500D02*
X138303000Y-120650000D01*
X137922000Y-122618500D02*
X138303000Y-122237500D01*
X139763000Y-122174000D02*
X139763500Y-122174000D01*
X139763500Y-122174000D02*
X140843000Y-121094500D01*
X140843000Y-121094500D02*
X140843000Y-120650000D01*
X139763000Y-122174000D02*
X139763000Y-122174500D01*
X139763000Y-122174500D02*
X137795000Y-124142500D01*
X137795000Y-124142500D02*
X131592500Y-124142500D01*
X112077500Y-124714000D02*
X110701000Y-123337500D01*
X110701000Y-123337500D02*
X110701000Y-122491500D01*
X123063000Y-118681500D02*
X122936000Y-118681500D01*
X108923000Y-105854500D02*
X108923000Y-109611000D01*
X108923000Y-109611000D02*
X108775500Y-109758500D01*
X108923000Y-104076500D02*
X108923000Y-105854500D01*
X112247500Y-105854500D02*
X112247500Y-106723000D01*
X113855500Y-108331000D02*
X113855500Y-109758500D01*
X112247500Y-106723000D02*
X113855500Y-108331000D01*
X112247500Y-105854500D02*
X112247500Y-104076500D01*
X113855500Y-115158500D02*
X113855500Y-117919500D01*
X113517500Y-118257500D02*
X113517500Y-120142000D01*
X113855500Y-117919500D02*
X113517500Y-118257500D01*
X113517500Y-122491500D02*
X113517500Y-120142000D01*
X156273500Y-109982000D02*
X153797000Y-109982000D01*
X155575000Y-111125000D02*
X153543000Y-111125000D01*
X155638500Y-111188500D02*
X155575000Y-111125000D01*
X156146500Y-112395000D02*
X152844500Y-112395000D01*
X123063000Y-113601500D02*
X111633000Y-113601500D01*
X110045500Y-112014000D02*
X110045500Y-109758500D01*
X111633000Y-113601500D02*
X110045500Y-112014000D01*
X112585500Y-109758500D02*
X112585500Y-110807500D01*
X113093500Y-111315500D02*
X122809000Y-111315500D01*
X112585500Y-110807500D02*
X113093500Y-111315500D01*
X122809000Y-111315500D02*
X123063000Y-111061500D01*
D30*
G36*
X94083053Y-87109110D02*
X93709920Y-87418026D01*
X93483408Y-87846219D01*
X93479538Y-87883891D01*
X93604269Y-88074500D01*
X94946000Y-88074500D01*
X94946000Y-88054500D01*
X95200000Y-88054500D01*
X95200000Y-88074500D01*
X97486000Y-88074500D01*
X97486000Y-88054500D01*
X97740000Y-88054500D01*
X97740000Y-88074500D01*
X99081731Y-88074500D01*
X99206462Y-87883891D01*
X99202592Y-87846219D01*
X98976080Y-87418026D01*
X98602947Y-87109110D01*
X98269850Y-87006500D01*
X122429875Y-87006500D01*
X122158354Y-87060509D01*
X121757691Y-87328223D01*
X121489977Y-87728886D01*
X121395968Y-88201500D01*
X121489977Y-88674114D01*
X121757691Y-89074777D01*
X122158354Y-89342491D01*
X122630968Y-89436500D01*
X123495032Y-89436500D01*
X123967646Y-89342491D01*
X124358000Y-89081665D01*
X124748354Y-89342491D01*
X125220968Y-89436500D01*
X126085032Y-89436500D01*
X126557646Y-89342491D01*
X126958309Y-89074777D01*
X127226023Y-88674114D01*
X127234698Y-88630500D01*
X142823560Y-88630500D01*
X142823560Y-92630500D01*
X142867838Y-92865817D01*
X143006910Y-93081941D01*
X143219110Y-93226931D01*
X143471000Y-93277940D01*
X145471000Y-93277940D01*
X145706317Y-93233662D01*
X145922441Y-93094590D01*
X146067431Y-92882390D01*
X146118440Y-92630500D01*
X146118440Y-91916250D01*
X146486000Y-91916250D01*
X146486000Y-92756810D01*
X146582673Y-92990199D01*
X146761302Y-93168827D01*
X146994691Y-93265500D01*
X148685250Y-93265500D01*
X148844000Y-93106750D01*
X148844000Y-91757500D01*
X149098000Y-91757500D01*
X149098000Y-93106750D01*
X149256750Y-93265500D01*
X150947309Y-93265500D01*
X151180698Y-93168827D01*
X151359327Y-92990199D01*
X151456000Y-92756810D01*
X151456000Y-91916250D01*
X151297250Y-91757500D01*
X149098000Y-91757500D01*
X148844000Y-91757500D01*
X146644750Y-91757500D01*
X146486000Y-91916250D01*
X146118440Y-91916250D01*
X146118440Y-90504190D01*
X146486000Y-90504190D01*
X146486000Y-91344750D01*
X146644750Y-91503500D01*
X148844000Y-91503500D01*
X148844000Y-91483500D01*
X149098000Y-91483500D01*
X149098000Y-91503500D01*
X151297250Y-91503500D01*
X151456000Y-91344750D01*
X151456000Y-90504190D01*
X151359327Y-90270801D01*
X151180698Y-90092173D01*
X150947309Y-89995500D01*
X149687064Y-89995500D01*
X149839371Y-89932568D01*
X150271551Y-89501143D01*
X150505733Y-88937170D01*
X150506000Y-88630500D01*
X151823560Y-88630500D01*
X151823560Y-92630500D01*
X151867838Y-92865817D01*
X152006910Y-93081941D01*
X152219110Y-93226931D01*
X152471000Y-93277940D01*
X154471000Y-93277940D01*
X154706317Y-93233662D01*
X154922441Y-93094590D01*
X155067431Y-92882390D01*
X155118440Y-92630500D01*
X155118440Y-92011500D01*
X175510041Y-92011500D01*
X175624115Y-92584989D01*
X175948971Y-93071170D01*
X176263752Y-93281500D01*
X175948971Y-93491830D01*
X175624115Y-93978011D01*
X175510041Y-94551500D01*
X175624115Y-95124989D01*
X175948971Y-95611170D01*
X176435152Y-95936026D01*
X177008641Y-96050100D01*
X177067359Y-96050100D01*
X177640848Y-95936026D01*
X178127029Y-95611170D01*
X178308000Y-95340328D01*
X178488971Y-95611170D01*
X178975152Y-95936026D01*
X179548641Y-96050100D01*
X179607359Y-96050100D01*
X180180848Y-95936026D01*
X180667029Y-95611170D01*
X180848000Y-95340328D01*
X181028971Y-95611170D01*
X181515152Y-95936026D01*
X182088641Y-96050100D01*
X182147359Y-96050100D01*
X182720848Y-95936026D01*
X183207029Y-95611170D01*
X183388000Y-95340328D01*
X183568971Y-95611170D01*
X184055152Y-95936026D01*
X184628641Y-96050100D01*
X184687359Y-96050100D01*
X185260848Y-95936026D01*
X185747029Y-95611170D01*
X185928000Y-95340328D01*
X186108971Y-95611170D01*
X186595152Y-95936026D01*
X187168641Y-96050100D01*
X187227359Y-96050100D01*
X187800848Y-95936026D01*
X188287029Y-95611170D01*
X188611885Y-95124989D01*
X188725959Y-94551500D01*
X188611885Y-93978011D01*
X188287029Y-93491830D01*
X188273358Y-93482695D01*
X188296917Y-93478262D01*
X188513041Y-93339190D01*
X188658031Y-93126990D01*
X188709040Y-92875100D01*
X188709040Y-91147900D01*
X188664762Y-90912583D01*
X188525690Y-90696459D01*
X188435262Y-90634672D01*
X193420538Y-90634672D01*
X193825709Y-91615261D01*
X194575293Y-92366155D01*
X195555173Y-92773036D01*
X196616172Y-92773962D01*
X197596761Y-92368791D01*
X198347655Y-91619207D01*
X198754536Y-90639327D01*
X198755462Y-89578328D01*
X198350291Y-88597739D01*
X197600707Y-87846845D01*
X196620827Y-87439964D01*
X195559828Y-87439038D01*
X194579239Y-87844209D01*
X193828345Y-88593793D01*
X193421464Y-89573673D01*
X193420538Y-90634672D01*
X188435262Y-90634672D01*
X188313490Y-90551469D01*
X188061600Y-90500460D01*
X186334400Y-90500460D01*
X186099083Y-90544738D01*
X185882959Y-90683810D01*
X185737969Y-90896010D01*
X185729092Y-90939845D01*
X185260848Y-90626974D01*
X184687359Y-90512900D01*
X184628641Y-90512900D01*
X184055152Y-90626974D01*
X183568971Y-90951830D01*
X183388000Y-91222672D01*
X183207029Y-90951830D01*
X182720848Y-90626974D01*
X182147359Y-90512900D01*
X182088641Y-90512900D01*
X181515152Y-90626974D01*
X181028971Y-90951830D01*
X180848000Y-91222672D01*
X180667029Y-90951830D01*
X180180848Y-90626974D01*
X179607359Y-90512900D01*
X179548641Y-90512900D01*
X178975152Y-90626974D01*
X178488971Y-90951830D01*
X178308000Y-91222672D01*
X178127029Y-90951830D01*
X177640848Y-90626974D01*
X177067359Y-90512900D01*
X177008641Y-90512900D01*
X176435152Y-90626974D01*
X175948971Y-90951830D01*
X175624115Y-91438011D01*
X175510041Y-92011500D01*
X155118440Y-92011500D01*
X155118440Y-88630500D01*
X155074162Y-88395183D01*
X154935090Y-88179059D01*
X154722890Y-88034069D01*
X154471000Y-87983060D01*
X152471000Y-87983060D01*
X152235683Y-88027338D01*
X152019559Y-88166410D01*
X151874569Y-88378610D01*
X151823560Y-88630500D01*
X150506000Y-88630500D01*
X150506265Y-88326509D01*
X150273068Y-87762129D01*
X149841643Y-87329949D01*
X149277670Y-87095767D01*
X148667009Y-87095235D01*
X148102629Y-87328432D01*
X147670449Y-87759857D01*
X147436267Y-88323830D01*
X147435735Y-88934491D01*
X147668932Y-89498871D01*
X148100357Y-89931051D01*
X148255567Y-89995500D01*
X146994691Y-89995500D01*
X146761302Y-90092173D01*
X146582673Y-90270801D01*
X146486000Y-90504190D01*
X146118440Y-90504190D01*
X146118440Y-88630500D01*
X146074162Y-88395183D01*
X145935090Y-88179059D01*
X145722890Y-88034069D01*
X145471000Y-87983060D01*
X143471000Y-87983060D01*
X143235683Y-88027338D01*
X143019559Y-88166410D01*
X142874569Y-88378610D01*
X142823560Y-88630500D01*
X127234698Y-88630500D01*
X127320032Y-88201500D01*
X127226023Y-87728886D01*
X126958309Y-87328223D01*
X126557646Y-87060509D01*
X126286125Y-87006500D01*
X199188000Y-87006500D01*
X199188000Y-145911500D01*
X86308000Y-145911500D01*
X86308000Y-143339672D01*
X87375538Y-143339672D01*
X87780709Y-144320261D01*
X88530293Y-145071155D01*
X89510173Y-145478036D01*
X90571172Y-145478962D01*
X91551761Y-145073791D01*
X92302655Y-144324207D01*
X92709536Y-143344327D01*
X92709540Y-143339672D01*
X193420538Y-143339672D01*
X193825709Y-144320261D01*
X194575293Y-145071155D01*
X195555173Y-145478036D01*
X196616172Y-145478962D01*
X197596761Y-145073791D01*
X198347655Y-144324207D01*
X198754536Y-143344327D01*
X198755462Y-142283328D01*
X198350291Y-141302739D01*
X197600707Y-140551845D01*
X196620827Y-140144964D01*
X195559828Y-140144038D01*
X194579239Y-140549209D01*
X193828345Y-141298793D01*
X193421464Y-142278673D01*
X193420538Y-143339672D01*
X92709540Y-143339672D01*
X92710462Y-142283328D01*
X92305291Y-141302739D01*
X91555707Y-140551845D01*
X90575827Y-140144964D01*
X89514828Y-140144038D01*
X88534239Y-140549209D01*
X87783345Y-141298793D01*
X87376464Y-142278673D01*
X87375538Y-143339672D01*
X86308000Y-143339672D01*
X86308000Y-133921500D01*
X93405968Y-133921500D01*
X93499977Y-134394114D01*
X93767691Y-134794777D01*
X94168354Y-135062491D01*
X94640968Y-135156500D01*
X95505032Y-135156500D01*
X95977646Y-135062491D01*
X96343000Y-134818370D01*
X96708354Y-135062491D01*
X97180968Y-135156500D01*
X98045032Y-135156500D01*
X98517646Y-135062491D01*
X98918309Y-134794777D01*
X99186023Y-134394114D01*
X99280032Y-133921500D01*
X99186023Y-133448886D01*
X98918309Y-133048223D01*
X98517646Y-132780509D01*
X98045032Y-132686500D01*
X97180968Y-132686500D01*
X96708354Y-132780509D01*
X96343000Y-133024630D01*
X95977646Y-132780509D01*
X95505032Y-132686500D01*
X94640968Y-132686500D01*
X94168354Y-132780509D01*
X93767691Y-133048223D01*
X93499977Y-133448886D01*
X93405968Y-133921500D01*
X86308000Y-133921500D01*
X86308000Y-131381500D01*
X93405968Y-131381500D01*
X93499977Y-131854114D01*
X93767691Y-132254777D01*
X94168354Y-132522491D01*
X94640968Y-132616500D01*
X95505032Y-132616500D01*
X95977646Y-132522491D01*
X96343000Y-132278370D01*
X96708354Y-132522491D01*
X97180968Y-132616500D01*
X98045032Y-132616500D01*
X98517646Y-132522491D01*
X98918309Y-132254777D01*
X99186023Y-131854114D01*
X99280032Y-131381500D01*
X99186023Y-130908886D01*
X98918309Y-130508223D01*
X98517646Y-130240509D01*
X98045032Y-130146500D01*
X97180968Y-130146500D01*
X96708354Y-130240509D01*
X96343000Y-130484630D01*
X95977646Y-130240509D01*
X95505032Y-130146500D01*
X94640968Y-130146500D01*
X94168354Y-130240509D01*
X93767691Y-130508223D01*
X93499977Y-130908886D01*
X93405968Y-131381500D01*
X86308000Y-131381500D01*
X86308000Y-128841500D01*
X93405968Y-128841500D01*
X93499977Y-129314114D01*
X93767691Y-129714777D01*
X94168354Y-129982491D01*
X94640968Y-130076500D01*
X95505032Y-130076500D01*
X95977646Y-129982491D01*
X96343000Y-129738370D01*
X96708354Y-129982491D01*
X97180968Y-130076500D01*
X98045032Y-130076500D01*
X98517646Y-129982491D01*
X98918309Y-129714777D01*
X99186023Y-129314114D01*
X99280032Y-128841500D01*
X99186023Y-128368886D01*
X98918309Y-127968223D01*
X98517646Y-127700509D01*
X98045032Y-127606500D01*
X97180968Y-127606500D01*
X96708354Y-127700509D01*
X96343000Y-127944630D01*
X95977646Y-127700509D01*
X95505032Y-127606500D01*
X94640968Y-127606500D01*
X94168354Y-127700509D01*
X93767691Y-127968223D01*
X93499977Y-128368886D01*
X93405968Y-128841500D01*
X86308000Y-128841500D01*
X86308000Y-126301500D01*
X93405968Y-126301500D01*
X93499977Y-126774114D01*
X93767691Y-127174777D01*
X94168354Y-127442491D01*
X94640968Y-127536500D01*
X95505032Y-127536500D01*
X95977646Y-127442491D01*
X96343000Y-127198370D01*
X96708354Y-127442491D01*
X97180968Y-127536500D01*
X98045032Y-127536500D01*
X98517646Y-127442491D01*
X98918309Y-127174777D01*
X99186023Y-126774114D01*
X99280032Y-126301500D01*
X99186023Y-125828886D01*
X98918309Y-125428223D01*
X98517646Y-125160509D01*
X98045032Y-125066500D01*
X97180968Y-125066500D01*
X96708354Y-125160509D01*
X96343000Y-125404630D01*
X95977646Y-125160509D01*
X95505032Y-125066500D01*
X94640968Y-125066500D01*
X94168354Y-125160509D01*
X93767691Y-125428223D01*
X93499977Y-125828886D01*
X93405968Y-126301500D01*
X86308000Y-126301500D01*
X86308000Y-123761500D01*
X93405968Y-123761500D01*
X93499977Y-124234114D01*
X93767691Y-124634777D01*
X94168354Y-124902491D01*
X94640968Y-124996500D01*
X95505032Y-124996500D01*
X95977646Y-124902491D01*
X96343000Y-124658370D01*
X96708354Y-124902491D01*
X97180968Y-124996500D01*
X98045032Y-124996500D01*
X98517646Y-124902491D01*
X98918309Y-124634777D01*
X99186023Y-124234114D01*
X99280032Y-123761500D01*
X99186023Y-123288886D01*
X98918309Y-122888223D01*
X98517646Y-122620509D01*
X98045032Y-122526500D01*
X97180968Y-122526500D01*
X96708354Y-122620509D01*
X96343000Y-122864630D01*
X95977646Y-122620509D01*
X95505032Y-122526500D01*
X94640968Y-122526500D01*
X94168354Y-122620509D01*
X93767691Y-122888223D01*
X93499977Y-123288886D01*
X93405968Y-123761500D01*
X86308000Y-123761500D01*
X86308000Y-121221500D01*
X93405968Y-121221500D01*
X93499977Y-121694114D01*
X93767691Y-122094777D01*
X94168354Y-122362491D01*
X94640968Y-122456500D01*
X95505032Y-122456500D01*
X95977646Y-122362491D01*
X96343000Y-122118370D01*
X96708354Y-122362491D01*
X97180968Y-122456500D01*
X98045032Y-122456500D01*
X98517646Y-122362491D01*
X98918309Y-122094777D01*
X99186023Y-121694114D01*
X99280032Y-121221500D01*
X99186023Y-120748886D01*
X98918309Y-120348223D01*
X98517646Y-120080509D01*
X98045032Y-119986500D01*
X97180968Y-119986500D01*
X96708354Y-120080509D01*
X96343000Y-120324630D01*
X95977646Y-120080509D01*
X95505032Y-119986500D01*
X94640968Y-119986500D01*
X94168354Y-120080509D01*
X93767691Y-120348223D01*
X93499977Y-120748886D01*
X93405968Y-121221500D01*
X86308000Y-121221500D01*
X86308000Y-118681500D01*
X93405968Y-118681500D01*
X93499977Y-119154114D01*
X93767691Y-119554777D01*
X94168354Y-119822491D01*
X94640968Y-119916500D01*
X95505032Y-119916500D01*
X95977646Y-119822491D01*
X96343000Y-119578370D01*
X96708354Y-119822491D01*
X97180968Y-119916500D01*
X98045032Y-119916500D01*
X98517646Y-119822491D01*
X98884765Y-119577190D01*
X107352500Y-119577190D01*
X107352500Y-119792750D01*
X107511250Y-119951500D01*
X108460500Y-119951500D01*
X108460500Y-119227250D01*
X108301750Y-119068500D01*
X107861191Y-119068500D01*
X107627802Y-119165173D01*
X107449173Y-119343801D01*
X107352500Y-119577190D01*
X98884765Y-119577190D01*
X98918309Y-119554777D01*
X99186023Y-119154114D01*
X99280032Y-118681500D01*
X99186023Y-118208886D01*
X98918309Y-117808223D01*
X98517646Y-117540509D01*
X98045032Y-117446500D01*
X97180968Y-117446500D01*
X96708354Y-117540509D01*
X96343000Y-117784630D01*
X95977646Y-117540509D01*
X95505032Y-117446500D01*
X94640968Y-117446500D01*
X94168354Y-117540509D01*
X93767691Y-117808223D01*
X93499977Y-118208886D01*
X93405968Y-118681500D01*
X86308000Y-118681500D01*
X86308000Y-116141500D01*
X93405968Y-116141500D01*
X93499977Y-116614114D01*
X93767691Y-117014777D01*
X94168354Y-117282491D01*
X94640968Y-117376500D01*
X95505032Y-117376500D01*
X95977646Y-117282491D01*
X96343000Y-117038370D01*
X96708354Y-117282491D01*
X97180968Y-117376500D01*
X98045032Y-117376500D01*
X98517646Y-117282491D01*
X98918309Y-117014777D01*
X99186023Y-116614114D01*
X99280032Y-116141500D01*
X99186023Y-115668886D01*
X98918309Y-115268223D01*
X98517646Y-115000509D01*
X98045032Y-114906500D01*
X97180968Y-114906500D01*
X96708354Y-115000509D01*
X96343000Y-115244630D01*
X95977646Y-115000509D01*
X95505032Y-114906500D01*
X94640968Y-114906500D01*
X94168354Y-115000509D01*
X93767691Y-115268223D01*
X93499977Y-115668886D01*
X93405968Y-116141500D01*
X86308000Y-116141500D01*
X86308000Y-113601500D01*
X93405968Y-113601500D01*
X93499977Y-114074114D01*
X93767691Y-114474777D01*
X94168354Y-114742491D01*
X94640968Y-114836500D01*
X95505032Y-114836500D01*
X95977646Y-114742491D01*
X96343000Y-114498370D01*
X96708354Y-114742491D01*
X97180968Y-114836500D01*
X98045032Y-114836500D01*
X98517646Y-114742491D01*
X98918309Y-114474777D01*
X99186023Y-114074114D01*
X99280032Y-113601500D01*
X99186023Y-113128886D01*
X98918309Y-112728223D01*
X98517646Y-112460509D01*
X98045032Y-112366500D01*
X97180968Y-112366500D01*
X96708354Y-112460509D01*
X96343000Y-112704630D01*
X95977646Y-112460509D01*
X95505032Y-112366500D01*
X94640968Y-112366500D01*
X94168354Y-112460509D01*
X93767691Y-112728223D01*
X93499977Y-113128886D01*
X93405968Y-113601500D01*
X86308000Y-113601500D01*
X86308000Y-111061500D01*
X93405968Y-111061500D01*
X93499977Y-111534114D01*
X93767691Y-111934777D01*
X94168354Y-112202491D01*
X94640968Y-112296500D01*
X95505032Y-112296500D01*
X95977646Y-112202491D01*
X96343000Y-111958370D01*
X96708354Y-112202491D01*
X97180968Y-112296500D01*
X98045032Y-112296500D01*
X98517646Y-112202491D01*
X98918309Y-111934777D01*
X99186023Y-111534114D01*
X99280032Y-111061500D01*
X99186023Y-110588886D01*
X98918309Y-110188223D01*
X98517646Y-109920509D01*
X98045032Y-109826500D01*
X97180968Y-109826500D01*
X96708354Y-109920509D01*
X96343000Y-110164630D01*
X95977646Y-109920509D01*
X95505032Y-109826500D01*
X94640968Y-109826500D01*
X94168354Y-109920509D01*
X93767691Y-110188223D01*
X93499977Y-110588886D01*
X93405968Y-111061500D01*
X86308000Y-111061500D01*
X86308000Y-108521500D01*
X93405968Y-108521500D01*
X93499977Y-108994114D01*
X93767691Y-109394777D01*
X94168354Y-109662491D01*
X94640968Y-109756500D01*
X95505032Y-109756500D01*
X95977646Y-109662491D01*
X96343000Y-109418370D01*
X96708354Y-109662491D01*
X97180968Y-109756500D01*
X98045032Y-109756500D01*
X98517646Y-109662491D01*
X98918309Y-109394777D01*
X99186023Y-108994114D01*
X99280032Y-108521500D01*
X99186023Y-108048886D01*
X98918309Y-107648223D01*
X98625700Y-107452708D01*
X103631824Y-107452708D01*
X103786175Y-107826266D01*
X104071731Y-108112321D01*
X104445018Y-108267324D01*
X104849208Y-108267676D01*
X105222766Y-108113325D01*
X105508821Y-107827769D01*
X105663824Y-107454482D01*
X105664010Y-107241279D01*
X105981918Y-106923370D01*
X106011800Y-106929421D01*
X106011800Y-107802500D01*
X106065937Y-108074665D01*
X106220106Y-108305394D01*
X106634339Y-108719627D01*
X106609069Y-108756610D01*
X106558060Y-109008500D01*
X106558060Y-110508500D01*
X106602338Y-110743817D01*
X106741410Y-110959941D01*
X106953610Y-111104931D01*
X107205500Y-111155940D01*
X107805500Y-111155940D01*
X108040817Y-111111662D01*
X108140028Y-111047822D01*
X108223610Y-111104931D01*
X108475500Y-111155940D01*
X109075500Y-111155940D01*
X109310817Y-111111662D01*
X109334300Y-111096551D01*
X109334300Y-112014000D01*
X109388437Y-112286165D01*
X109542606Y-112516894D01*
X110825566Y-113799854D01*
X110672378Y-113863306D01*
X110597390Y-113812069D01*
X110345500Y-113761060D01*
X109745500Y-113761060D01*
X109510183Y-113805338D01*
X109410972Y-113869178D01*
X109327390Y-113812069D01*
X109075500Y-113761060D01*
X108475500Y-113761060D01*
X108240183Y-113805338D01*
X108140972Y-113869178D01*
X108057390Y-113812069D01*
X107805500Y-113761060D01*
X107205500Y-113761060D01*
X106970183Y-113805338D01*
X106754059Y-113944410D01*
X106609069Y-114156610D01*
X106558060Y-114408500D01*
X106558060Y-115908500D01*
X106602338Y-116143817D01*
X106741410Y-116359941D01*
X106953610Y-116504931D01*
X107205500Y-116555940D01*
X107805500Y-116555940D01*
X108040817Y-116511662D01*
X108140028Y-116447822D01*
X108223610Y-116504931D01*
X108475500Y-116555940D01*
X109075500Y-116555940D01*
X109310817Y-116511662D01*
X109410028Y-116447822D01*
X109493610Y-116504931D01*
X109745500Y-116555940D01*
X110345500Y-116555940D01*
X110580817Y-116511662D01*
X110671480Y-116453322D01*
X110889190Y-116543500D01*
X111029750Y-116543500D01*
X111188500Y-116384750D01*
X111188500Y-115285500D01*
X111168500Y-115285500D01*
X111168500Y-115031500D01*
X111188500Y-115031500D01*
X111188500Y-115011500D01*
X111442500Y-115011500D01*
X111442500Y-115031500D01*
X111462500Y-115031500D01*
X111462500Y-115285500D01*
X111442500Y-115285500D01*
X111442500Y-116384750D01*
X111601250Y-116543500D01*
X111741810Y-116543500D01*
X111874300Y-116488621D01*
X111874300Y-116672412D01*
X109984606Y-118562106D01*
X109830437Y-118792835D01*
X109830437Y-118792836D01*
X109776300Y-119065000D01*
X109776300Y-119076984D01*
X109652183Y-119100338D01*
X109548854Y-119166829D01*
X109547198Y-119165173D01*
X109313809Y-119068500D01*
X108873250Y-119068500D01*
X108714500Y-119227250D01*
X108714500Y-119951500D01*
X108734500Y-119951500D01*
X108734500Y-120205500D01*
X108714500Y-120205500D01*
X108714500Y-120225500D01*
X108460500Y-120225500D01*
X108460500Y-120205500D01*
X107511250Y-120205500D01*
X107352500Y-120364250D01*
X107352500Y-120579810D01*
X107449173Y-120813199D01*
X107627802Y-120991827D01*
X107861191Y-121088500D01*
X108301750Y-121088500D01*
X108460498Y-120929752D01*
X108460498Y-121088500D01*
X108471712Y-121088500D01*
X108166152Y-121394060D01*
X107901000Y-121394060D01*
X107665683Y-121438338D01*
X107449559Y-121577410D01*
X107304569Y-121789610D01*
X107253560Y-122041500D01*
X107253560Y-122941500D01*
X107297838Y-123176817D01*
X107436910Y-123392941D01*
X107649110Y-123537931D01*
X107901000Y-123588940D01*
X109101000Y-123588940D01*
X109336317Y-123544662D01*
X109552441Y-123405590D01*
X109600134Y-123335789D01*
X109636910Y-123392941D01*
X109849110Y-123537931D01*
X110037246Y-123576030D01*
X110043937Y-123609665D01*
X110198106Y-123840394D01*
X111061508Y-124703796D01*
X111061324Y-124915208D01*
X111215675Y-125288766D01*
X111501231Y-125574821D01*
X111874518Y-125729824D01*
X112278708Y-125730176D01*
X112652266Y-125575825D01*
X112938321Y-125290269D01*
X113093324Y-124916982D01*
X113093676Y-124512792D01*
X112939325Y-124139234D01*
X112653769Y-123853179D01*
X112280482Y-123698176D01*
X112067278Y-123697990D01*
X111761549Y-123392261D01*
X111897431Y-123193390D01*
X111948440Y-122941500D01*
X111948440Y-122041500D01*
X111904162Y-121806183D01*
X111765090Y-121590059D01*
X111552890Y-121445069D01*
X111301000Y-121394060D01*
X110177729Y-121394060D01*
X110470849Y-121100940D01*
X111087500Y-121100940D01*
X111322817Y-121056662D01*
X111538941Y-120917590D01*
X111683931Y-120705390D01*
X111734940Y-120453500D01*
X111734940Y-119703500D01*
X111690662Y-119468183D01*
X111551590Y-119252059D01*
X111405826Y-119152462D01*
X113088394Y-117469894D01*
X113144300Y-117386225D01*
X113144300Y-117624912D01*
X113014606Y-117754606D01*
X112860437Y-117985335D01*
X112819396Y-118191664D01*
X112806300Y-118257500D01*
X112806300Y-119065484D01*
X112682183Y-119088838D01*
X112466059Y-119227910D01*
X112321069Y-119440110D01*
X112270060Y-119692000D01*
X112270060Y-120592000D01*
X112314338Y-120827317D01*
X112453410Y-121043441D01*
X112665610Y-121188431D01*
X112806300Y-121216921D01*
X112806300Y-121414984D01*
X112682183Y-121438338D01*
X112466059Y-121577410D01*
X112321069Y-121789610D01*
X112270060Y-122041500D01*
X112270060Y-122941500D01*
X112314338Y-123176817D01*
X112453410Y-123392941D01*
X112665610Y-123537931D01*
X112917500Y-123588940D01*
X114117500Y-123588940D01*
X114352817Y-123544662D01*
X114568941Y-123405590D01*
X114615469Y-123337494D01*
X114757802Y-123479827D01*
X114991191Y-123576500D01*
X115431750Y-123576500D01*
X115590500Y-123417750D01*
X115590500Y-122618500D01*
X115844500Y-122618500D01*
X115844500Y-123417750D01*
X116003250Y-123576500D01*
X116443809Y-123576500D01*
X116677198Y-123479827D01*
X116855827Y-123301199D01*
X116952500Y-123067810D01*
X116952500Y-122777250D01*
X116793750Y-122618500D01*
X115844500Y-122618500D01*
X115590500Y-122618500D01*
X115570500Y-122618500D01*
X115570500Y-122364500D01*
X115590500Y-122364500D01*
X115590500Y-121565250D01*
X115844500Y-121565250D01*
X115844500Y-122364500D01*
X116793750Y-122364500D01*
X116952500Y-122205750D01*
X116952500Y-121915190D01*
X116855827Y-121681801D01*
X116677198Y-121503173D01*
X116443809Y-121406500D01*
X116003250Y-121406500D01*
X115844500Y-121565250D01*
X115590500Y-121565250D01*
X115431750Y-121406500D01*
X114991191Y-121406500D01*
X114757802Y-121503173D01*
X114616564Y-121644410D01*
X114581590Y-121590059D01*
X114369390Y-121445069D01*
X114228700Y-121416579D01*
X114228700Y-121218516D01*
X114352817Y-121195162D01*
X114568941Y-121056090D01*
X114616634Y-120986289D01*
X114653410Y-121043441D01*
X114865610Y-121188431D01*
X115117500Y-121239440D01*
X116317500Y-121239440D01*
X116412842Y-121221500D01*
X121395968Y-121221500D01*
X121489977Y-121694114D01*
X121757691Y-122094777D01*
X122158354Y-122362491D01*
X122630968Y-122456500D01*
X123495032Y-122456500D01*
X123967646Y-122362491D01*
X124358000Y-122101665D01*
X124748354Y-122362491D01*
X125220968Y-122456500D01*
X126085032Y-122456500D01*
X126557646Y-122362491D01*
X126958309Y-122094777D01*
X127226023Y-121694114D01*
X127320032Y-121221500D01*
X127226023Y-120748886D01*
X126958309Y-120348223D01*
X126557646Y-120080509D01*
X126085032Y-119986500D01*
X125220968Y-119986500D01*
X124748354Y-120080509D01*
X124358000Y-120341335D01*
X123967646Y-120080509D01*
X123495032Y-119986500D01*
X122630968Y-119986500D01*
X122158354Y-120080509D01*
X121757691Y-120348223D01*
X121489977Y-120748886D01*
X121395968Y-121221500D01*
X116412842Y-121221500D01*
X116552817Y-121195162D01*
X116768941Y-121056090D01*
X116913931Y-120843890D01*
X116964940Y-120592000D01*
X116964940Y-119692000D01*
X116920662Y-119456683D01*
X116781590Y-119240559D01*
X116569390Y-119095569D01*
X116428700Y-119067079D01*
X116428700Y-118511500D01*
X116374563Y-118239336D01*
X116322410Y-118161283D01*
X116220394Y-118008605D01*
X115836700Y-117624912D01*
X115836700Y-116398484D01*
X115876941Y-116372590D01*
X116021931Y-116160390D01*
X116072940Y-115908500D01*
X116072940Y-115869700D01*
X118483412Y-115869700D01*
X119258106Y-116644394D01*
X120528105Y-117914394D01*
X120758835Y-118068563D01*
X120803990Y-118077545D01*
X121031000Y-118122700D01*
X121547565Y-118122700D01*
X121489977Y-118208886D01*
X121395968Y-118681500D01*
X121489977Y-119154114D01*
X121757691Y-119554777D01*
X122158354Y-119822491D01*
X122630968Y-119916500D01*
X123495032Y-119916500D01*
X123967646Y-119822491D01*
X124358000Y-119561665D01*
X124748354Y-119822491D01*
X125220968Y-119916500D01*
X126085032Y-119916500D01*
X126557646Y-119822491D01*
X126958309Y-119554777D01*
X127226023Y-119154114D01*
X127320032Y-118681500D01*
X127226023Y-118208886D01*
X127168435Y-118122700D01*
X129245412Y-118122700D01*
X134244106Y-123121394D01*
X134474835Y-123275563D01*
X134747000Y-123329700D01*
X137602012Y-123329700D01*
X137500412Y-123431300D01*
X132779007Y-123431300D01*
X132656590Y-123241059D01*
X132444390Y-123096069D01*
X132192500Y-123045060D01*
X130992500Y-123045060D01*
X130757183Y-123089338D01*
X130541059Y-123228410D01*
X130493366Y-123298211D01*
X130456590Y-123241059D01*
X130244390Y-123096069D01*
X129992500Y-123045060D01*
X128792500Y-123045060D01*
X128557183Y-123089338D01*
X128341059Y-123228410D01*
X128202430Y-123431300D01*
X127254351Y-123431300D01*
X127226023Y-123288886D01*
X126958309Y-122888223D01*
X126557646Y-122620509D01*
X126085032Y-122526500D01*
X125220968Y-122526500D01*
X124748354Y-122620509D01*
X124358000Y-122881335D01*
X123967646Y-122620509D01*
X123495032Y-122526500D01*
X122630968Y-122526500D01*
X122158354Y-122620509D01*
X121757691Y-122888223D01*
X121489977Y-123288886D01*
X121395968Y-123761500D01*
X121489977Y-124234114D01*
X121757691Y-124634777D01*
X122158354Y-124902491D01*
X122630968Y-124996500D01*
X123495032Y-124996500D01*
X123967646Y-124902491D01*
X124358000Y-124641665D01*
X124748354Y-124902491D01*
X125220968Y-124996500D01*
X126085032Y-124996500D01*
X126557646Y-124902491D01*
X126630667Y-124853700D01*
X128205993Y-124853700D01*
X128328410Y-125043941D01*
X128449841Y-125126911D01*
X128341059Y-125196910D01*
X128196069Y-125409110D01*
X128145060Y-125661000D01*
X128145060Y-126561000D01*
X128189338Y-126796317D01*
X128328410Y-127012441D01*
X128434433Y-127084883D01*
X128266734Y-127154175D01*
X127980679Y-127439731D01*
X127926793Y-127569504D01*
X127188123Y-126830835D01*
X127226023Y-126774114D01*
X127320032Y-126301500D01*
X127226023Y-125828886D01*
X126958309Y-125428223D01*
X126557646Y-125160509D01*
X126085032Y-125066500D01*
X125220968Y-125066500D01*
X124748354Y-125160509D01*
X124358000Y-125421335D01*
X123967646Y-125160509D01*
X123495032Y-125066500D01*
X122630968Y-125066500D01*
X122158354Y-125160509D01*
X121757691Y-125428223D01*
X121489977Y-125828886D01*
X121395968Y-126301500D01*
X121489977Y-126774114D01*
X121757691Y-127174777D01*
X122158354Y-127442491D01*
X122630968Y-127536500D01*
X123495032Y-127536500D01*
X123967646Y-127442491D01*
X124358000Y-127181665D01*
X124748354Y-127442491D01*
X125220968Y-127536500D01*
X125882212Y-127536500D01*
X125952212Y-127606500D01*
X125220968Y-127606500D01*
X124748354Y-127700509D01*
X124358000Y-127961335D01*
X123967646Y-127700509D01*
X123495032Y-127606500D01*
X122630968Y-127606500D01*
X122158354Y-127700509D01*
X121757691Y-127968223D01*
X121489977Y-128368886D01*
X121395968Y-128841500D01*
X121489977Y-129314114D01*
X121757691Y-129714777D01*
X122158354Y-129982491D01*
X122630968Y-130076500D01*
X123495032Y-130076500D01*
X123967646Y-129982491D01*
X124358000Y-129721665D01*
X124748354Y-129982491D01*
X125220968Y-130076500D01*
X125882212Y-130076500D01*
X125952212Y-130146500D01*
X125220968Y-130146500D01*
X124748354Y-130240509D01*
X124358000Y-130501335D01*
X123967646Y-130240509D01*
X123495032Y-130146500D01*
X122630968Y-130146500D01*
X122158354Y-130240509D01*
X121757691Y-130508223D01*
X121489977Y-130908886D01*
X121395968Y-131381500D01*
X121489977Y-131854114D01*
X121757691Y-132254777D01*
X122158354Y-132522491D01*
X122630968Y-132616500D01*
X123495032Y-132616500D01*
X123967646Y-132522491D01*
X124358000Y-132261665D01*
X124748354Y-132522491D01*
X125220968Y-132616500D01*
X126085032Y-132616500D01*
X126557646Y-132522491D01*
X126733300Y-132405123D01*
X126733300Y-132897877D01*
X126557646Y-132780509D01*
X126085032Y-132686500D01*
X125220968Y-132686500D01*
X124748354Y-132780509D01*
X124358000Y-133041335D01*
X123967646Y-132780509D01*
X123495032Y-132686500D01*
X122630968Y-132686500D01*
X122158354Y-132780509D01*
X121757691Y-133048223D01*
X121489977Y-133448886D01*
X121395968Y-133921500D01*
X121489977Y-134394114D01*
X121757691Y-134794777D01*
X122158354Y-135062491D01*
X122630968Y-135156500D01*
X123495032Y-135156500D01*
X123967646Y-135062491D01*
X124358000Y-134801665D01*
X124748354Y-135062491D01*
X125220968Y-135156500D01*
X126085032Y-135156500D01*
X126557646Y-135062491D01*
X126958309Y-134794777D01*
X127226023Y-134394114D01*
X127247559Y-134285847D01*
X128081560Y-135119849D01*
X128081560Y-135578000D01*
X128125838Y-135813317D01*
X128264910Y-136029441D01*
X128477110Y-136174431D01*
X128484878Y-136176004D01*
X128277559Y-136309410D01*
X128132569Y-136521610D01*
X128081560Y-136773500D01*
X128081560Y-137673500D01*
X128125838Y-137908817D01*
X128264910Y-138124941D01*
X128477110Y-138269931D01*
X128729000Y-138320940D01*
X129929000Y-138320940D01*
X130164317Y-138276662D01*
X130380441Y-138137590D01*
X130426969Y-138069494D01*
X130569302Y-138211827D01*
X130802691Y-138308500D01*
X131243250Y-138308500D01*
X131402000Y-138149750D01*
X131402000Y-137350500D01*
X131656000Y-137350500D01*
X131656000Y-138149750D01*
X131814750Y-138308500D01*
X132255309Y-138308500D01*
X132488698Y-138211827D01*
X132667327Y-138033199D01*
X132764000Y-137799810D01*
X132764000Y-137509250D01*
X132605250Y-137350500D01*
X131656000Y-137350500D01*
X131402000Y-137350500D01*
X131382000Y-137350500D01*
X131382000Y-137096500D01*
X131402000Y-137096500D01*
X131402000Y-137076500D01*
X131656000Y-137076500D01*
X131656000Y-137096500D01*
X132605250Y-137096500D01*
X132764000Y-136937750D01*
X132764000Y-136647190D01*
X132667327Y-136413801D01*
X132488698Y-136235173D01*
X132360182Y-136181940D01*
X132364317Y-136181162D01*
X132580441Y-136042090D01*
X132719070Y-135839200D01*
X138833912Y-135839200D01*
X140068300Y-137073589D01*
X140068300Y-137314939D01*
X139729446Y-137541353D01*
X139509500Y-137870526D01*
X139289554Y-137541353D01*
X138807785Y-137219446D01*
X138239500Y-137106407D01*
X137671215Y-137219446D01*
X137189446Y-137541353D01*
X137161650Y-137582952D01*
X137152662Y-137535183D01*
X137013590Y-137319059D01*
X136801390Y-137174069D01*
X136549500Y-137123060D01*
X134849500Y-137123060D01*
X134614183Y-137167338D01*
X134398059Y-137306410D01*
X134253069Y-137518610D01*
X134202060Y-137770500D01*
X134202060Y-139470500D01*
X134246338Y-139705817D01*
X134385410Y-139921941D01*
X134597610Y-140066931D01*
X134849500Y-140117940D01*
X136549500Y-140117940D01*
X136784817Y-140073662D01*
X137000941Y-139934590D01*
X137145931Y-139722390D01*
X137159586Y-139654959D01*
X137189446Y-139699647D01*
X137671215Y-140021554D01*
X138239500Y-140134593D01*
X138807785Y-140021554D01*
X139289554Y-139699647D01*
X139509500Y-139370474D01*
X139729446Y-139699647D01*
X140211215Y-140021554D01*
X140779500Y-140134593D01*
X141347785Y-140021554D01*
X141829554Y-139699647D01*
X142057202Y-139358947D01*
X142124317Y-139501858D01*
X142552576Y-139892145D01*
X142962610Y-140061976D01*
X143192500Y-139940655D01*
X143192500Y-138747500D01*
X143446500Y-138747500D01*
X143446500Y-139940655D01*
X143676390Y-140061976D01*
X144086424Y-139892145D01*
X144514683Y-139501858D01*
X144760986Y-138977392D01*
X144640319Y-138747500D01*
X143446500Y-138747500D01*
X143192500Y-138747500D01*
X143172500Y-138747500D01*
X143172500Y-138493500D01*
X143192500Y-138493500D01*
X143192500Y-137300345D01*
X143446500Y-137300345D01*
X143446500Y-138493500D01*
X144640319Y-138493500D01*
X144760986Y-138263608D01*
X144514683Y-137739142D01*
X144086424Y-137348855D01*
X143676390Y-137179024D01*
X143446500Y-137300345D01*
X143192500Y-137300345D01*
X142962610Y-137179024D01*
X142552576Y-137348855D01*
X142124317Y-137739142D01*
X142057202Y-137882053D01*
X141829554Y-137541353D01*
X141490700Y-137314939D01*
X141490700Y-136779000D01*
X141436563Y-136506836D01*
X141431405Y-136499117D01*
X141282395Y-136276106D01*
X139631394Y-134625106D01*
X139400665Y-134470937D01*
X139128500Y-134416800D01*
X132715507Y-134416800D01*
X132593090Y-134226559D01*
X132380890Y-134081569D01*
X132129000Y-134030560D01*
X130929000Y-134030560D01*
X130693683Y-134074838D01*
X130477559Y-134213910D01*
X130429866Y-134283711D01*
X130393090Y-134226559D01*
X130180890Y-134081569D01*
X129929000Y-134030560D01*
X129003849Y-134030560D01*
X128912729Y-133939440D01*
X129929000Y-133939440D01*
X130164317Y-133895162D01*
X130380441Y-133756090D01*
X130426969Y-133687994D01*
X130569302Y-133830327D01*
X130802691Y-133927000D01*
X131243250Y-133927000D01*
X131402000Y-133768250D01*
X131402000Y-132969000D01*
X131656000Y-132969000D01*
X131656000Y-133768250D01*
X131814750Y-133927000D01*
X132255309Y-133927000D01*
X132488698Y-133830327D01*
X132667327Y-133651699D01*
X132764000Y-133418310D01*
X132764000Y-133127750D01*
X132605250Y-132969000D01*
X131656000Y-132969000D01*
X131402000Y-132969000D01*
X131382000Y-132969000D01*
X131382000Y-132715000D01*
X131402000Y-132715000D01*
X131402000Y-132695000D01*
X131656000Y-132695000D01*
X131656000Y-132715000D01*
X132605250Y-132715000D01*
X132764000Y-132556250D01*
X132764000Y-132265690D01*
X132667327Y-132032301D01*
X132488698Y-131853673D01*
X132482034Y-131850913D01*
X132580441Y-131787590D01*
X132649391Y-131686679D01*
X133672606Y-132709894D01*
X133903335Y-132864063D01*
X134175500Y-132918200D01*
X139382500Y-132918200D01*
X139654665Y-132864063D01*
X139885394Y-132709894D01*
X140996644Y-131598644D01*
X141282395Y-131312894D01*
X141436563Y-131082164D01*
X141438841Y-131070713D01*
X141829554Y-130809647D01*
X142057202Y-130468947D01*
X142124317Y-130611858D01*
X142552576Y-131002145D01*
X142962610Y-131171976D01*
X143192500Y-131050655D01*
X143192500Y-129857500D01*
X143446500Y-129857500D01*
X143446500Y-131050655D01*
X143676390Y-131171976D01*
X144086424Y-131002145D01*
X144514683Y-130611858D01*
X144760986Y-130087392D01*
X144640319Y-129857500D01*
X143446500Y-129857500D01*
X143192500Y-129857500D01*
X143172500Y-129857500D01*
X143172500Y-129603500D01*
X143192500Y-129603500D01*
X143192500Y-128410345D01*
X143446500Y-128410345D01*
X143446500Y-129603500D01*
X144640319Y-129603500D01*
X144760986Y-129373608D01*
X144514683Y-128849142D01*
X144086424Y-128458855D01*
X143676390Y-128289024D01*
X143446500Y-128410345D01*
X143192500Y-128410345D01*
X142962610Y-128289024D01*
X142552576Y-128458855D01*
X142124317Y-128849142D01*
X142057202Y-128992053D01*
X141829554Y-128651353D01*
X141347785Y-128329446D01*
X140779500Y-128216407D01*
X140211215Y-128329446D01*
X139729446Y-128651353D01*
X139509500Y-128980526D01*
X139289554Y-128651353D01*
X138807785Y-128329446D01*
X138318387Y-128232099D01*
X137599394Y-127513106D01*
X137368665Y-127358937D01*
X137096500Y-127304800D01*
X129567129Y-127304800D01*
X129470937Y-127208440D01*
X129992500Y-127208440D01*
X130227817Y-127164162D01*
X130443941Y-127025090D01*
X130490469Y-126956994D01*
X130632802Y-127099327D01*
X130866191Y-127196000D01*
X131306750Y-127196000D01*
X131465500Y-127037250D01*
X131465500Y-126238000D01*
X131719500Y-126238000D01*
X131719500Y-127037250D01*
X131878250Y-127196000D01*
X132318809Y-127196000D01*
X132552198Y-127099327D01*
X132730827Y-126920699D01*
X132827500Y-126687310D01*
X132827500Y-126555500D01*
X146304000Y-126555500D01*
X146304000Y-131381500D01*
X146366837Y-131697406D01*
X146545783Y-131965217D01*
X150837900Y-136257334D01*
X150837900Y-136740540D01*
X150680522Y-136845697D01*
X150393400Y-137275404D01*
X150106278Y-136845697D01*
X149655330Y-136544382D01*
X149123400Y-136438575D01*
X148591470Y-136544382D01*
X148140522Y-136845697D01*
X147839207Y-137296645D01*
X147733400Y-137828575D01*
X147733400Y-139412425D01*
X147839207Y-139944355D01*
X148140522Y-140395303D01*
X148591470Y-140696618D01*
X149123400Y-140802425D01*
X149655330Y-140696618D01*
X150106278Y-140395303D01*
X150393400Y-139965596D01*
X150680522Y-140395303D01*
X151131470Y-140696618D01*
X151663400Y-140802425D01*
X152195330Y-140696618D01*
X152646278Y-140395303D01*
X152947593Y-139944355D01*
X153053400Y-139412425D01*
X153053400Y-137828575D01*
X152947593Y-137296645D01*
X152646278Y-136845697D01*
X152488900Y-136740540D01*
X152488900Y-136461500D01*
X175510041Y-136461500D01*
X175624115Y-137034989D01*
X175948971Y-137521170D01*
X176263752Y-137731500D01*
X175948971Y-137941830D01*
X175624115Y-138428011D01*
X175510041Y-139001500D01*
X175624115Y-139574989D01*
X175948971Y-140061170D01*
X176435152Y-140386026D01*
X177008641Y-140500100D01*
X177067359Y-140500100D01*
X177640848Y-140386026D01*
X178127029Y-140061170D01*
X178308000Y-139790328D01*
X178488971Y-140061170D01*
X178975152Y-140386026D01*
X179548641Y-140500100D01*
X179607359Y-140500100D01*
X180180848Y-140386026D01*
X180667029Y-140061170D01*
X180848000Y-139790328D01*
X181028971Y-140061170D01*
X181515152Y-140386026D01*
X182088641Y-140500100D01*
X182147359Y-140500100D01*
X182720848Y-140386026D01*
X183207029Y-140061170D01*
X183388000Y-139790328D01*
X183568971Y-140061170D01*
X184055152Y-140386026D01*
X184628641Y-140500100D01*
X184687359Y-140500100D01*
X185260848Y-140386026D01*
X185747029Y-140061170D01*
X185928000Y-139790328D01*
X186108971Y-140061170D01*
X186595152Y-140386026D01*
X187168641Y-140500100D01*
X187227359Y-140500100D01*
X187800848Y-140386026D01*
X188287029Y-140061170D01*
X188611885Y-139574989D01*
X188725959Y-139001500D01*
X188611885Y-138428011D01*
X188287029Y-137941830D01*
X188273358Y-137932695D01*
X188296917Y-137928262D01*
X188513041Y-137789190D01*
X188658031Y-137576990D01*
X188709040Y-137325100D01*
X188709040Y-135597900D01*
X188664762Y-135362583D01*
X188525690Y-135146459D01*
X188313490Y-135001469D01*
X188061600Y-134950460D01*
X186334400Y-134950460D01*
X186099083Y-134994738D01*
X185882959Y-135133810D01*
X185737969Y-135346010D01*
X185729092Y-135389845D01*
X185260848Y-135076974D01*
X184687359Y-134962900D01*
X184628641Y-134962900D01*
X184055152Y-135076974D01*
X183568971Y-135401830D01*
X183388000Y-135672672D01*
X183207029Y-135401830D01*
X182720848Y-135076974D01*
X182147359Y-134962900D01*
X182088641Y-134962900D01*
X181515152Y-135076974D01*
X181028971Y-135401830D01*
X180848000Y-135672672D01*
X180667029Y-135401830D01*
X180180848Y-135076974D01*
X179607359Y-134962900D01*
X179548641Y-134962900D01*
X178975152Y-135076974D01*
X178488971Y-135401830D01*
X178308000Y-135672672D01*
X178127029Y-135401830D01*
X177640848Y-135076974D01*
X177067359Y-134962900D01*
X177008641Y-134962900D01*
X176435152Y-135076974D01*
X175948971Y-135401830D01*
X175624115Y-135888011D01*
X175510041Y-136461500D01*
X152488900Y-136461500D01*
X152488900Y-135915405D01*
X152488901Y-135915400D01*
X152426063Y-135599494D01*
X152247117Y-135331683D01*
X147955000Y-131039566D01*
X147955000Y-130592824D01*
X148191322Y-130946503D01*
X148642270Y-131247818D01*
X149174200Y-131353625D01*
X149706130Y-131247818D01*
X150157078Y-130946503D01*
X150444200Y-130516796D01*
X150731322Y-130946503D01*
X151182270Y-131247818D01*
X151714200Y-131353625D01*
X152246130Y-131247818D01*
X152697078Y-130946503D01*
X152998393Y-130495555D01*
X153097522Y-129997200D01*
X153339800Y-129997200D01*
X153655706Y-129934363D01*
X153923517Y-129755417D01*
X154634714Y-129044219D01*
X154634717Y-129044217D01*
X154813663Y-128776405D01*
X154818903Y-128750063D01*
X154876501Y-128460500D01*
X154876500Y-128460495D01*
X154876500Y-127158678D01*
X155021000Y-127187940D01*
X155621000Y-127187940D01*
X155856317Y-127143662D01*
X155955528Y-127079822D01*
X156039110Y-127136931D01*
X156291000Y-127187940D01*
X156891000Y-127187940D01*
X157126317Y-127143662D01*
X157225528Y-127079822D01*
X157309110Y-127136931D01*
X157561000Y-127187940D01*
X158161000Y-127187940D01*
X158396317Y-127143662D01*
X158495528Y-127079822D01*
X158579110Y-127136931D01*
X158831000Y-127187940D01*
X159431000Y-127187940D01*
X159666317Y-127143662D01*
X159882441Y-127004590D01*
X160027431Y-126792390D01*
X160078440Y-126540500D01*
X160078440Y-126301500D01*
X160995972Y-126301500D01*
X161031231Y-126336821D01*
X161404518Y-126491824D01*
X161808708Y-126492176D01*
X162182266Y-126337825D01*
X162468321Y-126052269D01*
X162623324Y-125678982D01*
X162623676Y-125274792D01*
X162469325Y-124901234D01*
X162183769Y-124615179D01*
X161810482Y-124460176D01*
X161406292Y-124459824D01*
X161032734Y-124614175D01*
X160996346Y-124650500D01*
X160078440Y-124650500D01*
X160078440Y-124540500D01*
X160034162Y-124305183D01*
X159895090Y-124089059D01*
X159682890Y-123944069D01*
X159431000Y-123893060D01*
X158831000Y-123893060D01*
X158595683Y-123937338D01*
X158496472Y-124001178D01*
X158412890Y-123944069D01*
X158161000Y-123893060D01*
X157561000Y-123893060D01*
X157325683Y-123937338D01*
X157226472Y-124001178D01*
X157142890Y-123944069D01*
X156891000Y-123893060D01*
X156291000Y-123893060D01*
X156055683Y-123937338D01*
X155956472Y-124001178D01*
X155872890Y-123944069D01*
X155621000Y-123893060D01*
X155021000Y-123893060D01*
X154785683Y-123937338D01*
X154686472Y-124001178D01*
X154602890Y-123944069D01*
X154351000Y-123893060D01*
X153751000Y-123893060D01*
X153515683Y-123937338D01*
X153416472Y-124001178D01*
X153332890Y-123944069D01*
X153081000Y-123893060D01*
X152481000Y-123893060D01*
X152245683Y-123937338D01*
X152146472Y-124001178D01*
X152062890Y-123944069D01*
X151811000Y-123893060D01*
X151211000Y-123893060D01*
X150975683Y-123937338D01*
X150876472Y-124001178D01*
X150792890Y-123944069D01*
X150541000Y-123893060D01*
X149941000Y-123893060D01*
X149705683Y-123937338D01*
X149606472Y-124001178D01*
X149522890Y-123944069D01*
X149271000Y-123893060D01*
X148671000Y-123893060D01*
X148435683Y-123937338D01*
X148219559Y-124076410D01*
X148074569Y-124288610D01*
X148023560Y-124540500D01*
X148023560Y-124739056D01*
X147828595Y-124777837D01*
X147560783Y-124956783D01*
X147560781Y-124956786D01*
X146545783Y-125971783D01*
X146366837Y-126239594D01*
X146335577Y-126396750D01*
X146304000Y-126555500D01*
X132827500Y-126555500D01*
X132827500Y-126396750D01*
X132668750Y-126238000D01*
X131719500Y-126238000D01*
X131465500Y-126238000D01*
X131445500Y-126238000D01*
X131445500Y-125984000D01*
X131465500Y-125984000D01*
X131465500Y-125964000D01*
X131719500Y-125964000D01*
X131719500Y-125984000D01*
X132668750Y-125984000D01*
X132827500Y-125825250D01*
X132827500Y-125534690D01*
X132730827Y-125301301D01*
X132552198Y-125122673D01*
X132545534Y-125119913D01*
X132643941Y-125056590D01*
X132782570Y-124853700D01*
X137795000Y-124853700D01*
X138067165Y-124799563D01*
X138297894Y-124645394D01*
X140265894Y-122677395D01*
X140266095Y-122677093D01*
X140266394Y-122676894D01*
X140789781Y-122153507D01*
X140843000Y-122164093D01*
X141411285Y-122051054D01*
X141893054Y-121729147D01*
X142120702Y-121388447D01*
X142187817Y-121531358D01*
X142616076Y-121921645D01*
X143026110Y-122091476D01*
X143256000Y-121970155D01*
X143256000Y-120777000D01*
X143510000Y-120777000D01*
X143510000Y-121970155D01*
X143739890Y-122091476D01*
X144149924Y-121921645D01*
X144578183Y-121531358D01*
X144723700Y-121221500D01*
X175510041Y-121221500D01*
X175624115Y-121794989D01*
X175948971Y-122281170D01*
X176263752Y-122491500D01*
X175948971Y-122701830D01*
X175624115Y-123188011D01*
X175510041Y-123761500D01*
X175624115Y-124334989D01*
X175948971Y-124821170D01*
X176435152Y-125146026D01*
X177008641Y-125260100D01*
X177067359Y-125260100D01*
X177640848Y-125146026D01*
X178127029Y-124821170D01*
X178308000Y-124550328D01*
X178488971Y-124821170D01*
X178975152Y-125146026D01*
X179548641Y-125260100D01*
X179607359Y-125260100D01*
X180180848Y-125146026D01*
X180667029Y-124821170D01*
X180848000Y-124550328D01*
X181028971Y-124821170D01*
X181515152Y-125146026D01*
X182088641Y-125260100D01*
X182147359Y-125260100D01*
X182720848Y-125146026D01*
X183207029Y-124821170D01*
X183388000Y-124550328D01*
X183568971Y-124821170D01*
X184055152Y-125146026D01*
X184628641Y-125260100D01*
X184687359Y-125260100D01*
X185260848Y-125146026D01*
X185747029Y-124821170D01*
X185928000Y-124550328D01*
X186108971Y-124821170D01*
X186595152Y-125146026D01*
X187168641Y-125260100D01*
X187227359Y-125260100D01*
X187800848Y-125146026D01*
X188287029Y-124821170D01*
X188611885Y-124334989D01*
X188725959Y-123761500D01*
X188611885Y-123188011D01*
X188287029Y-122701830D01*
X188273358Y-122692695D01*
X188296917Y-122688262D01*
X188513041Y-122549190D01*
X188658031Y-122336990D01*
X188709040Y-122085100D01*
X188709040Y-120357900D01*
X188664762Y-120122583D01*
X188525690Y-119906459D01*
X188313490Y-119761469D01*
X188061600Y-119710460D01*
X186334400Y-119710460D01*
X186099083Y-119754738D01*
X185882959Y-119893810D01*
X185737969Y-120106010D01*
X185729092Y-120149845D01*
X185260848Y-119836974D01*
X184687359Y-119722900D01*
X184628641Y-119722900D01*
X184055152Y-119836974D01*
X183568971Y-120161830D01*
X183388000Y-120432672D01*
X183207029Y-120161830D01*
X182720848Y-119836974D01*
X182147359Y-119722900D01*
X182088641Y-119722900D01*
X181515152Y-119836974D01*
X181028971Y-120161830D01*
X180848000Y-120432672D01*
X180667029Y-120161830D01*
X180180848Y-119836974D01*
X179607359Y-119722900D01*
X179548641Y-119722900D01*
X178975152Y-119836974D01*
X178488971Y-120161830D01*
X178308000Y-120432672D01*
X178127029Y-120161830D01*
X177640848Y-119836974D01*
X177067359Y-119722900D01*
X177008641Y-119722900D01*
X176435152Y-119836974D01*
X175948971Y-120161830D01*
X175624115Y-120648011D01*
X175510041Y-121221500D01*
X144723700Y-121221500D01*
X144824486Y-121006892D01*
X144703819Y-120777000D01*
X143510000Y-120777000D01*
X143256000Y-120777000D01*
X143236000Y-120777000D01*
X143236000Y-120523000D01*
X143256000Y-120523000D01*
X143256000Y-119329845D01*
X143510000Y-119329845D01*
X143510000Y-120523000D01*
X144703819Y-120523000D01*
X144824486Y-120293108D01*
X144578183Y-119768642D01*
X144149924Y-119378355D01*
X143739890Y-119208524D01*
X143510000Y-119329845D01*
X143256000Y-119329845D01*
X143026110Y-119208524D01*
X142616076Y-119378355D01*
X142187817Y-119768642D01*
X142120702Y-119911553D01*
X141893054Y-119570853D01*
X141411285Y-119248946D01*
X140843000Y-119135907D01*
X140274715Y-119248946D01*
X139792946Y-119570853D01*
X139573000Y-119900026D01*
X139353054Y-119570853D01*
X138871285Y-119248946D01*
X138303000Y-119135907D01*
X137734715Y-119248946D01*
X137252946Y-119570853D01*
X137225150Y-119612452D01*
X137216162Y-119564683D01*
X137077090Y-119348559D01*
X136864890Y-119203569D01*
X136613000Y-119152560D01*
X135496493Y-119152560D01*
X134747000Y-118403066D01*
X134747000Y-117676208D01*
X140525324Y-117676208D01*
X140679675Y-118049766D01*
X140965231Y-118335821D01*
X141338518Y-118490824D01*
X141742708Y-118491176D01*
X142116266Y-118336825D01*
X142402321Y-118051269D01*
X142557324Y-117677982D01*
X142557510Y-117464779D01*
X144012894Y-116009395D01*
X144167062Y-115778665D01*
X144167063Y-115778664D01*
X144221200Y-115506500D01*
X144221200Y-113311129D01*
X144370821Y-113161769D01*
X144525824Y-112788482D01*
X144526176Y-112384292D01*
X144371825Y-112010734D01*
X144086269Y-111724679D01*
X143712982Y-111569676D01*
X143308792Y-111569324D01*
X142935234Y-111723675D01*
X142649179Y-112009231D01*
X142494176Y-112382518D01*
X142493824Y-112786708D01*
X142648175Y-113160266D01*
X142798800Y-113311154D01*
X142798800Y-115211911D01*
X141551704Y-116459008D01*
X141340292Y-116458824D01*
X140966734Y-116613175D01*
X140680679Y-116898731D01*
X140525676Y-117272018D01*
X140525324Y-117676208D01*
X134747000Y-117676208D01*
X134747000Y-113037472D01*
X135330738Y-113037472D01*
X135735909Y-114018061D01*
X136485493Y-114768955D01*
X137465373Y-115175836D01*
X138526372Y-115176762D01*
X139506961Y-114771591D01*
X140257855Y-114022007D01*
X140664736Y-113042127D01*
X140665662Y-111981128D01*
X140260491Y-111000539D01*
X139510907Y-110249645D01*
X138531027Y-109842764D01*
X137470028Y-109841838D01*
X136489439Y-110247009D01*
X135738545Y-110996593D01*
X135331664Y-111976473D01*
X135330738Y-113037472D01*
X134747000Y-113037472D01*
X134747000Y-106718460D01*
X134904378Y-106613303D01*
X135204251Y-106164513D01*
X135225908Y-106237763D01*
X135568424Y-106661181D01*
X136046903Y-106921293D01*
X136119529Y-106935777D01*
X136334500Y-106813183D01*
X136334500Y-104965500D01*
X136314500Y-104965500D01*
X136314500Y-104711500D01*
X136334500Y-104711500D01*
X136334500Y-102863817D01*
X136588500Y-102863817D01*
X136588500Y-104711500D01*
X136608500Y-104711500D01*
X136608500Y-104965500D01*
X136588500Y-104965500D01*
X136588500Y-106813183D01*
X136803471Y-106935777D01*
X136876097Y-106921293D01*
X137354576Y-106661181D01*
X137697092Y-106237763D01*
X137718749Y-106164513D01*
X138018622Y-106613303D01*
X138469570Y-106914618D01*
X139001500Y-107020425D01*
X139533430Y-106914618D01*
X139984378Y-106613303D01*
X140285693Y-106162355D01*
X140391500Y-105630425D01*
X140391500Y-104046575D01*
X140285693Y-103514645D01*
X139984378Y-103063697D01*
X139533430Y-102762382D01*
X139001500Y-102656575D01*
X138469570Y-102762382D01*
X138018622Y-103063697D01*
X137718749Y-103512487D01*
X137697092Y-103439237D01*
X137354576Y-103015819D01*
X136876097Y-102755707D01*
X136803471Y-102741223D01*
X136588500Y-102863817D01*
X136334500Y-102863817D01*
X136119529Y-102741223D01*
X136046903Y-102755707D01*
X135568424Y-103015819D01*
X135225908Y-103439237D01*
X135204251Y-103512487D01*
X134904378Y-103063697D01*
X134453430Y-102762382D01*
X133921500Y-102656575D01*
X133389570Y-102762382D01*
X132938622Y-103063697D01*
X132637307Y-103514645D01*
X132531500Y-104046575D01*
X132531500Y-105630425D01*
X132637307Y-106162355D01*
X132938622Y-106613303D01*
X133096000Y-106718460D01*
X133096000Y-118808500D01*
X133158837Y-119124406D01*
X133337783Y-119392217D01*
X134265560Y-120319993D01*
X134265560Y-121131272D01*
X130042894Y-116908606D01*
X129812165Y-116754437D01*
X129540000Y-116700300D01*
X127168435Y-116700300D01*
X127226023Y-116614114D01*
X127320032Y-116141500D01*
X127226023Y-115668886D01*
X126958309Y-115268223D01*
X126557646Y-115000509D01*
X126085032Y-114906500D01*
X125220968Y-114906500D01*
X124748354Y-115000509D01*
X124358000Y-115261335D01*
X123967646Y-115000509D01*
X123495032Y-114906500D01*
X122630968Y-114906500D01*
X122158354Y-115000509D01*
X121757691Y-115268223D01*
X121489977Y-115668886D01*
X121395968Y-116141500D01*
X121489977Y-116614114D01*
X121547565Y-116700300D01*
X121325589Y-116700300D01*
X120263894Y-115638606D01*
X119280894Y-114655606D01*
X119050165Y-114501437D01*
X118778000Y-114447300D01*
X116072940Y-114447300D01*
X116072940Y-114408500D01*
X116054914Y-114312700D01*
X121649395Y-114312700D01*
X121757691Y-114474777D01*
X122158354Y-114742491D01*
X122630968Y-114836500D01*
X123495032Y-114836500D01*
X123967646Y-114742491D01*
X124358000Y-114481665D01*
X124748354Y-114742491D01*
X125220968Y-114836500D01*
X126085032Y-114836500D01*
X126557646Y-114742491D01*
X126958309Y-114474777D01*
X127226023Y-114074114D01*
X127320032Y-113601500D01*
X127226023Y-113128886D01*
X126958309Y-112728223D01*
X126557646Y-112460509D01*
X126085032Y-112366500D01*
X125220968Y-112366500D01*
X124748354Y-112460509D01*
X124358000Y-112721335D01*
X123967646Y-112460509D01*
X123495032Y-112366500D01*
X122630968Y-112366500D01*
X122158354Y-112460509D01*
X121757691Y-112728223D01*
X121649395Y-112890300D01*
X111927588Y-112890300D01*
X110756700Y-111719412D01*
X110756700Y-111100210D01*
X110763610Y-111104931D01*
X111015500Y-111155940D01*
X111615500Y-111155940D01*
X111850817Y-111111662D01*
X111925272Y-111063752D01*
X111928437Y-111079665D01*
X112082606Y-111310394D01*
X112590605Y-111818394D01*
X112712289Y-111899700D01*
X112821336Y-111972563D01*
X113093500Y-112026700D01*
X121895264Y-112026700D01*
X122158354Y-112202491D01*
X122630968Y-112296500D01*
X123495032Y-112296500D01*
X123967646Y-112202491D01*
X124358000Y-111941665D01*
X124748354Y-112202491D01*
X125220968Y-112296500D01*
X126085032Y-112296500D01*
X126557646Y-112202491D01*
X126958309Y-111934777D01*
X127226023Y-111534114D01*
X127320032Y-111061500D01*
X127226023Y-110588886D01*
X126958309Y-110188223D01*
X126557646Y-109920509D01*
X126085032Y-109826500D01*
X125220968Y-109826500D01*
X124748354Y-109920509D01*
X124358000Y-110181335D01*
X123967646Y-109920509D01*
X123495032Y-109826500D01*
X122630968Y-109826500D01*
X122158354Y-109920509D01*
X121757691Y-110188223D01*
X121489977Y-110588886D01*
X121486911Y-110604300D01*
X118479877Y-110604300D01*
X118716821Y-110367769D01*
X118871824Y-109994482D01*
X118872176Y-109590292D01*
X118717825Y-109216734D01*
X118432269Y-108930679D01*
X118058982Y-108775676D01*
X117654792Y-108775324D01*
X117281234Y-108929675D01*
X117130346Y-109080300D01*
X116072940Y-109080300D01*
X116072940Y-109008500D01*
X116028662Y-108773183D01*
X115963700Y-108672229D01*
X115963700Y-108521500D01*
X121395968Y-108521500D01*
X121489977Y-108994114D01*
X121757691Y-109394777D01*
X122158354Y-109662491D01*
X122630968Y-109756500D01*
X123495032Y-109756500D01*
X123967646Y-109662491D01*
X124358000Y-109401665D01*
X124748354Y-109662491D01*
X125220968Y-109756500D01*
X126085032Y-109756500D01*
X126557646Y-109662491D01*
X126958309Y-109394777D01*
X127226023Y-108994114D01*
X127320032Y-108521500D01*
X127226023Y-108048886D01*
X126958309Y-107648223D01*
X126557646Y-107380509D01*
X126085032Y-107286500D01*
X125220968Y-107286500D01*
X124748354Y-107380509D01*
X124358000Y-107641335D01*
X123967646Y-107380509D01*
X123495032Y-107286500D01*
X122630968Y-107286500D01*
X122158354Y-107380509D01*
X121757691Y-107648223D01*
X121489977Y-108048886D01*
X121395968Y-108521500D01*
X115963700Y-108521500D01*
X115963700Y-106659500D01*
X115943190Y-106556390D01*
X115909563Y-106387335D01*
X115755394Y-106156606D01*
X115694940Y-106096152D01*
X115694940Y-105981500D01*
X121395968Y-105981500D01*
X121489977Y-106454114D01*
X121757691Y-106854777D01*
X122158354Y-107122491D01*
X122630968Y-107216500D01*
X123495032Y-107216500D01*
X123967646Y-107122491D01*
X124358000Y-106861665D01*
X124748354Y-107122491D01*
X125220968Y-107216500D01*
X126085032Y-107216500D01*
X126557646Y-107122491D01*
X126958309Y-106854777D01*
X127226023Y-106454114D01*
X127320032Y-105981500D01*
X127226023Y-105508886D01*
X126958309Y-105108223D01*
X126557646Y-104840509D01*
X126085032Y-104746500D01*
X125220968Y-104746500D01*
X124748354Y-104840509D01*
X124358000Y-105101335D01*
X123967646Y-104840509D01*
X123495032Y-104746500D01*
X122630968Y-104746500D01*
X122158354Y-104840509D01*
X121757691Y-105108223D01*
X121489977Y-105508886D01*
X121395968Y-105981500D01*
X115694940Y-105981500D01*
X115694940Y-105404500D01*
X115650662Y-105169183D01*
X115514478Y-104957547D01*
X115585827Y-104886199D01*
X115682500Y-104652810D01*
X115682500Y-104362250D01*
X115523750Y-104203500D01*
X114574500Y-104203500D01*
X114574500Y-104223500D01*
X114320500Y-104223500D01*
X114320500Y-104203500D01*
X114300500Y-104203500D01*
X114300500Y-103949500D01*
X114320500Y-103949500D01*
X114320500Y-103150250D01*
X114574500Y-103150250D01*
X114574500Y-103949500D01*
X115523750Y-103949500D01*
X115682500Y-103790750D01*
X115682500Y-103500190D01*
X115658190Y-103441500D01*
X121395968Y-103441500D01*
X121489977Y-103914114D01*
X121757691Y-104314777D01*
X122158354Y-104582491D01*
X122630968Y-104676500D01*
X123495032Y-104676500D01*
X123967646Y-104582491D01*
X124358000Y-104321665D01*
X124748354Y-104582491D01*
X125220968Y-104676500D01*
X126085032Y-104676500D01*
X126557646Y-104582491D01*
X126958309Y-104314777D01*
X127226023Y-103914114D01*
X127320032Y-103441500D01*
X127226023Y-102968886D01*
X126958309Y-102568223D01*
X126557646Y-102300509D01*
X126085032Y-102206500D01*
X125220968Y-102206500D01*
X124748354Y-102300509D01*
X124358000Y-102561335D01*
X123967646Y-102300509D01*
X123495032Y-102206500D01*
X122630968Y-102206500D01*
X122158354Y-102300509D01*
X121757691Y-102568223D01*
X121489977Y-102968886D01*
X121395968Y-103441500D01*
X115658190Y-103441500D01*
X115585827Y-103266801D01*
X115407198Y-103088173D01*
X115173809Y-102991500D01*
X114733250Y-102991500D01*
X114574500Y-103150250D01*
X114320500Y-103150250D01*
X114161750Y-102991500D01*
X113721191Y-102991500D01*
X113487802Y-103088173D01*
X113346564Y-103229410D01*
X113311590Y-103175059D01*
X113099390Y-103030069D01*
X112847500Y-102979060D01*
X111647500Y-102979060D01*
X111412183Y-103023338D01*
X111264700Y-103118241D01*
X111264700Y-102891402D01*
X111382266Y-102842825D01*
X111668321Y-102557269D01*
X111823324Y-102183982D01*
X111823676Y-101779792D01*
X111669325Y-101406234D01*
X111482527Y-101219109D01*
X121469538Y-101219109D01*
X121473408Y-101256781D01*
X121699920Y-101684974D01*
X122073053Y-101993890D01*
X122536000Y-102136500D01*
X122936000Y-102136500D01*
X122936000Y-101028500D01*
X123190000Y-101028500D01*
X123190000Y-102136500D01*
X123590000Y-102136500D01*
X124052947Y-101993890D01*
X124358000Y-101741337D01*
X124663053Y-101993890D01*
X125126000Y-102136500D01*
X125526000Y-102136500D01*
X125526000Y-101028500D01*
X125780000Y-101028500D01*
X125780000Y-102136500D01*
X126180000Y-102136500D01*
X126642947Y-101993890D01*
X127016080Y-101684974D01*
X127242592Y-101256781D01*
X127246462Y-101219109D01*
X127121731Y-101028500D01*
X125780000Y-101028500D01*
X125526000Y-101028500D01*
X123190000Y-101028500D01*
X122936000Y-101028500D01*
X121594269Y-101028500D01*
X121469538Y-101219109D01*
X111482527Y-101219109D01*
X111383769Y-101120179D01*
X111010482Y-100965176D01*
X110606292Y-100964824D01*
X110232734Y-101119175D01*
X109946679Y-101404731D01*
X109791676Y-101778018D01*
X109791324Y-102182208D01*
X109842300Y-102305579D01*
X109842300Y-103076128D01*
X109774890Y-103030069D01*
X109523000Y-102979060D01*
X108323000Y-102979060D01*
X108087683Y-103023338D01*
X107871559Y-103162410D01*
X107825031Y-103230506D01*
X107682698Y-103088173D01*
X107449309Y-102991500D01*
X107008750Y-102991500D01*
X106850000Y-103150250D01*
X106850000Y-103949500D01*
X106870000Y-103949500D01*
X106870000Y-104203500D01*
X106850000Y-104203500D01*
X106850000Y-104223500D01*
X106596000Y-104223500D01*
X106596000Y-104203500D01*
X105646750Y-104203500D01*
X105488000Y-104362250D01*
X105488000Y-104652810D01*
X105584673Y-104886199D01*
X105658296Y-104959821D01*
X105526569Y-105152610D01*
X105475560Y-105404500D01*
X105475560Y-105418151D01*
X104658204Y-106235508D01*
X104446792Y-106235324D01*
X104073234Y-106389675D01*
X103787179Y-106675231D01*
X103632176Y-107048518D01*
X103631824Y-107452708D01*
X98625700Y-107452708D01*
X98517646Y-107380509D01*
X98045032Y-107286500D01*
X97180968Y-107286500D01*
X96708354Y-107380509D01*
X96343000Y-107624630D01*
X95977646Y-107380509D01*
X95505032Y-107286500D01*
X94640968Y-107286500D01*
X94168354Y-107380509D01*
X93767691Y-107648223D01*
X93499977Y-108048886D01*
X93405968Y-108521500D01*
X86308000Y-108521500D01*
X86308000Y-105981500D01*
X93405968Y-105981500D01*
X93499977Y-106454114D01*
X93767691Y-106854777D01*
X94168354Y-107122491D01*
X94640968Y-107216500D01*
X95505032Y-107216500D01*
X95977646Y-107122491D01*
X96343000Y-106878370D01*
X96708354Y-107122491D01*
X97180968Y-107216500D01*
X98045032Y-107216500D01*
X98517646Y-107122491D01*
X98918309Y-106854777D01*
X99186023Y-106454114D01*
X99280032Y-105981500D01*
X99186023Y-105508886D01*
X98918309Y-105108223D01*
X98517646Y-104840509D01*
X98045032Y-104746500D01*
X97180968Y-104746500D01*
X96708354Y-104840509D01*
X96343000Y-105084630D01*
X95977646Y-104840509D01*
X95505032Y-104746500D01*
X94640968Y-104746500D01*
X94168354Y-104840509D01*
X93767691Y-105108223D01*
X93499977Y-105508886D01*
X93405968Y-105981500D01*
X86308000Y-105981500D01*
X86308000Y-103759109D01*
X93479538Y-103759109D01*
X93483408Y-103796781D01*
X93709920Y-104224974D01*
X94083053Y-104533890D01*
X94546000Y-104676500D01*
X94946000Y-104676500D01*
X94946000Y-103568500D01*
X95200000Y-103568500D01*
X95200000Y-104676500D01*
X95600000Y-104676500D01*
X96062947Y-104533890D01*
X96343000Y-104302035D01*
X96623053Y-104533890D01*
X97086000Y-104676500D01*
X97486000Y-104676500D01*
X97486000Y-103568500D01*
X97740000Y-103568500D01*
X97740000Y-104676500D01*
X98140000Y-104676500D01*
X98602947Y-104533890D01*
X98976080Y-104224974D01*
X99202592Y-103796781D01*
X99206462Y-103759109D01*
X99081731Y-103568500D01*
X97740000Y-103568500D01*
X97486000Y-103568500D01*
X95200000Y-103568500D01*
X94946000Y-103568500D01*
X93604269Y-103568500D01*
X93479538Y-103759109D01*
X86308000Y-103759109D01*
X86308000Y-103500190D01*
X105488000Y-103500190D01*
X105488000Y-103790750D01*
X105646750Y-103949500D01*
X106596000Y-103949500D01*
X106596000Y-103150250D01*
X106437250Y-102991500D01*
X105996691Y-102991500D01*
X105763302Y-103088173D01*
X105584673Y-103266801D01*
X105488000Y-103500190D01*
X86308000Y-103500190D01*
X86308000Y-103123891D01*
X93479538Y-103123891D01*
X93604269Y-103314500D01*
X94946000Y-103314500D01*
X94946000Y-102206500D01*
X95200000Y-102206500D01*
X95200000Y-103314500D01*
X97486000Y-103314500D01*
X97486000Y-102206500D01*
X97740000Y-102206500D01*
X97740000Y-103314500D01*
X99081731Y-103314500D01*
X99206462Y-103123891D01*
X99202592Y-103086219D01*
X98976080Y-102658026D01*
X98602947Y-102349110D01*
X98140000Y-102206500D01*
X97740000Y-102206500D01*
X97486000Y-102206500D01*
X97086000Y-102206500D01*
X96623053Y-102349110D01*
X96343000Y-102580965D01*
X96062947Y-102349110D01*
X95600000Y-102206500D01*
X95200000Y-102206500D01*
X94946000Y-102206500D01*
X94546000Y-102206500D01*
X94083053Y-102349110D01*
X93709920Y-102658026D01*
X93483408Y-103086219D01*
X93479538Y-103123891D01*
X86308000Y-103123891D01*
X86308000Y-100901500D01*
X93405968Y-100901500D01*
X93499977Y-101374114D01*
X93767691Y-101774777D01*
X94168354Y-102042491D01*
X94640968Y-102136500D01*
X95505032Y-102136500D01*
X95977646Y-102042491D01*
X96343000Y-101798370D01*
X96708354Y-102042491D01*
X97180968Y-102136500D01*
X98045032Y-102136500D01*
X98517646Y-102042491D01*
X98918309Y-101774777D01*
X99186023Y-101374114D01*
X99280032Y-100901500D01*
X99216856Y-100583891D01*
X121469538Y-100583891D01*
X121594269Y-100774500D01*
X122936000Y-100774500D01*
X122936000Y-99666500D01*
X123190000Y-99666500D01*
X123190000Y-100774500D01*
X125526000Y-100774500D01*
X125526000Y-99666500D01*
X125780000Y-99666500D01*
X125780000Y-100774500D01*
X127121731Y-100774500D01*
X127246462Y-100583891D01*
X127242592Y-100546219D01*
X127167469Y-100404208D01*
X135064324Y-100404208D01*
X135218675Y-100777766D01*
X135504231Y-101063821D01*
X135877518Y-101218824D01*
X136281708Y-101219176D01*
X136655266Y-101064825D01*
X136806154Y-100914200D01*
X137874587Y-100914200D01*
X137858676Y-100952518D01*
X137858324Y-101356708D01*
X138012675Y-101730266D01*
X138298231Y-102016321D01*
X138671518Y-102171324D01*
X139075708Y-102171676D01*
X139165349Y-102134637D01*
X141927606Y-104896895D01*
X142158336Y-105051063D01*
X142430500Y-105105200D01*
X146632512Y-105105200D01*
X146459179Y-105278231D01*
X146304176Y-105651518D01*
X146303824Y-106055708D01*
X146458175Y-106429266D01*
X146608800Y-106580154D01*
X146608800Y-109383371D01*
X146459179Y-109532731D01*
X146304176Y-109906018D01*
X146303824Y-110310208D01*
X146458175Y-110683766D01*
X146743731Y-110969821D01*
X147117018Y-111124824D01*
X147521208Y-111125176D01*
X147894766Y-110970825D01*
X148132800Y-110733206D01*
X148132800Y-114803386D01*
X148074569Y-114888610D01*
X148023560Y-115140500D01*
X148023560Y-117140500D01*
X148067838Y-117375817D01*
X148206910Y-117591941D01*
X148419110Y-117736931D01*
X148671000Y-117787940D01*
X149271000Y-117787940D01*
X149506317Y-117743662D01*
X149605528Y-117679822D01*
X149689110Y-117736931D01*
X149941000Y-117787940D01*
X150541000Y-117787940D01*
X150776317Y-117743662D01*
X150875528Y-117679822D01*
X150959110Y-117736931D01*
X151211000Y-117787940D01*
X151811000Y-117787940D01*
X152046317Y-117743662D01*
X152145528Y-117679822D01*
X152229110Y-117736931D01*
X152481000Y-117787940D01*
X153081000Y-117787940D01*
X153316317Y-117743662D01*
X153415528Y-117679822D01*
X153499110Y-117736931D01*
X153751000Y-117787940D01*
X154351000Y-117787940D01*
X154586317Y-117743662D01*
X154685528Y-117679822D01*
X154769110Y-117736931D01*
X155021000Y-117787940D01*
X155621000Y-117787940D01*
X155856317Y-117743662D01*
X155955528Y-117679822D01*
X156039110Y-117736931D01*
X156291000Y-117787940D01*
X156891000Y-117787940D01*
X157126317Y-117743662D01*
X157225528Y-117679822D01*
X157309110Y-117736931D01*
X157561000Y-117787940D01*
X158161000Y-117787940D01*
X158396317Y-117743662D01*
X158486980Y-117685322D01*
X158704690Y-117775500D01*
X158845250Y-117775500D01*
X159004000Y-117616750D01*
X159004000Y-116267500D01*
X159258000Y-116267500D01*
X159258000Y-117616750D01*
X159416750Y-117775500D01*
X159557310Y-117775500D01*
X159790699Y-117678827D01*
X159969327Y-117500198D01*
X160066000Y-117266809D01*
X160066000Y-116426250D01*
X159907250Y-116267500D01*
X159258000Y-116267500D01*
X159004000Y-116267500D01*
X158984000Y-116267500D01*
X158984000Y-116013500D01*
X159004000Y-116013500D01*
X159004000Y-114664250D01*
X159258000Y-114664250D01*
X159258000Y-116013500D01*
X159907250Y-116013500D01*
X160066000Y-115854750D01*
X160066000Y-115014191D01*
X159969327Y-114780802D01*
X159790699Y-114602173D01*
X159557310Y-114505500D01*
X159416750Y-114505500D01*
X159258000Y-114664250D01*
X159004000Y-114664250D01*
X158845250Y-114505500D01*
X158704690Y-114505500D01*
X158487878Y-114595306D01*
X158412890Y-114544069D01*
X158161000Y-114493060D01*
X157561000Y-114493060D01*
X157325683Y-114537338D01*
X157226472Y-114601178D01*
X157142890Y-114544069D01*
X156891000Y-114493060D01*
X156291000Y-114493060D01*
X156055683Y-114537338D01*
X155956472Y-114601178D01*
X155872890Y-114544069D01*
X155621000Y-114493060D01*
X155021000Y-114493060D01*
X154785683Y-114537338D01*
X154762200Y-114552449D01*
X154762200Y-114300000D01*
X154753182Y-114254664D01*
X154708063Y-114027835D01*
X154553894Y-113797106D01*
X154236394Y-113479606D01*
X154005665Y-113325437D01*
X153733500Y-113271300D01*
X153384234Y-113271300D01*
X153419266Y-113256825D01*
X153570154Y-113106200D01*
X155420871Y-113106200D01*
X155570231Y-113255821D01*
X155943518Y-113410824D01*
X156347708Y-113411176D01*
X156721266Y-113256825D01*
X157007321Y-112971269D01*
X157162324Y-112597982D01*
X157162676Y-112193792D01*
X157008325Y-111820234D01*
X156722769Y-111534179D01*
X156613851Y-111488952D01*
X156654324Y-111391482D01*
X156654676Y-110987292D01*
X156632273Y-110933072D01*
X156848266Y-110843825D01*
X157134321Y-110558269D01*
X157289324Y-110184982D01*
X157289676Y-109780792D01*
X157135325Y-109407234D01*
X156849769Y-109121179D01*
X156476482Y-108966176D01*
X156072292Y-108965824D01*
X155698734Y-109120175D01*
X155547846Y-109270800D01*
X154522629Y-109270800D01*
X154373269Y-109121179D01*
X153999982Y-108966176D01*
X153595792Y-108965824D01*
X153222234Y-109120175D01*
X152936179Y-109405731D01*
X152781176Y-109779018D01*
X152780824Y-110183208D01*
X152858944Y-110372274D01*
X152682179Y-110548731D01*
X152527176Y-110922018D01*
X152526824Y-111326208D01*
X152562379Y-111412257D01*
X152269734Y-111533175D01*
X151983679Y-111818731D01*
X151828676Y-112192018D01*
X151828324Y-112596208D01*
X151982675Y-112969766D01*
X152268231Y-113255821D01*
X152305508Y-113271300D01*
X150345088Y-113271300D01*
X150063200Y-112989412D01*
X150063200Y-106616500D01*
X175510041Y-106616500D01*
X175624115Y-107189989D01*
X175948971Y-107676170D01*
X176263752Y-107886500D01*
X175948971Y-108096830D01*
X175624115Y-108583011D01*
X175510041Y-109156500D01*
X175624115Y-109729989D01*
X175948971Y-110216170D01*
X176435152Y-110541026D01*
X177008641Y-110655100D01*
X177067359Y-110655100D01*
X177640848Y-110541026D01*
X178127029Y-110216170D01*
X178308000Y-109945328D01*
X178488971Y-110216170D01*
X178975152Y-110541026D01*
X179548641Y-110655100D01*
X179607359Y-110655100D01*
X180180848Y-110541026D01*
X180667029Y-110216170D01*
X180848000Y-109945328D01*
X181028971Y-110216170D01*
X181515152Y-110541026D01*
X182088641Y-110655100D01*
X182147359Y-110655100D01*
X182720848Y-110541026D01*
X183207029Y-110216170D01*
X183388000Y-109945328D01*
X183568971Y-110216170D01*
X184055152Y-110541026D01*
X184628641Y-110655100D01*
X184687359Y-110655100D01*
X185260848Y-110541026D01*
X185747029Y-110216170D01*
X185928000Y-109945328D01*
X186108971Y-110216170D01*
X186595152Y-110541026D01*
X187168641Y-110655100D01*
X187227359Y-110655100D01*
X187800848Y-110541026D01*
X188287029Y-110216170D01*
X188611885Y-109729989D01*
X188725959Y-109156500D01*
X188611885Y-108583011D01*
X188287029Y-108096830D01*
X188273358Y-108087695D01*
X188296917Y-108083262D01*
X188513041Y-107944190D01*
X188658031Y-107731990D01*
X188709040Y-107480100D01*
X188709040Y-105752900D01*
X188664762Y-105517583D01*
X188525690Y-105301459D01*
X188313490Y-105156469D01*
X188061600Y-105105460D01*
X186334400Y-105105460D01*
X186099083Y-105149738D01*
X185882959Y-105288810D01*
X185737969Y-105501010D01*
X185729092Y-105544845D01*
X185260848Y-105231974D01*
X184687359Y-105117900D01*
X184628641Y-105117900D01*
X184055152Y-105231974D01*
X183568971Y-105556830D01*
X183388000Y-105827672D01*
X183207029Y-105556830D01*
X182720848Y-105231974D01*
X182147359Y-105117900D01*
X182088641Y-105117900D01*
X181515152Y-105231974D01*
X181028971Y-105556830D01*
X180848000Y-105827672D01*
X180667029Y-105556830D01*
X180180848Y-105231974D01*
X179607359Y-105117900D01*
X179548641Y-105117900D01*
X178975152Y-105231974D01*
X178488971Y-105556830D01*
X178308000Y-105827672D01*
X178127029Y-105556830D01*
X177640848Y-105231974D01*
X177067359Y-105117900D01*
X177008641Y-105117900D01*
X176435152Y-105231974D01*
X175948971Y-105556830D01*
X175624115Y-106043011D01*
X175510041Y-106616500D01*
X150063200Y-106616500D01*
X150063200Y-104902000D01*
X150009063Y-104629836D01*
X150009063Y-104629835D01*
X149854894Y-104399106D01*
X148934144Y-103478356D01*
X148703415Y-103324187D01*
X148431250Y-103270050D01*
X143328339Y-103270050D01*
X139758394Y-99700106D01*
X139527665Y-99545937D01*
X139255500Y-99491800D01*
X136806129Y-99491800D01*
X136656769Y-99342179D01*
X136283482Y-99187176D01*
X135879292Y-99186824D01*
X135505734Y-99341175D01*
X135219679Y-99626731D01*
X135064676Y-100000018D01*
X135064324Y-100404208D01*
X127167469Y-100404208D01*
X127016080Y-100118026D01*
X126642947Y-99809110D01*
X126180000Y-99666500D01*
X125780000Y-99666500D01*
X125526000Y-99666500D01*
X125126000Y-99666500D01*
X124663053Y-99809110D01*
X124358000Y-100061663D01*
X124052947Y-99809110D01*
X123590000Y-99666500D01*
X123190000Y-99666500D01*
X122936000Y-99666500D01*
X122536000Y-99666500D01*
X122073053Y-99809110D01*
X121699920Y-100118026D01*
X121473408Y-100546219D01*
X121469538Y-100583891D01*
X99216856Y-100583891D01*
X99186023Y-100428886D01*
X98918309Y-100028223D01*
X98517646Y-99760509D01*
X98045032Y-99666500D01*
X97180968Y-99666500D01*
X96708354Y-99760509D01*
X96343000Y-100004630D01*
X95977646Y-99760509D01*
X95505032Y-99666500D01*
X94640968Y-99666500D01*
X94168354Y-99760509D01*
X93767691Y-100028223D01*
X93499977Y-100428886D01*
X93405968Y-100901500D01*
X86308000Y-100901500D01*
X86308000Y-98361500D01*
X93405968Y-98361500D01*
X93499977Y-98834114D01*
X93767691Y-99234777D01*
X94168354Y-99502491D01*
X94640968Y-99596500D01*
X95505032Y-99596500D01*
X95977646Y-99502491D01*
X96343000Y-99258370D01*
X96708354Y-99502491D01*
X97180968Y-99596500D01*
X98045032Y-99596500D01*
X98517646Y-99502491D01*
X98918309Y-99234777D01*
X99186023Y-98834114D01*
X99280032Y-98361500D01*
X121395968Y-98361500D01*
X121489977Y-98834114D01*
X121757691Y-99234777D01*
X122158354Y-99502491D01*
X122630968Y-99596500D01*
X123495032Y-99596500D01*
X123967646Y-99502491D01*
X124358000Y-99241665D01*
X124748354Y-99502491D01*
X125220968Y-99596500D01*
X126085032Y-99596500D01*
X126557646Y-99502491D01*
X126958309Y-99234777D01*
X127226023Y-98834114D01*
X127320032Y-98361500D01*
X127226023Y-97888886D01*
X126958309Y-97488223D01*
X126557646Y-97220509D01*
X126085032Y-97126500D01*
X125220968Y-97126500D01*
X124748354Y-97220509D01*
X124358000Y-97481335D01*
X123967646Y-97220509D01*
X123495032Y-97126500D01*
X122630968Y-97126500D01*
X122158354Y-97220509D01*
X121757691Y-97488223D01*
X121489977Y-97888886D01*
X121395968Y-98361500D01*
X99280032Y-98361500D01*
X99186023Y-97888886D01*
X98918309Y-97488223D01*
X98517646Y-97220509D01*
X98045032Y-97126500D01*
X97180968Y-97126500D01*
X96708354Y-97220509D01*
X96343000Y-97464630D01*
X95977646Y-97220509D01*
X95505032Y-97126500D01*
X94640968Y-97126500D01*
X94168354Y-97220509D01*
X93767691Y-97488223D01*
X93499977Y-97888886D01*
X93405968Y-98361500D01*
X86308000Y-98361500D01*
X86308000Y-95821500D01*
X93405968Y-95821500D01*
X93499977Y-96294114D01*
X93767691Y-96694777D01*
X94168354Y-96962491D01*
X94640968Y-97056500D01*
X95505032Y-97056500D01*
X95977646Y-96962491D01*
X96343000Y-96718370D01*
X96708354Y-96962491D01*
X97180968Y-97056500D01*
X98045032Y-97056500D01*
X98517646Y-96962491D01*
X98918309Y-96694777D01*
X99186023Y-96294114D01*
X99280032Y-95821500D01*
X121395968Y-95821500D01*
X121489977Y-96294114D01*
X121757691Y-96694777D01*
X122158354Y-96962491D01*
X122630968Y-97056500D01*
X123495032Y-97056500D01*
X123967646Y-96962491D01*
X124358000Y-96701665D01*
X124748354Y-96962491D01*
X125220968Y-97056500D01*
X126085032Y-97056500D01*
X126557646Y-96962491D01*
X126958309Y-96694777D01*
X127226023Y-96294114D01*
X127269508Y-96075500D01*
X136233679Y-96075500D01*
X136359354Y-96707310D01*
X136717246Y-97242933D01*
X137252869Y-97600825D01*
X137884679Y-97726500D01*
X138467321Y-97726500D01*
X139099131Y-97600825D01*
X139634754Y-97242933D01*
X139992646Y-96707310D01*
X140007924Y-96630500D01*
X146123560Y-96630500D01*
X146123560Y-98630500D01*
X146167838Y-98865817D01*
X146306910Y-99081941D01*
X146519110Y-99226931D01*
X146771000Y-99277940D01*
X151171000Y-99277940D01*
X151406317Y-99233662D01*
X151622441Y-99094590D01*
X151668282Y-99027500D01*
X159599344Y-99027500D01*
X163096172Y-102524328D01*
X163549391Y-102827160D01*
X164084000Y-102933500D01*
X164618609Y-102827160D01*
X165071828Y-102524328D01*
X165374660Y-102071109D01*
X165481000Y-101536500D01*
X165374660Y-101001891D01*
X165071828Y-100548672D01*
X161165828Y-96642672D01*
X160712609Y-96339840D01*
X160178000Y-96233500D01*
X151670122Y-96233500D01*
X151635090Y-96179059D01*
X151422890Y-96034069D01*
X151171000Y-95983060D01*
X146771000Y-95983060D01*
X146535683Y-96027338D01*
X146319559Y-96166410D01*
X146174569Y-96378610D01*
X146123560Y-96630500D01*
X140007924Y-96630500D01*
X140118321Y-96075500D01*
X139992646Y-95443690D01*
X139634754Y-94908067D01*
X139460219Y-94791446D01*
X139687236Y-94613130D01*
X140003926Y-94049977D01*
X140035975Y-93918444D01*
X139916836Y-93662500D01*
X138303000Y-93662500D01*
X138303000Y-93682500D01*
X138049000Y-93682500D01*
X138049000Y-93662500D01*
X136435164Y-93662500D01*
X136316025Y-93918444D01*
X136348074Y-94049977D01*
X136664764Y-94613130D01*
X136891781Y-94791446D01*
X136717246Y-94908067D01*
X136359354Y-95443690D01*
X136233679Y-96075500D01*
X127269508Y-96075500D01*
X127320032Y-95821500D01*
X127226023Y-95348886D01*
X126958309Y-94948223D01*
X126557646Y-94680509D01*
X126085032Y-94586500D01*
X125220968Y-94586500D01*
X124748354Y-94680509D01*
X124358000Y-94941335D01*
X123967646Y-94680509D01*
X123495032Y-94586500D01*
X122630968Y-94586500D01*
X122158354Y-94680509D01*
X121757691Y-94948223D01*
X121489977Y-95348886D01*
X121395968Y-95821500D01*
X99280032Y-95821500D01*
X99186023Y-95348886D01*
X98918309Y-94948223D01*
X98517646Y-94680509D01*
X98045032Y-94586500D01*
X97180968Y-94586500D01*
X96708354Y-94680509D01*
X96343000Y-94924630D01*
X95977646Y-94680509D01*
X95505032Y-94586500D01*
X94640968Y-94586500D01*
X94168354Y-94680509D01*
X93767691Y-94948223D01*
X93499977Y-95348886D01*
X93405968Y-95821500D01*
X86308000Y-95821500D01*
X86308000Y-93281500D01*
X93405968Y-93281500D01*
X93499977Y-93754114D01*
X93767691Y-94154777D01*
X94168354Y-94422491D01*
X94640968Y-94516500D01*
X95505032Y-94516500D01*
X95977646Y-94422491D01*
X96343000Y-94178370D01*
X96708354Y-94422491D01*
X97180968Y-94516500D01*
X98045032Y-94516500D01*
X98517646Y-94422491D01*
X98918309Y-94154777D01*
X99186023Y-93754114D01*
X99280032Y-93281500D01*
X121395968Y-93281500D01*
X121489977Y-93754114D01*
X121757691Y-94154777D01*
X122158354Y-94422491D01*
X122630968Y-94516500D01*
X123495032Y-94516500D01*
X123967646Y-94422491D01*
X124358000Y-94161665D01*
X124748354Y-94422491D01*
X125220968Y-94516500D01*
X126085032Y-94516500D01*
X126557646Y-94422491D01*
X126958309Y-94154777D01*
X127226023Y-93754114D01*
X127320032Y-93281500D01*
X127226023Y-92808886D01*
X126958309Y-92408223D01*
X126557646Y-92140509D01*
X126085032Y-92046500D01*
X125220968Y-92046500D01*
X124748354Y-92140509D01*
X124358000Y-92401335D01*
X123967646Y-92140509D01*
X123495032Y-92046500D01*
X122630968Y-92046500D01*
X122158354Y-92140509D01*
X121757691Y-92408223D01*
X121489977Y-92808886D01*
X121395968Y-93281500D01*
X99280032Y-93281500D01*
X99186023Y-92808886D01*
X98918309Y-92408223D01*
X98517646Y-92140509D01*
X98045032Y-92046500D01*
X97180968Y-92046500D01*
X96708354Y-92140509D01*
X96343000Y-92384630D01*
X95977646Y-92140509D01*
X95505032Y-92046500D01*
X94640968Y-92046500D01*
X94168354Y-92140509D01*
X93767691Y-92408223D01*
X93499977Y-92808886D01*
X93405968Y-93281500D01*
X86308000Y-93281500D01*
X86308000Y-90634672D01*
X87375538Y-90634672D01*
X87780709Y-91615261D01*
X88530293Y-92366155D01*
X89510173Y-92773036D01*
X90571172Y-92773962D01*
X91551761Y-92368791D01*
X92302655Y-91619207D01*
X92667110Y-90741500D01*
X93405968Y-90741500D01*
X93499977Y-91214114D01*
X93767691Y-91614777D01*
X94168354Y-91882491D01*
X94640968Y-91976500D01*
X95505032Y-91976500D01*
X95977646Y-91882491D01*
X96343000Y-91638370D01*
X96708354Y-91882491D01*
X97180968Y-91976500D01*
X98045032Y-91976500D01*
X98517646Y-91882491D01*
X98918309Y-91614777D01*
X99186023Y-91214114D01*
X99280032Y-90741500D01*
X121395968Y-90741500D01*
X121489977Y-91214114D01*
X121757691Y-91614777D01*
X122158354Y-91882491D01*
X122630968Y-91976500D01*
X123495032Y-91976500D01*
X123967646Y-91882491D01*
X124358000Y-91621665D01*
X124748354Y-91882491D01*
X125220968Y-91976500D01*
X126085032Y-91976500D01*
X126557646Y-91882491D01*
X126958309Y-91614777D01*
X127226023Y-91214114D01*
X127269508Y-90995500D01*
X136233679Y-90995500D01*
X136359354Y-91627310D01*
X136717246Y-92162933D01*
X136891781Y-92279554D01*
X136664764Y-92457870D01*
X136348074Y-93021023D01*
X136316025Y-93152556D01*
X136435164Y-93408500D01*
X138049000Y-93408500D01*
X138049000Y-93388500D01*
X138303000Y-93388500D01*
X138303000Y-93408500D01*
X139916836Y-93408500D01*
X140035975Y-93152556D01*
X140003926Y-93021023D01*
X139687236Y-92457870D01*
X139460219Y-92279554D01*
X139634754Y-92162933D01*
X139992646Y-91627310D01*
X140118321Y-90995500D01*
X139992646Y-90363690D01*
X139634754Y-89828067D01*
X139099131Y-89470175D01*
X138467321Y-89344500D01*
X137884679Y-89344500D01*
X137252869Y-89470175D01*
X136717246Y-89828067D01*
X136359354Y-90363690D01*
X136233679Y-90995500D01*
X127269508Y-90995500D01*
X127320032Y-90741500D01*
X127226023Y-90268886D01*
X126958309Y-89868223D01*
X126557646Y-89600509D01*
X126085032Y-89506500D01*
X125220968Y-89506500D01*
X124748354Y-89600509D01*
X124358000Y-89861335D01*
X123967646Y-89600509D01*
X123495032Y-89506500D01*
X122630968Y-89506500D01*
X122158354Y-89600509D01*
X121757691Y-89868223D01*
X121489977Y-90268886D01*
X121395968Y-90741500D01*
X99280032Y-90741500D01*
X99186023Y-90268886D01*
X98918309Y-89868223D01*
X98517646Y-89600509D01*
X98045032Y-89506500D01*
X97180968Y-89506500D01*
X96708354Y-89600509D01*
X96343000Y-89844630D01*
X95977646Y-89600509D01*
X95505032Y-89506500D01*
X94640968Y-89506500D01*
X94168354Y-89600509D01*
X93767691Y-89868223D01*
X93499977Y-90268886D01*
X93405968Y-90741500D01*
X92667110Y-90741500D01*
X92709536Y-90639327D01*
X92710462Y-89578328D01*
X92305291Y-88597739D01*
X92226799Y-88519109D01*
X93479538Y-88519109D01*
X93483408Y-88556781D01*
X93709920Y-88984974D01*
X94083053Y-89293890D01*
X94546000Y-89436500D01*
X94946000Y-89436500D01*
X94946000Y-88328500D01*
X95200000Y-88328500D01*
X95200000Y-89436500D01*
X95600000Y-89436500D01*
X96062947Y-89293890D01*
X96343000Y-89062035D01*
X96623053Y-89293890D01*
X97086000Y-89436500D01*
X97486000Y-89436500D01*
X97486000Y-88328500D01*
X97740000Y-88328500D01*
X97740000Y-89436500D01*
X98140000Y-89436500D01*
X98602947Y-89293890D01*
X98976080Y-88984974D01*
X99202592Y-88556781D01*
X99206462Y-88519109D01*
X99081731Y-88328500D01*
X97740000Y-88328500D01*
X97486000Y-88328500D01*
X95200000Y-88328500D01*
X94946000Y-88328500D01*
X93604269Y-88328500D01*
X93479538Y-88519109D01*
X92226799Y-88519109D01*
X91555707Y-87846845D01*
X90575827Y-87439964D01*
X89514828Y-87439038D01*
X88534239Y-87844209D01*
X87783345Y-88593793D01*
X87376464Y-89573673D01*
X87375538Y-90634672D01*
X86308000Y-90634672D01*
X86308000Y-87006500D01*
X94416150Y-87006500D01*
X94083053Y-87109110D01*
X94083053Y-87109110D01*
G37*
X94083053Y-87109110D02*
X93709920Y-87418026D01*
X93483408Y-87846219D01*
X93479538Y-87883891D01*
X93604269Y-88074500D01*
X94946000Y-88074500D01*
X94946000Y-88054500D01*
X95200000Y-88054500D01*
X95200000Y-88074500D01*
X97486000Y-88074500D01*
X97486000Y-88054500D01*
X97740000Y-88054500D01*
X97740000Y-88074500D01*
X99081731Y-88074500D01*
X99206462Y-87883891D01*
X99202592Y-87846219D01*
X98976080Y-87418026D01*
X98602947Y-87109110D01*
X98269850Y-87006500D01*
X122429875Y-87006500D01*
X122158354Y-87060509D01*
X121757691Y-87328223D01*
X121489977Y-87728886D01*
X121395968Y-88201500D01*
X121489977Y-88674114D01*
X121757691Y-89074777D01*
X122158354Y-89342491D01*
X122630968Y-89436500D01*
X123495032Y-89436500D01*
X123967646Y-89342491D01*
X124358000Y-89081665D01*
X124748354Y-89342491D01*
X125220968Y-89436500D01*
X126085032Y-89436500D01*
X126557646Y-89342491D01*
X126958309Y-89074777D01*
X127226023Y-88674114D01*
X127234698Y-88630500D01*
X142823560Y-88630500D01*
X142823560Y-92630500D01*
X142867838Y-92865817D01*
X143006910Y-93081941D01*
X143219110Y-93226931D01*
X143471000Y-93277940D01*
X145471000Y-93277940D01*
X145706317Y-93233662D01*
X145922441Y-93094590D01*
X146067431Y-92882390D01*
X146118440Y-92630500D01*
X146118440Y-91916250D01*
X146486000Y-91916250D01*
X146486000Y-92756810D01*
X146582673Y-92990199D01*
X146761302Y-93168827D01*
X146994691Y-93265500D01*
X148685250Y-93265500D01*
X148844000Y-93106750D01*
X148844000Y-91757500D01*
X149098000Y-91757500D01*
X149098000Y-93106750D01*
X149256750Y-93265500D01*
X150947309Y-93265500D01*
X151180698Y-93168827D01*
X151359327Y-92990199D01*
X151456000Y-92756810D01*
X151456000Y-91916250D01*
X151297250Y-91757500D01*
X149098000Y-91757500D01*
X148844000Y-91757500D01*
X146644750Y-91757500D01*
X146486000Y-91916250D01*
X146118440Y-91916250D01*
X146118440Y-90504190D01*
X146486000Y-90504190D01*
X146486000Y-91344750D01*
X146644750Y-91503500D01*
X148844000Y-91503500D01*
X148844000Y-91483500D01*
X149098000Y-91483500D01*
X149098000Y-91503500D01*
X151297250Y-91503500D01*
X151456000Y-91344750D01*
X151456000Y-90504190D01*
X151359327Y-90270801D01*
X151180698Y-90092173D01*
X150947309Y-89995500D01*
X149687064Y-89995500D01*
X149839371Y-89932568D01*
X150271551Y-89501143D01*
X150505733Y-88937170D01*
X150506000Y-88630500D01*
X151823560Y-88630500D01*
X151823560Y-92630500D01*
X151867838Y-92865817D01*
X152006910Y-93081941D01*
X152219110Y-93226931D01*
X152471000Y-93277940D01*
X154471000Y-93277940D01*
X154706317Y-93233662D01*
X154922441Y-93094590D01*
X155067431Y-92882390D01*
X155118440Y-92630500D01*
X155118440Y-92011500D01*
X175510041Y-92011500D01*
X175624115Y-92584989D01*
X175948971Y-93071170D01*
X176263752Y-93281500D01*
X175948971Y-93491830D01*
X175624115Y-93978011D01*
X175510041Y-94551500D01*
X175624115Y-95124989D01*
X175948971Y-95611170D01*
X176435152Y-95936026D01*
X177008641Y-96050100D01*
X177067359Y-96050100D01*
X177640848Y-95936026D01*
X178127029Y-95611170D01*
X178308000Y-95340328D01*
X178488971Y-95611170D01*
X178975152Y-95936026D01*
X179548641Y-96050100D01*
X179607359Y-96050100D01*
X180180848Y-95936026D01*
X180667029Y-95611170D01*
X180848000Y-95340328D01*
X181028971Y-95611170D01*
X181515152Y-95936026D01*
X182088641Y-96050100D01*
X182147359Y-96050100D01*
X182720848Y-95936026D01*
X183207029Y-95611170D01*
X183388000Y-95340328D01*
X183568971Y-95611170D01*
X184055152Y-95936026D01*
X184628641Y-96050100D01*
X184687359Y-96050100D01*
X185260848Y-95936026D01*
X185747029Y-95611170D01*
X185928000Y-95340328D01*
X186108971Y-95611170D01*
X186595152Y-95936026D01*
X187168641Y-96050100D01*
X187227359Y-96050100D01*
X187800848Y-95936026D01*
X188287029Y-95611170D01*
X188611885Y-95124989D01*
X188725959Y-94551500D01*
X188611885Y-93978011D01*
X188287029Y-93491830D01*
X188273358Y-93482695D01*
X188296917Y-93478262D01*
X188513041Y-93339190D01*
X188658031Y-93126990D01*
X188709040Y-92875100D01*
X188709040Y-91147900D01*
X188664762Y-90912583D01*
X188525690Y-90696459D01*
X188435262Y-90634672D01*
X193420538Y-90634672D01*
X193825709Y-91615261D01*
X194575293Y-92366155D01*
X195555173Y-92773036D01*
X196616172Y-92773962D01*
X197596761Y-92368791D01*
X198347655Y-91619207D01*
X198754536Y-90639327D01*
X198755462Y-89578328D01*
X198350291Y-88597739D01*
X197600707Y-87846845D01*
X196620827Y-87439964D01*
X195559828Y-87439038D01*
X194579239Y-87844209D01*
X193828345Y-88593793D01*
X193421464Y-89573673D01*
X193420538Y-90634672D01*
X188435262Y-90634672D01*
X188313490Y-90551469D01*
X188061600Y-90500460D01*
X186334400Y-90500460D01*
X186099083Y-90544738D01*
X185882959Y-90683810D01*
X185737969Y-90896010D01*
X185729092Y-90939845D01*
X185260848Y-90626974D01*
X184687359Y-90512900D01*
X184628641Y-90512900D01*
X184055152Y-90626974D01*
X183568971Y-90951830D01*
X183388000Y-91222672D01*
X183207029Y-90951830D01*
X182720848Y-90626974D01*
X182147359Y-90512900D01*
X182088641Y-90512900D01*
X181515152Y-90626974D01*
X181028971Y-90951830D01*
X180848000Y-91222672D01*
X180667029Y-90951830D01*
X180180848Y-90626974D01*
X179607359Y-90512900D01*
X179548641Y-90512900D01*
X178975152Y-90626974D01*
X178488971Y-90951830D01*
X178308000Y-91222672D01*
X178127029Y-90951830D01*
X177640848Y-90626974D01*
X177067359Y-90512900D01*
X177008641Y-90512900D01*
X176435152Y-90626974D01*
X175948971Y-90951830D01*
X175624115Y-91438011D01*
X175510041Y-92011500D01*
X155118440Y-92011500D01*
X155118440Y-88630500D01*
X155074162Y-88395183D01*
X154935090Y-88179059D01*
X154722890Y-88034069D01*
X154471000Y-87983060D01*
X152471000Y-87983060D01*
X152235683Y-88027338D01*
X152019559Y-88166410D01*
X151874569Y-88378610D01*
X151823560Y-88630500D01*
X150506000Y-88630500D01*
X150506265Y-88326509D01*
X150273068Y-87762129D01*
X149841643Y-87329949D01*
X149277670Y-87095767D01*
X148667009Y-87095235D01*
X148102629Y-87328432D01*
X147670449Y-87759857D01*
X147436267Y-88323830D01*
X147435735Y-88934491D01*
X147668932Y-89498871D01*
X148100357Y-89931051D01*
X148255567Y-89995500D01*
X146994691Y-89995500D01*
X146761302Y-90092173D01*
X146582673Y-90270801D01*
X146486000Y-90504190D01*
X146118440Y-90504190D01*
X146118440Y-88630500D01*
X146074162Y-88395183D01*
X145935090Y-88179059D01*
X145722890Y-88034069D01*
X145471000Y-87983060D01*
X143471000Y-87983060D01*
X143235683Y-88027338D01*
X143019559Y-88166410D01*
X142874569Y-88378610D01*
X142823560Y-88630500D01*
X127234698Y-88630500D01*
X127320032Y-88201500D01*
X127226023Y-87728886D01*
X126958309Y-87328223D01*
X126557646Y-87060509D01*
X126286125Y-87006500D01*
X199188000Y-87006500D01*
X199188000Y-145911500D01*
X86308000Y-145911500D01*
X86308000Y-143339672D01*
X87375538Y-143339672D01*
X87780709Y-144320261D01*
X88530293Y-145071155D01*
X89510173Y-145478036D01*
X90571172Y-145478962D01*
X91551761Y-145073791D01*
X92302655Y-144324207D01*
X92709536Y-143344327D01*
X92709540Y-143339672D01*
X193420538Y-143339672D01*
X193825709Y-144320261D01*
X194575293Y-145071155D01*
X195555173Y-145478036D01*
X196616172Y-145478962D01*
X197596761Y-145073791D01*
X198347655Y-144324207D01*
X198754536Y-143344327D01*
X198755462Y-142283328D01*
X198350291Y-141302739D01*
X197600707Y-140551845D01*
X196620827Y-140144964D01*
X195559828Y-140144038D01*
X194579239Y-140549209D01*
X193828345Y-141298793D01*
X193421464Y-142278673D01*
X193420538Y-143339672D01*
X92709540Y-143339672D01*
X92710462Y-142283328D01*
X92305291Y-141302739D01*
X91555707Y-140551845D01*
X90575827Y-140144964D01*
X89514828Y-140144038D01*
X88534239Y-140549209D01*
X87783345Y-141298793D01*
X87376464Y-142278673D01*
X87375538Y-143339672D01*
X86308000Y-143339672D01*
X86308000Y-133921500D01*
X93405968Y-133921500D01*
X93499977Y-134394114D01*
X93767691Y-134794777D01*
X94168354Y-135062491D01*
X94640968Y-135156500D01*
X95505032Y-135156500D01*
X95977646Y-135062491D01*
X96343000Y-134818370D01*
X96708354Y-135062491D01*
X97180968Y-135156500D01*
X98045032Y-135156500D01*
X98517646Y-135062491D01*
X98918309Y-134794777D01*
X99186023Y-134394114D01*
X99280032Y-133921500D01*
X99186023Y-133448886D01*
X98918309Y-133048223D01*
X98517646Y-132780509D01*
X98045032Y-132686500D01*
X97180968Y-132686500D01*
X96708354Y-132780509D01*
X96343000Y-133024630D01*
X95977646Y-132780509D01*
X95505032Y-132686500D01*
X94640968Y-132686500D01*
X94168354Y-132780509D01*
X93767691Y-133048223D01*
X93499977Y-133448886D01*
X93405968Y-133921500D01*
X86308000Y-133921500D01*
X86308000Y-131381500D01*
X93405968Y-131381500D01*
X93499977Y-131854114D01*
X93767691Y-132254777D01*
X94168354Y-132522491D01*
X94640968Y-132616500D01*
X95505032Y-132616500D01*
X95977646Y-132522491D01*
X96343000Y-132278370D01*
X96708354Y-132522491D01*
X97180968Y-132616500D01*
X98045032Y-132616500D01*
X98517646Y-132522491D01*
X98918309Y-132254777D01*
X99186023Y-131854114D01*
X99280032Y-131381500D01*
X99186023Y-130908886D01*
X98918309Y-130508223D01*
X98517646Y-130240509D01*
X98045032Y-130146500D01*
X97180968Y-130146500D01*
X96708354Y-130240509D01*
X96343000Y-130484630D01*
X95977646Y-130240509D01*
X95505032Y-130146500D01*
X94640968Y-130146500D01*
X94168354Y-130240509D01*
X93767691Y-130508223D01*
X93499977Y-130908886D01*
X93405968Y-131381500D01*
X86308000Y-131381500D01*
X86308000Y-128841500D01*
X93405968Y-128841500D01*
X93499977Y-129314114D01*
X93767691Y-129714777D01*
X94168354Y-129982491D01*
X94640968Y-130076500D01*
X95505032Y-130076500D01*
X95977646Y-129982491D01*
X96343000Y-129738370D01*
X96708354Y-129982491D01*
X97180968Y-130076500D01*
X98045032Y-130076500D01*
X98517646Y-129982491D01*
X98918309Y-129714777D01*
X99186023Y-129314114D01*
X99280032Y-128841500D01*
X99186023Y-128368886D01*
X98918309Y-127968223D01*
X98517646Y-127700509D01*
X98045032Y-127606500D01*
X97180968Y-127606500D01*
X96708354Y-127700509D01*
X96343000Y-127944630D01*
X95977646Y-127700509D01*
X95505032Y-127606500D01*
X94640968Y-127606500D01*
X94168354Y-127700509D01*
X93767691Y-127968223D01*
X93499977Y-128368886D01*
X93405968Y-128841500D01*
X86308000Y-128841500D01*
X86308000Y-126301500D01*
X93405968Y-126301500D01*
X93499977Y-126774114D01*
X93767691Y-127174777D01*
X94168354Y-127442491D01*
X94640968Y-127536500D01*
X95505032Y-127536500D01*
X95977646Y-127442491D01*
X96343000Y-127198370D01*
X96708354Y-127442491D01*
X97180968Y-127536500D01*
X98045032Y-127536500D01*
X98517646Y-127442491D01*
X98918309Y-127174777D01*
X99186023Y-126774114D01*
X99280032Y-126301500D01*
X99186023Y-125828886D01*
X98918309Y-125428223D01*
X98517646Y-125160509D01*
X98045032Y-125066500D01*
X97180968Y-125066500D01*
X96708354Y-125160509D01*
X96343000Y-125404630D01*
X95977646Y-125160509D01*
X95505032Y-125066500D01*
X94640968Y-125066500D01*
X94168354Y-125160509D01*
X93767691Y-125428223D01*
X93499977Y-125828886D01*
X93405968Y-126301500D01*
X86308000Y-126301500D01*
X86308000Y-123761500D01*
X93405968Y-123761500D01*
X93499977Y-124234114D01*
X93767691Y-124634777D01*
X94168354Y-124902491D01*
X94640968Y-124996500D01*
X95505032Y-124996500D01*
X95977646Y-124902491D01*
X96343000Y-124658370D01*
X96708354Y-124902491D01*
X97180968Y-124996500D01*
X98045032Y-124996500D01*
X98517646Y-124902491D01*
X98918309Y-124634777D01*
X99186023Y-124234114D01*
X99280032Y-123761500D01*
X99186023Y-123288886D01*
X98918309Y-122888223D01*
X98517646Y-122620509D01*
X98045032Y-122526500D01*
X97180968Y-122526500D01*
X96708354Y-122620509D01*
X96343000Y-122864630D01*
X95977646Y-122620509D01*
X95505032Y-122526500D01*
X94640968Y-122526500D01*
X94168354Y-122620509D01*
X93767691Y-122888223D01*
X93499977Y-123288886D01*
X93405968Y-123761500D01*
X86308000Y-123761500D01*
X86308000Y-121221500D01*
X93405968Y-121221500D01*
X93499977Y-121694114D01*
X93767691Y-122094777D01*
X94168354Y-122362491D01*
X94640968Y-122456500D01*
X95505032Y-122456500D01*
X95977646Y-122362491D01*
X96343000Y-122118370D01*
X96708354Y-122362491D01*
X97180968Y-122456500D01*
X98045032Y-122456500D01*
X98517646Y-122362491D01*
X98918309Y-122094777D01*
X99186023Y-121694114D01*
X99280032Y-121221500D01*
X99186023Y-120748886D01*
X98918309Y-120348223D01*
X98517646Y-120080509D01*
X98045032Y-119986500D01*
X97180968Y-119986500D01*
X96708354Y-120080509D01*
X96343000Y-120324630D01*
X95977646Y-120080509D01*
X95505032Y-119986500D01*
X94640968Y-119986500D01*
X94168354Y-120080509D01*
X93767691Y-120348223D01*
X93499977Y-120748886D01*
X93405968Y-121221500D01*
X86308000Y-121221500D01*
X86308000Y-118681500D01*
X93405968Y-118681500D01*
X93499977Y-119154114D01*
X93767691Y-119554777D01*
X94168354Y-119822491D01*
X94640968Y-119916500D01*
X95505032Y-119916500D01*
X95977646Y-119822491D01*
X96343000Y-119578370D01*
X96708354Y-119822491D01*
X97180968Y-119916500D01*
X98045032Y-119916500D01*
X98517646Y-119822491D01*
X98884765Y-119577190D01*
X107352500Y-119577190D01*
X107352500Y-119792750D01*
X107511250Y-119951500D01*
X108460500Y-119951500D01*
X108460500Y-119227250D01*
X108301750Y-119068500D01*
X107861191Y-119068500D01*
X107627802Y-119165173D01*
X107449173Y-119343801D01*
X107352500Y-119577190D01*
X98884765Y-119577190D01*
X98918309Y-119554777D01*
X99186023Y-119154114D01*
X99280032Y-118681500D01*
X99186023Y-118208886D01*
X98918309Y-117808223D01*
X98517646Y-117540509D01*
X98045032Y-117446500D01*
X97180968Y-117446500D01*
X96708354Y-117540509D01*
X96343000Y-117784630D01*
X95977646Y-117540509D01*
X95505032Y-117446500D01*
X94640968Y-117446500D01*
X94168354Y-117540509D01*
X93767691Y-117808223D01*
X93499977Y-118208886D01*
X93405968Y-118681500D01*
X86308000Y-118681500D01*
X86308000Y-116141500D01*
X93405968Y-116141500D01*
X93499977Y-116614114D01*
X93767691Y-117014777D01*
X94168354Y-117282491D01*
X94640968Y-117376500D01*
X95505032Y-117376500D01*
X95977646Y-117282491D01*
X96343000Y-117038370D01*
X96708354Y-117282491D01*
X97180968Y-117376500D01*
X98045032Y-117376500D01*
X98517646Y-117282491D01*
X98918309Y-117014777D01*
X99186023Y-116614114D01*
X99280032Y-116141500D01*
X99186023Y-115668886D01*
X98918309Y-115268223D01*
X98517646Y-115000509D01*
X98045032Y-114906500D01*
X97180968Y-114906500D01*
X96708354Y-115000509D01*
X96343000Y-115244630D01*
X95977646Y-115000509D01*
X95505032Y-114906500D01*
X94640968Y-114906500D01*
X94168354Y-115000509D01*
X93767691Y-115268223D01*
X93499977Y-115668886D01*
X93405968Y-116141500D01*
X86308000Y-116141500D01*
X86308000Y-113601500D01*
X93405968Y-113601500D01*
X93499977Y-114074114D01*
X93767691Y-114474777D01*
X94168354Y-114742491D01*
X94640968Y-114836500D01*
X95505032Y-114836500D01*
X95977646Y-114742491D01*
X96343000Y-114498370D01*
X96708354Y-114742491D01*
X97180968Y-114836500D01*
X98045032Y-114836500D01*
X98517646Y-114742491D01*
X98918309Y-114474777D01*
X99186023Y-114074114D01*
X99280032Y-113601500D01*
X99186023Y-113128886D01*
X98918309Y-112728223D01*
X98517646Y-112460509D01*
X98045032Y-112366500D01*
X97180968Y-112366500D01*
X96708354Y-112460509D01*
X96343000Y-112704630D01*
X95977646Y-112460509D01*
X95505032Y-112366500D01*
X94640968Y-112366500D01*
X94168354Y-112460509D01*
X93767691Y-112728223D01*
X93499977Y-113128886D01*
X93405968Y-113601500D01*
X86308000Y-113601500D01*
X86308000Y-111061500D01*
X93405968Y-111061500D01*
X93499977Y-111534114D01*
X93767691Y-111934777D01*
X94168354Y-112202491D01*
X94640968Y-112296500D01*
X95505032Y-112296500D01*
X95977646Y-112202491D01*
X96343000Y-111958370D01*
X96708354Y-112202491D01*
X97180968Y-112296500D01*
X98045032Y-112296500D01*
X98517646Y-112202491D01*
X98918309Y-111934777D01*
X99186023Y-111534114D01*
X99280032Y-111061500D01*
X99186023Y-110588886D01*
X98918309Y-110188223D01*
X98517646Y-109920509D01*
X98045032Y-109826500D01*
X97180968Y-109826500D01*
X96708354Y-109920509D01*
X96343000Y-110164630D01*
X95977646Y-109920509D01*
X95505032Y-109826500D01*
X94640968Y-109826500D01*
X94168354Y-109920509D01*
X93767691Y-110188223D01*
X93499977Y-110588886D01*
X93405968Y-111061500D01*
X86308000Y-111061500D01*
X86308000Y-108521500D01*
X93405968Y-108521500D01*
X93499977Y-108994114D01*
X93767691Y-109394777D01*
X94168354Y-109662491D01*
X94640968Y-109756500D01*
X95505032Y-109756500D01*
X95977646Y-109662491D01*
X96343000Y-109418370D01*
X96708354Y-109662491D01*
X97180968Y-109756500D01*
X98045032Y-109756500D01*
X98517646Y-109662491D01*
X98918309Y-109394777D01*
X99186023Y-108994114D01*
X99280032Y-108521500D01*
X99186023Y-108048886D01*
X98918309Y-107648223D01*
X98625700Y-107452708D01*
X103631824Y-107452708D01*
X103786175Y-107826266D01*
X104071731Y-108112321D01*
X104445018Y-108267324D01*
X104849208Y-108267676D01*
X105222766Y-108113325D01*
X105508821Y-107827769D01*
X105663824Y-107454482D01*
X105664010Y-107241279D01*
X105981918Y-106923370D01*
X106011800Y-106929421D01*
X106011800Y-107802500D01*
X106065937Y-108074665D01*
X106220106Y-108305394D01*
X106634339Y-108719627D01*
X106609069Y-108756610D01*
X106558060Y-109008500D01*
X106558060Y-110508500D01*
X106602338Y-110743817D01*
X106741410Y-110959941D01*
X106953610Y-111104931D01*
X107205500Y-111155940D01*
X107805500Y-111155940D01*
X108040817Y-111111662D01*
X108140028Y-111047822D01*
X108223610Y-111104931D01*
X108475500Y-111155940D01*
X109075500Y-111155940D01*
X109310817Y-111111662D01*
X109334300Y-111096551D01*
X109334300Y-112014000D01*
X109388437Y-112286165D01*
X109542606Y-112516894D01*
X110825566Y-113799854D01*
X110672378Y-113863306D01*
X110597390Y-113812069D01*
X110345500Y-113761060D01*
X109745500Y-113761060D01*
X109510183Y-113805338D01*
X109410972Y-113869178D01*
X109327390Y-113812069D01*
X109075500Y-113761060D01*
X108475500Y-113761060D01*
X108240183Y-113805338D01*
X108140972Y-113869178D01*
X108057390Y-113812069D01*
X107805500Y-113761060D01*
X107205500Y-113761060D01*
X106970183Y-113805338D01*
X106754059Y-113944410D01*
X106609069Y-114156610D01*
X106558060Y-114408500D01*
X106558060Y-115908500D01*
X106602338Y-116143817D01*
X106741410Y-116359941D01*
X106953610Y-116504931D01*
X107205500Y-116555940D01*
X107805500Y-116555940D01*
X108040817Y-116511662D01*
X108140028Y-116447822D01*
X108223610Y-116504931D01*
X108475500Y-116555940D01*
X109075500Y-116555940D01*
X109310817Y-116511662D01*
X109410028Y-116447822D01*
X109493610Y-116504931D01*
X109745500Y-116555940D01*
X110345500Y-116555940D01*
X110580817Y-116511662D01*
X110671480Y-116453322D01*
X110889190Y-116543500D01*
X111029750Y-116543500D01*
X111188500Y-116384750D01*
X111188500Y-115285500D01*
X111168500Y-115285500D01*
X111168500Y-115031500D01*
X111188500Y-115031500D01*
X111188500Y-115011500D01*
X111442500Y-115011500D01*
X111442500Y-115031500D01*
X111462500Y-115031500D01*
X111462500Y-115285500D01*
X111442500Y-115285500D01*
X111442500Y-116384750D01*
X111601250Y-116543500D01*
X111741810Y-116543500D01*
X111874300Y-116488621D01*
X111874300Y-116672412D01*
X109984606Y-118562106D01*
X109830437Y-118792835D01*
X109830437Y-118792836D01*
X109776300Y-119065000D01*
X109776300Y-119076984D01*
X109652183Y-119100338D01*
X109548854Y-119166829D01*
X109547198Y-119165173D01*
X109313809Y-119068500D01*
X108873250Y-119068500D01*
X108714500Y-119227250D01*
X108714500Y-119951500D01*
X108734500Y-119951500D01*
X108734500Y-120205500D01*
X108714500Y-120205500D01*
X108714500Y-120225500D01*
X108460500Y-120225500D01*
X108460500Y-120205500D01*
X107511250Y-120205500D01*
X107352500Y-120364250D01*
X107352500Y-120579810D01*
X107449173Y-120813199D01*
X107627802Y-120991827D01*
X107861191Y-121088500D01*
X108301750Y-121088500D01*
X108460498Y-120929752D01*
X108460498Y-121088500D01*
X108471712Y-121088500D01*
X108166152Y-121394060D01*
X107901000Y-121394060D01*
X107665683Y-121438338D01*
X107449559Y-121577410D01*
X107304569Y-121789610D01*
X107253560Y-122041500D01*
X107253560Y-122941500D01*
X107297838Y-123176817D01*
X107436910Y-123392941D01*
X107649110Y-123537931D01*
X107901000Y-123588940D01*
X109101000Y-123588940D01*
X109336317Y-123544662D01*
X109552441Y-123405590D01*
X109600134Y-123335789D01*
X109636910Y-123392941D01*
X109849110Y-123537931D01*
X110037246Y-123576030D01*
X110043937Y-123609665D01*
X110198106Y-123840394D01*
X111061508Y-124703796D01*
X111061324Y-124915208D01*
X111215675Y-125288766D01*
X111501231Y-125574821D01*
X111874518Y-125729824D01*
X112278708Y-125730176D01*
X112652266Y-125575825D01*
X112938321Y-125290269D01*
X113093324Y-124916982D01*
X113093676Y-124512792D01*
X112939325Y-124139234D01*
X112653769Y-123853179D01*
X112280482Y-123698176D01*
X112067278Y-123697990D01*
X111761549Y-123392261D01*
X111897431Y-123193390D01*
X111948440Y-122941500D01*
X111948440Y-122041500D01*
X111904162Y-121806183D01*
X111765090Y-121590059D01*
X111552890Y-121445069D01*
X111301000Y-121394060D01*
X110177729Y-121394060D01*
X110470849Y-121100940D01*
X111087500Y-121100940D01*
X111322817Y-121056662D01*
X111538941Y-120917590D01*
X111683931Y-120705390D01*
X111734940Y-120453500D01*
X111734940Y-119703500D01*
X111690662Y-119468183D01*
X111551590Y-119252059D01*
X111405826Y-119152462D01*
X113088394Y-117469894D01*
X113144300Y-117386225D01*
X113144300Y-117624912D01*
X113014606Y-117754606D01*
X112860437Y-117985335D01*
X112819396Y-118191664D01*
X112806300Y-118257500D01*
X112806300Y-119065484D01*
X112682183Y-119088838D01*
X112466059Y-119227910D01*
X112321069Y-119440110D01*
X112270060Y-119692000D01*
X112270060Y-120592000D01*
X112314338Y-120827317D01*
X112453410Y-121043441D01*
X112665610Y-121188431D01*
X112806300Y-121216921D01*
X112806300Y-121414984D01*
X112682183Y-121438338D01*
X112466059Y-121577410D01*
X112321069Y-121789610D01*
X112270060Y-122041500D01*
X112270060Y-122941500D01*
X112314338Y-123176817D01*
X112453410Y-123392941D01*
X112665610Y-123537931D01*
X112917500Y-123588940D01*
X114117500Y-123588940D01*
X114352817Y-123544662D01*
X114568941Y-123405590D01*
X114615469Y-123337494D01*
X114757802Y-123479827D01*
X114991191Y-123576500D01*
X115431750Y-123576500D01*
X115590500Y-123417750D01*
X115590500Y-122618500D01*
X115844500Y-122618500D01*
X115844500Y-123417750D01*
X116003250Y-123576500D01*
X116443809Y-123576500D01*
X116677198Y-123479827D01*
X116855827Y-123301199D01*
X116952500Y-123067810D01*
X116952500Y-122777250D01*
X116793750Y-122618500D01*
X115844500Y-122618500D01*
X115590500Y-122618500D01*
X115570500Y-122618500D01*
X115570500Y-122364500D01*
X115590500Y-122364500D01*
X115590500Y-121565250D01*
X115844500Y-121565250D01*
X115844500Y-122364500D01*
X116793750Y-122364500D01*
X116952500Y-122205750D01*
X116952500Y-121915190D01*
X116855827Y-121681801D01*
X116677198Y-121503173D01*
X116443809Y-121406500D01*
X116003250Y-121406500D01*
X115844500Y-121565250D01*
X115590500Y-121565250D01*
X115431750Y-121406500D01*
X114991191Y-121406500D01*
X114757802Y-121503173D01*
X114616564Y-121644410D01*
X114581590Y-121590059D01*
X114369390Y-121445069D01*
X114228700Y-121416579D01*
X114228700Y-121218516D01*
X114352817Y-121195162D01*
X114568941Y-121056090D01*
X114616634Y-120986289D01*
X114653410Y-121043441D01*
X114865610Y-121188431D01*
X115117500Y-121239440D01*
X116317500Y-121239440D01*
X116412842Y-121221500D01*
X121395968Y-121221500D01*
X121489977Y-121694114D01*
X121757691Y-122094777D01*
X122158354Y-122362491D01*
X122630968Y-122456500D01*
X123495032Y-122456500D01*
X123967646Y-122362491D01*
X124358000Y-122101665D01*
X124748354Y-122362491D01*
X125220968Y-122456500D01*
X126085032Y-122456500D01*
X126557646Y-122362491D01*
X126958309Y-122094777D01*
X127226023Y-121694114D01*
X127320032Y-121221500D01*
X127226023Y-120748886D01*
X126958309Y-120348223D01*
X126557646Y-120080509D01*
X126085032Y-119986500D01*
X125220968Y-119986500D01*
X124748354Y-120080509D01*
X124358000Y-120341335D01*
X123967646Y-120080509D01*
X123495032Y-119986500D01*
X122630968Y-119986500D01*
X122158354Y-120080509D01*
X121757691Y-120348223D01*
X121489977Y-120748886D01*
X121395968Y-121221500D01*
X116412842Y-121221500D01*
X116552817Y-121195162D01*
X116768941Y-121056090D01*
X116913931Y-120843890D01*
X116964940Y-120592000D01*
X116964940Y-119692000D01*
X116920662Y-119456683D01*
X116781590Y-119240559D01*
X116569390Y-119095569D01*
X116428700Y-119067079D01*
X116428700Y-118511500D01*
X116374563Y-118239336D01*
X116322410Y-118161283D01*
X116220394Y-118008605D01*
X115836700Y-117624912D01*
X115836700Y-116398484D01*
X115876941Y-116372590D01*
X116021931Y-116160390D01*
X116072940Y-115908500D01*
X116072940Y-115869700D01*
X118483412Y-115869700D01*
X119258106Y-116644394D01*
X120528105Y-117914394D01*
X120758835Y-118068563D01*
X120803990Y-118077545D01*
X121031000Y-118122700D01*
X121547565Y-118122700D01*
X121489977Y-118208886D01*
X121395968Y-118681500D01*
X121489977Y-119154114D01*
X121757691Y-119554777D01*
X122158354Y-119822491D01*
X122630968Y-119916500D01*
X123495032Y-119916500D01*
X123967646Y-119822491D01*
X124358000Y-119561665D01*
X124748354Y-119822491D01*
X125220968Y-119916500D01*
X126085032Y-119916500D01*
X126557646Y-119822491D01*
X126958309Y-119554777D01*
X127226023Y-119154114D01*
X127320032Y-118681500D01*
X127226023Y-118208886D01*
X127168435Y-118122700D01*
X129245412Y-118122700D01*
X134244106Y-123121394D01*
X134474835Y-123275563D01*
X134747000Y-123329700D01*
X137602012Y-123329700D01*
X137500412Y-123431300D01*
X132779007Y-123431300D01*
X132656590Y-123241059D01*
X132444390Y-123096069D01*
X132192500Y-123045060D01*
X130992500Y-123045060D01*
X130757183Y-123089338D01*
X130541059Y-123228410D01*
X130493366Y-123298211D01*
X130456590Y-123241059D01*
X130244390Y-123096069D01*
X129992500Y-123045060D01*
X128792500Y-123045060D01*
X128557183Y-123089338D01*
X128341059Y-123228410D01*
X128202430Y-123431300D01*
X127254351Y-123431300D01*
X127226023Y-123288886D01*
X126958309Y-122888223D01*
X126557646Y-122620509D01*
X126085032Y-122526500D01*
X125220968Y-122526500D01*
X124748354Y-122620509D01*
X124358000Y-122881335D01*
X123967646Y-122620509D01*
X123495032Y-122526500D01*
X122630968Y-122526500D01*
X122158354Y-122620509D01*
X121757691Y-122888223D01*
X121489977Y-123288886D01*
X121395968Y-123761500D01*
X121489977Y-124234114D01*
X121757691Y-124634777D01*
X122158354Y-124902491D01*
X122630968Y-124996500D01*
X123495032Y-124996500D01*
X123967646Y-124902491D01*
X124358000Y-124641665D01*
X124748354Y-124902491D01*
X125220968Y-124996500D01*
X126085032Y-124996500D01*
X126557646Y-124902491D01*
X126630667Y-124853700D01*
X128205993Y-124853700D01*
X128328410Y-125043941D01*
X128449841Y-125126911D01*
X128341059Y-125196910D01*
X128196069Y-125409110D01*
X128145060Y-125661000D01*
X128145060Y-126561000D01*
X128189338Y-126796317D01*
X128328410Y-127012441D01*
X128434433Y-127084883D01*
X128266734Y-127154175D01*
X127980679Y-127439731D01*
X127926793Y-127569504D01*
X127188123Y-126830835D01*
X127226023Y-126774114D01*
X127320032Y-126301500D01*
X127226023Y-125828886D01*
X126958309Y-125428223D01*
X126557646Y-125160509D01*
X126085032Y-125066500D01*
X125220968Y-125066500D01*
X124748354Y-125160509D01*
X124358000Y-125421335D01*
X123967646Y-125160509D01*
X123495032Y-125066500D01*
X122630968Y-125066500D01*
X122158354Y-125160509D01*
X121757691Y-125428223D01*
X121489977Y-125828886D01*
X121395968Y-126301500D01*
X121489977Y-126774114D01*
X121757691Y-127174777D01*
X122158354Y-127442491D01*
X122630968Y-127536500D01*
X123495032Y-127536500D01*
X123967646Y-127442491D01*
X124358000Y-127181665D01*
X124748354Y-127442491D01*
X125220968Y-127536500D01*
X125882212Y-127536500D01*
X125952212Y-127606500D01*
X125220968Y-127606500D01*
X124748354Y-127700509D01*
X124358000Y-127961335D01*
X123967646Y-127700509D01*
X123495032Y-127606500D01*
X122630968Y-127606500D01*
X122158354Y-127700509D01*
X121757691Y-127968223D01*
X121489977Y-128368886D01*
X121395968Y-128841500D01*
X121489977Y-129314114D01*
X121757691Y-129714777D01*
X122158354Y-129982491D01*
X122630968Y-130076500D01*
X123495032Y-130076500D01*
X123967646Y-129982491D01*
X124358000Y-129721665D01*
X124748354Y-129982491D01*
X125220968Y-130076500D01*
X125882212Y-130076500D01*
X125952212Y-130146500D01*
X125220968Y-130146500D01*
X124748354Y-130240509D01*
X124358000Y-130501335D01*
X123967646Y-130240509D01*
X123495032Y-130146500D01*
X122630968Y-130146500D01*
X122158354Y-130240509D01*
X121757691Y-130508223D01*
X121489977Y-130908886D01*
X121395968Y-131381500D01*
X121489977Y-131854114D01*
X121757691Y-132254777D01*
X122158354Y-132522491D01*
X122630968Y-132616500D01*
X123495032Y-132616500D01*
X123967646Y-132522491D01*
X124358000Y-132261665D01*
X124748354Y-132522491D01*
X125220968Y-132616500D01*
X126085032Y-132616500D01*
X126557646Y-132522491D01*
X126733300Y-132405123D01*
X126733300Y-132897877D01*
X126557646Y-132780509D01*
X126085032Y-132686500D01*
X125220968Y-132686500D01*
X124748354Y-132780509D01*
X124358000Y-133041335D01*
X123967646Y-132780509D01*
X123495032Y-132686500D01*
X122630968Y-132686500D01*
X122158354Y-132780509D01*
X121757691Y-133048223D01*
X121489977Y-133448886D01*
X121395968Y-133921500D01*
X121489977Y-134394114D01*
X121757691Y-134794777D01*
X122158354Y-135062491D01*
X122630968Y-135156500D01*
X123495032Y-135156500D01*
X123967646Y-135062491D01*
X124358000Y-134801665D01*
X124748354Y-135062491D01*
X125220968Y-135156500D01*
X126085032Y-135156500D01*
X126557646Y-135062491D01*
X126958309Y-134794777D01*
X127226023Y-134394114D01*
X127247559Y-134285847D01*
X128081560Y-135119849D01*
X128081560Y-135578000D01*
X128125838Y-135813317D01*
X128264910Y-136029441D01*
X128477110Y-136174431D01*
X128484878Y-136176004D01*
X128277559Y-136309410D01*
X128132569Y-136521610D01*
X128081560Y-136773500D01*
X128081560Y-137673500D01*
X128125838Y-137908817D01*
X128264910Y-138124941D01*
X128477110Y-138269931D01*
X128729000Y-138320940D01*
X129929000Y-138320940D01*
X130164317Y-138276662D01*
X130380441Y-138137590D01*
X130426969Y-138069494D01*
X130569302Y-138211827D01*
X130802691Y-138308500D01*
X131243250Y-138308500D01*
X131402000Y-138149750D01*
X131402000Y-137350500D01*
X131656000Y-137350500D01*
X131656000Y-138149750D01*
X131814750Y-138308500D01*
X132255309Y-138308500D01*
X132488698Y-138211827D01*
X132667327Y-138033199D01*
X132764000Y-137799810D01*
X132764000Y-137509250D01*
X132605250Y-137350500D01*
X131656000Y-137350500D01*
X131402000Y-137350500D01*
X131382000Y-137350500D01*
X131382000Y-137096500D01*
X131402000Y-137096500D01*
X131402000Y-137076500D01*
X131656000Y-137076500D01*
X131656000Y-137096500D01*
X132605250Y-137096500D01*
X132764000Y-136937750D01*
X132764000Y-136647190D01*
X132667327Y-136413801D01*
X132488698Y-136235173D01*
X132360182Y-136181940D01*
X132364317Y-136181162D01*
X132580441Y-136042090D01*
X132719070Y-135839200D01*
X138833912Y-135839200D01*
X140068300Y-137073589D01*
X140068300Y-137314939D01*
X139729446Y-137541353D01*
X139509500Y-137870526D01*
X139289554Y-137541353D01*
X138807785Y-137219446D01*
X138239500Y-137106407D01*
X137671215Y-137219446D01*
X137189446Y-137541353D01*
X137161650Y-137582952D01*
X137152662Y-137535183D01*
X137013590Y-137319059D01*
X136801390Y-137174069D01*
X136549500Y-137123060D01*
X134849500Y-137123060D01*
X134614183Y-137167338D01*
X134398059Y-137306410D01*
X134253069Y-137518610D01*
X134202060Y-137770500D01*
X134202060Y-139470500D01*
X134246338Y-139705817D01*
X134385410Y-139921941D01*
X134597610Y-140066931D01*
X134849500Y-140117940D01*
X136549500Y-140117940D01*
X136784817Y-140073662D01*
X137000941Y-139934590D01*
X137145931Y-139722390D01*
X137159586Y-139654959D01*
X137189446Y-139699647D01*
X137671215Y-140021554D01*
X138239500Y-140134593D01*
X138807785Y-140021554D01*
X139289554Y-139699647D01*
X139509500Y-139370474D01*
X139729446Y-139699647D01*
X140211215Y-140021554D01*
X140779500Y-140134593D01*
X141347785Y-140021554D01*
X141829554Y-139699647D01*
X142057202Y-139358947D01*
X142124317Y-139501858D01*
X142552576Y-139892145D01*
X142962610Y-140061976D01*
X143192500Y-139940655D01*
X143192500Y-138747500D01*
X143446500Y-138747500D01*
X143446500Y-139940655D01*
X143676390Y-140061976D01*
X144086424Y-139892145D01*
X144514683Y-139501858D01*
X144760986Y-138977392D01*
X144640319Y-138747500D01*
X143446500Y-138747500D01*
X143192500Y-138747500D01*
X143172500Y-138747500D01*
X143172500Y-138493500D01*
X143192500Y-138493500D01*
X143192500Y-137300345D01*
X143446500Y-137300345D01*
X143446500Y-138493500D01*
X144640319Y-138493500D01*
X144760986Y-138263608D01*
X144514683Y-137739142D01*
X144086424Y-137348855D01*
X143676390Y-137179024D01*
X143446500Y-137300345D01*
X143192500Y-137300345D01*
X142962610Y-137179024D01*
X142552576Y-137348855D01*
X142124317Y-137739142D01*
X142057202Y-137882053D01*
X141829554Y-137541353D01*
X141490700Y-137314939D01*
X141490700Y-136779000D01*
X141436563Y-136506836D01*
X141431405Y-136499117D01*
X141282395Y-136276106D01*
X139631394Y-134625106D01*
X139400665Y-134470937D01*
X139128500Y-134416800D01*
X132715507Y-134416800D01*
X132593090Y-134226559D01*
X132380890Y-134081569D01*
X132129000Y-134030560D01*
X130929000Y-134030560D01*
X130693683Y-134074838D01*
X130477559Y-134213910D01*
X130429866Y-134283711D01*
X130393090Y-134226559D01*
X130180890Y-134081569D01*
X129929000Y-134030560D01*
X129003849Y-134030560D01*
X128912729Y-133939440D01*
X129929000Y-133939440D01*
X130164317Y-133895162D01*
X130380441Y-133756090D01*
X130426969Y-133687994D01*
X130569302Y-133830327D01*
X130802691Y-133927000D01*
X131243250Y-133927000D01*
X131402000Y-133768250D01*
X131402000Y-132969000D01*
X131656000Y-132969000D01*
X131656000Y-133768250D01*
X131814750Y-133927000D01*
X132255309Y-133927000D01*
X132488698Y-133830327D01*
X132667327Y-133651699D01*
X132764000Y-133418310D01*
X132764000Y-133127750D01*
X132605250Y-132969000D01*
X131656000Y-132969000D01*
X131402000Y-132969000D01*
X131382000Y-132969000D01*
X131382000Y-132715000D01*
X131402000Y-132715000D01*
X131402000Y-132695000D01*
X131656000Y-132695000D01*
X131656000Y-132715000D01*
X132605250Y-132715000D01*
X132764000Y-132556250D01*
X132764000Y-132265690D01*
X132667327Y-132032301D01*
X132488698Y-131853673D01*
X132482034Y-131850913D01*
X132580441Y-131787590D01*
X132649391Y-131686679D01*
X133672606Y-132709894D01*
X133903335Y-132864063D01*
X134175500Y-132918200D01*
X139382500Y-132918200D01*
X139654665Y-132864063D01*
X139885394Y-132709894D01*
X140996644Y-131598644D01*
X141282395Y-131312894D01*
X141436563Y-131082164D01*
X141438841Y-131070713D01*
X141829554Y-130809647D01*
X142057202Y-130468947D01*
X142124317Y-130611858D01*
X142552576Y-131002145D01*
X142962610Y-131171976D01*
X143192500Y-131050655D01*
X143192500Y-129857500D01*
X143446500Y-129857500D01*
X143446500Y-131050655D01*
X143676390Y-131171976D01*
X144086424Y-131002145D01*
X144514683Y-130611858D01*
X144760986Y-130087392D01*
X144640319Y-129857500D01*
X143446500Y-129857500D01*
X143192500Y-129857500D01*
X143172500Y-129857500D01*
X143172500Y-129603500D01*
X143192500Y-129603500D01*
X143192500Y-128410345D01*
X143446500Y-128410345D01*
X143446500Y-129603500D01*
X144640319Y-129603500D01*
X144760986Y-129373608D01*
X144514683Y-128849142D01*
X144086424Y-128458855D01*
X143676390Y-128289024D01*
X143446500Y-128410345D01*
X143192500Y-128410345D01*
X142962610Y-128289024D01*
X142552576Y-128458855D01*
X142124317Y-128849142D01*
X142057202Y-128992053D01*
X141829554Y-128651353D01*
X141347785Y-128329446D01*
X140779500Y-128216407D01*
X140211215Y-128329446D01*
X139729446Y-128651353D01*
X139509500Y-128980526D01*
X139289554Y-128651353D01*
X138807785Y-128329446D01*
X138318387Y-128232099D01*
X137599394Y-127513106D01*
X137368665Y-127358937D01*
X137096500Y-127304800D01*
X129567129Y-127304800D01*
X129470937Y-127208440D01*
X129992500Y-127208440D01*
X130227817Y-127164162D01*
X130443941Y-127025090D01*
X130490469Y-126956994D01*
X130632802Y-127099327D01*
X130866191Y-127196000D01*
X131306750Y-127196000D01*
X131465500Y-127037250D01*
X131465500Y-126238000D01*
X131719500Y-126238000D01*
X131719500Y-127037250D01*
X131878250Y-127196000D01*
X132318809Y-127196000D01*
X132552198Y-127099327D01*
X132730827Y-126920699D01*
X132827500Y-126687310D01*
X132827500Y-126555500D01*
X146304000Y-126555500D01*
X146304000Y-131381500D01*
X146366837Y-131697406D01*
X146545783Y-131965217D01*
X150837900Y-136257334D01*
X150837900Y-136740540D01*
X150680522Y-136845697D01*
X150393400Y-137275404D01*
X150106278Y-136845697D01*
X149655330Y-136544382D01*
X149123400Y-136438575D01*
X148591470Y-136544382D01*
X148140522Y-136845697D01*
X147839207Y-137296645D01*
X147733400Y-137828575D01*
X147733400Y-139412425D01*
X147839207Y-139944355D01*
X148140522Y-140395303D01*
X148591470Y-140696618D01*
X149123400Y-140802425D01*
X149655330Y-140696618D01*
X150106278Y-140395303D01*
X150393400Y-139965596D01*
X150680522Y-140395303D01*
X151131470Y-140696618D01*
X151663400Y-140802425D01*
X152195330Y-140696618D01*
X152646278Y-140395303D01*
X152947593Y-139944355D01*
X153053400Y-139412425D01*
X153053400Y-137828575D01*
X152947593Y-137296645D01*
X152646278Y-136845697D01*
X152488900Y-136740540D01*
X152488900Y-136461500D01*
X175510041Y-136461500D01*
X175624115Y-137034989D01*
X175948971Y-137521170D01*
X176263752Y-137731500D01*
X175948971Y-137941830D01*
X175624115Y-138428011D01*
X175510041Y-139001500D01*
X175624115Y-139574989D01*
X175948971Y-140061170D01*
X176435152Y-140386026D01*
X177008641Y-140500100D01*
X177067359Y-140500100D01*
X177640848Y-140386026D01*
X178127029Y-140061170D01*
X178308000Y-139790328D01*
X178488971Y-140061170D01*
X178975152Y-140386026D01*
X179548641Y-140500100D01*
X179607359Y-140500100D01*
X180180848Y-140386026D01*
X180667029Y-140061170D01*
X180848000Y-139790328D01*
X181028971Y-140061170D01*
X181515152Y-140386026D01*
X182088641Y-140500100D01*
X182147359Y-140500100D01*
X182720848Y-140386026D01*
X183207029Y-140061170D01*
X183388000Y-139790328D01*
X183568971Y-140061170D01*
X184055152Y-140386026D01*
X184628641Y-140500100D01*
X184687359Y-140500100D01*
X185260848Y-140386026D01*
X185747029Y-140061170D01*
X185928000Y-139790328D01*
X186108971Y-140061170D01*
X186595152Y-140386026D01*
X187168641Y-140500100D01*
X187227359Y-140500100D01*
X187800848Y-140386026D01*
X188287029Y-140061170D01*
X188611885Y-139574989D01*
X188725959Y-139001500D01*
X188611885Y-138428011D01*
X188287029Y-137941830D01*
X188273358Y-137932695D01*
X188296917Y-137928262D01*
X188513041Y-137789190D01*
X188658031Y-137576990D01*
X188709040Y-137325100D01*
X188709040Y-135597900D01*
X188664762Y-135362583D01*
X188525690Y-135146459D01*
X188313490Y-135001469D01*
X188061600Y-134950460D01*
X186334400Y-134950460D01*
X186099083Y-134994738D01*
X185882959Y-135133810D01*
X185737969Y-135346010D01*
X185729092Y-135389845D01*
X185260848Y-135076974D01*
X184687359Y-134962900D01*
X184628641Y-134962900D01*
X184055152Y-135076974D01*
X183568971Y-135401830D01*
X183388000Y-135672672D01*
X183207029Y-135401830D01*
X182720848Y-135076974D01*
X182147359Y-134962900D01*
X182088641Y-134962900D01*
X181515152Y-135076974D01*
X181028971Y-135401830D01*
X180848000Y-135672672D01*
X180667029Y-135401830D01*
X180180848Y-135076974D01*
X179607359Y-134962900D01*
X179548641Y-134962900D01*
X178975152Y-135076974D01*
X178488971Y-135401830D01*
X178308000Y-135672672D01*
X178127029Y-135401830D01*
X177640848Y-135076974D01*
X177067359Y-134962900D01*
X177008641Y-134962900D01*
X176435152Y-135076974D01*
X175948971Y-135401830D01*
X175624115Y-135888011D01*
X175510041Y-136461500D01*
X152488900Y-136461500D01*
X152488900Y-135915405D01*
X152488901Y-135915400D01*
X152426063Y-135599494D01*
X152247117Y-135331683D01*
X147955000Y-131039566D01*
X147955000Y-130592824D01*
X148191322Y-130946503D01*
X148642270Y-131247818D01*
X149174200Y-131353625D01*
X149706130Y-131247818D01*
X150157078Y-130946503D01*
X150444200Y-130516796D01*
X150731322Y-130946503D01*
X151182270Y-131247818D01*
X151714200Y-131353625D01*
X152246130Y-131247818D01*
X152697078Y-130946503D01*
X152998393Y-130495555D01*
X153097522Y-129997200D01*
X153339800Y-129997200D01*
X153655706Y-129934363D01*
X153923517Y-129755417D01*
X154634714Y-129044219D01*
X154634717Y-129044217D01*
X154813663Y-128776405D01*
X154818903Y-128750063D01*
X154876501Y-128460500D01*
X154876500Y-128460495D01*
X154876500Y-127158678D01*
X155021000Y-127187940D01*
X155621000Y-127187940D01*
X155856317Y-127143662D01*
X155955528Y-127079822D01*
X156039110Y-127136931D01*
X156291000Y-127187940D01*
X156891000Y-127187940D01*
X157126317Y-127143662D01*
X157225528Y-127079822D01*
X157309110Y-127136931D01*
X157561000Y-127187940D01*
X158161000Y-127187940D01*
X158396317Y-127143662D01*
X158495528Y-127079822D01*
X158579110Y-127136931D01*
X158831000Y-127187940D01*
X159431000Y-127187940D01*
X159666317Y-127143662D01*
X159882441Y-127004590D01*
X160027431Y-126792390D01*
X160078440Y-126540500D01*
X160078440Y-126301500D01*
X160995972Y-126301500D01*
X161031231Y-126336821D01*
X161404518Y-126491824D01*
X161808708Y-126492176D01*
X162182266Y-126337825D01*
X162468321Y-126052269D01*
X162623324Y-125678982D01*
X162623676Y-125274792D01*
X162469325Y-124901234D01*
X162183769Y-124615179D01*
X161810482Y-124460176D01*
X161406292Y-124459824D01*
X161032734Y-124614175D01*
X160996346Y-124650500D01*
X160078440Y-124650500D01*
X160078440Y-124540500D01*
X160034162Y-124305183D01*
X159895090Y-124089059D01*
X159682890Y-123944069D01*
X159431000Y-123893060D01*
X158831000Y-123893060D01*
X158595683Y-123937338D01*
X158496472Y-124001178D01*
X158412890Y-123944069D01*
X158161000Y-123893060D01*
X157561000Y-123893060D01*
X157325683Y-123937338D01*
X157226472Y-124001178D01*
X157142890Y-123944069D01*
X156891000Y-123893060D01*
X156291000Y-123893060D01*
X156055683Y-123937338D01*
X155956472Y-124001178D01*
X155872890Y-123944069D01*
X155621000Y-123893060D01*
X155021000Y-123893060D01*
X154785683Y-123937338D01*
X154686472Y-124001178D01*
X154602890Y-123944069D01*
X154351000Y-123893060D01*
X153751000Y-123893060D01*
X153515683Y-123937338D01*
X153416472Y-124001178D01*
X153332890Y-123944069D01*
X153081000Y-123893060D01*
X152481000Y-123893060D01*
X152245683Y-123937338D01*
X152146472Y-124001178D01*
X152062890Y-123944069D01*
X151811000Y-123893060D01*
X151211000Y-123893060D01*
X150975683Y-123937338D01*
X150876472Y-124001178D01*
X150792890Y-123944069D01*
X150541000Y-123893060D01*
X149941000Y-123893060D01*
X149705683Y-123937338D01*
X149606472Y-124001178D01*
X149522890Y-123944069D01*
X149271000Y-123893060D01*
X148671000Y-123893060D01*
X148435683Y-123937338D01*
X148219559Y-124076410D01*
X148074569Y-124288610D01*
X148023560Y-124540500D01*
X148023560Y-124739056D01*
X147828595Y-124777837D01*
X147560783Y-124956783D01*
X147560781Y-124956786D01*
X146545783Y-125971783D01*
X146366837Y-126239594D01*
X146335577Y-126396750D01*
X146304000Y-126555500D01*
X132827500Y-126555500D01*
X132827500Y-126396750D01*
X132668750Y-126238000D01*
X131719500Y-126238000D01*
X131465500Y-126238000D01*
X131445500Y-126238000D01*
X131445500Y-125984000D01*
X131465500Y-125984000D01*
X131465500Y-125964000D01*
X131719500Y-125964000D01*
X131719500Y-125984000D01*
X132668750Y-125984000D01*
X132827500Y-125825250D01*
X132827500Y-125534690D01*
X132730827Y-125301301D01*
X132552198Y-125122673D01*
X132545534Y-125119913D01*
X132643941Y-125056590D01*
X132782570Y-124853700D01*
X137795000Y-124853700D01*
X138067165Y-124799563D01*
X138297894Y-124645394D01*
X140265894Y-122677395D01*
X140266095Y-122677093D01*
X140266394Y-122676894D01*
X140789781Y-122153507D01*
X140843000Y-122164093D01*
X141411285Y-122051054D01*
X141893054Y-121729147D01*
X142120702Y-121388447D01*
X142187817Y-121531358D01*
X142616076Y-121921645D01*
X143026110Y-122091476D01*
X143256000Y-121970155D01*
X143256000Y-120777000D01*
X143510000Y-120777000D01*
X143510000Y-121970155D01*
X143739890Y-122091476D01*
X144149924Y-121921645D01*
X144578183Y-121531358D01*
X144723700Y-121221500D01*
X175510041Y-121221500D01*
X175624115Y-121794989D01*
X175948971Y-122281170D01*
X176263752Y-122491500D01*
X175948971Y-122701830D01*
X175624115Y-123188011D01*
X175510041Y-123761500D01*
X175624115Y-124334989D01*
X175948971Y-124821170D01*
X176435152Y-125146026D01*
X177008641Y-125260100D01*
X177067359Y-125260100D01*
X177640848Y-125146026D01*
X178127029Y-124821170D01*
X178308000Y-124550328D01*
X178488971Y-124821170D01*
X178975152Y-125146026D01*
X179548641Y-125260100D01*
X179607359Y-125260100D01*
X180180848Y-125146026D01*
X180667029Y-124821170D01*
X180848000Y-124550328D01*
X181028971Y-124821170D01*
X181515152Y-125146026D01*
X182088641Y-125260100D01*
X182147359Y-125260100D01*
X182720848Y-125146026D01*
X183207029Y-124821170D01*
X183388000Y-124550328D01*
X183568971Y-124821170D01*
X184055152Y-125146026D01*
X184628641Y-125260100D01*
X184687359Y-125260100D01*
X185260848Y-125146026D01*
X185747029Y-124821170D01*
X185928000Y-124550328D01*
X186108971Y-124821170D01*
X186595152Y-125146026D01*
X187168641Y-125260100D01*
X187227359Y-125260100D01*
X187800848Y-125146026D01*
X188287029Y-124821170D01*
X188611885Y-124334989D01*
X188725959Y-123761500D01*
X188611885Y-123188011D01*
X188287029Y-122701830D01*
X188273358Y-122692695D01*
X188296917Y-122688262D01*
X188513041Y-122549190D01*
X188658031Y-122336990D01*
X188709040Y-122085100D01*
X188709040Y-120357900D01*
X188664762Y-120122583D01*
X188525690Y-119906459D01*
X188313490Y-119761469D01*
X188061600Y-119710460D01*
X186334400Y-119710460D01*
X186099083Y-119754738D01*
X185882959Y-119893810D01*
X185737969Y-120106010D01*
X185729092Y-120149845D01*
X185260848Y-119836974D01*
X184687359Y-119722900D01*
X184628641Y-119722900D01*
X184055152Y-119836974D01*
X183568971Y-120161830D01*
X183388000Y-120432672D01*
X183207029Y-120161830D01*
X182720848Y-119836974D01*
X182147359Y-119722900D01*
X182088641Y-119722900D01*
X181515152Y-119836974D01*
X181028971Y-120161830D01*
X180848000Y-120432672D01*
X180667029Y-120161830D01*
X180180848Y-119836974D01*
X179607359Y-119722900D01*
X179548641Y-119722900D01*
X178975152Y-119836974D01*
X178488971Y-120161830D01*
X178308000Y-120432672D01*
X178127029Y-120161830D01*
X177640848Y-119836974D01*
X177067359Y-119722900D01*
X177008641Y-119722900D01*
X176435152Y-119836974D01*
X175948971Y-120161830D01*
X175624115Y-120648011D01*
X175510041Y-121221500D01*
X144723700Y-121221500D01*
X144824486Y-121006892D01*
X144703819Y-120777000D01*
X143510000Y-120777000D01*
X143256000Y-120777000D01*
X143236000Y-120777000D01*
X143236000Y-120523000D01*
X143256000Y-120523000D01*
X143256000Y-119329845D01*
X143510000Y-119329845D01*
X143510000Y-120523000D01*
X144703819Y-120523000D01*
X144824486Y-120293108D01*
X144578183Y-119768642D01*
X144149924Y-119378355D01*
X143739890Y-119208524D01*
X143510000Y-119329845D01*
X143256000Y-119329845D01*
X143026110Y-119208524D01*
X142616076Y-119378355D01*
X142187817Y-119768642D01*
X142120702Y-119911553D01*
X141893054Y-119570853D01*
X141411285Y-119248946D01*
X140843000Y-119135907D01*
X140274715Y-119248946D01*
X139792946Y-119570853D01*
X139573000Y-119900026D01*
X139353054Y-119570853D01*
X138871285Y-119248946D01*
X138303000Y-119135907D01*
X137734715Y-119248946D01*
X137252946Y-119570853D01*
X137225150Y-119612452D01*
X137216162Y-119564683D01*
X137077090Y-119348559D01*
X136864890Y-119203569D01*
X136613000Y-119152560D01*
X135496493Y-119152560D01*
X134747000Y-118403066D01*
X134747000Y-117676208D01*
X140525324Y-117676208D01*
X140679675Y-118049766D01*
X140965231Y-118335821D01*
X141338518Y-118490824D01*
X141742708Y-118491176D01*
X142116266Y-118336825D01*
X142402321Y-118051269D01*
X142557324Y-117677982D01*
X142557510Y-117464779D01*
X144012894Y-116009395D01*
X144167062Y-115778665D01*
X144167063Y-115778664D01*
X144221200Y-115506500D01*
X144221200Y-113311129D01*
X144370821Y-113161769D01*
X144525824Y-112788482D01*
X144526176Y-112384292D01*
X144371825Y-112010734D01*
X144086269Y-111724679D01*
X143712982Y-111569676D01*
X143308792Y-111569324D01*
X142935234Y-111723675D01*
X142649179Y-112009231D01*
X142494176Y-112382518D01*
X142493824Y-112786708D01*
X142648175Y-113160266D01*
X142798800Y-113311154D01*
X142798800Y-115211911D01*
X141551704Y-116459008D01*
X141340292Y-116458824D01*
X140966734Y-116613175D01*
X140680679Y-116898731D01*
X140525676Y-117272018D01*
X140525324Y-117676208D01*
X134747000Y-117676208D01*
X134747000Y-113037472D01*
X135330738Y-113037472D01*
X135735909Y-114018061D01*
X136485493Y-114768955D01*
X137465373Y-115175836D01*
X138526372Y-115176762D01*
X139506961Y-114771591D01*
X140257855Y-114022007D01*
X140664736Y-113042127D01*
X140665662Y-111981128D01*
X140260491Y-111000539D01*
X139510907Y-110249645D01*
X138531027Y-109842764D01*
X137470028Y-109841838D01*
X136489439Y-110247009D01*
X135738545Y-110996593D01*
X135331664Y-111976473D01*
X135330738Y-113037472D01*
X134747000Y-113037472D01*
X134747000Y-106718460D01*
X134904378Y-106613303D01*
X135204251Y-106164513D01*
X135225908Y-106237763D01*
X135568424Y-106661181D01*
X136046903Y-106921293D01*
X136119529Y-106935777D01*
X136334500Y-106813183D01*
X136334500Y-104965500D01*
X136314500Y-104965500D01*
X136314500Y-104711500D01*
X136334500Y-104711500D01*
X136334500Y-102863817D01*
X136588500Y-102863817D01*
X136588500Y-104711500D01*
X136608500Y-104711500D01*
X136608500Y-104965500D01*
X136588500Y-104965500D01*
X136588500Y-106813183D01*
X136803471Y-106935777D01*
X136876097Y-106921293D01*
X137354576Y-106661181D01*
X137697092Y-106237763D01*
X137718749Y-106164513D01*
X138018622Y-106613303D01*
X138469570Y-106914618D01*
X139001500Y-107020425D01*
X139533430Y-106914618D01*
X139984378Y-106613303D01*
X140285693Y-106162355D01*
X140391500Y-105630425D01*
X140391500Y-104046575D01*
X140285693Y-103514645D01*
X139984378Y-103063697D01*
X139533430Y-102762382D01*
X139001500Y-102656575D01*
X138469570Y-102762382D01*
X138018622Y-103063697D01*
X137718749Y-103512487D01*
X137697092Y-103439237D01*
X137354576Y-103015819D01*
X136876097Y-102755707D01*
X136803471Y-102741223D01*
X136588500Y-102863817D01*
X136334500Y-102863817D01*
X136119529Y-102741223D01*
X136046903Y-102755707D01*
X135568424Y-103015819D01*
X135225908Y-103439237D01*
X135204251Y-103512487D01*
X134904378Y-103063697D01*
X134453430Y-102762382D01*
X133921500Y-102656575D01*
X133389570Y-102762382D01*
X132938622Y-103063697D01*
X132637307Y-103514645D01*
X132531500Y-104046575D01*
X132531500Y-105630425D01*
X132637307Y-106162355D01*
X132938622Y-106613303D01*
X133096000Y-106718460D01*
X133096000Y-118808500D01*
X133158837Y-119124406D01*
X133337783Y-119392217D01*
X134265560Y-120319993D01*
X134265560Y-121131272D01*
X130042894Y-116908606D01*
X129812165Y-116754437D01*
X129540000Y-116700300D01*
X127168435Y-116700300D01*
X127226023Y-116614114D01*
X127320032Y-116141500D01*
X127226023Y-115668886D01*
X126958309Y-115268223D01*
X126557646Y-115000509D01*
X126085032Y-114906500D01*
X125220968Y-114906500D01*
X124748354Y-115000509D01*
X124358000Y-115261335D01*
X123967646Y-115000509D01*
X123495032Y-114906500D01*
X122630968Y-114906500D01*
X122158354Y-115000509D01*
X121757691Y-115268223D01*
X121489977Y-115668886D01*
X121395968Y-116141500D01*
X121489977Y-116614114D01*
X121547565Y-116700300D01*
X121325589Y-116700300D01*
X120263894Y-115638606D01*
X119280894Y-114655606D01*
X119050165Y-114501437D01*
X118778000Y-114447300D01*
X116072940Y-114447300D01*
X116072940Y-114408500D01*
X116054914Y-114312700D01*
X121649395Y-114312700D01*
X121757691Y-114474777D01*
X122158354Y-114742491D01*
X122630968Y-114836500D01*
X123495032Y-114836500D01*
X123967646Y-114742491D01*
X124358000Y-114481665D01*
X124748354Y-114742491D01*
X125220968Y-114836500D01*
X126085032Y-114836500D01*
X126557646Y-114742491D01*
X126958309Y-114474777D01*
X127226023Y-114074114D01*
X127320032Y-113601500D01*
X127226023Y-113128886D01*
X126958309Y-112728223D01*
X126557646Y-112460509D01*
X126085032Y-112366500D01*
X125220968Y-112366500D01*
X124748354Y-112460509D01*
X124358000Y-112721335D01*
X123967646Y-112460509D01*
X123495032Y-112366500D01*
X122630968Y-112366500D01*
X122158354Y-112460509D01*
X121757691Y-112728223D01*
X121649395Y-112890300D01*
X111927588Y-112890300D01*
X110756700Y-111719412D01*
X110756700Y-111100210D01*
X110763610Y-111104931D01*
X111015500Y-111155940D01*
X111615500Y-111155940D01*
X111850817Y-111111662D01*
X111925272Y-111063752D01*
X111928437Y-111079665D01*
X112082606Y-111310394D01*
X112590605Y-111818394D01*
X112712289Y-111899700D01*
X112821336Y-111972563D01*
X113093500Y-112026700D01*
X121895264Y-112026700D01*
X122158354Y-112202491D01*
X122630968Y-112296500D01*
X123495032Y-112296500D01*
X123967646Y-112202491D01*
X124358000Y-111941665D01*
X124748354Y-112202491D01*
X125220968Y-112296500D01*
X126085032Y-112296500D01*
X126557646Y-112202491D01*
X126958309Y-111934777D01*
X127226023Y-111534114D01*
X127320032Y-111061500D01*
X127226023Y-110588886D01*
X126958309Y-110188223D01*
X126557646Y-109920509D01*
X126085032Y-109826500D01*
X125220968Y-109826500D01*
X124748354Y-109920509D01*
X124358000Y-110181335D01*
X123967646Y-109920509D01*
X123495032Y-109826500D01*
X122630968Y-109826500D01*
X122158354Y-109920509D01*
X121757691Y-110188223D01*
X121489977Y-110588886D01*
X121486911Y-110604300D01*
X118479877Y-110604300D01*
X118716821Y-110367769D01*
X118871824Y-109994482D01*
X118872176Y-109590292D01*
X118717825Y-109216734D01*
X118432269Y-108930679D01*
X118058982Y-108775676D01*
X117654792Y-108775324D01*
X117281234Y-108929675D01*
X117130346Y-109080300D01*
X116072940Y-109080300D01*
X116072940Y-109008500D01*
X116028662Y-108773183D01*
X115963700Y-108672229D01*
X115963700Y-108521500D01*
X121395968Y-108521500D01*
X121489977Y-108994114D01*
X121757691Y-109394777D01*
X122158354Y-109662491D01*
X122630968Y-109756500D01*
X123495032Y-109756500D01*
X123967646Y-109662491D01*
X124358000Y-109401665D01*
X124748354Y-109662491D01*
X125220968Y-109756500D01*
X126085032Y-109756500D01*
X126557646Y-109662491D01*
X126958309Y-109394777D01*
X127226023Y-108994114D01*
X127320032Y-108521500D01*
X127226023Y-108048886D01*
X126958309Y-107648223D01*
X126557646Y-107380509D01*
X126085032Y-107286500D01*
X125220968Y-107286500D01*
X124748354Y-107380509D01*
X124358000Y-107641335D01*
X123967646Y-107380509D01*
X123495032Y-107286500D01*
X122630968Y-107286500D01*
X122158354Y-107380509D01*
X121757691Y-107648223D01*
X121489977Y-108048886D01*
X121395968Y-108521500D01*
X115963700Y-108521500D01*
X115963700Y-106659500D01*
X115943190Y-106556390D01*
X115909563Y-106387335D01*
X115755394Y-106156606D01*
X115694940Y-106096152D01*
X115694940Y-105981500D01*
X121395968Y-105981500D01*
X121489977Y-106454114D01*
X121757691Y-106854777D01*
X122158354Y-107122491D01*
X122630968Y-107216500D01*
X123495032Y-107216500D01*
X123967646Y-107122491D01*
X124358000Y-106861665D01*
X124748354Y-107122491D01*
X125220968Y-107216500D01*
X126085032Y-107216500D01*
X126557646Y-107122491D01*
X126958309Y-106854777D01*
X127226023Y-106454114D01*
X127320032Y-105981500D01*
X127226023Y-105508886D01*
X126958309Y-105108223D01*
X126557646Y-104840509D01*
X126085032Y-104746500D01*
X125220968Y-104746500D01*
X124748354Y-104840509D01*
X124358000Y-105101335D01*
X123967646Y-104840509D01*
X123495032Y-104746500D01*
X122630968Y-104746500D01*
X122158354Y-104840509D01*
X121757691Y-105108223D01*
X121489977Y-105508886D01*
X121395968Y-105981500D01*
X115694940Y-105981500D01*
X115694940Y-105404500D01*
X115650662Y-105169183D01*
X115514478Y-104957547D01*
X115585827Y-104886199D01*
X115682500Y-104652810D01*
X115682500Y-104362250D01*
X115523750Y-104203500D01*
X114574500Y-104203500D01*
X114574500Y-104223500D01*
X114320500Y-104223500D01*
X114320500Y-104203500D01*
X114300500Y-104203500D01*
X114300500Y-103949500D01*
X114320500Y-103949500D01*
X114320500Y-103150250D01*
X114574500Y-103150250D01*
X114574500Y-103949500D01*
X115523750Y-103949500D01*
X115682500Y-103790750D01*
X115682500Y-103500190D01*
X115658190Y-103441500D01*
X121395968Y-103441500D01*
X121489977Y-103914114D01*
X121757691Y-104314777D01*
X122158354Y-104582491D01*
X122630968Y-104676500D01*
X123495032Y-104676500D01*
X123967646Y-104582491D01*
X124358000Y-104321665D01*
X124748354Y-104582491D01*
X125220968Y-104676500D01*
X126085032Y-104676500D01*
X126557646Y-104582491D01*
X126958309Y-104314777D01*
X127226023Y-103914114D01*
X127320032Y-103441500D01*
X127226023Y-102968886D01*
X126958309Y-102568223D01*
X126557646Y-102300509D01*
X126085032Y-102206500D01*
X125220968Y-102206500D01*
X124748354Y-102300509D01*
X124358000Y-102561335D01*
X123967646Y-102300509D01*
X123495032Y-102206500D01*
X122630968Y-102206500D01*
X122158354Y-102300509D01*
X121757691Y-102568223D01*
X121489977Y-102968886D01*
X121395968Y-103441500D01*
X115658190Y-103441500D01*
X115585827Y-103266801D01*
X115407198Y-103088173D01*
X115173809Y-102991500D01*
X114733250Y-102991500D01*
X114574500Y-103150250D01*
X114320500Y-103150250D01*
X114161750Y-102991500D01*
X113721191Y-102991500D01*
X113487802Y-103088173D01*
X113346564Y-103229410D01*
X113311590Y-103175059D01*
X113099390Y-103030069D01*
X112847500Y-102979060D01*
X111647500Y-102979060D01*
X111412183Y-103023338D01*
X111264700Y-103118241D01*
X111264700Y-102891402D01*
X111382266Y-102842825D01*
X111668321Y-102557269D01*
X111823324Y-102183982D01*
X111823676Y-101779792D01*
X111669325Y-101406234D01*
X111482527Y-101219109D01*
X121469538Y-101219109D01*
X121473408Y-101256781D01*
X121699920Y-101684974D01*
X122073053Y-101993890D01*
X122536000Y-102136500D01*
X122936000Y-102136500D01*
X122936000Y-101028500D01*
X123190000Y-101028500D01*
X123190000Y-102136500D01*
X123590000Y-102136500D01*
X124052947Y-101993890D01*
X124358000Y-101741337D01*
X124663053Y-101993890D01*
X125126000Y-102136500D01*
X125526000Y-102136500D01*
X125526000Y-101028500D01*
X125780000Y-101028500D01*
X125780000Y-102136500D01*
X126180000Y-102136500D01*
X126642947Y-101993890D01*
X127016080Y-101684974D01*
X127242592Y-101256781D01*
X127246462Y-101219109D01*
X127121731Y-101028500D01*
X125780000Y-101028500D01*
X125526000Y-101028500D01*
X123190000Y-101028500D01*
X122936000Y-101028500D01*
X121594269Y-101028500D01*
X121469538Y-101219109D01*
X111482527Y-101219109D01*
X111383769Y-101120179D01*
X111010482Y-100965176D01*
X110606292Y-100964824D01*
X110232734Y-101119175D01*
X109946679Y-101404731D01*
X109791676Y-101778018D01*
X109791324Y-102182208D01*
X109842300Y-102305579D01*
X109842300Y-103076128D01*
X109774890Y-103030069D01*
X109523000Y-102979060D01*
X108323000Y-102979060D01*
X108087683Y-103023338D01*
X107871559Y-103162410D01*
X107825031Y-103230506D01*
X107682698Y-103088173D01*
X107449309Y-102991500D01*
X107008750Y-102991500D01*
X106850000Y-103150250D01*
X106850000Y-103949500D01*
X106870000Y-103949500D01*
X106870000Y-104203500D01*
X106850000Y-104203500D01*
X106850000Y-104223500D01*
X106596000Y-104223500D01*
X106596000Y-104203500D01*
X105646750Y-104203500D01*
X105488000Y-104362250D01*
X105488000Y-104652810D01*
X105584673Y-104886199D01*
X105658296Y-104959821D01*
X105526569Y-105152610D01*
X105475560Y-105404500D01*
X105475560Y-105418151D01*
X104658204Y-106235508D01*
X104446792Y-106235324D01*
X104073234Y-106389675D01*
X103787179Y-106675231D01*
X103632176Y-107048518D01*
X103631824Y-107452708D01*
X98625700Y-107452708D01*
X98517646Y-107380509D01*
X98045032Y-107286500D01*
X97180968Y-107286500D01*
X96708354Y-107380509D01*
X96343000Y-107624630D01*
X95977646Y-107380509D01*
X95505032Y-107286500D01*
X94640968Y-107286500D01*
X94168354Y-107380509D01*
X93767691Y-107648223D01*
X93499977Y-108048886D01*
X93405968Y-108521500D01*
X86308000Y-108521500D01*
X86308000Y-105981500D01*
X93405968Y-105981500D01*
X93499977Y-106454114D01*
X93767691Y-106854777D01*
X94168354Y-107122491D01*
X94640968Y-107216500D01*
X95505032Y-107216500D01*
X95977646Y-107122491D01*
X96343000Y-106878370D01*
X96708354Y-107122491D01*
X97180968Y-107216500D01*
X98045032Y-107216500D01*
X98517646Y-107122491D01*
X98918309Y-106854777D01*
X99186023Y-106454114D01*
X99280032Y-105981500D01*
X99186023Y-105508886D01*
X98918309Y-105108223D01*
X98517646Y-104840509D01*
X98045032Y-104746500D01*
X97180968Y-104746500D01*
X96708354Y-104840509D01*
X96343000Y-105084630D01*
X95977646Y-104840509D01*
X95505032Y-104746500D01*
X94640968Y-104746500D01*
X94168354Y-104840509D01*
X93767691Y-105108223D01*
X93499977Y-105508886D01*
X93405968Y-105981500D01*
X86308000Y-105981500D01*
X86308000Y-103759109D01*
X93479538Y-103759109D01*
X93483408Y-103796781D01*
X93709920Y-104224974D01*
X94083053Y-104533890D01*
X94546000Y-104676500D01*
X94946000Y-104676500D01*
X94946000Y-103568500D01*
X95200000Y-103568500D01*
X95200000Y-104676500D01*
X95600000Y-104676500D01*
X96062947Y-104533890D01*
X96343000Y-104302035D01*
X96623053Y-104533890D01*
X97086000Y-104676500D01*
X97486000Y-104676500D01*
X97486000Y-103568500D01*
X97740000Y-103568500D01*
X97740000Y-104676500D01*
X98140000Y-104676500D01*
X98602947Y-104533890D01*
X98976080Y-104224974D01*
X99202592Y-103796781D01*
X99206462Y-103759109D01*
X99081731Y-103568500D01*
X97740000Y-103568500D01*
X97486000Y-103568500D01*
X95200000Y-103568500D01*
X94946000Y-103568500D01*
X93604269Y-103568500D01*
X93479538Y-103759109D01*
X86308000Y-103759109D01*
X86308000Y-103500190D01*
X105488000Y-103500190D01*
X105488000Y-103790750D01*
X105646750Y-103949500D01*
X106596000Y-103949500D01*
X106596000Y-103150250D01*
X106437250Y-102991500D01*
X105996691Y-102991500D01*
X105763302Y-103088173D01*
X105584673Y-103266801D01*
X105488000Y-103500190D01*
X86308000Y-103500190D01*
X86308000Y-103123891D01*
X93479538Y-103123891D01*
X93604269Y-103314500D01*
X94946000Y-103314500D01*
X94946000Y-102206500D01*
X95200000Y-102206500D01*
X95200000Y-103314500D01*
X97486000Y-103314500D01*
X97486000Y-102206500D01*
X97740000Y-102206500D01*
X97740000Y-103314500D01*
X99081731Y-103314500D01*
X99206462Y-103123891D01*
X99202592Y-103086219D01*
X98976080Y-102658026D01*
X98602947Y-102349110D01*
X98140000Y-102206500D01*
X97740000Y-102206500D01*
X97486000Y-102206500D01*
X97086000Y-102206500D01*
X96623053Y-102349110D01*
X96343000Y-102580965D01*
X96062947Y-102349110D01*
X95600000Y-102206500D01*
X95200000Y-102206500D01*
X94946000Y-102206500D01*
X94546000Y-102206500D01*
X94083053Y-102349110D01*
X93709920Y-102658026D01*
X93483408Y-103086219D01*
X93479538Y-103123891D01*
X86308000Y-103123891D01*
X86308000Y-100901500D01*
X93405968Y-100901500D01*
X93499977Y-101374114D01*
X93767691Y-101774777D01*
X94168354Y-102042491D01*
X94640968Y-102136500D01*
X95505032Y-102136500D01*
X95977646Y-102042491D01*
X96343000Y-101798370D01*
X96708354Y-102042491D01*
X97180968Y-102136500D01*
X98045032Y-102136500D01*
X98517646Y-102042491D01*
X98918309Y-101774777D01*
X99186023Y-101374114D01*
X99280032Y-100901500D01*
X99216856Y-100583891D01*
X121469538Y-100583891D01*
X121594269Y-100774500D01*
X122936000Y-100774500D01*
X122936000Y-99666500D01*
X123190000Y-99666500D01*
X123190000Y-100774500D01*
X125526000Y-100774500D01*
X125526000Y-99666500D01*
X125780000Y-99666500D01*
X125780000Y-100774500D01*
X127121731Y-100774500D01*
X127246462Y-100583891D01*
X127242592Y-100546219D01*
X127167469Y-100404208D01*
X135064324Y-100404208D01*
X135218675Y-100777766D01*
X135504231Y-101063821D01*
X135877518Y-101218824D01*
X136281708Y-101219176D01*
X136655266Y-101064825D01*
X136806154Y-100914200D01*
X137874587Y-100914200D01*
X137858676Y-100952518D01*
X137858324Y-101356708D01*
X138012675Y-101730266D01*
X138298231Y-102016321D01*
X138671518Y-102171324D01*
X139075708Y-102171676D01*
X139165349Y-102134637D01*
X141927606Y-104896895D01*
X142158336Y-105051063D01*
X142430500Y-105105200D01*
X146632512Y-105105200D01*
X146459179Y-105278231D01*
X146304176Y-105651518D01*
X146303824Y-106055708D01*
X146458175Y-106429266D01*
X146608800Y-106580154D01*
X146608800Y-109383371D01*
X146459179Y-109532731D01*
X146304176Y-109906018D01*
X146303824Y-110310208D01*
X146458175Y-110683766D01*
X146743731Y-110969821D01*
X147117018Y-111124824D01*
X147521208Y-111125176D01*
X147894766Y-110970825D01*
X148132800Y-110733206D01*
X148132800Y-114803386D01*
X148074569Y-114888610D01*
X148023560Y-115140500D01*
X148023560Y-117140500D01*
X148067838Y-117375817D01*
X148206910Y-117591941D01*
X148419110Y-117736931D01*
X148671000Y-117787940D01*
X149271000Y-117787940D01*
X149506317Y-117743662D01*
X149605528Y-117679822D01*
X149689110Y-117736931D01*
X149941000Y-117787940D01*
X150541000Y-117787940D01*
X150776317Y-117743662D01*
X150875528Y-117679822D01*
X150959110Y-117736931D01*
X151211000Y-117787940D01*
X151811000Y-117787940D01*
X152046317Y-117743662D01*
X152145528Y-117679822D01*
X152229110Y-117736931D01*
X152481000Y-117787940D01*
X153081000Y-117787940D01*
X153316317Y-117743662D01*
X153415528Y-117679822D01*
X153499110Y-117736931D01*
X153751000Y-117787940D01*
X154351000Y-117787940D01*
X154586317Y-117743662D01*
X154685528Y-117679822D01*
X154769110Y-117736931D01*
X155021000Y-117787940D01*
X155621000Y-117787940D01*
X155856317Y-117743662D01*
X155955528Y-117679822D01*
X156039110Y-117736931D01*
X156291000Y-117787940D01*
X156891000Y-117787940D01*
X157126317Y-117743662D01*
X157225528Y-117679822D01*
X157309110Y-117736931D01*
X157561000Y-117787940D01*
X158161000Y-117787940D01*
X158396317Y-117743662D01*
X158486980Y-117685322D01*
X158704690Y-117775500D01*
X158845250Y-117775500D01*
X159004000Y-117616750D01*
X159004000Y-116267500D01*
X159258000Y-116267500D01*
X159258000Y-117616750D01*
X159416750Y-117775500D01*
X159557310Y-117775500D01*
X159790699Y-117678827D01*
X159969327Y-117500198D01*
X160066000Y-117266809D01*
X160066000Y-116426250D01*
X159907250Y-116267500D01*
X159258000Y-116267500D01*
X159004000Y-116267500D01*
X158984000Y-116267500D01*
X158984000Y-116013500D01*
X159004000Y-116013500D01*
X159004000Y-114664250D01*
X159258000Y-114664250D01*
X159258000Y-116013500D01*
X159907250Y-116013500D01*
X160066000Y-115854750D01*
X160066000Y-115014191D01*
X159969327Y-114780802D01*
X159790699Y-114602173D01*
X159557310Y-114505500D01*
X159416750Y-114505500D01*
X159258000Y-114664250D01*
X159004000Y-114664250D01*
X158845250Y-114505500D01*
X158704690Y-114505500D01*
X158487878Y-114595306D01*
X158412890Y-114544069D01*
X158161000Y-114493060D01*
X157561000Y-114493060D01*
X157325683Y-114537338D01*
X157226472Y-114601178D01*
X157142890Y-114544069D01*
X156891000Y-114493060D01*
X156291000Y-114493060D01*
X156055683Y-114537338D01*
X155956472Y-114601178D01*
X155872890Y-114544069D01*
X155621000Y-114493060D01*
X155021000Y-114493060D01*
X154785683Y-114537338D01*
X154762200Y-114552449D01*
X154762200Y-114300000D01*
X154753182Y-114254664D01*
X154708063Y-114027835D01*
X154553894Y-113797106D01*
X154236394Y-113479606D01*
X154005665Y-113325437D01*
X153733500Y-113271300D01*
X153384234Y-113271300D01*
X153419266Y-113256825D01*
X153570154Y-113106200D01*
X155420871Y-113106200D01*
X155570231Y-113255821D01*
X155943518Y-113410824D01*
X156347708Y-113411176D01*
X156721266Y-113256825D01*
X157007321Y-112971269D01*
X157162324Y-112597982D01*
X157162676Y-112193792D01*
X157008325Y-111820234D01*
X156722769Y-111534179D01*
X156613851Y-111488952D01*
X156654324Y-111391482D01*
X156654676Y-110987292D01*
X156632273Y-110933072D01*
X156848266Y-110843825D01*
X157134321Y-110558269D01*
X157289324Y-110184982D01*
X157289676Y-109780792D01*
X157135325Y-109407234D01*
X156849769Y-109121179D01*
X156476482Y-108966176D01*
X156072292Y-108965824D01*
X155698734Y-109120175D01*
X155547846Y-109270800D01*
X154522629Y-109270800D01*
X154373269Y-109121179D01*
X153999982Y-108966176D01*
X153595792Y-108965824D01*
X153222234Y-109120175D01*
X152936179Y-109405731D01*
X152781176Y-109779018D01*
X152780824Y-110183208D01*
X152858944Y-110372274D01*
X152682179Y-110548731D01*
X152527176Y-110922018D01*
X152526824Y-111326208D01*
X152562379Y-111412257D01*
X152269734Y-111533175D01*
X151983679Y-111818731D01*
X151828676Y-112192018D01*
X151828324Y-112596208D01*
X151982675Y-112969766D01*
X152268231Y-113255821D01*
X152305508Y-113271300D01*
X150345088Y-113271300D01*
X150063200Y-112989412D01*
X150063200Y-106616500D01*
X175510041Y-106616500D01*
X175624115Y-107189989D01*
X175948971Y-107676170D01*
X176263752Y-107886500D01*
X175948971Y-108096830D01*
X175624115Y-108583011D01*
X175510041Y-109156500D01*
X175624115Y-109729989D01*
X175948971Y-110216170D01*
X176435152Y-110541026D01*
X177008641Y-110655100D01*
X177067359Y-110655100D01*
X177640848Y-110541026D01*
X178127029Y-110216170D01*
X178308000Y-109945328D01*
X178488971Y-110216170D01*
X178975152Y-110541026D01*
X179548641Y-110655100D01*
X179607359Y-110655100D01*
X180180848Y-110541026D01*
X180667029Y-110216170D01*
X180848000Y-109945328D01*
X181028971Y-110216170D01*
X181515152Y-110541026D01*
X182088641Y-110655100D01*
X182147359Y-110655100D01*
X182720848Y-110541026D01*
X183207029Y-110216170D01*
X183388000Y-109945328D01*
X183568971Y-110216170D01*
X184055152Y-110541026D01*
X184628641Y-110655100D01*
X184687359Y-110655100D01*
X185260848Y-110541026D01*
X185747029Y-110216170D01*
X185928000Y-109945328D01*
X186108971Y-110216170D01*
X186595152Y-110541026D01*
X187168641Y-110655100D01*
X187227359Y-110655100D01*
X187800848Y-110541026D01*
X188287029Y-110216170D01*
X188611885Y-109729989D01*
X188725959Y-109156500D01*
X188611885Y-108583011D01*
X188287029Y-108096830D01*
X188273358Y-108087695D01*
X188296917Y-108083262D01*
X188513041Y-107944190D01*
X188658031Y-107731990D01*
X188709040Y-107480100D01*
X188709040Y-105752900D01*
X188664762Y-105517583D01*
X188525690Y-105301459D01*
X188313490Y-105156469D01*
X188061600Y-105105460D01*
X186334400Y-105105460D01*
X186099083Y-105149738D01*
X185882959Y-105288810D01*
X185737969Y-105501010D01*
X185729092Y-105544845D01*
X185260848Y-105231974D01*
X184687359Y-105117900D01*
X184628641Y-105117900D01*
X184055152Y-105231974D01*
X183568971Y-105556830D01*
X183388000Y-105827672D01*
X183207029Y-105556830D01*
X182720848Y-105231974D01*
X182147359Y-105117900D01*
X182088641Y-105117900D01*
X181515152Y-105231974D01*
X181028971Y-105556830D01*
X180848000Y-105827672D01*
X180667029Y-105556830D01*
X180180848Y-105231974D01*
X179607359Y-105117900D01*
X179548641Y-105117900D01*
X178975152Y-105231974D01*
X178488971Y-105556830D01*
X178308000Y-105827672D01*
X178127029Y-105556830D01*
X177640848Y-105231974D01*
X177067359Y-105117900D01*
X177008641Y-105117900D01*
X176435152Y-105231974D01*
X175948971Y-105556830D01*
X175624115Y-106043011D01*
X175510041Y-106616500D01*
X150063200Y-106616500D01*
X150063200Y-104902000D01*
X150009063Y-104629836D01*
X150009063Y-104629835D01*
X149854894Y-104399106D01*
X148934144Y-103478356D01*
X148703415Y-103324187D01*
X148431250Y-103270050D01*
X143328339Y-103270050D01*
X139758394Y-99700106D01*
X139527665Y-99545937D01*
X139255500Y-99491800D01*
X136806129Y-99491800D01*
X136656769Y-99342179D01*
X136283482Y-99187176D01*
X135879292Y-99186824D01*
X135505734Y-99341175D01*
X135219679Y-99626731D01*
X135064676Y-100000018D01*
X135064324Y-100404208D01*
X127167469Y-100404208D01*
X127016080Y-100118026D01*
X126642947Y-99809110D01*
X126180000Y-99666500D01*
X125780000Y-99666500D01*
X125526000Y-99666500D01*
X125126000Y-99666500D01*
X124663053Y-99809110D01*
X124358000Y-100061663D01*
X124052947Y-99809110D01*
X123590000Y-99666500D01*
X123190000Y-99666500D01*
X122936000Y-99666500D01*
X122536000Y-99666500D01*
X122073053Y-99809110D01*
X121699920Y-100118026D01*
X121473408Y-100546219D01*
X121469538Y-100583891D01*
X99216856Y-100583891D01*
X99186023Y-100428886D01*
X98918309Y-100028223D01*
X98517646Y-99760509D01*
X98045032Y-99666500D01*
X97180968Y-99666500D01*
X96708354Y-99760509D01*
X96343000Y-100004630D01*
X95977646Y-99760509D01*
X95505032Y-99666500D01*
X94640968Y-99666500D01*
X94168354Y-99760509D01*
X93767691Y-100028223D01*
X93499977Y-100428886D01*
X93405968Y-100901500D01*
X86308000Y-100901500D01*
X86308000Y-98361500D01*
X93405968Y-98361500D01*
X93499977Y-98834114D01*
X93767691Y-99234777D01*
X94168354Y-99502491D01*
X94640968Y-99596500D01*
X95505032Y-99596500D01*
X95977646Y-99502491D01*
X96343000Y-99258370D01*
X96708354Y-99502491D01*
X97180968Y-99596500D01*
X98045032Y-99596500D01*
X98517646Y-99502491D01*
X98918309Y-99234777D01*
X99186023Y-98834114D01*
X99280032Y-98361500D01*
X121395968Y-98361500D01*
X121489977Y-98834114D01*
X121757691Y-99234777D01*
X122158354Y-99502491D01*
X122630968Y-99596500D01*
X123495032Y-99596500D01*
X123967646Y-99502491D01*
X124358000Y-99241665D01*
X124748354Y-99502491D01*
X125220968Y-99596500D01*
X126085032Y-99596500D01*
X126557646Y-99502491D01*
X126958309Y-99234777D01*
X127226023Y-98834114D01*
X127320032Y-98361500D01*
X127226023Y-97888886D01*
X126958309Y-97488223D01*
X126557646Y-97220509D01*
X126085032Y-97126500D01*
X125220968Y-97126500D01*
X124748354Y-97220509D01*
X124358000Y-97481335D01*
X123967646Y-97220509D01*
X123495032Y-97126500D01*
X122630968Y-97126500D01*
X122158354Y-97220509D01*
X121757691Y-97488223D01*
X121489977Y-97888886D01*
X121395968Y-98361500D01*
X99280032Y-98361500D01*
X99186023Y-97888886D01*
X98918309Y-97488223D01*
X98517646Y-97220509D01*
X98045032Y-97126500D01*
X97180968Y-97126500D01*
X96708354Y-97220509D01*
X96343000Y-97464630D01*
X95977646Y-97220509D01*
X95505032Y-97126500D01*
X94640968Y-97126500D01*
X94168354Y-97220509D01*
X93767691Y-97488223D01*
X93499977Y-97888886D01*
X93405968Y-98361500D01*
X86308000Y-98361500D01*
X86308000Y-95821500D01*
X93405968Y-95821500D01*
X93499977Y-96294114D01*
X93767691Y-96694777D01*
X94168354Y-96962491D01*
X94640968Y-97056500D01*
X95505032Y-97056500D01*
X95977646Y-96962491D01*
X96343000Y-96718370D01*
X96708354Y-96962491D01*
X97180968Y-97056500D01*
X98045032Y-97056500D01*
X98517646Y-96962491D01*
X98918309Y-96694777D01*
X99186023Y-96294114D01*
X99280032Y-95821500D01*
X121395968Y-95821500D01*
X121489977Y-96294114D01*
X121757691Y-96694777D01*
X122158354Y-96962491D01*
X122630968Y-97056500D01*
X123495032Y-97056500D01*
X123967646Y-96962491D01*
X124358000Y-96701665D01*
X124748354Y-96962491D01*
X125220968Y-97056500D01*
X126085032Y-97056500D01*
X126557646Y-96962491D01*
X126958309Y-96694777D01*
X127226023Y-96294114D01*
X127269508Y-96075500D01*
X136233679Y-96075500D01*
X136359354Y-96707310D01*
X136717246Y-97242933D01*
X137252869Y-97600825D01*
X137884679Y-97726500D01*
X138467321Y-97726500D01*
X139099131Y-97600825D01*
X139634754Y-97242933D01*
X139992646Y-96707310D01*
X140007924Y-96630500D01*
X146123560Y-96630500D01*
X146123560Y-98630500D01*
X146167838Y-98865817D01*
X146306910Y-99081941D01*
X146519110Y-99226931D01*
X146771000Y-99277940D01*
X151171000Y-99277940D01*
X151406317Y-99233662D01*
X151622441Y-99094590D01*
X151668282Y-99027500D01*
X159599344Y-99027500D01*
X163096172Y-102524328D01*
X163549391Y-102827160D01*
X164084000Y-102933500D01*
X164618609Y-102827160D01*
X165071828Y-102524328D01*
X165374660Y-102071109D01*
X165481000Y-101536500D01*
X165374660Y-101001891D01*
X165071828Y-100548672D01*
X161165828Y-96642672D01*
X160712609Y-96339840D01*
X160178000Y-96233500D01*
X151670122Y-96233500D01*
X151635090Y-96179059D01*
X151422890Y-96034069D01*
X151171000Y-95983060D01*
X146771000Y-95983060D01*
X146535683Y-96027338D01*
X146319559Y-96166410D01*
X146174569Y-96378610D01*
X146123560Y-96630500D01*
X140007924Y-96630500D01*
X140118321Y-96075500D01*
X139992646Y-95443690D01*
X139634754Y-94908067D01*
X139460219Y-94791446D01*
X139687236Y-94613130D01*
X140003926Y-94049977D01*
X140035975Y-93918444D01*
X139916836Y-93662500D01*
X138303000Y-93662500D01*
X138303000Y-93682500D01*
X138049000Y-93682500D01*
X138049000Y-93662500D01*
X136435164Y-93662500D01*
X136316025Y-93918444D01*
X136348074Y-94049977D01*
X136664764Y-94613130D01*
X136891781Y-94791446D01*
X136717246Y-94908067D01*
X136359354Y-95443690D01*
X136233679Y-96075500D01*
X127269508Y-96075500D01*
X127320032Y-95821500D01*
X127226023Y-95348886D01*
X126958309Y-94948223D01*
X126557646Y-94680509D01*
X126085032Y-94586500D01*
X125220968Y-94586500D01*
X124748354Y-94680509D01*
X124358000Y-94941335D01*
X123967646Y-94680509D01*
X123495032Y-94586500D01*
X122630968Y-94586500D01*
X122158354Y-94680509D01*
X121757691Y-94948223D01*
X121489977Y-95348886D01*
X121395968Y-95821500D01*
X99280032Y-95821500D01*
X99186023Y-95348886D01*
X98918309Y-94948223D01*
X98517646Y-94680509D01*
X98045032Y-94586500D01*
X97180968Y-94586500D01*
X96708354Y-94680509D01*
X96343000Y-94924630D01*
X95977646Y-94680509D01*
X95505032Y-94586500D01*
X94640968Y-94586500D01*
X94168354Y-94680509D01*
X93767691Y-94948223D01*
X93499977Y-95348886D01*
X93405968Y-95821500D01*
X86308000Y-95821500D01*
X86308000Y-93281500D01*
X93405968Y-93281500D01*
X93499977Y-93754114D01*
X93767691Y-94154777D01*
X94168354Y-94422491D01*
X94640968Y-94516500D01*
X95505032Y-94516500D01*
X95977646Y-94422491D01*
X96343000Y-94178370D01*
X96708354Y-94422491D01*
X97180968Y-94516500D01*
X98045032Y-94516500D01*
X98517646Y-94422491D01*
X98918309Y-94154777D01*
X99186023Y-93754114D01*
X99280032Y-93281500D01*
X121395968Y-93281500D01*
X121489977Y-93754114D01*
X121757691Y-94154777D01*
X122158354Y-94422491D01*
X122630968Y-94516500D01*
X123495032Y-94516500D01*
X123967646Y-94422491D01*
X124358000Y-94161665D01*
X124748354Y-94422491D01*
X125220968Y-94516500D01*
X126085032Y-94516500D01*
X126557646Y-94422491D01*
X126958309Y-94154777D01*
X127226023Y-93754114D01*
X127320032Y-93281500D01*
X127226023Y-92808886D01*
X126958309Y-92408223D01*
X126557646Y-92140509D01*
X126085032Y-92046500D01*
X125220968Y-92046500D01*
X124748354Y-92140509D01*
X124358000Y-92401335D01*
X123967646Y-92140509D01*
X123495032Y-92046500D01*
X122630968Y-92046500D01*
X122158354Y-92140509D01*
X121757691Y-92408223D01*
X121489977Y-92808886D01*
X121395968Y-93281500D01*
X99280032Y-93281500D01*
X99186023Y-92808886D01*
X98918309Y-92408223D01*
X98517646Y-92140509D01*
X98045032Y-92046500D01*
X97180968Y-92046500D01*
X96708354Y-92140509D01*
X96343000Y-92384630D01*
X95977646Y-92140509D01*
X95505032Y-92046500D01*
X94640968Y-92046500D01*
X94168354Y-92140509D01*
X93767691Y-92408223D01*
X93499977Y-92808886D01*
X93405968Y-93281500D01*
X86308000Y-93281500D01*
X86308000Y-90634672D01*
X87375538Y-90634672D01*
X87780709Y-91615261D01*
X88530293Y-92366155D01*
X89510173Y-92773036D01*
X90571172Y-92773962D01*
X91551761Y-92368791D01*
X92302655Y-91619207D01*
X92667110Y-90741500D01*
X93405968Y-90741500D01*
X93499977Y-91214114D01*
X93767691Y-91614777D01*
X94168354Y-91882491D01*
X94640968Y-91976500D01*
X95505032Y-91976500D01*
X95977646Y-91882491D01*
X96343000Y-91638370D01*
X96708354Y-91882491D01*
X97180968Y-91976500D01*
X98045032Y-91976500D01*
X98517646Y-91882491D01*
X98918309Y-91614777D01*
X99186023Y-91214114D01*
X99280032Y-90741500D01*
X121395968Y-90741500D01*
X121489977Y-91214114D01*
X121757691Y-91614777D01*
X122158354Y-91882491D01*
X122630968Y-91976500D01*
X123495032Y-91976500D01*
X123967646Y-91882491D01*
X124358000Y-91621665D01*
X124748354Y-91882491D01*
X125220968Y-91976500D01*
X126085032Y-91976500D01*
X126557646Y-91882491D01*
X126958309Y-91614777D01*
X127226023Y-91214114D01*
X127269508Y-90995500D01*
X136233679Y-90995500D01*
X136359354Y-91627310D01*
X136717246Y-92162933D01*
X136891781Y-92279554D01*
X136664764Y-92457870D01*
X136348074Y-93021023D01*
X136316025Y-93152556D01*
X136435164Y-93408500D01*
X138049000Y-93408500D01*
X138049000Y-93388500D01*
X138303000Y-93388500D01*
X138303000Y-93408500D01*
X139916836Y-93408500D01*
X140035975Y-93152556D01*
X140003926Y-93021023D01*
X139687236Y-92457870D01*
X139460219Y-92279554D01*
X139634754Y-92162933D01*
X139992646Y-91627310D01*
X140118321Y-90995500D01*
X139992646Y-90363690D01*
X139634754Y-89828067D01*
X139099131Y-89470175D01*
X138467321Y-89344500D01*
X137884679Y-89344500D01*
X137252869Y-89470175D01*
X136717246Y-89828067D01*
X136359354Y-90363690D01*
X136233679Y-90995500D01*
X127269508Y-90995500D01*
X127320032Y-90741500D01*
X127226023Y-90268886D01*
X126958309Y-89868223D01*
X126557646Y-89600509D01*
X126085032Y-89506500D01*
X125220968Y-89506500D01*
X124748354Y-89600509D01*
X124358000Y-89861335D01*
X123967646Y-89600509D01*
X123495032Y-89506500D01*
X122630968Y-89506500D01*
X122158354Y-89600509D01*
X121757691Y-89868223D01*
X121489977Y-90268886D01*
X121395968Y-90741500D01*
X99280032Y-90741500D01*
X99186023Y-90268886D01*
X98918309Y-89868223D01*
X98517646Y-89600509D01*
X98045032Y-89506500D01*
X97180968Y-89506500D01*
X96708354Y-89600509D01*
X96343000Y-89844630D01*
X95977646Y-89600509D01*
X95505032Y-89506500D01*
X94640968Y-89506500D01*
X94168354Y-89600509D01*
X93767691Y-89868223D01*
X93499977Y-90268886D01*
X93405968Y-90741500D01*
X92667110Y-90741500D01*
X92709536Y-90639327D01*
X92710462Y-89578328D01*
X92305291Y-88597739D01*
X92226799Y-88519109D01*
X93479538Y-88519109D01*
X93483408Y-88556781D01*
X93709920Y-88984974D01*
X94083053Y-89293890D01*
X94546000Y-89436500D01*
X94946000Y-89436500D01*
X94946000Y-88328500D01*
X95200000Y-88328500D01*
X95200000Y-89436500D01*
X95600000Y-89436500D01*
X96062947Y-89293890D01*
X96343000Y-89062035D01*
X96623053Y-89293890D01*
X97086000Y-89436500D01*
X97486000Y-89436500D01*
X97486000Y-88328500D01*
X97740000Y-88328500D01*
X97740000Y-89436500D01*
X98140000Y-89436500D01*
X98602947Y-89293890D01*
X98976080Y-88984974D01*
X99202592Y-88556781D01*
X99206462Y-88519109D01*
X99081731Y-88328500D01*
X97740000Y-88328500D01*
X97486000Y-88328500D01*
X95200000Y-88328500D01*
X94946000Y-88328500D01*
X93604269Y-88328500D01*
X93479538Y-88519109D01*
X92226799Y-88519109D01*
X91555707Y-87846845D01*
X90575827Y-87439964D01*
X89514828Y-87439038D01*
X88534239Y-87844209D01*
X87783345Y-88593793D01*
X87376464Y-89573673D01*
X87375538Y-90634672D01*
X86308000Y-90634672D01*
X86308000Y-87006500D01*
X94416150Y-87006500D01*
X94083053Y-87109110D01*
M02*
